/* XPM */
static char * parts_xpm[] = {
"104 176 9 1",
" 	c None",
".	c #8E968A",
"+	c #020202",
"@	c #767C6F",
"#	c #6EC63B s Back0",
"$	c #6CB237 s Back1",
"%	c #FFFFFF",
"&	c #3E463E",
"*	c #E21616",
"..++++++....@@@@@@....++++++....++++++....@@@@@@....++++++....++++++....++++++....++++++....++++++..++++",
"+..++++..+@..@@@@..+@..++++..+@..++++..++..@@@@..++..++++..@+..++++..@@..++++..++..++++..++..++++..+..##",
"++......++@@......++@@......++@@......++++......++++......@@++......@@@@......++++......++++......++++++",
"++......++@@......++@@......++@@......++++......++++......@@++......@@@@......++++......++++......++..##",
"++......++@@......++@@......++@@......++++......++++......@@++......@@@@......++++......++++......++++++",
"++......++@@......++@@......++@@......++++......++++......@@++......@@@@......++++......++++......++..##",
"++......++@@......++@@......++@@......++++......++++......@@++......@@@@......++++......++++......++++++",
"++......++@@......++@@......++@@......++++......++++......@@++......@@@@......++++......++++......++..##",
"++......++@@......++@@......++@@......++++......++++......@@++......@@@@......++++......++++......++++++",
"+..@@@@..+@..@@@@..+@..++++..+@..++++..++..++++..++..++++..@+..++++..@@..@@@@..++..++++..++..++++..+..##",
"..@@@@@@....@@@@@@....++++++....++++++....++++++....++++++....++++++....@@@@@@....++++++....++++++..++++",
"+........+@........++........@@........+@........+@........++........+@........++........+@........+..##",
"++......++@@......++++......@@@@......++@@......++@@......++++......++@@......++++......++@@......++++++",
"++......++@@......++++......@@@@......++@@......++@@......++++......++@@......++++......++@@......++..##",
"++......++@@......++++......@@@@......++@@......++@@......++++......++@@......++++......++@@......++++++",
"++......++@@......++++......@@@@......++@@......++@@......++++......++@@......++++......++@@......++..##",
"++......++@@......++++......@@@@......++@@......++@@......++++......++@@......++++......++@@......++++++",
"++......++@@......++++......@@@@......++@@......++@@......++++......++@@......++++......++@@......++..##",
"+..++++..+@..@@@@..++..++++..@@..++++..+@..@@@@..+@..++++..++..++++..+@..@@@@..++..++++..+@..++++..+++++",
"..++++++....@@@@@@....++++++....++++++....@@@@@@....++++++....++++++....@@@@@@....++++++....++++++....##",
"##++++++####$$$$$$####++++++####++++++####$$$$$$####++++++####++++++####++++++####++++++####++++++##++++",
"+##++++##+$##$$$$##+$##++++##+$##++++##++##$$$$##++##++++##$+##++++##$$##++++##++##++++##++##++++##+%%%%",
"++######++$$######++$$######++$$######++++######++++######$$++######$$$$######++++######++++######++%%%%",
"++######++$$######++$$######++$$######++++######++++######$$++######$$$$######++++######++++######++%%%%",
"++######++$$######++$$######++$$######++++######++++######$$++######$$$$######++++######++++######++%%%%",
"++######++$$######++$$######++$$######++++######++++######$$++######$$$$######++++######++++######++%%%%",
"++######++$$######++$$######++$$######++++######++++######$$++######$$$$######++++######++++######++%%%%",
"++######++$$######++$$######++$$######++++######++++######$$++######$$$$######++++######++++######++%%%%",
"++######++$$######++$$######++$$######++++######++++######$$++######$$$$######++++######++++######++%%%%",
"+##$$$$##+$##$$$$##+$##++++##+$##++++##++##++++##++##++++##$+##++++##$$##$$$$##++##++++##++##++++##+%%%%",
"##$$$$$$####$$$$$$####++++++####++++++####++++++####++++++####++++++####$$$$$$####++++++####++++++##%%%%",
"+########+$########++########$$########+$########+$########++########+$########++########+$########+.+++",
"++######++$$######++++######$$$$######++$$######++$$######++++######++$$######++++######++$$######+++...",
"++######++$$######++++######$$$$######++$$######++$$######++++######++$$######++++######++$$######+++...",
"++######++$$######++++######$$$$######++$$######++$$######++++######++$$######++++######++$$######+++...",
"++######++$$######++++######$$$$######++$$######++$$######++++######++$$######++++######++$$######++&@@@",
"++######++$$######++++######$$$$######++$$######++$$######++++######++$$######++++######++$$######+++...",
"++######++$$######++++######$$$$######++$$######++$$######++++######++$$######++++######++$$######+++...",
"+##++++##+$##$$$$##++##++++##$$##++++##+$##$$$$##+$##++++##++##++++##+$##$$$$##++##++++##+$##++++##++...",
"##++++++####$$$$$$####++++++####++++++####$$$$$$####++++++####++++++####$$$$$$####++++++####++++++##.+++",
".+++..@@@..+++..+++..@@@..+++..+++..+++..+++..+++.#+++##$$$##+++##+++##$$$##+++##+++##+++##+++##+++##+++",
"+...+@...+@...+@...++...++...@+...@@...++...++...++###+$###+$###+$###++###++###$+###$$###++###++###++###",
"+...+@...+@...+@...++...++...@+...@@...++...++...++###+$###+$###+$###++###++###$+###$$###++###++###++###",
"+...+@...+@...+@...++...++...@+...@@...++...++...++###+$###+$###+$###++###++###$+###$$###++###++###++###",
".@@@..@@@..+++..+++..+++..+++..+++..@@@..+++..+++.#$$$##$$$##+++##+++##+++##+++##+++##$$$##+++##+++##$$$",
"+...+@...++...@@...+@...+@...++...+@...++...+@...++###+$###++###$$###+$###+$###++###+$###++###+$###++###",
"+...+@...++...@@...+@...+@...++...+@...++...+@...++###+$###++###$$###+$###+$###++###+$###++###+$###++###",
"+...+@...++...@@...+@...+@...++...+@...++...+@...++###+$###++###$$###+$###+$###++###+$###++###+$###++###",
".+++..@@@..+++..+++..@@@..+++..+++..@@@..+++..+++.#+++##$$$##+++##+++##$$$##+++##+++##$$$##+++##+++##+++",
".@@@..@@@..+++..+++..@@@.&+++..+++..+++..+++..+++.#$$$##$$$##+++##+++##$$$##+++##+++##+++##+++##+++##+++",
"@.@.@+.+.++.@.++.@.@+...++...@+...@@...++...++...+$#$#$+#+#++#$#++#$#$+###++###$+###$$###++###++###++###",
"@.@.@+.+.++.@.++.@.@+...++...@+...@@...++...++...+$#$#$+#+#++#$#++#$#$+###++###$+###$$###++###++###++###",
"@.@.@+.+.++.@.++.@.@+...++...@+...@@...++...++...+$#$#$+#+#++#$#++#$#$+###++###$+###$$###++###++###++###",
".+.+..@.@..+.+..@.@..+++&&+++..+++..@@@..+++..+++.#+#+##$#$##+#+##$#$##+++&&+++##+++##$$$&#+++##+++&&$$$",
"+.+.++.+.+@.@.@+.@.@@...+@...++...+@...++...+@...++#+#++#+#+$#$#$+#$#$$###+$###++###+$###++###+$###++###",
"+.+.++.+.+@.@.@+.@.@@...+@...++...+@...++...+@...++#+#++#+#+$#$#$+#$#$$###+$###++###+$###++###+$###++###",
"+.+.++.+.+@.@.@+.@.@@...+@...++...+@...++...+@...++#+#++#+#+$#$#$+#$#$$###+$###++###+$###++###+$###++###",
".@@@..+++..@@@..+++..@@@&&+++..+++..@@@&.+++..+++##$$$##+++##$$$##+++##$$$&&+++##+++##$$$&#+++##+++##+++",
"+++++++++++++++++++++++++++++++....+++....+++++++++++++++++..##+++####+++++++++++++++++#################",
"++++++++++++++++++++++++++++++++.+++..+..++.+++++..++.+++.+..+++##+##++#+++++##++#+++#+#################",
"++++++++++++++++++++++++++++++++...+..+++.+.++++.++.+.+++.+..##+##+++#+#++++#++#+#+++#+#################",
"++++++++++++++++++++++++++++++++.+++..+...+.++++.++.+.+.+.+..+++##+###+#++++#++#+#+#+#+#################",
"+++++++++++++++++++++++++++++++....+++....+.++++.++.+..+..+..##+++####+#++++#++#+##+##+#################",
"+++++++++++++++++++++++++++++++##.+++++++++....++..++.+++.+..#+++++++++####++##++#+++#+#################",
"++++++++++++++++++++++++++++++++#++......++++++++++++++++++..++######++++++++++++++++++#################",
"++++++++++++++++++++++++++++++++#++......+...................++######+##################################",
"++++++++++++++++++++++++++++++++#++......+...................++######+##################################",
"+++++++++++++++++++++++++++++++##.++++++++...................#++++++++##################################",
"..++++++....@@@@@@....++++++....++++++....@@@@@@....++++++....++++++....++++++....++++++....++++++..++++",
"+..++++..+@..@@@@..+@..++++..+@..++++..++..@@@@..++..++++..@+..++++..@@..++++..++..++++..++..++++..+....",
"++......++@@......++@@......++@@......++++......++++......@@++......@@@@......++++......++++......++++++",
"++......++@@......++@@......++@@......++++......++++......@@++......@@@@......++++......++++......++....",
"++......++@@......++@@......++@@......++++......++++......@@++......@@@@......++++......++++......++++++",
"++......++@@......++@@......++@@......++++......++++......@@++......@@@@......++++......++++......++....",
"++......++@@......++@@......++@@......++++......++++......@@++......@@@@......++++......++++......++++++",
"++......++@@......++@@......++@@......++++......++++......@@++......@@@@......++++......++++......++....",
"++......++@@......++@@......++@@......++++......++++......@@++......@@@@......++++......++++......++++++",
"+..@@@@..+@..@@@@..+@..++++..+@..++++..++..++++..++..++++..@+..++++..@@..@@@@..++..++++..++..++++..+....",
"..@@@@@@....@@@@@@....++++++....++++++....++++++....++++++....++++++....@@@@@@....++++++....++++++..++++",
"+........+@........++........@@........+@........+@........++........+@........++........+@........+....",
"++......++@@......++++......@@@@......++@@......++@@......++++......++@@......++++......++@@......++++++",
"++......++@@......++++......@@@@......++@@......++@@......++++......++@@......++++......++@@......++....",
"++......++@@......++++......@@@@......++@@......++@@......++++......++@@......++++......++@@......++++++",
"++......++@@......++++......@@@@......++@@......++@@......++++......++@@......++++......++@@......++....",
"++......++@@......++++......@@@@......++@@......++@@......++++......++@@......++++......++@@......++++++",
"++......++@@......++++......@@@@......++@@......++@@......++++......++@@......++++......++@@......++....",
"+..++++..+@..@@@@..++..++++..@@..++++..+@..@@@@..+@..++++..++..++++..+@..@@@@..++..++++..+@..++++..+++++",
"..++++++....@@@@@@....++++++....++++++....@@@@@@....++++++....++++++....@@@@@@....++++++....++++++....##",
"##++++++####$$$$$$####++++++####++++++####$$$$$$####++++++####++++++####++++++####++++++####++++++##++++",
"+##++++##+$##$$$$##+$##++++##+$##++++##++##$$$$##++##++++##$+##++++##$$##++++##++##++++##++##++++##+....",
"++######++$$######++$$######++$$######++++######++++######$$++######$$$$######++++######++++######++....",
"++######++$$######++$$######++$$######++++######++++######$$++######$$$$######++++######++++######++....",
"++######++$$######++$$######++$$######++++######++++######$$++######$$$$######++++######++++######++....",
"++######++$$######++$$######++$$######++++######++++######$$++######$$$$######++++######++++######++....",
"++######++$$######++$$######++$$######++++######++++######$$++######$$$$######++++######++++######++....",
"++######++$$######++$$######++$$######++++######++++######$$++######$$$$######++++######++++######++....",
"++######++$$######++$$######++$$######++++######++++######$$++######$$$$######++++######++++######++....",
"+##$$$$##+$##$$$$##+$##++++##+$##++++##++##++++##++##++++##$+##++++##$$##$$$$##++##++++##++##++++##+....",
"##$$$$$$####$$$$$$####++++++####++++++####++++++####++++++####++++++####$$$$$$####++++++####++++++##....",
"+########+$########++########$$########+$########+$########++########+$########++########+$########+....",
"++######++$$######++++######$$$$######++$$######++$$######++++######++$$######++++######++$$######++....",
"++######++$$######++++######$$$$######++$$######++$$######++++######++$$######++++######++$$######++....",
"++######++$$######++++######$$$$######++$$######++$$######++++######++$$######++++######++$$######++....",
"++######++$$######++++######$$$$######++$$######++$$######++++######++$$######++++######++$$######++....",
"++######++$$######++++######$$$$######++$$######++$$######++++######++$$######++++######++$$######++....",
"++######++$$######++++######$$$$######++$$######++$$######++++######++$$######++++######++$$######++....",
"+##++++##+$##$$$$##++##++++##$$##++++##+$##$$$$##+$##++++##++##++++##+$##$$$$##++##++++##+$##++++##+....",
"##++++++####$$$$$$####++++++####++++++####$$$$$$####++++++####++++++####$$$$$$####++++++####++++++##....",
".+++..@@@..+++..+++..@@@..+++..+++..+++..+++..+++.#+++##@@@.#+++##+++#.@@@..+++##+++##+++.#+++##+++#....",
"+...+@...+@...+@...++...++...@+...@@...++...++...++###+@###+@###+@###++###++###@+###@@###++###++###+....",
"+...+@...+@...+@...++...++...@+...@@...++...++...++###+@###+@###+@###++###++###@+###@@###++###++###+....",
"+...+@...+@...+@...++...++...@+...@@...++...++...++###+@###+@###+@###++###++###@+###@@###++###++###+....",
".@@@..@@@..+++..+++..+++..+++..+++..@@@..+++..+++..@@@.#@@@.#+++##+++..+++..+++##+++##@@@.#+++##+++.....",
"+...+@...++...@@...+@...+@...++...+@...++...+@...++###+@###++###@@###+@###+@###++###+@###++###+@###+....",
"+...+@...++...@@...+@...+@...++...+@...++...+@...++###+@###++###@@###+@###+@###++###+@###++###+@###+....",
"+...+@...++...@@...+@...+@...++...+@...++...+@...++###+@###++###@@###+@###+@###++###+@###++###+@###+....",
".+++..@@@..+++..+++..@@@..+++..+++..@@@..+++..+++.#+++##@@@.#+++.#+++##@@@..+++##+++##@@@.#+++##+++#....",
".++++++++.++++++++.++++++++.++++++++.++++++++.....#++++++++#++++++++#++++++++#++++++++#++++++++.........",
"++......+++......+++....+++++..++++++++++++++.....++######+++######+++####+++++##++++++++++++++.........",
"++......+++.....++++...++++++.+++++++++++++++.....++######+++#####++++###++++++#+++++++++++++++.........",
"++......+++....+++++..+++++++++++++++++++++++.....++######+++####+++++##+++++++++++++++++++++++.........",
".++++++++.++++++++.++++++++.++++++++.++++++++.....#++++++++#++++++++#++++++++#++++++++#++++++++.........",
"+.++.+....+.++.+.+++.+.+.++.+.+++.+.+.++++.+++.+..+#++#+####+#++#+#+++#+#+#++#+#+++#+#+#++++#+++#+##....",
"++++++++++++++++++++++.++++++++++++.++++++++++++..++++++++++++++++++++++#++++++++++++#++++++++++++##....",
"..................................................##################################################....",
"..................................................##################################################....",
"+++.@@+.+++.++@.+@+.+++.+++.+++.+++.+++.@@@.@@@.@@@.@@@.@@@.@@@.@@@.@@@.@@@.@@@.@@@.@@@.@@@.@@@.@@@.@@@.",
"+@+.@@+.@@+.@@+.+@+.+@@.+@@.@@+.+@+.+@+.@@@.@@@.@@@.@@@.@@@.@@@.@@@.@@@.@@@.@@@.@@@.@@@.@@@.@@@.@@@.@@@.",
"+@+.@@+.++@.++@.+++.++@.+++.@@+.+++.+++.@@@.@@@.@@@.@@@.@@@.@@@.@@@.@@@.@@@.@@@.@@@.@@@.@@@.@@@.@@@.@@@.",
"+@+.@@+.+@@.@@+.@@+.@@+.+@+.@+@.+@+.@@+.@@@.@@@.@@@.@@@.@@@.@@@.@@@.@@@.@@@.@@@.@@@.@@@.@@@.@@@.@@@.@@@.",
"+++.@@+.+++.++@.@@+.++@.+++.+@@.+++.+++.@@@.@@@.@@@.@@@.@@@.@@@.@@@.@@@.@@@.@@@.@@@.@@@.@@@.@@@.@@@.@@@.",
"+++.$$+.+++.++$.+$+.+++.+++.+++.+++.+++.$$$.$$$.$$$.$$$.$$$.$$$.$$$.$$$.$$$.$$$.$$$.$$$.$$$.$$$.$$$.$$$.",
"+$+.$$+.$$+.$$+.+$+.+$$.+$$.$$+.+$+.+$+.$$$.$$$.$$$.$$$.$$$.$$$.$$$.$$$.$$$.$$$.$$$.$$$.$$$.$$$.$$$.$$$.",
"+$+.$$+.++$.++$.+++.++$.+++.$$+.+++.+++.$$$.$$$.$$$.$$$.$$$.$$$.$$$.$$$.$$$.$$$.$$$.$$$.$$$.$$$.$$$.$$$.",
"+$+.$$+.+$$.$$+.$$+.$$+.+$+.$+$.+$+.$$+.$$$.$$$.$$$.$$$.$$$.$$$.$$$.$$$.$$$.$$$.$$$.$$$.$$$.$$$.$$$.$$$.",
"+++.$$+.+++.++$.$$+.++$.+++.+$$.+++.+++.$$$.$$$.$$$.$$$.$$$.$$$.$$$.$$$.$$$.$$$.$$$.$$$.$$$.$$$.$$$.$$$.",
"..++++++....++++++....++++++....++++++....@@@@@@....++++++....++++++....++++++....++++++....++++++..++++",
"+..++++..++..++++..@@..++++..+@..++++..++..@@@@..++..++++..@+..++++..@@..++++..++..++++..++..++++..+....",
"++......++++......@@@@......++@@......++++......++++......@@++......@@@@......++++......++++......++++++",
"++......++++......@@@@......++@@......++++......++++......@@++......@@@@......++++......++++......++....",
"++......++++......@@@@......++@@......++++......++++......@@++......@@@@......++++......++++......++++++",
"++......++++......@@@@......++@@......++++......++++......@@++......@@@@......++++......++++......++....",
"++......++++......@@@@......++@@......++++......++++......@@++......@@@@......++++......++++......++++++",
"++......++++......@@@@......++@@......++++......++++......@@++......@@@@......++++......++++......++....",
"++......++++......@@@@......++@@......++++......++++......@@++......@@@@......++++......++++......++++++",
"+..++++..++..@@@@..@@..++++..+@..++++..++..++++..++..++++..@+..++++..@@..@@@@..++..++++..++..++++..+....",
"..++++++....@@@@@@....++++++....++++++....++++++....++++++....++++++....@@@@@@....++++++....++++++..++++",
"+........++........@+........@@........+@........+@........++........+@........++........+@........+....",
"++......++++......@@++......@@@@......++@@......++@@......++++......++@@......++++......++@@......++++++",
"++......++++......@@++......@@@@......++@@......++@@......++++......++@@......++++......++@@......++....",
"++......++++......@@++......@@@@......++@@......++@@......++++......++@@......++++......++@@......++++++",
"++......++++......@@++......@@@@......++@@......++@@......++++......++@@......++++......++@@......++....",
"++......++++......@@++......@@@@......++@@......++@@......++++......++@@......++++......++@@......++++++",
"++......++++......@@++......@@@@......++@@......++@@......++++......++@@......++++......++@@......++....",
"+..@@@@..++..++++..@+..++++..@@..++++..+@..@@@@..+@..++++..++..++++..+@..@@@@..++..++++..+@..++++..+++++",
"..@@@@@@....++++++....++++++....++++++....@@@@@@....++++++....++++++....@@@@@@....++++++....++++++....##",
"##++++++####++++++####++++++####++++++####$$$$$$####++++++####++++++####++++++####++++++####++++++##++++",
"+##++++##++##++++##$$##++++##+$##++++##++##$$$$##++##++++##$+##++++##$$##++++##++##++++##++##++++##+%%%%",
"++######++++######$$$$######++$$######++++######++++######$$++######$$$$######++++######++++######++%%%%",
"++######++++######$$$$######++$$######++++######++++######$$++######$$$$######++++######++++######++%%%%",
"++######++++######$$$$######++$$######++++######++++######$$++######$$$$######++++######++++######++%%%%",
"++######++++######$$$$######++$$######++++######++++######$$++######$$$$######++++######++++######++%%%%",
"++######++++######$$$$######++$$######++++######++++######$$++######$$$$######++++######++++######++%%%%",
"++######++++######$$$$######++$$######++++######++++######$$++######$$$$######++++######++++######++%%%%",
"++######++++######$$$$######++$$######++++######++++######$$++######$$$$######++++######++++######++%%%%",
"+##++++##++##$$$$##$$##++++##+$##++++##++##++++##++##++++##$+##++++##$$##$$$$##++##++++##++##++++##+%%%%",
"##++++++####$$$$$$####++++++####++++++####++++++####++++++####++++++####$$$$$$####++++++####++++++##%%%%",
"+########++########$+########$$########+$########+$########++########+$########++########+$########+.+++",
"++######++++######$$++######$$$$######++$$######++$$######++++######++$$######++++######++$$######+++...",
"++######++++######$$++######$$$$######++$$######++$$######++++######++$$######++++######++$$######+++...",
"++######++++######$$++######$$$$######++$$######++$$######++++######++$$######++++######++$$######+++...",
"++######++++######$$++######$$$$######++$$######++$$######++++######++$$######++++######++$$######++&@@@",
"++######++++######$$++######$$$$######++$$######++$$######++++######++$$######++++######++$$######+++...",
"++######++++######$$++######$$$$######++$$######++$$######++++######++$$######++++######++$$######+++...",
"+##$$$$##++##++++##$+##++++##$$##++++##+$##$$$$##+$##++++##++##++++##+$##$$$$##++##++++##+$##++++##++...",
"##$$$$$$####++++++####++++++####++++++####$$$$$$####++++++####++++++####$$$$$$####++++++####++++++##.+++"};
