/* XPM */
static char * wmsupermon_master_xpm[] = {
"160 100 46 1",
" 	c #000000000000",
".	c #00000000FFFF",
"X	c #FFFF00000000",
"o	c #202020202020",
"O	c #000049494141",
"+	c #2020B2B2AEAE",
"@	c #00007D7D7171",
"#	c #000051515151",
"$	c #0000B6B6B6B6",
"%	c #00008E8E8E8E",
"&	c #C7C7C7C7C7C7",
"*	c #28283C3C0000",
"=	c #282838380000",
"-	c #303038380000",
";	c #303034340000",
":	c #383830300000",
">	c #41412C2C0000",
",	c #494928280000",
"<	c #515124240000",
"1	c #595920200000",
"2	c #59591C1C0000",
"3	c #61611C1C0000",
"4	c #616118180000",
"5	c #2020D3D30000",
"6	c #3030CBCB0000",
"7	c #3838BEBE0000",
"8	c #4141B6B60000",
"9	c #4949AAAA0000",
"0	c #5959A2A20000",
"q	c #616196960000",
"w	c #69698E8E0000",
"e	c #717182820000",
"r	c #868679790000",
"t	c #8E8E6D6D0000",
"y	c #969665650000",
"u	c #9E9E59590000",
"i	c #AEAE51510000",
"p	c #B6B645450000",
"a	c #BEBE3C3C0000",
"s	c #C7C730300000",
"d	c #B6B604041818",
"f	c #0000EBEB0000",
"g	c #28283C3C3838",
"h	c #F7F7F3F3FFFF",
"j	c #2020B6B6AEAE",
"k	c #7171E3E37171",
" .... .... .... .... ....X.... .... .... .... ....X.... .... .... .... ....X.... .... .... .... ....X.... .... .... .... ....X.... .... .... .... ....X.... ... ",
".ooooooooooooooooooooooooooooooooooooooooooooooooo  ooo oooo oooooooooo ooooooooooooooooooooooooooooooooooooooooooooooooooooooooooooooooooooooooooooooooooooooo.",
".oO+++Oo@+++oo@+++@o@+++oo@+++@o@+++@o@+++@o@OOO@oo OO@ooOOO@o@OOO@o@OOOoo+OOO+o@+++oo@+++@o@+++@o@+++@o@+++@o@+++@o@+++@o@OOO@o@OOO@o@OOO@o@OOO@o@OOO@o@+++@oo.",
".o+ooo+o+ooo+o+oooOo+ooo+o+oooOo+oooOo+oooOo+ooo+oOooo+oOooo+o+ooo+o+oooOo++o++o+ooo+o+ooo+o+ooo+o+ooo+o+ooo+o+oooOoOo+oOo+ooo+o+ooo+o+ooo+o+ooo+o+ooo+oOooo+oo.",
".o+ooo+o+ooo+o+oooOo+ooo+o+oooOo+oooOo+oooOo+ooo+oOooo+oOooo+o+oo+Oo+oooOo+o+o+o+ooo+o+ooo+o+ooo+o+ooo+o+ooo+o+oooOoOo+oOo+ooo+o+ooo+o+ooo+oO+o+Oo+ooo+oOoo+Ooo.",
" o@+++@o@+++oo@OOOoo@OOO@o@+++oo@+++oo@O++@o@+++@ooOOO@ooOOO@o@++Ooo@OOOoo@OOO@o@OOO@o@OOO@o@+++@o@+OO@o@+++oo@+++@ooO@Ooo@OOO@o@OOO@o@OOO@ooO+Ooo@+++@ooO+Oooo ",
".o+ooo+o+ooo+o+oooOo+ooo+o+oooOo+oooOo+ooo+o+ooo+oOooo+oOooo+o+oo+Oo+oooOo+ooo+o+ooo+o+ooo+o+oooOo+o+o+o+ooo+oOooo+oOo+oOo+ooo+o+ooo+o+o+o+oO+o+OoOooo+oO+ooOoo.",
".o+ooo+o+ooo+o+oooOo+ooo+o+oooOo+oooOo+ooo+o+ooo+oOooo+oOooo+o+ooo+o+oooOo+ooo+o+ooo+o+ooo+o+oooOo+oo++o+ooo+oOooo+oOo+oOo+ooo+o+ooo+o++o++o+ooo+oOooo+o+oooOoo.",
".o@OOO@o@+++oo@+++@o++++oo@+++@o+OOOoo@+++@o@OOO@ooOOO+o@+++@o@OOO@o@+++Oo@OOO@o+OOO+o@+++@o@OOOoo@+++@o@OOO@o@+++@ooO@OooO++++oo+++oo+OOO+o@OOO+@@+++@o@+++@oo.",
".oooooooooooooooooooooooooooooooooooooooooooooooooooooooooooooooooooooooooooooooooooooooooooooooooooooooooooooooooooooooooooooooooooooooooooooooooooooooooooooo.",
" .... .... .... .... ....X.... .... .... .... ....X.... .... .... .... ....X.... .... .... .... ....X.... .... .... .... ....X.... .... .... .... ....X.... ... ",
".ooooooooooooooooooooooooooooooooooooooooooooooooooooooooooooooooooooooooooooooooooooooooooooo..................................................................",
".oo+++oooOOO@o@+++@o@+++@o@OOO@o@+++@o@+++@o@+++@o@+++@o@+++@ooooooooooooooooOOOooooooooOOOooo..................................................................",
".o+ooo+oOooo+oOooo+oOooo+o+ooo+o+oooOo+oooOoOooo+o+ooo+o+ooo+oooo+oo+ooooo+oOoooOooooooOoooOoo..................................................................",
".o+ooo+oOooo+oOooo+oOooo+o+ooo+o+oooOo+oooOoOooo+o+ooo+o+ooo+oo+o@oo+ooooo+oOoooOooooooOoooOoo..................................................................",
" o@OOO@ooOOO@o@+++@oo+++@o@+++@o@+++@o@+++@ooOOO@oO+++Oo@+++@oo@ooo+ooooo+oooOOOooooooo@+++@oo................................................................. ",
".o+ooo+oOooo+o+oooOoOooo+oOooo+oOooo+o+ooo+oOooo+o+ooo+oOooo+oooooo+ooooo+ooOoooOooooooOoooOoo..................................................................",
".o+ooo+oOooo+o+oooOoOooo+oOooo+oOooo+o+ooo+oOooo+o+ooo+oOooo+oo+oo+oo+oo+oooOoooOooooooOoooOoo..................................................................",
".oo+++oooOOO+o@+++@o@+++@ooOOO@o@+++@o@+++@ooOOO@o@+++@o@+++@oo@oo+oo@oo+ooooOOOoooo+@ooOOOooo..................................................................",
".                                                                                             ..................................................................",
" ........................X........................X.... .... .... .... ....X.... .............................................................................. ",
".                      .                                 .......................................................................................................",
". oooooooooooooooooooo&. ooooooooooooooooooooooooooooooo&...........................................X...........................................................",
". oooooooooooooooooooo&. ooooooooooooooooooooooooooooooo&.......................................................................................................",
". oooooooooooooooooooo&. ooooooooooooooooooooooooooooooo&...                                                         ...........................................",
"X oooooooooooooooooooo&. ooooooooooooooooooooooooooooooo&... ooooooooooooooooooooooooooooooooooooooooooooooooooooooo&........X........................X........X",
". oooooooooooooooooooo&. ooooooooooooooooooooooooooooooo&... ooooooooooooooooooooooooooooooooooooooooooooooooooooooo&...........................................",
". oooooooooooooooooooo&. ooooooooooooooooooooooooooooooo&... ooooooooooooooooooooooooooooooooooooooooooooooooooooooo&........oddo..offo..oggo.........@.........",
". oooooooooooooooooooo&. ooooooooooooooooooooooooooooooo&... ooo###ooo###ooo###ooo###oooooooo$oooooooooooooooooooooo&........dhdd..fhff..gggg.........j.........",
". oooooooooooooooooooo&. ooooooooooooooooooooooooooooooo&... oo#ooo#o#ooo#o#ooo#o#ooo#ooooooo$oooooooooooooooooooooo&........dddd..ffff..gggg...o+Ok..o.........",
"  oooooooooooooooooooo&. ooooooooooooooooooooooooooooooo&... oo#ooo#o#ooo#o#ooo#o#ooo#oooo$$$$o$$$$oo$ooo$oo$$$ooooo&........oddo..offo..oggo.........k........ ",
". oooooooooooooooooooo&. ooooooooooooooooooooooooooooooo&... ooo###ooo###ooo###ooo###oooo$ooo$ooooo$o$ooo$o$oooooooo&...........................................",
". oooooooooooooooooooo&. ooooooooooooooooooooooooooooooo&... oo#ooo#o#ooo#o#ooo#o#ooo#ooo$ooo$o$$$$$oo$$$$o$$$$$oooo&...........................................",
".&&&&&&&&&&&&&&&&&&&&&&.&&&&&&&&&&&&&&&&&&&&&&&&&&&&&&&&&... oo#ooo#o#ooo#o#ooo#o#ooo#ooo$ooo$o$ooo$ooooo$ooooo$oooo&...........................................",
".                                                        ... ooo###ooo###ooo###ooo###ooooo$$$$oo$$$$oo$$$oo$$$$oo$oo&...........................................",
"  oooooooooooooooooooooooooooooooooooooooooooooooooooooo&... oooooooooooooooooooooooooooooooooooooooooooooooooooo$oo&.......................................... ",
". oooooooooooooooooooooooooooooooooooooooooooooooooooooo&... ooooooooooooooooooooooooooooooooooooooooooooooooooooooo&...........................................",
". oooooooooooooooooooooooooooooooooooooooooooooooooooooo&... ooooooooooooooooooooooooooooooooooooooooooooooooooooooo&...........................................",
". oooooooooooooooooooooooooooooooooooooooooooooooooooooo&... ooooooooooooooooooooooooooooooooooooooooooooooooooooooo&...........................................",
". oooooooooooooooooooooooooooooooooooooooooooooooooooooo&... ooooooooooooooooooooooooooooooooooooooooooooooooooooooo&...........................................",
"  oooooooooooooooooooooooooooooooooooooooooooooooooooooo&... ooooooooooooooooooooooooooooooooooooooooooooooooooooooo&.......................................... ",
". oooooooooooooooooooooooooooooooooooooooooooooooooooooo&... ooo####ooo####oooooooo####ooo####oooooooo####ooo####ooo&...........................................",
". oooooooooooooooooooooooooooooooooooooooooooooooooooooo&... oo#oooo#o#oooo#oo%$oo#oooo#o#oooo#oo%$oo#oooo#o#oooo#oo&...........................................",
". oooooooooooooooooooooooooooooooooooooooooooooooooooooo&... oo#oooo#o#oooo#oo%$oo#oooo#o#oooo#oo%$oo#oooo#o#oooo#oo&...........................................",
". oooooooooooooooooooooooooooooooooooooooooooooooooooooo&... oo#oooo#o#oooo#oooooo#oooo#o#oooo#oooooo#oooo#o#oooo#oo&...........................................",
"  oooooooooooooooooooooooooooooooooooooooooooooooooooooo&... ooo####ooo####oooooooo####ooo####oooooooo####ooo####ooo&.......................................... ",
". oooooooooooooooooooooooooooooooooooooooooooooooooooooo&... oo#oooo#o#oooo#oooooo#oooo#o#oooo#oooooo#oooo#o#oooo#oo&...........................................",
". oooooooooooooooooooooooooooooooooooooooooooooooooooooo&... oo#oooo#o#oooo#oo%$oo#oooo#o#oooo#oo%$oo#oooo#o#oooo#oo&...........................................",
". oooooooooooooooooooooooooooooooooooooooooooooooooooooo&... oo#oooo#o#oooo#oo%$oo#oooo#o#oooo#oo%$oo#oooo#o#oooo#oo&...........................................",
". oooooooooooooooooooooooooooooooooooooooooooooooooooooo&... ooo####ooo####oooooooo####ooo####oooooooo####ooo####ooo&...........................................",
"X oooooooooooooooooooooooooooooooooooooooooooooooooooooo&... ooooooooooooooooooooooooooooooooooooooooooooooooooooooo&........X........................X........X",
". oooooooooooooooooooooooooooooooooooooooooooooooooooooo&... ooooooooooooooooooooooooooooooooooooooooooooooooooooooo&...........................................",
". oooooooooooooooooooooooooooooooooooooooooooooooooooooo&... ooooooooooooooooooooooooooooooooooooooooooooooooooooooo&...........................................",
". oooooooooooooooooooooooooooooooooooooooooooooooooooooo&... ooooooooooooooooooooooooooooooooooooooooooooooooooooooo&...........................................",
". oooooooooooooooooooooooooooooooooooooooooooooooooooooo&... ooooooooooooooooooooooooooooooooooooooooooooooooooooooo&...........................................",
"  oooooooooooooooooooooooooooooooooooooooooooooooooooooo&...&&&&&&&&&&&&&&&&&&&&&&&&&&&&&&&&&&&&&&&&&&&&&&&&&&&&&&&&&.......................................... ",
". oooooooooooooooooooooooooooooooooooooooooooooooooooooo&.......................................................................................................",
". oooooooooooooooooooooooooooooooooooooooooooooooooooooo&...ooooooooooooooooooooooooooooooooooooooooooooooooooooooooooooooo oooo oooooooo.......................",
". oooooooooooooooooooooooooooooooooooooooooooooooooooooo&...ooo$$$$ooo####%o%$$$$%o%$$$$%o%####%o%$$$$%o%$$$$%o%$$$$%o%$$$$%o%$$$$%oooooo.......................",
". oooooooooooooooooooooooooooooooooooooooooooooooooooooo&...oo$oooo$o#oooo$o#oooo$o#oooo$o$oooo$o$oooo#o$oooo#o#oooo$o$oooo$o$oooo$oo%$oo.......................",
"  oooooooooooooooooooooooooooooooooooooooooooooooooooooo&...oo$oooo$o#oooo$o#oooo$o#oooo$o$oooo$o$oooo#o$oooo#o#oooo$o$oooo$o$oooo$oo%$oo...................... ",
". oooooooooooooooooooooooooooooooooooooooooooooooooooooo&...oo$oooo$o#oooo$o#oooo$o#oooo$o$oooo$o$oooo#o$oooo#o#oooo$o$oooo$o$oooo$oooooo.......................",
". oooooooooooooooooooooooooooooooooooooooooooooooooooooo&...oo%####%oo####%o%$$$$%o%$$$$%o%$$$$%o%$$$$%o%$$$$%oo####%o%$$$$%o%$$$$%oooooo.......................",
". oooooooooooooooooooooooooooooooooooooooooooooooooooooo&...oo$oooo$o#oooo$o$oooo#o#oooo$o#oooo$o#oooo$o$oooo$o#oooo$o$oooo$o#oooo$oooooo.......................",
". oooooooooooooooooooooooooooooooooooooooooooooooooooooo&...oo$oooo$o#oooo$o$oooo#o#oooo$o#oooo$o#oooo$o$oooo$o#oooo$o$oooo$o#oooo$oo%$oo.......................",
"  oooooooooooooooooooooooooooooooooooooooooooooooooooooo&...oo$oooo$o#oooo$o$oooo#o#oooo$o#oooo$o#oooo$o$oooo$o#oooo$o$oooo$o#oooo$oo%$oo...................... ",
". oooooooooooooooooooooooooooooooooooooooooooooooooooooo&...ooo$$$$ooo####%o%$$$$%o%$$$$%oo####%o%$$$$%o%$$$$%oo####%o%$$$$%o%$$$$%oooooo.......................",
". oooooooooooooooooooooooooooooooooooooooooooooooooooooo&... oooooooooooooooooooooooooooooooooooooooooooooooooooooooooooooooooooooooooooo.......................",
". oooooooooooooooooooooooooooooooooooooooooooooooooooooo&.......................................................................................................",
". oooooooooooooooooooooooooooooooooooooooooooooooooooooo&.......................................................................................................",
"  oooooooooooooooooooooooooooooooooooooooooooooooooooooo&...................................................................................................... ",
". oooooooooooooooooooooooooooooooooooooooooooooooooooooo&.......................................................................................................",
". oooooooooooooooooooooooooooooooooooooooooooooooooooooo&.......................................................................................................",
". oooooooooooooooooooooooooooooooooooooooooooooooooooooo&.......................................................................................................",
". oooooooooooooooooooooooooooooooooooooooooooooooooooooo&.......................................................................................................",
"X&&&&&&&&&&&&&&&&&&&&&&&&&&&&&&&&&&&&&&&&&&&&&&&&&&&&&&&&........ .... ....X.... .... .... .... ....X.... .... .... .... ....X........................X........X",
"................................................................................................................................................................",
".                                                        ...*****=====-----;;;;;::::::>>>>>>,,,,<<<<<1111222223344..****==-;;::::>>>,,,,<<<<1223344.............",
". oooooooooooooooooooooooooooooooooooooooooooooooooooooo&...*****=====-----;;;;;::::::>>>>>>,,,,<<<<<1111222223344..****==-;;::::>>>,,,,<<<<1223344.............",
". oooooooooooooooooooooooooooooooooooooooooooooooooooooo&...*****=====-----;;;;;::::::>>>>>>,,,,<<<<<1111222223344..****==-;;::::>>>,,,,<<<<1223344.............",
"  oooooooooooooooooooooooooooooooooooooooooooooooooooooo&...*****=====-----;;;;;::::::>>>>>>,,,,<<<<<1111222223344..****==-;;::::>>>,,,,<<<<1223344............ ",
". oooooooooooooooooooooooooooooooooooooooooooooooooooooo&...*****=====-----;;;;;::::::>>>>>>,,,,<<<<<1111222223344..****==-;;::::>>>,,,,<<<<1223344.............",
". oooooooooooooooooooooooooooooooooooooooooooooooooooooo&...*****=====-----;;;;;::::::>>>>>>,,,,<<<<<1111222223344..****==-;;::::>>>,,,,<<<<1223344.............",
". oooooooooooooooooooooooooooooooooooooooooooooooooooooo&...*****=====-----;;;;;::::::>>>>>>,,,,<<<<<1111222223344..****==-;;::::>>>,,,,<<<<1223344.............",
". oooooooooooooooooooooooooooooooooooooooooooooooooooooo&...*****=====-----;;;;;::::::>>>>>>,,,,<<<<<1111222223344..****==-;;::::>>>,,,,<<<<1223344.............",
". oooooooooooooooooooooooooooooooooooooooooooooooooooooo&...*****=====-----;;;;;::::::>>>>>>,,,,<<<<<1111222223344..****==-;;::::>>>,,,,<<<<1223344.............",
". oooooooooooooooooooooooooooooooooooooooooooooooooooooo&...*****=====-----;;;;;::::::>>>>>>,,,,<<<<<1111222223344..****==-;;::::>>>,,,,<<<<1223344.............",
". oooooooooooooooooooooooooooooooooooooooooooooooooooooo&.......................................................................................................",
". oooooooooooooooooooooooooooooooooooooooooooooooooooooo&...5556666777888999000qqqwwweeerrrtttyyyuuuuiiippppaaasss..55667789900qqwwerrttyyuuippaass.............",
".&&&&&&&&&&&&&&&&&&&&&&&&&&&&&&&&&&&&&&&&&&&&&&&&&&&&&&&&...5556666777888999000qqqwwweeerrrtttyyyuuuuiiippppaaasss..55667789900qqwwerrttyyuuippaass.............",
"............................................................5556666777888999000qqqwwweeerrrtttyyyuuuuiiippppaaasss..55667789900qqwwerrttyyuuippaass.............",
"............................................................5556666777888999000qqqwwweeerrrtttyyyuuuuiiippppaaasss..55667789900qqwwerrttyyuuippaass.............",
"............................................................5556666777888999000qqqwwweeerrrtttyyyuuuuiiippppaaasss..55667789900qqwwerrttyyuuippaass.............",
"............................................................5556666777888999000qqqwwweeerrrtttyyyuuuuiiippppaaasss..55667789900qqwwerrttyyuuippaass.............",
"............................................................5556666777888999000qqqwwweeerrrtttyyyuuuuiiippppaaasss..55667789900qqwwerrttyyuuippaass.............",
"............................................................5556666777888999000qqqwwweeerrrtttyyyuuuuiiippppaaasss..55667789900qqwwerrttyyuuippaass.............",
"............................................................5556666777888999000qqqwwweeerrrtttyyyuuuuiiippppaaasss..55667789900qqwwerrttyyuuippaass.............",
"............................................................5556666777888999000qqqwwweeerrrtttyyyuuuuiiippppaaasss..55667789900qqwwerrttyyuuippaass.............",
"................................................................................................................................................................",
"................................................................................................................................................................",
"................................................................................................................................................................"};
