/* XPM */
static char * wmisdncid_xpm[] = {
"64 64 46 1",
" 	c None",
".	c #000000",
"+	c #202020 s back_color",
"@	c #C7C7C7",
"#	c #414141",
"$	c #6A6A6A",
"%	c #7C7C7C",
"&	c #696969",
"*	c #3E3E3E",
"=	c #004941 s led_color_low",
"-	c #3C3C3C",
";	c #767676",
">	c #707070",
",	c #616161",
"'	c #353535",
")	c #4E4E4E",
"!	c #666666",
"~	c #636363",
"{	c #5B5B5B",
"]	c #535353",
"^	c #434343",
"/	c #494949",
"(	c #545454",
"_	c #585858",
":	c #555555",
"<	c #4F4F4F",
"[	c #464646",
"}	c #3D3D3D",
"|	c #484848",
"1	c #4B4B4B",
"2	c #474747",
"3	c #404040",
"4	c #393939",
"5	c #2D2D2D",
"6	c #2E2E2E",
"7	c #3F3F3F",
"8	c #3B3B3B",
"9	c #343434",
"0	c #2C2C2C",
"a	c #252525",
"b	c #2B2B2B",
"c	c #323232",
"d	c #2F2F2F",
"e	c #292929",
"f	c #20B2AE s led_color_high",
"g	c #188A86 s led_color_med",

"                                                                ",
"                                                                ",
"                                                                ",
"                                                                ",
"    ................  ......................................    ",
"    .++++++++++++++@  .++++++++++++++++++++++++++++++++++++@    ",
"    .+#$%&*+++=+=++@  .+===+++===+++===+++===+++===+++===++@    ",
"    .-$;>$,'+=+=+=+@  .=+++=+=+++=+=+++=+=+++=+=+++=+=+++=+@    ",
"    .),!~{]^+=+=+=+@  .=+++=+=+++=+=+++=+=+++=+=+++=+=+++=+@    ",
"    ./(_:<[}++=+=++@  .+===+++===+++===+++===+++===+++===++@    ",
"    .}|12345+=+=+=+@  .=+++=+=+++=+=+++=+=+++=+=+++=+=+++=+@    ",
"    .673890a+=+=+=+@  .=+++=+=+++=+=+++=+=+++=+=+++=+=+++=+@    ",
"    .+bcdea+++=+=++@  .+===+++===+++===+++===+++===+++===++@    ",
"    .++++++++++++++@  .++++++++++++++++++++++++++++++++++++@    ",
"    .++++++++++++++@  .++++++++++++++++++++++++++++++++++++@    ",
"    @@@@@@@@@@@@@@@@  @@@@@@@@@@@@@@@@@@@@@@@@@@@@@@@@@@@@@@    ",
"                                                                ",
"                                                                ",
"    ........................................................    ",
"    .++++++++++++++++++++++++++++++++++++++++++++++++++++++@    ",
"    .+===+++===+++===+++===+++===+++===+++===+++===+++===++@    ",
"    .=+++=+=+++=+=+++=+=+++=+=+++=+=+++=+=+++=+=+++=+=+++=+@    ",
"    .=+++=+=+++=+=+++=+=+++=+=+++=+=+++=+=+++=+=+++=+=+++=+@    ",
"    .+===+++===+++===+++===+++===+++===+++===+++===+++===++@    ",
"    .=+++=+=+++=+=+++=+=+++=+=+++=+=+++=+=+++=+=+++=+=+++=+@    ",
"    .=+++=+=+++=+=+++=+=+++=+=+++=+=+++=+=+++=+=+++=+=+++=+@    ",
"    .+===+++===+++===+++===+++===+++===+++===+++===+++===++@    ",
"    .++++++++++++++++++++++++++++++++++++++++++++++++++++++@    ",
"    .++++++++++++++++++++++++++++++++++++++++++++++++++++++@    ",
"    @@@@@@@@@@@@@@@@@@@@@@@@@@@@@@@@@@@@@@@@@@@@@@@@@@@@@@@@    ",
"                                                                ",
"                                                                ",
"                                                                ",
"    ................  ......................................    ",
"    .++++++++++++++@  .++++++++++++++++++++++++++++++++++++@    ",
"    .+#$%&*+++=+=++@  .+===+++===+++===+++===+++===+++===++@    ",
"    .-$;>$,'+=+=+=+@  .=+++=+=+++=+=+++=+=+++=+=+++=+=+++=+@    ",
"    .),!~{]^+=+=+=+@  .=+++=+=+++=+=+++=+=+++=+=+++=+=+++=+@    ",
"    ./(_:<[}++=+=++@  .+===+++===+++===+++===+++===+++===++@    ",
"    .}|12345+=+=+=+@  .=+++=+=+++=+=+++=+=+++=+=+++=+=+++=+@    ",
"    .673890a+=+=+=+@  .=+++=+=+++=+=+++=+=+++=+=+++=+=+++=+@    ",
"    .+bcdea+++=+=++@  .+===+++===+++===+++===+++===+++===++@    ",
"    .++++++++++++++@  .++++++++++++++++++++++++++++++++++++@    ",
"    .++++++++++++++@  .++++++++++++++++++++++++++++++++++++@    ",
"    @@@@@@@@@@@@@@@@  @@@@@@@@@@@@@@@@@@@@@@@@@@@@@@@@@@@@@@    ",
"                                                                ",
"                                                                ",
"    ........................................................    ",
"    .++++++++++++++++++++++++++++++++++++++++++++++++++++++@    ",
"    .+===+++===+++===+++===+++===+++===+++===+++===+++===++@    ",
"    .=+++=+=+++=+=+++=+=+++=+=+++=+=+++=+=+++=+=+++=+=+++=+@    ",
"    .=+++=+=+++=+=+++=+=+++=+=+++=+=+++=+=+++=+=+++=+=+++=+@    ",
"    .+===+++===+++===+++===+++===+++===+++===+++===+++===++@    ",
"    .=+++=+=+++=+=+++=+=+++=+=+++=+=+++=+=+++=+=+++=+=+++=+@    ",
"    .=+++=+=+++=+=+++=+=+++=+=+++=+=+++=+=+++=+=+++=+=+++=+@    ",
"    .+===+++===+++===+++===+++===+++===+++===+++===+++===++@    ",
"    .++++++++++++++++++++++++++++++++++++++++++++++++++++++@    ",
"    .++++++++++++++++++++++++++++++++++++++++++++++++++++++@    ",
"    @@@@@@@@@@@@@@@@@@@@@@@@@@@@@@@@@@@@@@@@@@@@@@@@@@@@@@@@    ",
"                                                                ",
"                                                                ",
"                                                                ",
"                                                                ",
"                                                                "};

