/* XPM */
static char * wmisdncidicons_xpm[] = {
"64 21 97 2",
"  	c None",
". 	c #000000",
"+ 	c #202020 s back_color",
"@ 	c #C7C7C7",
"# 	c #414141",
"$ 	c #6A6A6A",
"% 	c #7C7C7C",
"& 	c #696969",
"* 	c #3E3E3E",
"= 	c #004941 s led_color_low",
"- 	c #3C3C3C",
"; 	c #767676",
"> 	c #707070",
", 	c #616161",
"' 	c #353535",
") 	c #4E4E4E",
"! 	c #666666",
"~ 	c #636363",
"{ 	c #5B5B5B",
"] 	c #535353",
"^ 	c #434343",
"/ 	c #494949",
"( 	c #545454",
"_ 	c #585858",
": 	c #555555",
"< 	c #4F4F4F",
"[ 	c #464646",
"} 	c #3D3D3D",
"| 	c #484848",
"1 	c #4B4B4B",
"2 	c #474747",
"3 	c #404040",
"4 	c #393939",
"5 	c #2D2D2D",
"6 	c #2E2E2E",
"7 	c #3F3F3F",
"8 	c #3B3B3B",
"9 	c #343434",
"0 	c #2C2C2C",
"a 	c #252525",
"b 	c #2B2B2B",
"c 	c #323232",
"d 	c #2F2F2F",
"e 	c #292929",
"f 	c #20B2AE s led_color_high",
"g 	c #188A86 s led_color_med",
"h 	c #617758",
"i 	c #AADA97",
"j 	c #C6FFAF",
"k 	c #4D7746",
"l 	c #AC7272",
"m 	c #F99E9E",
"n 	c #FFA2A2",
"o 	c #AC6767",
"p 	c #766E57",
"q 	c #D9C796",
"r 	c #FEE9AF",
"s 	c #767045",
"t 	c #576876",
"u 	c #96BAD9",
"v 	c #AFDAFE",
"w 	c #455976",
"x 	c #94FF83",
"y 	c #63FF57",
"z 	c #267724",
"A 	c #FF8787",
"B 	c #FF6C6C",
"C 	c #AC4343",
"D 	c #FEF183",
"E 	c #FEF457",
"F 	c #767523",
"G 	c #83B1FE",
"H 	c #578EFE",
"I 	c #233B76",
"J 	c #31FF2B",
"K 	c #05DA05",
"L 	c #FF5151",
"M 	c #F93636",
"N 	c #FEFB2B",
"O 	c #D1D805",
"P 	c #2B67FE",
"Q 	c #0537D8",
"R 	c #00FF00",
"S 	c #FF3636",
"T 	c #FF1B1B",
"U 	c #F5FE00",
"V 	c #003BFE",
"W 	c #F99B9B",
"X 	c #F90000",
"Y 	c #137713",
"Z 	c #AC5858",
"` 	c #FF0000",
" .	c #AC0B0B",
"..	c #737613",
"+.	c #132A76",
"@.	c #AC3333",
"#.	c #F92F2F",

"+ = = = + + f f f + + = = = g g f f f g g f f f g g = = = g g f f f g g f f f g g f f f g g f f f g g f f f g + + + + + + + + + ",
"= + + + = f + + + f = + + + f = + + + f = + + + f f + + + f f + + + = f + + + = = + + + f f + + + f f + + + f + + + + + + + + + ",
"= + + + = f + + + f = + + + f = + + + f = + + + f f + + + f f + + + = f + + + = = + + + f f + + + f f + + + f + + + + + + + + + ",
"+ = = = + g = = = g + = = = g g f f f g + f f f g g f f f g g f f f g g f f f g + = = = g g f f f g g f f f g + + + + + + + + + ",
"= + + + = f + + + f = + + + f f + + + = = + + + f = + + + f = + + + f f + + + f = + + + f f + + + f = + + + f + + + + + + + + + ",
"= + + + = f + + + f = + + + f f + + + = = + + + f = + + + f = + + + f f + + + f = + + + f f + + + f = + + + f + + + + + + + + + ",
"+ = = = + + f f f + + = = = g g f f f g g f f f g + = = = g g f f f g g f f f g + = = = g g f f f g g f f f g + + + + + + + + + ",
"+ h i j i k + + + l m n m o + + + p q r q s + + + t u v u w + + + # $ % & * + + + + + + + + + + + + + + + + + + + + + + + + + + ",
"h j j j x y z + l n n n A B C + p r r r D E F + t v v v G H I + - $ ; > $ , ' + + + + + + + + + + + + + + + + + + + + + + + + + ",
"i j j x y J K + m n n A B L M + q r r D E N O + u v v G H P Q + ) , ! ~ { ] ^ + + + + + + + + + + + + + + + + + + + + + + + + + ",
"j j x y J R R + n n A B L S T + r r D E N U U + v v G H P V V + / ( _ : < [ } + + + + + + + + + + + + + + + + + + + + + + + + + ",
"i x y J R R K + W A B L S T X + q D E N U U O + u G H P V V Q + } | 1 2 3 4 5 + + + + + + + + + + + + + + + + + + + + + + + + + ",
"k y J R R R Y + Z B L S T `  .+ s E N U U U ..+ w H P V V V +.+ 6 7 3 8 9 0 a + + + + + + + + + + + + + + + + + + + + + + + + + ",
"+ z K R K Y + + + @.#.T X  .+ + + F O U O ..+ + + I Q V Q +.+ + + b c d e a + + + + + + + + + + + + + + + + + + + + + + + + + + ",
"+ = + = + g f f f g f = = = f g f f f + g = = = g g f f f g + + + + + + + + + + + + + + + + + + + + + + + + + + + + + + + + + + ",
"= + = + = f + = + f f f + f f f + = + f f + = + f f + = + = + + + + + + + + + + + + + + + + + + + + + + + + + + + + + + + + + + ",
"= + = + = f + = + f f + f + f f + = + f f + = + f f + = + = + + + + + + + + + + + + + + + + + + + + + + + + + + + + + + + + + + ",
"+ = + = + g f f f + g = + = g g = + = g g = + = g g f f f + + + + + + + + + + + + + + + + + + + + + + + + + + + + + + + + + + + ",
"= + = + = f + = + f f + + + f f + = + f = f = f = f + = + = + + + + + + + + + + + + + + + + + + + + + + + + + + + + + + + + + + ",
"= + = + = f + = + f f + + + f f + = + f = f = f = f + = + = + + + + + + + + + + + + + + + + + + + + + + + + + + + + + + + + + + ",
"+ = + = + g = = = g g = = = g g = = = g + = f = + g = = = + + + + + + + + + + + + + + + + + + + + + + + + + + + + + + + + + + + "};
