/* XPM */
static char * gray_xpm[] = {
"102 71 92 2",
"  	c None",
". 	c #5E5F5F",
"+ 	c #FFFFFF",
"@ 	c #D8D8D8",
"# 	c #D7D7D7",
"$ 	c #D6D6D6",
"% 	c #D5D5D5",
"& 	c #D4D4D4",
"* 	c #D3D3D3",
"= 	c #D2D2D2",
"- 	c #D1D1D1",
"; 	c #D0D0D0",
"> 	c #CFCFCF",
", 	c #CECECE",
"' 	c #CDCDCD",
") 	c #CCCCCC",
"! 	c #CBCBCB",
"~ 	c #CACACA",
"{ 	c #C9C9C9",
"] 	c #C8C8C8",
"^ 	c #C7C7C7",
"/ 	c #C6C6C6",
"( 	c #C5C5C5",
"_ 	c #C4C4C4",
": 	c #C3C3C3",
"< 	c #C2C2C2",
"[ 	c #C1C1C1",
"} 	c #C0C0C0",
"| 	c #BFBFBF",
"1 	c #BEBEBE",
"2 	c #BDBDBD",
"3 	c #BCBCBC",
"4 	c #BBBBBB",
"5 	c #BABABA",
"6 	c #B9B9B9",
"7 	c #B8B8B8",
"8 	c #B7B7B7",
"9 	c #979797",
"0 	c #969696",
"a 	c #959595",
"b 	c #949494",
"c 	c #939393",
"d 	c #929292",
"e 	c #919191",
"f 	c #909090",
"g 	c #8F8F8F",
"h 	c #8E8E8E",
"i 	c #8D8D8D",
"j 	c #8C8C8C",
"k 	c #B6B6B6",
"l 	c #8B8B8B",
"m 	c #B5B5B5",
"n 	c #B4B4B4",
"o 	c #B3B3B3",
"p 	c #8A8A8A",
"q 	c #B2B2B2",
"r 	c #B1B1B1",
"s 	c #B0B0B0",
"t 	c #898989",
"u 	c #AFAFAF",
"v 	c #AEAEAE",
"w 	c #888888",
"x 	c #ADADAD",
"y 	c #ACACAC",
"z 	c #ABABAB",
"A 	c #AAAAAA",
"B 	c #878787",
"C 	c #A9A9A9",
"D 	c #A8A8A8",
"E 	c #A7A7A7",
"F 	c #868686",
"G 	c #A6A6A6",
"H 	c #A5A5A5",
"I 	c #858585",
"J 	c #A4A4A4",
"K 	c #A3A3A3",
"L 	c #A2A2A2",
"M 	c #848484",
"N 	c #A1A1A1",
"O 	c #A0A0A0",
"P 	c #9F9F9F",
"Q 	c #838383",
"R 	c #9E9E9E",
"S 	c #9D9D9D",
"T 	c #9C9C9C",
"U 	c #828282",
"V 	c #9B9B9B",
"W 	c #9A9A9A",
"X 	c #999999",
"Y 	c #818181",
"Z 	c #989898",
"` 	c #000000",
". . . . . . . . . . . . . . . . . . . . . . . . . . . . . . . . . . . . . . . . . . . . . . . . . . + + + + + + + + + + + + + + + + + + + + + + + + + + + + + + + + + + + + + + + + + + + + + + + + + + + + ",
". @ # $ % % & * * = - - ; > > , ' ' ) ! ! ~ { { ] ^ ^ / ( ( _ : : < [ } } | 1 1 2 3 3 4 5 5 6 7 7 8 + + 9 9 9 0 0 0 0 a a a a b b b b c c c c c d d d d e e e e f f f f g g g g g h h h h i i i i j j j j . ",
". # $ % % & * * = - - ; > > , ' ' ) ! ! ~ { { ] ^ ^ / ( ( _ : : < [ } } | 1 1 2 3 3 4 5 5 6 7 7 8 k + + 9 9 0 0 0 0 a a a a b b b b c c c c c d d d d e e e e f f f f g g g g g h h h h i i i i j j j j j . ",
". $ % % & * * = - - ; > > , ' ' ) ! ! ~ { { ] ^ ^ / ( ( _ : : < [ } } | 1 1 2 3 3 4 5 5 6 7 7 8 k k + + 9 0 0 0 0 a a a a b b b b c c c c c d d d d e e e e f f f f g g g g g h h h h i i i i j j j j j l . ",
". % % & * * = - - ; > > , ' ' ) ! ! ~ { { ] ^ ^ / ( ( _ : : < [ } } | 1 1 2 3 3 4 5 5 6 7 7 8 k k m + + 0 0 0 0 a a a a b b b b c c c c c d d d d e e e e f f f f g g g g g h h h h i i i i j j j j j l l . ",
". % & * * = - - ; > > , ' ' ) ! ! ~ { { ] ^ ^ / ( ( _ : : < [ } } | 1 1 2 3 3 4 5 5 6 7 7 8 k k m n + + 0 0 0 a a a a b b b b c c c c c d d d d e e e e f f f f g g g g g h h h h i i i i j j j j j l l l . ",
". & * * = - - ; > > , ' ' ) ! ! ~ { { ] ^ ^ / ( ( _ : : < [ } } | 1 1 2 3 3 4 5 5 6 7 7 8 k k m n n + + 0 0 a a a a b b b b c c c c c d d d d e e e e f f f f g g g g g h h h h i i i i j j j j j l l l l . ",
". * * = - - ; > > , ' ' ) ! ! ~ { { ] ^ ^ / ( ( _ : : < [ } } | 1 1 2 3 3 4 5 5 6 7 7 8 k k m n n o + + 0 a a a a b b b b c c c c c d d d d e e e e f f f f g g g g g h h h h i i i i j j j j j l l l l p . ",
". * = - - ; > > , ' ' ) ! ! ~ { { ] ^ ^ / ( ( _ : : < [ } } | 1 1 2 3 3 4 5 5 6 7 7 8 k k m n n o q + + a a a a b b b b c c c c c d d d d e e e e f f f f g g g g g h h h h i i i i j j j j j l l l l p p . ",
". = - - ; > > , ' ' ) ! ! ~ { { ] ^ ^ / ( ( _ : : < [ } } | 1 1 2 3 3 4 5 5 6 7 7 8 k k m n n o q q + + a a a b b b b c c c c c d d d d e e e e f f f f g g g g g h h h h i i i i j j j j j l l l l p p p . ",
". - - ; > > , ' ' ) ! ! ~ { { ] ^ ^ / ( ( _ : : < [ } } | 1 1 2 3 3 4 5 5 6 7 7 8 k k m n n o q q r + + a a b b b b c c c c c d d d d e e e e f f f f g g g g g h h h h i i i i j j j j j l l l l p p p p . ",
". - ; > > , ' ' ) ! ! ~ { { ] ^ ^ / ( ( _ : : < [ } } | 1 1 2 3 3 4 5 5 6 7 7 8 k k m n n o q q r s + + a b b b b c c c c c d d d d e e e e f f f f g g g g g h h h h i i i i j j j j j l l l l p p p p t . ",
". ; > > , ' ' ) ! ! ~ { { ] ^ ^ / ( ( _ : : < [ } } | 1 1 2 3 3 4 5 5 6 7 7 8 k k m n n o q q r s s + + b b b b c c c c c d d d d e e e e f f f f g g g g g h h h h i i i i j j j j j l l l l p p p p t t . ",
". > > , ' ' ) ! ! ~ { { ] ^ ^ / ( ( _ : : < [ } } | 1 1 2 3 3 4 5 5 6 7 7 8 k k m n n o q q r s s u + + b b b c c c c c d d d d e e e e f f f f g g g g g h h h h i i i i j j j j j l l l l p p p p t t t . ",
". > , ' ' ) ! ! ~ { { ] ^ ^ / ( ( _ : : < [ } } | 1 1 2 3 3 4 5 5 6 7 7 8 k k m n n o q q r s s u v + + b b c c c c c d d d d e e e e f f f f g g g g g h h h h i i i i j j j j j l l l l p p p p t t t t . ",
". , ' ' ) ! ! ~ { { ] ^ ^ / ( ( _ : : < [ } } | 1 1 2 3 3 4 5 5 6 7 7 8 k k m n n o q q r s s u v v + + b c c c c c d d d d e e e e f f f f g g g g g h h h h i i i i j j j j j l l l l p p p p t t t t w . ",
". ' ' ) ! ! ~ { { ] ^ ^ / ( ( _ : : < [ } } | 1 1 2 3 3 4 5 5 6 7 7 8 k k m n n o q q r s s u v v x + + c c c c c d d d d e e e e f f f f g g g g g h h h h i i i i j j j j j l l l l p p p p t t t t w w . ",
". ' ) ! ! ~ { { ] ^ ^ / ( ( _ : : < [ } } | 1 1 2 3 3 4 5 5 6 7 7 8 k k m n n o q q r s s u v v x y + + c c c c d d d d e e e e f f f f g g g g g h h h h i i i i j j j j j l l l l p p p p t t t t w w w . ",
". ) ! ! ~ { { ] ^ ^ / ( ( _ : : < [ } } | 1 1 2 3 3 4 5 5 6 7 7 8 k k m n n o q q r s s u v v x y z + + c c c d d d d e e e e f f f f g g g g g h h h h i i i i j j j j j l l l l p p p p t t t t w w w w . ",
". ! ! ~ { { ] ^ ^ / ( ( _ : : < [ } } | 1 1 2 3 3 4 5 5 6 7 7 8 k k m n n o q q r s s u v v x y z z + + c c d d d d e e e e f f f f g g g g g h h h h i i i i j j j j j l l l l p p p p t t t t w w w w w . ",
". ! ~ { { ] ^ ^ / ( ( _ : : < [ } } | 1 1 2 3 3 4 5 5 6 7 7 8 k k m n n o q q r s s u v v x y z z A + + c d d d d e e e e f f f f g g g g g h h h h i i i i j j j j j l l l l p p p p t t t t w w w w w B . ",
". ~ { { ] ^ ^ / ( ( _ : : < [ } } | 1 1 2 3 3 4 5 5 6 7 7 8 k k m n n o q q r s s u v v x y z z A C + + d d d d e e e e f f f f g g g g g h h h h i i i i j j j j j l l l l p p p p t t t t w w w w w B B . ",
". { { ] ^ ^ / ( ( _ : : < [ } } | 1 1 2 3 3 4 5 5 6 7 7 8 k k m n n o q q r s s u v v x y z z A C C + + d d d e e e e f f f f g g g g g h h h h i i i i j j j j j l l l l p p p p t t t t w w w w w B B B . ",
". { ] ^ ^ / ( ( _ : : < [ } } | 1 1 2 3 3 4 5 5 6 7 7 8 k k m n n o q q r s s u v v x y z z A C C D + + d d e e e e f f f f g g g g g h h h h i i i i j j j j j l l l l p p p p t t t t w w w w w B B B B . ",
". ] ^ ^ / ( ( _ : : < [ } } | 1 1 2 3 3 4 5 5 6 7 7 8 k k m n n o q q r s s u v v x y z z A C C D E + + d e e e e f f f f g g g g g h h h h i i i i j j j j j l l l l p p p p t t t t w w w w w B B B B F . ",
". ^ ^ / ( ( _ : : < [ } } | 1 1 2 3 3 4 5 5 6 7 7 8 k k m n n o q q r s s u v v x y z z A C C D E E + + e e e e f f f f g g g g g h h h h i i i i j j j j j l l l l p p p p t t t t w w w w w B B B B F F . ",
". ^ / ( ( _ : : < [ } } | 1 1 2 3 3 4 5 5 6 7 7 8 k k m n n o q q r s s u v v x y z z A C C D E E G + + e e e f f f f g g g g g h h h h i i i i j j j j j l l l l p p p p t t t t w w w w w B B B B F F F . ",
". / ( ( _ : : < [ } } | 1 1 2 3 3 4 5 5 6 7 7 8 k k m n n o q q r s s u v v x y z z A C C D E E G H + + e e f f f f g g g g g h h h h i i i i j j j j j l l l l p p p p t t t t w w w w w B B B B F F F F . ",
". ( ( _ : : < [ } } | 1 1 2 3 3 4 5 5 6 7 7 8 k k m n n o q q r s s u v v x y z z A C C D E E G H H + + e f f f f g g g g g h h h h i i i i j j j j j l l l l p p p p t t t t w w w w w B B B B F F F F I . ",
". ( _ : : < [ } } | 1 1 2 3 3 4 5 5 6 7 7 8 k k m n n o q q r s s u v v x y z z A C C D E E G H H J + + f f f f g g g g g h h h h i i i i j j j j j l l l l p p p p t t t t w w w w w B B B B F F F F I I . ",
". _ : : < [ } } | 1 1 2 3 3 4 5 5 6 7 7 8 k k m n n o q q r s s u v v x y z z A C C D E E G H H J K + + f f f g g g g g h h h h i i i i j j j j j l l l l p p p p t t t t w w w w w B B B B F F F F I I I . ",
". : : < [ } } | 1 1 2 3 3 4 5 5 6 7 7 8 k k m n n o q q r s s u v v x y z z A C C D E E G H H J K K + + f f g g g g g h h h h i i i i j j j j j l l l l p p p p t t t t w w w w w B B B B F F F F I I I I . ",
". : < [ } } | 1 1 2 3 3 4 5 5 6 7 7 8 k k m n n o q q r s s u v v x y z z A C C D E E G H H J K K L + + f g g g g g h h h h i i i i j j j j j l l l l p p p p t t t t w w w w w B B B B F F F F I I I I M . ",
". < [ } } | 1 1 2 3 3 4 5 5 6 7 7 8 k k m n n o q q r s s u v v x y z z A C C D E E G H H J K K L N + + g g g g g h h h h i i i i j j j j j l l l l p p p p t t t t w w w w w B B B B F F F F I I I I M M . ",
". [ } } | 1 1 2 3 3 4 5 5 6 7 7 8 k k m n n o q q r s s u v v x y z z A C C D E E G H H J K K L N N + + g g g g h h h h i i i i j j j j j l l l l p p p p t t t t w w w w w B B B B F F F F I I I I M M M . ",
". } } | 1 1 2 3 3 4 5 5 6 7 7 8 k k m n n o q q r s s u v v x y z z A C C D E E G H H J K K L N N O + + g g g h h h h i i i i j j j j j l l l l p p p p t t t t w w w w w B B B B F F F F I I I I M M M M . ",
". } | 1 1 2 3 3 4 5 5 6 7 7 8 k k m n n o q q r s s u v v x y z z A C C D E E G H H J K K L N N O P + + g g h h h h i i i i j j j j j l l l l p p p p t t t t w w w w w B B B B F F F F I I I I M M M M M . ",
". | 1 1 2 3 3 4 5 5 6 7 7 8 k k m n n o q q r s s u v v x y z z A C C D E E G H H J K K L N N O P P + + g h h h h i i i i j j j j j l l l l p p p p t t t t w w w w w B B B B F F F F I I I I M M M M M Q . ",
". 1 1 2 3 3 4 5 5 6 7 7 8 k k m n n o q q r s s u v v x y z z A C C D E E G H H J K K L N N O P P R + + h h h h i i i i j j j j j l l l l p p p p t t t t w w w w w B B B B F F F F I I I I M M M M M Q Q . ",
". 1 2 3 3 4 5 5 6 7 7 8 k k m n n o q q r s s u v v x y z z A C C D E E G H H J K K L N N O P P R S + + h h h i i i i j j j j j l l l l p p p p t t t t w w w w w B B B B F F F F I I I I M M M M M Q Q Q . ",
". 2 3 3 4 5 5 6 7 7 8 k k m n n o q q r s s u v v x y z z A C C D E E G H H J K K L N N O P P R S S + + h h i i i i j j j j j l l l l p p p p t t t t w w w w w B B B B F F F F I I I I M M M M M Q Q Q Q . ",
". 3 3 4 5 5 6 7 7 8 k k m n n o q q r s s u v v x y z z A C C D E E G H H J K K L N N O P P R S S T + + h i i i i j j j j j l l l l p p p p t t t t w w w w w B B B B F F F F I I I I M M M M M Q Q Q Q U . ",
". 3 4 5 5 6 7 7 8 k k m n n o q q r s s u v v x y z z A C C D E E G H H J K K L N N O P P R S S T V + + i i i i j j j j j l l l l p p p p t t t t w w w w w B B B B F F F F I I I I M M M M M Q Q Q Q U U . ",
". 4 5 5 6 7 7 8 k k m n n o q q r s s u v v x y z z A C C D E E G H H J K K L N N O P P R S S T V V + + i i i j j j j j l l l l p p p p t t t t w w w w w B B B B F F F F I I I I M M M M M Q Q Q Q U U U . ",
". 5 5 6 7 7 8 k k m n n o q q r s s u v v x y z z A C C D E E G H H J K K L N N O P P R S S T V V W + + i i j j j j j l l l l p p p p t t t t w w w w w B B B B F F F F I I I I M M M M M Q Q Q Q U U U U . ",
". 5 6 7 7 8 k k m n n o q q r s s u v v x y z z A C C D E E G H H J K K L N N O P P R S S T V V W X + + i j j j j j l l l l p p p p t t t t w w w w w B B B B F F F F I I I I M M M M M Q Q Q Q U U U U Y . ",
". 6 7 7 8 k k m n n o q q r s s u v v x y z z A C C D E E G H H J K K L N N O P P R S S T V V W X X + + j j j j j l l l l p p p p t t t t w w w w w B B B B F F F F I I I I M M M M M Q Q Q Q U U U U Y Y . ",
". 7 7 8 k k m n n o q q r s s u v v x y z z A C C D E E G H H J K K L N N O P P R S S T V V W X X Z + + j j j j l l l l p p p p t t t t w w w w w B B B B F F F F I I I I M M M M M Q Q Q Q U U U U Y Y Y . ",
". 7 8 k k m n n o q q r s s u v v x y z z A C C D E E G H H J K K L N N O P P R S S T V V W X X Z 9 + + j j j l l l l p p p p t t t t w w w w w B B B B F F F F I I I I M M M M M Q Q Q Q U U U U Y Y Y Y . ",
". 8 k k m n n o q q r s s u v v x y z z A C C D E E G H H J K K L N N O P P R S S T V V W X X Z 9 9 + + j j l l l l p p p p t t t t w w w w w B B B B F F F F I I I I M M M M M Q Q Q Q U U U U Y Y Y Y Y . ",
"+ + + + + + + + + + + + + + + + + + + + + + + + + + + + + + + + + + + + + + + + + + + + + + + + + + + + . . . . . . . . . . . . . . . . . . . . . . . . . . . . . . . . . . . . . . . . . . . . . . . . . . ",
"                                                                                                                                                                                                            ",
"                                                                                                                                                                                                            ",
"        ` `               ` ` `               ` ` `                     `             ` ` ` `               ` ` `             ` ` ` `               ` `                 ` `                                 ",
"          ` {               { { `               { { `                 ` ` {           ` { { { {           `   { { {             { { ` {           `   { `             `   { `                               ",
"          ` {                   ` {             ` `   {             ` { ` {           ` ` `               ` ` `                   `   {             ` `   {           ` {   ` {                             ",
"          ` {                 `   {               { `             ` ` ` ` `             { { `             ` { { `                 ` {             `   { `               ` ` ` {                             ",
"          ` {               `   {                   ` {             { { ` { {         `     ` {           ` {   ` {               ` {             ` {   ` {               ` { {                             ",
"      ` ` ` ` {           ` ` ` `             ` ` `   {               ` ` `             ` `   {             ` `   {               ` {               ` `   {           ` `   {                               ",
"      { { { { {             { { { {             { { {                   { { {             { {                 { {                   {                 { {               { {                                 ",
"                                                                                                                                                                                                            ",
"                                                                                                                                                                                                            ",
"                                                                                                                                                                                                            ",
"        ` `               ` ` `               ` ` `                     `             ` ` ` `               ` ` `             ` ` ` `               ` `                 ` `                                 ",
"          ` 9               9 9 `               9 9 `                 ` ` 9           ` 9 9 9 9           `   9 9 9             9 9 ` 9           `   9 `             `   9 `                               ",
"          ` 9                   ` 9             ` `   9             ` 9 ` 9           ` ` `               ` ` `                   `   9             ` `   9           ` 9   ` 9                             ",
"          ` 9                 `   9               9 `             ` ` ` ` `             9 9 `             ` 9 9 `                 ` 9             `   9 `               ` ` ` 9                             ",
"          ` 9               `   9                   ` 9             9 9 ` 9 9         `     ` 9           ` 9   ` 9               ` 9             ` 9   ` 9               ` 9 9                             ",
"      ` ` ` ` 9           ` ` ` `             ` ` `   9               ` ` `             ` `   9             ` `   9               ` 9               ` `   9           ` `   9                               ",
"      9 9 9 9 9             9 9 9 9             9 9 9                   9 9 9             9 9                 9 9                   9                 9 9               9 9                                 ",
"                                                                                                                                                                                                            "};
