/* XPM */
static char * steel_xpm[] = {
"102 71 184 2",
"  	c None",
". 	c #4A4C5A",
"+ 	c #DFE0EF",
"@ 	c #DDDEED",
"# 	c #DCDDEC",
"$ 	c #DCDCEC",
"% 	c #DBDCEB",
"& 	c #DADBEA",
"* 	c #D9DAE9",
"= 	c #D9D9E9",
"- 	c #D8D9E8",
"; 	c #D7D8E7",
"> 	c #D6D7E6",
", 	c #D6D6E6",
"' 	c #D5D6E5",
") 	c #D4D5E4",
"! 	c #D3D4E3",
"~ 	c #D3D3E3",
"{ 	c #D2D3E2",
"] 	c #D1D2E1",
"^ 	c #D0D1E0",
"/ 	c #D0D0E0",
"( 	c #CFD0DF",
"_ 	c #CECFDE",
": 	c #CECEDE",
"< 	c #CDCEDD",
"[ 	c #CDCDDD",
"} 	c #CCCDDC",
"| 	c #CBCCDB",
"1 	c #CBCBDB",
"2 	c #CACBDA",
"3 	c #CACADA",
"4 	c #C9CAD9",
"5 	c #C8C9D8",
"6 	c #C8C8D8",
"7 	c #C7C8D7",
"8 	c #C7C7D7",
"9 	c #C6C7D6",
"0 	c #C5C6D5",
"a 	c #C5C5D5",
"b 	c #C4C5D4",
"c 	c #C4C4D4",
"d 	c #C3C4D3",
"e 	c #C2C3D2",
"f 	c #C2C2D2",
"g 	c #C1C2D1",
"h 	c #C1C1D1",
"i 	c #A0A0B0",
"j 	c #9F9FAF",
"k 	c #9E9FAE",
"l 	c #9E9EAE",
"m 	c #9D9DAD",
"n 	c #9C9CAC",
"o 	c #9B9CAB",
"p 	c #9B9BAB",
"q 	c #9A9AAA",
"r 	c #999AA9",
"s 	c #9899A8",
"t 	c #9898A8",
"u 	c #9797A7",
"v 	c #9697A6",
"w 	c #9596A5",
"x 	c #9495A4",
"y 	c #9494A4",
"z 	c #9394A3",
"A 	c #9293A2",
"B 	c #9192A1",
"C 	c #9091A0",
"D 	c #8F909F",
"E 	c #8E8F9E",
"F 	c #8D8E9D",
"G 	c #8C8D9C",
"H 	c #8B8C9B",
"I 	c #8A8B9A",
"J 	c #898A99",
"K 	c #888A98",
"L 	c #888998",
"M 	c #878897",
"N 	c #868796",
"O 	c #858795",
"P 	c #848694",
"Q 	c #848594",
"R 	c #838493",
"S 	c #828492",
"T 	c #818391",
"U 	c #818291",
"V 	c #808290",
"W 	c #7F818F",
"X 	c #7E808E",
"Y 	c #7E7F8E",
"Z 	c #7D7F8D",
"` 	c #7C7E8C",
" .	c #7B7D8B",
"..	c #C0C1D0",
"+.	c #7A7D8B",
"@.	c #BFC0CF",
"#.	c #7A7C8B",
"$.	c #7A7C8A",
"%.	c #BFBFCF",
"&.	c #797B89",
"*.	c #BEBFCE",
"=.	c #787A88",
"-.	c #BEBECE",
";.	c #777A87",
">.	c #BDBDCD",
",.	c #777987",
"'.	c #BCBDCC",
").	c #767886",
"!.	c #BCBCCC",
"~.	c #757785",
"{.	c #BBBCCB",
"].	c #747784",
"^.	c #BBBBCB",
"/.	c #747684",
"(.	c #BABACA",
"_.	c #737583",
":.	c #B9BAC9",
"<.	c #727582",
"[.	c #B9B9C9",
"}.	c #717481",
"|.	c #B8B9C8",
"1.	c #717381",
"2.	c #B8B8C8",
"3.	c #707280",
"4.	c #B7B7C7",
"5.	c #6F727F",
"6.	c #B6B7C6",
"7.	c #6E717E",
"8.	c #B6B6C6",
"9.	c #6D707D",
"0.	c #B5B6C5",
"a.	c #6D6F7D",
"b.	c #B5B5C5",
"c.	c #6C6F7C",
"d.	c #B4B4C4",
"e.	c #6B6E7B",
"f.	c #B3B4C3",
"g.	c #6A6D7A",
"h.	c #B3B3C3",
"i.	c #B2B3C2",
"j.	c #696C79",
"k.	c #B2B2C2",
"l.	c #686B78",
"m.	c #B1B1C1",
"n.	c #676A77",
"o.	c #B0B1C0",
"p.	c #B0B0C0",
"q.	c #666976",
"r.	c #AFAFBF",
"s.	c #656875",
"t.	c #646774",
"u.	c #AEAEBE",
"v.	c #ADAEBD",
"w.	c #636673",
"x.	c #ADADBD",
"y.	c #626572",
"z.	c #ACACBC",
"A.	c #616571",
"B.	c #616471",
"C.	c #ABABBB",
"D.	c #606370",
"E.	c #AAABBA",
"F.	c #5F626F",
"G.	c #AAAABA",
"H.	c #5E626E",
"I.	c #A9A9B9",
"J.	c #5D616D",
"K.	c #5D606D",
"L.	c #A8A8B8",
"M.	c #5C5F6C",
"N.	c #A7A8B7",
"O.	c #5B5F6B",
"P.	c #A7A7B7",
"Q.	c #5A5E6A",
"R.	c #A6A6B6",
"S.	c #5A5D6A",
"T.	c #595D69",
"U.	c #A5A5B5",
"V.	c #585C68",
"W.	c #A4A5B4",
"X.	c #575B67",
"Y.	c #A4A4B4",
"Z.	c #575A67",
"`.	c #000000",
". . . . . . . . . . . . . . . . . . . . . . . . . . . . . . . . . . . . . . . . . . . . . . . . . . + + + + + + + + + + + + + + + + + + + + + + + + + + + + + + + + + + + + + + + + + + + + + + + + + + + + ",
". @ @ # $ % & & * = - ; ; > , ' ) ) ! ~ { ] ] ^ / ( _ : < [ } | 1 2 3 4 5 6 7 8 9 0 a b c d e f g h + + i j k l m n o p q r s t u v w x y z A B B C D E E F G H H I J K L M N O P Q R S T U V W X Y Z `  .. ",
". @ # $ % & & * = - ; ; > , ' ) ) ! ~ { ] ] ^ / ( _ : < [ } | 1 2 3 4 5 6 7 8 9 0 a b c d e f g h ..+ + j k l m n o p q r s t u v w x y z A B B C D E E F G H H I J K L M N O P Q R S T U V W X Y Z `  .+.. ",
". # $ % & & * = - ; ; > , ' ) ) ! ~ { ] ] ^ / ( _ : < [ } | 1 2 3 4 5 6 7 8 9 0 a b c d e f g h ..@.+ + k l m n o p q r s t u v w x y z A B B C D E E F G H H I J K L M N O P Q R S T U V W X Y Z `  .#.$.. ",
". $ % & & * = - ; ; > , ' ) ) ! ~ { ] ] ^ / ( _ : < [ } | 1 2 3 4 5 6 7 8 9 0 a b c d e f g h ..@.%.+ + l m n o p q r s t u v w x y z A B B C D E E F G H H I J K L M N O P Q R S T U V W X Y Z `  .#.$.&.. ",
". % & & * = - ; ; > , ' ) ) ! ~ { ] ] ^ / ( _ : < [ } | 1 2 3 4 5 6 7 8 9 0 a b c d e f g h ..@.%.*.+ + m n o p q r s t u v w x y z A B B C D E E F G H H I J K L M N O P Q R S T U V W X Y Z `  .+.$.&.=.. ",
". & & * = - ; ; > , ' ) ) ! ~ { ] ] ^ / ( _ : < [ } | 1 2 3 4 5 6 7 8 9 0 a b c d e f g h ..@.%.*.-.+ + n o p q r s t u v w x y z A B B C D E E F G H H I J K L M N O P Q R S T U V W X Y Z `  .+.$.&.=.;.. ",
". & * = - ; ; > , ' ) ) ! ~ { ] ] ^ / ( _ : < [ } | 1 2 3 4 5 6 7 8 9 0 a b c d e f g h ..@.%.*.-.>.+ + o p q r s t u v w x y z A B B C D E E F G H H I J K L M N O P Q R S T U V W X Y Z `  .+.$.&.=.;.,.. ",
". * = - ; ; > , ' ) ) ! ~ { ] ] ^ / ( _ : < [ } | 1 2 3 4 5 6 7 8 9 0 a b c d e f g h ..@.%.*.-.>.'.+ + p q r s t u v w x y z A B B C D E E F G H H I J K L M N O P Q R S T U V W X Y Z `  .+.$.&.=.;.,.).. ",
". = - ; ; > , ' ) ) ! ~ { ] ] ^ / ( _ : < [ } | 1 2 3 4 5 6 7 8 9 0 a b c d e f g h ..@.%.*.-.>.'.!.+ + q r s t u v w x y z A B B C D E E F G H H I J K L M N O P Q R S T U V W X Y Z `  .+.$.&.=.;.,.).~.. ",
". - ; ; > , ' ) ) ! ~ { ] ] ^ / ( _ : < [ } | 1 2 3 4 5 6 7 8 9 0 a b c d e f g h ..@.%.*.-.>.'.!.{.+ + r s t u v w x y z A B B C D E E F G H H I J K L M N O P Q R S T U V W X Y Z `  .#.$.&.=.;.,.).~.].. ",
". ; ; > , ' ) ) ! ~ { ] ] ^ / ( _ : < [ } | 1 2 3 4 5 6 7 8 9 0 a b c d e f g h ..@.%.*.-.>.'.!.{.^.+ + s t u v w x y z A B B C D E E F G H H I J K L M N O P Q R S T U V W X Y Z `  .+.$.&.=.;.,.).~.]./.. ",
". ; > , ' ) ) ! ~ { ] ] ^ / ( _ : < [ } | 1 2 3 4 5 6 7 8 9 0 a b c d e f g h ..@.%.*.-.>.'.!.{.^.(.+ + t u v w x y z A B B C D E E F G H H I J K L M N O P Q R S T U V W X Y Z `  .#.$.&.=.;.,.).~.]./._.. ",
". > , ' ) ) ! ~ { ] ] ^ / ( _ : < [ } | 1 2 3 4 5 6 7 8 9 0 a b c d e f g h ..@.%.*.-.>.'.!.{.^.(.:.+ + u v w x y z A B B C D E E F G H H I J K L M N O P Q R S T U V W X Y Z `  .+.$.&.=.;.,.).~.]./._.<.. ",
". , ' ) ) ! ~ { ] ] ^ / ( _ : < [ } | 1 2 3 4 5 6 7 8 9 0 a b c d e f g h ..@.%.*.-.>.'.!.{.^.(.:.[.+ + v w x y z A B B C D E E F G H H I J K L M N O P Q R S T U V W X Y Z `  .+.$.&.=.;.,.).~.]./._.<.}.. ",
". ' ) ) ! ~ { ] ] ^ / ( _ : < [ } | 1 2 3 4 5 6 7 8 9 0 a b c d e f g h ..@.%.*.-.>.'.!.{.^.(.:.[.|.+ + w x y z A B B C D E E F G H H I J K L M N O P Q R S T U V W X Y Z `  .#.$.&.=.;.,.).~.]./._.<.}.1.. ",
". ) ) ! ~ { ] ] ^ / ( _ : < [ } | 1 2 3 4 5 6 7 8 9 0 a b c d e f g h ..@.%.*.-.>.'.!.{.^.(.:.[.|.2.+ + x y z A B B C D E E F G H H I J K L M N O P Q R S T U V W X Y Z `  .+.$.&.=.;.,.).~.]./._.<.}.1.3.. ",
". ) ! ~ { ] ] ^ / ( _ : < [ } | 1 2 3 4 5 6 7 8 9 0 a b c d e f g h ..@.%.*.-.>.'.!.{.^.(.:.[.|.2.4.+ + y z A B B C D E E F G H H I J K L M N O P Q R S T U V W X Y Z `  .#.$.&.=.;.,.).~.]./._.<.}.1.3.5.. ",
". ! ~ { ] ] ^ / ( _ : < [ } | 1 2 3 4 5 6 7 8 9 0 a b c d e f g h ..@.%.*.-.>.'.!.{.^.(.:.[.|.2.4.6.+ + z A B B C D E E F G H H I J K L M N O P Q R S T U V W X Y Z `  .+.$.&.=.;.,.).~.]./._.<.}.1.3.5.7.. ",
". ~ { ] ] ^ / ( _ : < [ } | 1 2 3 4 5 6 7 8 9 0 a b c d e f g h ..@.%.*.-.>.'.!.{.^.(.:.[.|.2.4.6.8.+ + A B B C D E E F G H H I J K L M N O P Q R S T U V W X Y Z `  .+.$.&.=.;.,.).~.]./._.<.}.1.3.5.7.9.. ",
". { ] ] ^ / ( _ : < [ } | 1 2 3 4 5 6 7 8 9 0 a b c d e f g h ..@.%.*.-.>.'.!.{.^.(.:.[.|.2.4.6.8.0.+ + B B C D E E F G H H I J K L M N O P Q R S T U V W X Y Z `  .#.$.&.=.;.,.).~.]./._.<.}.1.3.5.7.9.a.. ",
". ] ] ^ / ( _ : < [ } | 1 2 3 4 5 6 7 8 9 0 a b c d e f g h ..@.%.*.-.>.'.!.{.^.(.:.[.|.2.4.6.8.0.b.+ + B C D E E F G H H I J K L M N O P Q R S T U V W X Y Z `  .+.$.&.=.;.,.).~.]./._.<.}.1.3.5.7.9.a.c.. ",
". ] ^ / ( _ : < [ } | 1 2 3 4 5 6 7 8 9 0 a b c d e f g h ..@.%.*.-.>.'.!.{.^.(.:.[.|.2.4.6.8.0.b.d.+ + C D E E F G H H I J K L M N O P Q R S T U V W X Y Z `  .#.$.&.=.;.,.).~.]./._.<.}.1.3.5.7.9.a.c.e.. ",
". ^ / ( _ : < [ } | 1 2 3 4 5 6 7 8 9 0 a b c d e f g h ..@.%.*.-.>.'.!.{.^.(.:.[.|.2.4.6.8.0.b.d.f.+ + D E E F G H H I J K L M N O P Q R S T U V W X Y Z `  .+.$.&.=.;.,.).~.]./._.<.}.1.3.5.7.9.a.c.e.g.. ",
". / ( _ : < [ } | 1 2 3 4 5 6 7 8 9 0 a b c d e f g h ..@.%.*.-.>.'.!.{.^.(.:.[.|.2.4.6.8.0.b.d.f.h.+ + E E F G H H I J K L M N O P Q R S T U V W X Y Z `  .#.$.&.=.;.,.).~.]./._.<.}.1.3.5.7.9.a.c.e.g.g.. ",
". ( _ : < [ } | 1 2 3 4 5 6 7 8 9 0 a b c d e f g h ..@.%.*.-.>.'.!.{.^.(.:.[.|.2.4.6.8.0.b.d.f.h.i.+ + E F G H H I J K L M N O P Q R S T U V W X Y Z `  .#.$.&.=.;.,.).~.]./._.<.}.1.3.5.7.9.a.c.e.g.g.j.. ",
". _ : < [ } | 1 2 3 4 5 6 7 8 9 0 a b c d e f g h ..@.%.*.-.>.'.!.{.^.(.:.[.|.2.4.6.8.0.b.d.f.h.i.k.+ + F G H H I J K L M N O P Q R S T U V W X Y Z `  .#.$.&.=.;.,.).~.]./._.<.}.1.3.5.7.9.a.c.e.g.g.j.l.. ",
". : < [ } | 1 2 3 4 5 6 7 8 9 0 a b c d e f g h ..@.%.*.-.>.'.!.{.^.(.:.[.|.2.4.6.8.0.b.d.f.h.i.k.m.+ + G H H I J K L M N O P Q R S T U V W X Y Z `  .#.$.&.=.;.,.).~.]./._.<.}.1.3.5.7.9.a.c.e.g.g.j.l.n.. ",
". < [ } | 1 2 3 4 5 6 7 8 9 0 a b c d e f g h ..@.%.*.-.>.'.!.{.^.(.:.[.|.2.4.6.8.0.b.d.f.h.i.k.m.o.+ + H H I J K L M N O P Q R S T U V W X Y Z `  .+.$.&.=.;.,.).~.]./._.<.}.1.3.5.7.9.a.c.e.g.g.j.l.n.n.. ",
". [ } | 1 2 3 4 5 6 7 8 9 0 a b c d e f g h ..@.%.*.-.>.'.!.{.^.(.:.[.|.2.4.6.8.0.b.d.f.h.i.k.m.o.p.+ + H I J K L M N O P Q R S T U V W X Y Z `  .#.$.&.=.;.,.).~.]./._.<.}.1.3.5.7.9.a.c.e.g.g.j.l.n.n.q.. ",
". } | 1 2 3 4 5 6 7 8 9 0 a b c d e f g h ..@.%.*.-.>.'.!.{.^.(.:.[.|.2.4.6.8.0.b.d.f.h.i.k.m.o.p.r.+ + I J K L M N O P Q R S T U V W X Y Z `  .+.$.&.=.;.,.).~.]./._.<.}.1.3.5.7.9.a.c.e.g.g.j.l.n.n.q.s.. ",
". | 1 2 3 4 5 6 7 8 9 0 a b c d e f g h ..@.%.*.-.>.'.!.{.^.(.:.[.|.2.4.6.8.0.b.d.f.h.i.k.m.o.p.r.r.+ + J K L M N O P Q R S T U V W X Y Z `  .#.$.&.=.;.,.).~.]./._.<.}.1.3.5.7.9.a.c.e.g.g.j.l.n.n.q.s.t.. ",
". 1 2 3 4 5 6 7 8 9 0 a b c d e f g h ..@.%.*.-.>.'.!.{.^.(.:.[.|.2.4.6.8.0.b.d.f.h.i.k.m.o.p.r.r.u.+ + K L M N O P Q R S T U V W X Y Z `  .+.$.&.=.;.,.).~.]./._.<.}.1.3.5.7.9.a.c.e.g.g.j.l.n.n.q.s.t.t.. ",
". 2 3 4 5 6 7 8 9 0 a b c d e f g h ..@.%.*.-.>.'.!.{.^.(.:.[.|.2.4.6.8.0.b.d.f.h.i.k.m.o.p.r.r.u.v.+ + L M N O P Q R S T U V W X Y Z `  .+.$.&.=.;.,.).~.]./._.<.}.1.3.5.7.9.a.c.e.g.g.j.l.n.n.q.s.t.t.w.. ",
". 3 4 5 6 7 8 9 0 a b c d e f g h ..@.%.*.-.>.'.!.{.^.(.:.[.|.2.4.6.8.0.b.d.f.h.i.k.m.o.p.r.r.u.v.x.+ + M N O P Q R S T U V W X Y Z `  .#.$.&.=.;.,.).~.]./._.<.}.1.3.5.7.9.a.c.e.g.g.j.l.n.n.q.s.t.t.w.y.. ",
". 4 5 6 7 8 9 0 a b c d e f g h ..@.%.*.-.>.'.!.{.^.(.:.[.|.2.4.6.8.0.b.d.f.h.i.k.m.o.p.r.r.u.v.x.z.+ + N O P Q R S T U V W X Y Z `  .+.$.&.=.;.,.).~.]./._.<.}.1.3.5.7.9.a.c.e.g.g.j.l.n.n.q.s.t.t.w.y.A.. ",
". 5 6 7 8 9 0 a b c d e f g h ..@.%.*.-.>.'.!.{.^.(.:.[.|.2.4.6.8.0.b.d.f.h.i.k.m.o.p.r.r.u.v.x.z.z.+ + O P Q R S T U V W X Y Z `  .#.$.&.=.;.,.).~.]./._.<.}.1.3.5.7.9.a.c.e.g.g.j.l.n.n.q.s.t.t.w.y.A.B.. ",
". 6 7 8 9 0 a b c d e f g h ..@.%.*.-.>.'.!.{.^.(.:.[.|.2.4.6.8.0.b.d.f.h.i.k.m.o.p.r.r.u.v.x.z.z.C.+ + P Q R S T U V W X Y Z `  .+.$.&.=.;.,.).~.]./._.<.}.1.3.5.7.9.a.c.e.g.g.j.l.n.n.q.s.t.t.w.y.A.B.D.. ",
". 7 8 9 0 a b c d e f g h ..@.%.*.-.>.'.!.{.^.(.:.[.|.2.4.6.8.0.b.d.f.h.i.k.m.o.p.r.r.u.v.x.z.z.C.E.+ + Q R S T U V W X Y Z `  .+.$.&.=.;.,.).~.]./._.<.}.1.3.5.7.9.a.c.e.g.g.j.l.n.n.q.s.t.t.w.y.A.B.D.F.. ",
". 8 9 0 a b c d e f g h ..@.%.*.-.>.'.!.{.^.(.:.[.|.2.4.6.8.0.b.d.f.h.i.k.m.o.p.r.r.u.v.x.z.z.C.E.G.+ + R S T U V W X Y Z `  .#.$.&.=.;.,.).~.]./._.<.}.1.3.5.7.9.a.c.e.g.g.j.l.n.n.q.s.t.t.w.y.A.B.D.F.H.. ",
". 9 0 a b c d e f g h ..@.%.*.-.>.'.!.{.^.(.:.[.|.2.4.6.8.0.b.d.f.h.i.k.m.o.p.r.r.u.v.x.z.z.C.E.G.I.+ + S T U V W X Y Z `  .+.$.&.=.;.,.).~.]./._.<.}.1.3.5.7.9.a.c.e.g.g.j.l.n.n.q.s.t.t.w.y.A.B.D.F.H.J.. ",
". 0 a b c d e f g h ..@.%.*.-.>.'.!.{.^.(.:.[.|.2.4.6.8.0.b.d.f.h.i.k.m.o.p.r.r.u.v.x.z.z.C.E.G.I.I.+ + T U V W X Y Z `  .#.$.&.=.;.,.).~.]./._.<.}.1.3.5.7.9.a.c.e.g.g.j.l.n.n.q.s.t.t.w.y.A.B.D.F.H.J.K.. ",
". a b c d e f g h ..@.%.*.-.>.'.!.{.^.(.:.[.|.2.4.6.8.0.b.d.f.h.i.k.m.o.p.r.r.u.v.x.z.z.C.E.G.I.I.L.+ + U V W X Y Z `  .+.$.&.=.;.,.).~.]./._.<.}.1.3.5.7.9.a.c.e.g.g.j.l.n.n.q.s.t.t.w.y.A.B.D.F.H.J.K.M.. ",
". b c d e f g h ..@.%.*.-.>.'.!.{.^.(.:.[.|.2.4.6.8.0.b.d.f.h.i.k.m.o.p.r.r.u.v.x.z.z.C.E.G.I.I.L.N.+ + V W X Y Z `  .+.$.&.=.;.,.).~.]./._.<.}.1.3.5.7.9.a.c.e.g.g.j.l.n.n.q.s.t.t.w.y.A.B.D.F.H.J.K.M.O.. ",
". c d e f g h ..@.%.*.-.>.'.!.{.^.(.:.[.|.2.4.6.8.0.b.d.f.h.i.k.m.o.p.r.r.u.v.x.z.z.C.E.G.I.I.L.N.P.+ + W X Y Z `  .+.$.&.=.;.,.).~.]./._.<.}.1.3.5.7.9.a.c.e.g.g.j.l.n.n.q.s.t.t.w.y.A.B.D.F.H.J.K.M.O.Q.. ",
". d e f g h ..@.%.*.-.>.'.!.{.^.(.:.[.|.2.4.6.8.0.b.d.f.h.i.k.m.o.p.r.r.u.v.x.z.z.C.E.G.I.I.L.N.P.R.+ + X Y Z `  .+.$.&.=.;.,.).~.]./._.<.}.1.3.5.7.9.a.c.e.g.g.j.l.n.n.q.s.t.t.w.y.A.B.D.F.H.J.K.M.O.Q.S.. ",
". e f g h ..@.%.*.-.>.'.!.{.^.(.:.[.|.2.4.6.8.0.b.d.f.h.i.k.m.o.p.r.r.u.v.x.z.z.C.E.G.I.I.L.N.P.R.R.+ + Y Z `  .+.$.&.=.;.,.).~.]./._.<.}.1.3.5.7.9.a.c.e.g.g.j.l.n.n.q.s.t.t.w.y.A.B.D.F.H.J.K.M.O.Q.S.T.. ",
". f g h ..@.%.*.-.>.'.!.{.^.(.:.[.|.2.4.6.8.0.b.d.f.h.i.k.m.o.p.r.r.u.v.x.z.z.C.E.G.I.I.L.N.P.R.R.U.+ + Z `  .#.$.&.=.;.,.).~.]./._.<.}.1.3.5.7.9.a.c.e.g.g.j.l.n.n.q.s.t.t.w.y.A.B.D.F.H.J.K.M.O.Q.S.T.V.. ",
". g h ..@.%.*.-.>.'.!.{.^.(.:.[.|.2.4.6.8.0.b.d.f.h.i.k.m.o.p.r.r.u.v.x.z.z.C.E.G.I.I.L.N.P.R.R.U.W.+ + `  .#.$.&.=.;.,.).~.]./._.<.}.1.3.5.7.9.a.c.e.g.g.j.l.n.n.q.s.t.t.w.y.A.B.D.F.H.J.K.M.O.Q.S.T.V.X.. ",
". h ..@.%.*.-.>.'.!.{.^.(.:.[.|.2.4.6.8.0.b.d.f.h.i.k.m.o.p.r.r.u.v.x.z.z.C.E.G.I.I.L.N.P.R.R.U.W.Y.+ +  .+.$.&.=.;.,.).~.]./._.<.}.1.3.5.7.9.a.c.e.g.g.j.l.n.n.q.s.t.t.w.y.A.B.D.F.H.J.K.M.O.Q.S.T.V.X.Z.. ",
"+ + + + + + + + + + + + + + + + + + + + + + + + + + + + + + + + + + + + + + + + + + + + + + + + + + + + . . . . . . . . . . . . . . . . . . . . . . . . . . . . . . . . . . . . . . . . . . . . . . . . . . ",
"                                                                                                                                                                                                            ",
"                                                                                                                                                                                                            ",
"        `.`.              `.`.`.              `.`.`.                    `.            `.`.`.`.              `.`.`.            `.`.`.`.              `.`.                `.`.                                ",
"          `.|               | | `.              | | `.                `.`.|           `.| | | |           `.  | | |             | | `.|           `.  | `.            `.  | `.                              ",
"          `.|                   `.|             `.`.  |             `.| `.|           `.`.`.              `.`.`.                  `.  |             `.`.  |           `.|   `.|                             ",
"          `.|                 `.  |               | `.            `.`.`.`.`.            | | `.            `.| | `.                `.|             `.  | `.              `.`.`.|                             ",
"          `.|               `.  |                   `.|             | | `.| |         `.    `.|           `.|   `.|               `.|             `.|   `.|               `.| |                             ",
"      `.`.`.`.|           `.`.`.`.            `.`.`.  |               `.`.`.            `.`.  |             `.`.  |               `.|               `.`.  |           `.`.  |                               ",
"      | | | | |             | | | |             | | |                   | | |             | |                 | |                   |                 | |               | |                                 ",
"                                                                                                                                                                                                            ",
"                                                                                                                                                                                                            ",
"                                                                                                                                                                                                            ",
"        `.`.              `.`.`.              `.`.`.                    `.            `.`.`.`.              `.`.`.            `.`.`.`.              `.`.                `.`.                                ",
"          `.Y.              Y.Y.`.              Y.Y.`.                `.`.Y.          `.Y.Y.Y.Y.          `.  Y.Y.Y.            Y.Y.`.Y.          `.  Y.`.            `.  Y.`.                              ",
"          `.Y.                  `.Y.            `.`.  Y.            `.Y.`.Y.          `.`.`.              `.`.`.                  `.  Y.            `.`.  Y.          `.Y.  `.Y.                            ",
"          `.Y.                `.  Y.              Y.`.            `.`.`.`.`.            Y.Y.`.            `.Y.Y.`.                `.Y.            `.  Y.`.              `.`.`.Y.                            ",
"          `.Y.              `.  Y.                  `.Y.            Y.Y.`.Y.Y.        `.    `.Y.          `.Y.  `.Y.              `.Y.            `.Y.  `.Y.              `.Y.Y.                            ",
"      `.`.`.`.Y.          `.`.`.`.            `.`.`.  Y.              `.`.`.            `.`.  Y.            `.`.  Y.              `.Y.              `.`.  Y.          `.`.  Y.                              ",
"      Y.Y.Y.Y.Y.            Y.Y.Y.Y.            Y.Y.Y.                  Y.Y.Y.            Y.Y.                Y.Y.                  Y.                Y.Y.              Y.Y.                                ",
"                                                                                                                                                                                                            "};
