/* XPM */
static char * frame5_xpm[] = {
"60 60 3 1",
" 	c None",
".	c #202020",
"+	c #FFFFFF",
"...........................................................+",
"...........................................................+",
"...........................................................+",
"...........................................................+",
"...........................................................+",
"...........................................................+",
"...........................................................+",
"...........................................................+",
"...........................................................+",
"...........................................................+",
"...........................................................+",
"...........................................................+",
"...........................................................+",
"...........................................................+",
"...........................................................+",
"...........................................................+",
"...........................................................+",
"...........................................................+",
"...........................................................+",
"...........................................................+",
"...........................................................+",
"...........................................................+",
"...........................................................+",
"...........................................................+",
"...........................................................+",
"...........................................................+",
"...........................................................+",
"...........................................................+",
"...........................................................+",
"++++++++++++++++++++++++++++++++++++++++++++++++++++++++++++",
"                                                            ",
"...........................................................+",
"...........................................................+",
"...........................................................+",
"...........................................................+",
"...........................................................+",
"...........................................................+",
"...........................................................+",
"...........................................................+",
"...........................................................+",
"...........................................................+",
"...........................................................+",
"...........................................................+",
"...........................................................+",
"...........................................................+",
"...........................................................+",
"...........................................................+",
"...........................................................+",
"...........................................................+",
"...........................................................+",
"...........................................................+",
"...........................................................+",
"...........................................................+",
"...........................................................+",
"...........................................................+",
"...........................................................+",
"...........................................................+",
"...........................................................+",
"...........................................................+",
"++++++++++++++++++++++++++++++++++++++++++++++++++++++++++++"};
