/* XPM */
static char * zapnum_xpm[] = {
"120 13 3 1",
" 	c None",
".	c #000000",
"+	c #CCCC6E",
"........................................................................................................................",
"...++++......++++......+++++.......+++....+++++++......+++...++++++++....+++++.....+++++.....+++++......................",
"..+++++....+++.+++...+++..++++....++++....+++++++....+++.....++++++++...++..+++...+++.+++...+++.+++.....................",
"....+++....+++..+++..+++...+++...+++++....++........+++......+.....+...+++...+++.+++...+++..++...++.....................",
"....+++....+++..+++..+++...+++..++.+++....++........++++++...+....++...+++...+++.+++...+++.+++...+++....................",
"....+++.........+++.......+++..++..+++....++++++...+++..+++.......+.....++++.++..+++...+++.+++...+++..............+++++.",
"....+++........+++.....+++++..++...+++........+++..+++...+++.....++......+++++...+++...+++.+++...+++..............+++++.",
"....+++.......+++.........++++++++++++++.......+++.+++...+++....++......++.++++...+++..+++.+++...+++....................",
"....+++......+++.....++....+++++++++++++..++...+++.+++...+++....++.....+++..++++...++++++..+++...+++....................",
"....+++.....+++...+..+++...+++.....+++...+++...+++.+++...+++...++......+++...+++......+++...++...++.....................",
"....+++....++++++++..+++..+++......+++...++++.+++...+++.+++....++.......+++..++......+++....+++.+++.....................",
"..+++++++..++++++++....+++++.......+++....+++++......+++++....++.........+++++.....+++.......+++++......................",
"..................................................................................++...................................."};
