/* XPM */
static char * button_xpm[] = {
"16 9 17 1",
" 	c None",
".	c #B7BAC7",
"+	c #848694",
"@	c #838593",
"#	c #828392",
"$	c #808290",
"%	c #7F818F",
"&	c #7E808E",
"*	c #7C7E8C",
"=	c #7B7D8B",
"-	c #7A7C8A",
";	c #787A88",
">	c #777987",
",	c #767886",
"'	c #747784",
")	c #737583",
"!	c #000000",
"................",
".+@#$%&*=-;>,')!",
".!!!!!!!!!!!!!!!",
"...............!",
".+@#$%&*=-;>,')!",
".!!!!!!!!!!!!!!!",
"...............!",
".+@#$%&*=-;>,')!",
".!!!!!!!!!!!!!!!"};
