/* XPM */
static char *magick[] = {
/* columns rows colors chars-per-pixel */
"48 48 94 2",
"   c #070606",
".  c #0c0b0b",
"X  c #100f0f",
"o  c Gray9",
"O  c #1f1d1d",
"+  c #211f1f",
"@  c #242323",
"#  c #2b2929",
"$  c #343232",
"%  c #3f3d3d",
"&  c #1c1074",
"*  c #3c3656",
"=  c #413f3f",
"-  c #464444",
";  c #4a4747",
":  c #4f4c4c",
">  c #575454",
",  c #5f5b5b",
"<  c #615e5e",
"1  c #666363",
"2  c #6b6767",
"3  c #6f6b6b",
"4  c #726e6e",
"5  c #726d7d",
"6  c #777373",
"7  c #7b7777",
"8  c #7e7a7a",
"9  c #1500b8",
"0  c #302295",
"q  c #1d05d1",
"w  c #1900db",
"e  c #1d00fc",
"r  c #240cd7",
"t  c #2308f3",
"y  c #2a0ef9",
"u  c #2c10fc",
"i  c #3a20fb",
"p  c #4329fb",
"a  c #482ffb",
"s  c #5a4da1",
"d  c #5a42fa",
"f  c #6852fa",
"g  c #745ff6",
"h  c #7762f9",
"j  c #837e7e",
"k  c #fc0000",
"l  c #fc1010",
"z  c #fc2020",
"x  c #fd4242",
"c  c #fd6262",
"v  c #8571f9",
"b  c #868282",
"n  c #8c8787",
"m  c #8f8a8a",
"M  c #948f8f",
"N  c #979292",
"B  c #9b9595",
"V  c #9f9a9a",
"C  c #a59f9f",
"Z  c #a7a1a1",
"A  c #aaa4a4",
"S  c #aea8a8",
"D  c #b5aeae",
"F  c #beb7b7",
"G  c #9080e4",
"H  c #9785f8",
"J  c #9d8bf8",
"K  c #a493f7",
"L  c #a594f8",
"P  c #aa9af8",
"I  c #b3a3f7",
"U  c #c6bfbf",
"Y  c #fd8585",
"T  c #fd9494",
"R  c #fdb4b4",
"E  c #c2b4f7",
"W  c #c0c0c0",
"Q  c #cec7c7",
"!  c #d7cfcf",
"~  c #dfd7d7",
"^  c #d4c7f6",
"/  c #e7dede",
"(  c #fec7c7",
")  c #fed6d6",
"_  c #e2d6f6",
"`  c #eee6e6",
"'  c #efe5f5",
"]  c #f7efef",
"[  c #fee6e6",
"{  c #f8efef",
"}  c #f0e6f5",
"|  c #fef5f5",
" . c Gray100",
".. c None",
/* pixels */
"A U ! ~ / ` ] ] { { { { { { { { { { { { { { { { { { { { { { { { { { { { { { { { | |  . . . .] / ",
"M Z F ..~ ]  . . . . . . . . . . . . . . . . . . . . . . . . . . . . . . . . . . . . . . . .~ Q ",
"7 M C D F U Q Q Q Q Q Q Q Q Q Q Q Q Q Q Q Q Q Q Q Q Q Q Q Q Q Q Q Q Q Q Q Q Q Q Q Q ~ / / Q U F ",
"2 8 M V Z D D F F F F F F F F F F F F F F F F F F F F F F F F F F F F F F F F F F F F D D F D S ",
", 3 j m Q / / / / / / / / / / / / / / / / / / / / / / / / / / / / / / / / / / / / / / ! C A C C ",
": 1 6 M ~ ` ] { ] ] ] ] ] ] ] ] ] ] ] ] ] ] ] ] ] ] ] ] ] ] ] ] ] ] ] ] ] ] ] ] ] ] ` / Z V V B ",
": < 4 M ~ ] | | | | | | | | | | | | | | | | | | | | | | | | | | | | | | | | | | | | ] / Z B B N ",
": , 3 M ~ ] | | | | | | | | | | | | | | | | | | | | | | | | | | | | | | | | | | | | ] / C N N N ",
": , 3 m / ] | | | | | | | | | | | | | | | | | | c k k k k Y | | | | | | | | | | | | ] / C N N M ",
": , 3 m ~ ] | | | | | | | | | | | | | | | | | T k k k k k Y | | | | | | | | | | | | ] / C N N M ",
": , 3 M ~ ] | | | | | | | | | | | | | | | | T k k k k k k Y | | | | | | | | | | | | ] / C N N M ",
": , 3 m ~ ] | | | | | | | | | | | | | | | T k k k k k k k Y | | | | | | | | | | | | ] / C N N M ",
": , 3 m / ] | | | | | | | | | | | | | | T k k k k k k k k Y | | | | | | | | | | | | ] / C N N M ",
": , 3 m ~ ] | | | | | | | | | | | | | R k k k l Y k k k k Y | | | | | | | | | | | | ] / C M B M ",
": , 3 m ~ ] | | | | | | | | | | | | ( l k k k ( R k k k k Y | | | | | | | | | | | | ] / C N N M ",
": , 3 M ~ ] | | | | | | | | | | | ( l k k k T | R k k k k Y | | | | | | | | | | | | ] / C N N M ",
": , 3 m ~ ] | | | | | | | | | | ( l k k k T | | R k k k k Y | | | | | | | | | | | | ] / C N N M ",
": , 3 m / ] | | | | | | | | | ( l k k k T | | | R k k k k Y | | | | | | | | | | | | ] / C M B M ",
": , 3 m ~ ] | | | | | | | | | z k k k T | | | | R k k k k Y | | | | | | | | | | | | ] / C N N M ",
": , 3 M ~ ] | | | | | | | | | k k k l Y Y Y Y Y c k k k k x Y Y Y ) | | | | | | | | ] / C N N M ",
": , 3 m ~ ] | | | | | | | | | k k k k k k k k k k k k k k k k k k R | | | | | | | | ] / C N N M ",
": , 3 m ~ ] | | | | | | | | | k k k k k k k k k k k k k k k k k k R | | | | | | | | ] / C M B M ",
": , 2 M ~ ] | | | | | | | | | k k k k k k k k k k k k k k k k k k R | | | | | | | | ] / C N N M ",
": , 3 m ~ ] | | | | | | | | | R R R R R R R R R Y k k k k c R R R [ | | | | | | | | ] / C N N M ",
": , 3 m / ] | | | | | | | | | | | | | | | | | | R k k k k Y | | | | | | | | | | | | ] / C N N M ",
": , 3 m ~ ] | | | | | | | | | | | | | | | | | | R k k k k Y | | | | | | | | | | | | ] / C M B M ",
": , 3 M ~ ] | | | | | | | | | | | | | | | | | | R k k k k Y | | | | | | | | | | | | ] / C N N M ",
": , 3 m ~ ] | | | | | | | | | | | | | | | | | | R k k k k Y | | | | | | | | | | | | ] / C N N M ",
": , 3 m / ] | | | | | | | | | | | | | | | | | | R k k k k Y | | | | | | | | | | | | ] / C N N M ",
": , 3 m ~ ] | | | | | | | | | | | | | | | | | | | | | | | | | | | | | | | | | | | | ] / C M B M ",
": , 3 m ~ ] | | | | | | | | | | | | | | | | | | | | | | | | | | | | | | | | | | | | ] / C N N M ",
": , 3 M ~ ] | | | | | | ^ f e ^ | | | | | | | | | | | | | p h | | | | | | H u | | | ] / C N N M ",
": , 3 m ~ ] | | | | | E u d L | | | | | | | | | | | | | L e I | | | | | ' u h | | | ] / C N N M ",
": , 3 m / ] | | | | _ u h | | | | | | | | | | | | | | | a i | | | | | | h e E | | | ] / C M B M ",
": , 3 m ~ ] | | | | h u } | | | | | | | | | | | | | | ^ e H | | | | | _ e i | | | | ] / C N N M ",
": , 3 M ~ ] | | | | u h E I P H u | | | | I a i | | | H e _ ^ d d | | h e H L i d | ] / C N N M ",
": , 3 m ~ ] | | ^ u e e i H J u d v | | L e a a v | | d a _ u H _ | | e e a d d e | ] / C N N M ",
": , 3 m ~ ] | | | h e _ | } i H H e | } i i } H e | | e v a v | | | I e u I | f a | ] / C M B M ",
": , 2 M ~ ] | | | f a | | H e } h i | H e E | d i | E e a u } | | | v e ^ | L e K | ] / C N N M ",
": , 3 m ~ ] | | | u v | | i a } u H | i a | E e H | H e e u } | | L p h | L e h | | ] / C N N M ",
": , 3 m ~ ] | | _ e I | | e a h d | | e a I u h | | d i _ a a E h h e d f e h | | | ] / C M N M ",
"- , 2 n ~ ] | | K e ' | | v u v ' | | v e d I | | | u H | _ i i H | v u d K | | | | ] ~ V M M M ",
"- > 1 j ! ` ] ] g d ] ] ] ] ] ] ] ] ] ] ] ] ] ] ] ] ] ] ] ] ] ] ] ] ] ] ] ] ] ] ] ] ` ~ N m m m ",
"% : , 1 F ! ~ ~ y G ~ ~ ~ ~ ~ ~ ~ ~ ~ ~ ~ ~ ~ ~ ~ ~ ~ ~ ~ ~ ~ ~ ~ ~ ~ ~ ~ ~ ~ ~ ~ ~ ! F 8 j b b ",
"$ % - > > 3 4 s t 5 6 6 6 6 6 6 6 6 6 6 6 6 6 6 6 6 6 6 6 6 6 6 6 6 6 6 6 6 6 6 6 6 4 1 2 4 6 7 ",
"@ # $ $ % % * r 0 = = = = = = = = = = = = = = = = = = = = = = = = = = = = = = = = = - - : > , 1 ",
". . o o o & e q O O O O O O O O O O O O O O O O O O O O O O O O O O O O O O O O O O + @ # $ % ; ",
"          w 9                                                                             X O # "
};
