/* XPM */
static char * En_xpm[] = {
"22 22 52 1",
" 	c None",
".	c #005B77",
"+	c #005D79",
"@	c #005E7B",
"#	c #005F7C",
"$	c #00607D",
"%	c #00617F",
"&	c #006280",
"*	c #38849B",
"=	c #5596AA",
"-	c #006382",
";	c #38859D",
">	c #C6DCE3",
",	c #FFFFFF",
"'	c #5597AB",
")	c #71A8B9",
"!	c #006583",
"~	c #AACBD5",
"{	c #006685",
"]	c #AACCD6",
"^	c #71A9BB",
"/	c #8DBAC8",
"(	c #E2EDF1",
"_	c #006787",
":	c #AACCD7",
"<	c #5599AF",
"[	c #71AABC",
"}	c #006888",
"|	c #C6DDE4",
"1	c #559AAF",
"2	c #006989",
"3	c #AACDD7",
"4	c #1C7995",
"5	c #559BB0",
"6	c #006A8B",
"7	c #AACDD8",
"8	c #71ACBE",
"9	c #1C7A97",
"0	c #559BB1",
"a	c #006B8D",
"b	c #71ACBF",
"c	c #E2EEF2",
"d	c #C6DDE5",
"e	c #AACDD9",
"f	c #388BA6",
"g	c #006D8E",
"h	c #006E8F",
"i	c #006F91",
"j	c #007092",
"k	c #007194",
"l	c #007296",
"m	c #007397",
"......................",
"++++++++++++++++++++++",
"@@@@@@@@@@@@@@@@@@@@@@",
"######################",
"$$$$$$$$$$$$$$$$$$$$$$",
"%%%%%%%%%%%%%%%%%%%%%%",
"&&&*======&&&&&&&&&&&&",
"---;>,''),------------",
"!!!!~,!!!>!!!!!!!!!!!!",
"{{{{],{{^{{],/>,({{{{{",
"____:,::,__<,:_[,<____",
"}}}}:,}}|}}1,1}1,1}}}}",
"22223,222445,525,52222",
"66667,666890,060,06666",
"aaabc,ded,ad,dfd,dfaaa",
"gggggggggggggggggggggg",
"hhhhhhhhhhhhhhhhhhhhhh",
"iiiiiiiiiiiiiiiiiiiiii",
"jjjjjjjjjjjjjjjjjjjjjj",
"kkkkkkkkkkkkkkkkkkkkkk",
"llllllllllllllllllllll",
"mmmmmmmmmmmmmmmmmmmmmm"};
