/* XPM */
static char * wmsm_master_xpm[] = {
"116 87 80 1",
".	c #0000FF",
"+	c #202020",
"@	c #007D71",
"#	c #20B6AE",
"$	c #004941",
"%	c #000000",
"&	c #000101",
"*	c #000303",
"=	c #000505",
"-	c #000706",
";	c #000908",
">	c #000B0A",
",	c #000D0C",
"'	c #000F0D",
")	c #00110F",
"!	c #001311",
"~	c #001513",
"{	c #001714",
"]	c #001916",
"^	c #001B18",
"/	c #001D1A",
"(	c #001F1B",
"_	c #00211D",
":	c #00231F",
"<	c #002521",
"[	c #002722",
"}	c #002924",
"|	c #002B26",
"1	c #002D28",
"2	c #002F29",
"3	c #00312B",
"4	c #00332D",
"5	c #00352F",
"6	c #003730",
"7	c #003932",
"8	c #003B34",
"9	c #003D36",
"0	c #003F37",
"a	c #004139",
"b	c #00433B",
"c	c #004840",
"d	c #004B44",
"e	c #014E47",
"f	c #02514A",
"g	c #03544D",
"h	c #045750",
"i	c #055A53",
"j	c #065D56",
"k	c #076059",
"l	c #08635D",
"m	c #096660",
"n	c #0A6963",
"o	c #0A6C66",
"p	c #0B6F69",
"q	c #0C736C",
"r	c #0D756F",
"s	c #0E7872",
"t	c #0F7B75",
"u	c #107E79",
"v	c #11817C",
"w	c #12847F",
"x	c #138782",
"y	c #148A85",
"z	c #158E88",
"A	c #15908B",
"B	c #16938E",
"C	c #179791",
"D	c #189995",
"E	c #199D98",
"F	c #1A9F9B",
"G	c #1BA29E",
"H	c #1CA5A1",
"I	c #1DA8A4",
"J	c #1EABA7",
"K	c #1FAFAA",
"L	c #20B2AE",
"M	c #107979",
"N	c #188A86",
"O	c #107D79",
"P	c #0D177C",
"....................................................................................................................",
"....................................................................................................................",
"....................................................................................................................",
"....................................................................................................................",
"....++++++++++++++++++++++++++++++++++++++++++++++++++++++++......+++++++++++++++++++++++++++++++++++++.............",
"....+@###@+@###@+@$$$@++%&*=-;>,')!~{]^/(_:<[}|1234567890ab+......+cdefghijklmnopqrstuvwxyzABCDEFGHIJK+.............",
"....+#+++$+#+++#+#+++#++%&*=-;>,')!~{]^/(_:<[}|1234567890ab+......+cdefghijklmnopqrstuvwxyzABCDEFGHIJK+.............",
"....+#+++$+#+++#+#+++#++%&*=-;>,')!~{]^/(_:<[}|1234567890ab+......+cdefghijklmnopqrstuvwxyzABCDEFGHIJK+.............",
"....+@$$$++@###@+@$$$@++%&*=-;>,')!~{]^/(_:<[}|1234567890ab+......+cdefghijklmnopqrstuvwxyzABCDEFGHIJK+.............",
"....+#+++$+#+++$+#+++#++%&*=-;>,')!~{]^/(_:<[}|1234567890ab+......+cdefghijklmnopqrstuvwxyzABCDEFGHIJK+.............",
"....+#+++$+#+++$+#+++#++%&*=-;>,')!~{]^/(_:<[}|1234567890ab+......+cdefghijklmnopqrstuvwxyzABCDEFGHIJK+.............",
"....+@###@+@$$$++@###@++%&*=-;>,')!~{]^/(_:<[}|1234567890ab+......+cdefghijklmnopqrstuvwxyzABCDEFGHIJK+.............",
"....++++++++++++++++++++++++++++++++++++++++++++++++++++++++......+++++++++++++++++++++++++++++++++++++.............",
"....++++++++++++++++++++++++++++++++++++++++++++++++++++++++......+%&*=-;>,')!~{]^/(_:<[}|1234567890ab+.............",
"....+L$$$L+MLLLM+L$$$L++%&*=-;>,')!~{]^/(_:<[}|1234567890ab+......+%&*=-;>,')!~{]^/(_:<[}|1234567890ab+.............",
"....+LL+LL+L+++$+LL+LL++%&*=-;>,')!~{]^/(_:<[}|1234567890ab+......+%&*=-;>,')!~{]^/(_:<[}|1234567890ab+.............",
"....+L+L+L+L+++$+L+L+L++%&*=-;>,')!~{]^/(_:<[}|1234567890ab+......+%&*=-;>,')!~{]^/(_:<[}|1234567890ab+.............",
"....+M$$$M+MLLL++M$$$M++%&*=-;>,')!~{]^/(_:<[}|1234567890ab+......+%&*=-;>,')!~{]^/(_:<[}|1234567890ab+.............",
"....+L+++L+L+++$+L+++L++%&*=-;>,')!~{]^/(_:<[}|1234567890ab+......+%&*=-;>,')!~{]^/(_:<[}|1234567890ab+.............",
"....+L+++L+L+++$+L+++L++%&*=-;>,')!~{]^/(_:<[}|1234567890ab+......+%&*=-;>,')!~{]^/(_:<[}|1234567890ab+.............",
"....+M$$$M+MLLLM+M$$$M++%&*=-;>,')!~{]^/(_:<[}|1234567890ab+......+++++++++++++++++++++++++++++++++++++.............",
"....++++++++++++++++++++++++++++++++++++++++++++++++++++++++......+c+e+g+i+k+m+o+q+s+u+w+y+A+C+E+G+I+K+.............",
"....++++++++++++++++++++++++++++++++++++++++++++++++++++++++......+c+e+g+i+k+m+o+q+s+u+w+y+A+C+E+G+I+K+.............",
"....+MLLLM+M$$$M+MLLLM++%&*=-;>,')!~{]^/(_:<[}|1234567890ab+......+c+e+g+i+k+m+o+q+s+u+w+y+A+C+E+G+I+K+.............",
"....+L+++$+L+++L+L+++L++%&*=-;>,')!~{]^/(_:<[}|1234567890ab+......+c+e+g+i+k+m+o+q+s+u+w+y+A+C+E+G+I+K+.............",
"....+L+++$+L+++L+L+++L++%&*=-;>,')!~{]^/(_:<[}|1234567890ab+......+c+e+g+i+k+m+o+q+s+u+w+y+A+C+E+G+I+K+.............",
"....+MLLLM+M$$$M+MLLLM++%&*=-;>,')!~{]^/(_:<[}|1234567890ab+......+c+e+g+i+k+m+o+q+s+u+w+y+A+C+E+G+I+K+.............",
"....+$+++L+L+L+L+L+++$++%&*=-;>,')!~{]^/(_:<[}|1234567890ab+......+c+e+g+i+k+m+o+q+s+u+w+y+A+C+E+G+I+K+.............",
"....+$+++L+LL+LL+L+++$++%&*=-;>,')!~{]^/(_:<[}|1234567890ab+......+++++++++++++++++++++++++++++++++++++.............",
"....+MLLLM+L$$$L+M$$$+++%&*=-;>,')!~{]^/(_:<[}|1234567890ab+......+%+*+-+>+'+!+{+^+(+:+[+|+2+4+6+8+0+b+.............",
"....++++++++++++++++++++++++++++++++++++++++++++++++++++++++......+%+*+-+>+'+!+{+^+(+:+[+|+2+4+6+8+0+b+.............",
"....++++++++++++++++++++++++++++++++++++++++++++++++++++++++......+%+*+-+>+'+!+{+^+(+:+[+|+2+4+6+8+0+b+.............",
"....++$$$@+@###@+@###@++%&*=-;>,')!~{]^/(_:<[}|1234567890ab+......+%+*+-+>+'+!+{+^+(+:+[+|+2+4+6+8+0+b+.............",
"....+$+++#+#+++#+#+++#++%&*=-;>,')!~{]^/(_:<[}|1234567890ab+......+%+*+-+>+'+!+{+^+(+:+[+|+2+4+6+8+0+b+.............",
"....+$+++#+#+++#+#+++#++%&*=-;>,')!~{]^/(_:<[}|1234567890ab+......+%+*+-+>+'+!+{+^+(+:+[+|+2+4+6+8+0+b+.............",
"....++$$$@+@$$$@+@###@++%&*=-;>,')!~{]^/(_:<[}|1234567890ab+......+%+*+-+>+'+!+{+^+(+:+[+|+2+4+6+8+0+b+.............",
"....+$+++#+#+++#+#+L+$++%&*=-;>,')!~{]^/(_:<[}|1234567890ab+......+++++++++++++++++++++++++++++++++++++.............",
"....+$+++#+#+++#+#++L$++%&*=-;>,')!~{]^/(_:<[}|1234567890ab+......$+LL..............................................",
"....++$$$@+@###@+@$$$L++%&*=-;>,')!~{]^/(_:<[}|1234567890ab+......+$LL..............................................",
"....++++++++++++++++++++++++++++++++++++++++++++++++++++++++........................................................",
"....++++++++++++++++++++++++++++++++++++++++++++++++++++++++........................................................",
"....++$$$@+@###@+M$$$M++%&*=-;>,')!~{]^/(_:<[}|1234567890ab+........................................................",
"....+$+++#+#+++#+L+++L++%&*=-;>,')!~{]^/(_:<[}|1234567890ab+........................................................",
"....+$+++#+#+++#+L+++L++%&*=-;>,')!~{]^/(_:<[}|1234567890ab+........................................................",
"....++$$$@+@$$$@+M$$$M++%&*=-;>,')!~{]^/(_:<[}|1234567890ab+........................................................",
"....+$+++#+#+++#+L+L+L++%&*=-;>,')!~{]^/(_:<[}|1234567890ab+........................................................",
"....+$+++#+#+++#+LL+LL++%&*=-;>,')!~{]^/(_:<[}|1234567890ab+........................................................",
"....++$$$@+@###@+L$$$L++%&*=-;>,')!~{]^/(_:<[}|1234567890ab+........................................................",
"....++++++++++++++++++++++++++++++++++++++++++++++++++++++++........................................................",
"....++++++++++++++++++++++++++++++++++++++++++++++++++++++++........................................................",
"....++++++++++++++++++++++++++++++++++++++++++++++++++++++++........................................................",
"....++$$$+++$$$++++++$$$+++$$$+++++$$$+++$$$+++++$$$+++$$$++........................................................",
"....+$+++$+$+++$++++$+++$+$+++$+++$+++$+$+++$+++$+++$+$+++$+........................................................",
"....+$+++$+$+++$++++$+++$+$+++$+++$+++$+$+++$+++$+++$+$+++$+........................................................",
"....++$$$+++$$$++++++$$$+++$$$+++++$$$+++$$$+++++$$$+++$$$++........................................................",
"....+$+++$+$+++$++++$+++$+$+++$+++$+++$+$+++$+++$+++$+$+++$+........................................................",
"....+$+++$+$+++$++++$+++$+$+++$+++$+++$+$+++$+++$+++$+$+++$+........................................................",
"....++$$$+++$$$++++++$$$+++$$$++L++$$$+++$$$++L++$$$+++$$$++........................................................",
"....++++++++++++++++++++++++++++++++++++++++++++++++++++++++........................................................",
"....................................................................................................................",
"....................................................................................................................",
"....................................................................................................................",
"....................................................................................................................",
"....................................................................................................................",
"....................................................................................................................",
"....+++++++++++++++++++++++++++++++++++++++++++++++++++++++++++++...................................................",
"....++LLL+++$$$N+NLLLN+NLLLN+L$$$L+NLLLN+NLLLN+NLLLN+NLLLN+NLLLN+...................................................",
"....+L+++L+$+++L+$+++L+$+++L+L+++L+L+++$+L+++$+$+++L+L+++L+L+++L+...................................................",
"....+L+++L+$+++L+$+++L+$+++L+L+++L+L+++$+L+++$+$+++L+L+++L+L+++L+...................................................",
"....+N$$$N++$$$N+NLLLN++LLLN+NLLLN+LLLLN+NLLLN++$$$N+NLLLN+OLLLN+...................................................",
"....+L+++L+$+++L+L+++$+$+++L+$+++L+$+++L+L+++L+$+++L+L+++L+$+++L+...................................................",
"....+L+++L+$+++L+L+++$+$+++L+$+++L+$+++L+L+++L+$+++L+L+++L+$+++L+...................................................",
"....++LLL+++$$$L+NLLLN+NLLLN++$$$N+NLLLN+NLLLN++$$$L+NLLLN+NLLLN+...................................................",
"....+++++++++++++++++++++++++++++++++++++++++++++++++++++++++++++...................................................",
"....................................................................................................................",
"....+++++++++++++++++++++++++++++++++++++++++++++++++++++++++++++...................................................",
"....++LLL+++$$$N+NLLLN+NLLLN+L$$$L+NLLLN+NLLLN+NLLLN+NLLLN+P...P+...................................................",
"....+L+++L+$+++L+$+++L+$+++L+L+++L+L+++$+L+++$+$+++L+L+++L+.+++.+...................................................",
"....+L+++L+$+++L+$+++L+$+++L+L+++L+L+++$+L+++$+$+++L+L+++L+.+++.+...................................................",
"....+N$$$N++$$$N+NLLLN++LLLN+NLLLN+LLLLN+NLLLN++$$$N+NLLLN+P...P+...................................................",
"....+L+++L+$+++L+L+++$+$+++L+$+++L+$+++L+L+++L+$+++L+L+++L+++++.+...................................................",
"....+L+++L+$+++L+L+++$+$+++L+$+++L+$+++L+L+++L+$+++L+L+++L+++++.+...................................................",
"....++LLL+++$$$L+NLLLN+NLLLN++$$$N+NLLLN+NLLLN++$$$L+NLLLN+P...P+...................................................",
"....+++++++++++++++++++++++++++++++++++++++++++++++++++++++++++++...................................................",
"....................................................................................................................",
"....................................................................................................................",
"...................................................................................................................."};
