/* XPM */
static char *back_xpm[] = {
/* width height num_colors chars_per_pixel */
"    64    64       47            1",
/* colors */
". c #010103",
"# c #818183",
"a c #414143",
"b c #c1c1c3",
"c c #a1a1a3",
"d c #616163",
"e c #919193",
"f c #515153",
"g c #b1b1b3",
"h c #717173",
"i c #29292b",
"j c #fdfdfb",
"k c #cdcdcb",
"l c #353533",
"m c #89898b",
"n c #49494b",
"o c #a9a9ab",
"p c #69696b",
"q c #99999b",
"r c #59595b",
"s c #b9b9bb",
"t c #79797b",
"u c #bdbdbb",
"v c #c9c9cb",
"w c #3d3d3b",
"x c #313133",
"y c #7d7d7b",
"z c #d1d1d3",
"A c #39393b",
"B c #858583",
"C c #454543",
"D c #c5c5c3",
"E c #a5a5a3",
"F c #656563",
"G c #959593",
"H c #555553",
"I c #b5b5b3",
"J c #757573",
"K c #8d8d8b",
"L c #4d4d4b",
"M c #adadab",
"N c #6d6d6b",
"O c #9d9d9b",
"P c #5d5d5b",
"Q c #009f00",
"R c #00a600",
"S c #00b600",
/* pixels */
"qqqqqqqqqqqqqqqOOOOOOccccccEEEEEEEooooooMMMMMMggggggIIIIIIIIsssN",
"OOOOOOOOOOOOOOOqOOOccOOcccEcEEEEEoEEoooMoMMgggMgggIIgIIIssubbDGC",
"qqxxxxxxxxxxxlAAAwwwaaaCnnLLLffffHrHrPPddddFpppNNNNhhJJJttyyy#AC",
"qqxxxlllllllAAAAwwaaaCCnnnLLfffHHrHPPPdddFpppNNNhhJJhJtttyy#BBwC",
"OqllxlllllAAwwwaaaCCCnnnLLfffHrrrPrPdddFpFpppNNhhhhtJttyy##BBBaC",
"OOxll.....................................................iBBman",
"OOxll.QRSiiiiiiiiiiiiiiiiiiiiiiiiiiiiiiiiiiiiiiiiiiiiiiiiijmmman",
"Oqxll.QRSiiiiiiiiiiiiiiiiiiiiiiiiiiiiiiiiiiiiiiiiiiiiiiiiijmmKCC",
"OOxxl.QRSiiiiiiiiiiiiiiiiiiiiiiiiiiiiiiiiiiiiiiiiiiiiiiiiijKmKCn",
"OOxll.QRSiiiiiiiiiiiiiiiiiiiiiiiiiiiiiiiiiiiiiiiiiiiiiiiiijKKKnn",
"OOxxl.QRSiiiiiiiiiiiiiiiiiiiiiiiiiiiiiiiiiiiiiiiiiiiiiiiiijKeenn",
"OclAA.QRSiiiiiiiiiiiiiiiiiiiiiiiiiiiiiiiiiiiiiiiiiiiiiiiiijeeeCL",
"OOxAA.QRSiiiiiiiiiiiiiiiiiiiiiiiiiiiiiiiiiiiiiiiiiiiiiiiiijeeGnL",
"OOAAw.QRSiiiiiiiiiiiiiiiiiiiiiiiiiiiiiiiiiiiiiiiiiiiiiiiiijeGGnn",
"ccAAw.QRSiiiiiiiiiiiiiiiiiiiiiiiiiiiiiiiiiiiiiiiiiiiiiiiiijeGGnL",
"ccAww.QRSiiiiiiiiiiiiiiiiiiiiiiiiiiiiiiiiiiiiiiiiiiiiiiiiijqGqLL",
"ccAwa.QRSiiiiiiiiiiiiiiiiiiiiiiiiiiiiiiiiiiiiiiiiiiiiiiiiijGGGLL",
"EEwwa.QRSiiiiiiiiiiiiiiiiiiiiiiiiiiiiiiiiiiiiiiiiiiiiiiiiijqqOnL",
"Ecwaa.QRSiiiiiiiiiiiiiiiiiiiiiiiiiiiiiiiiiiiiiiiiiiiiiiiiijGOOLf",
"EEaaC.QRSiiiiiiiiiiiiiiiiiiiiiiiiiiiiiiiiiiiiiiiiiiiiiiiiijOqOLL",
"EEwaC.QRSiiiiiiiiiiiiiiiiiiiiiiiiiiiiiiiiiiiiiiiiiiiiiiiiijOOcff",
"ooaCC.QRSiiiiiiiiiiiiiiiiiiiiiiiiiiiiiiiiiiiiiiiiiiiiiiiiijOccLf",
"EoaCn.QRSiiiiiiiiiiiiiiiiiiiiiiiiiiiiiiiiiiiiiiiiiiiiiiiiijOcEff",
"ooCnn.QRSiiiiiiiiiiiiiiiiiiiiiiiiiiiiiiiiiiiiiiiiiiiiiiiiijEccff",
"ooCnL.QRSiiiiiiiiiiiiiiiiiiiiiiiiiiiiiiiiiiiiiiiiiiiiiiiiijcEEfH",
"oMnLL.QRSiiiiiiiiiiiiiiiiiiiiiiiiiiiiiiiiiiiiiiiiiiiiiiiiijEEEHf",
"MMnLL.QRSiiiiiiiiiiiiiiiiiiiiiiiiiiiiiiiiiiiiiiiiiiiiiiiiijEEEHH",
"MMLLH.QRSiiiiiiiiiiiiiiiiiiiiiiiiiiiiiiiiiiiiiiiiiiiiiiiiijEoMfH",
"MMLLf.QRSiiiiiiiiiiiiiiiiiiiiiiiiiiiiiiiiiiiiiiiiiiiiiiiiijooMHH",
"ggffH.QRSiiiiiiiiiiiiiiiiiiiiiiiiiiiiiiiiiiiiiiiiiiiiiiiiijMMMfH",
"MgffH.QRSiiiiiiiiiiiiiiiiiiiiiiiiiiiiiiiiiiiiiiiiiiiiiiiiijoMgHH",
"gMfHr.QRSiiiiiiiiiiiiiiiiiiiiiiiiiiiiiiiiiiiiiiiiiiiiiiiiijgMgrr",
"ggHHr.QRSiiiiiiiiiiiiiiiiiiiiiiiiiiiiiiiiiiiiiiiiiiiiiiiiijgggHr",
"ggHHr.QRSiiiiiiiiiiiiiiiiiiiiiiiiiiiiiiiiiiiiiiiiiiiiiiiiijgggrr",
"IgHrP.QRSiiiiiiiiiiiiiiiiiiiiiiiiiiiiiiiiiiiiiiiiiiiiiiiiijIIIHr",
"gIrrP.QRSiiiiiiiiiiiiiiiiiiiiiiiiiiiiiiiiiiiiiiiiiiiiiiiiijIIIrr",
"IIrPd.QRSiiiiiiiiiiiiiiiiiiiiiiiiiiiiiiiiiiiiiiiiiiiiiiiiijsIsrr",
"IIPPd.QRSiiiiiiiiiiiiiiiiiiiiiiiiiiiiiiiiiiiiiiiiiiiiiiiiijIssrP",
"IIPdd.QRSiiiiiiiiiiiiiiiiiiiiiiiiiiiiiiiiiiiiiiiiiiiiiiiiijusurP",
"ssddF.QRSiiiiiiiiiiiiiiiiiiiiiiiiiiiiiiiiiiiiiiiiiiiiiiiiijsuuPP",
"ssPdF.QRSiiiiiiiiiiiiiiiiiiiiiiiiiiiiiiiiiiiiiiiiiiiiiiiiijuuurP",
"ssFFp.QRSiiiiiiiiiiiiiiiiiiiiiiiiiiiiiiiiiiiiiiiiiiiiiiiiijuubPP",
"usFFp.QRSiiiiiiiiiiiiiiiiiiiiiiiiiiiiiiiiiiiiiiiiiiiiiiiiijbDDPd",
"suFpp.QRSiiiiiiiiiiiiiiiiiiiiiiiiiiiiiiiiiiiiiiiiiiiiiiiiijbDDdP",
"uuFpN.QRSiiiiiiiiiiiiiiiiiiiiiiiiiiiiiiiiiiiiiiiiiiiiiiiiijbDvdd",
"uupNN.QRSiiiiiiiiiiiiiiiiiiiiiiiiiiiiiiiiiiiiiiiiiiiiiiiiijvvvdd",
"bbppN.QRSiiiiiiiiiiiiiiiiiiiiiiiiiiiiiiiiiiiiiiiiiiiiiiiiijDvvdd",
"uuNhh.QRSiiiiiiiiiiiiiiiiiiiiiiiiiiiiiiiiiiiiiiiiiiiiiiiiijvkzFF",
"buNNh.QRSiiiiiiiiiiiiiiiiiiiiiiiiiiiiiiiiiiiiiiiiiiiiiiiiijkkkdd",
"bDNhh.QRSiiiiiiiiiiiiiiiiiiiiiiiiiiiiiiiiiiiiiiiiiiiiiiiiijkzzdF",
"bbhhJ.QRSiiiiiiiiiiiiiiiiiiiiiiiiiiiiiiiiiiiiiiiiiiiiiiiiijzkzdd",
"bbNJJ.QRSiiiiiiiiiiiiiiiiiiiiiiiiiiiiiiiiiiiiiiiiiiiiiiiiijkzkdF",
"DDhJJ.QRSiiiiiiiiiiiiiiiiiiiiiiiiiiiiiiiiiiiiiiiiiiiiiiiiijkzzdd",
"bDJJt.QRSiiiiiiiiiiiiiiiiiiiiiiiiiiiiiiiiiiiiiiiiiiiiiiiiijzkkdF",
"bDJJt.QRSiiiiiiiiiiiiiiiiiiiiiiiiiiiiiiiiiiiiiiiiiiiiiiiiijzzzdd",
"DDJtt.QRSiiiiiiiiiiiiiiiiiiiiiiiiiiiiiiiiiiiiiiiiiiiiiiiiijkkkdF",
"DDtyy.QRSiiiiiiiiiiiiiiiiiiiiiiiiiiiiiiiiiiiiiiiiiiiiiiiiijzzzdd",
"Dvty#.QRSiiiiiiiiiiiiiiiiiiiiiiiiiiiiiiiiiiiiiiiiiiiiiiiiijzkkdF",
"vvy##ijjjjjjjjjjjjjjjjjjjjjjjjjjjjjjjjjjjjjjjjjjjjjjjjjjjjjzzzdd",
"vvy#BBmmmmmKeeGGGGGGGqqOOccEoMMMgggMggIIIsubbbDDvkkkvvvvkkkkkkdF",
"vk#BBBmmKKeeGGGGGGOOOcEccEEEMMMMgIIIssuuuubDvvkkkzkzzzzzzzzzzzdd",
"kk##mmmKKKKeeGGGqOqOOccEEEoMoMMgggIIsssuuDDDDvvkzkzkkkkkkkkkkkdF",
"vGxxllllAAAAAAwAwawaaaaCCCCnnnnLLLfLfffHfHHrrPPPPPPPPddddddddddd",
"GxlxlllllAAAAwwwwwaaaCCCCCnCnnLnLLLLffffHHHrrrPrPPPddPPPPddddddF"
};
