/* XPM */
static char *mask_xpm[] = {
/* width height num_colors chars_per_pixel */
"    54    54        6            1",
/* colors */
". c #000000",
"# c #282828",
"a c #ffffff",
"b c #5a5a5a",
"c c #979797",
"d c #e6e6e6",
/* pixels */
".....................................................#",
".bcd#################################################a",
".bcd#################################################a",
".bcd#################################################a",
".bcd#################################################a",
".bcd#################################################a",
".bcd#################################################a",
".bcd#################################################a",
".bcd#################################################a",
".bcd#################################################a",
".bcd#################################################a",
".bcd#################################################a",
".bcd#################################################a",
".bcd#################################################a",
".bcd#################################################a",
".bcd#################################################a",
".bcd#################################################a",
".bcd#################################################a",
".bcd#################################################a",
".bcd#################################################a",
".bcd#################################################a",
".bcd#################################################a",
".bcd#################################################a",
".bcd#################################################a",
".bcd#################################################a",
".bcd#################################################a",
".bcd#################################################a",
".bcd#################################################a",
".bcd#################################################a",
".bcd#################################################a",
".bcd#################################################a",
".bcd#################################################a",
".bcd#################################################a",
".bcd#################################################a",
".bcd#################################################a",
".bcd#################################################a",
".bcd#################################################a",
".bcd#################################################a",
".bcd#################################################a",
".bcd#################################################a",
".bcd#################################################a",
".bcd#################################################a",
".bcd#################################################a",
".bcd#################################################a",
".bcd#################################################a",
".bcd#################################################a",
".bcd#################################################a",
".bcd#################################################a",
".bcd#################################################a",
".bcd#################################################a",
".bcd#################################################a",
".bcd#################################################a",
".bcd#################################################a",
"#aaaaaaaaaaaaaaaaaaaaaaaaaaaaaaaaaaaaaaaaaaaaaaaaaaaaa"
};
