/* XPM */
static char * wmfsm_master_xpm[] = {
"134 128 56 1",
" 	c None",
".	c #000000",
"+	c #158FBC",
"@	c #14101F",
"#	c #0A1744",
"$	c #0A1845",
"%	c #0B1A47",
"&	c #0B1B48",
"*	c #0C1C49",
"=	c #0C1D4B",
"-	c #0D1E4C",
";	c #0E204E",
">	c #0E214F",
",	c #0F2250",
"'	c #0F2352",
")	c #102453",
"!	c #102655",
"~	c #112756",
"{	c #112858",
"]	c #122959",
"^	c #132A5A",
"/	c #132C5C",
"(	c #142D5D",
"_	c #142E5F",
":	c #152F60",
"<	c #153062",
"[	c #163263",
"}	c #173465",
"|	c #19376A",
"1	c #1A3B6E",
"2	c #1C3F73",
"3	c #1E4377",
"4	c #20477C",
"5	c #224A81",
"6	c #234E85",
"7	c #25528A",
"8	c #27568E",
"9	c #295993",
"0	c #2A5D97",
"a	c #2C619C",
"b	c #2C67A0",
"c	c #2970A6",
"d	c #2778AB",
"e	c #2481B0",
"f	c #2189B5",
"g	c #1F92BA",
"h	c #1C9ABF",
"i	c #19A3C4",
"j	c #17ABC9",
"k	c #14B5CF",
"l	c #11BED5",
"m	c #0EC8DA",
"n	c #0BD1E0",
"o	c #08DAE6",
"p	c #05E4EB",
"q	c #02EDF1",
"......................................................................................................................................",
"......................................................................................................................................",
"......................................................................................................................................",
"......................................................................................................................................",
"...................................................................++..+++...+++.+++..++++.++++..++....+..............................",
"..................................................................+..+.+..+.+....+..+.+....+....+..+..++..............................",
"..................................................................++++.+++..+....+..+.+++..+++..+..+...+..............................",
"..................................................................+..+.+..+.+....+..+.+....+....+..+...+..............................",
"..................................................................+..+.+++...+++.+++..++++.+.....++...+++.............................",
"...................................................................+++.+..+..+++.++++.+..+.+.....++..+++..............................",
"..................................................................+....+..+...+.....+.+.+..+....+..+....+.............................",
"..................................................................+.++.++++...+.....+.++...+......+...++..............................",
"..................................................................+..+.+..+...+..+..+.+.+..+.....+......+.............................",
"...................................................................++..+..+..+++..++..+..+.++++.++++.+++..............................",
"...................................................................+++.+..+..++..+++...++..+++..+....++++.............................",
"..................................................................+.+.+++.+.+..+.+..+.+..+.+..+.+.+..+................................",
"..................................................................+.+.+++++.+..+.+++..+..+.+++..++++.+++..............................",
"..................................................................+...++.++.+..+.+....+.++.+.+....+.....+.............................",
"..................................................................+...++..+..++..+....@+++.+..+...+..+++..............................",
"...................................................................+++..+++.+..+.+..+.+...++..+..++...+++.............................",
"..................................................................+......+..+..+.+..+.+...++..+.+.......+.............................",
"...................................................................++....+..+..+..++..+.+.+.++..+++.....+.............................",
".....................................................................+...+..+..+..++..+.+.++..+.+..+....+.............................",
"..................................................................+++....+...++....+...+.+.+..+..++.....+.............................",
"..................................................................+..+.++++.....+................++...++..............................",
"..................................................................+..+....+....+................+..+.+..+.............................",
"...................................................................++....+....+.......++++.......++...+++.............................",
"....................................................................+...+....+..............++..+..+....+.............................",
"....................................................................+..++++.+....+++++......++...++...++..............................",
"..................................................................#$%&*=-;>,')!~{]^/(_:<[}|1234567890abcdefghijklmnopq................",
"..................................................................#$%&*=-;>,')!~{]^/(_:<[}|1234567890abcdefghijklmnopq................",
"..................................................................#$%&*=-;>,')!~{]^/(_:<[}|1234567890abcdefghijklmnopq................",
"..................................................................#$%&*=-;>,')!~{]^/(_:<[}|1234567890abcdefghijklmnopq................",
"..................................................................#$%&*=-;>,')!~{]^/(_:<[}|1234567890abcdefghijklmnopq................",
"......................................................................................................................................",
"......................................................................................................................................",
"......................................................................................................................................",
"......................................................................................................................................",
"......................................................................................................................................",
"......................................................................................................................................",
"......................................................................................................................................",
"......................................................................................................................................",
"......................................................................................................................................",
"......................................................................................................................................",
"......................................................................................................................................",
"......................................................................................................................................",
"......................................................................................................................................",
"......................................................................................................................................",
"......................................................................................................................................",
"......................................................................................................................................",
"......................................................................................................................................",
"......................................................................................................................................",
"......................................................................................................................................",
"......................................................................................................................................",
"......................................................................................................................................",
"......................................................................................................................................",
"......................................................................................................................................",
"......................................................................................................................................",
"......................................................................................................................................",
"......................................................................................................................................",
"......................................................................................................................................",
"......................................................................................................................................",
"......................................................................................................................................",
"......................................................................................................................................",
"......................................................................................................................................",
"......................................................................................................................................",
"......................................................................................................................................",
"......................................................................................................................................",
"......................................................................................................................................",
"......................................................................................................................................",
"......................................................................................................................................",
"......................................................................................................................................",
"......................................................................................................................................",
"......................................................................................................................................",
"......................................................................................................................................",
"......................................................................................................................................",
"......................................................................................................................................",
"......................................................................................................................................",
"......................................................................................................................................",
"......................................................................................................................................",
"......................................................................................................................................",
"......................................................................................................................................",
"......................................................................................................................................",
"......................................................................................................................................",
"......................................................................................................................................",
"......................................................................................................................................",
"......................................................................................................................................",
"......................................................................................................................................",
"......................................................................................................................................",
"......................................................................................................................................",
"......................................................................................................................................",
"......................................................................................................................................",
"......................................................................................................................................",
"......................................................................................................................................",
"......................................................................................................................................",
"......................................................................................................................................",
"......................................................................................................................................",
"......................................................................................................................................",
"......................................................................................................................................",
"......................................................................................................................................",
"......................................................................................................................................",
"......................................................................................................................................",
"......................................................................................................................................",
"......................................................................................................................................",
"......................................................................................................................................",
"......................................................................................................................................",
"......................................................................................................................................",
"......................................................................................................................................",
"......................................................................................................................................",
"......................................................................................................................................",
"......................................................................................................................................",
"......................................................................................................................................",
"......................................................................................................................................",
"......................................................................................................................................",
"......................................................................................................................................",
"......................................................................................................................................",
"......................................................................................................................................",
"......................................................................................................................................",
"......................................................................................................................................",
"......................................................................................................................................",
"......................................................................................................................................",
"......................................................................................................................................",
"......................................................................................................................................",
"......................................................................................................................................",
"......................................................................................................................................",
"......................................................................................................................................",
"......................................................................................................................................",
"......................................................................................................................................"};
