/* XPM */
static char * parts_xpm[] = {
"117 87 31 1",
" 	c None",
".	c #8E968A",
"+	c #020202",
"@	c #767C6F",
"#	c #FFFFFF",
"$	c #6EC63B s Back0",
"%	c #6CB237 s Back1",
"&	c #3E463E",
"*	c #B94B46",
"=	c #D41D1C",
"-	c #D29E1C",
";	c #D8C511",
">	c #498D5A",
",	c #1E873D",
"'	c #AB5F25",
")	c #D21F18",
"!	c #D0A116",
"~	c #3BA139",
"{	c #1C8A39",
"]	c #D81717",
"^	c #D8CE11",
"/	c #188739",
"(	c #000000",
"_	c #383838",
":	c #717171",
"<	c #1C1C1C",
"[	c #555555",
"}	c #8D8D8D",
"|	c #AAAAAA",
"1	c #E2E2E2",
"2	c #C6C6C6",
"..++++++....@@@@@@....++++++....++++++....@@@@@@....++++++....++++++....++++++....++++++....++++++..++++#############",
"+..++++..+@..@@@@..+@..++++..+@..++++..++..@@@@..++..++++..@+..++++..@@..++++..++..++++..++..++++..+..$$#############",
"++......++@@......++@@......++@@......++++......++++......@@++......@@@@......++++......++++......++++++#############",
"++......++@@......++@@......++@@......++++......++++......@@++......@@@@......++++......++++......++..$$#############",
"++......++@@......++@@......++@@......++++......++++......@@++......@@@@......++++......++++......++++++#############",
"++......++@@......++@@......++@@......++++......++++......@@++......@@@@......++++......++++......++..$$#############",
"++......++@@......++@@......++@@......++++......++++......@@++......@@@@......++++......++++......++++++#############",
"++......++@@......++@@......++@@......++++......++++......@@++......@@@@......++++......++++......++..$$#############",
"++......++@@......++@@......++@@......++++......++++......@@++......@@@@......++++......++++......++++++#############",
"+..@@@@..+@..@@@@..+@..++++..+@..++++..++..++++..++..++++..@+..++++..@@..@@@@..++..++++..++..++++..+..$$#############",
"..@@@@@@....@@@@@@....++++++....++++++....++++++....++++++....++++++....@@@@@@....++++++....++++++..++++#############",
"+........+@........++........@@........+@........+@........++........+@........++........+@........+..$$#############",
"++......++@@......++++......@@@@......++@@......++@@......++++......++@@......++++......++@@......++++++#############",
"++......++@@......++++......@@@@......++@@......++@@......++++......++@@......++++......++@@......++..$$#############",
"++......++@@......++++......@@@@......++@@......++@@......++++......++@@......++++......++@@......++++++#############",
"++......++@@......++++......@@@@......++@@......++@@......++++......++@@......++++......++@@......++..$$#############",
"++......++@@......++++......@@@@......++@@......++@@......++++......++@@......++++......++@@......++++++#############",
"++......++@@......++++......@@@@......++@@......++@@......++++......++@@......++++......++@@......++..$$#############",
"+..++++..+@..@@@@..++..++++..@@..++++..+@..@@@@..+@..++++..++..++++..+@..@@@@..++..++++..+@..++++..+++++#############",
"..++++++....@@@@@@....++++++....++++++....@@@@@@....++++++....++++++....@@@@@@....++++++....++++++....$$#############",
"$$++++++$$$$%%%%%%$$$$++++++$$$$++++++$$$$%%%%%%$$$$++++++$$$$++++++$$$$++++++$$$$++++++$$$$++++++$$++++#############",
"+$$++++$$+%$$%%%%$$+%$$++++$$+%$$++++$$++$$%%%%$$++$$++++$$%+$$++++$$%%$$++++$$++$$++++$$++$$++++$$+#################",
"++$$$$$$++%%$$$$$$++%%$$$$$$++%%$$$$$$++++$$$$$$++++$$$$$$%%++$$$$$$%%%%$$$$$$++++$$$$$$++++$$$$$$++#################",
"++$$$$$$++%%$$$$$$++%%$$$$$$++%%$$$$$$++++$$$$$$++++$$$$$$%%++$$$$$$%%%%$$$$$$++++$$$$$$++++$$$$$$++#################",
"++$$$$$$++%%$$$$$$++%%$$$$$$++%%$$$$$$++++$$$$$$++++$$$$$$%%++$$$$$$%%%%$$$$$$++++$$$$$$++++$$$$$$++#################",
"++$$$$$$++%%$$$$$$++%%$$$$$$++%%$$$$$$++++$$$$$$++++$$$$$$%%++$$$$$$%%%%$$$$$$++++$$$$$$++++$$$$$$++#################",
"++$$$$$$++%%$$$$$$++%%$$$$$$++%%$$$$$$++++$$$$$$++++$$$$$$%%++$$$$$$%%%%$$$$$$++++$$$$$$++++$$$$$$++#################",
"++$$$$$$++%%$$$$$$++%%$$$$$$++%%$$$$$$++++$$$$$$++++$$$$$$%%++$$$$$$%%%%$$$$$$++++$$$$$$++++$$$$$$++#################",
"++$$$$$$++%%$$$$$$++%%$$$$$$++%%$$$$$$++++$$$$$$++++$$$$$$%%++$$$$$$%%%%$$$$$$++++$$$$$$++++$$$$$$++#################",
"+$$%%%%$$+%$$%%%%$$+%$$++++$$+%$$++++$$++$$++++$$++$$++++$$%+$$++++$$%%$$%%%%$$++$$++++$$++$$++++$$+#################",
"$$%%%%%%$$$$%%%%%%$$$$++++++$$$$++++++$$$$++++++$$$$++++++$$$$++++++$$$$%%%%%%$$$$++++++$$$$++++++$$#################",
"+$$$$$$$$+%$$$$$$$$++$$$$$$$$%%$$$$$$$$+%$$$$$$$$+%$$$$$$$$++$$$$$$$$+%$$$$$$$$++$$$$$$$$+%$$$$$$$$+.+++#############",
"++$$$$$$++%%$$$$$$++++$$$$$$%%%%$$$$$$++%%$$$$$$++%%$$$$$$++++$$$$$$++%%$$$$$$++++$$$$$$++%%$$$$$$+++...#############",
"++$$$$$$++%%$$$$$$++++$$$$$$%%%%$$$$$$++%%$$$$$$++%%$$$$$$++++$$$$$$++%%$$$$$$++++$$$$$$++%%$$$$$$+++...#############",
"++$$$$$$++%%$$$$$$++++$$$$$$%%%%$$$$$$++%%$$$$$$++%%$$$$$$++++$$$$$$++%%$$$$$$++++$$$$$$++%%$$$$$$+++...#############",
"++$$$$$$++%%$$$$$$++++$$$$$$%%%%$$$$$$++%%$$$$$$++%%$$$$$$++++$$$$$$++%%$$$$$$++++$$$$$$++%%$$$$$$++&@@@#############",
"++$$$$$$++%%$$$$$$++++$$$$$$%%%%$$$$$$++%%$$$$$$++%%$$$$$$++++$$$$$$++%%$$$$$$++++$$$$$$++%%$$$$$$+++...#############",
"++$$$$$$++%%$$$$$$++++$$$$$$%%%%$$$$$$++%%$$$$$$++%%$$$$$$++++$$$$$$++%%$$$$$$++++$$$$$$++%%$$$$$$+++...#############",
"+$$++++$$+%$$%%%%$$++$$++++$$%%$$++++$$+%$$%%%%$$+%$$++++$$++$$++++$$+%$$%%%%$$++$$++++$$+%$$++++$$++...#############",
"$$++++++$$$$%%%%%%$$$$++++++$$$$++++++$$$$%%%%%%$$$$++++++$$$$++++++$$$$%%%%%%$$$$++++++$$$$++++++$$.+++#############",
".+++..@@@&.+++..+++.&@@@&&+++..+++..+++&.+++..+++.$+++$$%%%&$+++$$+++$&%%%&&+++$$+++$$+++&$+++$$+++$$+++#############",
"+...+@...+@...+@...++...++...@+...@@...++...++...++$$$+%$$$+%$$$+%$$$++$$$++$$$%+$$$%%$$$++$$$++$$$++$$$#############",
"+...+@...+@...+@...++...++...@+...@@...++...++...++$$$+%$$$+%$$$+%$$$++$$$++$$$%+$$$%%$$$++$$$++$$$++$$$#############",
"+...+@...+@...+@...++...++...@+...@@...++...++...++$$$+%$$$+%$$$+%$$$++$$$++$$$%+$$$%%$$$++$$$++$$$++$$$#############",
"&@@@&.@@@&.+++..+++&&+++&&+++..+++..@@@&.+++..+++&&%%%&$%%%&$+++$$+++&&+++&&+++$$+++$$%%%&$+++$$+++&&%%%#############",
"+...+@...++...@@...+@...+@...++...+@...++...+@...++$$$+%$$$++$$$%%$$$+%$$$+%$$$++$$$+%$$$++$$$+%$$$++$$$#############",
"+...+@...++...@@...+@...+@...++...+@...++...+@...++$$$+%$$$++$$$%%$$$+%$$$+%$$$++$$$+%$$$++$$$+%$$$++$$$#############",
"+...+@...++...@@...+@...+@...++...+@...++...+@...++$$$+%$$$++$$$%%$$$+%$$$+%$$$++$$$+%$$$++$$$+%$$$++$$$#############",
".+++..@@@&.+++&.+++..@@@&&+++..+++..@@@&.+++..+++.$+++$$%%%&$+++&$+++$$%%%&&+++$$+++$$%%%&$+++$$+++$$+++#############",
"..................................................$$$$$$$$$$$$$$$$$$$$$$$$$$$$$$$$$$$$$$$$$$$$$$$$$$$$$$#############",
"..*==*..-;;-..>,,>................................$$'))'$$!;;!$$~{{~$$$$$$$$$$$$$$$$$$$$$$$$$$$$$$$$$$$$#############",
".*]]]]*-^^^^->////>...............................$']]]]'!^^^^!~////~$$$$$$$$$$$$$$$$$$$$$$$$$$$$$$$$$$$#############",
".=]]]]=;^^^^;,////,...............................$)]]]]);^^^^;{////{$$$$$$$$$$$$$$$$$$$$$$$$$$$$$$$$$$$#############",
".=]]]]=;^^^^;,////,...............................$)]]]]);^^^^;{////{$$$$$$$$$$$$$$$$$$$$$$$$$$$$$$$$$$$#############",
".*]]]]*-^^^^->////>...............................$']]]]'!^^^^!~////~$$$$$$$$$$$$$$$$$$$$$$$$$$$$$$$$$$$#############",
"..*==*..-;;-..>,,>................................$$'))'$$!;;!$$~{{~$$$$$$$$$$$$$$$$$$$$$$$$$$$$$$$$$$$$#############",
"..................................................$$$$$$$$$$$$$$$$$$$$$$$$$$$$$$$$$$$$$$$$$$$$$$$$$$$$$$#############",
"..................................................$$$$$$$$$$$$$$$$$$$$$$$$$$$$$$$$$$$$$$$$$$$$$$$$$$$$$$#############",
"(((((((((((((((((((((((((((((((((((((((((((((((((####################################################################",
"(((((((((((((((((((((((((((((((((((((((((((((((((####################################################################",
"(((((((((((((((((((((((((((((((((((((((((((((((((####################################################################",
"((((_::<(((((((([}:((((((((((:[|<((((((((::|_((((####################################################################",
"(((_#_}1((((((((<#|(((((((((}2(|1(((((((:2(|1((((####################################################################",
"(((}#([#[((((((((#|(((((((((<_(2#((((((((_(|1((((####################################################################",
"(((|#([#[((((((((#|((((((((((([#[((((((((_[2[((((####################################################################",
"(((|#([#[((((((((#|(((((((((([|<(((((((((((:#_(((####################################################################",
"((([#<:#(((((((((#|((((((((([1[[:[((((((}}([#[(((####################################################################",
"((((}||[(((((((([#2_((((((((|####((((((([1:2}((((####################################################################",
"(((((((((((((((((((((((((((((((((((((((((((((((((####################################################################",
"(((((((((((((((((((((((((((((((((((((((((((((((((####################################################################",
"(((((((((((((((((((((((((((((((((((((((((((((((((####################################################################",
"(((((((((((((((((((((((((((((((((((((((((((((((((####################################################################",
"(((((((((((((((((((((((((((((((((((((((((((((((((####################################################################",
"(((((_|_(((((((||||(((((((((_}}_(((((((([||||<(((####################################################################",
"(((((1#[(((((((1||}((((((((<#[_1((((((((}|||1((((####################################################################",
"((((::#[(((((((}(((((((((((}#<[<((((((((<((:[((((####################################################################",
"(((<}[#[((((((<:[1}((((((((|#[21<(((((((((<}(((((####################################################################",
"(((2:}#}<(((((((([#[(((((((|#([#[(((((((((1_(((((####################################################################",
"((([[}#}<((((([2([#_(((((((:#([#_((((((((:#((((((####################################################################",
"((((<}#}((((((<2:2}(((((((((||2}(((((((((}1((((((####################################################################",
"(((((((((((((((((((((((((((((((((((((((((((((((((####################################################################",
"(((((((((((((((((((((((((((((((((((((((((((((((((####################################################################",
"(((((((((((((((((((((((((((((((((((((((((((((((((####################################################################",
"#####################################################################################################################",
"#####################################################################################################################",
"#####################################################################################################################",
"#####################################################################################################################"};
