/* XPM */
static char * backdrop_xpm[] = {
"64 64 59 1",
" 	c None",
".	c #F3F3F3",
"+	c #000000",
"@	c #E0E0E0",
"#	c #516161",
"$	c #A2A2B2",
"%	c #A2A2A2",
"&	c #A292B2",
"*	c #92A2A2",
"=	c #A292A2",
"-	c #9292A2",
";	c #929292",
">	c #9282A2",
",	c #829292",
"'	c #928292",
")	c #828292",
"!	c #828282",
"~	c #827192",
"{	c #615161",
"]	c #92A2B2",
"^	c #9292B2",
"/	c #8292A2",
"(	c #8282A2",
"_	c #718292",
":	c #718282",
"<	c #C7C7C7",
"[	c #003F18",
"}	c #C7C3C7",
"|	c #717182",
"1	c #514151",
"2	c #415151",
"3	c #717171",
"4	c #414151",
"5	c #617182",
"6	c #415141",
"7	c #716182",
"8	c #414141",
"9	c #617171",
"0	c #413041",
"a	c #304141",
"b	c #716171",
"c	c #616171",
"d	c #616182",
"e	c #303030",
"f	c #616161",
"g	c #303041",
"h	c #516171",
"i	c #304130",
"j	c #615171",
"k	c #203030",
"l	c #302030",
"m	c #515171",
"n	c #515161",
"o	c #827182",
"p	c #202030",
"q	c #717192",
"r	c #202020",
"s	c #515151",
"t	c #413051",
"...............................................................+",
".@@@@@@@@@@@@@@@@@@@@@@@@@@@@@@@@@@@@@@@@@@@@@@@@@@@@@@@@@@@@@#+",
".@$%$%&%&%&%&*=-&*=-=-=---=--;>;>;>;>,>,>,')',')')'))!)))!~!~!{+",
".@$$*$]$*$*$*&*&*^*-*-*-*-*-/---,-,-,>,>,(,>,(,),),)))))_)_):)#+",
".+++++++++++++++++++++++++++++++++++++++++++++++++++++++++++++++",
".+++++++++++++++++++++++++++++++++++++++++++++++++++++++++++++<+",
".+[[[[[+[[[[[+[[[[[+[[[[[+[[[[[+[[[[[+[[[[[+[[[[[+[[[[[+[[[[[+<+",
".+[[[[[+[[[[[+[[[[[+[[[[[+[[[[[+[[[[[+[[[[[+[[[[[+[[[[[+[[[[[+<+",
".+[[[[[+[[[[[+[[[[[+[[[[[+[[[[[+[[[[[+[[[[[+[[[[[+[[[[[+[[[[[+<+",
".+[[[[[+[[[[[+[[[[[+[[[[[+[[[[[+[[[[[+[[[[[+[[[[[+[[[[[+[[[[[+<+",
".+[[[[[+[[[[[+[[[[[+[[[[[+[[[[[+[[[[[+[[[[[+[[[[[+[[[[[+[[[[[+<+",
".+[[[[[+[[[[[+[[[[[+[[[[[+[[[[[+[[[[[+[[[[[+[[[[[+[[[[[+[[[[[+<+",
".+[[[[[+[[[[[+[[[[[+[[[[[+[[[[[+[[[[[+[[[[[+[[[[[+[[[[[+[[[[[+<+",
".+++++++++++++++++++++++++++++++++++++++++++++++++++++++++++++<+",
".++[[[+++[[[+++[[[+++[[[+++[[[+++[[[+++[[[+++[[[+++[[[+++[[[++<+",
".+[[[[[+[[[[[+[[[[[+[[[[[+[[[[[+[[[[[+[[[[[+[[[[[+[[[[[+[[[[[+<+",
".+++++++++++++++++++++++++++++++++++++++++++++++++++++++++++++<+",
".<<<<<<<<<<<<<<<<<<<<<<<<<<<<<<<<<<<<<<<<<<<<<<<<<<<<<<<<<<<<<<+",
".@=<+++++++++++++++++++++++++++++++++++++++++++++++++++++++}||1+",
".@*<+++++++++++++++++++++++++++++++++++++++++++++++++++++++}||2+",
".@=<+++++++++++++++++++++++++++++++++++++++++++++++++++++++}|31+",
".@-<+++++++++++++++++++++++++++++++++++++++++++++++++++++++}||4+",
".@=<+++++++++++++++++++++++++++++++++++++++++++++++++++++++}|31+",
".@*<+++++++++++++++++++++++++++++++++++++++++++++++++++++++}5|6+",
".@-<+++++++++++++++++++++++++++++++++++++++++++++++++++++++}734+",
".@-<+++++++++++++++++++++++++++++++++++++++++++++++++++++++}5|8+",
".@><+++++++++++++++++++++++++++++++++++++++++++++++++++++++}790+",
".@-<+++++++++++++++++++++++++++++++++++++++++++++++++++++++}978+",
".@-<+++++++++++++++++++++++++++++++++++++++++++++++++++++++}738+",
".@,<+++++++++++++++++++++++++++++++++++++++++++++++++++++++}97a+",
".@><+++++++++++++++++++++++++++++++++++++++++++++++++++++++}790+",
".@,<+++++++++++++++++++++++++++++++++++++++++++++++++++++++}97a+",
".@><+++++++++++++++++++++++++++++++++++++++++++++++++++++++}b90+",
".@,<+++++++++++++++++++++++++++++++++++++++++++++++++++++++}97a+",
".@'<+++++++++++++++++++++++++++++++++++++++++++++++++++++++}7c0+",
".@,<+++++++++++++++++++++++++++++++++++++++++++++++++++++++}9da+",
".@><+++++++++++++++++++++++++++++++++++++++++++++++++++++++}bc0+",
".@,<+++++++++++++++++++++++++++++++++++++++++++++++++++++++}9ca+",
".@'<+++++++++++++++++++++++++++++++++++++++++++++++++++++++}cc0+",
".@,<+++++++++++++++++++++++++++++++++++++++++++++++++++++++}9ca+",
".@'<+++++++++++++++++++++++++++++++++++++++++++++++++++++++}bc0+",
".@,<+++++++++++++++++++++++++++++++++++++++++++++++++++++++}cce+",
".@'<+++++++++++++++++++++++++++++++++++++++++++++++++++++++}cfg+",
".@,<+++++++++++++++++++++++++++++++++++++++++++++++++++++++}hci+",
".@'<+++++++++++++++++++++++++++++++++++++++++++++++++++++++}jfg+",
".@)<+++++++++++++++++++++++++++++++++++++++++++++++++++++++}cck+",
".@)<+++++++++++++++++++++++++++++++++++++++++++++++++++++++}jfl+",
".@)<+++++++++++++++++++++++++++++++++++++++++++++++++++++++}#ck+",
".@)<+++++++++++++++++++++++++++++++++++++++++++++++++++++++}jfe+",
".@)<+++++++++++++++++++++++++++++++++++++++++++++++++++++++}hck+",
".@~<+++++++++++++++++++++++++++++++++++++++++++++++++++++++}j#l+",
".@_<+++++++++++++++++++++++++++++++++++++++++++++++++++++++}#jk+",
".@)<+++++++++++++++++++++++++++++++++++++++++++++++++++++++}jfl+",
".@:<+++++++++++++++++++++++++++++++++++++++++++++++++++++++}#jk+",
".@~<+++++++++++++++++++++++++++++++++++++++++++++++++++++++}j#l+",
".@:<+++++++++++++++++++++++++++++++++++++++++++++++++++++++}#mk+",
".@~<+++++++++++++++++++++++++++++++++++++++++++++++++++++++}{nl+",
".@:<+++++++++++++++++++++++++++++++++++++++++++++++++++++++}#jk+",
".@~<+++++++++++++++++++++++++++++++++++++++++++++++++++++++}{nl+",
".@:<<<<<<<<<<<<<<<<<<<<<<<<<<<<<<<<<<<<<<<<<<<<<<<<<<<<<<<<}#mk+",
".@~:o|o|o|o|o||373|373797379b9b9bcbcbccfcccfjfjfjfj#j#j#{n{n{np+",
".@:q:~:q:|||||||||9|5|979797979d9ccc9ccccchchc#jhj#j#j#m#mnm#nr+",
".@{snsnsns1s12121614181848t848080a0a0i0egegegelelelelklplrlrprp+",
".+++++++++++++++++++++++++++++++++++++++++++++++++++++++++++++++"};
