/* XPM */
static char * charmap_colors_xpm[] = {
"61 64 12 1",
" 	c None",
".	c #000000",
"+	c #003F18",
"@	c #00FF00",
"#	c #481814",
"$	c #FF0000",
"%	c #000064",
"&	c #0048FC",
"*	c #474700",
"=	c #FFFF00",
"-	c #38184C",
";	c #BA55D3",
".............................................................",
".+@@@+.++@++.+@@@+.@@@@@.+++@+.@@@@@.++@@+.@@@@@.+@@@+.+@@@+.",
".@+++@.+@@++.@+++@.+++@+.++@@+.@++++.+@+++.++++@.@+++@.@+++@.",
".@+++@.++@++.++++@.++@++.+@+@+.@@@@+.@++++.+++@+.@+++@.@+++@.",
".@+++@.++@++.+++@+.+++@+.@++@+.++++@.@@@@+.++@++.+@@@+.+@@@@.",
".@+++@.++@++.++@++.++++@.@@@@@.++++@.@+++@.+@+++.@+++@.++++@.",
".@+++@.++@++.+@+++.@+++@.+++@+.@+++@.@+++@.+@+++.@+++@.+++@+.",
".+@@@+.+@@@+.@@@@@.+@@@+.+++@+.+@@@+.+@@@+.+@+++.+@@@+.+@@++.",
".............................................................",
".............................................................",
".+++++.+++++.+@@@+.@@@@+.+@@@+.@@@@+.@@@@@.@@@@@.+@@@+.@+++@.",
".+++++.+++++.@+++@.@+++@.@+++@.@+++@.@++++.@++++.@+++@.@+++@.",
".+++++.+++++.@+++@.@+++@.@++++.@+++@.@++++.@++++.@++++.@+++@.",
".+++++.+++++.@@@@@.@@@@+.@++++.@+++@.@@@@+.@@@@+.@+@@@.@@@@@.",
".+++++.+++++.@+++@.@+++@.@++++.@+++@.@++++.@++++.@+++@.@+++@.",
".+++++.++@@+.@+++@.@+++@.@+++@.@+++@.@++++.@++++.@+++@.@+++@.",
".+++++.++@@+.@+++@.@@@@+.+@@@+.@@@@+.@@@@@.@++++.+@@@@.@+++@.",
".............................................................",
".............................................................",
".+@@@+.++@@@.@+++@.@++++.@+++@.@+++@.++@++.@@@@+.+@@@+.@@@@+.",
".++@++.+++@+.@++@+.@++++.@@+@@.@+++@.+@+@+.@+++@.@+++@.@+++@.",
".++@++.+++@+.@+@++.@++++.@+@+@.@@++@.@+++@.@+++@.@+++@.@+++@.",
".++@++.+++@+.@@+++.@++++.@+@+@.@+@+@.@+++@.@@@@+.@+++@.@@@@+.",
".++@++.+++@+.@+@++.@++++.@+++@.@++@@.@+++@.@++++.@+@+@.@+@++.",
".++@++.@++@+.@++@+.@++++.@+++@.@+++@.+@+@+.@++++.@++@+.@++@+.",
".+@@@+.+@@++.@+++@.@@@@@.@+++@.@+++@.++@++.@++++.+@@+@.@+++@.",
".............................................................",
".............................................................",
".+@@@@.@@@@@.@+++@.@+++@.@+++@.@+++@.@+++@.@@@@@.+++++.+++++.",
".@++++.++@++.@+++@.@+++@.@+++@.@+++@.@+++@.++++@.+++++.++@++.",
".@++++.++@++.@+++@.@+++@.@+++@.+@+@+.@+++@.+++@+.+++++.++@++.",
".+@@@+.++@++.@+++@.@+++@.@+@+@.++@++.+@+@+.++@++.@@@@@.@@@@@.",
".++++@.++@++.@+++@.@+++@.@+@+@.+@+@+.++@++.+@+++.+++++.++@++.",
".++++@.++@++.@+++@.+@+@+.@+@+@.@+++@.++@++.@++++.+++++.++@++.",
".@@@@+.++@++.+@@@+.++@++.+@+@+.@+++@.++@++.@@@@@.+++++.+++++.",
".............................................................",
".............................................................",
".+++++.+++++.+++@+.+++++.+++++.++@@+.+++++.+++++.+++++.+++++.",
".+++++.++@++.+++++.+++++.+++++.+@++@.+++++.+++++.+++++.+++++.",
".+@@@@.+++++.++@@+.@+@@+.+@@@+.+@+++.+++++.+++++.+++++.+++++.",
".+@+++.+@@++.+++@+.@@++@.++++@.@@@++.+++++.+++++.+++++.+++++.",
".+@@@+.++@++.+++@+.@+++@.+@@@@.+@+++.+++++.+++++.+++++.+++++.",
".+@+++.++@++.@++@+.@+++@.@+++@.+@+++.+++++.+++++.+++++.+++++.",
".+@@@@.+@@@+.+@@++.@+++@.+@@@@.+@+++.+++++.+++++.+++++.+++++.",
".............................................................",
".............................................................",
".+++++.+++++.+++++.+++++.+++++.+++++.+++++.+++++.+++++.+++++.",
".+++++.+++++.+++++.+++++.+++++.+++++.+++++.+++++.+++++.+++++.",
".+++++.+++++.+++++.+++++.+++++.+++++.+++++.+++++.+++++.+++++.",
".+++++.+++++.+++++.+++++.+++++.+++++.+++++.+++++.+++++.+++++.",
".+++++.+++++.+++++.+++++.+++++.+++++.+++++.+++++.+++++.+++++.",
".+++++.+++++.+++++.+++++.+++++.+++++.+++++.+++++.+++++.+++++.",
".+++++.+++++.+++++.+++++.+++++.+++++.+++++.+++++.+++++.+++++.",
".............................................................",
".............................................................",
".#$$$#.%&&&%.*===*.+@@@+.-;;;-.+++++.+++++.+++++.+++++.......",
".$###$.&%%%&.=***=.@+++@.;---;.+++++.+++++.+++++.+++++..@@@..",
".$###$.&%%%&.=***=.@+++@.;---;.+++++.+++++.+++++.+++++.@@@@@.",
".#$$$#.%&&&%.*===*.+@@@+.-;;;-.+++++.+++++.+++++.+++++.......",
".$###$.&%%%&.=***=.@+++@.;---;.+++++.+++++.+++++.+++++..+++..",
".$###$.&%%%&.=***=.@+++@.;---;.+++++.+++++.+++++.+++++.+++++.",
".#$$$#.%&&&%.*===*.+@@@+.-;;;-.+++++.+++++.+++++.+++++.......",
".............................................................",
".$$$$$.&&&&&.=====.@@@@@.;;;;;.#####.%%%%%.*****.+++++.------"};
