/* XPM */
static char * main_xpm[] = {
"64 64 6 1",
" 	c None",
".	c #000000",
"+	c #C7C7C7",
"@	c #003F18",
"#	c #FFFFFF",
"$	c #D5D6D5",
"                                                                ",
"                                                                ",
"                                                                ",
"                                                                ",
"  ..............................................................",
"  .............................................................+",
"  .@@@@@.@@@@@.@@@@@.@@@@@.@@@@@.@@@@@.@@@@@.@@@@@.@@@@@.@@@@@.+",
"  .@@@@@.@@@@@.@@@@@.@@@@@.@@@@@.@@@@@.@@@@@.@@@@@.@@@@@.@@@@@.+",
"  .@@@@@.@@@@@.@@@@@.@@@@@.@@@@@.@@@@@.@@@@@.@@@@@.@@@@@.@@@@@.+",
"  .@@@@@.@@@@@.@@@@@.@@@@@.@@@@@.@@@@@.@@@@@.@@@@@.@@@@@.@@@@@.+",
"  .@@@@@.@@@@@.@@@@@.@@@@@.@@@@@.@@@@@.@@@@@.@@@@@.@@@@@.@@@@@.+",
"  .@@@@@.@@@@@.@@@@@.@@@@@.@@@@@.@@@@@.@@@@@.@@@@@.@@@@@.@@@@@.+",
"  .@@@@@.@@@@@.@@@@@.@@@@@.@@@@@.@@@@@.@@@@@.@@@@@.@@@@@.@@@@@.+",
"  .............................................................+",
"  ..@@@...@@@...@@@...@@@...@@@...@@@...@@@...@@@...@@@...@@@..+",
"  .@@@@@.@@@@@.@@@@@.@@@@@.@@@@@.@@@@@.@@@@@.@@@@@.@@@@@.@@@@@.+",
"  .............................................................+",
"  ++++++++++++++++++++++++++++++++++++++++++++++++++++++++++++++",
"    .###########$#########$#########$#########$##########$.+    ",
"    .#$$$$$$$$$$.#$$$$$$$$.#$$$$$$$$.#$$$$$$$$.$$$$$$.$$$..+    ",
"    .#$$$$....$$.#$.....$$.#$$...$$$.#$$...$$$.$$$$$$.$$$..+    ",
"    .#$$$$.$$$$$.#$$$$$.$$.#$.$$$.$$.#$.$$$.$$.$$$$$.$$$$..+    ",
"    .#$$$$.$$$$$.#$$$$.$$$.#$$...$$$.#$.$$$.$$.$$$$.$$$$$..+    ",
"    .#$$.$.$$$$$.#$$$.$$$$.#$.$$$.$$.#$$....$$.$$$.$$$$$$..+    ",
"    .#$$$..$$$$$.#$$$.$$$$.#$.$$$.$$.#$$$$$.$$.$$.$$$$$$$..+    ",
"    .#$$$$.$$$$$.#$$$.$$$$.#$$...$$$.#$$...$$$.$$.$$$$$$$..+    ",
"    .#$$$$$$$$$$.#$$$$$$$$.#$$$$$$$$.#$$$$$$$$.$$$$$$$$$$..+    ",
"    .$...........$.........$.........$.....................+    ",
"    .###########$#########$#########$#########$##########$.+    ",
"    .#$$$$$$$$$$.#$$$$$$$$.#$$$$$$$$.#$$$$$$$$.$$$$$$$$$$..+    ",
"    .#$$$$$$.$$$.#$$$$.$$$.#$.....$$.#$$...$$$.$$.$$$.$$$..+    ",
"    .#$$$$$$$.$$.#$.$$.$$$.#$.$$$$$$.#$.$$$$$$.$$$.$.$$$$..+    ",
"    .#$$$$$$.$$$.#$.$$.$$$.#$....$$$.#$....$$$.$$$$.$$$$$..+    ",
"    .#$$.$.$..$$.#$.....$$.#$$$$$.$$.#$.$$$.$$.$$$.$.$$$$..+    ",
"    .#$$$.$$$$$$.#$$$$.$$$.#$.$$$.$$.#$.$$$.$$.$$.$$$.$$$..+    ",
"    .#$$.$.$$$$$.#$$$$.$$$.#$$...$$$.#$$...$$$.$$$$$$$$$$..+    ",
"    .#$$$$$$$$$$.#$$$$$$$$.#$$$$$$$$.#$$$$$$$$.$$$$$$$$$$..+    ",
"    .$...........$.........$.........$.....................+    ",
"    .###########$#########$#########$#########$##########$.+    ",
"    .#$$$$$$$$$$.#$$$$$$$$.#$$$$$$$$.#$$$$$$$$.$$$$$$$$$$..+    ",
"    .#$$$$$$$$$$.#$$$$.$$$.#$$...$$$.#$....$$$.$$$$$$$$$$..+    ",
"    .#$$....$$$$.#$$$..$$$.#$.$$$.$$.#$$$$$.$$.$$$$$$$$$$..+    ",
"    .#$$.$$$$$$$.#$$$$.$$$.#$$$$$.$$.#$$...$$$.$$.....$$$..+    ",
"    .#$$...$$$$$.#$$$$.$$$.#$$...$$$.#$$$$$.$$.$$$$$$$$$$..+    ",
"    .#$$.$$$$$$$.#$$$$.$$$.#$.$$$$$$.#$.$$$.$$.$$$$$$$$$$..+    ",
"    .#$$....$$$$.#$$$...$$.#$.....$$.#$$...$$$.$$$$$$$$$$..+    ",
"    .#$$$$$$$$$$.#$$$$$$$$.#$$$$$$$$.#$$$$$$$$.$$$$$$$$$$..+    ",
"    .$...........$.........$.........$.....................+    ",
"    .###########$#########$#########$#########$##########$.+    ",
"    .#$$$$$$$$$$.#$$$$$$$$.#$$$$$$$$.#$$$$$$$$.$$$$$$$$$$..+    ",
"    .#$$$.$$$.$$.#$$...$$$.#$$$$$$$$.#$$$$$$$$.$$$$.$$$$$..+    ",
"    .#$$...$.$$$.#$.$$$.$$.#$$$$$$$$.#$$....$$.$$$$.$$$$$..+    ",
"    .#$$$.$.$$$$.#$.$$$.$$.#$$$$$$$$.#$$$$$$$$.$$.....$$$..+    ",
"    .#$$$$.$$$$$.#$.$$$.$$.#$$$$$$$$.#$$....$$.$$$$.$$$$$..+    ",
"    .#$$$.$$$$$$.#$.$$$.$$.#$$$..$$$.#$$$$$$$$.$$$$.$$$$$..+    ",
"    .#$$.$$...$$.#$$...$$$.#$$$..$$$.#$$$$$$$$.$$$$$$$$$$..+    ",
"    .#$$$$$$$$$$.#$$$$$$$$.#$$$$$$$$.#$$$$$$$$.$$$$$$$$$$..+    ",
"    .$...........$.........$.........$.....................+    ",
"    .......................................................+    ",
"    ++++++++++++++++++++++++++++++++++++++++++++++++++++++++    ",
"                                                                ",
"                                                                ",
"                                                                ",
"                                                                "};
