/* XPM */
static char * ico_30x30_gray_xpm[] = {
"30 30 364 2",
"  	c None",
". 	c #7F7F7F",
"+ 	c #575757",
"@ 	c #5C5C5D",
"# 	c #707072",
"$ 	c #5F5F5F",
"% 	c #4C4C4C",
"& 	c #7A7A7A",
"* 	c #484848",
"= 	c #9F9FA5",
"- 	c #D2D2F2",
"; 	c #B3B3CE",
"> 	c #BEBED9",
", 	c #CACAD3",
"' 	c #4B4B4B",
") 	c #797979",
"! 	c #767676",
"~ 	c #515151",
"{ 	c #E7E7FF",
"] 	c #302E35",
"^ 	c #422D1B",
"/ 	c #140F0C",
"( 	c #A5A5C1",
"_ 	c #E8E8EB",
": 	c #444444",
"< 	c #000000",
"[ 	c #949494",
"} 	c #D5D5F8",
"| 	c #4F4F5E",
"1 	c #EDEDFF",
"2 	c #8E8E8E",
"3 	c #FFFFFF",
"4 	c #B87D4C",
"5 	c #C89265",
"6 	c #D5A277",
"7 	c #C79063",
"8 	c #68482D",
"9 	c #B1B1B4",
"0 	c #E0E0FE",
"a 	c #B7A596",
"b 	c #F1D1B7",
"c 	c #847A73",
"d 	c #B9B9CE",
"e 	c #EAEAFF",
"f 	c #FDFDFD",
"g 	c #716F6D",
"h 	c #15100D",
"i 	c #442E23",
"j 	c #724D3B",
"k 	c #A36E54",
"l 	c #B1775B",
"m 	c #C68F61",
"n 	c #E9BC96",
"o 	c #EBBE99",
"p 	c #6D5847",
"q 	c #B7B7BE",
"r 	c #DEDEFF",
"s 	c #F7F7FF",
"t 	c #E3E3FF",
"u 	c #DCDCFF",
"v 	c #EBEBFF",
"w 	c #CACACA",
"x 	c #9D9B9B",
"y 	c #84766F",
"z 	c #8C5F48",
"A 	c #C18859",
"B 	c #E9BB95",
"C 	c #5F4D3E",
"D 	c #A2A2AD",
"E 	c #D8D8FF",
"F 	c #F3F3FF",
"G 	c #FDFDFF",
"H 	c #FCFCFF",
"I 	c #FEFEFF",
"J 	c #E9E9FF",
"K 	c #D9D9FF",
"L 	c #7C7979",
"M 	c #8E5F49",
"N 	c #754F3C",
"O 	c #3F2D23",
"P 	c #C08757",
"Q 	c #DAB08E",
"R 	c #806753",
"S 	c #352B23",
"T 	c #181817",
"U 	c #DEDEEA",
"V 	c #D6D6FF",
"W 	c #F8F8FF",
"X 	c #EEEEFF",
"Y 	c #D7D7FF",
"Z 	c #D3D3F4",
"` 	c #252426",
" .	c #87846C",
"..	c #EDE8BE",
"+.	c #8A5E39",
"@.	c #554436",
"#.	c #31221B",
"$.	c #51372A",
"%.	c #373331",
"&.	c #CACAD4",
"*.	c #DBDBFF",
"=.	c #ECECFF",
"-.	c #DFDFFF",
";.	c #A1A1C0",
">.	c #85859E",
",.	c #ADADCE",
"'.	c #808099",
").	c #3D3D48",
"!.	c #464654",
"~.	c #8686A0",
"{.	c #D0D0F8",
"].	c #757479",
"^.	c #F3EEC1",
"/.	c #FFFACC",
"(.	c #7E7E7E",
"_.	c #545454",
":.	c #2C231E",
"<.	c #53382B",
"[.	c #9D6951",
"}.	c #90614A",
"|.	c #3B3736",
"1.	c #DFDFF2",
"2.	c #9898B5",
"3.	c #B5B5D8",
"4.	c #737389",
"5.	c #26262E",
"6.	c #74748A",
"7.	c #616174",
"8.	c #656579",
"9.	c #C0C0E5",
"0.	c #B6B6D9",
"a.	c #6F6F85",
"b.	c #29282C",
"c.	c #746F3D",
"d.	c #E8E1A5",
"e.	c #393939",
"f.	c #271A14",
"g.	c #A56F55",
"h.	c #A16C52",
"i.	c #1F1814",
"j.	c #E0E0E5",
"k.	c #9B9BB9",
"l.	c #9191AD",
"m.	c #67677A",
"n.	c #636376",
"o.	c #575768",
"p.	c #464653",
"q.	c #CECEF5",
"r.	c #D2D2FA",
"s.	c #545464",
"t.	c #32312C",
"u.	c #454224",
"v.	c #85804B",
"w.	c #CAC383",
"x.	c #ECE6AC",
"y.	c #171717",
"z.	c #815742",
"A.	c #A46E54",
"B.	c #774F3C",
"C.	c #323231",
"D.	c #565667",
"E.	c #5F5F71",
"F.	c #73738A",
"G.	c #C7C7ED",
"H.	c #68687B",
"I.	c #272622",
"J.	c #504D2B",
"K.	c #ACA567",
"L.	c #DED795",
"M.	c #F1EBB4",
"N.	c #FEF9CB",
"O.	c #242424",
"P.	c #79513E",
"Q.	c #8D5E47",
"R.	c #7A513D",
"S.	c #3D3835",
"T.	c #E4E4FF",
"U.	c #B5B5D7",
"V.	c #69697D",
"W.	c #43412F",
"X.	c #9E9967",
"Y.	c #E4DDA1",
"Z.	c #F7F2BF",
"`.	c #FDF8CA",
" +	c #72705B",
".+	c #3D3D3D",
"++	c #4C3326",
"@+	c #AD7559",
"#+	c #875A44",
"$+	c #714B38",
"%+	c #241E18",
"&+	c #DDDCF8",
"*+	c #8F8FAA",
"=+	c #6B6A71",
"-+	c #6C6956",
";+	c #8C8866",
">+	c #D6D0A1",
",+	c #FDF7C8",
"'+	c #F3EEC2",
")+	c #5D5C4B",
"!+	c #5C5A49",
"~+	c #C2BE9B",
"{+	c #261913",
"]+	c #99664E",
"^+	c #4D4837",
"/+	c #B1AC7B",
"(+	c #D9D7CF",
"_+	c #9F9B7D",
":+	c #CAC490",
"<+	c #F4EEBA",
"[+	c #FDF8CB",
"}+	c #918F74",
"|+	c #9D9A7E",
"1+	c #717171",
"2+	c #070403",
"3+	c #7D533F",
"4+	c #6C4837",
"5+	c #959277",
"6+	c #E8E4BA",
"7+	c #D3CEA8",
"8+	c #F1EDC1",
"9+	c #545243",
"0+	c #A3A083",
"a+	c #A29F82",
"b+	c #E1DDB4",
"c+	c #202020",
"d+	c #4C3226",
"e+	c #424034",
"f+	c #F7F2C6",
"g+	c #E7E3B9",
"h+	c #6F6D59",
"i+	c #ACA889",
"j+	c #514F41",
"k+	c #48473A",
"l+	c #686653",
"m+	c #B1AD8D",
"n+	c #A3A082",
"o+	c #EBE6BC",
"p+	c #A7A486",
"q+	c #1E140F",
"r+	c #271A13",
"s+	c #C5C197",
"t+	c #CAC6A2",
"u+	c #D8D4AD",
"v+	c #838069",
"w+	c #403F33",
"x+	c #161612",
"y+	c #333229",
"z+	c #666451",
"A+	c #B3AF8F",
"B+	c #FCF7CA",
"C+	c #EFEBC0",
"D+	c #C6C29F",
"E+	c #7A7862",
"F+	c #6B6956",
"G+	c #5A5948",
"H+	c #6E6E6E",
"I+	c #020101",
"J+	c #513628",
"K+	c #5C583A",
"L+	c #FEF9CA",
"M+	c #38372D",
"N+	c #656351",
"O+	c #CFCBA6",
"P+	c #EFEABF",
"Q+	c #E4E0B7",
"R+	c #EAE5BB",
"S+	c #B7B392",
"T+	c #A19E81",
"U+	c #2B2A23",
"V+	c #F4EFC3",
"W+	c #A9A687",
"X+	c #151515",
"Y+	c #4A3125",
"Z+	c #784F3C",
"`+	c #1A150D",
" @	c #DED8A1",
".@	c #FBF6C9",
"+@	c #A09D80",
"@@	c #828068",
"#@	c #525041",
"$@	c #A6A385",
"%@	c #B8B493",
"&@	c #FAF5C8",
"*@	c #979479",
"=@	c #160F0B",
"-@	c #412B21",
";@	c #6B6743",
">@	c #F2EDC2",
",@	c #7F7D66",
"'@	c #A29E81",
")@	c #1D1C17",
"!@	c #3C3B30",
"~@	c #89866D",
"{@	c #BBB796",
"]@	c #646250",
"^@	c #2D2C24",
"/@	c #918E74",
"(@	c #0F0A06",
"_@	c #55392B",
":@	c #744D3A",
"<@	c #19150D",
"[@	c #DDD7A1",
"}@	c #1F1E19",
"|@	c #27261F",
"1@	c #DCD7B0",
"2@	c #F5F0C4",
"3@	c #DAD5AE",
"4@	c #7B7963",
"5@	c #797661",
"6@	c #E9E5BA",
"7@	c #DED9B1",
"8@	c #F7F2C5",
"9@	c #604229",
"0@	c #1D130E",
"a@	c #3D291F",
"b@	c #696542",
"c@	c #C6C29E",
"d@	c #D2CEA8",
"e@	c #ECE7BC",
"f@	c #9B987C",
"g@	c #585646",
"h@	c #D4CFA9",
"i@	c #C5956D",
"j@	c #0B0907",
"k@	c #5A3C2D",
"l@	c #704A38",
"m@	c #111009",
"n@	c #E2DCA4",
"o@	c #DCD8B0",
"p@	c #807E67",
"q@	c #595747",
"r@	c #908D73",
"s@	c #B0AC8D",
"t@	c #F6F1C5",
"u@	c #F0EBC0",
"v@	c #545343",
"w@	c #636250",
"x@	c #E0B089",
"y@	c #635040",
"z@	c #211610",
"A@	c #2F1F17",
"B@	c #7D794D",
"C@	c #4F4E3F",
"D@	c #21201A",
"E@	c #E0DCB3",
"F@	c #F8F3C6",
"G@	c #9A977B",
"H@	c #37362C",
"I@	c #B2AF8F",
"J@	c #CDC9A4",
"K@	c #D4A076",
"L@	c #C9A283",
"M@	c #010101",
"N@	c #604030",
"O@	c #624131",
"P@	c #232213",
"Q@	c #E6E0A3",
"R@	c #E6E2B8",
"S@	c #CBC7A3",
"T@	c #E4E0B6",
"U@	c #131310",
"V@	c #575646",
"W@	c #4C4A3D",
". . . . . . . . . . . + @ # $ % & . . . . . . . . . . . . . ",
". . . . . . . . . . * = - ; > , ' ) . . . . . . . . . . . . ",
". . . . . . . . . ! ~ { ] ^ / ( _ : . . . . . . . . . . . . ",
". . . < < < < < < < [ } < < < | 1 2 < < < < < < < < 3 . . . ",
". . . < 4 4 5 6 7 8 9 0 a b c d e f g h i j k l l l 3 . . . ",
". . . < 4 m n o o p q r s t u v 3 3 3 w x y z l l l 3 . . . ",
". . . < A B o o o C D E F 3 3 3 G H I J K e L M N O 3 . . . ",
". . . < P o Q R S T U V V W 3 X Y V V V V V Z `  ...3 . . . ",
". . . < +.@.#.$.%.&.*.V V =.-.;.>.,.'.).!.~.{.].^./.3 . . . ",
". (._.:.<.[.}.|.1.V 2.3.V V 4.5.6.7.8.9.0.a.b.c.d./.3 . . . ",
". e.f.g.l h.i.j.Y k.l.m.n.o.p.q.r.2.s.t.u.v.w.x././.3 . . . ",
". y.z.l A.B.C.J V D.E.;.F.l.G.H.I.J.K.L.M.N././././.3 . . . ",
". O.P.l Q.R.S.T.V V V V U.V.W.X.Y.Z././././././.`. +3 . . . ",
". .+++@+#+$+%+&+q.*+=+-+;+>+,+/././././././.'+)+!+~+3 . . . ",
". + {+]+B.^+/+(+_+:+<+/./././././././.[+}+/./.|+/./.3 . . . ",
". 1+2+3+4+5+/./././././././.`.6+7+8+9+0+a+b+/./././.3 . . . ",
". . c+d+B.e+/././././.f+g+h+i+j+k+l+m+n+/./././.o+p+3 . . . ",
". . * q+R.r+s+/.t+u+v+w+x+y+z+A+B+C+/./.D+E+F+N.G+ .3 . . . ",
". . H+I+$+J+K+L+~+M+N+O+P+Q+/./.B+R+S+T+U+T+/./.V+W+3 . . . ",
". . . X+Y+Z+`+ @/.b+/./././..@+@@@M+#@$@%@/./.f+&@*@3 . . . ",
". . . < =@R.-@;@N./.>@N.,@'@)@!@~@&@`././.{@]@^@/@/.3 . . . ",
". . . < (@_@:@<@[@/.|+}@|@E+1@.@/./.2@3@4@5@6@7@8@/.3 . . . ",
". . . < 9@0@R.a@b@N.B+c@d@/./.e@f@g@k+z+h@'+/././.+@3 . . . ",
". . . < i@j@k@l@m@n@/.&@o@F+p@q@r@s@t@/./././.u@v@w@3 . . . ",
". . . < x@y@z@R.A@B@N./.C@D@A+E@/./././.F@%@G@H@I@J@3 . . . ",
". . . < K@L@M@N@O@P@Q@/.R@S@/./././.T@!+U@h+V@.@J@W@3 . . . ",
". . . 3 3 3 3 3 3 3 3 3 3 3 3 3 3 3 3 3 3 3 3 3 3 3 3 . . . ",
". . . . . . . . . . . . . . . . . . . . . . . . . . . . . . ",
". . . . . . . . . . . . . . . . . . . . . . . . . . . . . . ",
". . . . . . . . . . . . . . . . . . . . . . . . . . . . . . "};
