/* XPM */
static char * symbols_xpm[] = {
"50 12 3 1",
" 	c None",
".	c #20B2AA",
"+	c #282828",
"++++++++++++++++++++++++++++++.....+++++++++++++++",
".............+++..+++++..+++..+++++..+++..++..++++",
"..+++++++++..+++..+++++..++.+++...+++.++..++..++++",
"...+++++++...+++...+++...+..+..+++..++.+++++..++++",
".+..+++++..+.+++...+++...+.++.++++.+++.+..++..++++",
".++..+++..++.+++....+....+.+..++++.+++.+..++..++++",
".++...+...++.+++..+.+.+..+.+.++++..++.++..++..++++",
".+..+...+..+.+++..+...+..+.+.++++..+..++..++..++++",
"...+++.+++...+++..++.++..++.+....+..+..+..++..++++",
"..+++++++++..+++..++.++..++..++++++++.++..++..++++",
".............+++..+++++..+++..+++++..+++..++......",
"++++++++++++++++++++++++++++++.....+++++++++++++++"};
