/* XPM */
static char * wmisdnmon_master_xpm[] = {
"100 124 17 1",
" 	c None",
".	c #0000FF",
"+	c #000000",
"@	c #202020",
"#	c #293C39",
"$	c #00FF04",
"%	c #C7C7C7",
"&	c #C5C2C5",
"*	c #FFFFFF",
"=	c #004941",
"-	c #007D71",
";	c #107979",
">	c #20B2AE",
",	c #20B6AE",
"'	c #188A86",
")	c #107D79",
"!	c #4BA34B",
"....................................................................................................",
"....................................................................................................",
"....................................................................................................",
"....................................................................................................",
"....++++++++++++++++++++++++++++..++++++++++++++++++++++++++.....@@###@@@@@@@@@$$$@@................",
"....+@@@@@@@@@@@@@@@@@@@@@@@@@@%..+@@@@@@@@@@@@@@@@@@@@@@@@&.....@#####@@@@@@@$$*$$@................",
"....+@@===-@;>>>;@>>>>=@>===>@@%..+@@@@###@@@@@@@@@###@@@@@&.....#######@@@@@$$*$$$$................",
"....+@=@@@,@>@@@=@>@@@>@>>@@>@@%..+@@@#####@@@@@@@#####@@@@&.....#######@@@@@$$*$$$$................",
"....+@=@@@,@>@@@=@>@@@>@>@>@>@@%..+@@#######@@@@@#######@@@&.....#######@@@@@$$$$$$$................",
"....+@@===-@;>>>;@;@@@;@;=>=;@@%..+@@#######@@@@@#######@@@&.....#######@@@@@$$$$$$$................",
"....+@=@@@,@=@@@>@>@@@>@>@@>>@@%..+@@#######@@@@@#######@@@&.....@#####@@@@@@@$$$$$@................",
"....+@=@@@,@=@@@>@>@@@>@>@@@>@@%..+@@#######@@@@@#######@@@&.....@@###@@@@@@@@@$$$@@................",
"....+@@===-@;>>>;@>>>>=@;===;@@%..+@@@#####@@@@@@@#####@@@@&.....@@$$$@@@@@@@@@###@@................",
"....+@@@@@@@@@@@@@@@@@@@@@@@@@@%..+@@@@###@@@@@@@@@###@@@@@&.....@$$*$$@@@@@@@#####@................",
"....+@@@@@@@@@@@@@@@@@@@@@@@@@@%..+@@@@@@@@@@@@@@@@@@@@@@@@&.....$$*$$$$@@@@@#######................",
"....%%%%%%%%%%%%%%%%%%%%%%%%%%%%..%%%%%%%%%%%%%%%%%%%%%%%%%%.....$$*$$$$@@@@@#######................",
".................................................................$$$$$$$@@@@@#######................",
".................................................................$$$$$$$@@@@@#######................",
"....++++++++++++++++++++++++++++++++++++++++++++++++++++++++.....@$$$$$@@@@@@@#####@................",
"....+@@@@@@@@@@@@@@@@@@@@@@@@@@@@@@@@@@@@@@@@@@@@@@@@@@@@@@%.....@@$$$@@@@@@@@@###@@................",
"....+@@@@@@@@@@@@@@@@@@@@@@@@@@@@@@@@@@@@@@@@@@@@@@@@@@@@@@%.....@@###@@@@@@@@@###@@................",
"....+@@@@@@@@@@@@@@@@@@@@@@@@@@@@@@@@@@@@@@@@@@@@@@@@@@@@@@%.....@#####@@@@@@@#####@................",
"....+@@@@@@@@@@@@@@@@@@@@@@@@@@@@@@@@@@@@@@@@@@@@@@@@@@@@@@%.....#######@@@@@#######................",
"....+@@@@@@@@@@@@@@@@@@@@@@@@@@@@@@@@@@@@@@@@@@@@@@@@@@@@@@%.....#######@@@@@#######................",
"....+@@@@@@@@@@@@@@@@@@@@@@@@@@@@@@@@@@@@@@@@@@@@@@@@@@@@@@%.....#######@@@@@#######................",
"....+@@@@@@@@@@@@@@@@@@@@@@@@@@@@@@@@@@@@@@@@@@@@@@@@@@@@@@%.....#######@@@@@#######................",
"....+@@@@@@@@@@@@@@@@@@@@@@@@@@@@@@@@@@@@@@@@@@@@@@@@@@@@@@%.....@#####@@@@@@@#####@................",
"....+@@@@@@@@@@@@@@@@@@@@@@@@@@@@@@@@@@@@@@@@@@@@@@@@@@@@@@%.....@@###@@@@@@@@@###@@................",
"....+@@@@@@@@@@@@@@@@@@@@@@@@@@@@@@@@@@@@@@@@@@@@@@@@@@@@@@%.....@@$$$@@@@@@@@@$$$@@................",
"....+@@@@@@@@@@@@@@@@@@@@@@@@@@@@@@@@@@@@@@@@@@@@@@@@@@@@@@%.....@$$*$$@@@@@@@$$*$$@................",
"....+@@@@@@@@@@@@@@@@@@@@@@@@@@@@@@@@@@@@@@@@@@@@@@@@@@@@@@%.....$$*$$$$@@@@@$$*$$$$................",
"....+@@@@@@@@@@@@@@@@@@@@@@@@@@@@@@@@@@@@@@@@@@@@@@@@@@@@@@%.....$$*$$$$@@@@@$$*$$$$................",
"....+@@@@@@@@@@@@@@@@@@@@@@@@@@@@@@@@@@@@@@@@@@@@@@@@@@@@@@%.....$$$$$$$@@@@@$$$$$$$................",
"....+@@@@@@@@@@@@@@@@@@@@@@@@@@@@@@@@@@@@@@@@@@@@@@@@@@@@@@%.....$$$$$$$@@@@@$$$$$$$................",
"....+@@@@@@@@@@@@@@@@@@@@@@@@@@@@@@@@@@@@@@@@@@@@@@@@@@@@@@%.....@$$$$$@@@@@@@$$$$$@................",
"....+@@@@@@@@@@@@@@@@@@@@@@@@@@@@@@@@@@@@@@@@@@@@@@@@@@@@@@%.....@@$$$@@@@@@@@@$$$@@................",
"....+@@@@@@@@@@@@@@@@@@@@@@@@@@@@@@@@@@@@@@@@@@@@@@@@@@@@@@%........................................",
"....+@@@@@@@@@@@@@@@@@@@@@@@@@@@@@@@@@@@@@@@@@@@@@@@@@@@@@@%........................................",
"....+@@@@@@@@@@@@@@@@@@@@@@@@@@@@@@@@@@@@@@@@@@@@@@@@@@@@@@%........................................",
"....+@@@@@@@@@@@@@@@@@@@@@@@@@@@@@@@@@@@@@@@@@@@@@@@@@@@@@@%........................................",
"....+@@@@@@@@@@@@@@@@@@@@@@@@@@@@@@@@@@@@@@@@@@@@@@@@@@@@@@%........................................",
"....+@@@@@@@@@@@@@@@@@@@@@@@@@@@@@@@@@@@@@@@@@@@@@@@@@@@@@@%........................................",
"....+@@@@@@@@@@@@@@@@@@@@@@@@@@@@@@@@@@@@@@@@@@@@@@@@@@@@@@%........................................",
"....+@@@@@@@@@@@@@@@@@@@@@@@@@@@@@@@@@@@@@@@@@@@@@@@@@@@@@@%........................................",
"....+@@@@@@@@@@@@@@@@@@@@@@@@@@@@@@@@@@@@@@@@@@@@@@@@@@@@@@%........................................",
"....+@@@@@@@@@@@@@@@@@@@@@@@@@@@@@@@@@@@@@@@@@@@@@@@@@@@@@@%........................................",
"....+@@@@@@@@@@@@@@@@@@@@@@@@@@@@@@@@@@@@@@@@@@@@@@@@@@@@@@%........................................",
"....+@@@@@@@@@@@@@@@@@@@@@@@@@@@@@@@@@@@@@@@@@@@@@@@@@@@@@@%........................................",
"....+@@@@@@@@@@@@@@@@@@@@@@@@@@@@@@@@@@@@@@@@@@@@@@@@@@@@@@%........................................",
"....+@@@@@@@@@@@@@@@@@@@@@@@@@@@@@@@@@@@@@@@@@@@@@@@@@@@@@@%........................................",
"....+@@@@@@@@@@@@@@@@@@@@@@@@@@@@@@@@@@@@@@@@@@@@@@@@@@@@@@%........................................",
"....+@@@@@@@@@@@@@@@@@@@@@@@@@@@@@@@@@@@@@@@@@@@@@@@@@@@@@@%........................................",
"....+@@@@@@@@@@@@@@@@@@@@@@@@@@@@@@@@@@@@@@@@@@@@@@@@@@@@@@%........................................",
"....+@@@@@@@@@@@@@@@@@@@@@@@@@@@@@@@@@@@@@@@@@@@@@@@@@@@@@@%........................................",
"....+@@@@@@@@@@@@@@@@@@@@@@@@@@@@@@@@@@@@@@@@@@@@@@@@@@@@@@%........................................",
"....+@@@@@@@@@@@@@@@@@@@@@@@@@@@@@@@@@@@@@@@@@@@@@@@@@@@@@@%........................................",
"....+@@@@@@@@@@@@@@@@@@@@@@@@@@@@@@@@@@@@@@@@@@@@@@@@@@@@@@%........................................",
"....+@@@@@@@@@@@@@@@@@@@@@@@@@@@@@@@@@@@@@@@@@@@@@@@@@@@@@@%........................................",
"....+@@@@@@@@@@@@@@@@@@@@@@@@@@@@@@@@@@@@@@@@@@@@@@@@@@@@@@%........................................",
"....%%%%%%%%%%%%%%%%%%%%%%%%%%%%%%%%%%%%%%%%%%%%%%%%%%%%%%%%........................................",
"....................................................................................................",
"....................................................................................................",
"....................................................................................................",
"....................................................................................................",
"....................................................................................................",
"@@@@@@@@@@@@@@@@@@@@@@@@@@@@@@@@@@@@@@@@@@@@@@@@@@@@@@@@@@@@@@@.....................................",
"@@>>>@@@==='@'>>>'@'>>>'@>===>@'>>>'@'>>>'@'>>>'@'>>>'@'>>>'@@@.....................................",
"@>@@@>@=@@@>@=@@@>@=@@@>@>@@@>@>@@@=@>@@@=@=@@@>@>@@@>@>@@@>@@@.....................................",
"@>@@@>@=@@@>@=@@@>@=@@@>@>@@@>@>@@@=@>@@@=@=@@@>@>@@@>@>@@@>@>@.....................................",
"@'==='@@==='@'>>>'@@>>>'@'>>>'@>>>>'@'>>>'@@==='@'>>>'@)>>>'@@@.....................................",
"@>@@@>@=@@@>@>@@@=@=@@@>@=@@@>@=@@@>@>@@@>@=@@@>@>@@@>@=@@@>@>@.....................................",
"@>@@@>@=@@@>@>@@@=@=@@@>@=@@@>@=@@@>@>@@@>@=@@@>@>@@@>@=@@@>@@@.....................................",
"@@>>>@@@===>@'>>>'@'>>>'@@==='@'>>>'@'>>>'@@===>@'>>>'@'>>>'@@@.....................................",
"@@@@@@@@@@@@@@@@@@@@@@@@@@@@@@@@@@@@@@@@@@@@@@@@@@@@@@@@@@@@@@@.....................................",
"@@@@@@@@@@@@@@@@@@@@@@@@@@@@@@@@@@@@@@@@@@@@@@@@@@@@@@@@@@@@@@@.....................................",
"@@$$$@@@===!@!$$$!@!$$$!@$===$@!$$$!@!$$$!@!$$$!@!$$$!@!$$$!@.......................................",
"@$@@@$@=@@@$@=@@@$@=@@@$@$@@@$@$@@@=@$@@@=@=@@@$@$@@@$@$@@@$@.......................................",
"@$@@@$@=@@@$@=@@@$@=@@@$@$@@@$@$@@@=@$@@@=@=@@@$@$@@@$@$@@@$@.......................................",
"@!===!@@===!@!$$$!@@$$$!@!$$$!@$$$$!@!$$$!@@===!@!$$$!@!$$$!@.......................................",
"@$@@@$@=@@@$@$@@@=@=@@@$@=@@@$@=@@@$@$@@@$@=@@@$@$@@@$@=@@@$@.......................................",
"@$@@@$@=@@@$@$@@@=@=@@@$@=@@@$@=@@@$@$@@@$@=@@@$@$@@@$@=@@@$@.......................................",
"@@$$$@@@===$@!$$$!@!$$$!@@===!@!$$$!@!$$$!@@===$@!$$$!@!$$$!@.......................................",
"@@@@@@@@@@@@@@@@@@@@@@@@@@@@@@@@@@@@@@@@@@@@@@@@@@@@@@@@@@@@@.......................................",
"....................................................................................................",
"++++++++++++++++++++++++++++++++++++++++++++++++++++++++..@@@@@@@...................................",
"+'>>>'@'>>>'@'==='@'>>>'@@@@@@@@@@@@@@@@@@@@@@@@@@@@@@@%..@@@@@@@...................................",
"+>@@@=@>@@@>@>>@@>@=@>@=@@@@@@@@@@@@@@@@@@@@@@@@@@@@@@@%..@@@@@@@...................................",
"+>@@@=@>@@@>@>@>@>@=@>@=@@@@@@@@@@@@@@@@@@@@@@@@@@@@@@@%..@@@@@@@...................................",
"+'====@'>>>'@'=>='@=='==@@@@@@@@@@@@@@@@@@@@@@@@@@@@@@@%..@@@@@@@...................................",
"+>@@@=@>@@@>@>@@>>@=@>@=@@@@@@@@@@@@@@@@@@@@@@@@@@@@@@@%..@@@@@@@...................................",
"+>@@@=@>@@@>@>@@@>@=@>@=@@@@@@@@@@@@@@@@@@@@@@@@@@@@@@@%..@@@@@@@...................................",
"+'>>>'@'==='@'==='@@=>=@@@@@@@@@@@@@@@@@@@@@@@@@@@@@@@@%..@@@@@@@...................................",
"+@@@@@@@@@@@@@@@@@@@@@@@@@@@@@@@@@@@@@@@@@@@@@@@@@@@@@@%............................................",
"+'>>>'@'>>>'@'==='@'==='@'>>>'@'>>>'@'>>>'@@@@@@@@@@@@@%............................................",
"+>@@@=@>@@@>@>>@@>@>>@@>@>@@@=@>@@@=@=@>@=@@@@@@@@@@@@@%............................................",
"+>@@@=@>@@@>@>@>@>@>@>@>@>@@@=@>@@@=@=@>@=@@@@@@@@@@@@@%.'>>>'@'>>>'@'====@'===@'>>>'+>>>>=@@@......",
"+'====@'==='@'=>='@'=>='@'>>==@'====@=='==@@@@@@@@@@@@@%.>@@@=@>@@@>@>@@@=@>@@@@>@@@=+>@@'>@@@......",
"+>@@@=@>@@@>@>@@>>@>@@>>@>@@@=@>@@@=@=@>@=@@@@@@@@@@@@@%.>@@@=@>@@@>@>@@@=@>@@@@>@@@=+>@@@>@@@......",
"+>@@@=@>@@@>@>@@@>@>@@@>@>@@@=@>@@@=@=@>@=@@@@@@@@@@@@@%.'====@'>>>'@'====@'===@'>>==+'==='@>@......",
"+'>>>'@'>>>'@'==='@'==='@'>>>'@'>>>'@@=>=@@@@@@@@@@@@@@%.>@@@=@>@@@>@>@@@=@>@@@@>@@@=+>@@@>@@@......",
"+@@@@@@@@@@@@@@@@@@@@@@@@@@@@@@@@@@@@@@@@@@@@@@@@@@@@@@%.>@@@=@>@@@>@>@@@=@>@@@@>@@@=+>@@'>@>@......",
"+'>>>'@'>>>'@@@@@@@@@@@@@@@@@@@@@@@@@@@@@@@@@@@@@@@@@@@%.'>>>'@'==='@'>>>'@'>>>@'>>>'+>>>>=@@@......",
"+=@>@=@>@@@>@@@@@@@@@@@@@@@@@@@@@@@@@@@@@@@@@@@@@@@@@@@%.@@@@@@@@@@@@@@@@@@@@@@@@@@@@@@@@@@@@@......",
"+=@>@=@>@@@>@@@@@@@@@@@@@@@@@@@@@@@@@@@@@@@@@@@@@@@@@@@%............................................",
"+=='==@'==='@@@@@@@@@@@@@@@@@@@@@@@@@@@@@@@@@@@@@@@@@@@%............................................",
"+=@>@=@>@@@>@@@@@@@@@@@@@@@@@@@@@@@@@@@@@@@@@@@@@@@@@@@%............................................",
"+=@>@=@>@@@>@@@@@@@@@@@@@@@@@@@@@@@@@@@@@@@@@@@@@@@@@@@%............................................",
"+@=>=@@'>>>'@@@@@@@@@@@@@@@@@@@@@@@@@@@@@@@@@@@@@@@@@@@%............................................",
"+@@@@@@@@@@@@@@@@@@@@@@@@@@@@@@@@@@@@@@@@@@@@@@@@@@@@@@%............................................",
"+'>>>'@;>>>;@>>>>=@>===>@'>>>'@'==='@'>>>'@'>>>'@@@@@@@%............................................",
"+=@>@=@>@@@=@>@@@>@>>@@>@=@>@=@>>@@>@>@@@=@>@@@>@@@@@@@%............................................",
"+=@>@=@>@@@=@>@@@>@>@>@>@=@>@=@>@>@>@>@@@=@>@@@>@@@@@@@%............................................",
"+=='==@;>>>;@;@@@;@;=>=;@=='==@'=>='@'>>==@'==='@@@@@@@%............................................",
"+=@>@=@=@@@>@>@@@>@>@@>>@=@>@=@>@@>>@>@@@=@>@@@>@@@@@@@%............................................",
"+=@>@=@=@@@>@>@@@>@>@@@>@=@>@=@>@@@>@>@@@=@>@@@>@@@@@@@%............................................",
"+'>>>'@;>>>;@>>>>=@;===;@'>>>'@'==='@'====@'>>>'@@@@@@@%............................................",
"+@@@@@@@@@@@@@@@@@@@@@@@@@@@@@@@@@@@@@@@@@@@@@@@@@@@@@@%............................................",
"+>>>>=@'>>>'@'>>>'@'==='@'>>>'@'==='@@@@@@@@@@@@@@@@@@@%............................................",
"+>@@'>@>@@@>@>@@@=@>>@>>@>@@@>@>>@@>@@@@@@@@@@@@@@@@@@@%............................................",
"+>@@@>@>@@@>@>@@@=@>@>@>@>@@@>@>@>@>@@@@@@@@@@@@@@@@@@@%............................................",
"+'==='@'>>>'@'>>==@'=>='@'==='@'=>='@@@@@@@@@@@@@@@@@@@%............................................",
"+>@@@>@>@@@>@>@@@=@>@@@>@>@@@>@>@@>>@@@@@@@@@@@@@@@@@@@%............................................",
"+>@@'>@>@@@>@>@@@=@>@@@>@>@@@>@>@@@>@@@@@@@@@@@@@@@@@@@%............................................",
"+>>>>=@'==='@'>>>'@'==='@'>>>'@'==='@@@@@@@@@@@@@@@@@@@%............................................"};
