/* XPM */
static char * backdrop_xpm[] = {
"80 80 59 1",
" 	c None",
".	c #F3F3F3",
"+	c #000000",
"@	c #E0E0E0",
"#	c #516161",
"$	c #A2A2B2",
"%	c #A2A2A2",
"&	c #A292B2",
"*	c #92A2A2",
"=	c #A292A2",
"-	c #9292A2",
";	c #929292",
">	c #9282A2",
",	c #829292",
"'	c #928292",
")	c #828292",
"!	c #828282",
"~	c #827192",
"{	c #615161",
"]	c #92A2B2",
"^	c #9292B2",
"/	c #8292A2",
"(	c #8282A2",
"_	c #718292",
":	c #718282",
"<	c #282828",
"[	c #515161",
"}	c #858595",
"|	c #C7C3C7",
"1	c #515151",
"2	c #827182",
"3	c #415151",
"4	c #514151",
"5	c #717192",
"6	c #717182",
"7	c #717171",
"8	c #414151",
"9	c #617182",
"0	c #415141",
"a	c #716182",
"b	c #414141",
"c	c #617171",
"d	c #413041",
"e	c #304141",
"f	c #716171",
"g	c #616171",
"h	c #616182",
"i	c #303030",
"j	c #616161",
"k	c #303041",
"l	c #516171",
"m	c #304130",
"n	c #615171",
"o	c #203030",
"p	c #302030",
"q	c #515171",
"r	c #202030",
"s	c #202020",
"t	c #413051",
"...............................................................................+",
".@@@@@@@@@@@@@@@@@@@@@@@                @@@@@@@@@@@@@@@@@@@@@@@@@@@@@@@@@@@@@@#+",
".@$%$%&%&%&%&*=-&*=-=-=-                --=--;>;>;>;>,>,>,')',')')'))!)))!~!~!{+",
".@$$*$]$*$*$*&*&*^*-*-*-                *-*-/---,-,-,>,>,(,>,(,),),)))))_)_):)#+",
".@$%<<<<<<<<<<<<<<<<<<<<                <<<<<<<<<<<<<<<<<<<<<<<<<<<<<<<<<<<<~![+",
".@]$<}}}}}}}}}}}}}}}}}}}                }}}}}}}}}}}}}}}}}}}}}}}}}}}}}}}}}}}|:~1+",
".@&%<}}}}}}}}}}}}}}}}}}}                }}}}}}}}}}}}}}}}}}}}}}}}}}}}}}}}}}}|~:[+",
".@*$<}}}}}}}}}}}}}}}}}}}                }}}}}}}}}}}}}}}}}}}}}}}}}}}}}}}}}}}|:~1+",
".@&%<}}}}}}}}}}}}}}}}}}}                }}}}}}}}}}}}}}}}}}}}}}}}}}}}}}}}}}}|2:[+",
".@*&<}}}}}}}}}}}}}}}}}}}                }}}}}}}}}}}}}}}}}}}}}}}}}}}}}}}}}}}|:~3+",
".@=%<}}}}}}}}}}}}}}}}}}}                }}}}}}}}}}}}}}}}}}}}}}}}}}}}}}}}}}}|~:4+",
".@*$<}}}}}}}}}}}}}}}}}}}                }}}}}}}}}}}}}}}}}}}}}}}}}}}}}}}}}}}|:53+",
".@&*<}}}}}}}}}}}}}}}}}}}                }}}}}}}}}}}}}}}}}}}}}}}}}}}}}}}}}}}|264+",
".@*&<}}}}}}}}}}}}}}}}}}}                }}}}}}}}}}}}}}}}}}}}}}}}}}}}}}}}}}}|:63+",
".@=-<}}}}}}}}}}}}}}}}}}}                }}}}}}}}}}}}}}}}}}}}}}}}}}}}}}}}}}}|264+",
".@*=<}}}}}}}}}}}}}}}}}}}                }}}}}}}}}}}}}}}}}}}}}}}}}}}}}}}}}}}|:63+",
".@=*<}}}}}}}}}}}}}}}}}}}                }}}}}}}}}}}}}}}}}}}}}}}}}}}}}}}}}}}|264+",
".@*^<}}}}}}}}}}}}}}}}}}}                }}}}}}}}}}}}}}}}}}}}}}}}}}}}}}}}}}}|:63+",
".@=-<}}}}}}}}}}}}}}}}}}}                }}}}}}}}}}}}}}}}}}}}}}}}}}}}}}}}}}}|664+",
".@*-<}}}}}}}}}}}}}}}}}}}                }}}}}}}}}}}}}}}}}}}}}}}}}}}}}}}}}}}|663+",
".@=-<}}}}}}}}}}}}}}}}}}}                }}}}}}}}}}}}}}}}}}}}}}}}}}}}}}}}}}}|674+",
".@--<}}}}}}}}}}}}}}}}}}}                }}}}}}}}}}}}}}}}}}}}}}}}}}}}}}}}}}}|668+",
".@=-<}}}}}}}}}}}}}}}}}}}                }}}}}}}}}}}}}}}}}}}}}}}}}}}}}}}}}}}|674+",
".@*-<}}}}}}}}}}}}}}}}}}}                }}}}}}}}}}}}}}}}}}}}}}}}}}}}}}}}}}}|960+",
".@-;<}}}}}}}}}}}}}}}}}}}                }}}}}}}}}}}}}}}}}}}}}}}}}}}}}}}}}}}|a78+",
".@--<}}}}}}}}}}}}}}}}}}}                }}}}}}}}}}}}}}}}}}}}}}}}}}}}}}}}}}}|96b+",
".@>;<}}}}}}}}}}}}}}}}}}}                }}}}}}}}}}}}}}}}}}}}}}}}}}}}}}}}}}}|acd+",
".@--<}}}}}}}}}}}}}}}}}}}                }}}}}}}}}}}}}}}}}}}}}}}}}}}}}}}}}}}|cab+",
".@-;<}}}}}}}}}}}}}}}}}}}                }}}}}}}}}}}}}}}}}}}}}}}}}}}}}}}}}}}|a7b+",
".@,-<}}}}}}}}}}}}}}}}}}}                }}}}}}}}}}}}}}}}}}}}}}}}}}}}}}}}}}}|cae+",
".@>;<}}}}}}}}}}}}}}}}}}}                }}}}}}}}}}}}}}}}}}}}}}}}}}}}}}}}}}}|acd+",
".@,-<}}}}}}}}}}}}}}}}}}}                }}}}}}}}}}}}}}}}}}}}}}}}}}}}}}}}}}}|cae+",
".@>,<}}}}}}}}}}}}}}}}}}}                }}}}}}}}}}}}}}}}}}}}}}}}}}}}}}}}}}}|fcd+",
".@>,<}}}}}}}}}}}}}}}}}}}                }}}}}}}}}}}}}}}}}}}}}}}}}}}}}}}}}}}|fcd+",
".@,><}}}}}}}}}}}}}}}}}}}                }}}}}}}}}}}}}}}}}}}}}}}}}}}}}}}}}}}|cae+",
".@',<}}}}}}}}}}}}}}}}}}}                }}}}}}}}}}}}}}}}}}}}}}}}}}}}}}}}}}}|agd+",
".@,><}}}}}}}}}}}}}}}}}}}                }}}}}}}}}}}}}}}}}}}}}}}}}}}}}}}}}}}|che+",
".@>,<}}}}}}}}}}}}}}}}}}}                }}}}}}}}}}}}}}}}}}}}}}}}}}}}}}}}}}}|fgd+",
".@,><}}}}}}}}}}}}}}}}}}}                }}}}}}}}}}}}}}}}}}}}}}}}}}}}}}}}}}}|cge+",
".@')<}}}}}}}}}}}}}}}}}}}                }}}}}}}}}}}}}}}}}}}}}}}}}}}}}}}}}}}|ggd+",
".@,'<}}}}}}}}}}}}}}}}}}}                }}}}}}}}}}}}}}}}}}}}}}}}}}}}}}}}}}}|cge+",
".@',<}}}}}}}}}}}}}}}}}}}                }}}}}}}}}}}}}}}}}}}}}}}}}}}}}}}}}}}|fgd+",
".@',<}}}}}}}}}}}}}}}}}}}                }}}}}}}}}}}}}}}}}}}}}}}}}}}}}}}}}}}|fgd+",
".@',<}}}}}}}}}}}}}}}}}}}                }}}}}}}}}}}}}}}}}}}}}}}}}}}}}}}}}}}|fgd+",
".@',<}}}}}}}}}}}}}}}}}}}                }}}}}}}}}}}}}}}}}}}}}}}}}}}}}}}}}}}|fgd+",
".@',<}}}}}}}}}}}}}}}}}}}                }}}}}}}}}}}}}}}}}}}}}}}}}}}}}}}}}}}|fgd+",
".@',<}}}}}}}}}}}}}}}}}}}                }}}}}}}}}}}}}}}}}}}}}}}}}}}}}}}}}}}|fgd+",
".@',<}}}}}}}}}}}}}}}}}}}                }}}}}}}}}}}}}}}}}}}}}}}}}}}}}}}}}}}|fgd+",
".@',<}}}}}}}}}}}}}}}}}}}                }}}}}}}}}}}}}}}}}}}}}}}}}}}}}}}}}}}|fgd+",
".@',<}}}}}}}}}}}}}}}}}}}                }}}}}}}}}}}}}}}}}}}}}}}}}}}}}}}}}}}|fgd+",
".@',<}}}}}}}}}}}}}}}}}}}                }}}}}}}}}}}}}}}}}}}}}}}}}}}}}}}}}}}|fgd+",
".@',<}}}}}}}}}}}}}}}}}}}                }}}}}}}}}}}}}}}}}}}}}}}}}}}}}}}}}}}|fgd+",
".@',<}}}}}}}}}}}}}}}}}}}                }}}}}}}}}}}}}}}}}}}}}}}}}}}}}}}}}}}|fgd+",
".@',<}}}}}}}}}}}}}}}}}}}                }}}}}}}}}}}}}}}}}}}}}}}}}}}}}}}}}}}|fgd+",
".@',<}}}}}}}}}}}}}}}}}}}                }}}}}}}}}}}}}}}}}}}}}}}}}}}}}}}}}}}|fgd+",
".@',<}}}}}}}}}}}}}}}}}}}                }}}}}}}}}}}}}}}}}}}}}}}}}}}}}}}}}}}|fgd+",
".@',<}}}}}}}}}}}}}}}}}}}                }}}}}}}}}}}}}}}}}}}}}}}}}}}}}}}}}}}|fgd+",
".@,(<}}}}}}}}}}}}}}}}}}}                }}}}}}}}}}}}}}}}}}}}}}}}}}}}}}}}}}}|ggi+",
".@')<}}}}}}}}}}}}}}}}}}}                }}}}}}}}}}}}}}}}}}}}}}}}}}}}}}}}}}}|gjk+",
".@,)<}}}}}}}}}}}}}}}}}}}                }}}}}}}}}}}}}}}}}}}}}}}}}}}}}}}}}}}|lgm+",
".@'!<}}}}}}}}}}}}}}}}}}}                }}}}}}}}}}}}}}}}}}}}}}}}}}}}}}}}}}}|njk+",
".@))<}}}}}}}}}}}}}}}}}}}                }}}}}}}}}}}}}}}}}}}}}}}}}}}}}}}}}}}|ggo+",
".@))<}}}}}}}}}}}}}}}}}}}                }}}}}}}}}}}}}}}}}}}}}}}}}}}}}}}}}}}|njp+",
".@))<}}}}}}}}}}}}}}}}}}}                }}}}}}}}}}}}}}}}}}}}}}}}}}}}}}}}}}}|#go+",
".@)!<}}}}}}}}}}}}}}}}}}}                }}}}}}}}}}}}}}}}}}}}}}}}}}}}}}}}}}}|nji+",
".@))<}}}}}}}}}}}}}}}}}}}                }}}}}}}}}}}}}}}}}}}}}}}}}}}}}}}}}}}|lgo+",
".@~!<}}}}}}}}}}}}}}}}}}}                }}}}}}}}}}}}}}}}}}}}}}}}}}}}}}}}}}}|n#p+",
".@_)<}}}}}}}}}}}}}}}}}}}                }}}}}}}}}}}}}}}}}}}}}}}}}}}}}}}}}}}|#no+",
".@)!<}}}}}}}}}}}}}}}}}}}                }}}}}}}}}}}}}}}}}}}}}}}}}}}}}}}}}}}|njp+",
".@:~<}}}}}}}}}}}}}}}}}}}                }}}}}}}}}}}}}}}}}}}}}}}}}}}}}}}}}}}|#no+",
".@~!<}}}}}}}}}}}}}}}}}}}                }}}}}}}}}}}}}}}}}}}}}}}}}}}}}}}}}}}|n#p+",
".@:)<}}}}}}}}}}}}}}}}}}}                }}}}}}}}}}}}}}}}}}}}}}}}}}}}}}}}}}}|#qo+",
".@~:<}}}}}}}}}}}}}}}}}}}                }}}}}}}}}}}}}}}}}}}}}}}}}}}}}}}}}}}|{[p+",
".@:~<}}}}}}}}}}}}}}}}}}}                }}}}}}}}}}}}}}}}}}}}}}}}}}}}}}}}}}}|#no+",
".@~:<}}}}}}}}}}}}}}}}}}}                }}}}}}}}}}}}}}}}}}}}}}}}}}}}}}}}}}}|{[p+",
".@:~||||||||||||||||||||                ||||||||||||||||||||||||||||||||||||#qo+",
".@~:262626262667a767a7ac                a7acfcfcfgfgfggjgggjnjnjnjn#n#n#{[{[{[r+",
".@:5:~:5:666666666c696ca                cacacachcgggcggggglglg#nln#n#n#q#q[q#[s+",
".@{1[1[1[141434340484b4b                8btb8bdbdededmdikikikipipipipoprpspsrsr+",
".+++++++++++++++++++++++                ++++++++++++++++++++++++++++++++++++++++"};
