#define mask_width 64
#define mask_height 64

static char mask_bits[] = {
 0x00, 0x00, 0x00, 0x00, 0x00, 0x00, 0x00, 0x00,
 0x00, 0x00, 0x00, 0x00, 0x00, 0x00, 0x00, 0x00,
 0xfc, 0xff, 0xff, 0xff, 0xff, 0xff, 0xff, 0x3f,
 0xfc, 0xff, 0xff, 0xff, 0xff, 0xff, 0xff, 0x3f,
 0xfc, 0xff, 0xff, 0xff, 0xff, 0xff, 0xff, 0x3f,
 0xfc, 0xff, 0xff, 0xff, 0xff, 0xff, 0xff, 0x3f,
 0xfc, 0xff, 0xff, 0xff, 0xff, 0xff, 0xff, 0x3f,
 0xfc, 0xff, 0xff, 0xff, 0xff, 0xff, 0xff, 0x3f,
 0xfc, 0xff, 0xff, 0xff, 0xff, 0xff, 0xff, 0x3f,
 0xfc, 0xff, 0xff, 0xff, 0xff, 0xff, 0xff, 0x3f,	
 0xfc, 0xff, 0xff, 0xff, 0xff, 0xff, 0xff, 0x3f,	
 0xfc, 0xff, 0xff, 0xff, 0xff, 0xff, 0xff, 0x3f,	
 0xfc, 0xff, 0xff, 0xff, 0xff, 0xff, 0xff, 0x3f,	
 0xfc, 0xff, 0xff, 0xff, 0xff, 0xff, 0xff, 0x3f,
 0xfc, 0xff, 0xff, 0xff, 0xff, 0xff, 0xff, 0x3f,
 0xfc, 0xff, 0xff, 0xff, 0xff, 0xff, 0xff, 0x3f,
 0xfc, 0xff, 0xff, 0xff, 0xff, 0xff, 0xff, 0x3f,
 0xfc, 0xff, 0xff, 0xff, 0xff, 0xff, 0xff, 0x3f,
 0xfc, 0xff, 0xff, 0xff, 0xff, 0xff, 0xff, 0x3f,
 0xfc, 0xff, 0xff, 0xff, 0xff, 0xff, 0xff, 0x3f,
 0xfc, 0xff, 0xff, 0xff, 0xff, 0xff, 0xff, 0x3f,
 0xfc, 0xff, 0xff, 0xff, 0xff, 0xff, 0xff, 0x3f,
 0xfc, 0xff, 0xff, 0xff, 0xff, 0xff, 0xff, 0x3f,
 0xfc, 0xff, 0xff, 0xff, 0xff, 0xff, 0xff, 0x3f,
 0xfc, 0xff, 0xff, 0xff, 0xff, 0xff, 0xff, 0x3f,
 0xfc, 0xff, 0xff, 0xff, 0xff, 0xff, 0xff, 0x3f,
 0xfc, 0xff, 0xff, 0xff, 0xff, 0xff, 0xff, 0x3f,
 0xfc, 0xff, 0xff, 0xff, 0xff, 0xff, 0xff, 0x3f,
 0xfc, 0xff, 0xff, 0xff, 0xff, 0xff, 0xff, 0x3f,
 0xfc, 0xff, 0xff, 0xff, 0xff, 0xff, 0xff, 0x3f,
 0xfc, 0xff, 0xff, 0xff, 0xff, 0xff, 0xff, 0x3f,
 0xfc, 0xff, 0xff, 0xff, 0xff, 0xff, 0xff, 0x3f,
 0xfc, 0xff, 0xff, 0xff, 0xff, 0xff, 0xff, 0x3f,
 0xfc, 0xff, 0xff, 0xff, 0xff, 0xff, 0xff, 0x3f,
 0xfc, 0xff, 0xff, 0xff, 0xff, 0xff, 0xff, 0x3f,
 0xfc, 0xff, 0xff, 0xff, 0xff, 0xff, 0xff, 0x3f,
 0xfc, 0xff, 0xff, 0xff, 0xff, 0xff, 0xff, 0x3f,
 0xfc, 0xff, 0xff, 0xff, 0xff, 0xff, 0xff, 0x3f,
 0xfc, 0xff, 0xff, 0xff, 0xff, 0xff, 0xff, 0x3f,
 0xfc, 0xff, 0xff, 0xff, 0xff, 0xff, 0xff, 0x3f,
 0xfc, 0xff, 0xff, 0xff, 0xff, 0xff, 0xff, 0x3f,
 0xfc, 0xff, 0xff, 0xff, 0xff, 0xff, 0xff, 0x3f,
 0xfc, 0xff, 0xff, 0xff, 0xff, 0xff, 0xff, 0x3f,
 0xfc, 0xff, 0xff, 0xff, 0xff, 0xff, 0xff, 0x3f,
 0xfc, 0xff, 0xff, 0xff, 0xff, 0xff, 0xff, 0x3f,
 0xfc, 0xff, 0xff, 0xff, 0xff, 0xff, 0xff, 0x3f,
 0xfc, 0xff, 0xff, 0xff, 0xff, 0xff, 0xff, 0x3f,
 0xfc, 0xff, 0xff, 0xff, 0xff, 0xff, 0xff, 0x3f,
 0xfc, 0xff, 0xff, 0xff, 0xff, 0xff, 0xff, 0x3f,
 0xfc, 0xff, 0xff, 0xff, 0xff, 0xff, 0xff, 0x3f,
 0xfc, 0xff, 0xff, 0xff, 0xff, 0xff, 0xff, 0x3f,
 0xfc, 0xff, 0xff, 0xff, 0xff, 0xff, 0xff, 0x3f,
 0xfc, 0xff, 0xff, 0xff, 0xff, 0xff, 0xff, 0x3f,
 0xfc, 0xff, 0xff, 0xff, 0xff, 0xff, 0xff, 0x3f,
 0xfc, 0xff, 0xff, 0xff, 0xff, 0xff, 0xff, 0x3f,
 0xfc, 0xff, 0xff, 0xff, 0xff, 0xff, 0xff, 0x3f,
 0xfc, 0xff, 0xff, 0xff, 0xff, 0xff, 0xff, 0x3f,
 0xfc, 0xff, 0xff, 0xff, 0xff, 0xff, 0xff, 0x3f,
 0xfc, 0xff, 0xff, 0xff, 0xff, 0xff, 0xff, 0x3f,
 0xfc, 0xff, 0xff, 0xff, 0xff, 0xff, 0xff, 0x3f,
 0xfc, 0xff, 0xff, 0xff, 0xff, 0xff, 0xff, 0x3f,
 0xfc, 0xff, 0xff, 0xff, 0xff, 0xff, 0xff, 0x3f,
 0x00, 0x00, 0x00, 0x00, 0x00, 0x00, 0x00, 0x00,
 0x00, 0x00, 0x00, 0x00, 0x00, 0x00, 0x00, 0x00 };
