/* XPM */
static char * icons_xpm[] = {
"650 24 4 1",
".     c #202020 s back_color",
"+     c #00C9C1 s led_color_high",
"@     c #0C8580 s led_color_med ",
"#     c #184A48 s led_color_low",
"..........................................................................................................................................................................................................................................................................................................................................................................................................................................................................................................................................................................................................................................................................",
"..........................................................................................................................................................................................................................................................................................................................................................................................................................................................................................................................................................................................................................................................................",
"..........................................................................................................................................................................................................................................................................................................................................................................................................................................................................................................................................................................................................................................................................",
".................................................................++...........................................................................................................................................................................................................+......................................................................................................................................................................................................................................................................................................................@......@.............................................................",
"..................................#######.......................+..+..............................................+..........................................................................#++...........................................................................+.++....+..+.+...........#.............................................................................................................................................................#++++++#..................#++++++#..................#++++++#...............#+++++++++++++#...........#+++++++++++++#................@....@..............................................................",
".................................#++++++++#....................#+..+#.............................................+........................++......................#++++++#.................#++#+.........................++++++..............++.++........................+.++....+..+.+.........#+++#.....................+#........................++.++........................#++++++#..................#++++++#..................#++++++#..................#++++++++++++#+...........#++++++++++++#+...........#++++++++++++#+.......@+++++++++++++++++@.......@+++++++++++++++++@...............@..@...............................................................",
"................................#++@#..@+++@...................#+..+#..........................................+.++....+..+.+.............++.+....................#++++++++++++#+...........++#+#+......................++###+++++............##.##...................+.+.++.++...++..+.++........+++++.....................++#.......................##.##.......................#++++++++++++#+...........#++++++++++++#+...........#++++++++++++#+...........#+++++++....+.+.+.........#+++++++....+.+.+.........#+++++++....+.+.+.....+++++++++++++++++++++.....+++++++++++++++++++++...............@@..........................................++.++.................",
"...................#+...........+++.....#+++@..++...............+..+...........................................+.++....+..+.+............+.+.+.......+...........#+++++++....+.+.+..........+#+#++.....................++####++++++...........++.++...................+.+.+++++.+.++.++.++.......#+++++#....................+++#......................++.++......................#+++++++....+.+.+.........#+++++++....+.+.+.........#+++++++....+.+.+..........+#++++++++++++#+..........+#++++++++++++#+..........+#++++++++++++#+......+++++@#.......#@+++++.....+++++@#.......#@+++++........#++++++++++++++#..........++.......................##.##.................",
".................#+++..........#++#......#+++#.++................++................+++++++++++++++........+.+.++.++...++..+.++..........+#+..##.......+..........+#++++++++++++#+............+#++.+....................+++###++++@+...........##.##...................+++.+++++++.+++++++++.......+++++.....................++#.......................##.##......................+#++++++++++++#+..........+#++++++++++++#+..........+#++++++++++++#+...........+.#++++++#................+.#++++++#................+.#++++++#............++++@..++...++..@++++.....++++@..++...++..@++++........++++++++++++++++.........+..+......................++.++.................",
"...............#+++++..........#+++#......+++#..................#+#................+#+#+#+#+#+#+#+#.......+.+.+++++.+.++.++.++.........+.#+...+..+....+..........+.#++++++#...................++##.+..................+##+###+++@+++..........++.++..........#+.......+++++++++++++++++++++.......#+++#..........#+.........+#.............#+.........++.++..........#+..........+.#++++++#................+.#++++++#................+.#++++++#.................+.........................+.........................+......................++#...++...++...#++.......++#...++...++...#++.........+++####..#...+++............+......................##.##.................",
".............#+++++++...........++++......+++#.................++++#...............+#+#+#+#+#+#+#+#.......+++.+++++++.+++++++++...........++#.+...+....+.........+..............................+##.+.................+#####+++@++++.......................#+++.......@@@@@@@@@@@@@@@@@@@@@.........#..........#+++......................#+++......................#+++..........+.........................+.........................+..........................#+........................#+........................#+..........................+++++++++.................+++++++++..............++#######.#...++...........+............#+.........++.++..........#+.....",
"...........#+++++++++...........#++#......+++#.++.............#+#.++...............+#+#+#+#+#+#+#+#.......+++++++++++++++++++++...........+#+.#.+.+.+..+.........#+..............................+##.+................+####+..+####+.....................#+++++.......+.++++++++++++++++.++..................#+++++....................#+++++....................#+++++..........#+........................#+........................#+.......................................................................................................++#########++.............++#########++............++##@@####..#.++..........+...........#+++......................#+++.....",
".........#+++++++++++....................#+++#.++............++#.++++..............+#.#.#.#.#.#.#+#.......@@@@@@@@@@@@@@@@@@@@@...........+#+.+...+....+..........#+..............................+##.+...............+####+..+####+...................#+++++++.......+.++++.++++.++++.+.+.................#+++++++..................#+++++++..................#+++++++...........#+........................#+........................#+.....................@..@@..@..................@..@@..@..................@..@@..@....................+###+@#+@#+@##+...........+###+@#+@#+@##+...........++##@@@##.#...++....................#+++++....................#+++++.....",
".......#+++++++++++++....................++++...............#+#.+.+..+.............+#.#.#.#.#.#.#+#.......+++++++++++++++++++++...........++..+...+....+...........+...............................+##.+..............++++@+++#####+.................#+++++++++.......+.++.+.++++..+.+...................#+++++++++................#+++++++++................#+++++++++............+.........................+.........................+.....................@.@..@.@.........+........@.@..@.@.........++.......@.@..@.@.........++........+####@@#@@#@@###+.........+####@@#@@#@@###+..........++###@#####.#.++..........+.......#+++++++..................#+++++++.....",
".....#+++++++++++++++...................++++................#+..+..+.+.............+++++++++++++++#.......+.+++++++++++++++++++........+.#+...+..+....+............+................................+##+..............+++@+++##++##+...............#+++++++++++..........+.+.++.+..+...................#+++++++++++..............#+++++++++++..............#+++++++++++............+...........+.............+..........++.............+..........++.........@.@..@.@........++........@.@..@.@........+..+......@.@..@.@........+..+.......+####+@#+@#+@###..........+####+@#+@#+@###...........++########.#..++................#+++++++++................#+++++++++.....",
"....+++++++++++++++++.................#++++.................#+.....+.+..............###############.......+.++++.++++.++++++++..........+#+..##.......+............+.................................+++...............+@++++###+++..............#+++++++++++++..........+.+..+.+......++............#+++++++++++++............#+++++++++++++............#+++++++++++++............+..........++.............+.........+..+............+.........+..+........@.@..@.@.........+........@.@..@.@..........+.......@.@..@.@..........+........+####@@#@@#@@##.+.........+####@@#@@#@@##.+..........++########.#.#++..............#+++++++++++..............#+++++++++++.....",
"....................................@++++#...................#+...#+#+......................................++.+.++++..+.+++.+...........+.+.+.......+............++....................................+..............++++++####++............#+++++++++++++++............+..+.......+..+.........#+++++++++++++++..........#+++++++++++++++..........#+++++++++++++++...........++...........+............++...........+............++...........+.........@..@@..@.........+........@..@@..@.........+........@..@@..@........+..+.......+####+@#+@#+@#.++.........+####+@#+@#+@...++.........+++#.#.#.#...+++............#+++++++++++++............#+++++++++++++.....",
"...................................++++#......................#++++++........................................+.+.++.+..+.++..+............++.+...................++..............................#+++...+#..............+++++###++............+++++++++++++++++.........................+.........+++++++++++++++++.........+++++++++++++++++.........+++++++++++++++++..........++............+...........++...........+............++..........+..+........................+++.......................++++.......................++........+####@@#@@#@@.+++++.......+####@@#@@#@@.+++++........++++++++++++++++..........#+++++++++++++++..........#+++++++++++++++.....",
"...................................@+#.............................+#........................................+.+..+.+....+.................++...................++...............................+...+++#.................++++++.......................................................+........................................................................................++............+++.........++...........++++.........++............++..........++........................++........................++........................+#############.++.........+############...++.........#++++++++++++++#.........+++++++++++++++++.........+++++++++++++++++.....",
"................................................................+++#...........................................+..+.............................................+.....................................................................................................................++++......................................................................................+.........................+.........................+.........................+.........................+.........................+..........................++++++++++++++.+..........++++++++++++++.+...................................................................................",
"..........................................................................................................................................................................................................................................................................................................................................................................................................................................................................................................................................................................................................................................................................",
"..........................................................................................................................................................................................................................................................................................................................................................................................................................................................................................................................................................................................................................................................................",
"..........................................................................................................................................................................................................................................................................................................................................................................................................................................................................................................................................................................................................................................................................",
".........................................................................................................................................................................................................................................................................................................................................................................................................................................................................................................................................................................................................................................................................."};
