/* XPM */
static char * wmtv_master_xpm[] = {
"128 128 12 1",
" 	c #00000000FFFF",
".	c #000000000000",
"X	c #C71BC71BC71B",
"o	c #208120812081",
"O	c #FFFFFFFFFFFF",
"+	c #861782078E38",
"@	c #AEBAAAAAAEBA",
"#	c #000049244103",
"$	c #2081B2CAAEBA",
"%	c #10407DF779E7",
"&	c #18618A288617",
"*	c #F7DEF3CEFFFF",
"                                                                                                                                ",
"                                                                                                                                ",
"                                                                                                                                ",
"                                                                                                                                ",
"    ........................................................                                                                    ",
"    .......................................................X                                                                    ",
"    .......................................................X                                                                    ",
"    .......................................................X                                                                    ",
"    .......................................................X                                                                    ",
"    .......................................................X                                                                    ",
"    .......................................................X                                                                    ",
"    .......................................................X                                                                    ",
"    .......................................................X                                                                    ",
"    .......................................................X                                                                    ",
"    .......................................................X                                                                    ",
"    .......................................................X                                                                    ",
"    .......................................................X                                                                    ",
"    .......................................................X                                                                    ",
"    .......................................................X                                                                    ",
"    .......................................................X                                                                    ",
"    .......................................................X                                                                    ",
"    .......................................................X                                                                    ",
"    .......................................................X                                                                    ",
"    .......................................................X                                                                    ",
"    .......................................................X                                                                    ",
"    .......................................................X                                                                    ",
"    .......................................................X                                                                    ",
"    .......................................................X                                                                    ",
"    .......................................................X                                                                    ",
"    .......................................................X                                                                    ",
"    .......................................................X                                                                    ",
"    .......................................................X                                                                    ",
"    .......................................................X                                                                    ",
"    .......................................................X                                                                    ",
"    .......................................................X                                                                    ",
"    .......................................................X                                                                    ",
"    .......................................................X                                                                    ",
"    .......................................................X                                                                    ",
"    .......................................................X                                                                    ",
"    .......................................................X                                                                    ",
"    .......................................................X                                                                    ",
"    .......................................................X                                                                    ",
"    .......................................................X                                                                    ",
"    .......................................................X                                                                    ",
"    XXXXXXXXXXXXXXXXXXXXXXXXXXXXXXXXXXXXXXXXXXXXXXXXXXXXXXXX                                                                    ",
"                                                                                                                                ",
"                                                                                                                                ",
"    ................  ......................................                                                                    ",
"    .ooooooooooooooX  .OOOOOOOOOOO+OOOOOOOOOOO+OOOOOOOOOOO+X                                                                    ",
"    .ooooooooooooooX  .O@@@@@@@@@@.O@@@@@@@@@@.O@@@@@@@@@@.X                                                                    ",
"    .oo###ooo###oooX  .O@@@@@@.@@@.O@@@.@@@@@@.O@@@@..@@@@.X                                                                    ",
"    .o#ooo#o#ooo#ooX  .O@@@@@..@@@.O@@@..@@@@@.O@@.@..@.@@.X                                                                    ",
"    .o#ooo#o#ooo#ooX  .O@@@@...@@@.O@@@...@@@@.O@.@@..@@.@.X                                                                    ",
"    .oo###ooo###oooX  .O@@@....@@@.O@@@....@@@.O@.@....@.@.X                                                                    ",
"    .o#ooo#o#ooo#ooX  .O@@@@...@@@.O@@@...@@@@.O@.@@..@@.@.X                                                                    ",
"    .o#ooo#o#ooo#ooX  .O@@@@@..@@@.O@@@..@@@@@.O@@.@@@@.@@.X                                                                    ",
"    .oo###ooo###oooX  .O@@@@@@.@@@.O@@@.@@@@@@.O@@@....@@@.X                                                                    ",
"    .ooooooooooooooX  .O@@@@@@@@@@.O@@@@@@@@@@.O@@@@@@@@@@.X                                                                    ",
"    .ooooooooooooooX  .+...........+...........+...........X                                                                    ",
"    XXXXXXXXXXXXXXXX  XXXXXXXXXXXXXXXXXXXXXXXXXXXXXXXXXXXXXX                                                                    ",
"                                                                                                                                ",
"                                                                                                                                ",
"                                                                                                                                ",
"                                                                                                                                ",
"oooooooooooooooooooooooooooooooooooooooooooooooooooooooooooooooooooooooooo                                                      ",
"oooooooooooooooooooooooooooooooooooooooooooooooooooooooooooooooooooooooooo                                                      ",
"oo$$$$ooo####%o%$$$$&o%$$$$%o%####%o%$$$$%o%$$$$&o%$$$$%o%$$$$&o%$$$$&oooo                                                      ",
"o$oooo$o#oooo$o#oooo$o#oooo$o$oooo$o$oooo#o$oooo#o#oooo$o$oooo$o$oooo$oooo                                                      ",
"o$oooo$o#oooo$o#oooo$o#oooo$o$oooo$o$oooo#o$oooo#o#oooo$o$oooo$o$oooo$oooo                                                      ",
"o$oooo$o#oooo$o#oooo$o#oooo$o$oooo$o$oooo#o$oooo#o#oooo$o$oooo$o$oooo$oooo                                                      ",
"o%####%oo####%o%$$$$%o%$$$$%o%$$$$%o%$$$$%o%$$$$%oo####%o%$$$$%o%$$$$%oooo                                                      ",
"o$oooo$o#oooo$o$oooo#o#oooo$o#oooo$o#oooo$o$oooo$o#oooo$o$oooo$o#oooo$oooo                                                      ",
"o$oooo$o#oooo$o$oooo#o#oooo$o#oooo$o#oooo$o$oooo$o#oooo$o$oooo$o#oooo$oooo                                                      ",
"o$oooo$o#oooo$o$oooo#o#oooo$o#oooo$o#oooo$o$oooo$o#oooo$o$oooo$o#oooo$o$oo                                                      ",
"oo$$$$ooo####%o%$$$$%o%$$$$%oo####%o%$$$$%o%$$$$%oo####%o%$$$$%o%$$$$%o$oo                                                      ",
"oooooooooooooooooooooooooooooooooooooooooooooooooooooooooooooooooooooooooo                                                      ",
"oooooooooooooooooooooooooooooooooooooooooooooooooooooooooooooooooooooooooo                                                      ",
"                                                                                                                                ",
"oooooooooooooooooooooooooooooooooooooooooooooooooooooooooooooooooooooooooooooooooooooooooooooooooooooooooooooooooooooooooooooooo",
"oo$$$ooo###&o&$$$&o&$$$&o&###&o&$$$&o&$$$&o&$$$&o&$$$&o&$$$&ooooooo###ooo###ooooooo###ooo###ooooo###&o&###ooo&$$$ooo&$$$&o&###&o",
"o$ooo$o#ooo$o#ooo$o#ooo$o$ooo$o$ooo#o$ooo#o#ooo$o$ooo$o$ooo$oooooo#ooo#o#ooo#ooooo#ooo#o#ooo#ooo#ooo$o$ooo#oo$ooo#oo$ooo#o$ooo$o",
"o$ooo$o#ooo$o#ooo$o#ooo$o$ooo$o$ooo#o$ooo#o#ooo$o$ooo$o$ooo$oo$ooo#ooo#o#ooo#oo#oo#ooo#o#ooo#ooo#ooo$o$ooo#oo$ooo#oo$ooo#o$ooo$o",
"o&###&oo###&o&$$$&oo$$$&o&$$$&o&$$$&o&$$$&oo###&o&$$$&o&$$$&oo&oooo###ooo###ooo#ooo###ooo###ooooo$$$&o&$$$ooo&###ooo&$$$&o&###&o",
"o$ooo$o#ooo$o$ooo#o#ooo$o#ooo$o#ooo$o$ooo$o#ooo$o$ooo$o#ooo$oooooo#ooo#o#ooo#ooooo#ooo#o#ooo#ooo#ooo$o$ooo#oo$ooo#oo#ooo$o$ooo$o",
"o$ooo$o#ooo$o$ooo#o#ooo$o#ooo$o#ooo$o$ooo$o#ooo$o$ooo$o#ooo$oo$ooo#ooo#o#ooo#oo#oo#ooo#o#ooo#ooo#ooo$o$ooo#oo$ooo#oo#ooo$o$ooo$o",
"oo$$$ooo###&o&$$$&o&$$$&oo###&o&$$$&o&$$$&oo###&o&$$$&o&$$$&oo&oooo###ooo###ooo#ooo###ooo###ooooo###&o&###ooo&$$$ooo&$$$&oo#$#oo",
"oooooooooooooooooooooooooooooooooooooooooooooooooooooooooooooooooooooooooooooooooooooooooooooooooooooooooooooooooooooooooooooooo",
"                                                                                                                                ",
"                                                       OOOOOOOOOOO+OOOOOOOOOOO+OOOOOOOOOOO+                                     ",
"                                                       O@@@@@@@@@@.O@@@@@@@@@@.O@@@@@@@@@@.                                     ",
"                                                       O@@@@@@.@@@.O@@@.@@@@@@.O@@@@..@@@@.                                     ",
"                                                       O@@@@@..@@@.O@@@..@@@@@.O@@.@..@.@@.                                     ",
"                                                       O@@@@...@@@.O@@@...@@@@.O@.@@..@@.@.                                     ",
"                                                       O@@@....@@@.O@@@....@@@.O@.@....@.@.                                     ",
"                                                       O@@@@...@@@.O@@@...@@@@.O@.@@..@@.@.                                     ",
"                                                       O@@@@@..@@@.O@@@..@@@@@.O@@.@@@@.@@.                                     ",
"                                                       O@@@@@@.@@@.O@@@.@@@@@@.O@@@....@@@.                                     ",
"                                                       O@@@@@@@@@@.O@@@@@@@@@@.O@@@@@@@@@@.                                     ",
"                                                       +...........+...........+...........                                     ",
"                                                                                                                                ",
"                                                       ...........+...........+...........+                                     ",
"                                                       .@@@@@@@@@@*.@@@@@@@@@@*.@@@@@@@@@@*                                     ",
"                                                       .@@@@@@.@@@*.@@@.@@@@@@*.@@@@..@@@@*                                     ",
"                                                       .@@@@@..@@@*.@@@..@@@@@*.@@.@..@.@@*                                     ",
"                                                       .@@@@...@@@*.@@@...@@@@*.@.@@..@@.@*                                     ",
"                                                       .@@@....@@@*.@@@....@@@*.@.@....@.@*                                     ",
"                                                       .@@@@...@@@*.@@@...@@@@*.@.@@..@@.@*                                     ",
"                                                       .@@@@@..@@@*.@@@..@@@@@*.@@.@@@@.@@*                                     ",
"                                                       .@@@@@@.@@@*.@@@.@@@@@@*.@@@....@@@*                                     ",
"                                                       .@@@@@@@@@@*.@@@@@@@@@@*.@@@@@@@@@@*                                     ",
"                                                       +***********+***********+***********                                     ",
"                                                                                                                                ",
"                                                                                                                                ",
"                                                                                                                                ",
"                                                                                                                                ",
"                                                                                                                                ",
"                                                                                                                                ",
"                                                                                                                                ",
"                                                                                                                                ",
"                                                                                                                                ",
"                                                                                                                                ",
"                                                                                                                                ",
"                                                                                                                                ",
"                                                                                                                                ",
"                                                                                                                                ",
"                                                                                                                                ",
"                                                                                                                                ",
"                                                                                                                                "};
