/* XPM */
static char * led_on_xpm[] = {
"6 6 15 1",
" 	c None",
".	c #7D4141",
"+	c #A02F2F",
"@	c #9F2E2E",
"#	c #7A3E3E",
"$	c #C81B1B",
"%	c #F50404",
"&	c #C71A1A",
"*	c #783C3C",
"=	c #FF0000",
"-	c #9C2B2B",
";	c #9B2A2A",
">	c #C61919",
",	c #763A3A",
"'	c #793D3D",
" .+@# ",
".$%%&*",
"+%==%-",
"@%==%;",
"#&%%>,",
" '--, "};
