/* XPM */
static char * button_xpm[] = {
"23 11 4 1",
" 	c None",
".	c #000000",
"+	c #A7A7A7",
"@	c #FFFFFF",
"......................+",
".+++++++++++++++++++++@",
".+++++++++++++++++++.+@",
".+...+++++++++++++++.+@",
".+.++.++++++++++++++.+@",
".+.++.++..+++...++...+@",
".+...++.+..+.++.+.++.+@",
".+.++.+..+++.++.+.++.+@",
".+.++.++...++...++...+@",
".+++++++++++++++++++++@",
"+@@@@@@@@@@@@@@@@@@@@@@"};
