/* XPM */
static char * main_xpm[] = {
"64 64 6 1",
" 	c None",
".	c #000000",
"+	c #282828",
"@	c #C0C4C0",
"#	c #FFFFFF",
"$	c #A7A7A7",
"                                                                ",
"                                                                ",
"                                                                ",
"                                                                ",
"    .......................................................     ",
"    .++++++++++++++++++++++++++++++++++++++++++++++++++++++@    ",
"    .++++++++++++++++++++++++++++++++++++++++++++++++++++++@    ",
"    .++++++++++++++++++++++++++++++++++++++++++++++++++++++@    ",
"    .++.............+++++++++++++++++++++++++++++++++++++++@    ",
"    .++..+++++++++..+++.......+++......+++....++..+++++++++@    ",
"    .++...+++++++...+++..+..+..++..+++..+++..+++..+++++++++@    ",
"    .++.+..+++++..+.+++..+..+..++..+++..+++..+++..+++++++++@    ",
"    .++.++..+++..++.+++..+..+..++..+++..+++..+++..+++++++++@    ",
"    .++.++...+...++.+++..+..+..++.......+++..+++..+++++++++@    ",
"    .++.+..+...+..+.+++..++++..++..+++..+++..+++..+++++++++@    ",
"    .++...+++.+++...+++..++++..++..+++..+++..+++..+++++++++@    ",
"    .++..+++++++++..+++..++++..++..+++..++....++......+++++@    ",
"    .++.............+++++++++++++++++++++++++++++++++++++++@    ",
"    .++++++++++++++++++++++++++++++++++++++++++++++++++++++@    ",
"    .++++++++++++++++++++++++++++++++++++++++++++++++++++++@    ",
"    .++++++++++++++++++++++++++++++++++++++++++++++++++++++@    ",
"    .++++++++++++++++++++++++++++++++++++++++++++++++++++++@    ",
"    .++++++++++++++++++++++++++++++++++++++++++++++++++++++@    ",
"    .++++++++++++++++++++++++++++++++++++++++++++++++++++++@    ",
"    .++++++++++++++++++++++++++++++++++++++++++++++++++++++@    ",
"    .++++++++++++++++++++++++++++++++++++++++++++++++++++++@    ",
"    .++++++++++++++++++++++++++++++++++++++++++++++++++++++@    ",
"    .++++++++++++++++++++++++++++++++++++++++++++++++++++++@    ",
"    .++++++++++++++++++++++++++++++++++++++++++++++++++++++@    ",
"    .++++++++++++++++++++++++++++++++++++++++++++++++++++++@    ",
"    .++++++++++++++++++++++++++++++++++++++++++++++++++++++@    ",
"    .++++++++++++++++++++++++++++++++++++++++++++++++++++++@    ",
"    .++++++++++++++++++++++++++++++++++++++++++++++++++++++@    ",
"    .++++++++++++++++++++++++++++++++++++++++++++++++++++++@    ",
"    .++++++++++++++++++++++++++++++++++++++++++++++++++++++@    ",
"    .++++++++++++++++++++++++++++++++++++++++++++++++++++++@    ",
"    .++++++++++++++++++++++++++++++++++++++++++++++++++++++@    ",
"    .++++++++++++++++++++++++++++++++++++++++++++++++++++++@    ",
"    .++++++++++++++++++++++++++++++++++++++++++++++++++++++@    ",
"    .++++++++++++++++++++++++++++++++++++++++++++++++++++++@    ",
"    .++++++++++++++++++++++++++++++++++++++++++++++++++++++@    ",
"    .++++++++++++++++++++++++++++++++++++++++++++++++++++++@    ",
"    .++++++++++++++++++++++++++++++++++++++++++++++++++++++@    ",
"     @@@@@@@@@@@@@@@@@@@@@@@@@@@@@@@@@@@@@@@@@@@@@@@@@@@@@@@    ",
"                                                                ",
"                                                                ",
"                                                                ",
"    ...........................    ........................     ",
"    .++++++++++++++++++++++++++@   .######################$@    ",
"    .++++++++...+++...+++...+++@   .#$$$$$$$$$$$$$$$$$$$$$.@    ",
"    .+..++++.+++.+.+++.+.+++.++@   .#$$$$$$$$$$$$$$$$$$$+$.@    ",
"    .++..+++.+++.+.+++.+.+++.++@   .#$+++$$$$$$$$$$$$$$$+$.@    ",
"    .+++..++.+++.+.+++.+.+++.++@   .#$+$$+$$$$$$$$$$$$$$+$.@    ",
"    .++++..++...+++...+++...+++@   .#$+$$+$$++$$$+++$$+++$.@    ",
"    .+++..++.+++.+.+++.+.+++.++@   .#$+++$$+$++$+$$+$+$$+$.@    ",
"    .++..+++.+++.+.+++.+.+++.++@   .#$+$$+$++$$$+$$+$+$$+$.@    ",
"    .+..++++.+++.+.+++.+.+++.++@   .#$+$$+$$+++$$+++$$+++$.@    ",
"    .++++++++...+++...+++...+++@   .#$$$$$$$$$$$$$$$$$$$$$.@    ",
"    .++++++++++++++++++++++++++@   .$......................@    ",
"     @@@@@@@@@@@@@@@@@@@@@@@@@@@    @@@@@@@@@@@@@@@@@@@@@@@@    ",
"                                                                ",
"                                                                ",
"                                                                ",
"                                                                "};
