/* XPM */
static char * symbols_xpm[] = {
"51 12 3 1",
" 	c None",
".	c #20B2AA",
"+	c #282828",
"+++++++++++++++++++++++++++++++++++++++++++++++++++",
".............++++++++++++++++++++++++++++++++++++++",
"..+++++++++..+++.......+++......+++....++..++++++++",
"...+++++++...+++..+..+..++..+++..+++..+++..++++++++",
".+..+++++..+.+++..+..+..++..+++..+++..+++..++++++++",
".++..+++..++.+++..+..+..++..+++..+++..+++..++++++++",
".++...+...++.+++..+..+..++.......+++..+++..++++++++",
".+..+...+..+.+++..++++..++..+++..+++..+++..++++++++",
"...+++.+++...+++..++++..++..+++..+++..+++..++++++++",
"..+++++++++..+++..++++..++..+++..++....++......++++",
".............++++++++++++++++++++++++++++++++++++++",
"+++++++++++++++++++++++++++++++++++++++++++++++++++"};
