/* XPM */
static char * main_xpm[] = {
"64 64 100 2",
"      c None",
".     c #212121",
"+     c #222223",
"@     c #E6EAEE",
"#     c #DEE6EE",
"$     c #DEE2EE",
"%     c #DEE2E6",
"&     c #D5E2E6",
"*     c #D5DEE6",
"=     c #D5DAE6",
"-     c #D5DADE",
";     c #CDDADE",
">     c #CDD6DE",
",     c #CDD2DE",
"'     c #C5D2D5",
")     c #C5CED5",
"!     c #C5CAD5",
"~     c #BDCAD5",
"{     c #BDC6D5",
"]     c #BDC6CD",
"^     c #BDC2CD",
"/     c #EEF2EE",
"(     c #C5D2DE",
"_     c #5A5D62",
":     c #5A6162",
"<     c #5A595A",
"[     c #B4C2CD",
"}     c #5A555A",
"|     c #52555A",
"1     c #4A4C5A",
"2     c #B4BECD",
"3     c #EBEEEB",
"4     c #4A4C52",
"5     c #D5D6DE",
"6     c #4A505A",
"7     c #B4BEC5",
"8     c #E5E7E5",
"9     c #4A484A",
"0     c #E2E3E2",
"a     c #4A444A",
"b     c #E1E2E1",
"c     c #41404A",
"d     c #E1E1E1",
"e     c #393C4A",
"f     c #41444A",
"g     c #393C41",
"h     c #39404A",
"i     c #C5CEDE",
"j     c #393839",
"k     c #B4BAC5",
"l     c #393439",
"m     c #313039",
"n     c #293031",
"o     c #B3B9C4",
"p     c #ACBAC5",
"q     c #D4DDE5",
"r     c #292C31",
"s     c #D4DAE1",
"t     c #292829",
"u     c #D5D6E6",
"v     c #293039",
"w     c #D2D8DE",
"x     c #292429",
"y     c #ACB6C5",
"z     c #D1D6DC",
"A     c #202429",
"B     c #292C29",
"C     c #ACB6BD",
"D     c #D1D6D9",
"E     c #182020",
"F     c #C4CDD4",
"G     c #D1D6D8",
"H     c #181C20",
"I     c #CFD4D8",
"J     c #CED3D9",
"K     c #ACB2BD",
"L     c #CFD4DB",
"M     c #D0D3DA",
"N     c #313439",
"O     c #CDD4DC",
"P     c #CCD5DD",
"Q     c #BCC5D4",
"R     c #BCC5CC",
"S     c #ACAEBD",
"T     c #A4AEB4",
"U     c #A4AEBD",
"V     c #A4AAB4",
"W     c #4A555A",
"X     c #ACAEB4",
"Y     c #5A5D5A",
"Z     c #9CAAB4",
"`     c #626162",
" .    c #9CA5B4",
"..    c #62656A",
"+.    c #62696A",
"@.    c #7B8183",
"#.    c #6A6D73",
"$.    c #9CA1AC",
"%.    c #1F1E22",
"&.    c #26D526",
"                                                                                                                                ",
"                                                                                                                                ",
"                                                                                                                                ",
"      . . . . . . . . . . . . . . . . . . + + + + + + + + + + + + + + + + + + + + + . . . . . . . . . . . . . . . . . . .       ",
"      . @ @ @ @ @ # # # # # $ $ $ % % & & * * * * * * * = = = = - ; > > > > > , , , , ' ) ) ) ) ! ! ! ! ! ~ { ] ] ] ^ ^ /       ",
"      . @ @ @ @ # # # # # $ $ $ % % % & * * * * * * * = = = = - - > > > > > > , , , ( ) ) ) ) ) ! ! ! ! ~ { ] ] ] ] ^ ^ /       ",
"      . @ @ @ # # # # # $ $ $ % % % & & * * * * * * * = = = = = ; > > > > > > , , , , ' ) ) ) ! ! ! ! ~ { ] ] ] ] ] ^ ^ /       ",
"      . @ @ # # # # # $ $ $ % % % & & * * * * * * * = = = = = - > > > > > > , , , , ' ) ) ) ) ! ! ! ~ { ] ] ] ] ] ^ ^ ^ /       ",
"      . @ # # # # # $ $ $ _ / % % % * * * * * * * * = = = = = : / > > > > > , , , , ' ) ) ) ! ! ! _ / { ] ] ] ] ^ ^ ^ ^ /       ",
"      . # # # # # $ $ $ $ < / % % * * * * * * * * = = = = = - _ / > > > > > , , , ( ) ) ) ) ) ! ! < / ] ] ] ] ^ ^ ^ ^ [ /       ",
"      . # # # # $ $ $ $ $ } / % * * * * * * * * = * = = = = = < / > > > > , , , , ( ) ) ) ) ! ! ! } / ] ] ] ^ ^ ^ ^ ^ [ /       ",
"      . # # # $ $ $ $ $ % | / & * * * * * * * * * = = = = = - < / > > > > > , , , ' ) ) ) ) ! ! ~ | / ] ] ^ ^ ^ ^ ^ [ [ /       ",
"      . # # $ $ $ $ % % % 1 / & * * * * * * * * * = = = = = - | / > > > > , , , , ) ) ) ) ! ! ! ! 1 / ] ] ^ ^ ^ ^ [ [ 2 3       ",
"      . # $ $ $ $ % % % % 4 / * * * * * * * * * = = = = = - 5 6 / > > > > , , , , ) ) ) ) ! ! ! ~ 4 / ] ^ ^ ^ ^ [ [ 2 7 8       ",
"      . $ $ $ $ % % % % & 9 / * * * * * * * * = = = = = = = 5 4 / > > > , , , , ( ) ) ) ) ! ! ! ~ 9 / ] ] ^ ^ ^ [ 2 7 7 0       ",
"      . $ $ $ % % % % & & a / * * * * * * * = = = = = = = - 5 9 / > > > , , , , ' ) ) ) ) ! ! ~ { a / ] ^ ^ ^ [ 2 7 7 7 b       ",
"      . $ $ % % % & & & * c / * * * * * * = = = = = = = = - > 9 / > > > > , , ( ) ) ) ) ) ! ! ~ { c / ] ^ ^ ^ [ 2 7 7 7 d       ",
"      . $ % % % & & * * * e / * * * * * = * = = = = = = - 5 > f / > > > , , , ( ) ) ) ) ! ! ! { { e / ^ ^ ^ [ [ 2 7 7 7 d       ",
"      . % % % & & * * * * g / * * * * = * = = = = = = - = > > h / > > > , , , i ) ) ) ) ! ! ~ ~ ] g / ^ ^ ^ ^ 2 7 7 7 7 d       ",
"      . % & & & * * * * * j / * * * = * = = = = = = = = 5 > > g / > > , , , , ' ) ) ) ! ! ! ! { ] j / ^ ^ ^ [ 2 7 7 7 k d       ",
"      . & & * * * * * * * l / * * * * = = = = = = = = - 5 > > g / > > , , , ( ) ) ) ) ! ! ! ~ ] ] l / ^ ^ ^ 2 7 7 7 k k b       ",
"      . * * * * * * * * * m / * * * = = = = = = = = = 5 5 > > j / > , , , , ' ) ) ) ) ! ! ~ { ] ] m / ^ ^ [ 7 7 7 7 k k 0       ",
"      . * * * * * * * * * n / * = = = = = = = = = = 5 - > > > l / > > , , , i ) ) ) ! ! ! ~ { ] ] n / ^ [ 2 2 7 7 o k p 8       ",
"      . q * * * * * * * * r / = = = = = = = = = = 5 - > > > > m / > , , , ( ) ) ) ) ! ! ~ { ] ] ] r / ^ [ 2 7 7 7 k k p 3       ",
"      . s * * * * * * * * t / = = = = = = = = = u - > > > > > v / > , , , i ) ) ) ! ! ! ~ { ] ] ^ t / ^ [ 7 7 7 k k p p /       ",
"      . w * * * * = * = = x / = = = = = = = - = - > > > > > > n / , , , , ' ) ) ) ! ! ~ ~ ] ] ] ^ x / ^ 2 7 7 k k k p y /       ",
"      . z * * = = = = = = A / = = = = = = 5 - 5 > > > > > > > B / , , , , ) ) ) ! ! ! ~ ] ] ] ^ ^ A / [ 7 7 7 k k k y C /       ",
"      . D = = = = = = = = E / = = = = 5 - - > > > > > > > > > t / , , , ( ) ) F ! ! ! { ] ] ] ^ ^ E / 2 7 7 7 k k p C C /       ",
"      + G = = = = = = = = H / - = - 5 - > > > > > > > > > > > t / , , ( ) ) ) ) ! ! ~ { ] ] ] ^ ^ H / 2 7 7 k k p y C C /       ",
"      + I = = = = = = = = E / 5 5 5 > > > > > > > > > > > > > B / , , i ) ) ) ! ! ! { ] ] ] ^ ^ ^ E / 7 7 7 k k p y C C /       ",
"      + I = = = = - = - - A / 5 > > > > > > > > > > > > > > > r / , ( ) ) ) ) ! ! ~ ] ] ] ^ ^ ^ [ A / 7 7 k k p p C C C /       ",
"      . J = = - = - ; > 5 x / > > > > > > > > > > > > , > , , n / ( ' ) ) ) ! ! ~ ~ ] ] ] ^ ^ ^ [ x / 7 k k p p C C C K /       ",
"      . L - - - > > > > > t / > > > > > > > > > > , > , , , , m / ' ) ) ) ! ! ! ~ ] ] ] ^ ^ ^ [ 2 t / k k k p y C C K K /       ",
"      . M - > > > > > > > r / > > > > > > > , , , , , , , , ( N / ) ) ) ! ! ! ~ { ] ] ^ ^ ^ [ [ 2 r / k k p p C C C K K /       ",
"      . O > > P P > > > > n / > > > > > > , , , , , , , , ( ' j / ) ) ! ! ! ! Q ] ] ^ ^ ^ ^ [ 2 7 n / k p p y C C K K K /       ",
"      . > > > > > > > > > m / > > > , , , , , , , , ( ( ) ) ) j / ) ! ! ! ! { R ] ] ^ ^ ^ ^ 2 7 7 m / k p y C C C K K S /       ",
"      . > > > > > > > > > l / > , , , , , , , , ( ( ) ) ) ) ) g / ! ! ! ! { ] ] ] ^ ^ ^ ^ 2 7 7 7 l / p y C C C K K S S /       ",
"      . > > > > > > > , , j / , , , , , , , ( ' ) ) ) ) ) ) ) h / ! ! ~ { ] ] ] ^ ^ ^ ^ [ 2 7 7 k j / y y C C K K K S S /       ",
"      . > > > > > , , , , g / , , , , , ( ) ) ) ) ) ) ) ) ! ! f / ! ~ { ] ] ] ^ ^ ^ ^ [ 2 7 7 7 k g / y C C C K K S S S /       ",
"      . > > , , , , , , , h / , , ' ' ) ) ) ) ) ) ) ) ) ! ! ! a / ~ { ] ] ] ^ ^ ^ ^ [ 2 7 7 7 k k h / C C C K K K S S T /       ",
"      . , , , , , , , , , f / ' ' ) ) ) ) ) ) ) ) ) ! ! ! ! ! 9 / ] ] ] ] ^ ^ ^ ^ [ 2 2 7 7 k k p f / C C K K K S S T T /       ",
"      . , , , , , , ( ' ( a / ) ) ) ) ) ) ) ) ) ! ! ! ! ! ! ~ 9 / ] ] ] ^ ^ ^ ^ [ 2 2 7 7 k k p p a / C K K K S S U T V /       ",
"      . , , , , ( ' ) ) ) 9 / ) ) ) ) ) ) ) ! ! ! ! ! ! ~ { { 4 / ] ] ^ ^ ^ ^ [ 2 7 7 7 k k p p C 9 / K K K S S S T T V /       ",
"      . , ( ( ' ) ) ) ) ) 4 / ) ) ) ) ! ! ! ! ! ~ ! ~ { { ] ] W / ^ ^ ^ ^ ^ [ 2 7 7 7 k k p p y C 4 / K K S S S T T V V /       ",
"      . ( ' ) ) ) ) ) ) ) 6 / ) ) ! ! ! ! ! ! ! ~ { ] ] ] ] ] | / ^ ^ ^ [ [ 2 7 7 7 k k p p y C C 6 / K K S S X T V V V /       ",
"      . ' ) ) ) ) ) ) ) ) | / ! ! ! ! ! ! ~ ~ { { ] ] ] ] ] ^ < / ^ ^ [ [ 2 7 7 7 k k p p y C C C | / K S S S T V V V V /       ",
"      . ) ) ) ) ) ) ) ! ! < / ! ! ! ~ ~ ~ { { ] ] ] ] ] ] ^ ^ Y / [ [ 2 2 7 7 7 k k p p y C C C K < / S S S T T V V V Z /       ",
"      . ) ) ) ) ) ! ! ! ! < / ! ~ ~ ~ ] { ] ] ] ] ] ] ^ ^ ^ ^ _ / [ 7 7 7 7 7 k k k p y C C C K K < / S S T T V V V Z Z /       ",
"      . ) ) ) ! ! ! ! ! ! _ / ~ { ] { ] ] ] ] ] ] ^ ^ ^ ^ ^ [ ` / 7 7 7 7 7 k k p y y C C C K K K _ / S T T V V V Z Z  ./       ",
"      . ) ) ! ! ! ! ! ~ ~ ` / { ] ] ] ] ] ] ] ^ ^ ^ ^ ^ ^ [ [ ../ 7 7 7 k k k p y y C C C K K K S ` / T T V V V Z Z  . ./       ",
"      . ) ! ! ! ! ! ~ ~ { ../ ] ] ] ] ] ^ ^ ^ ^ ^ ^ ^ [ [ 2 7 +./ 7 7 k k k p y C C C C K K K S S ../ T V V V Z Z  . . ./       ",
"      . ! ! ! ! ! ~ { { ] @./ ] ] ] ^ ^ ^ ^ ^ ^ ^ [ [ [ 2 7 7 #./ 7 k k k p y C C C C K K K S S S +./ V V V Z Z  . . . ./       ",
"      . ! ! ! ! ~ { { ] ] ] ] ^ ^ ^ ^ ^ ^ ^ ^ ^ [ [ 2 7 7 7 7 7 k k k p p y C C C C K K K S S S T T V V V Z Z  . . . . ./       ",
"      . ! ! ~ ~ { { ] ] ] ] ^ ^ ^ ^ ^ ^ ^ [ [ [ 2 7 7 7 7 k k k k k p y y C C C K K K K S S X T T V V V Z Z  . . . . .$./       ",
"      . ! ~ ~ { { ] ] ] ] ^ ^ ^ ^ ^ ^ [ [ 2 7 2 7 7 7 7 7 k k k p p y C C C C K K K K S S U T V V V V Z Z  . . . . .$.$./       ",
"      . ~ ~ { { ] ] ] ] ^ ^ ^ ^ ^ [ [ 2 2 2 7 7 7 7 k k k k k p y y C C C K K K K S S S S T T V V V Z Z  . . . . .$.$.$./       ",
"      . / / / / / / / / / / / / / / / / / / / / / / / / / / / / / / / / / / / / / / / / / / / / / / / / / / / / / / / / /       ",
"        %.      %.  %.  %.    %.  %.%.%.  %.%.%.                                                                                ",
"        %.%.  %.%.  %.  %.    %.  %.      %.    %.                                                              %.%.%.%.        ",
"        %.  %.  %.  %.    %.%.    %.%.%.  %.%.%.                                                                %.&.&.&.        ",
"        %.      %.  %.  %.    %.  %.      %.    %.                                                              %.&.&.&.        ",
"        %.      %.  %.  %.    %.  %.%.%.  %.    %.                                                                              ",
"                                                                                                                                ",
"                                                                                                                                "};
