/* XPM */
static char *defaultIcon_xpm[] = {
/* width height num_colors chars_per_pixel */
"    43    48      247            2",
/* colors */
".. c #040204",
".# c #44863c",
".a c #34420c",
".b c #58c404",
".c c #746a0c",
".d c #0f2217",
".e c #476a3f",
".f c #343204",
".g c #aecc04",
".h c #344454",
".i c #a08a04",
".j c #1c223c",
".k c #c4c6ac",
".l c #54591b",
".m c #9c9c9e",
".n c #3c562c",
".o c #4caa24",
".p c #446e4c",
".q c #2c3516",
".r c #3c433a",
".s c #8ac604",
".t c #3c5460",
".u c #0c131a",
".v c #74881c",
".w c #343949",
".x c #242304",
".y c #eac404",
".z c #dce6ec",
".A c #243245",
".B c #acaeac",
".C c #141304",
".D c #c1a604",
".E c #7c838c",
".F c #5c6254",
".G c #444649",
".H c #447c44",
".I c #7ce404",
".J c #0c2226",
".K c #543e34",
".L c #545655",
".M c #646e7c",
".N c #c8ce04",
".O c #3c427c",
".P c #ccd2d8",
".Q c #5cda04",
".R c #141524",
".S c #8c929c",
".T c #44490d",
".U c #846654",
".V c #b4ba9c",
".W c #343c68",
".X c #e0d804",
".Y c #243254",
".Z c #5c636c",
".0 c #242627",
".1 c #1c2531",
".2 c #444a54",
".3 c #1c2b3d",
".4 c #9cc204",
".5 c #f4f4f4",
".6 c #040a0b",
".7 c #6c8514",
".8 c #3c4a34",
".9 c #647e14",
"#. c #848b91",
"## c #ac8664",
"#a c #bcc2cc",
"#b c #9ca6ac",
"#c c #3c5248",
"#d c #445878",
"#e c #1a1b04",
"#f c #484e10",
"#g c #b0df04",
"#h c #b49604",
"#i c #363e46",
"#j c #444d34",
"#k c #545a61",
"#l c #c8db04",
"#m c #60e904",
"#n c #a47e64",
"#o c #6c6a6c",
"#p c #040a14",
"#q c #69c304",
"#r c #69630c",
"#s c #7ca21c",
"#t c #2c3a1c",
"#u c #ececed",
"#v c #d4dadc",
"#w c #747981",
"#x c #b4bbbf",
"#y c #383e28",
"#z c #fcd404",
"#A c #646a6f",
"#B c #242c2c",
"#C c #2c2e4f",
"#D c #70e904",
"#E c #84770c",
"#F c #3c4d59",
"#G c #9e9e06",
"#H c #544a44",
"#I c #9ca2a8",
"#J c #34464c",
"#K c #8ecb04",
"#L c #445e64",
"#M c #041c15",
"#N c #bcb6b4",
"#O c #a0dd04",
"#P c #343e11",
"#Q c #141c25",
"#R c #1c2a33",
"#S c #dabb04",
"#T c #64921c",
"#U c #747e84",
"#V c #3c4722",
"#W c #4c545d",
"#X c #f5cb04",
"#Y c #2c364c",
"#Z c #acb0b5",
"#0 c #142a34",
"#1 c #949ca0",
"#2 c #2c3a5e",
"#3 c #646664",
"#4 c #242c3f",
"#5 c #6c7a24",
"#6 c #919e0c",
"#7 c #69b904",
"#8 c #747637",
"#9 c #948a04",
"a. c #499a21",
"a# c #52d104",
"aa c #64d604",
"ab c #545644",
"ac c #5c622c",
"ad c #a4d004",
"ae c #8ca60c",
"af c #5cb604",
"ag c #1b2d14",
"ah c #444a8c",
"ai c #342a24",
"aj c #54782c",
"ak c #c4ccd0",
"al c #3c5e3c",
"am c #646a2c",
"an c #dcce04",
"ao c #bcb204",
"ap c #c4a204",
"aq c #2c2c04",
"ar c #645e0c",
"as c #5c7830",
"at c #4c522c",
"au c #ac9604",
"av c #fcfafb",
"aw c #1c2204",
"ax c #ac9204",
"ay c #446667",
"az c #d4d604",
"aA c #ecd404",
"aB c #bcdd04",
"aC c #3c4374",
"aD c #384d4a",
"aE c #4c5a3c",
"aF c #6c7684",
"aG c #6c8a14",
"aH c #2c322f",
"aI c #94c404",
"aJ c #cca904",
"aK c #d4da04",
"aL c #e4bd04",
"aM c #748e0c",
"aN c #646a54",
"aO c #545e3c",
"aP c #74d604",
"aQ c #ccb204",
"aR c #39393b",
"aS c #181c1c",
"aT c #474b4c",
"aU c #242e18",
"aV c #ccceb4",
"aW c #484e55",
"aX c #8c7e04",
"aY c #b4b6b6",
"aZ c #5e7e2c",
"a0 c #7c720c",
"a1 c #b4d204",
"a2 c #c7d604",
"a3 c #a4ca04",
"a4 c #dbb604",
"a5 c #445e6c",
"a6 c #444e20",
"a7 c #373e59",
"a8 c #62ee04",
"a9 c #74aa1c",
"b. c #383e3c",
"b# c #a3e204",
"ba c #4cd604",
"bb c #9fd604",
"bc c #343234",
"bd c #648a2c",
"be c #141519",
"bf c #2c3b34",
"bg c #3c4264",
"bh c #5c560c",
"bi c #e4e4e4",
"bj c #b4b29c",
"bk c #84868d",
"bl c #14252f",
"bm c #6c7278",
"bn c #3c3a04",
"bo c #949699",
"bp c #3c3e71",
"bq c #8c8e9a",
"br c #a4a7a6",
"bs c #5c5d60",
"bt c #dcdede",
"bu c #bcbcbc",
"bv c #1c1e33",
"bw c #445d41",
"bx c #7cea04",
"by c #64625c",
"bz c #a4a2a3",
"bA c #3c3e06",
"bB c #7c7e85",
"bC c #5c5e4c",
"bD c #3c440a",
"bE c #24253e",
"bF c #cccab0",
"bG c #445a28",
"bH c #445264",
"bI c #444683",
"bJ c #d4d3d4",
"bK c #4c4a0f",
"bL c #bcbea4",
"bM c #2c3658",
"bN c #0c0c08",
"bO c #c4c4c4",
"bP c #4c4e3c",
"bQ c #0c0d14",
"bR c #f4eeec",
"bS c #2c2c32",
"bT c #8c7a04",
"bU c #3c4349",
"bV c #0c1e1a",
"bW c #6c9520",
"bX c #4c4b8e",
"bY c #cccdcc",
"bZ c #6c6e34",
"b0 c #647a2c",
/* pixels */
".....................6bN.x#M#M#M#M#M#M#M#M#M#M#M#M#M#M#M.6bNbN........................",
"...................C#P#M#M#MbVagagagagagagagagagagagbVbVbV.J.q#e.C....................",
"...............Caw.a#M#MaU.q#P.Da4a4a4a4a4a4a4a4a4aJ.T#t.q.Jbl.J#V#e..................",
"............#ebD#M#M#M.q#h#SaL#X#z#z#z#z#z#z#z#z#z#X.y#S.D#V#ybl#0#V#e................",
"...........CbD#M#M.q.T#h#X#z#z#z#X#X.y#X.y#X#X#X#z#z#zaAaA#S#G#V.3.3a6aw..............",
"..........bD#M#M.q.iaL#X#z#X#Xa4aXbTbTbTbTbTbTapaLaA#zaAaA.Xan#G.8.3.A#faw............",
"........#ebD#M#t.i.y#z#z#zaLbTar#M#M#M#M#M#MbVbKa0aQanaA.X.X.X.N#G#j.A.Y.T............",
"#8#8#8bZac#MbV#raL#z#z#z.y.cbV#M#M#MaSaSblbV#MbV.J#9an.X.X.X.Xaz.N#6#j.Yatbh.l.l.l.l.l",
"#u#ubiaYaD#M#Pax#X#z#z#za4ag#M#Mbl.1bc.raTaT#i#0.J#faoan.XaK#l#l#l.g#5bMbM.M.m#Z#Z#Zbs",
".zbibt.S#M#MaraL#z#z#z#za4ag#MbVbS.G#3bkbobzbqbUblbl#GazazaKaK#la2a1.7bMbM#AaYbtbibi#W",
"bt#v.MaT#M#Pau#X#z#z#z#z#X#EbVbVbS.LbB.m.B#xaYbkbfbl#Gaz#laK#l#l#la1aeaEbMbs#Zbi.5.5#W",
"#vbY.AblbV#fa4#X#z#z#z#z#XaQbV#Mbc#3bq.m#Z#xbu#Z#Fbl#6.N#l#l#laBaBaBadb0.WaWbzbiavav#W",
"#vbY.L#i#Maw#E#X#z#z#z#z#za4bV#MbN.1.0#BbSaHbcaH#R#R#6a2#l#laBaB#g#gadb0#2bEbmbY.5.5aW",
".PbJ.ZaT#M#Mar.y#z#z#z#z#zapbVbV.6#Q.1#B.3#4#R.jbl.3#6#l#laBaB#g#g#gaIas.W.RbybObiavaW",
"akbJ#3.Lbf#Mbha4#X#z#z#XaJ.q#M#MbN#Q.3.A.A.A#4#R.3.3#6a1aB#g#g#g#gbbbW.W.W#Q#3bObR.5aT",
"bObJbybybU#M.d#raJa4a4ap#t#M#M#M#p#Q#4.A.A#4.3bl.3.3ae#gaB#g#g#g#Obbbd.Wbp.RbsbO#u.5aW",
"#abJ#3.Z.rbV#M#M#M#M#M#M#MbV#MbNbQ.1#C#Y#4.1#0.3.AaM.g#g#g#g#gb#b#.sajbpbE.6#3bO#u.5aT",
"#xbJ#3bybsaR#MbV#MbV#MbV#M#M.6ai.K.U###n#H.3#0aH.v.g#g#g#g#gb##O.sasbp.WbEbN#obJbR.5aT",
"#xbJ#3by#3.r.u#4.j#QbQbQbNbQbQbNbQ.ube#Qbl.3.AaGa3#g#g#g#gb#b#.sajbg.W.WbE.6bBbtbR.5.2",
"#Z.P#3by#3.rbl.A#4#R.j#Q.R#Q#Q.u.u#Q#Q.3#0bf.7a3#g#g#gb#b##O.saZ.Wbp.WbEbebN#.#u.5.5.2",
"#ZbJ#3by#3bU#Q#Y.A.A#4#4.3#4.3#Q#Q#Qbl#0bf.9a3#g#g#gb##Obb.saZ.hbp#2.jbQ.0bQ.mbR.5.5.G",
"brbJ#3by#o.r#Q.A#Y.A.A#Y.A.A#C#Q#Q#Qblbf.9a3#g#gb##Obb#KbWaj.Wbp.Wbv#paSaRbebz.5.5.5.G",
"#bbJ.Z#3by.G#Q#Y#4#Y.A#Y.A#Y.A#Q#Qbl.3bG.4#g#g#Obb#K#Taj.h.W.W#2.j#pbQ.0aTaSbr.5.5.5.G",
"#IbJby#3#3b.#Q#Y.A.A#Y.A#Y.A#Y#Q#Q.3bfaGad#g#OadbWaj.h#2.W.W.jbvbQ.u.RaRbC.0bz.5.5avbU",
"#1bJ#3by#3.G#Q.A.A#Y.A#Y.A#Y.A#Q#Q.3.naI#gb#bb#T#JbM.W.Wbvbv#p.u.ubv.1.2by.0bz.5.5.5.G",
".SbJ#3#3#3b.#Q.A#Y.A#Y.A#Y.A#Y#Q#Q.3bGaIb#b##K.ebM.Wbv#Q.6#p.R#Q.j.3#4.2#3.0bz.5.5.5bU",
".SbJ#3by#3.G#Q#Y#4#Y.A#Y.A#Y#4#Q#Q.3aD#s#K#Ka9bw.W#Q#p..#pbQ.1#4#4.A.A.2#3.0bz.5.5.5.G",
"#.bJ#3#3#3b.#Q#Y.A.A#Y.A#Y.A#Y#Q.R.A#YaDbGbw#c.W.W.u..bQ.u#Q.A.A.A.A#C.2#3.0bz.5.5.5bU",
"bkbJ#3by#3.G#Q.A.A#Y.A#Y.A#Y.A#Q#Q.Y.A.YbMbM#2.W.WbQ#pbQ.R#Q.A.A#Y.A.AbM.w.RbzbR.5.5.G",
".EbJ#3by#ob.#Q.A#Y.A#Y.AbM.A#Y#Q.Rbv.WbMbMbM.W.Wbv.6bQ.u#QbvbM.A.A.A#Y.A#Ybebz.5bR.5bU",
"#UbJ#3.Zby.G#Q#Y.A#Y.A#Y.A#Y.A#Q#Q.Y.YbMbMbM.W.W.WbQbQ.R#Q#Q#Y#4#Y.A.A#4.A.ubzbRbR.5.G",
"#wbJ#3by#3b.#Q#Y.A.A#Y.A#Y.A#Y.R.AbMbMbMbM.W.W.Wbpbp#Q.R#Q#Q#Y.A.A.A.A#Y.Abe.m.5#u.5.2",
"#wbJ#3#3#3.G#Q#Y#Y#Y#Y#Y#Y#Y.A.1bMbMal#7#q#qaf.e.Obp.O#4.A.A#Y.A.A#C.A.A.A.ubz#ubR.5aT",
"aFbJ#3by#3b.bc#3by#3#3#3#3#3.LbM.YaD#7.Ibx.I#D.b.p.ObI#4.A.A#Y.A.A#4#Y.A#Y.ubz#u#u.5aW",
"#wbJ#3#3#3.G#B.L#H.L.L.L.L.LaTbM#2.eaP.Ibx#D#D#D.b#LbIbIbv.1#4.j#4.3.1bE.1bQbz#u.5bRaW",
"#w.P.L#k.LaRbQbQbQbQbe.R.0bS.0bMaD#7.I#D#D#D#D#ma##LbIahaSbcaRaRaRaRaRaRaRaRaY.5.5.5.G",
"#wbY.A.A#Y.A.A#Ya7#FbH#k.Z.M.ZbMaD#q#D#D#Da8a8a8a#aybXbX#obY.5avavavavavavavavavavavbU",
"#wbJaF.MbmbmaFaFaFbB.E#.bq.SbB#2.ha.aa#D#Da8#m#ma#ayahbpbs#Nbi.5bR.5.5.5.5.5.5bR.5.5bU",
"#wbibibibibibibibibibibibibibu.W.W#Fa..Q#ma8#mbaa.#dbXbS.Lbr#vbibibibibibibibibibibibU",
"#W.Sbqbqbqbqbqbqbq.Sbq.S.SbqbB.Y.Wbp#Fa.baa#.o.##dbXbXaS.w#3bkbqbq#.bqbq#.bqbq#.bqbq.w",
".T.T.T.T.T.T.T.TaO#k#W#W#WbH.2#ia7.WaC.t.H.Ha5bIahbX#CbQbQ#Q.1.1.1.1#V.T.T.T.T.T.T.T#f",
"................ambB#wbs#A.Zbs#k.Ga7.ObpbIbIbIbX#C.j#p#p.u#Q#Q#Q.J#Q.T................",
"................aq.T.TbD#o.Zbs#kaW.Ga7.w#CbE.j.jbQ#pbNbQ.u#Q#BbAbnbnaq................",
"........................aN.Z#k.GaW.GbU.wbS.1#QbQbQbQbQ.RbV#QaU........................",
"........................aq.f.fbA#w.M#k.G#Y.1aS.u.R.ubVbnaqaqaq........................",
"..............................#ebkbm#kaTaR.1#Q#QbV#Q#Q.C..............................",
".......faV.kaVbF.kaVbF.k.kbL.VbjaY.B#I#1bq.EbB#wbm#A.ZaN.FaOabbP#j.r#y#taH#y#jaq......",
"......bDbibibibibibibibibibibibibtbJbYbY#abuaY.Bbz.mbobq#.bB#wbm#A.Z#k#WaTaTbU.f......"
};
