/* XPM */
static char * defaultTile_xpm[] = {
"64 64 130 2",
"  	c #FFFFFFFFFFFF",
". 	c #A7A7A7A7B2B2",
"X 	c #A6A6A6A6B2B2",
"o 	c #A6A6A6A6B1B1",
"O 	c #A5A5A5A5B0B0",
"+ 	c #A4A4A4A4B0B0",
"@ 	c #A4A4A4A4AFAF",
"# 	c #A3A3A3A3AFAF",
"$ 	c #A3A3A3A3AEAE",
"% 	c #A2A2A2A2AEAE",
"& 	c #A1A1A1A1ADAD",
"* 	c #A1A1A1A1ACAC",
"= 	c #A0A0A0A0ACAC",
"- 	c #9F9F9F9FABAB",
"; 	c #9E9E9E9EAAAA",
": 	c #9D9D9D9DAAAA",
"> 	c #9D9D9D9DA9A9",
", 	c #9C9C9C9CA8A8",
"< 	c #9B9B9B9BA7A7",
"1 	c #9A9A9A9AA7A7",
"2 	c #9A9A9A9AA6A6",
"3 	c #99999999A5A5",
"4 	c #98989898A5A5",
"5 	c #98989898A4A4",
"6 	c #97979797A4A4",
"7 	c #97979797A3A3",
"8 	c #96969696A3A3",
"9 	c #95959595A2A2",
"0 	c #95959595A1A1",
"q 	c #94949494A1A1",
"w 	c #93939393A0A0",
"e 	c #929292929F9F",
"r 	c #919191919F9F",
"t 	c #919191919E9E",
"y 	c #909090909D9D",
"u 	c #8F8F8F8F9C9C",
"i 	c #8E8E8E8E9C9C",
"p 	c #8E8E8E8E9B9B",
"a 	c #8D8D8D8D9A9A",
"s 	c #8C8C8C8C9A9A",
"d 	c #8C8C8C8C9999",
"f 	c #8B8B8B8B9999",
"g 	c #8A8A8A8A9898",
"h 	c #898989899797",
"j 	c #898989899696",
"k 	c #888888889696",
"l 	c #878787879595",
"z 	c #868686869494",
"x 	c #858585859494",
"c 	c #858585859393",
"v 	c #848484849292",
"b 	c #838383839191",
"n 	c #828282829191",
"m 	c #828282829090",
"M 	c #818181819090",
"N 	c #474747475555",
"B 	c #808080808F8F",
"V 	c #808080808E8E",
"C 	c #7F7F7F7F8E8E",
"Z 	c #7E7E7E7E8D8D",
"A 	c #7D7D7D7D8C8C",
"S 	c #A2A2A2A2ADAD",
"D 	c #9B9B9B9BA8A8",
"F 	c #8F8F8F8F9D9D",
"G 	c #838383839292",
"H 	c #818181818F8F",
"J 	c #7C7C7C7C8B8B",
"K 	c #7B7B7B7B8A8A",
"L 	c #7A7A7A7A8989",
"P 	c #797979798888",
"I 	c #787878788787",
"U 	c #96969696A2A2",
"Y 	c #8D8D8D8D9B9B",
"T 	c #8A8A8A8A9797",
"R 	c #7E7E7E7E8C8C",
"E 	c #777777778787",
"W 	c #777777778686",
"Q 	c #767676768686",
"! 	c #757575758585",
"~ 	c #757575758484",
"^ 	c #747474748484",
"/ 	c #747474748383",
"( 	c #7A7A7A7A8A8A",
") 	c #767676768585",
"_ 	c #737373738383",
"` 	c #727272728282",
"' 	c #727272728181",
"] 	c #717171718181",
"[ 	c #707070708080",
"{ 	c #6F6F6F6F7F7F",
"} 	c #6E6E6E6E7F7F",
"| 	c #8B8B8B8B9898",
" .	c #848484849393",
"..	c #7F7F7F7F8D8D",
"X.	c #787878788888",
"o.	c #737373738282",
"O.	c #6E6E6E6E7E7E",
"+.	c #6D6D6D6D7D7D",
"@.	c #6C6C6C6C7D7D",
"#.	c #6C6C6C6C7C7C",
"$.	c #6B6B6B6B7C7C",
"%.	c #6B6B6B6B7B7B",
"&.	c #6A6A6A6A7A7A",
"*.	c #696969697A7A",
"=.	c #888888889595",
"-.	c #6A6A6A6A7B7B",
";.	c #696969697979",
":.	c #686868687979",
">.	c #676767677878",
",.	c #676767677777",
"<.	c #666666667777",
"1.	c #656565657676",
"2.	c #646464647575",
"3.	c #636363637474",
"4.	c #626262627373",
"5.	c #616161617272",
"6.	c #606060607272",
"7.	c #606060607171",
"8.	c #5F5F5F5F7070",
"9.	c #797979798989",
"0.	c #6D6D6D6D7E7E",
"q.	c #686868687878",
"w.	c #616161617373",
"e.	c #5E5E5E5E7070",
"r.	c #5E5E5E5E6F6F",
"t.	c #5D5D5D5D6F6F",
"y.	c #5C5C5C5C6E6E",
"u.	c #5C5C5C5C6D6D",
"i.	c #5B5B5B5B6D6D",
"p.	c #000000000000",
"                                                                                                                                ",
"  . . X o O + @ # $ % & * = - ; ; : > , < < 1 2 3 4 5 6 7 8 9 0 q w e e r t y u u i p a s d f g h h j k l z z x c v b b n m M N ",
"  . X o O + @ # $ % & * = - ; ; : > , < < 1 2 3 4 5 6 7 8 9 0 q w e e r t y u u i p a s d f g h h j k l z z x c v b b n m M N N ",
"  X o O + @ # $ % & * = - ; ; : > , < < 1 2 3 4 5 6 7 8 9 0 q w e e r t y u u i p a s d f g h h j k l z z x c v b b n m M B N N ",
"  o O + @ # $ % & * = - ; ; : > , < < 1 2 3 4 5 6 7 8 9 0 q w e e r t y u u i p a s d f g h h j k l z z x c v b b n m M B V N N ",
"  O + @ # $ % & * = - ; ; : > , < < 1 2 3 4 5 6 7 8 9 0 q w e e r t y u u i p a s d f g h h j k l z z x c v b b n m M B V C N N ",
"  + @ # $ % & * = - ; ; : > , < < 1 2 3 4 5 6 7 8 9 0 q w e e r t y u u i p a s d f g h h j k l z z x c v b b n m M B V C Z N N ",
"  @ # $ % & * = - ; ; : > , < < 1 2 3 4 5 6 7 8 9 0 q w e e r t y u u i p a s d f g h h j k l z z x c v b b n m M B V C Z A N N ",
"  # % S & * = - ; ; > , , D < 1 2 3 4 5 6 8 9 9 0 q w e e t y y F u i p a s d f g h h j k l z z c v v G b n m H B V C Z A A N N ",
"  % S & * = - ; ; > , , D < 1 2 3 4 5 6 8 9 9 0 q w e e t y y F u i p a s d f g h h j k l z z c v v G b n m H B V C Z A A J N N ",
"  S & * = - ; ; > , , D < 1 2 3 4 5 6 8 9 9 0 q w e e t y y F u i p a s d f g h h j k l z z c v v G b n m H B V C Z A A J K N N ",
"  & * = - ; ; > , , D < 1 2 3 4 5 6 8 9 9 0 q w e e t y y F u i p a s d f g h h j k l z z c v v G b n m H B V C Z A A J K K N N ",
"  * = - ; ; > , , D < 1 2 3 4 5 6 8 9 9 0 q w e e t y y F u i p a s d f g h h j k l z z c v v G b n m H B V C Z A A J K K L N N ",
"  = - ; ; > , , D < 1 2 3 4 5 6 8 9 9 0 q w e e t y y F u i p a s d f g h h j k l z z c v v G b n m H B V C Z A A J K K L L N N ",
"  - ; ; > , , D < 1 2 3 4 5 6 8 9 9 0 q w e e t y y F u i p a s d f g h h j k l z z c v v G b n m H B V C Z A A J K K L L P N N ",
"  ; ; > , , D < 1 2 3 4 5 6 8 9 9 0 q w e e t y y F u i p a s d f g h h j k l z z c v v G b n m H B V C Z A A J K K L L P I N N ",
"  ; > , , D < 2 3 3 4 5 6 8 U 9 q w w e e t y y F u p Y a s d f g T h k l l z z c v v G b n M H B V C Z R A J K K L L P I I N N ",
"  > , , D < 2 3 3 4 5 6 8 U 9 q w w e e t y y F u p Y a s d f g T h k l l z z c v v G b n M H B V C Z R A J K K L L P I I E N N ",
"  , , D < 2 3 3 4 5 6 8 U 9 q w w e e t y y F u p Y a s d f g T h k l l z z c v v G b n M H B V C Z R A J K K L L P I I E W N N ",
"  , D < 2 3 3 4 5 6 8 U 9 q w w e e t y y F u p Y a s d f g T h k l l z z c v v G b n M H B V C Z R A J K K L L P I I E W Q N N ",
"  D < 2 3 3 4 5 6 8 U 9 q w w e e t y y F u p Y a s d f g T h k l l z z c v v G b n M H B V C Z R A J K K L L P I I E W Q ! N N ",
"  < 2 3 3 4 5 6 8 U 9 q w w e e t y y F u p Y a s d f g T h k l l z z c v v G b n M H B V C Z R A J K K L L P I I E W Q ! ~ N N ",
"  2 3 3 4 5 6 8 U 9 q w w e e t y y F u p Y a s d f g T h k l l z z c v v G b n M H B V C Z R A J K K L L P I I E W Q ! ~ ^ N N ",
"  3 3 4 5 6 8 U 9 q w w e e t y y F u p Y a s d f g T h k l l z z c v v G b n M H B V C Z R A J K K L L P I I E W Q ! ~ ^ / N N ",
"  3 4 5 6 8 U 9 q w w e t t y y F u p Y a s d f g T h k l l z c c v v G b m M H B C Z Z R A J K K ( L P I I E W ) ! ~ ^ _ ` N N ",
"  4 5 6 8 U 9 q w w e t t y y F u p Y a s d f g T h k l l z c c v v G b m M H B C Z Z R A J K K ( L P I I E W ) ! ~ ^ _ ` ` N N ",
"  5 6 8 U 9 q w w e t t y y F u p Y a s d f g T h k l l z c c v v G b m M H B C Z Z R A J K K ( L P I I E W ) ! ~ ^ _ ` ` ' N N ",
"  6 8 U 9 q w w e t t y y F u p Y a s d f g T h k l l z c c v v G b m M H B C Z Z R A J K K ( L P I I E W ) ! ~ ^ _ ` ` ' ] N N ",
"  8 U 9 q w w e t t y y F u p Y a s d f g T h k l l z c c v v G b m M H B C Z Z R A J K K ( L P I I E W ) ! ~ ^ _ ` ` ' ] [ N N ",
"  U 9 q w w e t t y y F u p Y a s d f g T h k l l z c c v v G b m M H B C Z Z R A J K K ( L P I I E W ) ! ~ ^ _ ` ` ' ] [ { N N ",
"  9 q w w e t t y y F u p Y a s d f g T h k l l z c c v v G b m M H B C Z Z R A J K K ( L P I I E W ) ! ~ ^ _ ` ` ' ] [ { { N N ",
"  q w w e t t y y F u p Y a s d f g T h k l l z c c v v G b m M H B C Z Z R A J K K ( L P I I E W ) ! ~ ^ _ ` ` ' ] [ { { } N N ",
"  w w e t t y y F u p Y a s f | g T h k l l z c c  .v G b m M H B C ..Z R A J K K L P P X.I E W ) ! ~ ^ _ o.` ] [ [ { { O.+.N N ",
"  w e t t y y F u p Y a s f | g T h k l l z c c  .v G b m M H B C ..Z R A J K K L P P X.I E W ) ! ~ ^ _ o.` ] [ [ { { O.+.+.N N ",
"  e t t y y F u p Y a s f | g T h k l l z c c  .v G b m M H B C ..Z R A J K K L P P X.I E W ) ! ~ ^ _ o.` ] [ [ { { O.+.+.@.N N ",
"  t t y y F u p Y a s f | g T h k l l z c c  .v G b m M H B C ..Z R A J K K L P P X.I E W ) ! ~ ^ _ o.` ] [ [ { { O.+.+.@.#.N N ",
"  t y y F u p Y a s f | g T h k l l z c c  .v G b m M H B C ..Z R A J K K L P P X.I E W ) ! ~ ^ _ o.` ] [ [ { { O.+.+.@.#.$.N N ",
"  y y F u p Y a s f | g T h k l l z c c  .v G b m M H B C ..Z R A J K K L P P X.I E W ) ! ~ ^ _ o.` ] [ [ { { O.+.+.@.#.$.%.N N ",
"  y F u p Y a s f | g T h k l l z c c  .v G b m M H B C ..Z R A J K K L P P X.I E W ) ! ~ ^ _ o.` ] [ [ { { O.+.+.@.#.$.%.&.N N ",
"  F u p Y a s f | g T h k l l z c c  .v G b m M H B C ..Z R A J K K L P P X.I E W ) ! ~ ^ _ o.` ] [ [ { { O.+.+.@.#.$.%.&.*.N N ",
"  p p Y a s f | g h k k =.l z c c  .v b m m M H B C ..Z A J J K K L P P X.I W Q ) ! ~ ^ _ o.` ] [ [ { { O.+.+.@.#.%.-.&.*.;.N N ",
"  p Y a s f | g h k k =.l z c c  .v b m m M H B C ..Z A J J K K L P P X.I W Q ) ! ~ ^ _ o.` ] [ [ { { O.+.+.@.#.%.-.&.*.;.:.N N ",
"  Y a s f | g h k k =.l z c c  .v b m m M H B C ..Z A J J K K L P P X.I W Q ) ! ~ ^ _ o.` ] [ [ { { O.+.+.@.#.%.-.&.*.;.:.>.N N ",
"  a s f | g h k k =.l z c c  .v b m m M H B C ..Z A J J K K L P P X.I W Q ) ! ~ ^ _ o.` ] [ [ { { O.+.+.@.#.%.-.&.*.;.:.>.,.N N ",
"  s f | g h k k =.l z c c  .v b m m M H B C ..Z A J J K K L P P X.I W Q ) ! ~ ^ _ o.` ] [ [ { { O.+.+.@.#.%.-.&.*.;.:.>.,.<.N N ",
"  f | g h k k =.l z c c  .v b m m M H B C ..Z A J J K K L P P X.I W Q ) ! ~ ^ _ o.` ] [ [ { { O.+.+.@.#.%.-.&.*.;.:.>.,.<.1.N N ",
"  | g h k k =.l z c c  .v b m m M H B C ..Z A J J K K L P P X.I W Q ) ! ~ ^ _ o.` ] [ [ { { O.+.+.@.#.%.-.&.*.;.:.>.,.<.1.2.N N ",
"  g h k k =.l z c c  .v b m m M H B C ..Z A J J K K L P P X.I W Q ) ! ~ ^ _ o.` ] [ [ { { O.+.+.@.#.%.-.&.*.;.:.>.,.<.1.2.2.N N ",
"  h k k l z z c c  .v b n m M H V C ..Z A J J K L L P P X.I W Q ) ! ~ ^ _ o.` ] [ [ { O.O.+.+.@.#.%.-.&.*.:.>.>.,.<.1.2.2.3.N N ",
"  k k l z z c c  .v b n m M H V C ..Z A J J K L L P P X.I W Q ) ! ~ ^ _ o.` ] [ [ { O.O.+.+.@.#.%.-.&.*.:.>.>.,.<.1.2.2.3.4.N N ",
"  k l z z c c  .v b n m M H V C ..Z A J J K L L P P X.I W Q ) ! ~ ^ _ o.` ] [ [ { O.O.+.+.@.#.%.-.&.*.:.>.>.,.<.1.2.2.3.4.4.N N ",
"  l z z c c  .v b n m M H V C ..Z A J J K L L P P X.I W Q ) ! ~ ^ _ o.` ] [ [ { O.O.+.+.@.#.%.-.&.*.:.>.>.,.<.1.2.2.3.4.4.5.N N ",
"  z z c c  .v b n m M H V C ..Z A J J K L L P P X.I W Q ) ! ~ ^ _ o.` ] [ [ { O.O.+.+.@.#.%.-.&.*.:.>.>.,.<.1.2.2.3.4.4.5.5.N N ",
"  z c c  .v b n m M H V C ..Z A J J K L L P P X.I W Q ) ! ~ ^ _ o.` ] [ [ { O.O.+.+.@.#.%.-.&.*.:.>.>.,.<.1.2.2.3.4.4.5.5.6.N N ",
"  c c  .v b n m M H V C ..Z A J J K L L P P X.I W Q ) ! ~ ^ _ o.` ] [ [ { O.O.+.+.@.#.%.-.&.*.:.>.>.,.<.1.2.2.3.4.4.5.5.6.7.N N ",
"  c  .v b n m M H V C ..Z A J J K L L P P X.I W Q ) ! ~ ^ _ o.` ] [ [ { O.O.+.+.@.#.%.-.&.*.:.>.>.,.<.1.2.2.3.4.4.5.5.6.7.8.N N ",
"  v b b n m M B V C ..Z A J J K L L 9.P I W W Q ) ! ^ / _ o.` ] [ [ { O.O.0.+.#.%.%.-.&.*.:.q.>.,.<.1.2.2.3.4.4.w.5.6.7.8.e.N N ",
"  b b n m M B V C ..Z A J J K L L 9.P I W W Q ) ! ^ / _ o.` ] [ [ { O.O.0.+.#.%.%.-.&.*.:.q.>.,.<.1.2.2.3.4.4.w.5.6.7.8.e.r.N N ",
"  b n m M B V C ..Z A J J K L L 9.P I W W Q ) ! ^ / _ o.` ] [ [ { O.O.0.+.#.%.%.-.&.*.:.q.>.,.<.1.2.2.3.4.4.w.5.6.7.8.e.r.t.N N ",
"  n m M B V C ..Z A J J K L L 9.P I W W Q ) ! ^ / _ o.` ] [ [ { O.O.0.+.#.%.%.-.&.*.:.q.>.,.<.1.2.2.3.4.4.w.5.6.7.8.e.r.t.y.N N ",
"  m M B V C ..Z A J J K L L 9.P I W W Q ) ! ^ / _ o.` ] [ [ { O.O.0.+.#.%.%.-.&.*.:.q.>.,.<.1.2.2.3.4.4.w.5.6.7.8.e.r.t.y.u.N N ",
"  M B V C ..Z A J J K L L 9.P I W W Q ) ! ^ / _ o.` ] [ [ { O.O.0.+.#.%.%.-.&.*.:.q.>.,.<.1.2.2.3.4.4.w.5.6.7.8.e.r.t.y.u.i.N N ",
"  N N N N N N N N N N N N N N N N N N N N N N N N N N N N N N N N N N N N N N N N N N N N N N N N N N N N N N N N N N N N N N N ",
"p.p.p.p.p.p.p.p.p.p.p.p.p.p.p.p.p.p.p.p.p.p.p.p.p.p.p.p.p.p.p.p.p.p.p.p.p.p.p.p.p.p.p.p.p.p.p.p.p.p.p.p.p.p.p.p.p.p.p.p.p.p.p.p."};
