/* XPM */
static char * delete_button_xpm[] = {
"8 8 4 1",
" 	c #000000",
".	c #939393",
"+	c #FFFFFF",
"@	c #494848",
"        ",
" .++++. ",
" + ++ + ",
" ++@@++ ",
" ++@@++ ",
" + ++ + ",
" .++++. ",
"        "};
