/* XPM */
static char * norec_xpm[] = {
"10 9 3 1",
" 	c None",
".	c #AEAAAE",
"+	c #353535",
"..........",
"..........",
"...++++...",
"..++++++..",
"..++++++..",
"..++++++..",
"...++++...",
"..........",
".........."};
