/* XPM */
static char * wmcpuload_32x32_xpm[] = {
"32 32 72 1",
" 	c None",
".	c #999999",
"+	c #979797",
"@	c #959595",
"#	c #929292",
"$	c #909090",
"%	c #8D8D8D",
"&	c #8B8B8B",
"*	c #888888",
"=	c #868686",
"-	c #838383",
";	c #818181",
">	c #7E7E7E",
",	c #7C7C7C",
"'	c #797979",
")	c #777777",
"!	c #747474",
"~	c #727272",
"{	c #6F6F6F",
"]	c #6D6D6D",
"^	c #6A6A6A",
"/	c #686868",
"(	c #656565",
"_	c #636363",
":	c #606060",
"<	c #5E5E5E",
"[	c #5B5B5B",
"}	c #595959",
"|	c #565656",
"1	c #545454",
"2	c #515151",
"3	c #4F4F4F",
"4	c #4C4C4C",
"5	c #848484",
"6	c #4A4A4A",
"7	c #5D605D",
"8	c #DBDBDB",
"9	c #484848",
"0	c #ABB5AB",
"a	c #454545",
"b	c #899383",
"c	c #3E463E",
"d	c #434343",
"e	c #404040",
"f	c #3E3E3E",
"g	c #3B3B3B",
"h	c #393939",
"i	c #363636",
"j	c #343434",
"k	c #313131",
"l	c #2F2F2F",
"m	c #2C2C2C",
"n	c #2A2A2A",
"o	c #3E4440",
"p	c #3E453F",
"q	c #272727",
"r	c #252525",
"s	c #222222",
"t	c #202020",
"u	c #1D1D1D",
"v	c #1B1B1B",
"w	c #181818",
"x	c #161616",
"y	c #131313",
"z	c #111111",
"A	c #0E0E0E",
"B	c #0C0C0C",
"C	c #090909",
"D	c #070707",
"E	c #040404",
"F	c #020202",
"G	c #000000",
".+@#$%&*=-;>,')!~{]^/(_:<[}|1234",
"+4444444444444444444444444444456",
"@4477777777777777777777777777789",
"#477000000000000000000000000008a",
"$4700bbbb000cccc000cccc00000008d",
"%470bbbbbb0cccccc0cccccc0000008e",
"&470bb00bb0bb00cc0cc00cc0000008f",
"*470bb00bb0bb00cc0cc00cc0000008g",
"=470bbbbbb0bccccc0cccccc0000008h",
"-4700bbbb000cccc000cccc00000008i",
";470bb00bb0cc00bb0bb00cc0cc0c08j",
">470bb00bb0cc00bb0bb00cc0ccc008k",
",470bbbbbb0cccccb0bccccc00ccc08l",
"'4700bbbb00cccccb0ccccc00c0cc08m",
")470000000000000000000000000008n",
"!470ccccccccccopccccccccccccc08q",
"~470ccccccccccccccccccccccccc08r",
"{470000000000000000000000000008s",
"]470000000cc0000000000000000008t",
"^470cc0000cc0000000000000000008u",
"/470cc0000cc0000000000000000008v",
"(470cc0000cccc00000000000000008w",
"_470cc0000cccc0000000cc00000008x",
":470cccc00cccc0000000cc00000008y",
"<470cccc00cccc0000000cc00000008z",
"[470cccccccccc0000000cc00000008A",
"}470cccccccccccc00000cccc00cc08B",
"|470cccccccccccc000cccccc00cc08C",
"1470cccccccccccc0cccccccccccc08D",
"2470cccccccccccc0cccccccccccc08E",
"3588888888888888888888888888888F",
"469adefghijklmnqrstuvwxyzABCDEFG"};
