/* XPM */
static char * wmcpuload_16x16_xpm[] = {
"16 16 5 1",
" 	c None",
".	c #000000",
"+	c #899383",
"@	c #ABB5AB",
"#	c #060706",
"................",
".+++@...@...@@@.",
".+@+@+@.@.@.@@@.",
".+++@+..@...@@@.",
".+@+@.@+@+@.@@@.",
".+@+@.@+@+@.@...",
".+++@...@...@...",
".##############.",
".@@@@@@@@@@@@@@.",
".@@@@@@@.@@@@@@.",
".@.@@@@@.@@@@@@.",
".@.@@@@..@@@@@@.",
".@..@@....@@@@..",
".@...@.....@@...",
".@...@......@...",
"................"};
