/* XPM */
static char *archlinux[] = {
/* columns rows colors chars-per-pixel */
"56 56 141 2 ",
"   c #1793D0",
".  c #1792D1",
"X  c #1693D1",
"o  c #1793D1",
"O  c #1793D2",
"+  c #1794D1",
"@  c #1892D1",
"#  c #1893D1",
"$  c #1893D2",
"%  c #1894D1",
"&  c #1994D1",
"*  c #1894D2",
"=  c #1A94D2",
"-  c #1A95D2",
";  c #1B95D2",
":  c #1C95D2",
">  c #1D95D2",
",  c #1D96D2",
"<  c #1E96D2",
"1  c #1F96D2",
"2  c #1F97D2",
"3  c #1E96D3",
"4  c #1F97D3",
"5  c #2096D3",
"6  c #2097D3",
"7  c #2198D3",
"8  c #2298D3",
"9  c #2299D3",
"0  c #2399D3",
"q  c #2298D4",
"w  c #2398D4",
"e  c #2399D4",
"r  c #2499D4",
"t  c #2599D4",
"y  c #249AD4",
"u  c #259AD4",
"i  c #269AD4",
"p  c #279BD4",
"a  c #289BD4",
"s  c #299BD4",
"d  c #289BD5",
"f  c #299BD5",
"g  c #2A9CD5",
"h  c #2B9CD5",
"j  c #2C9CD5",
"k  c #2C9DD5",
"l  c #2D9DD5",
"z  c #2F9DD4",
"x  c #2E9DD5",
"c  c #2E9ED5",
"v  c #2E9DD6",
"b  c #2E9ED6",
"n  c #2F9ED6",
"m  c #2F9FD6",
"M  c #309ED6",
"N  c #309FD6",
"B  c #319FD6",
"V  c #32A0D6",
"C  c #32A0D7",
"Z  c #33A0D7",
"A  c #33A1D7",
"S  c #34A0D7",
"D  c #34A1D7",
"F  c #35A1D7",
"G  c #36A1D7",
"H  c #37A1D7",
"J  c #35A2D7",
"K  c #36A2D7",
"L  c #37A2D7",
"P  c #38A2D7",
"I  c #38A3D7",
"U  c #39A2D8",
"Y  c #38A3D8",
"T  c #39A3D8",
"R  c #3AA3D8",
"E  c #3CA3D9",
"W  c #3AA4D8",
"Q  c #3BA4D8",
"!  c #3BA5D9",
"~  c #3CA4D8",
"^  c #3CA4D9",
"/  c #3CA5D9",
"(  c #3DA5D9",
")  c #3EA5D9",
"_  c #3FA5D9",
"`  c #3EA6D9",
"'  c #3FA6D9",
"]  c #3EA5DA",
"[  c #40A6D9",
"{  c #41A6D9",
"}  c #41A7D9",
"|  c #42A6D9",
" . c #42A7D9",
".. c #43A7D9",
"X. c #41A7DA",
"o. c #42A7DA",
"O. c #43A7DA",
"+. c #43A8DA",
"@. c #44A8D9",
"#. c #44A8DA",
"$. c #45A8DA",
"%. c #45A9DA",
"&. c #46A9DA",
"*. c #47A9DA",
"=. c #46A9DB",
"-. c #47AADA",
";. c #46AADB",
":. c #47AADB",
">. c #48A9DB",
",. c #48AADB",
"<. c #49AADB",
"1. c #49ABDB",
"2. c #4AABDB",
"3. c #4BABDB",
"4. c #4BACDC",
"5. c #4CACDC",
"6. c #4DACDC",
"7. c #4CADDC",
"8. c #4DACDD",
"9. c #4EADDC",
"0. c #4FADDC",
"q. c #4FAEDD",
"w. c #50ADDD",
"e. c #50AEDC",
"r. c #51AEDC",
"t. c #50AEDD",
"y. c #51AEDD",
"u. c #53AEDC",
"i. c #53AEDD",
"p. c #52AFDD",
"a. c #53AFDD",
"s. c #54AFDD",
"d. c #54AEDE",
"f. c #55B0DC",
"g. c #54B0DD",
"h. c #55B0DD",
"j. c #56B0DD",
"k. c #55B0DE",
"l. c #57B1DE",
"z. c #58B1DE",
"x. c None",
/* pixels */
"x.x.x.x.x.x.x.x.x.x.x.x.x.x.x.x.x.x.x.x.x.x.x.x.x.x.x.x.x.x.x.x.x.x.x.x.x.x.x.x.x.x.x.x.x.x.x.x.x.x.x.x.x.x.x.x.",
"x.x.x.x.x.x.x.x.x.x.x.x.x.x.x.x.x.x.x.x.x.x.x.x.x.x.x.* q x.x.x.x.x.x.x.x.x.x.x.x.x.x.x.x.x.x.x.x.x.x.x.x.x.x.x.",
"x.x.x.x.x.x.x.x.x.x.x.x.x.x.x.x.x.x.x.x.x.x.x.x.x.x.x.# 7 x.x.x.x.x.x.x.x.x.x.x.x.x.x.x.x.x.x.x.x.x.x.x.x.x.x.x.",
"x.x.x.x.x.x.x.x.x.x.x.x.x.x.x.x.x.x.x.x.x.x.x.x.x.x.x.o , J x.x.x.x.x.x.x.x.x.x.x.x.x.x.x.x.x.x.x.x.x.x.x.x.x.x.",
"x.x.x.x.x.x.x.x.x.x.x.x.x.x.x.x.x.x.x.x.x.x.x.x.x.x.o o * B x.x.x.x.x.x.x.x.x.x.x.x.x.x.x.x.x.x.x.x.x.x.x.x.x.x.",
"x.x.x.x.x.x.x.x.x.x.x.x.x.x.x.x.x.x.x.x.x.x.x.x.x.x.o # * h x.x.x.x.x.x.x.x.x.x.x.x.x.x.x.x.x.x.x.x.x.x.x.x.x.x.",
"x.x.x.x.x.x.x.x.x.x.x.x.x.x.x.x.x.x.x.x.x.x.x.x.x.* # # o 7 ~ x.x.x.x.x.x.x.x.x.x.x.x.x.x.x.x.x.x.x.x.x.x.x.x.x.",
"x.x.x.x.x.x.x.x.x.x.x.x.x.x.x.x.x.x.x.x.x.x.x.x.x.* , * # , J x.x.x.x.x.x.x.x.x.x.x.x.x.x.x.x.x.x.x.x.x.x.x.x.x.",
"x.x.x.x.x.x.x.x.x.x.x.x.x.x.x.x.x.x.x.x.x.x.x.x.x., , , * , z [ x.x.x.x.x.x.x.x.x.x.x.x.x.x.x.x.x.x.x.x.x.x.x.x.",
"x.x.x.x.x.x.x.x.x.x.x.x.x.x.x.x.x.x.x.x.x.x.x.x.6 7 6 6 , , a ~ x.x.x.x.x.x.x.x.x.x.x.x.x.x.x.x.x.x.x.x.x.x.x.x.",
"x.x.x.x.x.x.x.x.x.x.x.x.x.x.x.x.x.x.x.x.x.x.x.x.r 7 r 6 6 6 i L [ x.x.x.x.x.x.x.x.x.x.x.x.x.x.x.x.x.x.x.x.x.x.x.",
"x.x.x.x.x.x.x.x.x.x.x.x.x.x.x.x.x.x.x.x.x.x.x.q i i r r i 7 7 B +.x.x.x.x.x.x.x.x.x.x.x.x.x.x.x.x.x.x.x.x.x.x.x.",
"x.x.x.x.x.x.x.x.x.x.x.x.x.x.x.x.x.x.x.x.x.x.x.h d i i i i i 7 z ~ x.x.x.x.x.x.x.x.x.x.x.x.x.x.x.x.x.x.x.x.x.x.x.",
"x.x.x.x.x.x.x.x.x.x.x.x.x.x.x.x.x.x.x.x.x.x.h h h d h h i i i i ^ +.x.x.x.x.x.x.x.x.x.x.x.x.x.x.x.x.x.x.x.x.x.x.",
"x.x.x.x.x.x.x.x.x.x.x.x.x.x.x.x.x.x.x.x.x.x.b b z h h h h a a i C #.x.x.x.x.x.x.x.x.x.x.x.x.x.x.x.x.x.x.x.x.x.x.",
"x.x.x.x.x.x.x.x.x.x.x.x.x.x.x.x.x.x.x.x.x.z C m C m b z h z h h z +.%.x.x.x.x.x.x.x.x.x.x.x.x.x.x.x.x.x.x.x.x.x.",
"x.x.x.x.x.x.x.x.x.x.x.x.x.x.x.x.x.x.x.x.x.x.L C C B B B z b z b h ^ 1.x.x.x.x.x.x.x.x.x.x.x.x.x.x.x.x.x.x.x.x.x.",
"x.x.x.x.x.x.x.x.x.x.x.x.x.x.x.x.x.x.x.x.x.x.x.L C L C B C B B b z B #.1.x.x.x.x.x.x.x.x.x.x.x.x.x.x.x.x.x.x.x.x.",
"x.x.x.x.x.x.x.x.x.x.x.x.x.x.x.x.x.x.x.x.^ x.x.x.L L L L L C B B B z ~ 8.x.x.x.x.x.x.x.x.x.x.x.x.x.x.x.x.x.x.x.x.",
"x.x.x.x.x.x.x.x.x.x.x.x.x.x.x.x.x.x.x.~ ~ ~ ~ x.x.U U L L L C L A A J 1.8.x.x.x.x.x.x.x.x.x.x.x.x.x.x.x.x.x.x.x.",
"x.x.x.x.x.x.x.x.x.x.x.x.x.x.x.x.x.x.x.[ [ ~ ~ [ ~ x.^ ^ U L L L J L A ~ r.x.x.x.x.x.x.x.x.x.x.x.x.x.x.x.x.x.x.x.",
"x.x.x.x.x.x.x.x.x.x.x.x.x.x.x.x.x.x.[ #.+.#.[ [ ~ ~ ^ ~ ^ ^ ^ U U L L U 1.r.x.x.x.x.x.x.x.x.x.x.x.x.x.x.x.x.x.x.",
"x.x.x.x.x.x.x.x.x.x.x.x.x.x.x.x.x.x.%.%.%.%.#.[ #.[ ~ ~ ~ ~ ^ ^ ^ ^ U U [ r.x.x.x.x.x.x.x.x.x.x.x.x.x.x.x.x.x.x.",
"x.x.x.x.x.x.x.x.x.x.x.x.x.x.x.x.x.x.1.%.%.%.%.%.#.%.+.+.+.+.~ ~ ~ ~ ~ ~ ~ 1.r.x.x.x.x.x.x.x.x.x.x.x.x.x.x.x.x.x.",
"x.x.x.x.x.x.x.x.x.x.x.x.x.x.x.x.x.5.5.3.1.1.1.%.%.%.#.#.+.[ [ [ [ [ ~ [ ~ [ r.x.x.x.x.x.x.x.x.x.x.x.x.x.x.x.x.x.",
"x.x.x.x.x.x.x.x.x.x.x.x.x.x.x.x.6.6.6.6.8.8.1.1.1.1.1.%.%.%.%.#.#.[ [ [ [ [ 8.d.x.x.x.x.x.x.x.x.x.x.x.x.x.x.x.x.",
"x.x.x.x.x.x.x.x.x.x.x.x.x.x.x.x.r.r.w.w.w.8.8.8.1.1.X.U L z z z B B L U [ [ #.r.x.x.x.x.x.x.x.x.x.x.x.x.x.x.x.x.",
"x.x.x.x.x.x.x.x.x.x.x.x.x.x.x.r.h.h.d.r.r.w.1.~ z q > > > * * * * * * > , i B #.r.x.x.x.x.x.x.x.x.x.x.x.x.x.x.x.",
"x.x.x.x.x.x.x.x.x.x.x.x.x.x.x.h.h.h.h.r.%.L q > o o X o X o o o o o o o o o # > C x.x.x.x.x.x.x.x.x.x.x.x.x.x.x.",
"x.x.x.x.x.x.x.x.x.x.x.x.x.x.h.z.z.h.3.A > o o o o o o o o o o o o o o o o o o o > z x.x.x.x.x.x.x.x.x.x.x.x.x.x.",
"x.x.x.x.x.x.x.x.x.x.x.x.x.x.h.h.#.A , o o o o o o o o o o o o o o o o o o o o o o 6 x.x.x.x.x.x.x.x.x.x.x.x.x.x.",
"x.x.x.x.x.x.x.x.x.x.x.x.x.h.8.L q o o o o o o o o o o o o o o o o o o o o o o o o O q x.x.x.x.x.x.x.x.x.x.x.x.x.",
"x.x.x.x.x.x.x.x.x.x.x.x.x.I a * o o o o o o o o o o + + o o o o o o o o o o o o o o * x.x.x.x.x.x.x.x.x.x.x.x.x.",
"x.x.x.x.x.x.x.x.x.x.x.x., * o o o o o o o o o o o o x.x.x.x.o o o o o o o o o o o o o * x.x.x.x.x.x.x.x.x.x.x.x.",
"x.x.x.x.x.x.x.x.x.x.x.x.o o o o o o o o o o o o x.x.x.x.x.x.x.x.o o o o o o o o o o o o o x.x.x.x.x.x.x.x.x.x.x.",
"x.x.x.x.x.x.x.x.x.x.x.* o o o o o o o o o o o o x.x.x.x.x.x.x.x.o o o o o o o o o o o o o x.x.x.x.x.x.x.x.x.x.x.",
"x.x.x.x.x.x.x.x.x.x.x.o o o o o o o o o o o o x.x.x.x.x.x.x.x.x.x.o o o o o o o o o o o o o x.x.x.x.x.x.x.x.x.x.",
"x.x.x.x.x.x.x.x.x.x.o o o o o o o o o o o o o x.x.x.x.x.x.x.x.x.x.o o o o o o o o o o o o o x.x.x.x.x.x.x.x.x.x.",
"x.x.x.x.x.x.x.x.x.x.o o o o o o o o o o o o x.x.x.x.x.x.x.x.x.x.x.x.o o o o o o o o o o o o o x.x.x.x.x.x.x.x.x.",
"x.x.x.x.x.x.x.x.x.o o o o o o o o o o o o o x.x.x.x.x.x.x.x.x.x.x.x.o o o o o o o o o o o o o x.x.x.x.x.x.x.x.x.",
"x.x.x.x.x.x.x.x.x.o o o o o o o o o o o o o x.x.x.x.x.x.x.x.x.x.x.x.o o o o o o o o o o o o o o x.x.x.x.x.x.x.x.",
"x.x.x.x.x.x.x.x.o o o o o o o o o o o o o + x.x.x.x.x.x.x.x.x.x.x.x.# o o o o o o o o o o o o o x.x.x.x.x.x.x.x.",
"x.x.x.x.x.x.x.# o o o o o o o o o o o o o + x.x.x.x.x.x.x.x.x.x.x.x.# o o o o o o o o o o x.x.# # x.x.x.x.x.x.x.",
"x.x.x.x.x.x.x.o o o o o o o o o o o o o o o x.x.x.x.x.x.x.x.x.x.x.x.o o o o o o o o o o o o x.x.x.x.x.x.x.x.x.x.",
"x.x.x.x.x.x.o o o o o o o o o o o o o o o o x.x.x.x.x.x.x.x.x.x.x.x.o o o o o o o o o o o o o o x.x.x.x.x.x.x.x.",
"x.x.x.x.x.x.o o o o o o o o o o o o o o o o x.x.x.x.x.x.x.x.x.x.x.x.o o o o o o o o o o o o o o o x.x.x.x.x.x.x.",
"x.x.x.x.x.o o o o o o o o o o o o o o o o o x.x.x.x.x.x.x.x.x.x.x.x.x.o o o o o o o o o o o o o o o x.x.x.x.x.x.",
"x.x.x.x.x.o o o o o o o o o o # o o x.x.x.x.x.x.x.x.x.x.x.x.x.x.x.x.x.x.x.x.o o o o o o o o o o o o o x.x.x.x.x.",
"x.x.x.x.o o o o o o o o o o * x.x.x.x.x.x.x.x.x.x.x.x.x.x.x.x.x.x.x.x.x.x.x.x.x.x.o o o o o o o o o o o x.x.x.x.",
"x.x.x.x.o o o o o o o o o x.x.x.x.x.x.x.x.x.x.x.x.x.x.x.x.x.x.x.x.x.x.x.x.x.x.x.x.x.x.o o o o o o o o o x.x.x.x.",
"x.x.x.o o o o o o o o x.x.x.x.x.x.x.x.x.x.x.x.x.x.x.x.x.x.x.x.x.x.x.x.x.x.x.x.x.x.x.x.x.x.# o o o o o o o x.x.x.",
"x.x.o o o o o o x.x.x.x.x.x.x.x.x.x.x.x.x.x.x.x.x.x.x.x.x.x.x.x.x.x.x.x.x.x.x.x.x.x.x.x.x.x.x.x.o o o o o o x.x.",
"x.x.o o o o x.x.x.x.x.x.x.x.x.x.x.x.x.x.x.x.x.x.x.x.x.x.x.x.x.x.x.x.x.x.x.x.x.x.x.x.x.x.x.x.x.x.x.x.o o o o x.x.",
"x.o o o x.x.x.x.x.x.x.x.x.x.x.x.x.x.x.x.x.x.x.x.x.x.x.x.x.x.x.x.x.x.x.x.x.x.x.x.x.x.x.x.x.x.x.x.x.x.x.x.+ o o x.",
"x.o o x.x.x.x.x.x.x.x.x.x.x.x.x.x.x.x.x.x.x.x.x.x.x.x.x.x.x.x.x.x.x.x.x.x.x.x.x.x.x.x.x.x.x.x.x.x.x.x.x.x.o o x.",
"x.x.x.x.x.x.x.x.x.x.x.x.x.x.x.x.x.x.x.x.x.x.x.x.x.x.x.x.x.x.x.x.x.x.x.x.x.x.x.x.x.x.x.x.x.x.x.x.x.x.x.x.x.x.x.x."
};
