/* XPM */
static char *loading[] = {
/* columns rows colors chars-per-pixel */
"56 56 2 1 ",
"  c #FF727D",
". c None",
/* pixels */
"........................................................",
".........................      .........................",
"........................        ........................",
"................. ......        ...... .................",
"................   .....        .....   ................",
"..............     .....        .....     ..............",
"............        ....        ....        ............",
"............        ..            ..        ............",
".............                              .............",
".............                              .............",
"..............                            ..............",
"..............                            ..............",
"......  .....                              .....  ......",
"......    ..                                ..    ......",
".....                                              .....",
".....                                              .....",
"....                                                ....",
"...                     ........                     ...",
"....                  ............                  ....",
"......               ..............               ......",
"........            ................            ........",
"........           ..................           ........",
".......           ....................           .......",
".......           ....................           .......",
"..               ......................               ..",
".                ......................                .",
".                ......................                .",
".                ......................                .",
".                ......................                .",
".                ......................                .",
".                ......................                .",
"..               ......................               ..",
".......           ....................           .......",
".......           ....................           .......",
"........           ..................           ........",
"........            ................            ........",
"......               ..............               ......",
"....                  ............                  ....",
"...                     ........                     ...",
"....                                                ....",
".....                                              .....",
".....                                              .....",
"......    ..                                ..    ......",
"......  .....                              .....  ......",
"..............                            ..............",
"..............                            ..............",
".............                              .............",
".............                              .............",
"............        ..            ..        ............",
"............        ....        ....        ............",
"..............     .....        .....     ..............",
"................   .....        .....   ................",
"................. ......        ...... .................",
"........................        ........................",
".........................      .........................",
"........................................................"
};
