/* XPM */
static char * no_icon_xpm[] = {
"56 56 158 2",
"  	c None",
". 	c #FF0000",
"+ 	c #FF2D2D",
"@ 	c #FF6060",
"# 	c #EAB4B4",
"$ 	c #DFDFDF",
"% 	c #B6B6B6",
"& 	c #7C7C7C",
"* 	c #888888",
"= 	c #EDEDED",
"- 	c #E7E7E7",
"; 	c #CDCDCD",
"> 	c #8B8B8B",
", 	c #7D7D7D",
"' 	c #FBFBFB",
") 	c #EBEBEB",
"! 	c #6B6B6B",
"~ 	c #000000",
"{ 	c #838383",
"] 	c #E9E9E9",
"^ 	c #E4E4E4",
"/ 	c #101010",
"( 	c #A9A9A9",
"_ 	c #E8E8E8",
": 	c #9F9F9F",
"< 	c #4A4A4A",
"[ 	c #020202",
"} 	c #C7C7C7",
"| 	c #6A6A6A",
"1 	c #EAEAEA",
"2 	c #C5C5C5",
"3 	c #FFFFFF",
"4 	c #474747",
"5 	c #161616",
"6 	c #A8A8A8",
"7 	c #E5E5E5",
"8 	c #191919",
"9 	c #3E3E3E",
"0 	c #C2C2C2",
"a 	c #E2E2E2",
"b 	c #CBCBCB",
"c 	c #030303",
"d 	c #7E7E7E",
"e 	c #ECECEC",
"f 	c #E6E6E6",
"g 	c #F3F3F3",
"h 	c #F8F8F8",
"i 	c #DEDEDE",
"j 	c #878787",
"k 	c #010101",
"l 	c #C3C3C3",
"m 	c #909090",
"n 	c #D2D2D2",
"o 	c #434343",
"p 	c #141414",
"q 	c #D5D5D5",
"r 	c #373737",
"s 	c #7A7A7A",
"t 	c #181818",
"u 	c #3B3B3B",
"v 	c #EEEEEE",
"w 	c #606060",
"x 	c #737373",
"y 	c #1C1C1C",
"z 	c #C8C8C8",
"A 	c #2E2E2E",
"B 	c #DADADA",
"C 	c #BEBEBE",
"D 	c #E1E1E1",
"E 	c #848484",
"F 	c #BFBFBF",
"G 	c #BDBDBD",
"H 	c #2D2D2D",
"I 	c #8C8C8C",
"J 	c #D9D9D9",
"K 	c #A2A2A2",
"L 	c #E3E3E3",
"M 	c #404040",
"N 	c #060606",
"O 	c #353535",
"P 	c #5D5D5D",
"Q 	c #1B1B1B",
"R 	c #575757",
"S 	c #343434",
"T 	c #D4D4D4",
"U 	c #CECECE",
"V 	c #070707",
"W 	c #363636",
"X 	c #686868",
"Y 	c #F9F9F9",
"Z 	c #BBBBBB",
"` 	c #F2F2F2",
" .	c #F6F6F6",
"..	c #F4F4F4",
"+.	c #D0D0D0",
"@.	c #C9C9C9",
"#.	c #D7D7D7",
"$.	c #0F0F0F",
"%.	c #EFEFEF",
"&.	c #2B2B2B",
"*.	c #636363",
"=.	c #2C2C2C",
"-.	c #F5F5F5",
";.	c #FAFAFA",
">.	c #B8B8B8",
",.	c #828282",
"'.	c #858585",
").	c #D6D6D6",
"!.	c #A4A4A4",
"~.	c #919191",
"{.	c #9B9B9B",
"].	c #FEFEFE",
"^.	c #525252",
"/.	c #1D1D1D",
"(.	c #A1A1A1",
"_.	c #272727",
":.	c #7F7F7F",
"<.	c #CCCCCC",
"[.	c #5B5B5B",
"}.	c #D8D8D8",
"|.	c #8F8F8F",
"1.	c #959595",
"2.	c #505050",
"3.	c #1A1A1A",
"4.	c #D3D3D3",
"5.	c #3D3D3D",
"6.	c #4F4F4F",
"7.	c #676767",
"8.	c #616161",
"9.	c #969696",
"0.	c #868686",
"a.	c #424242",
"b.	c #707070",
"c.	c #DCDCDC",
"d.	c #414141",
"e.	c #666666",
"f.	c #5F5F5F",
"g.	c #F0F0F0",
"h.	c #949494",
"i.	c #FCFCFC",
"j.	c #CFCFCF",
"k.	c #313131",
"l.	c #B4B4B4",
"m.	c #DBDBDB",
"n.	c #595959",
"o.	c #F8F1F1",
"p.	c #B3B3B3",
"q.	c #727272",
"r.	c #757575",
"s.	c #A5A5A5",
"t.	c #C6C6C6",
"u.	c #F1F1F1",
"v.	c #FDFDFD",
"w.	c #F7F7F7",
"x.	c #8E8E8E",
"y.	c #FF5252",
"z.	c #FF7070",
"A.	c #FF4F4F",
"                                              . . . . . . . . . .                                               ",
"                                      . . . . . . . . . . . . . . . . . .                                       ",
"                                  . . . . . . . . . . . . . . . . . . . . . .                                   ",
"                              . . . . . . . . . . . . . . . . . . . . . . . . . .                               ",
"                          . . . . . . . . . . . . . . . . . . . . . . . . . . . . . .                           ",
"                      . . . . . . . . . . . . . . . . . . . . . . . . . . . . . . . . . .                       ",
"                    . . . . . . . . . . . . .                       . . . . . . . . . . . .                     ",
"                  . . . . . . . . . . .                                   . . . . . . . . . .                   ",
"                . . . . . . . . . .                                           . . . . . . . . .                 ",
"              . . . . . . . + @                                                   . . . . . . . .               ",
"            . . . . . . . . # $ % & * =         - ; > & , % '                       . . . . . . . .             ",
"          . . . . . . . .       ) ! ~ { =         ] ^ / ( _                             . . . . . . .           ",
"          . . . . . . .           : < [ }           = | 1                                 . . . . . .           ",
"        . . . . . . .             2 3 4 5 _           6 7                                   . . . . . .         ",
"        . . . . . . .             2 ) _ 8 9 =         0 7                                   . . . . . .         ",
"      . . . . . . .               2 a   b c d e       2 f         1 - g h i 1                 . . . . . .       ",
"      . . . . . .                 2 a   e j k l       2 f       ) m n     _ ! =                 . . . . .       ",
"    . . . . . .                   2 a     ) o p -     2 f       q r _       s m                   . . . . .     ",
"    . . . . . .                   2 a       - t u v   2 f     = w x         2 y ]                 . . . . .     ",
"  . . . . . .                     2 a         z [ s ' 2 f     a A >         B ~ 1                   . . . . .   ",
"  . . . . . .                     C D         ) E k F G f     a H I         J ~ )                   . . . . .   ",
"  . . . . . .                     K L           e M N O f     e P x         l Q 1                   . . . . .   ",
"  . . . . .                     1 R )             - 5 S f       T r f       , >                       . . . .   ",
". . . . . .                   - U V , = _           2 W f       ) m n     ] X e                       . . . . . ",
". . . . . .                 _ B F F F b Y           1 Z f         e 7 `  .i )                         . . . . . ",
". . . . . .                                                                                           . . . . . ",
". . . . . .     .._ +.@.@.#.e ]                                                                       . . . . . ",
". . . . . .     _ f ] $.r %.7                                                                         . . . . . ",
". . . . . .         f &.*.                                                                            . . . . . ",
". . . . . .         7 =.*.                                                                            . . . . . ",
". . . . . .         7 =.*.                                                                            . . . . . ",
". . . . . .         7 =.*.            = _ ' -.)         e ..;.%._       f ] e 1 e f >.#.)             . . . . . ",
". . . . . .         7 =.*.          U ,.) - f '.]     ).!.] 7 L ~.e      .{.k ].h - ] *.^.1           . . . . . ",
"  . . . . .         7 =.*.        - /.=     (.[ e   e _.=       :.:       ) ~ (.)     e Q <.          . . . .   ",
"  . . . . .         7 =.*.        d [.v     }.|._   1.2.]       ).3.e     1 ~ 4.      1 2.(.          . . . .   ",
"  . . . . . .       7 =.*.      a 5.&             f 6.7.        1 ~ f     1 ~ ]         8.9.        . . . . .   ",
"  . . . . . .       7 =.*.      a &.0.            a a.b.        ] ~ c.    1 ~ %.        8.9.        . . . . .   ",
"    . . . . .       7 =.*.      f d.*.            %.e.f.%.      D [ v     1 ~ g.        8.9.        . . . .     ",
"    . . . . . .     7 =.*.        h.Q =       e i.  j.k.-       l.< 1     1 ~ g.        8.9.      . . . . .     ",
"      . . . . .     %.y ^.g.      ) =.|.1   1 ] ]   1 | m.    e P a       ) ~ %.      ` n.>       . . . .       ",
"      . . . . . o.L p.b.q.b ] -     1 r.b.s.0 =       v t.g ;.n f     g.3 } b.<.3 u.v.w.& x.v.g . . . . .       ",
"        . . . . y.z.                  u.a L =             L L )                               A.. . . .         ",
"        . . . . . . .                                                                       . . . . . .         ",
"          . . . . . .                                                                       . . . . .           ",
"          . . . . . . .                                                                   . . . . . .           ",
"            . . . . . . .                                                               . . . . . .             ",
"              . . . . . . . .                                                       . . . . . . .               ",
"                . . . . . . . .                                                   . . . . . . .                 ",
"                  . . . . . . . . .                                           . . . . . . . .                   ",
"                    . . . . . . . . . .                                   . . . . . . . . .                     ",
"                      . . . . . . . . . . . .                       . . . . . . . . . . .                       ",
"                          . . . . . . . . . . . . . . . . . . . . . . . . . . . . . .                           ",
"                              . . . . . . . . . . . . . . . . . . . . . . . . . .                               ",
"                                  . . . . . . . . . . . . . . . . . . . . . .                                   ",
"                                      . . . . . . . . . . . . . . . . . .                                       ",
"                                              . . . . . . . . . .                                               "};
