/* XPM */
static char * star_xpm[] = {
"56 56 179 2",
"  	c None",
". 	c #FFFFFF",
"+ 	c #F7F7F7",
"@ 	c #F4F4F4",
"# 	c #B0B0B0",
"$ 	c #B5B5B5",
"% 	c #F8F8F8",
"& 	c #F9F9F9",
"* 	c #B2B2B2",
"= 	c #101010",
"- 	c #000000",
"; 	c #171717",
"> 	c #BABABA",
", 	c #CFCFCF",
"' 	c #050505",
") 	c #070707",
"! 	c #D4D4D4",
"~ 	c #FCFCFC",
"{ 	c #4A4A4A",
"] 	c #4D4D4D",
"^ 	c #0F0F0F",
"/ 	c #131313",
"( 	c #252525",
"_ 	c #161616",
": 	c #646464",
"< 	c #595959",
"[ 	c #FAFAFA",
"} 	c #C0C0C0",
"| 	c #C1C1C1",
"1 	c #FBFBFB",
"2 	c #FDFDFD",
"3 	c #202020",
"4 	c #FEFEFE",
"5 	c #F6F6F6",
"6 	c #8A8A8A",
"7 	c #AAAAAA",
"8 	c #5D5D5D",
"9 	c #525252",
"0 	c #7C7C7C",
"a 	c #E9E9E9",
"b 	c #F2F2F2",
"c 	c #090909",
"d 	c #080808",
"e 	c #F0F0F0",
"f 	c #EAEAEA",
"g 	c #7B7B7B",
"h 	c #515151",
"i 	c #5B5B5B",
"j 	c #A6A6A6",
"k 	c #4C4C4C",
"l 	c #111111",
"m 	c #C2C2C2",
"n 	c #5C5C5C",
"o 	c #585858",
"p 	c #C5C5C5",
"q 	c #434343",
"r 	c #8C8C8C",
"s 	c #0E0E0E",
"t 	c #DCDCDC",
"u 	c #B4B4B4",
"v 	c #B3B3B3",
"w 	c #DEDEDE",
"x 	c #818181",
"y 	c #3A3A3A",
"z 	c #2A2A2A",
"A 	c #0A0A0A",
"B 	c #030303",
"C 	c #F5F5F5",
"D 	c #282828",
"E 	c #373737",
"F 	c #575757",
"G 	c #363636",
"H 	c #2C2C2C",
"I 	c #707070",
"J 	c #909090",
"K 	c #5F5F5F",
"L 	c #535353",
"M 	c #6E6E6E",
"N 	c #E4E4E4",
"O 	c #6C6C6C",
"P 	c #696969",
"Q 	c #B1B1B1",
"R 	c #020202",
"S 	c #E7E7E7",
"T 	c #2E2E2E",
"U 	c #737373",
"V 	c #757575",
"W 	c #3D3D3D",
"X 	c #D9D9D9",
"Y 	c #D0D0D0",
"Z 	c #929292",
"` 	c #6D6D6D",
" .	c #0C0C0C",
"..	c #9F9F9F",
"+.	c #7A7A7A",
"@.	c #9C9C9C",
"#.	c #0B0B0B",
"$.	c #939393",
"%.	c #DDDDDD",
"&.	c #A2A2A2",
"*.	c #606060",
"=.	c #656565",
"-.	c #F3F3F3",
";.	c #5E5E5E",
">.	c #0D0D0D",
",.	c #A1A1A1",
"'.	c #A8A8A8",
").	c #262626",
"!.	c #A5A5A5",
"~.	c #A7A7A7",
"{.	c #151515",
"].	c #232323",
"^.	c #A0A0A0",
"/.	c #383838",
"(.	c #CCCCCC",
"_.	c #727272",
":.	c #CECECE",
"<.	c #9B9B9B",
"[.	c #747474",
"}.	c #010101",
"|.	c #3B3B3B",
"1.	c #D1D1D1",
"2.	c #ADADAD",
"3.	c #AEAEAE",
"4.	c #3F3F3F",
"5.	c #1C1C1C",
"6.	c #838383",
"7.	c #1E1E1E",
"8.	c #1F1F1F",
"9.	c #848484",
"0.	c #1D1D1D",
"a.	c #474747",
"b.	c #7F7F7F",
"c.	c #686868",
"d.	c #E6E6E6",
"e.	c #E8E8E8",
"f.	c #CDCDCD",
"g.	c #C3C3C3",
"h.	c #1A1A1A",
"i.	c #A9A9A9",
"j.	c #222222",
"k.	c #C4C4C4",
"l.	c #4B4B4B",
"m.	c #DADADA",
"n.	c #212121",
"o.	c #494949",
"p.	c #9E9E9E",
"q.	c #EBEBEB",
"r.	c #717171",
"s.	c #EEEEEE",
"t.	c #121212",
"u.	c #6A6A6A",
"v.	c #E2E2E2",
"w.	c #C7C7C7",
"x.	c #C9C9C9",
"y.	c #343434",
"z.	c #242424",
"A.	c #313131",
"B.	c #464646",
"C.	c #040404",
"D.	c #EDEDED",
"E.	c #444444",
"F.	c #989898",
"G.	c #979797",
"H.	c #060606",
"I.	c #3E3E3E",
"J.	c #424242",
"K.	c #EFEFEF",
"L.	c #414141",
"M.	c #878787",
"N.	c #9A9A9A",
"O.	c #C8C8C8",
"P.	c #999999",
"Q.	c #141414",
"R.	c #8D8D8D",
"S.	c #AFAFAF",
"T.	c #DBDBDB",
"U.	c #DFDFDF",
"V.	c #E1E1E1",
"                                                                                                                ",
"                                                                                                                ",
"                                                                                                                ",
"                                                      . .                                                       ",
"                                                  + @ # $ + %                                                   ",
"                                                & * = - - ; > &                                                 ",
"                                              & , ' - - - - ) ! &                                               ",
"                                              ~ { - - - - - - ] ~                                               ",
"                                              . ^ - - - - - - / .                                               ",
"                                              . ( - - - - - - _ .                                               ",
"                                              & : - - - - - - < [                                               ",
"                                              ~ } - - - - - - | 1                                               ",
"                                                2 3 - - - - ( 4                                                 ",
"                  & % [ 5                       + 6 - - - - 6 5                       5 & % +                   ",
"              ~ 4 7 8 9 0 a +                     b c - - d e                     + f g h i j 2 [               ",
"              ~ k - - - - l m +                   [ n - - o 1                   % p / - - - - q [               ",
"            + r - - - - - - s t %                 1 u - - v ~                 & w ^ - - - - - - x +             ",
"            . y - - - - - - - z +                   [ A B C                   5 D - - - - - - - E .             ",
"            . y - - - - - - - - F 2                 . G H .                 2 F - - - - - - - - E .             ",
"            + I - - - - - - - - - J [               + K L [               [ J - - - - - - - - - M 5             ",
"            4 N ^ - - - - - - - - B v &             @ O P C             % Q R - - - - - - - - / S 4             ",
"              % ! T - - - - - - - - c | &           @ U V @           & | d - - - - - - - - W X %               ",
"                % 4 Y Z ` k H  .- - - ' ..1         @ V +.@         1 @.' - - - #.H k ` $.t 4 %                 ",
"                    . + C ~ . 2 %.&.*.^ - =.-.+     @ V +.@     + e ;.- >.n ,.t 2 . ~ C &                       ",
"                                  [ & [ '.).; !.4 & % V +.% & 4 ~.{.].^.& [ [                                   ",
"                                        + ~ @.; /.(.. M _.. :.y _ <.~ +                                         ",
"                                            + C [.) y }.}.|.) _.C +                                             ",
"                                                1 ! - - - - 1.[                                                 ",
"                                              [ . 2.- - - - 3.4 1                                               ",
"                                          ~ ~ :.4.5.6.7.8.9.0.a.X [                                             ",
"                                      ~ 1 X L #.b.% . V +.. & x ^ c.d.[ 4                                       ",
"                              . 5 & 2 | o R k S %   @ V +.C   & e.{ ' : f.. + + .                               ",
"                    5 ~ . 2 d.g.J i h.- ^ i.2 ~     @ V +.@     ~ 2 '.= - j.8 Z k.S 2 . ~ 5                     ",
"                % f 6 l.j.' - - - - - 3 m.+         @ V +.@         + %.].- - - - - ' n.o.6 f %                 ",
"              [ p.d - - - - - - - - 3 q.%           @ r.U @           % s.).- - - - - - - - ) @.[               ",
"            [ g.}.- - - - - - - - t.%.%             C u.P C             & v._ - - - - - - - - R w.&             ",
"            [ i - - - - - - - - B } +               & o L [               % x.' - - - - - - - - F &             ",
"            . y.- - - - - - - - 6.[                 . H z..                 & $.- - - - - - - - A..             ",
"            2 a.- - - - - - - B.2                   e C.}.D.                  2 o - - - - - - - E.2             ",
"            % 2.- - - - - - ).b ~                 + F.- - G.%                   + T - - - - - - 7 +             ",
"              ~ 6 H.- - - I.q.%                   2 I.- - J.2                   [ K.L.- - - ' M.~               ",
"                & D.j N.x.. [                   4 m.- - - }.v..                   1 . O.P.j q.&                 ",
"                    2 1 .                       [ : - - - - V %                       . 1 2                     ",
"                                                K.d - - - - Q.[                                                 ",
"                                              + R.- - - - - - S.[                                               ",
"                                              . G - - - - - - L 1                                               ",
"                                              1 ' - - - - - - 5..                                               ",
"                                              1 R - - - - - - l .                                               ",
"                                              2 B.- - - - - - K [                                               ",
"                                              [ T. .- - - - ; d.2                                               ",
"                                                % 1.A.- - 4.U.+                                                 ",
"                                                  & . V.d.. [                                                   ",
"                                                                                                                ",
"                                                                                                                ",
"                                                                                                                ",
"                                                                                                                "};
