/* XPM */
static char * numbers_xpm[] = {
"55 6 3 1",
" 	c None",
".	c #05548D",
"+	c #5EC4FF",
".+++....+..+++..+++....+.+++++.+++.+++++.+++..+++......",
"++..+..++.+..+++..++..++.++...++......++++..++..++.....",
"++.++.+++...+++..++..+++.++++.++++...++..+++.+..++.....",
"+++.+..++..+++....+++.++....++++..+..++.++..+.++++.....",
"++..+..++.+++..+..++++++++..++++..+.++..++..+...++.....",
".+++..+++++++++.+++...++..+++..+++..++...+++..+++......"};
