/* XPM */
static char * off_xpm[] = {
"2 11 3 1",
" 	c None",
".	c #05548D",
"+	c #0062CC",
".+",
".+",
".+",
".+",
".+",
".+",
".+",
".+",
".+",
".+",
".+"};
