/* XPM */
static char * display_text_xpm[] = {
"58 58 6 1",
" 	c None",
".	c #7C827C",
"+	c #020202",
"@	c #0A0A0A",
"#	c #202020",
"$	c #DEDEDE",
"..++++++++++++++++++++++++++++++++++++++++++++++++++++++..",
".+@@@@@@@@@@@@@@@@@@@@@@@@@@@@@@@@@@@@@@@@@@@@@@@@@@@@@@+.",
"+@@#####################################################+$",
"+@######################################################+$",
"+@######################################################+$",
"+@######################################################+$",
"+@######################################################+$",
"+@######################################################+$",
"+@######################################################+$",
"+@######################################################+$",
"+@######################################################+$",
"+@######################################################+$",
"+@######################################################+$",
"+@######################################################+$",
"+@######################################################+$",
"+@######################################################+$",
"+@######################################################+$",
"+@######################################################+$",
"+@######################################################+$",
"+@######################################################+$",
"+@######################################################+$",
"+@######################################################+$",
"+@######################################################+$",
"+@######################################################+$",
"+@######################################################+$",
"+@######################################################+$",
"+@######################################################+$",
"+@######################################################+$",
"+@######################################################+$",
"+@######################################################+$",
"+@######################################################+$",
"+@######################################################+$",
"+@######################################################+$",
"+@######################################################+$",
"+@######################################################+$",
"+@######################################################+$",
"+@######################################################+$",
"+@######################################################+$",
"+@######################################################+$",
"+@######################################################+$",
"+@######################################################+$",
"+@######################################################+$",
"+@######################################################+$",
"+@######################################################+$",
"+@######################################################+$",
"+@######################################################+$",
"+@######################################################+$",
"+@######################################################+$",
"+@######################################################+$",
"+@######################################################+$",
"+@######################################################+$",
"+@######################################################+$",
"+@######################################################+$",
"+@######################################################+$",
"+@######################################################+$",
"+@#####################################################++$",
".+++++++++++++++++++++++++++++++++++++++++++++++++++++++$.",
"..$$$$$$$$$$$$$$$$$$$$$$$$$$$$$$$$$$$$$$$$$$$$$$$$$$$$$$.."};
