/* XPM */
static char * mask_xpm[] = {
"54 57 5 1",
" 	c None",
".	c #404040",
"+	c #A8A8A8",
"@	c #000000",
"#	c #FFFFFF",
".....................................................+",
".@@@@@@@@@@@@@@@@@@@@@@@@@@@@@@@@@@@@@@@@@@@@@@@@@@@@#",
".@@@@@@@@@@@@@@@@@@@@@@@@@@@@@@@@@@@@@@@@@@@@@@@@@@@@#",
".@@@@@@@@@@@@@@@@@@@@@@@@@@@@@@@@@@@@@@@@@@@@@@@@@@@@#",
".@@@@@@@@@@@@@@@@@@@@@@@@@@@@@@@@@@@@@@@@@@@@@@@@@@@@#",
".@@@@@@@@@@@@@@@@@@@@@@@@@@@@@@@@@@@@@@@@@@@@@@@@@@@@#",
".@@@@@@@@@@@@@@@@@@@@@@@@@@@@@@@@@@@@@@@@@@@@@@@@@@@@#",
".@@@@@@@@@@@@@@@@@@@@@@@@@@@@@@@@@@@@@@@@@@@@@@@@@@@@#",
".@@@@@@@@@@@@@@@@@@@@@@@@@@@@@@@@@@@@@@@@@@@@@@@@@@@@#",
".@@@@@@@@@@@@@@@@@@@@@@@@@@@@@@@@@@@@@@@@@@@@@@@@@@@@#",
".@@@@@@@@@@@@@@@@@@@@@@@@@@@@@@@@@@@@@@@@@@@@@@@@@@@@#",
".@@@@@@@@@@@@@@@@@@@@@@@@@@@@@@@@@@@@@@@@@@@@@@@@@@@@#",
".@@@@@@@@@@@@@@@@@@@@@@@@@@@@@@@@@@@@@@@@@@@@@@@@@@@@#",
".@@@@@@@@@@@@@@@@@@@@@@@@@@@@@@@@@@@@@@@@@@@@@@@@@@@@#",
".@@@@@@@@@@@@@@@@@@@@@@@@@@@@@@@@@@@@@@@@@@@@@@@@@@@@#",
".@@@@@@@@@@@@@@@@@@@@@@@@@@@@@@@@@@@@@@@@@@@@@@@@@@@@#",
".@@@@@@@@@@@@@@@@@@@@@@@@@@@@@@@@@@@@@@@@@@@@@@@@@@@@#",
"+#####################################################",
"                                                      ",
"                                                      ",
"          #################################           ",
"          #################################@          ",
"          #################################@@         ",
"          #################################@@@        ",
"          #################################@@@.       ",
"          #################################@@@..      ",
"          #################################@@@...     ",
"          #################################@@@....    ",
"          #################################@@@....    ",
"          #################################@@@....    ",
"          #################################@@@....    ",
"          #################################@@@....    ",
"          #################################@@@....    ",
"          #################################@@@....    ",
"          #################################@@@....    ",
"          #################################@@@....    ",
"          #################################@@@....    ",
"          #################################@@@....    ",
"          #################################@@@....    ",
"          #################################@@@....    ",
"          #################################@@@....    ",
"          #################################@@@....    ",
"          #################################@@@....    ",
"          #################################@@@....    ",
"          #################################@@@....    ",
"          #################################@@@....    ",
"          #################################@@@....    ",
"         ##################################@@@....    ",
"         ##################################@@@....    ",
"         #################################.@@@....    ",
"        ##################################.@@@....    ",
"       ##################################..@@@....    ",
"          .................................@@@....    ",
"          +++++++++++++++++++++++++++++++++@@@....    ",
"          @@@@@@@@@@@@@@@@@@@@@@@@@@@@@@@@@@@@....    ",
"           @@@@@@@@@@@@@@@@@@@@@@@@@@@@@@@@@@@....    ",
"            ......................................    "};
