/* XPM */
static char * mois_xpm[] = {
"22 72 4 1",
" 	c #FFFFFF",
".	c #000000",
"X	c #AAAAAA",
"o	c #555555",
"                      ",
"     .   .    .    .  ",
"    X.   .   X..  X.  ",
"    .X  . .  .X . .X  ",
" .  .  .... X.   ..   ",
"  ..  .   . .     .   ",
"                      ",
"  o.....  ..... .   . ",
"  .      X.     .X .X ",
" X.....  .....  X. .  ",
" .       .       ..   ",
".       o....    .    ",
"                      ",
"  .    .    .    ....o",
"  .   ..    .X   .   .",
" . . . .   . .  ..... ",
" .  .  .  ....  .   . ",
".      . .   . .    . ",
"                      ",
"     .  .   .  ....o  ",
"     .X .X .X  .   .  ",
"    . . X. .  .....   ",
"   ....  ..   .   .   ",
"  .   .  .   .    .   ",
"                      ",
"    .    .    .   X.  ",
"   X.   ..    .X  .X  ",
"   .X. . .   . . X.   ",
"  X.  .  .  .... .X   ",
"  .      . .   . .    ",
"                      ",
"    .  .  X. X. .    .",
"   X. X.  .  . X..  X.",
"   .X .X X. X. .  . .X",
".  .  .  .X . X.   .. ",
" ..   o...  . .     . ",
"                      ",
"     .  .  X. X.  .   ",
"    X. X.  .  .X X.   ",
"    .X .X X. X.  .X   ",
" .  .  .  .  .X  .    ",
"  ..   o..   .  o.... ",
"                      ",
"    .    X..   .  X.  ",
"    .X  .   . X.  .   ",
"   . . X.  .X .X X.   ",
"  .... .   .  .  .X   ",
" .   . X...   o..     ",
"                      ",
"  X....  .....  o...o ",
"  .     X.     X.   . ",
"  X..X  ....   .....  ",
"     .  .     X.      ",
" ....X o....  .       ",
"                      ",
"    o..   ... .....   ",
"   .   . .     X.     ",
"  X.  .X .     .X     ",
"  .  X. .     X.      ",
"  X...  ....  .       ",
"                      ",
"  .    .  X...  .   . ",
" X..  X.  .   . .X .X ",
" .  . .X X.  .X X. .  ",
"X.   ..  .   .   ..   ",
".     .  ....    .    ",
"                      ",
"   o...   ....  ...   ",
"  X.   . X.    .      ",
"  .    . ....  .      ",
"  .   .  .    .       ",
" o....  o.... .....   "};
