#define wmifs_mask_width 64
#define wmifs_mask_height 64
static char wmifs_mask_bits[] = {
 0x00, 0x00, 0x00, 0x00, 0x00, 0x00, 0x00, 0x00,
 0x00, 0x00, 0x00, 0x00, 0x00, 0x00, 0x00, 0x00,
 0x00, 0x00, 0x00, 0x00, 0x00, 0x00, 0x00, 0x00,
 0x00, 0x00, 0x00, 0x00, 0x00, 0x00, 0x00, 0x00,

 0xf0, 0xff, 0xff, 0xff, 0x9f, 0xff, 0xff, 0x0f,
 0xf0, 0xff, 0xff, 0xff, 0x9f, 0xff, 0xff, 0x0f,
 0xf0, 0xff, 0xff, 0xff, 0x9f, 0xff, 0xff, 0x0f,
 0xf0, 0xff, 0xff, 0xff, 0x9f, 0xff, 0xff, 0x0f,
 0xf0, 0xff, 0xff, 0xff, 0x9f, 0xff, 0xff, 0x0f,
 0xf0, 0xff, 0xff, 0xff, 0x9f, 0xff, 0xff, 0x0f,
 0xf0, 0xff, 0xff, 0xff, 0x9f, 0xff, 0xff, 0x0f,
 0xf0, 0xff, 0xff, 0xff, 0x9f, 0xff, 0xff, 0x0f,
 0xf0, 0xff, 0xff, 0xff, 0x9f, 0xff, 0xff, 0x0f,
 0xf0, 0xff, 0xff, 0xff, 0x9f, 0xff, 0xff, 0x0f,
 0xf0, 0xff, 0xff, 0xff, 0x9f, 0xff, 0xff, 0x0f,
 0xf0, 0xff, 0xff, 0xff, 0x9f, 0xff, 0xff, 0x0f,

 0x00, 0x00, 0x00, 0x00, 0x00, 0x00, 0x00, 0x00,
 0x00, 0x00, 0x00, 0x00, 0x00, 0x00, 0x00, 0x00,

 0xf0, 0xff, 0xff, 0xff, 0xff, 0xff, 0xff, 0x0f,
 0xf0, 0xff, 0xff, 0xff, 0xff, 0xff, 0xff, 0x0f,
 0xf0, 0xff, 0xff, 0xff, 0xff, 0xff, 0xff, 0x0f,
 0xf0, 0xff, 0xff, 0xff, 0xff, 0xff, 0xff, 0x0f,
 0xf0, 0xff, 0xff, 0xff, 0xff, 0xff, 0xff, 0x0f,
 0xf0, 0xff, 0xff, 0xff, 0xff, 0xff, 0xff, 0x0f,
 0xf0, 0xff, 0xff, 0xff, 0xff, 0xff, 0xff, 0x0f,
 0xf0, 0xff, 0xff, 0xff, 0xff, 0xff, 0xff, 0x0f,
 0xf0, 0xff, 0xff, 0xff, 0xff, 0xff, 0xff, 0x0f,
 0xf0, 0xff, 0xff, 0xff, 0xff, 0xff, 0xff, 0x0f,
 0xf0, 0xff, 0xff, 0xff, 0xff, 0xff, 0xff, 0x0f,
 0xf0, 0xff, 0xff, 0xff, 0xff, 0xff, 0xff, 0x0f,
 0xf0, 0xff, 0xff, 0xff, 0xff, 0xff, 0xff, 0x0f,
 0xf0, 0xff, 0xff, 0xff, 0xff, 0xff, 0xff, 0x0f,
 0xf0, 0xff, 0xff, 0xff, 0xff, 0xff, 0xff, 0x0f,
 0xf0, 0xff, 0xff, 0xff, 0xff, 0xff, 0xff, 0x0f,
 0xf0, 0xff, 0xff, 0xff, 0xff, 0xff, 0xff, 0x0f,
 0xf0, 0xff, 0xff, 0xff, 0xff, 0xff, 0xff, 0x0f,
 0xf0, 0xff, 0xff, 0xff, 0xff, 0xff, 0xff, 0x0f,
 0xf0, 0xff, 0xff, 0xff, 0xff, 0xff, 0xff, 0x0f,
 0xf0, 0xff, 0xff, 0xff, 0xff, 0xff, 0xff, 0x0f,
 0xf0, 0xff, 0xff, 0xff, 0xff, 0xff, 0xff, 0x0f,
 0xf0, 0xff, 0xff, 0xff, 0xff, 0xff, 0xff, 0x0f,
 0xf0, 0xff, 0xff, 0xff, 0xff, 0xff, 0xff, 0x0f,
 0xf0, 0xff, 0xff, 0xff, 0xff, 0xff, 0xff, 0x0f,
 0xf0, 0xff, 0xff, 0xff, 0xff, 0xff, 0xff, 0x0f,
 0xf0, 0xff, 0xff, 0xff, 0xff, 0xff, 0xff, 0x0f,
 0xf0, 0xff, 0xff, 0xff, 0xff, 0xff, 0xff, 0x0f,
 0xf0, 0xff, 0xff, 0xff, 0xff, 0xff, 0xff, 0x0f,
 0xf0, 0xff, 0xff, 0xff, 0xff, 0xff, 0xff, 0x0f,
 0xf0, 0xff, 0xff, 0xff, 0xff, 0xff, 0xff, 0x0f,
 0xf0, 0xff, 0xff, 0xff, 0xff, 0xff, 0xff, 0x0f,
 0xf0, 0xff, 0xff, 0xff, 0xff, 0xff, 0xff, 0x0f,
 0xf0, 0xff, 0xff, 0xff, 0xff, 0xff, 0xff, 0x0f,
 0xf0, 0xff, 0xff, 0xff, 0xff, 0xff, 0xff, 0x0f,
 0xf0, 0xff, 0xff, 0xff, 0xff, 0xff, 0xff, 0x0f,
 0xf0, 0xff, 0xff, 0xff, 0xff, 0xff, 0xff, 0x0f,
 0xf0, 0xff, 0xff, 0xff, 0xff, 0xff, 0xff, 0x0f,
 0xf0, 0xff, 0xff, 0xff, 0xff, 0xff, 0xff, 0x0f,
 0xf0, 0xff, 0xff, 0xff, 0xff, 0xff, 0xff, 0x0f,
 0xf0, 0xff, 0xff, 0xff, 0xff, 0xff, 0xff, 0x0f,
 0xf0, 0xff, 0xff, 0xff, 0xff, 0xff, 0xff, 0x0f,

 0x00, 0x00, 0x00, 0x00, 0x00, 0x00, 0x00, 0x00,
 0x00, 0x00, 0x00, 0x00, 0x00, 0x00, 0x00, 0x00,
 0x00, 0x00, 0x00, 0x00, 0x00, 0x00, 0x00, 0x00,
 0x00, 0x00, 0x00, 0x00, 0x00, 0x00, 0x00, 0x00 };
