/* XPM */
static const char * colourbutton_xpm[] = {
"24 16 4 1",
" 	c None",
".	c #FCFCFC",
"@	c #8C8484",
"#	c #000000",
".......................@",
".@@@@@@@@@@@@@@@@@@@@@.@",
".@####################.@",
".@####################.@",
".@####################.@",
".@####################.@",
".@####################.@",
".@####################.@",
".@####################.@",
".@####################.@",
".@####################.@",
".@####################.@",
".@####################.@",
".@####################.@",
".......................@",
"@@@@@@@@@@@@@@@@@@@@@@@@"};
