/* XPM */
static char * wmsmixer_xpm[] = {
"64 64 7 1",
" 	c None",
".	c #000000",
"+	c #AEAAAE",
"@	c #282828 s back_color",
"#	c #202020",
"$	c #F7F3FF",
"%	c #86828E",
"                                                                ",
"                                                                ",
"                                                                ",
"                                                                ",
"    ............................   ........................+    ",
"    .@@@@@@@@@@@@@@@@@@@@@@@@@@+   .@@@@@@@@@@@@@@@@@@@@@@@+    ",
"    .@@@@@@@@@@@@@@@@@@@@@@@@@@+   .@@@@@@@@@@@@@@@@@@@@@@@+    ",
"    .@@@@@@@@@@@@@@@@@@@@@@@@@@+   .@@@@@@@@@@@@@@@@@@@@@@@+    ",
"    .@@@@@@@@@@@@@@@@@@@@@@@@@@+   .@@@@@@@@@@@@@@@@@@@@@@@+    ",
"    .@@@@@@@@@@@@@@@@@@@@@@@@@@+   .@@@@@@@@@@@@@@@@@@@@@@@+    ",
"    .@@@@@@@@@@@@@@@@@@@@@@@@@@+   .@@@@@@@@@@@@@@@@@@@@@@@+    ",
"    .@@@@@@@@@@@@@@@@@@@@@@@@@@+   .@@@@@@@@@@@@@@@@@@@@@@@+    ",
"    .@@@@@@@@@@@@@@@@@@@@@@@@@@+   .@@@@@@@@@@@@@@@@@@@@@@@+    ",
"    .@@@@@@@@@@@@@@@@@@@@@@@@@@+   .@@@@@@@@@@@@@@@@@@@@@@@+    ",
"    .@@@@@@@@@@@@@@@@@@@@@@@@@@+   .@@@@@@@@@@@@@@@@@@@@@@@+    ",
"    ++++++++++++++++++++++++++++   .@@@@@@@@@@@@@@@@@@@@@@@+    ",
"                                   .@@@@@@@@@@@@@@@@@@@@@@@+    ",
"                                   .@@@@@@@@@@@@@@@@@@@@@@@+    ",
"    ...........................+   .@@@@@@@@@@@@@@@@@@@@@@@+    ",
"    .@@@@@@@@@@@@@@@@@@@@@@@@@@+   .@@@@@@@@@@@@@@@@@@@@@@@+    ",
"    .@@@@@@@@@@@@@@@@@@@@@@@@@@+   .@@@@@@@@@@@@@@@@@@@@@@@+    ",
"    .@@@@@@@@@@@@@@@@@@@@@@@@@@+   .#@@@@@@@@@@@@@@@@@@@@@@+    ",
"    .@@@@@@@@@@@@@@@@@@@@@@@@@@+   .@@@@@@@@@@@@@@@@@@@@@@@+    ",
"    .@@@@@@@@@@@@@@@@@@@@@@@@@@+   .@@@@@@@@@@@@@@@@@@@@@@@+    ",
"    .@@@@@@@@@@@@@@@@@@@@@@@@@@+   .@@@@@@@@@@@@@@@@@@@@@@@+    ",
"    .@@@@@@@@@@@@@@@@@@@@@@@@@@+   .@@@@@@@@@@@@@@@@@@@@@@@+    ",
"    .@@@@@@@@@@@@@@@@@@@@@@@@@@+   .@@@@@@@@@@@@@@@@@@@@@@@+    ",
"    .@@@@@@@@@@@@@@@@@@@@@@@@@@+   .@@@@@@@@@@@@@@@@@@@@@@@+    ",
"    .@@@@@@@@@@@@@@@@@@@@@@@@@@+   .@@@@@@@@@@@@@@@@@@@@@@@+    ",
"    .@@@@@@@@@@@@@@@@@@@@@@@@@@+   .@@@@@@@@@@@@@@@@@@@@@@@+    ",
"    .@@@@@@@@@@@@@@@@@@@@@@@@@@+   .@@@@@@@@@@@@@@@@@@@@@@@+    ",
"    .@@@@@@@@@@@@@@@@@@@@@@@@@@+   .@@@@@@@@@@@@@@@@@@@@@@@+    ",
"    .@@@@@@@@@@@@@@@@@@@@@@@@@@+   .@@@@@@@@@@@@@@@@@@@@@@@+    ",
"    .@@@@@@@@@@@@@@@@@@@@@@@@@@+   .@@@@@@@@@@@@@@@@@@@@@@@+    ",
"    .@@@@@@@@@@@@@@@@@@@@@@@@@@+   .#@@@@@@@@@@@@@@@@@@@@@@+    ",
"    .@@@@@@@@@@@@@@@@@@@@@@@@@@+   .#@@@@@@@@@@@@@@@@@@@@@@+    ",
"    .@@@@@@@@@@@@@@@@@@@@@@@@@@+   .#@@@@@@@@@@@@@@@@@@@@@@+    ",
"    .@@@@@@@@@@@@@@@@@@@@@@@@@@+   .@@@@@@@@@@@@@@@@@@@@@@@+    ",
"    .@@@@@@@@@@@@@@@@@@@@@@@@@@+   .@@@@@@@@@@@@@@@@@@@@@@@+    ",
"    .@@@@@@@@@@@@@@@@@@@@@@@@@@+   .@@@@@@@@@@@@@@@@@@@@@@@+    ",
"    .@@@@@@@@@@@@@@@@@@@@@@@@@@+   .@@@@@@@@@@@@@@@@@@@@@@@+    ",
"    .@@@@@@@@@@@@@@@@@@@@@@@@@@+   .@@@@@@@@@@@@@@@@@@@@@@@+    ",
"    .@@@@@@@@@@@@@@@@@@@@@@@@@@+   .@@@@@@@@@@@@@@@@@@@@@@@+    ",
"    ++++++++++++++++++++++++++++   .@@@@@@@@@@@@@@@@@@@@@@@+    ",
"                                   .@@@@@@@@@@@@@@@@@@@@@@@+    ",
"                                   .@@@@@@@@@@@@@@@@@@@@@@@+    ",
"    ............................   .@@@@@@@@@@@@@@@@@@@@@@@+    ",
"    .$$$$$$$$$$$$%$$$$$$$$$$$$%+   .@@@@@@@@@@@@@@@@@@@@@@@+    ",
"    .$+++++++++++.$+++++++++++.+   .@@@@@@@@@@@@@@@@@@@@@@@+    ",
"    .$++++++.++++.$++++.++++++.+   .@@@@@@@@@@@@@@@@@@@@@@@+    ",
"    .$+++++..++++.$++++..+++++.+   .@@@@@@@@@@@@@@@@@@@@@@@+    ",
"    .$++++...++++.$++++...++++.+   .@@@@@@@@@@@@@@@@@@@@@@@+    ",
"    .$+++....++++.$++++....+++.+   .@@@@@@@@@@@@@@@@@@@@@@@+    ",
"    .$++++...++++.$++++...++++.+   .@@@@@@@@@@@@@@@@@@@@@@@+    ",
"    .$+++++..++++.$++++..+++++.+   .@@@@@@@@@@@@@@@@@@@@@@@+    ",
"    .$++++++.++++.$++++.++++++.+   .@@@@@@@@@@@@@@@@@@@@@@@+    ",
"    .$+++++++++++.$+++++++++++.+   .@@@@@@@@@@@@@@@@@@@@@@@+    ",
"    .%............%............+   .@@@@@@@@@@@@@@@@@@@@@@@+    ",
"    ++++++++++++++++++++++++++++   +++++++++++++++++++++++++    ",
"                                                                ",
"                                                                ",
"                                                                ",
"                                                                ",
"                                                                "};
