/* XPM */
static char * month_xpm[] = {
"22 72 4 1",
" 	c #FFFFFFFFFFFF",
"X	c #000000000000",
".	c #AEBAAAAAAEBA",
"o	c #514455555144",
"                      ",
"   .XXX.  XXXXX X   X ",
"   X   X    X   X. X. ",
"   XXX     X.    X.   ",
" X   X    X.     X    ",
" .XXX.   X.     .X    ",
"                      ",
"   XX   .X  .X XXXXX. ",
"  XX    X   X.   X.   ",
"  XX    X  .X    X.   ",
" XX.    X  .X   X.    ",
" XXXXXX XXXX.   X.    ",
"                      ",
" X  X  X    .XX .XXXXX",
" X.XX  X    X X    .X ",
"X X.X X X  .XX.   .X  ",
"X X X XXX  X  X .X    ",
"X   X X  X X  X XXXXX.",
"                      ",
"  .X  X. .X  X .X  .X ",
"  X  XX  X  X  X   XX ",
" .XX.   .X oX X   .X. ",
".X  X.  X o.X X   XX  ",
"XX   X. .X   X   .X   ",
"                      ",
"  X    X    X      X  ",
"  X. .XX    X      X  ",
" X X X X   X X     X  ",
" X  X  X  XXXX .  X.  ",
"X      X X   X .XXX   ",
"                      ",
" .XXXX XXXXo .XXX .XXo",
" X       oX  X    X  X",
".X     oX    XXX  XXo ",
"X     oX    X.   X  X ",
"XXXXX XXXXo XXX  X   X",
"                      ",
"  XX     X   .XXX.    ",
"  XX     X   X   X    ",
" X.     XX   XXXX.    ",
".XX     X   X         ",
"XXXXXX X.  .X         ",
"                      ",
"   .XXX.  X  XXX  XXX.",
"   X   X  X X.    X  X",
"   XXX   X. XXXX .XXX.",
" X   X   X. X    X. X ",
" .XXX.  X. XXXX. X   X",
"                      ",
" .X  X .X .XX  .XXXXXo",
" X  X  X  X  X     oX ",
".X oX X  .XXX.   oX   ",
"X o X X  X. X   oX    ",
".X   X   X   X oXXXXX.",
"               oX.    ",
"  XXXX   X     .      ",
" X   X   X   XXXXo    ",
" XXXX.  X X    oX     ",
"XX     XXXX oXX       ",
"X.    X   X XXXXXX    ",
"                      ",
"  XX   oX oXXX  XXXXXX",
"  X    X  Xo  o   Xo  ",
" XX   oX  oX     XX   ",
" X    X o   X   XX    ",
"XXXXX X  XXXo   XX    ",
"                      ",
" XXXXXo .XXXo  X  X   ",
" X      X   X  X  X   ",
"X. oXX .XXXo  .X  X   ",
"X    X X. X   X  X.   ",
"XXXXXX X   X  oXXX    "};
