/* XPM */
static char * wmusic_master_xpm[] = {
"64 64 16 1",
" 	c None",
".	c #202020",
"+	c #C0C0C0",
"@	c #20B0A8",
"#	c #188880",
"$	c #107C78",
"%	c #004840",
"&	c #A00818",
"*	c #20B2AC",
"=	c #188983",
"-	c #004841",
";	c #000000",
">	c #F0F0F8",
",	c #F8FCF8",
"'	c #808088",
")	c #A8A8A8",
"                                                                ",
"                                                                ",
"                                                                ",
"                                                                ",
"    ........................................................    ",
"    .......................................................+    ",
"    .......................................................+    ",
"    ....@@@@...@@@@........@@@@...@@@@........@@@...@@@....+    ",
"    ...@....@.@....@..#@..@....@.@....@......@...@.@...@...+    ",
"    ...@....@.@....@..$@..@....@.@....@......@...@.@...@...+    ",
"    ...@....@.@....@......@....@.@....@......$%%%$.$%%%$...+    ",
"    ...$%%%%$.$%%%%$......$%%%%$.$%%%%$......@...@.@...@...+    ",
"    ...@....@.@....@......@....@.@....@......@...@.@...@...+    ",
"    ...@....@.@....@..#@..@....@.@....@.......@@@...@@@....+    ",
"    ...@....@.@....@..$@..@....@.@....@....................+    ",
"    ....@@@@...@@@@........@@@@...@@@@.....................+    ",
"    .......................................................+    ",
"    .......................................................+    ",
"    .........%...%.........................................+    ",
"    ........%%.%..%...............................&&&&.....+    ",
"    ......%%%%..%..%.............................&....&....+    ",
"    ......%%%%..%..%.............................%....&....+    ",
"    ........%%.%..%..............................&....&....+    ",
"    .........%...%..............................&&&...&....+    ",
"    ...........................................&&&&&..&....+    ",
"    .............................................&....&....+    ",
"    ....***...***...***..........................&....&....+    ",
"    ...*...*.*...*.*...*..........................&&&&.....+    ",
"    ...*...*.*...*.*...*.*...*.............................+    ",
"    ...=---=.=---=.=---=.*...*.............................+    ",
"    ...*...*.*...*.*...*.*.*.**..**..***...................+    ",
"    ...*...*.*...*.*...*.**..*.*.*.*.%*....................+    ",
"    ....***...***...***..*.*.**..**..***...................+    ",
"    .............................*.........................+    ",
"    .......................................................+    ",
"    ++++++++++++++++++++++++++++++++++++++++++++++++++++++++    ",
"                                                                ",
"                                                                ",
"    ;;;;;;;;;;;;;;;;;;;;;;;;;;;;;;;;;;;;;;;;;;;;;;;;;;;;;;;;    ",
"    ;>,,,,,,,,>>>>'>>>,,,,,>>>>>'>,,,,,,,,>>>'>>>,,,,,>>>>'+    ",
"    ;>))))))))))));>))))))))))));>)))))))))));>)))))))))));+    ",
"    ;>));));));)));>));));));)));>))));));)));>)));));))));+    ",
"    ;>)););;);;)));>));;);;);)));>)));;);;)));>)));;);;)));+    ",
"    ;>));;;;;;;)));>));;;;;;;)));>));;;;;;)));>)));;;;;;));+    ",
"    ;>)););;);;)));>));;);;);)));>)));;);;)));>)));;);;)));+    ",
"    ;>));));));)));>));));));)));>))));));)));>)));));))));+    ",
"    ;>))))))))))));>))))))))))));>)))))))))));>)))))))))));+    ",
"    ;';;;;;;;;;;;;;';;;;;;;;;;;;;';;;;;;;;;;;;';;;;;;;;;;;;+    ",
"    ;>>,,,,,>>>'>>>>>,,,,,,,,,,,,,,,'>>>,,,,>>>'>>>,,,,>>>'+    ",
"    ;>)))))))));>)))))))))))))))))));>)))))))));>)))))))));+    ",
"    ;>)))))))));>)))))))))))))))))));>)))))))));>)))))))));+    ",
"    ;>))));))));>)))))));;))))))))));>));;);;));>));;;;;));+    ",
"    ;>)));;;)));>)))))));;;;))))))));>));;);;));>));;;;;));+    ",
"    ;>));;;;;));>)))))));;;;;;))))));>));;);;));>));;;;;));+    ",
"    ;>)))))))));>)))))));;;;))))))));>));;);;));>));;;;;));+    ",
"    ;>));;;;;));>)))))));;))))))))));>));;);;));>));;;;;));+    ",
"    ;>)))))))));>)))))))))))))))))));>)))))))));>)))))))));+    ",
"    ;>)))))))));>)))))))))))))))))));>)))))))));>)))))))));+    ",
"    ;';;;;;;;;;;';;;;;;;;;;;;;;;;;;;;';;;;;;;;;;';;;;;;;;;;+    ",
"    ++++++++++++++++++++++++++++++++++++++++++++++++++++++++    ",
"                                                                ",
"                                                                ",
"                                                                ",
"                                                                "};
