/* XPM */
static char * ball_red_xpm[] = {
"10 11 6 1",
" 	c None",
".	c #000000",
"+	c #FF9999",
"@	c #FF3333",
"#	c #FFFFFF",
"$	c #660000",
"   ....   ",
"  .+++@.  ",
" .+#+@@$. ",
".++#++@@$.",
".@+@+@$$$.",
".+@+@@@$..",
".@@@@$$$..",
".@@$@$$...",
" .$$$$.$. ",
"  .$....  ",
"   ....   "};
