/* XPM */
static char * weekday_xpm[] = {
"20 42 3 1",
" 	c None",
".	c #FFFFFF",
"+	c #000000",
"....................",
".++++...++++..+...+.",
".+...+.+....+.++..+.",
".++++..+....+.+.+.+.",
".+.....+....+.+..++.",
".+......++++..+...+.",
"....................",
".+...+.+++++..++++..",
".+...+...+...+....+.",
".+...+...+...+....+.",
".+...+...+...+....+.",
"..+++....+....++++..",
"....................",
"..++++.+++++..+++++.",
".+.....+....+...+...",
"..+++..+++++....+...",
".....+.+...+....+...",
".++++..+....+.+++++.",
"...++...............",
"..++++.+++++.+++++..",
".+.....+.......+....",
".+.....++++....+....",
".+.....+.......+....",
"..++++.+++++...+....",
"....................",
".++++..+++++.+++++..",
".+...+.+.......+....",
".++++..++++....+....",
".+.....+.......+....",
".+.....+++++...+....",
"....................",
"..++++.+....+.++++..",
".+.....+....+.+...+.",
"..+++..+....+.++++..",
".....+.+....+.+...+.",
".++++...++++..++++..",
"....................",
".+...+.+++++.++++...",
".++..+.+.....+...+..",
".+.+.+.++++..+...+..",
".+..++.+.....+...+..",
".+...+.+++++.++++..."};
