/* XPM */
static char * display_link_xpm[] = {
"58 58 10 1",
" 	c None",
".	c #8E968A s Back0",
"+	c #020202",
"@	c #0A0A0A",
"#	c #484C46",
"$	c #DEDEDE",
"%	c #7C827C",
"&	c #3E463E s Mid0",
"*	c #767C6F s High0",
"=	c #000000 s Fore0",
"..++++++++++++++++++++++++++++++++++++++++++++++++++++++..",
".+@@@@@@@@@@@@@@@@@@@@@@@@@@@@@@@@@@@@@@@@@@@@@@@@@@@@@@+.",
"+@@#####################################################+$",
"+@##%%%%%%%%%%%%%%%%%%%%%%%%%%%%%%%%%%%%%%%%%%%%%%%%%%%%+$",
"+@#%....................................................+$",
"+@#%....................................................+$",
"+@#%....................................................+$",
"+@#%....................................................+$",
"+@#%....................................................+$",
"+@#%....................................................+$",
"+@#%....................................................+$",
"+@#%....................................................+$",
"+@#%..&&&&&&&&&&&&&&&&&&&&&&&&&&&&&&&&&&&&&&&&&&&&&&&...+$",
"+@#%..&&&&&&&&&&&&&&&&&&&&&&&&&&&&&&&&&&&&&&&&&&&&&&&*..+$",
"+@#%...***********************************************..+$",
"+@#%....................................................+$",
"+@#%.................................................**.+$",
"+@#%.................................................**.+$",
"+@#%.................................................**.+$",
"+@#%.................................................**.+$",
"+@#%.................................................**.+$",
"+@#%.........***...***...............................**.+$",
"+@#%........*.........*..............................**.+$",
"+@#%.......*..**...**..*.........................**..**.+$",
"+@#%......*..*.......*..*........................**..**.+$",
"+@#%......*.*..*...*..*.*........................**..**.+$",
"+@#%......*.*.*.....*.*.*........................**..**.+$",
"+@#%......*.*.*.***.*.*.*........................**..**.+$",
"+@#%......*.*.*.***.*.*.*........................**..**.+$",
"+@#%......*.*.*..*..*.*.*........................**..**.+$",
"+@#%......*.*..*.*.*..*.*....................**..**..**.+$",
"+@#%......*..*...*...*..*....................**..**..**.+$",
"+@#%.......*..**.*.**..*.....................**..**..**.+$",
"+@#%........*....*....*......................**..**..**.+$",
"+@#%.........***.*.***.......................**..**..**.+$",
"+@#%.............*...........................**..**..**.+$",
"+@#%.............*...........................**..**..**.+$",
"+@#%.............*.......................**..**..**..**.+$",
"+@#%.............*.......................**..**..**..**.+$",
"+@#%.............*.......................**..**..**..**.+$",
"+@#%.............*.......................**..**..**..**.+$",
"+@#%.............*.......................**..**..**..**.+$",
"+@#%.............*.......................**..**..**..**.+$",
"+@#%............***......................**..**..**..**.+$",
"+@#%............***..................**..**..**..**..**.+$",
"+@#%.................................**..**..**..**..**.+$",
"+@#%....................................................+$",
"+@#%...***...***...***...=..............................+$",
"+@#%..*...*.*...*.*...*.=.=.=...........................+$",
"+@#%..*...*.*...*.*...*..=.=............................+$",
"+@#%...***...***...***....=.............................+$",
"+@#%..*...*.*...*.*...*..=.=............................+$",
"+@#%..*...*.*...*.*...*.=.=.=...........................+$",
"+@#%...***...***...***.....=............................+$",
"+@#%....................................................+$",
"+@#%...................................................++$",
".+++++++++++++++++++++++++++++++++++++++++++++++++++++++$.",
"..$$$$$$$$$$$$$$$$$$$$$$$$$$$$$$$$$$$$$$$$$$$$$$$$$$$$$$.."};
