/* XPM */
static char * backdrop_on_g_xpm[] = {
"58 58 7 1",
" 	c None",
".	c #020202",
"+	c #6EC63B",
"@	c #DEDEDE",
"#	c #6CB237",
"$	c #3E463E",
"%	c #000000",
"  ......................................................  ",
" .++++++++++++++++++++++++++++++++++++++++++++++++++++++. ",
".++++++++++++++++++++++++++++++++++++++++++++++++++++++++@",
".++++++++++++++++++++++++++++++++++++++++++++++++++++++++@",
".++++++++++++++++++++++++++++++++++++++++++++++++++++++++@",
".++++++####################++++++####################++++@",
".+++++######################++++######################+++@",
".++++###++++###++++###++++###++##+++++###++++##+#+++###++@",
".++++##++##++#++##++#++##++##++##++##++#++##++#+++#++##++@",
".++++##++##++#++#####++##++##++##++##++#++##++#++##++##++@",
".++++##++++++#++#####++##++##++##++##++#++++++#++######++@",
".++++##++#####++#####++##++##++##+++++##++#####++######++@",
".++++##++#####++##++#++##++##++##++#####++#####++######++@",
".++++###+++++##++++###++++###++##++######+++++#++######++@",
".+++++######################++++######################+++@",
".++++++####################++++++####################++++@",
".++++++++++++++++++++++++++++++++++++++++++++++++++++++++@",
".++++$$$$$$$$$$$$$$$$$$$$$$$$$$$$$$$$$$$$$$$$$$$$$$$$$+++@",
".++++$$$$$$$$$$$$$$$$$$$$$$$$$$$$$$$$$$$$$$$$$$$$$$$$$#++@",
".+++++#################################################++@",
".++++++++++++++++++++++++++++++++++++++++++++++++++++++++@",
".++++++++++++++++++++++++++++++++++++++++++++++++++++++++@",
".++++++#####++++#####++++#####+++++++++++++++++++++++++++@",
".+++++#+++++#++#+++++#++#+++++#++++++++++++++++++++++++++@",
".+++++#+++++#++#+++++#++#+++++#++++++++++++++++++++++++++@",
".+++++#+++++#++#+++++#++#+++++#++++++++++++++++++++++++++@",
".+++++#+++++#++#+++++#++#+++++#++++++++++++++++++++++++++@",
".+++++#+++++#++#+++++#++#+++++#++.......++.+++.++++++++++@",
".++++++#####++++#####++++#####+++.++++++++.+++.++++++++++@",
".+++++#+++++#++#+++++#++#+++++#++.++++++++.+++.++++++++++@",
".+++++#+++++#++#+++++#++#+++++#++.++++++++.+++.++.....+++@",
".+++++#+++++#++#+++++#++#+++++#++.+++...++.....+++++.++++@",
".+++++#+++++#++#+++++#++#+++++#++.+++++.++.+++.++++.+++++@",
".+++++#+++++#++#+++++#++#+++++#++.+++++.++.+++.+++.++++++@",
".++++++#####++.+#####++++#####+++.......++.+++.++.....+++@",
".++++++++++++.+++++++++++++++++++++++++++++++++++++++++++@",
".++++$$$$$$$$$$$$$$$$$$$$$$$$$$$$$$$$$$$$$$$$$$$$$$$$$+++@",
".++++$$$$$$$$$$$$$$$$$$$$$$$$$$$$$$$$$$$$$$$$$$$$$$$$$#++@",
".+++++#################################################++@",
".++++++++++++++++++++++++++++++++++++++++++++++++++++++++@",
".++++#+#+#+#+#+#+#+#+#+#+#+#+#+#+#+#+#+#+#+#+#+#+#+#+#+++@",
".++++#+#+#+#+#+#+#+#+#+#+#+#+#+#+#+#+#+#+#+#+#+#+#+#+#+++@",
".++++#+#+#+#+#+#+#+#+#+#+#+#+#+#+#+#+#+#+#+#+#+#+#+#+#+++@",
".++++#+#+#+#+#+#+#+#+#+#+#+#+#+#+#+#+#+#+#+#+#+#+#+#+#+++@",
".++++#+#+#+#+#+#+#+#+#+#+#+#+#+#+#+#+#+#+#+#+#+#+#+#+#+++@",
".++++#+#+#+#+#+#+#+#+#+#+#+#+#+#+#+#+#+#+#+#+#+#+#+#+#+++@",
".++++#+#+#+#+#+#+#+#+#+#+#+#+#+#+#+#+#+#+#+#+#+#+#+#+#+++@",
".++++#+#+#+#+#+#+#+#+#+#+#+#+#+#+#+#+#+#+#+#+#+#+#+#+#+++@",
".++++#+#+#+#+#+#+#+#+#+#+#+#+#+#+#+#+#+#+#+#+#+#+#+#+#+++@",
".++++#+#+#+#+#+#+#+#+#+#+#+#+#+#+#+#+#+#+#+#+#+#+#+#+#+++@",
".++++#+#+#+#+#+#+#+#+#+#+#+#+#+#+#+#+#+#+#+#+#+#+#+#+#+++@",
".++++#+#+#+#+#+#+#+#+#+#+#+#+#+#+#+#+#+#+#+#+#+#+#+#+#+++@",
".++++#+#+#+#+#+#+#+#+#+#+#+#+#+#+#+#+#+#+#+#+#+#+#+#+#+++@",
".++++#+#+#+#+#+#+#+#+#+#+#+#+#+#+#+#+#+#+#+#+#+#+#+#+#+++@",
".++++++++++++++++++++++++++++++++++++++++++++++++++++++++@",
".++++++++++++++++++++++++++++++++++++++++++++++++++++++++@",
" %++++++++++++++++++++++++++++++++++++++++++++++++++++++@ ",
"  @@@@@@@@@@@@@@@@@@@@@@@@@@@@@@@@@@@@@@@@@@@@@@@@@@@@@@  "};
