/* XPM */
static char * backdrop_off_g_xpm[] = {
"58 58 10 1",
" 	c None",
".	c #020202",
"+	c #0A0A0A",
"@	c #484C46",
"#	c #DEDEDE",
"$	c #7C827C",
"%	c #8E968A",
"&	c #767C6F",
"*	c #3E463E",
"=	c #5E665A",
"  ......................................................  ",
" .++++++++++++++++++++++++++++++++++++++++++++++++++++++. ",
".++@@@@@@@@@@@@@@@@@@@@@@@@@@@@@@@@@@@@@@@@@@@@@@@@@@@@@.#",
".+@@$$$$$$$$$$$$$$$$$$$$$$$$$$$$$$$$$$$$$$$$$$$$$$$$$$$$.#",
".+@$$%%%%%%%%%%%%%%%%%%%%%%%%%%%%%%%%%%%%%%%%%%%%%%%%%%%.#",
".+@$%%%&&&&&&&&&&&&&&&&&&&&%%%%%%&&&&&&&&&&&&&&&&&&&&%%%.#",
".+@$%%&&&&&&&&&&&&&&&&&&&&&&%%%%&&&&&&&&&&&&&&&&&&&&&&%%.#",
".+@$%&&&%%%%&&&%%%%&&&%%%%&&&%%&&%%%%%&&&%%%%&&%&%%%&&&%.#",
".+@$%&&%%&&%%&%%&&%%&%%&&%%&&%%&&%%&&%%&%%&&%%&%%%&%%&&%.#",
".+@$%&&%%&&%%&%%&&&&&%%&&%%&&%%&&%%&&%%&%%&&%%&%%&&%%&&%.#",
".+@$%&&%%%%%%&%%&&&&&%%&&%%&&%%&&%%&&%%&%%%%%%&%%&&&&&&%.#",
".+@$%&&%%&&&&&%%&&&&&%%&&%%&&%%&&%%%%%&&%%&&&&&%%&&&&&&%.#",
".+@$%&&%%&&&&&%%&&%%&%%&&%%&&%%&&%%&&&&&%%&&&&&%%&&&&&&%.#",
".+@$%&&&%%%%%&&%%%%&&&%%%%&&&%%&&%%&&&&&&%%%%%&%%&&&&&&%.#",
".+@$%%&&&&&&&&&&&&&&&&&&&&&&%%%%&&&&&&&&&&&&&&&&&&&&&&%%.#",
".+@$%%%&&&&&&&&&&&&&&&&&&&&%%%%%%&&&&&&&&&&&&&&&&&&&&%%%.#",
".+@$%%%%%%%%%%%%%%%%%%%%%%%%%%%%%%%%%%%%%%%%%%%%%%%%%%%%.#",
".+@$%*************************************************%%.#",
".+@$%*************************************************=%.#",
".+@$%%=================================================%.#",
".+@$%%%%%%%%%%%%%%%%%%%%%%%%%%%%%%%%%%%%%%%%%%%%%%%%%%%%.#",
".+@$%%%%%%%%%%%%%%%%%%%%%%%%%%%%%%%%%%%%%%%%%%%%%%%%%%%%.#",
".+@$%%%&&&&&%%%%&&&&&%%%%&&&&&%%%%%%%%%%%%%%%%%%%%%%%%%%.#",
".+@$%%&%%%%%&%%&%%%%%&%%&%%%%%&%%%%%%%%%%%%%%%%%%%%%%%%%.#",
".+@$%%&%%%%%&%%&%%%%%&%%&%%%%%&%%%%%%%%%%%%%%%%%%%%%%%%%.#",
".+@$%%&%%%%%&%%&%%%%%&%%&%%%%%&%%%%%%%%%%%%%%%%%%%%%%%%%.#",
".+@$%%&%%%%%&%%&%%%%%&%%&%%%%%&%%%%%%%%%%%%%%%%%%%%%%%%%.#",
".+@$%%&%%%%%&%%&%%%%%&%%&%%%%%&%%.......%%.%%%.%%%%%%%%%.#",
".+@$%%%&&&&&%%%%&&&&&%%%%&&&&&%%%.%%%%%%%%.%%%.%%%%%%%%%.#",
".+@$%%&%%%%%&%%&%%%%%&%%&%%%%%&%%.%%%%%%%%.%%%.%%%%%%%%%.#",
".+@$%%&%%%%%&%%&%%%%%&%%&%%%%%&%%.%%%%%%%%.%%%.%%.....%%.#",
".+@$%%&%%%%%&%%&%%%%%&%%&%%%%%&%%.%%%...%%.....%%%%%.%%%.#",
".+@$%%&%%%%%&%%&%%%%%&%%&%%%%%&%%.%%%%%.%%.%%%.%%%%.%%%%.#",
".+@$%%&%%%%%&%%&%%%%%&%%&%%%%%&%%.%%%%%.%%.%%%.%%%.%%%%%.#",
".+@$%%%&&&&&%%.%&&&&&%%%%&&&&&%%%.......%%.%%%.%%.....%%.#",
".+@$%%%%%%%%%.%%%%%%%%%%%%%%%%%%%%%%%%%%%%%%%%%%%%%%%%%%.#",
".+@$%*************************************************%%.#",
".+@$%*************************************************=%.#",
".+@$%%=================================================%.#",
".+@$%%%%%%%%%%%%%%%%%%%%%%%%%%%%%%%%%%%%%%%%%%%%%%%%%%%%.#",
".+@$%&%&%&%&%&%&%&%&%&%&%&%&%&%&%&%&%&%&%&%&%&%&%&%&%&%%.#",
".+@$%&%&%&%&%&%&%&%&%&%&%&%&%&%&%&%&%&%&%&%&%&%&%&%&%&%%.#",
".+@$%&%&%&%&%&%&%&%&%&%&%&%&%&%&%&%&%&%&%&%&%&%&%&%&%&%%.#",
".+@$%&%&%&%&%&%&%&%&%&%&%&%&%&%&%&%&%&%&%&%&%&%&%&%&%&%%.#",
".+@$%&%&%&%&%&%&%&%&%&%&%&%&%&%&%&%&%&%&%&%&%&%&%&%&%&%%.#",
".+@$%&%&%&%&%&%&%&%&%&%&%&%&%&%&%&%&%&%&%&%&%&%&%&%&%&%%.#",
".+@$%&%&%&%&%&%&%&%&%&%&%&%&%&%&%&%&%&%&%&%&%&%&%&%&%&%%.#",
".+@$%&%&%&%&%&%&%&%&%&%&%&%&%&%&%&%&%&%&%&%&%&%&%&%&%&%%.#",
".+@$%&%&%&%&%&%&%&%&%&%&%&%&%&%&%&%&%&%&%&%&%&%&%&%&%&%%.#",
".+@$%&%&%&%&%&%&%&%&%&%&%&%&%&%&%&%&%&%&%&%&%&%&%&%&%&%%.#",
".+@$%&%&%&%&%&%&%&%&%&%&%&%&%&%&%&%&%&%&%&%&%&%&%&%&%&%%.#",
".+@$%&%&%&%&%&%&%&%&%&%&%&%&%&%&%&%&%&%&%&%&%&%&%&%&%&%%.#",
".+@$%&%&%&%&%&%&%&%&%&%&%&%&%&%&%&%&%&%&%&%&%&%&%&%&%&%%.#",
".+@$%&%&%&%&%&%&%&%&%&%&%&%&%&%&%&%&%&%&%&%&%&%&%&%&%&%%.#",
".+@$%%%%%%%%%%%%%%%%%%%%%%%%%%%%%%%%%%%%%%%%%%%%%%%%%%%%.#",
".+@$%%%%%%%%%%%%%%%%%%%%%%%%%%%%%%%%%%%%%%%%%%%%%%%%%%%..#",
" .......................................................# ",
"  ######################################################  "};
