/* XPM */
static char * parts_xpm[] = {
"70 118 69 1",
" 	c None",
".	c #8E968A",
"+	c #000000",
"@	c #6EC63B s Back0",
"#	c #202020",
"$	c #20B2AE",
"%	c #767C6F",
"&	c #5E665A",
"*	c #6E766E",
"=	c #6CB237 s Back1",
"-	c #004941",
";	c #188A86",
">	c #020202",
",	c #1FD200",
"'	c #22D000",
")	c #25CD00",
"!	c #28CA00",
"~	c #2BC700",
"{	c #2EC400",
"]	c #31C100",
"^	c #34BE00",
"/	c #37BB00",
"(	c #3AB800",
"_	c #3DB500",
":	c #40B200",
"<	c #43B000",
"[	c #46AD00",
"}	c #49AA00",
"|	c #4CA700",
"1	c #4FA400",
"2	c #52A100",
"3	c #559E00",
"4	c #589B00",
"5	c #5B9800",
"6	c #5E9500",
"7	c #619200",
"8	c #649000",
"9	c #678D00",
"0	c #6A8A00",
"a	c #6D8700",
"b	c #708400",
"c	c #738100",
"d	c #767E00",
"e	c #797B00",
"f	c #7C7800",
"g	c #7F7500",
"h	c #827200",
"i	c #857000",
"j	c #886D00",
"k	c #8B6A00",
"l	c #8E6700",
"m	c #916400",
"n	c #946100",
"o	c #975E00",
"p	c #9A5B00",
"q	c #9D5800",
"r	c #A05500",
"s	c #A35200",
"t	c #A65000",
"u	c #A94D00",
"v	c #AC4A00",
"w	c #AF4700",
"x	c #B24400",
"y	c #B54100",
"z	c #B83E00",
"A	c #BB3B00",
"B	c #BE3800",
"C	c #C13500",
"D	c #C43200",
"..++++++++++++++++++++....++++++++++++++++++++..                      ",
".++++++++++++++++++++++..++++++++++++++++++++++.                      ",
"+++....+++....+++....+++++.....+++....++.+...+++                      ",
"++..++..+..++..+..++..++++..++..+..++..+...+..++                      ",
"++..++..+..+++++..++..++++..++..+..++..+..++..++                      ",
"++......+..+++++..++..++++..++..+......+..++++++                      ",
"++..+++++..+++++..++..++++.....++..+++++..++++++                      ",
"++..+++++..++..+..++..++++..+++++..+++++..++++++                      ",
"+++.....++....+++....+++++..++++++.....+..++++++                      ",
".++++++++++++++++++++++..++++++++++++++++++++++.                      ",
"..++++++++++++++++++++....++++++++++++++++++++..                      ",
"@@++++++++++++++++++++@@@@++++++++++++++++++++@@                      ",
"@++++++++++++++++++++++@@++++++++++++++++++++++@                      ",
"+++@@@@+++@@@@+++@@@@+++++@@@@@+++@@@@++@+@@@+++                      ",
"++@@++@@+@@++@@+@@++@@++++@@++@@+@@++@@+@@@+@@++                      ",
"++@@++@@+@@+++++@@++@@++++@@++@@+@@++@@+@@++@@++                      ",
"++@@@@@@+@@+++++@@++@@++++@@++@@+@@@@@@+@@++++++                      ",
"++@@+++++@@+++++@@++@@++++@@@@@++@@+++++@@++++++                      ",
"++@@+++++@@++@@+@@++@@++++@@+++++@@+++++@@++++++                      ",
"+++@@@@@++@@@@+++@@@@+++++@@++++++@@@@@+@@++++++                      ",
"@++++++++++++++++++++++@@++++++++++++++++++++++@                      ",
"@@++++++++++++++++++++@@@@++++++++++++++++++++@@                      ",
"##$$$$$$$$$$$$$$$$$$$$####$$$$$$$$$$$$$$$$$$$$##                      ",
"#$$$$$$$$$$$$$$$$$$$$$$##$$$$$$$$$$$$$$$$$$$$$$#                      ",
"$$$####$$$####$$$####$$$$$#####$$$####$$#$###$$$                      ",
"$$##$$##$##$$##$##$$##$$$$##$$##$##$$##$###$##$$                      ",
"$$##$$##$##$$$$$##$$##$$$$##$$##$##$$##$##$$##$$                      ",
"$$######$##$$$$$##$$##$$$$##$$##$######$##$$$$$$                      ",
"$$##$$$$$##$$$$$##$$##$$$$#####$$##$$$$$##$$$$$$                      ",
"$$##$$$$$##$$##$##$$##$$$$##$$$$$##$$$$$##$$$$$$                      ",
"$$$#####$$####$$$####$$$$$##$$$$$$#####$##$$$$$$                      ",
"#$$$$$$$$$$$$$$$$$$$$$$##$$$$$$$$$$$$$$$$$$$$$$#                      ",
"##$$$$$$$$$$$$$$$$$$$$####$$$$$$$$$$$$$$$$$$$$##                      ",
".+++++..%%%%%..+++++..+++++..%%%%%..+++++..+++++..+++++..+++++..+++++.",
"+.....+%.....+%.....+&.....++.....++.....%+.....%%.....++.....++.....+",
"+.....+%.....+%.....+&.....++.....++.....%+.....%%.....++.....++.....+",
"+.....+%.....+%.....+&.....++.....++.....%+.....%%.....++.....++.....+",
"+.....+%.....+%.....+&.....++.....++.....%+.....%%.....++.....++.....+",
"+.....+%.....+%.....+&.....++.....++.....%+.....%%.....++.....++.....+",
".%%%%%..%%%%%..+++++..+++++..+++++..+++++..+++++..%%%%%..+++++..+++++.",
"+.....+%.....++.....%%.....+%.....+%.....++.....+%.....++.....+%.....+",
"+.....+%.....++.....%%.....+%.....+%.....++.....+%.....++.....+%.....+",
"+.....+%.....++.....%%.....+%.....+%.....++.....+%.....++.....+%.....+",
"+.....+%.....++.....%%.....+%.....+%.....++.....+%.....++.....+%.....+",
"+.....+%.....++.....%%.....+%.....+%.....++.....+%.....++.....+%.....+",
"*+++++..%%%%%..+++++..+++++..%%%%%..+++++..+++++..%%%%%..+++++..+++++.",
"@+++++@@=====@@+++++@@+++++@@=====@@+++++@@+++++@@+++++@@+++++@@+++++@",
"+@@@@@+=@@@@@+=@@@@@+=@@@@@++@@@@@++@@@@@=+@@@@@==@@@@@++@@@@@++@@@@@+",
"+@@@@@+=@@@@@+=@@@@@+=@@@@@++@@@@@++@@@@@=+@@@@@==@@@@@++@@@@@++@@@@@+",
"+@@@@@+=@@@@@+=@@@@@+=@@@@@++@@@@@++@@@@@=+@@@@@==@@@@@++@@@@@++@@@@@+",
"+@@@@@+=@@@@@+=@@@@@+=@@@@@++@@@@@++@@@@@=+@@@@@==@@@@@++@@@@@++@@@@@+",
"+@@@@@+=@@@@@+=@@@@@+=@@@@@++@@@@@++@@@@@=+@@@@@==@@@@@++@@@@@++@@@@@+",
"@=====@@=====@@+++++@@+++++@@+++++@@+++++@@+++++@@=====@@+++++@@+++++@",
"+@@@@@+=@@@@@++@@@@@==@@@@@+=@@@@@+=@@@@@++@@@@@+=@@@@@++@@@@@+=@@@@@+",
"+@@@@@+=@@@@@++@@@@@==@@@@@+=@@@@@+=@@@@@++@@@@@+=@@@@@++@@@@@+=@@@@@+",
"+@@@@@+=@@@@@++@@@@@==@@@@@+=@@@@@+=@@@@@++@@@@@+=@@@@@++@@@@@+=@@@@@+",
"+@@@@@+=@@@@@++@@@@@==@@@@@+=@@@@@+=@@@@@++@@@@@+=@@@@@++@@@@@+=@@@@@+",
"+@@@@@+=@@@@@++@@@@@==@@@@@+=@@@@@+=@@@@@++@@@@@+=@@@@@++@@@@@+=@@@@@+",
"@+++++@@=====@@+++++@@+++++@@=====@@+++++@@+++++@@=====@@+++++@@+++++@",
"#$$$$$##-----#;$$$$$;;$$$$$;;-----;;$$$$$;;$$$$$;;$$$$$;;$$$$$;;$$$$$;",
"$#####$-#####$-#####$-#####$$#####$$#####-$#####--#####$$#####$$#####;",
"$#####$-#####$-#####$-#####$$#####$$#####-$#####--#####$$#####$$#####$",
"$#####$-#####$-#####$-#####$$#####$$#####-$#####--#####$$#####$$#####$",
"$#####$-#####$-#####$-#####$$#####$$#####-$#####--#####$$#####$$#####$",
"$#####$-#####$-#####$-#####$$#####$$#####-$#####--#####$$#####$;#####$",
";-----;#-----;;$$$$$;#$$$$$;;$$$$$;;$$$$$;;$$$$$;#-----;;$$$$$;;$$$$$;",
"$#####$-#####$$#####--#####$-#####$-#####$$#####$-#####$$#####$-#####$",
"$#####$-#####$$#####--#####$-#####$-#####$$#####$-#####$$#####$-#####$",
"$#####$-#####$$#####--#####$-#####$-#####$$#####$-#####$$#####$-#####$",
"$#####$-#####$$#####--#####$-#####$-#####$$#####$-#####$$#####$-#####$",
"$#####$-#####$$#####--#####$-#####$-#####$$#####$-#####$$#####$-#####$",
"#$$$$$##-----#;$$$$$;;$$$$$;#-----;;$$$$$;;$$$$$;#-----;;$$$$$;#$$$$$;",
"+.+.+.+.+.+.+.+.+.+.+.+.+.+.+.+.+.+.+.+.+.+.+.+.+                     ",
"+.+.+.+.+.+.+.+.+.+.+.+.+.+.+.+.+.+.+.+.+.+.+.+.+                     ",
"+.+.+.+.+.+.+.+.+.+.+.+.+.+.+.+.+.+.+.+.+.+.+.+.+                     ",
"+.+.+.+.+.+.+.+.+.+.+.+.+.+.+.+.+.+.+.+.+.+.+.+.+                     ",
"+.+.+.+.+.+.+.+.+.+.+.+.+.+.+.+.+.+.+.+.+.+.+.+.+                     ",
"+.+.+.+.+.+.+.+.+.+.+.+.+.+.+.+.+.+.+.+.+.+.+.+.+                     ",
"+.+.+.+.+.+.+.+.+.+.+.+.+.+.+.+.+.+.+.+.+.+.+.+.+                     ",
"+.+.+.+.+.+.+.+.+.+.+.+.+.+.+.+.+.+.+.+.+.+.+.+.+                     ",
"+.+.+.+.+.+.+.+.+.+.+.+.+.+.+.+.+.+.+.+.+.+.+.+.+                     ",
"+.+.+.+.+.+.+.+.+.+.+.+.+.+.+.+.+.+.+.+.+.+.+.+.+                     ",
"+.+.+.+.+.+.+.+.+.+.+.+.+.+.+.+.+.+.+.+.+.+.+.+.+                     ",
"+.+.+.+.+.+.+.+.+.+.+.+.+.+.+.+.+.+.+.+.+.+.+.+.+                     ",
"+.+.+.+.+.+.+.+.+.+.+.+.+.+.+.+.+.+.+.+.+.+.+.+.+                     ",
"+.+.+.+.+.+.+.+.+.+.+.+.+.+.+.+.+.+.+.+.+.+.+.+.+                     ",
">@>@>@>@>@>@>@>@>@>@>@>@>@>@>@>@>@>@>@>@>@>@>@>@>                     ",
">@>@>@>@>@>@>@>@>@>@>@>@>@>@>@>@>@>@>@>@>@>@>@>@>                     ",
">@>@>@>@>@>@>@>@>@>@>@>@>@>@>@>@>@>@>@>@>@>@>@>@>                     ",
">@>@>@>@>@>@>@>@>@>@>@>@>@>@>@>@>@>@>@>@>@>@>@>@>                     ",
">@>@>@>@>@>@>@>@>@>@>@>@>@>@>@>@>@>@>@>@>@>@>@>@>                     ",
">@>@>@>@>@>@>@>@>@>@>@>@>@>@>@>@>@>@>@>@>@>@>@>@>                     ",
">@>@>@>@>@>@>@>@>@>@>@>@>@>@>@>@>@>@>@>@>@>@>@>@>                     ",
">@>@>@>@>@>@>@>@>@>@>@>@>@>@>@>@>@>@>@>@>@>@>@>@>                     ",
">@>@>@>@>@>@>@>@>@>@>@>@>@>@>@>@>@>@>@>@>@>@>@>@>                     ",
">@>@>@>@>@>@>@>@>@>@>@>@>@>@>@>@>@>@>@>@>@>@>@>@>                     ",
">@>@>@>@>@>@>@>@>@>@>@>@>@>@>@>@>@>@>@>@>@>@>@>@>                     ",
">@>@>@>@>@>@>@>@>@>@>@>@>@>@>@>@>@>@>@>@>@>@>@>@>                     ",
">@>@>@>@>@>@>@>@>@>@>@>@>@>@>@>@>@>@>@>@>@>@>@>@>                     ",
">@>@>@>@>@>@>@>@>@>@>@>@>@>@>@>@>@>@>@>@>@>@>@>@>                     ",
",')!~{]^/(_:<[}|1234567890abcdefghijklmnopqrstuvwxyzABCD              ",
",')!~{]^/(_:<[}|1234567890abcdefghijklmnopqrstuvwxyzABCD              ",
",')!~{]^/(_:<[}|1234567890abcdefghijklmnopqrstuvwxyzABCD              ",
",')!~{]^/(_:<[}|1234567890abcdefghijklmnopqrstuvwxyzABCD              ",
",')!~{]^/(_:<[}|1234567890abcdefghijklmnopqrstuvwxyzABCD              ",
",')!~{]^/(_:<[}|1234567890abcdefghijklmnopqrstuvwxyzABCD              ",
",')!~{]^/(_:<[}|1234567890abcdefghijklmnopqrstuvwxyzABCD              ",
",')!~{]^/(_:<[}|1234567890abcdefghijklmnopqrstuvwxyzABCD              ",
",')!~{]^/(_:<[}|1234567890abcdefghijklmnopqrstuvwxyzABCD              ",
",')!~{]^/(_:<[}|1234567890abcdefghijklmnopqrstuvwxyzABCD              ",
",')!~{]^/(_:<[}|1234567890abcdefghijklmnopqrstuvwxyzABCD              ",
",')!~{]^/(_:<[}|1234567890abcdefghijklmnopqrstuvwxyzABCD              ",
",')!~{]^/(_:<[}|1234567890abcdefghijklmnopqrstuvwxyzABCD              ",
",')!~{]^/(_:<[}|1234567890abcdefghijklmnopqrstuvwxyzABCD              ",
",')!~{]^/(_:<[}|1234567890abcdefghijklmnopqrstuvwxyzABCD              ",
",')!~{]^/(_:<[}|1234567890abcdefghijklmnopqrstuvwxyzABCD              ",
"                                                                      ",
"                                                                      "};
