/* XPM */
static char * wmmon_master_xpm[] = {
"128 120 41 1",
" 	c #00000000FFFF",
".	c #000000000000",
"X	c #208120812081",
"o	c #C71BC71BC71B",
"O	c #28A23CF30000",
"+	c #28A238E30000",
"@	c #30C238E30000",
"#	c #30C234D30000",
"$	c #38E330C20000",
"%	c #41032CB20000",
"&	c #492428A20000",
"*	c #514424920000",
"=	c #596520810000",
"-	c #59651C710000",
";	c #61851C710000",
":	c #618518610000",
">	c #2081B2CAAEBA",
",	c #000049244103",
"<	c #104079E779E7",
"1	c #18618A288617",
"2	c #2081D34C0000",
"3	c #30C2CB2B0000",
"4	c #38E3BEFB0000",
"5	c #4103B6DA0000",
"6	c #4924AAAA0000",
"7	c #5965A2890000",
"8	c #618596580000",
"9	c #69A68E380000",
"0	c #71C682070000",
"q	c #861779E70000",
"w	c #8E386DB60000",
"e	c #965865950000",
"r	c #9E7959650000",
"t	c #AEBA51440000",
"y	c #B6DA45140000",
"u	c #BEFB3CF30000",
"i	c #C71B30C20000",
"p	c #10407DF779E7",
"a	c #00007DF771C6",
"s	c #2081B6DAAEBA",
"d	c #71C6E38D71C6",
"                                                                                                                                ",
"                                                                                                                                ",
"                                                                                                                                ",
"                                                                                                                                ",
"    ......................  ................................        ......................  ................................    ",
"    .XXXXXXXXXXXXXXXXXXXXo  .OOOO++@##$$$$%%%&&&&****=--;;:o        .XXXXXXXXXXXXXXXXXXXXo  .OOOO++@##$$$$%%%&&&&****=--;;:o    ",
"    .XXXXXXXXXXXXXXXXXXXXo  .OOOO++@##$$$$%%%&&&&****=--;;:o        .X>,,,>X<>>><X>,,,>XXo  .OOOO++@##$$$$%%%&&&&****=--;;:o    ",
"    .XXXXXXXXXXXXXXXXXXXXo  .OOOO++@##$$$$%%%&&&&****=--;;:o        .X>>X>>X>XXX,X>>X>>XXo  .OOOO++@##$$$$%%%&&&&****=--;;:o    ",
"    .XXXXXXXXXXXXXXXXXXXXo  .OOOO++@##$$$$%%%&&&&****=--;;:o        .X>X>X>X>XXX,X>X>X>XXo  .OOOO++@##$$$$%%%&&&&****=--;;:o    ",
"    .XXXXXXXXXXXXXXXXXXXXo  .OOOO++@##$$$$%%%&&&&****=--;;:o        .X<,,,<X<>>>XX<,,,<XXo  .OOOO++@##$$$$%%%&&&&****=--;;:o    ",
"    .XXXXXXXXXXXXXXXXXXXXo  .OOOO++@##$$$$%%%&&&&****=--;;:o        .X>XXX>X>XXX,X>XXX>XXo  .OOOO++@##$$$$%%%&&&&****=--;;:o    ",
"    .XXXXXXXXXXXXXXXXXXXXo  .OOOO++@##$$$$%%%&&&&****=--;;:o        .X>XXX>X>XXX,X>XXX>XXo  .OOOO++@##$$$$%%%&&&&****=--;;:o    ",
"    .XXXXXXXXXXXXXXXXXXXXo  .OOOO++@##$$$$%%%&&&&****=--;;:o        .X<,,,<X<>>><X<,,,<XXo  .OOOO++@##$$$$%%%&&&&****=--;;:o    ",
"    .XXXXXXXXXXXXXXXXXXXXo  .OOOO++@##$$$$%%%&&&&****=--;;:o        .XXXXXXXXXXXXXXXXXXXXo  .OOOO++@##$$$$%%%&&&&****=--;;:o    ",
"    .XXXXXXXXXXXXXXXXXXXXo  .OOOO++@##$$$$%%%&&&&****=--;;:o        .XXXXXXXXXXXXXXXXXXXXo  .OOOO++@##$$$$%%%&&&&****=--;;:o    ",
"    oooooooooooooooooooooo  oooooooooooooooooooooooooooooooo        oooooooooooooooooooooo  oooooooooooooooooooooooooooooooo    ",
"                                                                                                                                ",
"                                                                                                                                ",
"    ........................................................        ......................  ................................    ",
"    .XXXXXXXXXXXXXXXXXXXXXXXXXXXXXXXXXXXXXXXXXXXXXXXXXXXXXXo        .XXXXXXXXXXXXXXXXXXXXo  .OOOO++@##$$$$%%%&&&&****=--;;:o    ",
"    .XXXXXXXXXXXXXXXXXXXXXXXXXXXXXXXXXXXXXXXXXXXXXXXXXXXXXXo        .X<>>><X<,,,<X<>>><XXo  .OOOO++@##$$$$%%%&&&&****=--;;:o    ",
"    .XXXXXXXXXXXXXXXXXXXXXXXXXXXXXXXXXXXXXXXXXXXXXXXXXXXXXXo        .X>XXX,X>XXX>X>XXX>XXo  .OOOO++@##$$$$%%%&&&&****=--;;:o    ",
"    .XXXXXXXXXXXXXXXXXXXXXXXXXXXXXXXXXXXXXXXXXXXXXXXXXXXXXXo        .X>XXX,X>XXX>X>XXX>XXo  .OOOO++@##$$$$%%%&&&&****=--;;:o    ",
"    .XXXXXXXXXXXXXXXXXXXXXXXXXXXXXXXXXXXXXXXXXXXXXXXXXXXXXXo        .X<>>><X<,,,<X<>>><XXo  .OOOO++@##$$$$%%%&&&&****=--;;:o    ",
"    .XXXXXXXXXXXXXXXXXXXXXXXXXXXXXXXXXXXXXXXXXXXXXXXXXXXXXXo        .X,XXX>X>X>X>X>XXX,XXo  .OOOO++@##$$$$%%%&&&&****=--;;:o    ",
"    .XXXXXXXXXXXXXXXXXXXXXXXXXXXXXXXXXXXXXXXXXXXXXXXXXXXXXXo        .X,XXX>X>>X>>X>XXX,XXo  .OOOO++@##$$$$%%%&&&&****=--;;:o    ",
"    .XXXXXXXXXXXXXXXXXXXXXXXXXXXXXXXXXXXXXXXXXXXXXXXXXXXXXXo        .X<>>><X>,,,>X<,,,XXXo  .OOOO++@##$$$$%%%&&&&****=--;;:o    ",
"    .XXXXXXXXXXXXXXXXXXXXXXXXXXXXXXXXXXXXXXXXXXXXXXXXXXXXXXo        .XXXXXXXXXXXXXXXXXXXXo  .OOOO++@##$$$$%%%&&&&****=--;;:o    ",
"    .XXXXXXXXXXXXXXXXXXXXXXXXXXXXXXXXXXXXXXXXXXXXXXXXXXXXXXo        .XXXXXXXXXXXXXXXXXXXXo  .OOOO++@##$$$$%%%&&&&****=--;;:o    ",
"    .XXXXXXXXXXXXXXXXXXXXXXXXXXXXXXXXXXXXXXXXXXXXXXXXXXXXXXo        oooooooooooooooooooooo  oooooooooooooooooooooooooooooooo    ",
"    .XXXXXXXXXXXXXXXXXXXXXXXXXXXXXXXXXXXXXXXXXXXXXXXXXXXXXXo                                                                    ",
"    .XXXXXXXXXXXXXXXXXXXXXXXXXXXXXXXXXXXXXXXXXXXXXXXXXXXXXXo                                                                    ",
"    .XXXXXXXXXXXXXXXXXXXXXXXXXXXXXXXXXXXXXXXXXXXXXXXXXXXXXXo        ........................................................    ",
"    .XXXXXXXXXXXXXXXXXXXXXXXXXXXXXXXXXXXXXXXXXXXXXXXXXXXXXXo        .XXXXXXXXXXXXXXXXXXXXXXXXXXXXXXXXXXXXXXXXXXXXXXXXXXXXXXo    ",
"    .XXXXXXXXXXXXXXXXXXXXXXXXXXXXXXXXXXXXXXXXXXXXXXXXXXXXXXo        .XXXXXXXXXXXXXXXXXXXXXXXXXXXXXXXXXXXXXXXXXXXXXXXXXXXXXXo    ",
"    .XXXXXXXXXXXXXXXXXXXXXXXXXXXXXXXXXXXXXXXXXXXXXXXXXXXXXXo        .XX,,,XXX,,,XXX,,,XXX,,,XXXXXXXX>XXXXXXXXXXXXXXXXXXXXXXo    ",
"    .XXXXXXXXXXXXXXXXXXXXXXXXXXXXXXXXXXXXXXXXXXXXXXXXXXXXXXo        .X,XXX,X,XXX,X,XXX,X,XXX,XXXXXXX>XXXXXXXXXXXXXXXXXXXXXXo    ",
"    .XXXXXXXXXXXXXXXXXXXXXXXXXXXXXXXXXXXXXXXXXXXXXXXXXXXXXXo        .X,XXX,X,XXX,X,XXX,X,XXX,XXXX>>>>X>>>>XX>XXX>XX>>>XXXXXo    ",
"    .XXXXXXXXXXXXXXXXXXXXXXXXXXXXXXXXXXXXXXXXXXXXXXXXXXXXXXo        .XX,,,XXX,,,XXX,,,XXX,,,XXXX>XXX>XXXXX>X>XXX>X>XXXXXXXXo    ",
"    .XXXXXXXXXXXXXXXXXXXXXXXXXXXXXXXXXXXXXXXXXXXXXXXXXXXXXXo        .X,XXX,X,XXX,X,XXX,X,XXX,XXX>XXX>X>>>>>XX>>>>X>>>>>XXXXo    ",
"    .XXXXXXXXXXXXXXXXXXXXXXXXXXXXXXXXXXXXXXXXXXXXXXXXXXXXXXo        .X,XXX,X,XXX,X,XXX,X,XXX,XXX>XXX>X>XXX>XXXXX>XXXXX>XXXXo    ",
"    .XXXXXXXXXXXXXXXXXXXXXXXXXXXXXXXXXXXXXXXXXXXXXXXXXXXXXXo        .XX,,,XXX,,,XXX,,,XXX,,,XXXXX>>>>X>>>>>X>>>>XXX>>>>X>XXo    ",
"    .XXXXXXXXXXXXXXXXXXXXXXXXXXXXXXXXXXXXXXXXXXXXXXXXXXXXXXo        .XXXXXXXXXXXXXXXXXXXXXXXXXXXXXXXXXXXXXXXXXXXXXXXXXXX>XXo    ",
"    .XXXXXXXXXXXXXXXXXXXXXXXXXXXXXXXXXXXXXXXXXXXXXXXXXXXXXXo        .XXXXXXXXXXXXXXXXXXXXXXXXXXXXXXXXXXXXXXXXXXXXXXXXXXXXXXo    ",
"    .XXXXXXXXXXXXXXXXXXXXXXXXXXXXXXXXXXXXXXXXXXXXXXXXXXXXXXo        .XXXXXXXXXXXXXXXXXXXXXXXXXXXXXXXXXXXXXXXXXXXXXXXXXXXXXXo    ",
"    .XXXXXXXXXXXXXXXXXXXXXXXXXXXXXXXXXXXXXXXXXXXXXXXXXXXXXXo        .XXXXXXXXXXXXXXXXXXXXXXXXXXXXXXXXXXXXXXXXXXXXXXXXXXXXXXo    ",
"    .XXXXXXXXXXXXXXXXXXXXXXXXXXXXXXXXXXXXXXXXXXXXXXXXXXXXXXo        .XXXXXXXXXXXXXXXXXXXXXXXXXXXXXXXXXXXXXXXXXXXXXXXXXXXXXXo    ",
"    .XXXXXXXXXXXXXXXXXXXXXXXXXXXXXXXXXXXXXXXXXXXXXXXXXXXXXXo        .XX,,,,XXX,,,,XXXXXXXX,,,,XXX,,,,XXXXXXXX,,,,XXX,,,,XXXo    ",
"    .XXXXXXXXXXXXXXXXXXXXXXXXXXXXXXXXXXXXXXXXXXXXXXXXXXXXXXo        .X,XXXX,X,XXXX,XX1>XX,XXXX,X,XXXX,XX1>XX,XXXX,X,XXXX,XXo    ",
"    .XXXXXXXXXXXXXXXXXXXXXXXXXXXXXXXXXXXXXXXXXXXXXXXXXXXXXXo        .X,XXXX,X,XXXX,XX<>XX,XXXX,X,XXXX,XX<>XX,XXXX,X,XXXX,XXo    ",
"    .XXXXXXXXXXXXXXXXXXXXXXXXXXXXXXXXXXXXXXXXXXXXXXXXXXXXXXo        .X,XXXX,X,XXXX,XXXXXX,XXXX,X,XXXX,XXXXXX,XXXX,X,XXXX,XXo    ",
"    .XXXXXXXXXXXXXXXXXXXXXXXXXXXXXXXXXXXXXXXXXXXXXXXXXXXXXXo        .XX,,,,XXX,,,,XXXXXXXX,,,,XXX,,,,XXXXXXXX,,,,XXX,,,,XXXo    ",
"    .XXXXXXXXXXXXXXXXXXXXXXXXXXXXXXXXXXXXXXXXXXXXXXXXXXXXXXo        .X,XXXX,X,XXXX,XXXXXX,XXXX,X,XXXX,XXXXXX,XXXX,X,XXXX,XXo    ",
"    .XXXXXXXXXXXXXXXXXXXXXXXXXXXXXXXXXXXXXXXXXXXXXXXXXXXXXXo        .X,XXXX,X,XXXX,XX1>XX,XXXX,X,XXXX,XX1>XX,XXXX,X,XXXX,XXo    ",
"    .XXXXXXXXXXXXXXXXXXXXXXXXXXXXXXXXXXXXXXXXXXXXXXXXXXXXXXo        .X,XXXX,X,XXXX,XX<>XX,XXXX,X,XXXX,XX<>XX,XXXX,X,XXXX,XXo    ",
"    .XXXXXXXXXXXXXXXXXXXXXXXXXXXXXXXXXXXXXXXXXXXXXXXXXXXXXXo        .XX,,,,XXX,,,,XXXXXXXX,,,,XXX,,,,XXXXXXXX,,,,XXX,,,,XXXo    ",
"    .XXXXXXXXXXXXXXXXXXXXXXXXXXXXXXXXXXXXXXXXXXXXXXXXXXXXXXo        .XXXXXXXXXXXXXXXXXXXXXXXXXXXXXXXXXXXXXXXXXXXXXXXXXXXXXXo    ",
"    .XXXXXXXXXXXXXXXXXXXXXXXXXXXXXXXXXXXXXXXXXXXXXXXXXXXXXXo        .XXXXXXXXXXXXXXXXXXXXXXXXXXXXXXXXXXXXXXXXXXXXXXXXXXXXXXo    ",
"    .XXXXXXXXXXXXXXXXXXXXXXXXXXXXXXXXXXXXXXXXXXXXXXXXXXXXXXo        .XXXXXXXXXXXXXXXXXXXXXXXXXXXXXXXXXXXXXXXXXXXXXXXXXXXXXXo    ",
"    oooooooooooooooooooooooooooooooooooooooooooooooooooooooo        oooooooooooooooooooooooooooooooooooooooooooooooooooooooo    ",
"                                                                                                                                ",
"                                                                                                                                ",
"                                                                                                                                ",
"                                                                                                                                ",
"................................................................                                                                ",
".OOOO++@##$$$$%%%&&&&****=--;;:o.2233445667788990qqwweerrtyyuuio XXXXXXXXXXXXXXXXXXXXXXXXXXXXXXXXXXXXXXXXXXXXXXXXXXXXXXXXXXXXX  ",
".OOOO++@##$$$$%%%&&&&****=--;;:o.2233445667788990qqwweerrtyyuuio XX>>>XXX,,,1X1>>>1X1>>>1X>,,,>X1>>>1X1>>>1X1>>>1X1>>>1X1>>>1X  ",
".OOOO++@##$$$$%%%&&&&****=--;;:o.2233445667788990qqwweerrtyyuuio X>XXX>X,XXX>X,XXX>X,XXX>X>XXX>X>XXX,X>XXX,X,XXX>X>XXX>X>XXX>X  ",
".OOOO++@##$$$$%%%&&&&****=--;;:o.2233445667788990qqwweerrtyyuuio X>XXX>X,XXX>X,XXX>X,XXX>X>XXX>X>XXX,X>XXX,X,XXX>X>XXX>X>XXX>X  ",
".OOOO++@##$$$$%%%&&&&****=--;;:o.2233445667788990qqwweerrtyyuuio X1,,,1XX,,,1X1>>>1XX>>>1X1>>>1X>>>>1X1>>>1XX,,,1X1>>>1Xp>>>1X  ",
".OOOO++@##$$$$%%%&&&&****=--;;:o.2233445667788990qqwweerrtyyuuio X>XXX>X,XXX>X>XXX,X,XXX>X,XXX>X,XXX>X>XXX>X,XXX>X>XXX>X,XXX>X  ",
".OOOO++@##$$$$%%%&&&&****=--;;:o.2233445667788990qqwweerrtyyuuio X>XXX>X,XXX>X>XXX,X,XXX>X,XXX>X,XXX>X>XXX>X,XXX>X>XXX>X,XXX>X  ",
".OOOO++@##$$$$%%%&&&&****=--;;:o.2233445667788990qqwweerrtyyuuio XX>>>XXX,,,>X1>>>1X1>>>1XX,,,1X1>>>1X1>>>1XX,,,>X1>>>1X1>>>1X  ",
".OOOO++@##$$$$%%%&&&&****=--;;:o.2233445667788990qqwweerrtyyuuio XXXXXXXXXXXXXXXXXXXXXXXXXXXXXXXXXXXXXXXXXXXXXXXXXXXXXXXXXXXXX  ",
".OOOO++@##$$$$%%%&&&&****=--;;:o.2233445667788990qqwweerrtyyuuio                                                                ",
"oooooooooooooooooooooooooooooooooooooooooooooooooooooooooooooooo                                                                ",
"                                                                                                                                ",
"XXXXXXXXXXXXXXXXXXXXXXXXXXXXXXXXXXXXXX XXXXXXXXXXXXXXXXXXXXXXXXXXXXXXXXXXXXXXXXXXXXXXXXXXXXXXXXXXXXXXXXXXXXXXXXXXXX             ",
"XasssaXasssaXa,,,aXXX,,,aXXXXXXasssaXX XX>>>>XXX,,,,pXp>>>>1Xp>>>>pXp,,,,pXp>>>>pXp>>>>1Xp>>>>pXp>>>>1Xp>>>>1XXXXXX             ",
"XsXXX,XsXXXsXsXXXsXX,XXXsXXXXsXsXXXsXX X>XXXX>X,XXXX>X,XXXX>X,XXXX>X>XXXX>X>XXXX,X>XXXX,X,XXXX>X>XXXX>X>XXXX>XX1>XX             ",
"XsXXX,XsXXXsXsXXXsXX,XXXsXXXXsXsXXXsXX X>XXXX>X,XXXX>X,XXXX>X,XXXX>X>XXXX>X>XXXX,X>XXXX,X,XXXX>X>XXXX>X>XXXX>XXp>XX             ",
"Xa,,,XXasssaXa,,,aXXX,,,aXXXsXXa,,,aXX X>XXXX>X,XXXX>X,XXXX>X,XXXX>X>XXXX>X>XXXX,X>XXXX,X,XXXX>X>XXXX>X>XXXX>XXXXXX             ",
"XsXXX,XsXXX,XsXXXsXX,XXXsXXXsXXsXXXsXX Xp,,,,pXX,,,,pXp>>>>pXp>>>>pXp>>>>pXp>>>>pXp>>>>pXX,,,,pXp>>>>pXp>>>>pXXXXXX             ",
"XsXXX,XsXXX,XsXXXsXX,XXXsXXsXXXsXXXsXX X>XXXX>X,XXXX>X>XXXX,X,XXXX>X,XXXX>X,XXXX>X>XXXX>X,XXXX>X>XXXX>X,XXXX>XXXXXX             ",
"XasssaXa,,,XXasssaXXX,,,aXXaXXXasssaXX X>XXXX>X,XXXX>X>XXXX,X,XXXX>X,XXXX>X,XXXX>X>XXXX>X,XXXX>X>XXXX>X,XXXX>XX1>XX             ",
"XXXXXXXXXXXXXXXXXXXXXXXXXXXXXXXXXXXXXX X>XXXX>X,XXXX>X>XXXX,X,XXXX>X,XXXX>X,XXXX>X>XXXX>X,XXXX>X>XXXX>X,XXXX>XXp>XX             ",
"XXXXXXXXXXXXXXXXXXXXXXXXXXXXXXXXXXXXXX XX>>>>XXX,,,,pXp>>>>pXp>>>>pXX,,,,pXp>>>>pXp>>>>pXX,,,,pXp>>>>pXp>>>>pXXXXXX             ",
"                                       XXXXXXXXXXXXXXXXXXXXXXXXXXXXXXXXXXXXXXXXXXXXXXXXXXXXXXXXXXXXXXXXXXXXXXXXXXXX             ",
"  a                                                                                                                             ",
"  s                                                                                                                             ",
"  X                                                                                                                             ",
"  d                                                                                                                             ",
"                                                                                                                                ",
"                                                                                                                                ",
"                                                                                                                                ",
"                                                                                                                                ",
"                                                                                                                                ",
"                                                                                                                                ",
"                                                                                                                                ",
"                                                                                                                                ",
"                                                                                                                                ",
"                                                                                                                                ",
"                                                                                                                                ",
"                                                                                                                                ",
"                                                                                                                                ",
"                                                                                                                                ",
"                                                                                                                                ",
"                                                                                                                                ",
"                                                                                                                                ",
"                                                                                                                                ",
"                                                                                                                                ",
"                                                                                                                                ",
"                                                                                                                                ",
"                                                                                                                                ",
"                                                                                                                                ",
"                                                                                                                                ",
"                                                                                                                                ",
"                                                                                                                                ",
"                                                                                                                                ",
"                                                                                                                                "};
