/* XPM */
static char * wmppp_master_xpm[] = {
"64 114 16 1",
" 	c #00000000FFFF",
".	c #000000000000",
"X	c #208120812081",
"o	c #C71BC30BC71B",
"O	c #000049244103",
"+	c #28A23CF338E3",
"@	c #F7DEF3CEFFFF",
"#	c #861782078E38",
"$	c #AEBAAAAAAEBA",
"%	c #2081B2CAAEBA",
"&	c #18618A288617",
"*	c #B6DA04101861",
"=	c #0000EBAD0000",
"-	c #E79DC30B0820",
";	c #71C6E38D71C6",
":	c #4924C30B4924",
"                                                                ",
"                                                                ",
"                                                                ",
"                                                                ",
"    .................................  .....................    ",
"    .XXXXXXXXXXXXXXXXXXXXXXXXXXXXXXXo  .XXXXXXXXXXXXXXXXXXXo    ",
"    .XXOOOXXXOOOXXXXXXXOOOXXXOOOXXXXo  .XXXXXXXXXXXXXXXXXXXo    ",
"    .XOXXXOXOXXXOXXOXXOXXXOXOXXXOXXXo  .XX++XXXX++XXXX++XXXo    ",
"    .XOXXXOXOXXXOXXOXXOXXXOXOXXXOXXXo  .X++++XX++++XX++++XXo    ",
"    .XXOOOXXXOOOXXXXXXXOOOXXXOOOXXXXo  .X++++XX++++XX++++XXo    ",
"    .XOXXXOXOXXXOXXXXXOXXXOXOXXXOXXXo  .XX++XXXX++XXXX++XXXo    ",
"    .XOXXXOXOXXXOXXOXXOXXXOXOXXXOXXXo  .XXXXXXXXXXXXXXXXXXXo    ",
"    .XXOOOXXXOOOXXXOXXXOOOXXXOOOXXXXo  .XXXXXXXXXXXXXXXXXXXo    ",
"    .XXXXXXXXXXXXXXXXXXXXXXXXXXXXXXXo  .XXXXXXXXXXXXXXXXXXXo    ",
"    .XXXXXXXXXXXXXXXXXXXXXXXXXXXXXXXo  .XXXXXXXXXXXXXXXXXXXo    ",
"    ooooooooooooooooooooooooooooooooo  ooooooooooooooooooooo    ",
"                                                                ",
"                                                                ",
"    ........................................................    ",
"    .XXXXXXXXXXXXXXXXXXXXXXXXXXXXXXXXXXXXXXXXXXXXXXXXXXXXXXo    ",
"    .XXXXXXXXXXXXXXXXXXXXXXXXXXXXXXXXXXXXXXXXXXXXXXXXXXXXXXo    ",
"    .XXXXXXXXXXXXXXXXXXXXXXXXXXXXXXXXXXXXXXXXXXXXXXXXXXXXXXo    ",
"    .XXXXXXXXXXXXXXXXXXXXXXXXXXXXXXXXXXXXXXXXXXXXXXXXXXXXXXo    ",
"    .XXXXXXXXXXXXXXXXXXXXXXXXXXXXXXXXXXXXXXXXXXXXXXXXXXXXXXo    ",
"    .XXXXXXXXXXXXXXXXXXXXXXXXXXXXXXXXXXXXXXXXXXXXXXXXXXXXXXo    ",
"    .XXXXXXXXXXXXXXXXXXXXXXXXXXXXXXXXXXXXXXXXXXXXXXXXXXXXXXo    ",
"    .XXXXXXXXXXXXXXXXXXXXXXXXXXXXXXXXXXXXXXXXXXXXXXXXXXXXXXo    ",
"    .XXXXXXXXXXXXXXXXXXXXXXXXXXXXXXXXXXXXXXXXXXXXXXXXXXXXXXo    ",
"    .XXXXXXXXXXXXXXXXXXXXXXXXXXXXXXXXXXXXXXXXXXXXXXXXXXXXXXo    ",
"    .XXXXXXXXXXXXXXXXXXXXXXXXXXXXXXXXXXXXXXXXXXXXXXXXXXXXXXo    ",
"    .XXXXXXXXXXXXXXXXXXXXXXXXXXXXXXXXXXXXXXXXXXXXXXXXXXXXXXo    ",
"    .XXXXXXXXXXXXXXXXXXXXXXXXXXXXXXXXXXXXXXXXXXXXXXXXXXXXXXo    ",
"    .XXXXXXXXXXXXXXXXXXXXXXXXXXXXXXXXXXXXXXXXXXXXXXXXXXXXXXo    ",
"    .XXXXXXXXXXXXXXXXXXXXXXXXXXXXXXXXXXXXXXXXXXXXXXXXXXXXXXo    ",
"    .XXXXXXXXXXXXXXXXXXXXXXXXXXXXXXXXXXXXXXXXXXXXXXXXXXXXXXo    ",
"    .XXXXXXXXXXXXXXXXXXXXXXXXXXXXXXXXXXXXXXXXXXXXXXXXXXXXXXo    ",
"    .XXXXXXXXXXXXXXXXXXXXXXXXXXXXXXXXXXXXXXXXXXXXXXXXXXXXXXo    ",
"    .XXXXXXXXXXXXXXXXXXXXXXXXXXXXXXXXXXXXXXXXXXXXXXXXXXXXXXo    ",
"    .XXXXXXXXXXXXXXXXXXXXXXXXXXXXXXXXXXXXXXXXXXXXXXXXXXXXXXo    ",
"    .XXXXXXXXXXXXXXXXXXXXXXXXXXXXXXXXXXXXXXXXXXXXXXXXXXXXXXo    ",
"    .XXXXXXXXXXXXXXXXXXXXXXXXXXXXXXXXXXXXXXXXXXXXXXXXXXXXXXo    ",
"    .XXXXXXXXXXXXXXXXXXXXXXXXXXXXXXXXXXXXXXXXXXXXXXXXXXXXXXo    ",
"    .XXXXXXXXXXXXXXXXXXXXXXXXXXXXXXXXXXXXXXXXXXXXXXXXXXXXXXo    ",
"    .XXXXXXXXXXXXXXXXXXXXXXXXXXXXXXXXXXXXXXXXXXXXXXXXXXXXXXo    ",
"    oooooooooooooooooooooooooooooooooooooooooooooooooooooooo    ",
"                                                                ",
"                                                                ",
"    ............................  ..........................    ",
"    .XXXXXXXXXXXXXXXXXXXXXXXXXXo  .@@@@@@@@@@@#@@@@@@@@@@@#o    ",
"    .XXXXXXXXXXXXXXXXXXXXXXXXXXo  .@$$$$$$$$$$.@$$$$$$$$$$.o    ",
"    .XXXXXXXXXXXXXXXXXXXXXXXXXXo  .@$$$$$$..$$.@$..$$$..$$.o    ",
"    .XXXXXXXXXXXXXXXXXXXXXXXXXXo  .@$$$$$...$$.@$...$...$$.o    ",
"    .XXXXXXXXXXXXXXXXXXXXXXXXXXo  .@$..$...$$$.@$$.....$$$.o    ",
"    .XXXXXXXXXXXXXXXXXXXXXXXXXXo  .@$.....$$$$.@$$$...$$$$.o    ",
"    .XXXXXXXXXXXXXXXXXXXXXXXXXXo  .@$....$$$$$.@$$.....$$$.o    ",
"    .XXXXXXXXXXXXXXXXXXXXXXXXXXo  .@$...$$$$$$.@$...$...$$.o    ",
"    .XXXXXXXXXXXXXXXXXXXXXXXXXXo  .@$..$$$$$$$.@$..$$$..$$.o    ",
"    .XXXXXXXXXXXXXXXXXXXXXXXXXXo  .@$$$$$$$$$$.@$$$$$$$$$$.o    ",
"    .XXXXXXXXXXXXXXXXXXXXXXXXXXo  .#...........#...........o    ",
"    oooooooooooooooooooooooooooo  oooooooooooooooooooooooooo    ",
"                                                                ",
"                                                                ",
"                                                                ",
"                                                                ",
"XXXXXXXXXXXXXXXXXXXXXXXXXXXXXXXXXXXXXXXXXXXXXXXXXXXXXXXXXXXXXXXX",
"XX%%%XXXOOO&X&%%%&X&%%%&X&OOO&X&%%%&X&%%%&X&%%%&X&%%%&X&%%%&XXXX",
"X%XXX%XOXXX%XOXXX%XOXXX%X%XXX%X%XXXOX%XXXOXOXXX%X%XXX%X%XXX%XX%X",
"X%XXX%XOXXX%XOXXX%XOXXX%X%XXX%X%XXXOX%XXXOXOXXX%X%XXX%X%XXX%XX&X",
"X&OOO&XXOOO&X&%%%&XX%%%&X&%%%&X&%%%&X&%%%&XXOOO&X&%%%&X&%%%&XXXX",
"X%XXX%XOXXX%X%XXXOXOXXX%XOXXX%XOXXX%X%XXX%XOXXX%X%XXX%XOXXX%XXXX",
"X%XXX%XOXXX%X%XXXOXOXXX%XOXXX%XOXXX%X%XXX%XOXXX%X%XXX%XOXXX%XX%X",
"XX%%%XXXOOO&X&%%%&X&%%%&XXOOO&X&%%%&X&%%%&XXOOO&X&%%%&X&%%%&XX&X",
"XXXXXXXXXXXXXXXXXXXXXXXXXXXXXXXXXXXXXXXXXXXXXXXXXXXXXXXXXXXXXXXX",
"                                                                ",
"...........#...........#@@@@@@@@@@@#@@@@@@@@@@@#                ",
".$$$$$$$$$$@.$$$$$$$$$$@@$$$$$$$$$$.@$$$$$$$$$$.  X++X  X**X    ",
".$$$$$$..$$@.$..$$$..$$@@$$$$$$..$$.@$..$$$..$$.  ++++  *@**    ",
".$$$$$...$$@.$...$...$$@@$$$$$...$$.@$...$...$$.  ++++  ****    ",
".$..$...$$$@.$$.....$$$@@$..$...$$$.@$$.....$$$.  X++X  X**X    ",
".$.....$$$$@.$$$...$$$$@@$.....$$$$.@$$$...$$$$.                ",
".$....$$$$$@.$$.....$$$@@$....$$$$$.@$$.....$$$.  X==X  X--X    ",
".$...$$$$$$@.$...$...$$@@$...$$$$$$.@$...$...$$.  =@==  -@--    ",
".$..$$$$$$$@.$..$$$..$$@@$..$$$$$$$.@$..$$$..$$.  ====  ----    ",
".$$$$$$$$$$@.$$$$$$$$$$@@$$$$$$$$$$.@$$$$$$$$$$.  X==X  X--X    ",
"#@@@@@@@@@@@#@@@@@@@@@@@#...........#...........                ",
"                                                        ;X%&;   ",
"XXXXXXXXXXXXXXXXXXXXXXXXXXXXXXXXXXXXXXXXXXXXXXXXXXXXXXXXXXXXXXXX",
"+++:X:;;:X:;;:X:++:X:;;:X:;;:X:;;:X:;;:X:;;:X:;;:X++++X++++X++++",
"+XX;X+XX;X+XX;X;XX;X;XX+X;XX+X+XX;X;XX;X;XX;X;XX;X+XX+X+XX+X+XX+",
"+XX;X+XX;X+XX;X;XX;X;XX+X;XX+X+XX;X;XX;X;XX;X;XX;X;XX;X;XX;X+XX+",
"+++:X:;;:X:;;:X:;;:X:;;:X:;;:X+++:X:;;:X:;;:X:++:X;+;+X;;;;X++++",
"+XX;X;XX+X+XX;X+XX;X+XX;X;XX;X+XX;X;XX;X+XX;X;XX;X;;X+X;XX;X+XX+",
"+XX;X;XX+X+XX;X+XX;X+XX;X;XX;X+XX;X;XX;X+XX;X;XX;X;X;+X;XX;X+XX+",
"+++;X:;;:X:;;:X+++:X:;;:X:;;:X+++:X:;;:X:;;:X:;;:X;++;X;++;X++++",
"XXXXXXXXXXXXXXXXXXXXXXXXXXXXXXXXXXXXXXXXXXXXXXXXXXXXXXXXXXXXXXXX",
"XXXXXXXXXXXXXXXXXXXXXXXXXXXXXXXXXXXXXXXXXXXXXXXXXXXXXXXXXXXXXXXX",
":;;:X:;;:X:;;:X:;;:X:;;:XXXX++++X++++X++++XXXXXX++++XXXXXXXXXXXX",
";XX+X;XX;X;XX;X;XX;X;XX;XXXX+XX+X+XX+X+XX+XXXXXX+XX+XXXXXXXXXXXX",
";XX+X;XX;X;XX;X;XX;X;XX;XXXX+XX+X+XX+X+XX+X+XX+X+XX+XXXXXXXXXXXX",
":;;+X:;;XX:;;XX:++:X:;;XXXXX++++X++++X++++X+X+XX++++XXXXXXXXXXXX",
";XX+X;XX;X;XX;X;XX;X;XX;XXXX+XX+X+XX+X+XX+X++XXX+XX+XXXXXXXXXXXX",
";XX+X;XX;X;XX;X;XX;X;XX;XXXX+XX+X+XX+X+XX+X+X+XX+XX+XXXXXXXXXXXX",
":;;:X:++:X:++:X:;;:X:++:XXXX++++X++++X++++X+XX+X++++XXXXXXXXXXXX",
"XXXXXXXXXXXXXXXXXXXXXXXXXXXXXXXXXXXXXXXXXXXXXXXXXXXXXXXXXXXXXXXX",
"XXOOOXXXOOOXXXXXXXOOOXXXOOOXXXXXXXXXXXXXXXXXXXXXXXXXXXXXXXXXXXXX",
"XOXXXOXOXXXOXXOXXOXXXOXOXXXOXXXXXXXXXXXXXXXXXXXXXXXXXXXXXXXXXXXX",
"XOXXXOXOXXXOXXOXXOXXXOXOXXXOXXXXXXXXXXXXXXXXXXXXXXXXXXXXXXXXXXXX",
"XXOOOXXXOOOXXXXXXXOOOXXXOOOXXXXXXXXXXXXXXXXXXXXXXXXXXXXXXXXXXXXX",
"XOXXXOXOXXXOXXXXXOXXXOXOXXXOXXXXXXXXXXXXXXXXXXXXXXXXXXXXXXXXXXXX",
"XOXXXOXOXXXOXXOXXOXXXOXOXXXOXXXXXXXXXXXXXXXXXXXXXXXXXXXXXXXXXXXX",
"XXOOOXXXOOOXXXOXXXOOOXXXOOOXXXXXXXXXXXXXXXXXXXXXXXXXXXXXXXXXXXXX",
"XXXXXXXXXXXXXXXXXXXXXXXXXXXXXXXXXXXXXXXXXXXXXXXXXXXXXXXXXXXXXXXX",
"XXXXXXXXXXXXXXXXXXXXXXXXXXXXXXXXXXXXXXXXXXXXXXXXXXXXXXXXXXXXXXXX",
"XXXXXXXXXXXXXXXXXXXXXXXXXXXXXXXXXXXXXXXXXXXXXXXXXXXXXXXXXXXXXXXX"};
