/* XPM */
static char * wmstickynotes_xpm[] = {
"56 56 11 1",
" 	c #000000",
".	c #D6EF00",
"+	c #C1D800",
"@	c #C2D900",
"#	c #C2D800",
"$	c #C3DA00",
"%	c #BFD600",
"&	c #C3D900",
"*	c #464E00",
"=	c #4A5300",
"-	c #98AA00",
"                                                        ",
" ...................................................... ",
" ...................................................... ",
" ...................................................... ",
" ...................................................... ",
" ...................................................... ",
" ...................................................... ",
" ...................................................... ",
" ...................................................... ",
" ...................................................... ",
" ...................................................... ",
" ...................................................... ",
" ...................................................... ",
" ...................................................... ",
" ...................................................... ",
" ...................................................... ",
" ...................................................... ",
" ...................................................... ",
" ...................................................... ",
" ...................................................... ",
" ...................................................... ",
" ...................................................... ",
" ...................................................... ",
" ...................................................... ",
" ...................................................... ",
" ...................................................... ",
" ...................................................... ",
" ...................................................... ",
" ...................................................... ",
" ...................................................... ",
" ...................................................... ",
" ...................................................... ",
" ...................................................... ",
" ...................................................... ",
" ...................................................... ",
" ...................................................... ",
" ...................................................... ",
" ...................................................... ",
" ...................................................... ",
" ...................................................... ",
" ...................................................... ",
" ...................................................... ",
" ...................................................... ",
" ...................................................... ",
" ...................................................... ",
" ...................................................... ",
" ...................................................... ",
" +@#+@+$%&%$+@#+@+$%&%$+@#+@+$%&%$+@#+@+$%&%$+@#+@+$%&% ",
" *===================================================== ",
" ------------------------------------------------------ ",
" =====================================================* ",
" ------------------------------------------------------ ",
" *===================================================== ",
" ------------------------------------------------------ ",
" =====================================================* ",
"                                                        "};
