/* XPM */
static char * mbox_1_xpm[] = {
"39 33 146 2",
"  	c None",
". 	c #2A2A2A",
"+ 	c #E2C696",
"@ 	c #DEBE92",
"# 	c #D2B28A",
"$ 	c #C27E52",
"% 	c #AA623E",
"& 	c #625A4A",
"* 	c #5E5646",
"= 	c #565246",
"- 	c #EAD2A6",
"; 	c #524A42",
"> 	c #F6E2B6",
", 	c #52423E",
"' 	c #BE8A66",
") 	c #4E463E",
"! 	c #7A6E5A",
"~ 	c #F2DEB2",
"{ 	c #42423E",
"] 	c #CA966E",
"^ 	c #B67E5A",
"/ 	c #F2DAAA",
"( 	c #E6CA9E",
"_ 	c #CAA276",
": 	c #9E6A4A",
"< 	c #3E3E3E",
"[ 	c #FAE6BE",
"} 	c #766A5A",
"| 	c #AA6E4A",
"1 	c #D6A67E",
"2 	c #DAB68A",
"3 	c #EED6A6",
"4 	c #363632",
"5 	c #E6CE9E",
"6 	c #827E76",
"7 	c #BA724A",
"8 	c #DEB686",
"9 	c #DEC29A",
"0 	c #F6DEB2",
"a 	c #BA8E6A",
"b 	c #B67A56",
"c 	c #EACEA2",
"d 	c #DEBA8E",
"e 	c #F6E2BA",
"f 	c #CEAA82",
"g 	c #A67656",
"h 	c #E6C69A",
"i 	c #564E46",
"j 	c #5A5652",
"k 	c #F2D6AA",
"l 	c #E6BE92",
"m 	c #B6764E",
"n 	c #EECEA2",
"o 	c #F2DAB2",
"p 	c #C69266",
"q 	c #5E5242",
"r 	c #D6AA7A",
"s 	c #4E423A",
"t 	c #E2C296",
"u 	c #EACA9A",
"v 	c #EED2A6",
"w 	c #DAB286",
"x 	c #C2865A",
"y 	c #CE9E76",
"z 	c #BA7A52",
"A 	c #F6DEB6",
"B 	c #62564A",
"C 	c #EAC69A",
"D 	c #FAE6C2",
"E 	c #AA724E",
"F 	c #DABA8E",
"G 	c #7A7262",
"H 	c #EED6AA",
"I 	c #E6C296",
"J 	c #E2BA8E",
"K 	c #FAE2BA",
"L 	c #DAAA7E",
"M 	c #5A524A",
"N 	c #5A564E",
"O 	c #EED6AE",
"P 	c #E2BE9A",
"Q 	c #EACEA6",
"R 	c #F6E2BE",
"S 	c #E2BE92",
"T 	c #CEA27A",
"U 	c #B26E4A",
"V 	c #DEAE82",
"W 	c #665E4E",
"X 	c #52463E",
"Y 	c #FAEAC2",
"Z 	c #EECEA6",
"` 	c #E2B68A",
" .	c #CAA67E",
"..	c #D6AE86",
"+.	c #E2BE96",
"@.	c #564A42",
"#.	c #DEB68A",
"$.	c #F2DEB6",
"%.	c #E6C69E",
"&.	c #DEB286",
"*.	c #AE724E",
"=.	c #E6CAA2",
"-.	c #56524A",
";.	c #F2DAAE",
">.	c #625A4E",
",.	c #D6BA96",
"'.	c #564E4A",
").	c #E2BA92",
"!.	c #A66646",
"~.	c #A26E4A",
"{.	c #F2D6AE",
"].	c #E6C29A",
"^.	c #C6A27E",
"/.	c #C6926E",
"(.	c #EACAA2",
"_.	c #EED2AA",
":.	c #DAAE86",
"<.	c #5E564A",
"[.	c #524642",
"}.	c #EAC69E",
"|.	c #EECEAA",
"1.	c #E6BE96",
"2.	c #DEB68E",
"3.	c #C28A62",
"4.	c #AE6E4A",
"5.	c #D2AA82",
"6.	c #E2C29A",
"7.	c #7A6E5E",
"8.	c #F2DAB6",
"9.	c #EACA9E",
"0.	c #DABA92",
"a.	c #56524E",
"b.	c #524A46",
"c.	c #DEBA92",
"d.	c #EACEAA",
"e.	c #E6CEA2",
"f.	c #4E423E",
"g.	c #E2C69A",
"h.	c #DAB68E",
"i.	c #DAB28A",
"j.	c #FAE2BE",
"k.	c #DEBE96",
"l.	c #CAA27A",
"m.	c #5A5656",
"n.	c #5E5246",
"o.	c #564A46",
". . . . . . . . . . . . . . . . . . . . . . . . . . . . . . . . . . . . . . . ",
". . . . . . . . . . . . . . . . . . . . . . . . . . . . . . . . . . . . . . . ",
". . . . . . . . . . . . . . . . . . . . . . . . . . . . . . . . . . . . . . . ",
". . . . . . . . . . . . . . . . . . . . . . . . . . . . . . . . . . . . . . . ",
". . . . . . . . . . . . . . . . . . . . . . . . . . . . . . . . . . . . . . . ",
". . . . . . . . . . . . . . . . . . . . . . . . . . . . . . . . . . . . . . . ",
". . . . @.; i @.i @.; i i i M i i i i i i i i i ; ; ; ; ; ; ; ; X @.i @.. . . ",
". . . 6 5 / 3 3 0 / / > / > / 0 0 > [ [ [ > ~ u d S ( ^.r y y ] p _ 3 + ; . . ",
". . . } 3 ~ / ~ / 0 e > A ~ e > K e e e > K v a S S 8 2 2 | E *.| ^ v + ; . . ",
". . . } A O $.o e [ K o > [ 0 e > A e > K > F 2 - 3 d + w ~.x U 7 x - ( i . . ",
". . . } 0 A > [ e e > o ~ ~ > e [ [ [ [ [ [ 0.9.c Q c @ ..*.p % $ x - - i . . ",
". . . ! e > e 8.e.> ;./ ;.H ~ e [ D [ [ R A H 6.9.S k.y y % ^ m z 4.( 5 ; . . ",
". . . } R [ [ ,.$.j.~ o o {.;.H > [ D D e e > - F t e.f ^.E 4.!.b ' A - i . . ",
". . . G > D e e e $.%.> > c ;.;.;.8.[ [ > o ;._.H k ;.;.~ t :.w w S 0 - i . . ",
". . . ! ~ [ e R [ _.+.A Q i.H e.F _.~ e ~ ;./ / S +.H :.o e ~ $.~ ;.0 H i . . ",
". . . 7.O R R R d.` +.[ ( ).A ].%.g.e.Q ..@ 6.{.:.).+.c e A k ;./ ~ R ;.i . . ",
". . . } ~ e [ e _.P $.A H Q e c.(.}.6.0.h.k.t H }.1 {.A e ;.H A ;.;.0 $.i . . ",
". . . 7.o D R [ [ [ R Z O > (.}.A o - 9.&.;.v {.> _.0 o > ~ ;.~ v 3 ;./ i . . ",
". . . ! > [ [ R e D %._.Z > ( +.t ).9.&.).#.J ].;.o S (.c n n ~ / H O ;.= . . ",
". . . 7.$.[ R [ D [ o (.o 8.(.C }.v ~ Z C ).I I r r (.v k ~ ~ k o - ;./ i . . ",
". . . ! $.[ D R R D $.D R e o J I k ~ S n {.9.;._.n S 9.n h / ~ ~ - ;.- -.. . ",
". . . } ;.> > [ [ [ A A [ e C S ].o 9.I l ].` l J J S t - v o ;.- 3 ;.e.i . . ",
". . . ! O ~ ~ ~ A A > ~ ~ e j.[ e [ e _.~ I 9.( v 3 H (.c ;.v k H H H 5 -.. . ",
". . . } - ~ n 0 $.e o A A e e R [ j.e ~ k C ` I 9.1.` :.J &.( ( - H v g.'.. . ",
". . . } H ;.$.> ~ > > A o ~ e R [ $.A A Z n h t S t J S ( 5 - c C H ( 5 N . . ",
". . . } 2 =.( ( Q {.v H o O k / ;.{.o v - c 9.3 ;.3 3 - c 9.( ( 5 t + h a.. . ",
". . . 4 m.a.i -.i '.i i o.i b.b.; ; b.; ) ; X X [., X ; ; ) X s ) s s s 4 . . ",
". . . . . . . . . . . . . . . . . . . . . . . . . . . . . . . . . . . . . . . ",
". . . . . . . . . . . . . . . . . . . . . . . . . . . . . . . . . . . . . . . ",
". . . . . . . . . . . . . . . . . . . . . . . . . . . . . . . . . . . . . . . ",
". . . . . . . . . . . . . . . . . . . . . . . . . . . . . . . . . . . . . . . ",
". . . . . . . . . . . . . . . . . . . . . . . . . . . . . . . . . . . . . . . ",
". . . . . . . . . . . . . . . . . . . . . . . . . . . . . . . . . . . . . . . "};
