/* XPM */
static char * numbers_xpm[] = {
"55 9 4 1",
" 	c None",
".	c #282828",
"+	c #D3D3D3",
"@	c #000000",
".+++..@@@..+++..+++..@@@..+++..+++..+++..+++..+++......",
"+...+@...+@...+@...++...++...@+...@@...++...++...+++...",
"+...+@...+@...+@...++...++...@+...@@...++...++...+.++..",
"+...+@...+@...+@...++...++...@+...@@...++...++...+..++.",
".@@@..@@@..+++..+++..+++..+++..+++..@@@..+++..+++....++",
"+...+@...++...@@...+@...+@...++...+@...++...+@...+..++.",
"+...+@...++...@@...+@...+@...++...+@...++...+@...+.++..",
"+...+@...++...@@...+@...+@...++...+@...++...+@...+++...",
".+++..@@@..+++..+++..@@@..+++..+++..@@@..+++..+++......"};
