/* XPM */
static char * wmtz_mono_xpm[] = {
"160 100 13 1",
".	c #000000",
" 	c None",
"+	c #000000",
"@	c #000000",
"#	c #FFFFFF",
"$	c #FFFFFF",
"%	c #000000",
"&	c #FFFFFF",
"*	c #000000",
"=	c #000000",
"-	c #000000",
";	c #000000",
">	c #000000",
"................................................................+...............................................................................................",
"................................................................+...............................................................................................",
"................................................................+...............................................................................................",
"................................................................+...............................................................................................",
"....@@@@@@@@@@@@@@@@@@@@@@@@@@@@@@@@@@@@@@@@@@@@@@@@@@@@@@@@....+...............................................................................................",
"....@++++++++++++++++++++++++++++++++++++++++++++++++++++++#....+...............................................................................................",
"....@++++++++++++++++++++++++++++++++++++++++++++++++++++++#....+...............................................................................................",
"....@++++++++++++++++++++++++++++++++++++++++++++++++++++++#....+...............................................................................................",
"....@++++++++++++++++++++++++++++++++++++++++++++++++++++++#....+...............................................................................................",
"....@++++++++++++++++++++++++++++++++++++++++++++++++++++++#....+...............................................................................................",
"....@++++++++++++++++++++++++++++++++++++++++++++++++++++++#....+...............................................................................................",
"....@++++++++++++++++++++++++++++++++++++++++++++++++++++++#....+...............................................................................................",
"....@++++++++++++++++++++++++++++++++++++++++++++++++++++++#....+...............................................................................................",
"....@++++++++++++++++++++++++++++++++++++++++++++++++++++++#....+...............................................................................................",
"....@++++++++++++++++++++++++++++++++++++++++++++++++++++++#....+...............................................................................................",
"....@++++++++++++++++++++++++++++++++++++++++++++++++++++++#....+...............................................................................................",
"....@++++++++++++++++++++++++++++++++++++++++++++++++++++++#....+...............................................................................................",
"....@++++++++++++++++++++++++++++++++++++++++++++++++++++++#....+...............................................................................................",
"....@++++++++++++++++++++++++++++++++++++++++++++++++++++++#....+...............................................................................................",
"....@++++++++++++++++++++++++++++++++++++++++++++++++++++++#....+...............................................................................................",
"....@++++++++++++++++++++++++++++++++++++++++++++++++++++++#....+...............................................................................................",
"....@++++++++++++++++++++++++++++++++++++++++++++++++++++++#....+...............................................................................................",
"....@++++++++++++++++++++++++++++++++++++++++++++++++++++++#....+...............................................................................................",
"....@++++++++++++++++++++++++++++++++++++++++++++++++++++++#....+...............................................................................................",
"....@++++++++++++++++++++++++++++++++++++++++++++++++++++++#....+...............................................................................................",
"....@++++++++++++++++++++++++++++++++++++++++++++++++++++++#....+...............................................................................................",
"....@++++++++++++++++++++++++++++++++++++++++++++++++++++++#....+...............................................................................................",
"....@++++++++++++++++++++++++++++++++++++++++++++++++++++++#....+...............................................................................................",
"....@++++++++++++++++++++++++++++++++++++++++++++++++++++++#....+...............................................................................................",
"....@++++++++++++++++++++++++++++++++++++++++++++++++++++++#....+...............................................................................................",
"....@++++++++++++++++++++++++++++++++++++++++++++++++++++++#....+...............................................................................................",
"....@++++++++++++++++++++++++++++++++++++++++++++++++++++++#....+...............................................................................................",
"....@++++++++++++++++++++++++++++++++++++++++++++++++++++++#....+...............................................................................................",
"....@++++++++++++++++++++++++++++++++++++++++++++++++++++++#....+...............................................................................................",
"....@++++++++++++++++++++++++++++++++++++++++++++++++++++++#....+...............................................................................................",
"....@++++++++++++++++++++++++++++++++++++++++++++++++++++++#....+...............................................................................................",
"....@++++++++++++++++++++++++++++++++++++++++++++++++++++++#....+...............................................................................................",
"....@++++++++++++++++++++++++++++++++++++++++++++++++++++++#....+...............................................................................................",
"....@++++++++++++++++++++++++++++++++++++++++++++++++++++++#....+...............................................................................................",
"....@++++++++++++++++++++++++++++++++++++++++++++++++++++++#....+...............................................................................................",
"....@++++++++++++++++++++++++++++++++++++++++++++++++++++++#....+...............................................................................................",
"....@++++++++++++++++++++++++++++++++++++++++++++++++++++++#....+...............................................................................................",
"....@++++++++++++++++++++++++++++++++++++++++++++++++++++++#....+...............................................................................................",
"....@++++++++++++++++++++++++++++++++++++++++++++++++++++++#....+...............................................................................................",
"....@++++++++++++++++++++++++++++++++++++++++++++++++++++++#....+.................$.............................................................................",
"....@++++++++++++++++++++++++++++++++++++++++++++++++++++++#....+...............................................................................................",
"....@++++++++++++++++++++++++++++++++++++++++++++++++++++++#....+...............................................................................................",
"....@++++++++++++++++++++++++++++++++++++++++++++++++++++++#....+...............................................................................................",
"....@++++++++++++++++++++++++++++++++++++++++++++++++++++++#....+...............................................................................................",
"....@++++++++++++++++++++++++++++++++++++++++++++++++++++++#....+...............................................................................................",
"....@++++++++++++++++++++++++++++++++++++++++++++++++++++++#....+...............................................................................................",
"....@++++++++++++++++++++++++++++++++++++++++++++++++++++++#....+...............................................................................................",
"....@++++++++++++++++++++++++++++++++++++++++++++++++++++++#....+...............................................................................................",
"....@++++++++++++++++++++++++++++++++++++++++++++++++++++++#....+...............................................................................................",
"....@++++++++++++++++++++++++++++++++++++++++++++++++++++++#....+...............................................................................................",
"....@++++++++++++++++++++++++++++++++++++++++++++++++++++++#....+...............................................................................................",
"....@++++++++++++++++++++++++++++++++++++++++++++++++++++++#....+...............................................................................................",
"....@++++++++++++++++++++++++++++++++++++++++++++++++++++++#....+...............................................................................................",
"....@++++++++++++++++++++++++++++++++++++++++++++++++++++++#....+...............................................................................................",
"....########################################################....+...............................................................................................",
"................................................................+...............................................................................................",
"................................................................+...............................................................................................",
"................................................................+...............................................................................................",
"................................................................+...............................................................................................",
"+++++++++++++++++++++++++++++++++++++++++++++++++++++++++++++++++++++++++++++++.............................+++++++++++++++++++.................................",
"++$$$+++%%%&+&$$$&+&$$$&+&%%%&+&$$$&+&$$$&+&$$$&+&$$$&+&$$$&+++++++++++++++++++.............................+&$$$&++++++++%%%++.................................",
"+$+++$+%+++$+%+++$+%+++$+$+++$+$+++%+$+++%+%+++$+$+++$+$+++$++++++++++++$++++++..+**+..+==+..+--+...........+$+++$+++++++%+++%+.................................",
"+$+++$+%+++$+%+++$+%+++$+$+++$+$+++%+$+++%+%+++$+$+++$+$+++$++$++++$++++$++++++..*;**..=;==..----...........+$+$+$+++++++%+++%+.................................",
"+&%%%&++%%%&+&$$$&++$$$&+&$$$&+&$$$&+&$$$&++%%%&+%$$$%+&$$$&++&++++&+++$+++++++..****..====..----...+$%>....+&%&$&++++++++%%%++.................................",
"+$+++$+%+++$+$+++%+%+++$+%+++$+%+++$+$+++$+%+++$+$+++$+%+++$+++++++++++$+++++++..+**+..+==+..+--+...........+$+++%+++++++%+++%+.................................",
"+$+++$+%+++$+$+++%+%+++$+%+++$+%+++$+$+++$+%+++$+$+++$+%+++$++$++++$++$+++++++&.............................+$+++%+++&+++%+++%+.................................",
"++$$$+++%%%$+&$$$&+&$$$&++%%%&+&$$$&+&$$$&++%%%&+&$$$&+&$$$&++&++++&++$+++++++$.............................+&$$$&+++$++++%%%++.................................",
"+++++++++++++++++++++++++++++++++++++++++++++++++++++++++++++++++++++++++++++++.............................+++++++++++++++++++.................................",
"................................................................................................................................................................",
"++++++++++++++++++++++++++++++++++++++++++++++++++++++++++++++++++++++++++++++++++++++++++++++++++++++++++++++++++++++++++++++++++++++++++++++++++++++++++++++++",
"+%$$$%+&$$$++&$$$&+&$$$++&$$$&+&$$$&+&$$$&+&%%%&++%%%&++%%%&+&%%%&+&%%%++$%%%$+&$$$++&$$$&+&$$$&+&$$$&+&$$$&+&$$$&+&$$$&+&%%%&+&%%%&+&%%%&+&%%%&+&%%%&+&$$$&++++",
"+$+++$+$+++$+$+++%+$+++$+$+++%+$+++%+$+++%+$+++$+%+++$+%+++$+$+++$+$+++%+$$+$$+$+++$+$+++$+$+++$+$+++$+$+++$+$+++%+%+$+%+$+++$+$+++$+$+++$+$+++$+$+++$+%+++$++++",
"+$+++$+$+++$+$+++%+$+++$+$+++%+$+++%+$+++%+$+++$+%+++$+%+++$+$++$%+$+++%+$+$+$+$+++$+$+++$+$+++$+$+++$+$+++$+$+++%+%+$+%+$+++$+$+++$+$+++$+%$+$%+$+++$+%++$%++++",
"+&$$$&+&$$$++&%%%++&%%%&+&$$$++&$$$++&%$$&+&$$$&++%%%&++%%%&+&$$%++&%%%++&%%%&+&%%%&+&%%%&+&$$$&+&$%%&+&$$$++&$$$&++%&%++&%%%&+&%%%&+&%%%&++%$%++&$$$&++%$%+++++",
"+$+++$+$+++$+$+++%+$+++$+$+++%+$+++%+$+++$+$+++$+%+++$+%+++$+$++$%+$+++%+$+++$+$+++$+$+++$+$+++%+$+$+$+$+++$+%+++$+%+$+%+$+++$+$+++$+$+$+$+%$+$%+%+++$+%$++%++++",
"+$+++$+$+++$+$+++%+$+++$+$+++%+$+++%+$+++$+$+++$+%+++$+%+++$+$+++$+$+++%+$+++$+$+++$+$+++$+$+++%+$++$$+$+++$+%+++$+%+$+%+$+++$+$+++$+$$+$$+$+++$+%+++$+$+++%++++",
"+&%%%&+&$$$++&$$$&+$$$$++&$$$&+$%%%++&$$$&+&%%%&++%%%$+&$$$&+&%%%&+&$$$%+&%%%&+$%%%$+&$$$&+&%%%++&$$$&+&%%%&+&$$$&++%&%++%$$$$++$$$++$%%%$+&%%%$&&$$$&+&$$$&++++",
"++++++++++++++++++++++++++++++++++++++++++++++++++++++++++++++++++++++++++++++++++++++++++++++++++++++++++++++++++++++++++++++++++++++++++++++++++++++++++++++++",
"................................................................................................................................................................",
"....@++++++++++++++++++++++++++++++++++++++++++++++++++++++#....+...............................................................................................",
".....++++++++++++++++++++++++++++++++++++++++++++++++++++++.....................................................................................................",
".....++++++++++++++++++++++++++++++++++++++++++++++++++++++.....................................................................................................",
".....++++++++++++++++++++++++++++++++++++++++++++++++++++++.....................................................................................................",
".....++++++++++++++++++++++++++++++++++++++++++++++++++++++.....................................................................................................",
".....++++++++++++++++++++++++++++++++++++++++++++++++++++++.....................................................................................................",
".....++++++++++++++++++++++++++++++++++++++++++++++++++++++.....................................................................................................",
".....++++++++++++++++++++++++++++++++++++++++++++++++++++++.....................................................................................................",
".....++++++++++++++++++++++++++++++++++++++++++++++++++++++.....................................................................................................",
".....++++++++++++++++++++++++++++++++++++++++++++++++++++++.....................................................................................................",
"................................................................................................................................................................",
"................................................................................................................................................................",
"................................................................................................................................................................",
"................................................................................................................................................................",
"................................................................................................................................................................",
"................................................................................................................................................................"};
