/* XPM */
static char * cmd_dup_xpm[] = {
"20 20 4 1",
" 	c None",
".	c #000000",
"+	c #FFFFFF",
"@	c #7B7D7B",
"                    ",
"                    ",
"       ......       ",
"      ..++++.       ",
"     .+.++++.@      ",
"    .++.++++....    ",
"   .....++++.++.@   ",
"   .++++++++.++.@   ",
"   .++++++++.++.@   ",
"   .++++++++.++.@   ",
"   .++++++++.++.@   ",
"   .++++++++.++.@   ",
"   .++++++++.++.@   ",
"   .++++++++.++.@   ",
"   ..........++.@   ",
"    @@.++++++++.@   ",
"      .++++++++.@   ",
"      ..........@   ",
"       @@@@@@@@@@   ",
"                    "};
