/* XPM */
static char * exclam_xpm[] = {
"64 64 65 1",
" 	c None",
".	c #020204",
"+	c #958204",
"@	c #C6C604",
"#	c #EAE604",
"$	c #4E4204",
"%	c #AAA604",
"&	c #E7C704",
"*	c #282204",
"=	c #CDB304",
"-	c #E8D604",
";	c #F5F504",
">	c #A89204",
",	c #6A6204",
"'	c #D8D504",
")	c #C1A504",
"!	c #383304",
"~	c #727204",
"{	c #EEEA04",
"]	c #FAD904",
"^	c #141204",
"/	c #D5BB04",
"(	c #A28E04",
"_	c #EDCE04",
":	c #E0C204",
"<	c #B19A04",
"[	c #3C3C04",
"}	c #B9A204",
"|	c #FEFD04",
"1	c #C5AB04",
"2	c #8C7904",
"3	c #FAE404",
"4	c #302C04",
"5	c #F2DE04",
"6	c #565204",
"7	c #7C6B04",
"8	c #6E5E04",
"9	c #201C04",
"0	c #DEDC04",
"a	c #DFCB04",
"b	c #937E04",
"c	c #FEEB04",
"d	c #0D0A04",
"e	c #8E8A04",
"f	c #DDBE04",
"g	c #F4D104",
"h	c #B79C04",
"i	c #CECE04",
"j	c #AAAA04",
"k	c #FADE04",
"l	c #8E7E04",
"m	c #BAAA04",
"n	c #F1D804",
"o	c #FEF304",
"p	c #E2D204",
"q	c #463E04",
"r	c #625204",
"s	c #9A8604",
"t	c #B2A204",
"u	c #EECA04",
"v	c #2E2604",
"w	c #D2B504",
"x	c #AE9604",
"y	c #726304",
"z	c #3E3604",
"                                                                ",
"                                                                ",
"                                                                ",
"                                                                ",
"                                                                ",
"                                                                ",
"                                                                ",
"                                                                ",
"                                                                ",
"                                                                ",
"                                                                ",
"                              0s                                ",
"                              ',                                ",
"                             #'}l                               ",
"                             {a/(4                              ",
"                            ;;'=}4                              ",
"                            |5-/mb*                             ",
"                           ||3na1hv                             ",
"                          ||35n_/1+y                            ",
"                          |co||#_=}s*                           ",
"                         |||@!..!>)<*                           ",
"                         |c|9....^}hb9                          ",
"                        ||cj......y1hv                          ",
"                        |c3j......8=1sy                         ",
"                       ||33|......>/=}+*                        ",
"                       |33]c......xuf1h*                        ",
"                      ||33536....!)g&=}b9                       ",
"                      |c3k]3~....$fguf1h4                       ",
"                     ||33]]k%....y:]g&w)+y                      ",
"                     |c3k]]]@....2_]gg:=}s*                     ",
"                    ||3k]]]]c....x_]]guf1<9                     ",
"                   ||33k]]]]c!..9)]]]]g&wh29                    ",
"                   |c33k]]]]c6..!w]]g]guf1>9                    ",
"                  ||33]]g]]]3e..r:]]]]gg&=h29                   ",
"                  |33k]]]]g]]%..y&]]]]]gu:1hv                   ",
"                 ||ckk]]]]]]]|..xg]]]]]]g&/)sy                  ",
"                 |335]]]]]]]]39^h]]g]]]]g_&=}+*                 ",
"                ||33]]g]]]g]]kh21]]]g]]]]guf1h*                 ",
"                |c3k]]]]g]]]||jtk]]]]]g]]ng&=}b9                ",
"               ||3k]]]]]]]]|j...9sg]]]]]]]guf1h4                ",
"               |c33]]]]]]]]|9....^w]]]]]g]gg&w)+y               ",
"              ||3k]]]g]]]]]c......h]]g]]]]]gu&=}s*              ",
"              |c3k]]]]]g]]]]8....q1]]]]]]]]]guf1h*              ",
"             |;35]]g]g]]]]]]_2!!y):]]]]g]]]]g_&=hb9             ",
"            ;;5nngggggggggg__ufwf&ggggggg_gg_u:/)xv             ",
"            {-aa&::ffffff:::ff::f:ffff::ffff:f/=}x28            ",
"           0'/=m1))))111)))1)))))))))1)1111))))hx(279           ",
"           im%<>(>((>(((((((>((>(((>>(((((((((((sb27^           ",
"          0[!*^...................................ddd.          ",
"                                                                ",
"                                                                ",
"                                                                ",
"                                                                ",
"                                                                ",
"                                                                ",
"                                                                ",
"                                                                ",
"                                                                ",
"                                                                ",
"                                                                ",
"                                                                ",
"                                                                ",
"                                                                ",
"                                                                "};
