/* XPM */
static char * info_xpm[] = {
"64 64 33 1",
" 	c None",
".	c #020208",
"+	c #8E8E91",
"@	c #56565B",
"#	c #3A3A3F",
"$	c #06025F",
"%	c #0A068F",
"&	c #1E1E25",
"*	c #040237",
"=	c #0A0A71",
"-	c #050250",
";	c #090677",
">	c #0E0EA9",
",	c #0A069C",
"'	c #E2E2E4",
")	c #09065F",
"!	c #060641",
"~	c #030223",
"{	c #C6C6C7",
"]	c #72727E",
"^	c #AAAAAD",
"/	c #FEFEFC",
"(	c #1E1E3C",
"_	c #0A0654",
":	c #0C0A80",
"<	c #0E0A8F",
"[	c #06064F",
"}	c #0D0A9D",
"|	c #56566A",
"1	c #3A3A54",
"2	c #040244",
"3	c #0A0684",
"4	c #09066C",
"                                                                ",
"                                                                ",
"                                                                ",
"                                                                ",
"                                                                ",
"                                                                ",
"                                                                ",
"                                                                ",
"                                                                ",
"                                                                ",
"                                                                ",
"                                                                ",
"                                                                ",
"            .......................................             ",
"            .}}}}}}}}}}}}}}}},,%333%%,,}}}}}}}}}}}.             ",
"            .>>>>>>>>>>>>>>>}}:;)));:}}}>>>>>>>>>>.             ",
"            .}>>>>>>>>>>>>>,,%)[*~*2$3,,>>>>>>>>}}.             ",
"            .>,>,>,>,>,>,>},<4!({/'|!)<,,>,>,>}>}>.             ",
"            .>}}>}>}>}>}>}},:-~'////(-:,,}>}>}>}}}.             ",
"            .}}}}}}}}}}}}},%;[|/////|!;%,}}}}}}}}}.             ",
"            .>><}<}}}<}}<}<342|/////12=%<}<}}<}>><.             ",
"            .<<<}<<<<<}<><%:;[~'///^~_;<%}<<}<<<<<.             ",
"            .<<}<<}<<<<<<<%3;[!(+^]~2);%<<<<<><<<<.             ",
"            .<<<<<<<<<<<:%3;;)-*~~*2);;3<<<<:<<:<:.             ",
"            .:<<:<<<<::<;;;4[[2**~*[);3:<:<<<:::<:.             ",
"            .:::::::::3;;$[-2~~~~~*-$;;::<=:3:::3;.             ",
"            .=::::=:::;;;[2~~&@^'/]!$;;:::::33:::;.             ",
"            .:==:=:::=3$[-]^'/////|*)$;=;3===:;=:=.             ",
"            .;;;;;;4;;;$)!////////&*[$;==;;:==;;=;.             ",
"            .=========$)$*~|+'////.~$$$;;==4;;==4=.             ",
"            .)4444444=$4$[~..^///^~*[44=)4===44=4).             ",
"            .44))4)=444$[-*~.////^.*-$44)=))_==)4).             ",
"            .=====)=)=)$$$*~&////@~*-$)=_4)4)))==).             ",
"            .____)))[)))[-*~@////#~!--=))_)=)))))[.             ",
"            ._)))[)))[))-2~.+////.~*--))))_)_)_))).             ",
"            .)___)[)[)[--2*.^///'.~2--____)___)[[[.             ",
"            .[[[[[[[)[[--*~.////^.~*--[[[[[[[[[_[[.             ",
"            .[[[[[[[[[--2~~&////]~~*-[[[[-[[[[_[--.             ",
"            .--[-[2[[[!-*~~@////@.**2[[[[[[[2-!_!-.             ",
"            .!!2!!!!2!!2*~.+////&~~***!!!22!!!2!!!.             ",
"            .!!!2!2!22*2*~.^////..~**2*2!!2!!!22!*.             ",
"            .***!*!*!!**~~./////..~~~*****!*2*!!*!.             ",
"            .!!*!*!*****~~./////&..~~~~***!!!**!**.             ",
"            .*~!~**~***~~../////{@@^+~~**~*~*~!**~.             ",
"            .~*~!~!~!~~*~~.'////////+~~~~**~!~~!~*.             ",
"            .*~~~!~~~*~~~~.@/////{+#.~~~~~~!~~~~!~.             ",
"            .~~~~~~~~~~~~~...@@#...~.~~~~~~~~~~~~~.             ",
"            .~~~~~~~~~~~~~~~......~.~~~~~~~~~~~~~~.             ",
"            .~~~~~~~~~~~.~.~.~.~.~.~.~~~~~~~~~~~.~.             ",
"            .~.~.~.~~.~.~~.~.~.~.~.~.~.~.~.~.~.~~..             ",
"            .......................................             ",
"                                                                ",
"                                                                ",
"                                                                ",
"                                                                ",
"                                                                ",
"                                                                ",
"                                                                ",
"                                                                ",
"                                                                ",
"                                                                ",
"                                                                ",
"                                                                ",
"                                                                "};
