/* XPM */
static char * question_xpm[] = {
"64 64 33 1",
" 	c None",
".	c #020204",
"+	c #41891C",
"@	c #1C4807",
"#	c #256812",
"$	c #6BC22C",
"%	c #889C80",
"&	c #4EA624",
"*	c #2D470C",
"=	c #516D44",
"-	c #618C40",
";	c #54B62A",
">	c #1E570D",
",	c #337817",
"'	c #0D3104",
")	c #093704",
"!	c #46981F",
"~	c #2F5713",
"{	c #BEC7BA",
"]	c #E7EAE6",
"^	c #76B32C",
"/	c #AAB6A3",
"(	c #AAC2A4",
"_	c #D1D9CE",
":	c #497A2A",
"<	c #FEFEFC",
"[	c #5E9A27",
"}	c #62A927",
"|	c #071E04",
"1	c #677A5C",
"2	c #65B82C",
"3	c #396819",
"4	c #203A05",
"                                                                ",
"                                                                ",
"                                                                ",
"                                                                ",
"                                                                ",
"                                                                ",
"                                                                ",
"                                                                ",
"                                                                ",
"                                                                ",
"                                                                ",
"                                                                ",
"                           ..........                           ",
"                        ...,,,333~>>@...                        ",
"                      ..+++-+::333#>>>@@..                      ",
"                    ..!![[[[-++:,33#>>@@@)..                    ",
"                   .![&[[[[[-+:::33#~>>@@@4).                   ",
"                  .[&}}}}}[[[-+,,33##~~~@*444.                  ",
"                 .&}};;;}}}[++:33#~~~~~~*@444).                 ",
"                .[}};;;&&[-+:,33~~>*>~~~~**444).                ",
"               .&&}^2;;;&+:333~**4444***~*@4444'.               ",
"              .!}}22;;;&+:3==-%%%1**44*****44'4)'.              ",
"              .[}}^2$2&[3~%{_{/_<<<_%*4****4444''.              ",
"             .!}}}^$$2}:3/]<1~*=/<<<<{~4***444'4''.             ",
"             .[[^^^$$^[:{<<<1*~>*<<<<<_*44*44'4'''.             ",
"            .+[[}^^$22--<<<<_~>*@{<<<<<%4**444|4'4'.            ",
"            .+[[^}^$$}[%<<<<<:#>@/<<<<</44*4444|4''.            ",
"            .-[[}}22$2&[<<<<<-#>@/<<<<</4**44|44444.            ",
"           .++[[}};;;2}[(<<<_,#>){<<<<<=4**4444|4'4'.           ",
"           .,+[[[&;;;;2&![}!,,#>@<<<<</44**444444444.           ",
"           .,,+!&&&;;;22}[!!+,#>%<<<<{****444444444).           ",
"           .,+++!!&&;;;;2;&!!,#3]<<]%~@>@**444444444.           ",
"           .#,++!!!&&&;;2}&&+,>%<</3**~>*@4'4444444'.           ",
"           .#,,++!!!&&&};;&!+,,<]1@>>>~>@*4'44444444.           ",
"           .##,,++!+!!!&&&&!+#%_,>>~>~~~@@44444444'4.           ",
"           .>##,,+++!!!!!!!!,#(%>>#>#>>**4'4444444'4.           ",
"           .>###,,++,+!!+!+,,#(#>>>~>~~@*44444444|4'.           ",
"           .>>###,,+,+,+++,,##:~>>#>~>@*@444444444''.           ",
"            .>>###,,,,,,,,,#>>@@@@>>@*@44@44444'|'|.            ",
"            .>>>######,,###>@=-1~4*@*@@444@4444'44'.            ",
"            .@@>>>#######>>@%]]<_=444444@4)44''|'|'.            ",
"             .@@@@>>>>>>>>@3<<<<<]')4444444''4'4''.             ",
"             .)@@@@@>@>>@@)=<<<<<]|'4)4))4)4''''|'.             ",
"              .)))@)@@@@@@)4_<<<<%|''44)4))''''').              ",
"              .))))))))))))'4%{{1'|4')4)))))')'''.              ",
"               .)'')))))))'|||||||'''))))))))))).               ",
"                .)''''))'''''|||'|''''')')')))).                ",
"                 .'''''''''''''''''''')))))')).                 ",
"                  .''''))''''''''''')'')))))'.                  ",
"                   .)''''))))''''''''))))))).                   ",
"                    ..')')'))''''''''')'))..                    ",
"                      ..)))')')'''')))))..                      ",
"                        ...))')''''''...                        ",
"                           ..........                           ",
"                                                                ",
"                                                                ",
"                                                                ",
"                                                                ",
"                                                                ",
"                                                                ",
"                                                                ",
"                                                                ",
"                                                                ",
"                                                                "};
