/* XPM */
static char * charset_xpm[] = {
"590 14 4 1",
" 	c None",
".	c #202020 s back_colour",
"+	c #188A86 s semi_colour",
"@	c #20B2AE s led_colour",
".........+....@.@..........+.........+@@+.........+@....@+.......................................+@@@+...+...+@@@+.+@@@+.+...+.+@@@+.+@@@+.+@@@+.+@@@+.+@@@+................@.........@....+@@@+.+@@@+.+@@@+.+@@@...@@@+.+@@@..+@@@+.+@@@+.+@@@+.+...+...+.......+.+...+.+.....@...@.@...+.+@@@+.+@@@+.+@@@+.+@@@+.+@@@+.+@@@+.+...+.+...+.+...+.+...+.+...+.+@@@+..@@+.........+@@....@.....................+...............+........+@@+.......+.................+.......+...............................................+.........................................++.........++............................",
".........@....+.+...+.+..+@@@+....@..@..@....@....@......@...+.+.+...+........................@..@...@...@.......@.....@.@...@.@.....@.........@.@...@.@...@...@...........@...........@...@...@.@...@.@...@.@...@.@.....@...@.@.....@.....@.....@...@...@.......@.@...@.@.....@@.@@.@@..@.@...@.@...@.@...@.@...@.@.......@...@...@.@...@.@...@.@...@.@...@.....@..@.....@.......@...@.@..........@.........@...............@........@..@.......@.......@......@..@.......@...............................................@.........................................@.....@.....@............................",
".........@.........+@@@+.@.@...@..@..@..@....+....@......@....@@@....@........................@..@...@...@.......@.....@.@...@.@.....@.........@.@...@.@...@...@.....@....@.............@......@.@.+.@.@...@.@...@.@.....@...@.@.....@.....@.....@...@...@.......@.@...@.@.....@.@.@.@.@.@.@...@.@...@.@...@.@...@.@.......@...@...@.@...@.@...@..@.@..@...@....@...@.....@.......@................+...+@@@+.@...............@.+@@@+..@....+@@@@.@.................@..@+...@.....................@@@@+.+@@@@.@+@@+.+@@@+.+@@@+...................+...+.+...+.+@@@+...@.....@.....@.....@.@....................",
".........@..........@.@..+@@@+...@...@@@..........@......@.....@...+@@@+.......+@@@+.........@...@...@...@...+@@@+..@@@+.+@@@@.+@@@+.@@@@+.....@.+@@@+.+@@@@.........@...@...............@....@..@.@.@.@@@@@.@@@@..@.....@...@.@@@@..@@@@..@.+@+.@@@@@...@.......@.@@@@..@.....@...@.@.@.@.@...@.@@@@+.@@..@.@@@@..+@@@+...@...@...@.@...@.@...@...@...+@@@+...@....@......@......@........................@.@@@@+.@@@@+.+@@@@.@...@.@@@...@...@.@@@@+...+......+..@.@.....@...@@+@+.@@@@+.+@@@+.@...@.@...@.@...+.@.......@...+...+.+...+.+...+..@.@..@...@....@...@......@......@...@.@.....................",
".........@.........+@@@+...@.@...@...@+@.@........@......@....@@@....@.......................@...@...@...@...@.........@.....@.....@.@...@.....@.@...@.....@...@..........@.............@....@...@.+@@.@...@.@...@.@.....@...@.@.....@.....@...@.@...@...@...+...@.@...@.@.....@...@.@..+@.@...@.@.....@.@.@.@...@.....@...@...@...@.@...@.@.@.@..@.@....@....@.....@......@......@....................+@@@@.@...@.@.....@...@.@@@@+..@....+@@@@.@...@...@......@..@@......@...@.@.@.@...@.@...@.@@@@+.+@@@@.@.....+@@@+...@...@...@.@...@.@.+.@...@...+@@@@...@.....@.....@.....@............................",
"....................+.+..+@@@+..@..@.@..@.........@......@...+.+.+...+.....@................@....@...@...@...@.........@.....@.....@.@...@.....@.@...@.....@...@.....@.....@...........@.........@.....@...@.@...@.@.....@...@.@.....@.....@...@.@...@...@...@...@.@...@.@.....@...@.@..@@.@...@.@.....@..@@.@...@.....@...@...@...@.@...@.@@.@@.@...@...@...@......@.......@.....@....................@...@.@...@.@.....@...@.@......@........@.@...@...@....@.@..@.@.....@...@.@.@.@...@.@...@.@.........@.@.........@...@...@...@..@.@..@.@.@..@.@......@..@......@.....@.....@............................",
".........@.................+....@....+@@+@........+@....@+.................+...........@....@....+@@@+...+...+@@@+.+@@@+.....+.+@@@+.+@@@+.....+.+@@@+.+@@@+.........+......@.........@......@...+@@@+.+...+.+@@@...@@@+.+@@@..+@@@+.+.....+@@@+.+...+...+...+@@@+.+...+.+@@@+.+...+.+...@.+@@@+.+.....+@@@+.+...+.+@@@+...+...+@@@@..@@@..+...+.+...+...@...+@@@+..@@+.....@...+@@........@@@@@.......+@@@+.@@@@+.@@@@+.+@@@@.+@@@+..@....+@@@+.+...+...+....+@+..+..@+...+...+.+.+.+...+.+@@@+.+.........@.+.....+@@@+...+...+@@@@...@...+@+@+.+...+.+@@@+.+@@@+...++....@....++............................",
".........@............@........+...+...@.....@.........+@@@+..@@+....................+@@@+.+@@@+..+@+.........+@+...+@+..............+@@@@...............@....+@+........@.....@.......@....@@.....@@....@....@.+...@.@....@...+@@@+.+@@@+..@@.....@@....@....@.@...@@.....@@....@....@.@...@@@+..@.+...@@.....@@....@....@.+...@.@........+@@@+..@@.....@@....@....@.@....@@..+.....@@@@+..@@.....@@....@....@.+...@.@....@................@@.....@@....@....@.@...@@.....@@....@.........+.+....@.+...@@.....@@....@....@.+.....................@@.....@@....@...........@@.........@.@.....................",
"...............+.....@.@.@...@.@...@...@....@.....@.@..@...@..+@@....@.@.............@...@........@.@....@......@.....@.....@........@@@.@...............@....+@+..@.@...@...+.@...+.........+.....+....+.+..+.@...............@.@...@.......+.....+....+.+..........+.....+....+.+.........@..@.+.@.....+.....+....+.+..+.@.........+...+.@..+@...+.....+....+.+..........+...@.....@...@...+.....+....+.+..+.@.............................+.....+....+.+..........+.....+....+.+...@.@...@@...+.@.....+.....+....+.+..+.@....@.@....@...........+.....+....+.+...@.@....+..................................",
".........@...+@@@+...@....@@@..@...@...@....+@+........@.@+@..+@@...@.@..@@@@@.......@@@@@........+@+...@@@....@.....@+....@...+...+.@@@.@...............@..........@.@..@..@..@..@....@...+@@@+.+@@@+.+@@@+.+@@@+.+@@@+.+@@@+.@.@...@.....@@@@+.@@@@+.@@@@+.@@@@+...+.....+.....+.....+....@..@.@...+.+@@@+.+@@@+.+@@@+.+@@@+.+@@@+..@.@..@..@@.+...+.+...+.+...+.+...+.@...@.@@@@+.@@@@+.+@@@+.+@@@+.+@@@+.+@@@+.+@@@+.+@@@+.+@+@+.+@@@+.+@@@+.+@@@+.+@@@+.+@@@+.........................+..@..........................................................................+...+.+.....+...+....................",
".........@...@.@....@@@...@.@..+@@@+........@.@........@@..@..@@@..@.@.......@..@@@..@@@+@...............@....@@@...+@@........@...@.@@@.@...@................@@@....@.@...@.....@....@....@...@.@...@.@...@.@...@.@...@.@...@.@@@@+.@.....@.....@.....@.....@.......@.....@.....@.....@...+@+.@.@@..@.@...@.@...@.@...@.@...@.@...@...@...@.@.@.@...@.@...@.@...@.@...@.@...@.@...@.@...@.....@.....@.....@.....@.....@.....@...@.@.@.....@...@.@...@.@...@.@...@...+.....+.....+.....+...+@@@+.@@@@+.+@@@+.+@@@+.+@@@+.+@@@+.+@@@+.+@@@+.+@@@+.+...+.+...+.+...+.+...+.@...@.@@@@+.@...@....................",
".........@...@.@.....@....@@@....@.....@....+@+........@.@+@........@.@..............@@.@@.....................................@...@.+@@@@..........................@.@...@..@..@.@@.@.....@@@@@.@@@@@.@@@@@.@@@@@.@@@@@.@@@@@.@.@...+@@@+.@@@+..@@@+..@@@+..@@@+....@.....@.....@.....@....@..@.@.@.@.@...@.@...@.@...@.@...@.@...@..@.@..@@..@.@...@.@...@.@...@.@...@.+@@@+.@@@@+.@...@.+@@@@.+@@@@.+@@@@.+@@@@.+@@@@.+@@@@.+@@@+.+@@@+.@@@@+.+@@@+.+@@@+.+@@@+...@.....@.....@.....@...@...@.@...@.@...@.@...@.@...@.@...@.@...@.......@.+@@.@...@.@...@.@...@.@...@.+@@@@.@...@.+@@@@....................",
".........@...+@@@+...@...@...@..@@@....@......@........@...@.........@.@.............@...@..............@@@....................@@@@+...@.@..........@..............@.@...+..@@.+..++.@...@.@...@.@...@.@...@.@...@.@...@.@...@.@.@......@..@.....@.....@.....@.......@.....@.....@.....@....@..@.@..@@.@...@.@...@.@...@.@...@.@...@.+...+.@+..@.@...@.@...@.@...@.@...@...@...@.....@@@@+.@...@.@...@.@...@.@...@.@...@.@...@.@.@......@..@.....@.....@.....@.......@.....@.....@.....@...@...@.@...@.@...@.@...@.@...@.@...@.@...@...@...@@+.@.@...@.@...@.@...@.@...@.....@.@@@@+.....@....................",
".........+.....+...+@+@+.........@.....@.....@.........+@@@+.........................+@@@+.....................................@.......+.+.........@@........................@....@@.+@@@+.+...+.+...+.+...+.+...+.+...+.+...+.+.@@+...+...@@@@+.@@@@+.@@@@+.@@@@+...+.....+.....+.....+....@@@+.+...@.+@@@+.+@@@+.+@@@+.+@@@+.+@@@+.......+@@@+.+@@@+.+@@@+.+@@@+.+@@@+...+...+.....+.....+@@@+.+@@@+.+@@@+.+@@@+.+@@@+.+@@@+.+@+@+...+...+@@@+.+@@@+.+@@@+.+@@@+...+.....+.....+.....+...+@@@+.+...+.+@@@+.+@@@+.+@@@+.+@@@+.+@@@+.......+@@@+.+@@@@.+@@@@.+@@@@.+@@@@.+@@@+.+.....+@@@+...................."};
