/* XPM */
static char * wmmp3_xpm[] = {
"128 128 7 1",
" 	c None",
".	c #000000",
"+	c #202020",
"@	c #C7C7C7",
"#	c #FFFFFF",
"$	c #86828E",
"%	c #AEAAAE",
"                                                                                                                                ",
"                                                                                                                                ",
"                                                                                                                                ",
"                                                                                                                                ",
"     ...........+...........................................                                                                    ",
"     .+++++++++++++++++++++++++++++++++++++++++++++++++++++@                                                                    ",
"     .+++++++++++++++++++++++++++++++++++++++++++++++++++++@                                                                    ",
"     .+++++++++++++++++++++++++++++++++++++++++++++++++++++@                                                                    ",
"     .+++++++++++++++++++++++++++++++++++++++++++++++++++++@                                                                    ",
"     .+++++++++++++++++++++++++++++++++++++++++++++++++++++@                                                                    ",
"     .+++++++++++++++++++++++++++++++++++++++++++++++++++++@                                                                    ",
"     .+++++++++++++++++++++++++++++++++++++++++++++++++++++@                                                                    ",
"     .+++++++++++++++++++++++++++++++++++++++++++++++++++++@                                                                    ",
"     .+++++++++++++++++++++++++++++++++++++++++++++++++++++@                                                                    ",
"     .+++++++++++++++++++++++++++++++++++++++++++++++++++++@                                                                    ",
"     @@@@@@@@@@@@@@@@@@@@@@@@@@@@@@@@@@@@@@@@@@@@@@@@@@@@@@@                                                                    ",
"                                                                                                                                ",
"                                                                                                                                ",
"     .......................................................                                                                    ",
"     ......................................................@                                                                    ",
"     ......................................................@                                                                    ",
"     ......................................................@                                                                    ",
"     ......................................................@                                                                    ",
"     ......................................................@                                                                    ",
"     ......................................................@                                                                    ",
"     ......................................................@                                                                    ",
"     ......................................................@                                                                    ",
"     ......................................................@                                                                    ",
"     ......................................................@                                                                    ",
"     @@@@@@@@@@@@@@@@@@@@@@@@@@@@@@@@@@@@@@@@@@@@@@@@@@@@@@@                                                                    ",
"                                                                                                                                ",
"                                                                                                                                ",
"                                                                                                                                ",
"     .........................@   .........................@                                                                    ",
"     .###########$###########$@   .###########$###########$@                                                                    ",
"     .#%%%%%%%%%%.#%%%%%%%%%%.@   .#%%%%%%%%%%.#%%%%%%%%%%.@                                                                    ",
"     .#%%%%%%%%%%.#%%....%%%%.@   .#%%......%%.#%%%.%%%%%%.@                                                                    ",
"     .#%%%%..%%%%.#%%.%%%.%%%.@   .#%%......%%.#%%%..%%%%%.@                                                                    ",
"     .#%%%....%%%.#%%.%%%.%%%.@   .#%%......%%.#%%%...%%%%.@                                                                    ",
"     .#%%..%%..%%.#%%....%%%%.@   .#%%......%%.#%%%....%%%.@                                                                    ",
"     .#%..%%%%..%.#%%.%.%%%%%.@   .#%%......%%.#%%%...%%%%.@                                                                    ",
"     .#%%%%%%%%%%.#%%.%%.%%%%.@   .#%%......%%.#%%%..%%%%%.@                                                                    ",
"     .#%%%%%%%%%%.#%%.%%%.%%%.@   .#%%......%%.#%%%.%%%%%%.@                                                                    ",
"     .#%%%%%%%%%%.#%%%%%%%%%%.@   .#%%%%%%%%%%.#%%%%%%%%%%.@                                                                    ",
"     .$...........$...........@   .$...........$...........@                                                                    ",
"     .###########$###########$@   .###########$###########$@                                                                    ",
"     .#%%%%%%%%%%.#%%%%%%%%%%.@   .#%%%%%%%%%%.#%%%%%%%%%%.@                                                                    ",
"     .#%%%%%%%%%%.#%%%%%%%%%%.@   .#%%.%%%.%%%.#%%%.%%%.%%.@                                                                    ",
"     .#%%%%%%%%%%.#%%..%%..%%.@   .#%%.%%..%%%.#%%%..%%.%%.@                                                                    ",
"     .#%..%%%%..%.#%.%%$.%%.%.@   .#%%.%..%%%%.#%%%%..%.%%.@                                                                    ",
"     .#%%..%%..%%.#%.%%.$%%.%.@   .#%%...%%%%%.#%%%%%...%%.@                                                                    ",
"     .#%%%....%%%.#%%..%%..%%.@   .#%%.%..%%%%.#%%%%..%.%%.@                                                                    ",
"     .#%%%%..%%%%.#%%%%%%%%%%.@   .#%%.%%..%%%.#%%%..%%.%%.@                                                                    ",
"     .#%%%%%%%%%%.#%%%%%%%%%%.@   .#%%.%%%.%%%.#%%%.%%%.%%.@                                                                    ",
"     .#%%%%%%%%%%.#%%%%%%%%%%.@   .#%%%%%%%%%%.#%%%%%%%%%%.@                                                                    ",
"     .$...........$...........@   .$...........$...........@                                                                    ",
"     @@@@@@@@@@@@@@@@@@@@@@@@@@   @@@@@@@@@@@@@@@@@@@@@@@@@@                                                                    ",
"                                                                                                                                ",
"                                                                                                                                ",
"                                                                                                                                ",
"                                                                                                                                ",
"                                                                                                                                ",
"                                                                                                                                ",
"                                                                                                                                ",
"                                                                                                                                ",
"                                                                                                                                ",
"                                                                                                                                ",
"                                                                                                                                ",
"                                                                                                                                ",
"     .........................@   .........................@     .........................@   .........................@        ",
"     .###########$###########$@   .###########$###########$@     .###########$###########$@   .###########$###########$@        ",
"     .#%%%%%%%%%%.#%%%%%%%%%%.@   .#%%%%%%%%%%.#%%%%%%%%%%.@     .#%%%%%%%%%%.#%%%%%%%%%%.@   .#%%%%%%%%%%.#%%%%%%%%%%.@        ",
"     .#%%%%%%%%%%.#%%....%%%%.@   .#%%......%%.#%%%.%%%%%%.@     .#%%%%%%%%%%.#%%$$$$%%%%.@   .#%%$$$$$$%%.#%%%$%%%%%%.@        ",
"     .#%%%%..%%%%.#%%.%%%.%%%.@   .#%%......%%.#%%%..%%%%%.@     .#%%%%$$%%%%.#%%$%%%$%%%.@   .#%%$$$$$$%%.#%%%$$%%%%%.@        ",
"     .#%%%....%%%.#%%.%%%.%%%.@   .#%%......%%.#%%%...%%%%.@     .#%%%$$$$%%%.#%%$%%%$%%%.@   .#%%$$$$$$%%.#%%%$$$%%%%.@        ",
"     .#%%..%%..%%.#%%....%%%%.@   .#%%......%%.#%%%....%%%.@     .#%%$$%%$$%%.#%%$$$$%%%%.@   .#%%$$$$$$%%.#%%%$$$$%%%.@        ",
"     .#%..%%%%..%.#%%.%.%%%%%.@   .#%%......%%.#%%%...%%%%.@     .#%$$%%%%$$%.#%%$%$%%%%%.@   .#%%$$$$$$%%.#%%%$$$%%%%.@        ",
"     .#%%%%%%%%%%.#%%.%%.%%%%.@   .#%%......%%.#%%%..%%%%%.@     .#%%%%%%%%%%.#%%$%%$%%%%.@   .#%%$$$$$$%%.#%%%$$%%%%%.@        ",
"     .#%%%%%%%%%%.#%%.%%%.%%%.@   .#%%......%%.#%%%.%%%%%%.@     .#%%%%%%%%%%.#%%$%%%$%%%.@   .#%%$$$$$$%%.#%%%$%%%%%%.@        ",
"     .#%%%%%%%%%%.#%%%%%%%%%%.@   .#%%%%%%%%%%.#%%%%%%%%%%.@     .#%%%%%%%%%%.#%%%%%%%%%%.@   .#%%%%%%%%%%.#%%%%%%%%%%.@        ",
"     .$...........$...........@   .$...........$...........@     .$...........$...........@   .$...........$...........@        ",
"     .###########$###########$@   .###########$###########$@     .###########$###########$@   .###########$###########$@        ",
"     .#%%%%%%%%%%.#%%%%%%%%%%.@   .#%%%%%%%%%%.#%%%%%%%%%%.@     .#%%%%%%%%%%.#%%%%%%%%%%.@   .#%%%%%%%%%%.#%%%%%%%%%%.@        ",
"     .#%%%%%%%%%%.#%%%%%%%%%%.@   .#%%.%%%.%%%.#%%%.%%%.%%.@     .#%%%%%%%%%%.#%%%%%%%%%%.@   .#%%$%%%$%%%.#%%%$%%%$%%.@        ",
"     .#%%%%%%%%%%.#%%..%%..%%.@   .#%%.%%..%%%.#%%%..%%.%%.@     .#%%%%%%%%%%.#%%$$%%$$%%.@   .#%%$%%$$%%%.#%%%$$%%$%%.@        ",
"     .#%..%%%%..%.#%.%%$.%%.%.@   .#%%.%..%%%%.#%%%%..%.%%.@     .#%$$%%%%$$%.#%$%%$$%%$%.@   .#%%$%$$%%%%.#%%%%$$%$%%.@        ",
"     .#%%..%%..%%.#%.%%.$%%.%.@   .#%%...%%%%%.#%%%%%...%%.@     .#%%$$%%$$%%.#%$%%$$%%$%.@   .#%%$$$%%%%%.#%%%%%$$$%%.@        ",
"     .#%%%....%%%.#%%..%%..%%.@   .#%%.%..%%%%.#%%%%..%.%%.@     .#%%%$$$$%%%.#%%$$%%$$%%.@   .#%%$%$$%%%%.#%%%%$$%$%%.@        ",
"     .#%%%%..%%%%.#%%%%%%%%%%.@   .#%%.%%..%%%.#%%%..%%.%%.@     .#%%%%$$%%%%.#%%%%%%%%%%.@   .#%%$%%$$%%%.#%%%$$%%$%%.@        ",
"     .#%%%%%%%%%%.#%%%%%%%%%%.@   .#%%.%%%.%%%.#%%%.%%%.%%.@     .#%%%%%%%%%%.#%%%%%%%%%%.@   .#%%$%%%$%%%.#%%%$%%%$%%.@        ",
"     .#%%%%%%%%%%.#%%%%%%%%%%.@   .#%%%%%%%%%%.#%%%%%%%%%%.@     .#%%%%%%%%%%.#%%%%%%%%%%.@   .#%%%%%%%%%%.#%%%%%%%%%%.@        ",
"     .$...........$...........@   .$...........$...........@     .$...........$...........@   .$...........$...........@        ",
"     @@@@@@@@@@@@@@@@@@@@@@@@@@   @@@@@@@@@@@@@@@@@@@@@@@@@@     @@@@@@@@@@@@@@@@@@@@@@@@@@   @@@@@@@@@@@@@@@@@@@@@@@@@@        ",
"                                                                                                                                ",
"                                                                                                                                ",
"                                                                                                                                ",
"     .........................@   .........................@                                                                    ",
"     ............$...........$@   ............$...........$@                                                                    ",
"     ..%%%%%%%%%%#.%%%%%%%%%%#@   ..%%%%%%%%%%#.%%%%%%%%%%#@                                                                    ",
"     ..%%%%%%%%%%#.%%....%%%%#@   ..%%......%%#.%%%.%%%%%%#@                                                                    ",
"     ..%%%%..%%%%#.%%.%%%.%%%#@   ..%%......%%#.%%%..%%%%%#@                                                                    ",
"     ..%%%....%%%#.%%.%%%.%%%#@   ..%%......%%#.%%%...%%%%#@                                                                    ",
"     ..%%..%%..%%#.%%....%%%%#@   ..%%......%%#.%%%....%%%#@                                                                    ",
"     ..%..%%%%..%#.%%.%.%%%%%#@   ..%%......%%#.%%%...%%%%#@                                                                    ",
"     ..%%%%%%%%%%#.%%.%%.%%%%#@   ..%%......%%#.%%%..%%%%%#@                                                                    ",
"     ..%%%%%%%%%%#.%%.%%%.%%%#@   ..%%......%%#.%%%.%%%%%%#@                                                                    ",
"     ..%%%%%%%%%%#.%%%%%%%%%%#@   ..%%%%%%%%%%#.%%%%%%%%%%#@                                                                    ",
"     .$###########$###########@   .$###########$###########@                                                                    ",
"     ............$...........$@   ............$...........$@                                                                    ",
"     ..%%%%%%%%%%#.%%%%%%%%%%#@   ..%%%%%%%%%%#.%%%%%%%%%%#@                                                                    ",
"     ..%%%%%%%%%%#.%%%%%%%%%%#@   ..%%.%%%.%%%#.%%%.%%%.%%#@                                                                    ",
"     ..%%%%%%%%%%#.%%..%%..%%#@   ..%%.%%..%%%#.%%%..%%.%%#@                                                                    ",
"     ..%..%%%%..%#.%.%%$.%%.%#@   ..%%.%..%%%%#.%%%%..%.%%#@                                                                    ",
"     ..%%..%%..%%#.%.%%.$%%.%#@   ..%%...%%%%%#.%%%%%...%%#@                                                                    ",
"     ..%%%....%%%#.%%..%%..%%#@   ..%%.%..%%%%#.%%%%..%.%%#@                                                                    ",
"     ..%%%%..%%%%#.%%%%%%%%%%#@   ..%%.%%..%%%#.%%%..%%.%%#@                                                                    ",
"     ..%%%%%%%%%%#.%%%%%%%%%%#@   ..%%.%%%.%%%#.%%%.%%%.%%#@                                                                    ",
"     ..%%%%%%%%%%#.%%%%%%%%%%#@   ..%%%%%%%%%%#.%%%%%%%%%%#@                                                                    ",
"     .$###########$###########@   .$###########$###########@                                                                    ",
"     @@@@@@@@@@@@@@@@@@@@@@@@@@   @@@@@@@@@@@@@@@@@@@@@@@@@@                                                                    ",
"                                                                                                                                ",
"                                                                                                                                ",
"                                                                                                                                ",
"                                                                                                                                ",
"                                                                                                                                ",
"                                                                                                                                ",
"                                                                                                                                ",
"                                                                                                                                "};
