/* XPM */
static char * wmressel_master_xpm[] = {
"160 100 64 1",
" 	c None",
".	c #0000FF",
"+	c #202020",
"@	c #C7C3C7",
"#	c #DFEBDF",
"$	c #EFEBEF",
"%	c #DFEBEF",
"&	c #EFDBEF",
"*	c #DFDBDF",
"=	c #CFDBDF",
"-	c #D7D3D7",
";	c #CFCBCF",
">	c #BEC3C7",
",	c #9EAAAE",
"'	c #514161",
")	c #F7F3F7",
"!	c #EFEBFF",
"~	c #8E698E",
"{	c #302830",
"]	c #CFBACF",
"^	c #717D79",
"/	c #202030",
"(	c #716171",
"_	c #AEAAAE",
":	c #616586",
"<	c #201030",
"[	c #AEBABE",
"}	c #BEBABE",
"|	c #616171",
"1	c #101020",
"2	c #BEAABE",
"3	c #AEBAAE",
"4	c #AEAABE",
"5	c #080810",
"6	c #AE9AAE",
"7	c #515161",
"8	c #9EAA9E",
"9	c #9E9AAE",
"0	c #9E929E",
"a	c #8E929E",
"b	c #495971",
"c	c #96928E",
"d	c #000000",
"e	c #8E8A8E",
"f	c #385D38",
"g	c #718A8E",
"h	c #414141",
"i	c #BEAAAE",
"j	c #38FB30",
"k	c #414161",
"l	c #413051",
"m	c #413041",
"n	c #302041",
"o	c #303051",
"p	c #696961",
"q	c #616161",
"r	c #20B2AE",
"s	c #004941",
"t	c #007D71",
"u	c #B60418",
"v	c #00EB00",
"w	c #283C38",
"x	c #F7F3FF",
"y	c #71E371",
"................................................................+...............................................................................................",
"................................................................+...............................................................................................",
"................................................................+...............................................................................................",
"................................................................+...............................................................................................",
"....++++++++++++++++++++++++++++++++++++++++++++++++++++++++....+...............................................................................................",
"....+++++++++++++++++++++++++++++++++++++++++++++++++++++++@....+...............................................................................................",
"....+++++++++++++++++++++++++++++++++++++++++++++++++++++++@....+...............................................................................................",
"....+++++++++++++++++++++++++++++++++++++++++++++++++++++++@....+...............................................................................................",
"....+++++++++++++++++++++++++++++++++++++++++++++++++++++++@....+...............................................................................................",
"....+++++#$$$%$$$%$$$%$$$%$$$%$$$%$$$#&#***=*---;;;>-,'++++@....+...............................................................................................",
"....+++++)%$%!%$%!%$%!%$%!%$%!%$%!%$%%%%#*#*===;-;-;>~{++++@....+...............................................................................................",
"....+++++)$%$$$%$$$%$$$%$$$%$$$%$$$%&#*#***---;-;;;>]^/++++@....+...............................................................................................",
"....+++++)%!%$%!%$%!%$%!%$%!%$%!%$%%%%#*#*===;-;>;>>>(+++++@....+...........+++++++++++++++++++++++++++++++++++.................................................",
"....+++++)$$$%+++++++++++++++++++++++++++++++++++_]>>:<++++@....+...........+++++++++++++++++++++++++++++++++++.................................................",
"....+++++)%$%!+++++++++++++++++++++++++++++++++++)>>[(+++++@....+...........+++++++++++++++++++++++++++++++++++.................................................",
"....+++++)$%$$+++++++++++++++++++++++++++++++++++)}}}|1++++@....+...........+++++++++++++++++++++++++++++++++++.................................................",
"....+++++)%!%$+++++++++++++++++++++++++++++++++++)[>[(1++++@....+...........+++++++++++++++++++++++++++++++++++.................................................",
"....+++++)$$$%+++++++++++++++++++++++++++++++++++)}[2|1++++@....+...........+++++++++++++++++++++++++++++++++++.................................................",
"....+++++)%$%!+++++++++++++++++++++++++++++++++++)[}3:1++++@....+...........+++++++++++++++++++++++++++++++++++.................................................",
"....+++++)$%$$+++++++++++++++++++++++++++++++++++)}32|1++++@....+...........+++++++++++++++++++++++++++++++++++.................................................",
"....+++++)%!%$+++++++++++++++++++++++++++++++++++)343:1++++@....+...........+++++++++++++++++++++++++++++++++++.................................................",
"....+++++)$$$%+++++++++++++++++++++++++++++++++++)2__|1++++@....+...........+++++++++++++++++++++++++++++++++++.................................................",
"....+++++)%$%!+++++++++++++++++++++++++++++++++++)34,:1++++@....+...........+++++++++++++++++++++++++++++++++++.................................................",
"....+++++)$%$$+++++++++++++++++++++++++++++++++++)___|1++++@....+...........+++++++++++++++++++++++++++++++++++.................................................",
"....+++++)%!%$+++++++++++++++++++++++++++++++++++),4,:5++++@....+...........+++++++++++++++++++++++++++++++++++.................................................",
"....+++++)$$$%+++++++++++++++++++++++++++++++++++)_,671++++@....+...........+++++++++++++++++++++++++++++++++++.................................................",
"....+++++)%$%!+++++++++++++++++++++++++++++++++++),_8:5++++@....+...........+++++++++++++++++++++++++++++++++++.................................................",
"....+++++)%$%!+++++++++++++++++++++++++++++++++++),_8:5++++@....+...........+++++++++++++++++++++++++++++++++++.................................................",
"....+++++)$$$%+++++++++++++++++++++++++++++++++++)_,671++++@....+...........+++++++++++++++++++++++++++++++++++.................................................",
"....+++++)%$%!+++++++++++++++++++++++++++++++++++),_8:5++++@....+...........+++++++++++++++++++++++++++++++++++.................................................",
"....+++++)$%$$+++++++++++++++++++++++++++++++++++)68671++++@....+...........+++++++++++++++++++++++++++++++++++.................................................",
"....+++++)%!%$+++++++++++++++++++++++++++++++++++),98:5++++@....+...........+++++++++++++++++++++++++++++++++++.................................................",
"....+++++)$$$%+++++++++++++++++++++++++++++++++++)60975++++@....+...........+++++++++++++++++++++++++++++++++++.................................................",
"....+++++)%$%!+++++++++++++++++++++++++++++++++++)89ab5++++@....+...........+++++++++++++++++++++++++++++++++++.................................................",
"....+++++)$%$$+++++++++++++++++++++++++++++++++++)00075++++@....+...........+++++++++++++++++++++++++++++++++++.................................................",
"....+++++)%!%$+++++++++++++++++++++++++++++++++++)a0ab5++++@....+...........+++++++++++++++++++++++++++++++++++.................................................",
"....+++++)$$$#+++++++++++++++++++++++++++++++++++)0a075++++@....+...........+++++++++++++++++++++++++++++++++++.................................................",
"....+++++)%$%%+++++++++++++++++++++++++++++++++++)a0c75++++@....+...........+++++++++++++++++++++++++++++++++++.................................................",
"....+++++)$#&#+++++++++++++++++++++++++++++++++++)0cc75++++@....+...........+++++++++++++++++++++++++++++++++++.................................................",
"....+++++)%%%*+++++++++++++++++++++++++++++++++++)cac'd++++@....+...........+++++++++++++++++++++++++++++++++++.................................................",
"....+++++)&#**+++++++++++++++++++++++++++++++++++)0eef5++++@....+...........+++++++++++++++++++++++++++++++++++.................................................",
"....+++++)#*#*+++++++++++++++++++++++++++++++++++)ceg'd++++@....+...............................................................................................",
"....+++++)*#**_)))))))))))))))))))))))))))))))))))ee~hd++++@....+...............................................................................................",
"....+++++)=*=*=;=;>;>;>>>>[}[23434_4,_,989a0a0dddegeg'd++++@....+...............................................................................................",
"....+++++)*=*---;;;>]>]}}}2[23i_____6860900a0cdjj}~^~hd++++@....+...............................................................................................",
"....+++++)=*=;-;-;>;>>>>[}[[343_,_,_8989a0a0cac}[>g~^kd++++@....+...............................................................................................",
"....+++++)_^(^(^(((|(|(|(|:|:|:7:7:7:7b7'7'f'f'h'h'hlhd++++@....+...............................................................................................",
"....+++++^ddddddddddddddddddddddddddddddddddddddddddddd++++@....+...............................................................................................",
"....+++++++++++++++)|hfhf{>[6a~|7hm{/+1+n{mom++++++++++++++@....+...............................................................................................",
"....++++++++++++++)_p|p|p7o|g~g|7hoo1</of|p:|/+++++++++++++@....+...............................................................................................",
"....+++++++++++++)*^~ee^~e~qqhlomomolf7^~eecc|{++++++++++++@....+...............................................................................................",
"....++++++++++++))898989,689,_,_,_,_,_,4,_,43_|/+++++++++++@....+...............................................................................................",
"....+++++++++++))))))))))))))))))))))))))))))))|{++++++++++@....+...............................................................................................",
"....+++++++++++)________________________________d++++++++++@....+...............................................................................................",
"....+++++++++++)________________________________d++++++++++@....+...............................................................................................",
"....+++++++++++:dddddddddddddddddddddddddddddddd/++++++++++@....+...............................................................................................",
"....+++++++++++++++++++++++++++++++++++++++++++++++++++++++@....+...............................................................................................",
"....+++++++++++++++++++++++++++++++++++++++++++++++++++++++@....+...............................................................................................",
"....+++++++++++++++++++++++++++++++++++++++++++++++++++++++@....+...............................................................................................",
"....@@@@@@@@@@@@@@@@@@@@@@@@@@@@@@@@@@@@@@@@@@@@@@@@@@@@@@@@....+...............................................................................................",
"................................................................+...............................................................................................",
"................................................................+...............................................................................................",
"................................................................+...............................................................................................",
"................................................................+...............................................................................................",
"+++++++++++++++++++++++++++++++++++++++++++++++++++++++++++++++++++++++++++++++.................................................................................",
"++rrr+++ssst+trrrt+trrrt+tssst+trrrt+trrrt+trrrt+trrrt+trrrt+++++++++++++++++++.................................................................................",
"+r+++r+s+++r+s+++r+s+++r+r+++r+r+++s+r+++s+s+++r+r+++r+r+++r++++++++++++r++++++..+uu+..+vv+..+ww+...............................................................",
"+r+++r+s+++r+s+++r+s+++r+r+++r+r+++s+r+++s+s+++r+r+++r+r+++r++r++++r++++r++++++..uxuu..vxvv..wwww...............................................................",
"+tssst++ssst+trrrt++rrrt+trrrt+trrrt+trrrt++ssst+srrrs+trrrt++t++++t+++r+++++++..uuuu..vvvv..wwww...+rsy........................................................",
"+r+++r+s+++r+r+++s+s+++r+s+++r+s+++r+r+++r+s+++r+r+++r+s+++r+++++++++++r+++++++..+uu+..+vv+..+ww+...............................................................",
"+r+++r+s+++r+r+++s+s+++r+s+++r+s+++r+r+++r+s+++r+r+++r+s+++r++r++++r++r++++++++.................................................................................",
"++rrr+++sssr+trrrt+trrrt++ssst+trrrt+trrrt++ssst+trrrt+trrrt++t++++t++r++++++++.................................................................................",
"+++++++++++++++++++++++++++++++++++++++++++++++++++++++++++++++++++++++++++++++.................................................................................",
"................................................................................................................................................................",
"++++++++++++++++++++++++++++++++++++++++++++++++++++++++++++++++++++++++++++++++++++++++++++++++++++++++++++++++++++++++++++++++++++++++++++++++++++++++++++++++",
"+srrrs+trrr++trrrt+trrr++trrrt+trrrt+trrrt+tssst++ssst++ssst+tssst+tsss++rsssr+trrr++trrrt+trrrt+trrrt+trrrt+trrrt+trrrt+tssst+tssst+tssst+tssst+tssst+trrrt++++",
"+r+++r+r+++r+r+++s+r+++r+r+++s+r+++s+r+++s+r+++r+s+++r+s+++r+r+++r+r+++s+rr+rr+r+++r+r+++r+r+++r+r+++r+r+++r+r+++s+s+r+s+r+++r+r+++r+r+++r+r+++r+r+++r+s+++r++++",
"+r+++r+r+++r+r+++s+r+++r+r+++s+r+++s+r+++s+r+++r+s+++r+s+++r+r++rs+r+++s+r+r+r+r+++r+r+++r+r+++r+r+++r+r+++r+r+++s+s+r+s+r+++r+r+++r+r+++r+sr+rs+r+++r+s++rs++++",
"+trrrt+trrr++tsss++tssst+trrr++trrr++tsrrt+trrrt++ssst++ssst+trrs++tsss++tssst+tssst+tssst+trrrt+trsst+trrr++trrrt++sts++tssst+tssst+tssst++srs++trrrt++srs+++++",
"+r+++r+r+++r+r+++s+r+++r+r+++s+r+++s+r+++r+r+++r+s+++r+s+++r+r++rs+r+++s+r+++r+r+++r+r+++r+r+++s+r+r+r+r+++r+s+++r+s+r+s+r+++r+r+++r+r+r+r+sr+rs+s+++r+sr++s++++",
"+r+++r+r+++r+r+++s+r+++r+r+++s+r+++s+r+++r+r+++r+s+++r+s+++r+r+++r+r+++s+r+++r+r+++r+r+++r+r+++s+r++rr+r+++r+s+++r+s+r+s+r+++r+r+++r+rr+rr+r+++r+s+++r+r+++s++++",
"+tssst+trrr++trrrt+rrrr++trrrt+rsss++trrrt+tssst++sssr+trrrt+tssst+trrrs+tssst+rsssr+trrrt+tsss++trrrt+tssst+trrrt++sts++srrrr++rrr++rsssr+tsssrttrrrt+trrrt++++",
"++++++++++++++++++++++++++++++++++++++++++++++++++++++++++++++++++++++++++++++++++++++++++++++++++++++++++++++++++++++++++++++++++++++++++++++++++++++++++++++++",
"................................................................................................................................................................",
"....+++++++++++++++++++++++++++++++++++++++++++++++++++++++.....................................................................................................",
"....+++++++++++++++++++++++++++++++++++++++++++++++++++++++.....................................................................................................",
"....+++++++++++++++++++++++++++++++++++++++++++++++++++++++.....................................................................................................",
"....+++++++++++++++++++++++++++++++++++++++++++++++++++++++.....................................................................................................",
"....+++++++++++++++++++++++++++++++++++++++++++++++++++++++.....................................................................................................",
"....+++++++++++++++++++++++++++++++++++++++++++++++++++++++.....................................................................................................",
"....+++++++++++++++++++++++++++++++++++++++++++++++++++++++.....................................................................................................",
"....+++++++++++++++++++++++++++++++++++++++++++++++++++++++.....................................................................................................",
"....+++++++++++++++++++++++++++++++++++++++++++++++++++++++.....................................................................................................",
"....+++++++++++++++++++++++++++++++++++++++++++++++++++++++.....................................................................................................",
"................................................................................................................................................................",
"................................................................................................................................................................",
"................................................................................................................................................................",
"................................................................................................................................................................",
"................................................................................................................................................................",
"................................................................................................................................................................"};
