/* XPM */
static char * People_xpm[] = {
"56 56 773 2",
"  	c None",
". 	c #060715",
"+ 	c #080A1B",
"@ 	c #0D0F23",
"# 	c #070817",
"$ 	c #11152D",
"% 	c #171B3F",
"& 	c #13183B",
"* 	c #0A0D25",
"= 	c #050715",
"- 	c #060714",
"; 	c #060614",
"> 	c #080917",
", 	c #0D1020",
"' 	c #151730",
") 	c #242A56",
"! 	c #1A1F48",
"~ 	c #080A1C",
"{ 	c #070714",
"] 	c #080918",
"^ 	c #0D1023",
"/ 	c #131732",
"( 	c #1A1E43",
"_ 	c #212557",
": 	c #272D6B",
"< 	c #1C2154",
"[ 	c #111335",
"} 	c #060819",
"| 	c #050615",
"1 	c #060615",
"2 	c #0F1127",
"3 	c #131833",
"4 	c #151838",
"5 	c #111231",
"6 	c #08091B",
"7 	c #080819",
"8 	c #0F112C",
"9 	c #070917",
"0 	c #090B1B",
"a 	c #080919",
"b 	c #0C0F24",
"c 	c #23285A",
"d 	c #262D6A",
"e 	c #151A41",
"f 	c #0D0F2B",
"g 	c #0F1333",
"h 	c #0B0E2C",
"i 	c #050714",
"j 	c #090B1A",
"k 	c #111426",
"l 	c #23294F",
"m 	c #212657",
"n 	c #0B0D24",
"o 	c #050613",
"p 	c #11152F",
"q 	c #1C204A",
"r 	c #1A1D47",
"s 	c #0B0E26",
"t 	c #0D0F25",
"u 	c #131735",
"v 	c #191C43",
"w 	c #090B1F",
"x 	c #050614",
"y 	c #070716",
"z 	c #08091C",
"A 	c #040514",
"B 	c #070919",
"C 	c #111329",
"D 	c #161834",
"E 	c #10112C",
"F 	c #050617",
"G 	c #050515",
"H 	c #1A1F3C",
"I 	c #151734",
"J 	c #090A1E",
"K 	c #0B0C22",
"L 	c #060613",
"M 	c #141837",
"N 	c #1D214F",
"O 	c #13173C",
"P 	c #0A0B22",
"Q 	c #0A0D24",
"R 	c #14172D",
"S 	c #0A0B1C",
"T 	c #090A19",
"U 	c #161A32",
"V 	c #1E2246",
"W 	c #0F1128",
"X 	c #181B44",
"Y 	c #090B20",
"Z 	c #060716",
"` 	c #0E1131",
" .	c #191E50",
"..	c #060718",
"+.	c #131537",
"@.	c #0D0E1E",
"#.	c #0D0F1F",
"$.	c #101124",
"%.	c #0B0D21",
"&.	c #131632",
"*.	c #0A0C22",
"=.	c #11132D",
"-.	c #1C224D",
";.	c #0F1230",
">.	c #1B1F50",
",.	c #0C0E26",
"'.	c #060717",
").	c #181C42",
"!.	c #060818",
"~.	c #0A0C1F",
"{.	c #232853",
"].	c #151738",
"^.	c #060713",
"/.	c #060817",
"(.	c #16193E",
"_.	c #0A0B20",
":.	c #15183B",
"<.	c #10122D",
"[.	c #131733",
"}.	c #0A0C20",
"|.	c #15193F",
"1.	c #1A161F",
"2.	c #19192B",
"3.	c #0C0E24",
"4.	c #212651",
"5.	c #1B1F4D",
"6.	c #090C21",
"7.	c #050513",
"8.	c #070814",
"9.	c #060616",
"0.	c #10122C",
"a.	c #0D0F24",
"b.	c #111430",
"c.	c #1D2250",
"d.	c #07091A",
"e.	c #0E1124",
"f.	c #131631",
"g.	c #1E234F",
"h.	c #191D48",
"i.	c #07091C",
"j.	c #070713",
"k.	c #050514",
"l.	c #040512",
"m.	c #07081B",
"n.	c #101336",
"o.	c #12152D",
"p.	c #0A0C1C",
"q.	c #090A1A",
"r.	c #161938",
"s.	c #161A3D",
"t.	c #090B1C",
"u.	c #0F122A",
"v.	c #0F1129",
"w.	c #090A1D",
"x.	c #121536",
"y.	c #050512",
"z.	c #0C0D28",
"A.	c #161A45",
"B.	c #13162B",
"C.	c #101225",
"D.	c #151835",
"E.	c #0B0D1F",
"F.	c #1A1E47",
"G.	c #040614",
"H.	c #040513",
"I.	c #101333",
"J.	c #101330",
"K.	c #0B0C1B",
"L.	c #14162E",
"M.	c #0D0F22",
"N.	c #101129",
"O.	c #070715",
"P.	c #040613",
"Q.	c #131738",
"R.	c #090B1D",
"S.	c #070816",
"T.	c #0E1021",
"U.	c #0A0B19",
"V.	c #100E19",
"W.	c #282125",
"X.	c #090917",
"Y.	c #121531",
"Z.	c #14121D",
"`.	c #0C0C18",
" +	c #19151E",
".+	c #AD8B6B",
"++	c #54443D",
"@+	c #0B0B16",
"#+	c #3E343C",
"$+	c #0F0D18",
"%+	c #090916",
"&+	c #0E1127",
"*+	c #111436",
"=+	c #0B0A16",
"-+	c #443938",
";+	c #0B0B17",
">+	c #211D23",
",+	c #0F0E19",
"'+	c #0B0A15",
")+	c #91745D",
"!+	c #EDBE8D",
"~+	c #D4AA80",
"{+	c #7E6753",
"]+	c #0D0E25",
"^+	c #14111B",
"/+	c #0E0D18",
"(+	c #2A242D",
"_+	c #070815",
":+	c #0F1226",
"<+	c #0E102B",
"[+	c #0D0C19",
"}+	c #53433E",
"|+	c #0C0C1B",
"1+	c #14121C",
"2+	c #55453D",
"3+	c #1A171F",
"4+	c #080916",
"5+	c #53433C",
"6+	c #D5AB80",
"7+	c #FFCD97",
"8+	c #54453C",
"9+	c #715C4C",
"0+	c #3E3436",
"a+	c #1F1A21",
"b+	c #463936",
"c+	c #110F1C",
"d+	c #39302F",
"e+	c #0B0D1D",
"f+	c #07081A",
"g+	c #060815",
"h+	c #171A3F",
"i+	c #2F2629",
"j+	c #3D3331",
"k+	c #1F1C29",
"l+	c #1E1A21",
"m+	c #9E7F63",
"n+	c #19161F",
"o+	c #5B4A40",
"p+	c #0E0E18",
"q+	c #A78668",
"r+	c #F8C793",
"s+	c #AC8A6B",
"t+	c #604E43",
"u+	c #886E58",
"v+	c #262025",
"w+	c #17141E",
"x+	c #221C22",
"y+	c #32292C",
"z+	c #90745C",
"A+	c #0B0A17",
"B+	c #0C0E25",
"C+	c #0A0A1B",
"D+	c #1C2148",
"E+	c #211B22",
"F+	c #19161E",
"G+	c #64534C",
"H+	c #0F0E1A",
"I+	c #9E7E63",
"J+	c #91765D",
"K+	c #4B3D38",
"L+	c #56463E",
"M+	c #5C4B41",
"N+	c #D4AA7F",
"O+	c #F2C290",
"P+	c #0C0B18",
"Q+	c #4E4039",
"R+	c #C9A179",
"S+	c #0C0B17",
"T+	c #7E6652",
"U+	c #755F4E",
"V+	c #705B4C",
"W+	c #796350",
"X+	c #131630",
"Y+	c #725C4B",
"Z+	c #57463E",
"`+	c #231F29",
" @	c #786150",
".@	c #DEB285",
"+@	c #332A2C",
"@@	c #12111B",
"#@	c #AF8C6C",
"$@	c #4D3F39",
"%@	c #A08165",
"&@	c #F5C492",
"*@	c #4A3D38",
"=@	c #3F3432",
"-@	c #DAAF83",
";@	c #2D2529",
">@	c #A98868",
",@	c #483C37",
"'@	c #624F45",
")@	c #DEB385",
"!@	c #06071A",
"~@	c #070818",
"{@	c #11142F",
"]@	c #13162E",
"^@	c #231E24",
"/@	c #987A60",
"(@	c #C69F78",
"_@	c #ECBE8D",
":@	c #57473E",
"<@	c #D9AE82",
"[@	c #594940",
"}@	c #C7A079",
"|@	c #91755D",
"1@	c #423634",
"2@	c #D6AC81",
"3@	c #5A4A40",
"4@	c #B69270",
"5@	c #967960",
"6@	c #261F25",
"7@	c #90745D",
"8@	c #635145",
"9@	c #E2B587",
"0@	c #695649",
"a@	c #101029",
"b@	c #10122A",
"c@	c #090A17",
"d@	c #0D0F21",
"e@	c #0D112C",
"f@	c #13111B",
"g@	c #55463D",
"h@	c #A9886A",
"i@	c #7C6656",
"j@	c #9B7D62",
"k@	c #ECBD8C",
"l@	c #B3906E",
"m@	c #A38265",
"n@	c #F7C693",
"o@	c #8C705A",
"p@	c #D8AD82",
"q@	c #BD9874",
"r@	c #4F413A",
"s@	c #856B56",
"t@	c #C59E78",
"u@	c #F4C491",
"v@	c #16131C",
"w@	c #A28365",
"x@	c #6F5A4C",
"y@	c #DBB084",
"z@	c #D1A87F",
"A@	c #151323",
"B@	c #0C0F28",
"C@	c #0C0C1C",
"D@	c #121535",
"E@	c #4F413B",
"F@	c #90735C",
"G@	c #CBA37B",
"H@	c #4E403B",
"I@	c #786250",
"J@	c #4B3E39",
"K@	c #CEA57D",
"L@	c #B99572",
"M@	c #E8BA8A",
"N@	c #5B4A41",
"O@	c #AF8D6D",
"P@	c #D6AC80",
"Q@	c #6B5649",
"R@	c #8B7059",
"S@	c #A78669",
"T@	c #E1B586",
"U@	c #18151E",
"V@	c #14173A",
"W@	c #070819",
"X@	c #070918",
"Y@	c #10112B",
"Z@	c #866C57",
"`@	c #CCA47C",
" #	c #E8BA8B",
".#	c #292327",
"+#	c #92765D",
"@#	c #C09A76",
"##	c #EBBD8C",
"$#	c #FAC894",
"%#	c #CDA47C",
"&#	c #FCCA95",
"*#	c #7A6251",
"=#	c #E5B889",
"-#	c #836955",
";#	c #5A493F",
">#	c #866B57",
",#	c #DFB385",
"'#	c #5D4C42",
")#	c #171A3B",
"!#	c #0A0B21",
"~#	c #0F1228",
"{#	c #0A0B1D",
"]#	c #14131C",
"^#	c #B6926F",
"/#	c #816854",
"(#	c #2A2326",
"_#	c #32292B",
":#	c #15131C",
"<#	c #493B36",
"[#	c #DEB184",
"}#	c #ECBD8D",
"|#	c #AB896B",
"1#	c #8B715A",
"2#	c #31292B",
"3#	c #30272A",
"4#	c #483A36",
"5#	c #362E2E",
"6#	c #624F44",
"7#	c #212134",
"8#	c #070718",
"9#	c #080815",
"0#	c #0F122E",
"a#	c #050716",
"b#	c #0C0F22",
"c#	c #040715",
"d#	c #0B0C24",
"e#	c #342B2C",
"f#	c #1B161F",
"g#	c #CFA77D",
"h#	c #B28E6C",
"i#	c #615044",
"j#	c #B5916D",
"k#	c #CFA67A",
"l#	c #C79F75",
"m#	c #4B3E37",
"n#	c #665344",
"o#	c #56463D",
"p#	c #715D4C",
"q#	c #EEBF8D",
"r#	c #F9C893",
"s#	c #645044",
"t#	c #2E2729",
"u#	c #695547",
"v#	c #9C7D61",
"w#	c #C7A076",
"x#	c #CEA579",
"y#	c #8C7259",
"z#	c #AF8C69",
"A#	c #D1A77B",
"B#	c #D6AB80",
"C#	c #9B7C62",
"D#	c #2F272F",
"E#	c #080B1A",
"F#	c #18151D",
"G#	c #121434",
"H#	c #090A1B",
"I#	c #080816",
"J#	c #282226",
"K#	c #EFC08E",
"L#	c #F4C390",
"M#	c #D7AC80",
"N#	c #A28264",
"O#	c #BB9670",
"P#	c #C29C73",
"Q#	c #B5926B",
"R#	c #705A47",
"S#	c #977A5C",
"T#	c #B9956D",
"U#	c #C49E73",
"V#	c #967A5D",
"W#	c #78614F",
"X#	c #F8C791",
"Y#	c #BF9974",
"Z#	c #96795F",
"`#	c #D3AA7D",
" $	c #C6A076",
".$	c #C19B72",
"+$	c #BA966E",
"@$	c #B4916A",
"#$	c #94775A",
"$$	c #B2906A",
"%$	c #C8A176",
"&$	c #DBB081",
"*$	c #DFB383",
"=$	c #493C35",
"-$	c #392E2D",
";$	c #131534",
">$	c #040616",
",$	c #0D0C18",
"'$	c #BC9773",
")$	c #171A41",
"!$	c #755E4E",
"~$	c #2B2428",
"{$	c #FBC994",
"]$	c #C8A178",
"^$	c #D5AB7E",
"/$	c #AF8C6B",
"($	c #655750",
"_$	c #3F3B41",
":$	c #1C1C27",
"<$	c #1D1B26",
"[$	c #6C5849",
"}$	c #BD9670",
"|$	c #D1A87C",
"1$	c #E1B485",
"2$	c #F3C48F",
"3$	c #FAC994",
"4$	c #D4AA7E",
"5$	c #D4AB7D",
"6$	c #C09B71",
"7$	c #655244",
"8$	c #2D2A32",
"9$	c #2B2933",
"0$	c #23232E",
"a$	c #584B45",
"b$	c #C09A71",
"c$	c #E9BC8A",
"d$	c #635243",
"e$	c #63534D",
"f$	c #0B0C1F",
"g$	c #060816",
"h$	c #050612",
"i$	c #222343",
"j$	c #090815",
"k$	c #7C6552",
"l$	c #392F2F",
"m$	c #FFCC97",
"n$	c #FFCC96",
"o$	c #D7AC81",
"p$	c #A88D75",
"q$	c #5B5B65",
"r$	c #C5C5D9",
"s$	c #A4A5BA",
"t$	c #03041E",
"u$	c #181A32",
"v$	c #343647",
"w$	c #504745",
"x$	c #C69F77",
"y$	c #EABC8A",
"z$	c #FFCD96",
"A$	c #FBC894",
"B$	c #DDB282",
"C$	c #BF9A72",
"D$	c #4F4644",
"E$	c #656574",
"F$	c #CDCEE1",
"G$	c #5B5C74",
"H$	c #0F112B",
"I$	c #202539",
"J$	c #6A6367",
"K$	c #C8A37C",
"L$	c #F4C490",
"M$	c #7D6752",
"N$	c #0A0A17",
"O$	c #AB8C6A",
"P$	c #C5A477",
"Q$	c #0C0E22",
"R$	c #302929",
"S$	c #3F394D",
"T$	c #766050",
"U$	c #645145",
"V$	c #B9A694",
"W$	c #C9C9D1",
"X$	c #828597",
"Y$	c #D8D8EB",
"Z$	c #A4A4B9",
"`$	c #01011B",
" %	c #080926",
".%	c #252B50",
"+%	c #C1C3CF",
"@%	c #B09D8A",
"#%	c #C39D73",
"$%	c #D8AD7F",
"%%	c #A3907E",
"&%	c #D0D1D9",
"*%	c #A7A9BD",
"=%	c #C9C9DD",
"-%	c #51516A",
";%	c #00001D",
">%	c #1E233F",
",%	c #7B7F96",
"'%	c #C1BDBD",
")%	c #E7C29B",
"!%	c #8F765C",
"~%	c #11101A",
"{%	c #16141D",
"]%	c #CBA779",
"^%	c #BD9D70",
"/%	c #131220",
"(%	c #2A2323",
"_%	c #957758",
":%	c #7B6863",
"<%	c #5F4E43",
"[%	c #DDCDC1",
"}%	c #D8DAE1",
"|%	c #64687B",
"1%	c #ACAEC1",
"2%	c #3A3A54",
"3%	c #00001B",
"4%	c #0A0B2D",
"5%	c #282E63",
"6%	c #B3B6C9",
"7%	c #E3CDB6",
"8%	c #B6926A",
"9%	c #DDB182",
"0%	c #FCCA94",
"a%	c #D3A97D",
"b%	c #CBB7A2",
"c%	c #ADB0BA",
"d%	c #5D6075",
"e%	c #7F7F96",
"f%	c #0C0C28",
"g%	c #202551",
"h%	c #74789A",
"i%	c #DBDCE3",
"j%	c #F3D2AF",
"k%	c #A28566",
"l%	c #2A2427",
"m%	c #E5BD87",
"n%	c #B09268",
"o%	c #262125",
"p%	c #1D181B",
"q%	c #83694D",
"r%	c #CAA581",
"s%	c #665247",
"t%	c #BC9774",
"u%	c #FCCB97",
"v%	c #B5A79F",
"w%	c #808293",
"x%	c #23284F",
"y%	c #0B0C2F",
"z%	c #030424",
"A%	c #1E2358",
"B%	c #2E3579",
"C%	c #D4D5DF",
"D%	c #F1C89D",
"E%	c #DCB082",
"F%	c #EFC08C",
"G%	c #FECC96",
"H%	c #E6B988",
"I%	c #DCB78E",
"J%	c #E0E0E4",
"K%	c #323853",
"L%	c #181C40",
"M%	c #030321",
"N%	c #10123A",
"O%	c #29306E",
"P%	c #9393AB",
"Q%	c #CCB39E",
"R%	c #AF916B",
"S%	c #54473C",
"T%	c #DEB678",
"U%	c #B3956A",
"V%	c #362E2B",
"W%	c #594734",
"X%	c #D2A658",
"Y%	c #26202A",
"Z%	c #7F6753",
"`%	c #D8AE81",
" &	c #EABD8B",
".&	c #67564D",
"+&	c #3C3848",
"@&	c #34365B",
"#&	c #2B2F5F",
"$&	c #3F406E",
"%&	c #726A7C",
"&&	c #E7C39D",
"*&	c #FDCB95",
"=&	c #F5C491",
"-&	c #FDCB96",
";&	c #F9C792",
">&	c #F4C590",
",&	c #E6C09C",
"'&	c #756D72",
")&	c #4F4F69",
"!&	c #373A60",
"~&	c #454667",
"{&	c #494350",
"]&	c #8B715D",
"^&	c #A48766",
"/&	c #77634F",
"(&	c #C29B49",
"_&	c #B49567",
":&	c #241E20",
"<&	c #423427",
"[&	c #B08928",
"}&	c #725C4C",
"|&	c #856C56",
"1&	c #90775B",
"2&	c #56483D",
"3&	c #977C5F",
"4&	c #D1AB64",
"5&	c #B39369",
"6&	c #1B1613",
"7&	c #A88652",
"8&	c #B28E60",
"9&	c #7A6451",
"0&	c #F6C592",
"a&	c #FBCB95",
"b&	c #AD906A",
"c&	c #7D6852",
"d&	c #5F4E3E",
"e&	c #D9B480",
"f&	c #C2A273",
"g&	c #302722",
"h&	c #382E26",
"i&	c #645144",
"j&	c #F1C18F",
"k&	c #F4C790",
"l&	c #D7B380",
"m&	c #9B8061",
"n&	c #19171A",
"o&	c #A98D67",
"p&	c #372D29",
"q&	c #EBBD8D",
"r&	c #EDC38C",
"s&	c #E6BF88",
"t&	c #9B805F",
"u&	c #1D1A20",
"v&	c #0C0C16",
"w&	c #B5926C",
"x&	c #E9BB8B",
"y&	c #E7BF88",
"z&	c #685541",
"A&	c #473A31",
"B&	c #E4B788",
"C&	c #F6C891",
"D&	c #D5B07E",
"E&	c #040411",
"F&	c #0D0B15",
"G&	c #B5916C",
"H&	c #C49E78",
"I&	c #EAC18A",
"J&	c #7D674E",
"K&	c #4D3F33",
"L&	c #F7C892",
"M&	c #E2BB85",
"N&	c #0F0D17",
"O&	c #0C0C15",
"P&	c #B6926C",
"Q&	c #EBC18B",
"R&	c #AF9068",
"S&	c #4E3F33",
"T&	c #E4BC86",
"U&	c #090914",
"V&	c #BC986F",
"W&	c #EEBF8C",
"X&	c #F0C08E",
"Y&	c #F7C692",
"Z&	c #E5B887",
"`&	c #A78963",
" *	c #64513C",
".*	c #F6C591",
"+*	c #E1B584",
"@*	c #DCB081",
"#*	c #DCB180",
"$*	c #D6AC7E",
"%*	c #D2A87C",
"&*	c #ECBD8B",
"**	c #F2C68F",
"=*	c #E5BC87",
"-*	c #7F664B",
";*	c #FACA94",
">*	c #897051",
",*	c #A38461",
"'*	c #EBC28B",
")*	c #CDA879",
"!*	c #EEC38C",
"~*	c #E6BE88",
"{*	c #66533C",
"]*	c #67533D",
"^*	c #EBBD8B",
"/*	c #E6BD88",
"(*	c #6F5A41",
"_*	c #C19C72",
":*	c #D7B17F",
"<*	c #725C43",
"[*	c #AF8D67",
"}*	c #F0C18E",
"|*	c #C8A476",
"1*	c #7E674A",
"2*	c #614F39",
"3*	c #81684C",
"4*	c #977A59",
"5*	c #A38360",
"6*	c #AF8E67",
"7*	c #A38560",
"8*	c #766045",
"                                  . . . + @ # .                                                                 ",
"                                          . . . . .                                                             ",
"                                            . . . . .             $ % & * . = -                                 ",
"                                . . . . . . . . . . . ;     > , ' ) ! ~ . . . . . . {                           ",
"                        { . . . . ] ^ / ( _ : < [ } . | 1 . . . 2 3 4 5 6 . . . . . . . =                       ",
"                    . 7 8 * ; | 9 0 a b c d e f g h i . . . . . j k l m n ; i | - o ; 1 . .                     ",
"                  p q r s . . . = | t u v w x ; ; y z A ; | - i ; B C D E F . . . . . . G   ;                   ",
"                H I a . . . . . . . . J K . ; ; - x ; ; - ; L = x | M N O | . . . P n . . Q                     ",
"              R S . . . . ; . . . . T U V / - ; ; ; ; ; o 1 ; ; o A W X Y Z . . . . `  .6 ..+.                  ",
"            @.x . . . . . . . . 9 #.$.S %.&.*.= - x x ; ; ; x 1 ; ; =.-.;.| . . . . . J >.,.'.).                ",
"          . . . . . . . . !.. . . . . . . ~.{.].Z ^.L ; x L o L 1 ; /.(._.. | | . . . . x :.<.Z [.              ",
"        . .   . . . . }.|.*.. . . . . 1 1.2.3.4.5.6.- o 7.7.8.; { ^.; 9.x ; ; ; x . '.. . . 0.a.] @             ",
"      . .   . . . . b.c.d.. . . . = ; . . . e.f.g.h.i.- L L 7.j.x k.x A l.- x x . . m.n.. . . o.p.q.            ",
"    . .   . . . x r.s.x . . x x | . . . = = t.u.v.w.x.# 1 ; - { ; - y.x ; x | . . . . z.A.. . . B..             ",
"          . .   C.D.. . . x | . | ; . . . . . G E.F.n x G.- i o j.o H.; ; ; H.. . . . . I.J.. . B K.            ",
"        . .     L.. . x i . . = x . . . . x ; M.N.w x . . . . x O.; { L ; ; o P.- i . . . Q.R.. . S..           ",
"        .     T.Z . = | . . 1 . . . . x o ; U.U.. . . . i V.{ x W.> 7.X.- ; Z H.. . | . . . Y.. . x .           ",
"      .     y S.. x F . . i x . . . i x - Z.`.. . X.= G. +.+++- @+#+- L $+1 ; %+A . . | - . &+0 . . .           ",
"            . . = *+d.. | x . . . x =+- -+X.. ;+>+| ,+'+)+!+~+O.; {+]+; ^+/+; (+_+x . . = . x :+. . . .         ",
"    .       . 1 X <+. = o . . . Z [+^.}+|+. 1+2+. 3+4+5+6+7+7+8+. 9+0+a+- b+. c+d+. 1 . . i . e+. f+. .         ",
"          g+. Y.h+. ; x . . . . G.i+j+k+. l+m+n+. o+p+q+r+7+7+s+x t+u+v+w+x+y+; z+A+P.. . . . # . . B+.         ",
"          . C+D+| i | . i . . > E+F+G+. H+I+J+. K+L+M+N+7+7+7+O+P+Q+R+S+T+x U+_+V+W+; . . . . . . . J./.        ",
"          . X+a.- k.. x 1 . . l+Y+Z+`+.  @.@+@@@#@$@%@&@7+7+7+7+*@=@-@;@>@v+L+,@'@)@@+!@; . = . . . ~@{@        ",
"        O.  ]@. x w . x _+. . ^@/@m+. b+(@_@. :@<@[@}@7+7+7+7+7+|@1@2@3@4@5@6@7@8@9@0@a@; . . | . | . b@        ",
"        1 c@d@1 e@| ; - . . f@g@h@i@4+j@k@l@X.m@n@o@p@7+7+7+7+7+q@r@p@s@t@u@v@w@x@y@z@A@B@. . i . ; . @ .       ",
"        g+C@.   D@- x . g+. E@F@G@H@E@}@7+I@J@K@7+L@!+7+7+7+7+7+M@N@y@O@P@7+Q@R@S@T@7+U@V@x . W@. i . X@S.      ",
"          | 1   Y@x ; ; 7.. Z@`@ #.#+#@#<@3@Z@##$#%#&#7+7+7+7+7+7+*#.@z@=#r+-#;#>#,#7+'#)#= . !#f+. - . .       ",
"          .   ~#{#. G 1 ]#. ^#9@/#,+(#_#:#[+<#.+[#}#7+7+7+7+7+7+7+|#6+1#r@1+2#3#4#5#6#z+7#8#. 9#0#x 1 . .       ",
"          a#  b#c#. d#k.e#f#g#/@h#i#j#k#l#m#n#o#^@p#q#7+7+7+7+7+r#s#t#u#v#w#x#y#z#A#B#C#D#E#. F#G#. ; .         ",
"        g+    H#I#_+*+x '#J#K#L#M#N#O#P#Q#R#S#T#U#V#W#X#7+7+7+7+Y#Z#`# $.$+$@$#$$$%$&$*$=$H#. -$;$~@; .         ",
"        a#    >$,$'$)$Z !$~$&#{$]$^$/$($_$:$<$[$}$|$1$2$7+7+7+7+3$4$5$6$7$8$9$0$a$b$&$c$t+= . d$e$f$i .         ",
"        g$    h$v+7+i$j$k$l$m$n$o$p$q$r$s$t$u$v$w$x$&$y$z$7+7+7+A$B$C$D$E$F$G$H$I$J$K$L$M$N$4+O$P$Q$= .         ",
"                R$b$S$%+T$U$7+7+V$W$X$Y$Z$`$ %.%+%@%#%*$m$7+7+7+{$$%%%&%*%=%-%;%>%,%'%)%!%~%{%]%^%/%i           ",
"                (%_%:%S.<%z+7+7+[%}%|%1%2%3%4%5%6%7%8%9%z$7+7+7+0%a%b%c%d%e%f%;%g%h%i%j%k%`.l%m%n%o%1           ",
"                p%q%r%/.s%t%7+7+u%v%w%x%y%z%A%B%C%D%E%F%7+7+7+7+G%H%I%J%K%L%M%N%O%P%Q%7+R%`.S%T%U%V%{           ",
"                  W%X%Y%Z%`%7+7+7+ &.&+&@&#&$&%&&&*&=&-&7+7+7+7+7+;&>&,&'&)&!&~&{&]&G%7+^&o%/&(&_&:&a#          ",
"                  <&[&}&|&q@7+7+7+7+n$m$m$m$7+7+7+7+z$7+7+7+$#7+7+7+z$7+7+7+7+7+7+7+7+7+1&2&3&4&5&  g+          ",
"                  6&7&8&9&4@7+7+7+7+7+7+7+7+7+7+7+7+7+7+7+7+0&7+7+7+7+7+7+7+7+7+7+7+7+a&b&c&d&e&f&              ",
"                    g&h&i&z@7+7+7+7+7+7+7+7+7+7+7+7+7+7+7+7+j&7+7+7+7+7+7+7+7+7+7+7+7+k&l&m&n&o&                ",
"                    . x p&q&7+7+7+7+7+7+7+7+7+7+7+7+7+7+7+7+j&{$7+7+7+7+7+7+7+7+7+7+7+r&s&t&H.u&                ",
"                    . x v&w&7+7+7+7+7+7+7+7+7+7+7+7+7+7+7+7+7+x&7+7+7+7+7+7+7+7+7+7+G%y&s&z&| .                 ",
"                    - x G.A&7+7+7+7+7+7+7+7+7+7+7+7+7+7+7+7+7+B&7+7+7+7+7+7+7+7+7+7+C&s&D&E&= 1                 ",
"                      i ; F&G&7+7+7+7+7+7+7+7+7+7+7+7+7+7+r+H&9@7+7+7+7+7+7+7+7+7+7+I&s&J&= ; =                 ",
"                        . 1 K&7+7+7+7+7+7+7+7+7+7+7+7+7+7+7+7+7+7+7+7+7+7+7+7+7+7+L&s&M&N&1                     ",
"                        = a#O&P&7+7+7+7+7+7+7+7+7+7+7+7+7+7+7+7+7+7+7+7+7+7+7+7+7+Q&s&R&. g+                    ",
"                        =   g$S&7+7+7+7+7+7+7+7+7+7+7+7+7+7+7+7+7+7+7+7+7+7+7+7+L&s&T&  g+                      ",
"                              U&V&7+7+7+7+7+7+7+7+7+W&&$X&7+Y&Z&Z&7+7+7+7+7+7+G%I&s&`&                          ",
"                              .  *.*7+7+7+7+7+7+7+{$K#+*@*#*$*%*&**&7+7+7+7+7+**s&=*                            ",
"                              g+  -*7+7+7+7+7+7+7+7+7+7+7+7+7+7+7+7+7+7+7+7+;*s&s&>*                            ",
"                                    ,*7+7+7+7+7+7+7+7+7+7+.*Y&7+7+7+7+7+7+G%'*s&)*                              ",
"                                      %$7+7+7+7+7+7+7+7+7+7+7+7+7+7+7+7+G%!*s&T&                                ",
"                                        H%7+7+7+7+7+7+7+7+7+7+7+7+7+7+G%r&s&~*{*                                ",
"                                        ]*^*7+7+7+7+7+7+7+7+7+7+7+7+G%r&s&/*(*                                  ",
"                                            _*7+7+7+7+7+7+7+7+7+G%C&I&s&:*                                      ",
"                                              <*[*}*7+7+7+7+G%C&I&y&|*1*                                        ",
"                                                    2*3*4*5*6*7*8*                                              "};
