/* XPM */
static char * Vehicles_xpm[] = {
"56 56 585 2",
"  	c None",
". 	c #787269",
"+ 	c #8A8378",
"@ 	c #867E72",
"# 	c #8B8375",
"$ 	c #8C8376",
"% 	c #90887B",
"& 	c #978F83",
"* 	c #9E978C",
"= 	c #A49D94",
"- 	c #A8A299",
"; 	c #ACA69F",
"> 	c #B2ADA7",
", 	c #B7B4AE",
"' 	c #BCB9B4",
") 	c #BFBDB8",
"! 	c #C1BFBD",
"~ 	c #C5C5C5",
"{ 	c #BCBCBC",
"] 	c #A6A6A6",
"^ 	c #888073",
"/ 	c #7B6F5D",
"( 	c #A19A8E",
"_ 	c #AAA7A0",
": 	c #D0CFCD",
"< 	c #DBDBDB",
"[ 	c #DCDCDC",
"} 	c #D8D8D8",
"| 	c #FCFCFC",
"1 	c #F6F6F6",
"2 	c #E8E8E8",
"3 	c #F0F0F0",
"4 	c #ECECEC",
"5 	c #DDDBDA",
"6 	c #D9D7D5",
"7 	c #D7D5D2",
"8 	c #D5D4D1",
"9 	c #DDDBDB",
"0 	c #E2E2E2",
"a 	c #EAEAEA",
"b 	c #DEDDDC",
"c 	c #CAC8C8",
"d 	c #7D7D7D",
"e 	c #6A6051",
"f 	c #897F6E",
"g 	c #7B6F5B",
"h 	c #8B8068",
"i 	c #FDFDFD",
"j 	c #FFFFFF",
"k 	c #DFDFDF",
"l 	c #D4D4D4",
"m 	c #E1DEDA",
"n 	c #D8D4CF",
"o 	c #EDEBE9",
"p 	c #FAFAFA",
"q 	c #F7F6F5",
"r 	c #D1CFCC",
"s 	c #A1A0A0",
"t 	c #6B6253",
"u 	c #554630",
"v 	c #736754",
"w 	c #7E7361",
"x 	c #6F6246",
"y 	c #B2B2B2",
"z 	c #B1B1B1",
"A 	c #A0A0A0",
"B 	c #9F9F9F",
"C 	c #BBBBBB",
"D 	c #F0EFED",
"E 	c #CACACA",
"F 	c #7F7F7F",
"G 	c #828282",
"H 	c #D0CCC8",
"I 	c #E7E5E2",
"J 	c #F4F4F4",
"K 	c #FEFDFD",
"L 	c #DBD9D6",
"M 	c #ADACAB",
"N 	c #6F5F39",
"O 	c #655532",
"P 	c #514124",
"Q 	c #503F23",
"R 	c #8E8474",
"S 	c #B0AA9F",
"T 	c #685C49",
"U 	c #6F6348",
"V 	c #686661",
"W 	c #727272",
"X 	c #737373",
"Y 	c #757575",
"Z 	c #767676",
"` 	c #AAA9A8",
" .	c #F9F9F9",
"..	c #D2D2D2",
"+.	c #A8A8A8",
"@.	c #AFAFAF",
"#.	c #D4D2CE",
"$.	c #D8D5D0",
"%.	c #ECEBE8",
"&.	c #C4C4C4",
"*.	c #C8C8C8",
"=.	c #FEFEFD",
"-.	c #DCDAD7",
";.	c #A9A8A7",
">.	c #483821",
",.	c #73633B",
"'.	c #998D72",
").	c #ACA492",
"!.	c #74643D",
"~.	c #6C5C37",
"{.	c #605135",
"].	c #79705A",
"^.	c #918A77",
"/.	c #BDBAB0",
"(.	c #E6E5E4",
"_.	c #A9A196",
":.	c #48381F",
"<.	c #C4BFB7",
"[.	c #DDDDDD",
"}.	c #CBCBCB",
"|.	c #AEADAC",
"1.	c #9F9D9C",
"2.	c #A4A4A4",
"3.	c #9D9D9D",
"4.	c #929191",
"5.	c #8D8D8C",
"6.	c #757574",
"7.	c #777776",
"8.	c #848483",
"9.	c #888886",
"0.	c #8C8B8A",
"a.	c #949493",
"b.	c #A8A5A4",
"c.	c #7A766D",
"d.	c #665632",
"e.	c #645431",
"f.	c #6A5A35",
"g.	c #6F5F38",
"h.	c #938769",
"i.	c #C4BDAD",
"j.	c #81724E",
"k.	c #493B27",
"l.	c #4D3D22",
"m.	c #5E4F30",
"n.	c #675C40",
"o.	c #736853",
"p.	c #908A7F",
"q.	c #6E6452",
"r.	c #ADACA7",
"s.	c #B4B4B2",
"t.	c #A1A09E",
"u.	c #6A6966",
"v.	c #696861",
"w.	c #625B4B",
"x.	c #605742",
"y.	c #5B4E35",
"z.	c #5B4B2D",
"A.	c #60502E",
"B.	c #665532",
"C.	c #6D603F",
"D.	c #766C53",
"E.	c #767062",
"F.	c #716D65",
"G.	c #6F6D65",
"H.	c #79756C",
"I.	c #6F6C64",
"J.	c #494843",
"K.	c #484847",
"L.	c #4E4E4E",
"M.	c #505050",
"N.	c #2F2F2E",
"O.	c #5C584F",
"P.	c #615945",
"Q.	c #695E44",
"R.	c #554528",
"S.	c #4B3B21",
"T.	c #4E3E23",
"U.	c #796943",
"V.	c #C5BEAE",
"W.	c #928669",
"X.	c #6D5D37",
"Y.	c #655736",
"Z.	c #4F4026",
"`.	c #4A3920",
" +	c #514125",
".+	c #544427",
"++	c #574729",
"@+	c #5D4D2C",
"#+	c #635330",
"$+	c #605436",
"%+	c #6E5E38",
"&+	c #6C5D36",
"*+	c #625230",
"=+	c #564527",
"-+	c #4F3E23",
";+	c #463820",
">+	c #473922",
",+	c #483A25",
"'+	c #4F4126",
")+	c #665837",
"!+	c #675B40",
"~+	c #5D5541",
"{+	c #646056",
"]+	c #6A6967",
"^+	c #525252",
"/+	c #3C3C3C",
"(+	c #5A5A5A",
"_+	c #5F5F5F",
":+	c #5C5C5C",
"<+	c #616161",
"[+	c #605E5B",
"}+	c #595445",
"|+	c #655636",
"1+	c #685A3A",
"2+	c #685B3C",
"3+	c #64583B",
"4+	c #77705D",
"5+	c #6B5B35",
"6+	c #685834",
"7+	c #6C5C36",
"8+	c #4F3F23",
"9+	c #6A5D3B",
"0+	c #72623A",
"a+	c #6D5D38",
"b+	c #695935",
"c+	c #60502F",
"d+	c #5D4C2C",
"e+	c #584829",
"f+	c #514126",
"g+	c #483A23",
"h+	c #4A3A20",
"i+	c #514024",
"j+	c #5C4C2C",
"k+	c #695933",
"l+	c #685833",
"m+	c #6B5B36",
"n+	c #6C5F3A",
"o+	c #6C5E3B",
"p+	c #695C3C",
"q+	c #6D5E3B",
"r+	c #71623A",
"s+	c #655632",
"t+	c #5F4F2E",
"u+	c #615438",
"v+	c #5E533D",
"w+	c #716953",
"x+	c #7A7261",
"y+	c #7A7566",
"z+	c #7A7465",
"A+	c #7A7363",
"B+	c #6A624F",
"C+	c #675939",
"D+	c #645433",
"E+	c #6E603B",
"F+	c #65593C",
"G+	c #64593C",
"H+	c #665A3C",
"I+	c #524225",
"J+	c #534325",
"K+	c #5C4D31",
"L+	c #403728",
"M+	c #4A402E",
"N+	c #564831",
"O+	c #6C5C38",
"P+	c #6E5F3B",
"Q+	c #6E5D37",
"R+	c #5E4F2E",
"S+	c #564628",
"T+	c #4D3D21",
"U+	c #48391F",
"V+	c #675733",
"W+	c #695934",
"X+	c #6F5F3A",
"Y+	c #6B5D3C",
"Z+	c #675A3B",
"`+	c #695C3B",
" @	c #6B5E3C",
".@	c #6D5F3C",
"+@	c #70613B",
"@@	c #72623B",
"#@	c #70603B",
"$@	c #6A5C3B",
"%@	c #61563D",
"&@	c #655A3D",
"*@	c #675C3E",
"=@	c #645330",
"-@	c #554627",
";@	c #4E3E24",
">@	c #1B1A18",
",@	c #838180",
"'@	c #969491",
")@	c #6C665A",
"!@	c #504023",
"~@	c #493A24",
"{@	c #493A20",
"]@	c #4E3E22",
"^@	c #534326",
"/@	c #5B4C2C",
"(@	c #6A5934",
"_@	c #695B3A",
":@	c #6E5E37",
"<@	c #716139",
"[@	c #6D5C37",
"}@	c #6F5E38",
"|@	c #695833",
"1@	c #716039",
"2@	c #615841",
"3@	c #716853",
"4@	c #7B7465",
"5@	c #837F74",
"6@	c #8D8981",
"7@	c #96938D",
"8@	c #9F9D97",
"9@	c #A3A09C",
"0@	c #A7A5A0",
"a@	c #A9A7A3",
"b@	c #ABA9A6",
"c@	c #ADABA8",
"d@	c #AFACAA",
"e@	c #AFADAA",
"f@	c #AEACA9",
"g@	c #ACABA8",
"h@	c #ABA9A7",
"i@	c #A9A8A5",
"j@	c #7E7C77",
"k@	c #6B675E",
"l@	c #454545",
"m@	c #5E5E5E",
"n@	c #A6A49F",
"o@	c #463823",
"p@	c #4E3D23",
"q@	c #625337",
"r@	c #70654F",
"s@	c #6B5F48",
"t@	c #5F5035",
"u@	c #86837C",
"v@	c #BFBCB8",
"w@	c #B8B5B3",
"x@	c #989796",
"y@	c #8B8B8A",
"z@	c #777777",
"A@	c #747474",
"B@	c #7B7B7B",
"C@	c #8D8C8B",
"D@	c #575757",
"E@	c #A8A7A6",
"F@	c #9D9C9B",
"G@	c #969594",
"H@	c #8E8D8B",
"I@	c #524F49",
"J@	c #838383",
"K@	c #898888",
"L@	c #817F7D",
"M@	c #6B6557",
"N@	c #594929",
"O@	c #4E4029",
"P@	c #4C3C21",
"Q@	c #463923",
"R@	c #41321C",
"S@	c #3E301B",
"T@	c #6E6450",
"U@	c #000000",
"V@	c #252524",
"W@	c #4E4B47",
"X@	c #6A6150",
"Y@	c #4B3A21",
"Z@	c #4C3B21",
"`@	c #544428",
" #	c #ACA9A4",
".#	c #BCBBB8",
"+#	c #80807F",
"@#	c #CDCAC7",
"##	c #4B4B4B",
"$#	c #404040",
"%#	c #787777",
"&#	c #ABAAA7",
"*#	c #515151",
"=#	c #555555",
"-#	c #A9A8A6",
";#	c #CAC9C6",
">#	c #AFAEAC",
",#	c #C0BFBC",
"'#	c #999896",
")#	c #969493",
"!#	c #010101",
"~#	c #6C6B6B",
"{#	c #6E6D6C",
"]#	c #7F7E7A",
"^#	c #74643F",
"/#	c #6A5D3A",
"(#	c #635230",
"_#	c #5A4A2A",
":#	c #554427",
"<#	c #514025",
"[#	c #4B3B20",
"}#	c #473821",
"|#	c #342A19",
"1#	c #2D2313",
"2#	c #5E533C",
"3#	c #464646",
"4#	c #2A2929",
"5#	c #171717",
"6#	c #5A503D",
"7#	c #6C6962",
"8#	c #868685",
"9#	c #EFEDEB",
"0#	c #848382",
"a#	c #DFDDDB",
"b#	c #7C7C7C",
"c#	c #7C7C7B",
"d#	c #7C7B7A",
"e#	c #868584",
"f#	c #A8A6A4",
"g#	c #8D8C8A",
"h#	c #838381",
"i#	c #888785",
"j#	c #918F8D",
"k#	c #858584",
"l#	c #818181",
"m#	c #848484",
"n#	c #A9A6A4",
"o#	c #A7A6A3",
"p#	c #4C4A49",
"q#	c #BBB8B5",
"r#	c #B0ADAA",
"s#	c #868482",
"t#	c #615F5D",
"u#	c #4C473D",
"v#	c #544328",
"w#	c #463A28",
"x#	c #4C3F28",
"y#	c #52442B",
"z#	c #584A2F",
"A#	c #625231",
"B#	c #685733",
"C#	c #645531",
"D#	c #62512F",
"E#	c #574A2D",
"F#	c #6E6246",
"G#	c #111111",
"H#	c #787776",
"I#	c #C6C5C3",
"J#	c #868582",
"K#	c #54452E",
"L#	c #4C3B22",
"M#	c #635E54",
"N#	c #8B8A89",
"O#	c #908F8E",
"P#	c #9B9A98",
"Q#	c #A6A5A3",
"R#	c #A4A2A0",
"S#	c #B5B2AF",
"T#	c #9D9B98",
"U#	c #93918D",
"V#	c #898783",
"W#	c #82807C",
"X#	c #7B7974",
"Y#	c #747069",
"Z#	c #6E6B62",
"`#	c #6C6963",
" $	c #7D7C78",
".$	c #8A8887",
"+$	c #939290",
"@$	c #999794",
"#$	c #D1CECA",
"$$	c #676462",
"%$	c #0D0D0D",
"&$	c #020202",
"*$	c #2B2923",
"=$	c #635534",
"-$	c #584729",
";$	c #483923",
">$	c #463824",
",$	c #463924",
"'$	c #53452B",
")$	c #574B32",
"!$	c #6D5E38",
"~$	c #756640",
"{$	c #333333",
"]$	c #161616",
"^$	c #C0C0C0",
"/$	c #B0B0B0",
"($	c #C2C2C1",
"_$	c #BFBEBD",
":$	c #807C70",
"<$	c #645331",
"[$	c #645432",
"}$	c #70603C",
"|$	c #7C7B76",
"1$	c #9C9B99",
"2$	c #969593",
"3$	c #9A9896",
"4$	c #9C9A96",
"5$	c #6B6249",
"6$	c #625637",
"7$	c #362F1D",
"8$	c #242013",
"9$	c #1F1B10",
"0$	c #19160D",
"a$	c #2F2817",
"b$	c #7D7539",
"c$	c #5E584D",
"d$	c #584D34",
"e$	c #5C564C",
"f$	c #5E594C",
"g$	c #B6B5B3",
"h$	c #131212",
"i$	c #5C4D2C",
"j$	c #473A23",
"k$	c #504125",
"l$	c #030302",
"m$	c #484848",
"n$	c #CAC8C7",
"o$	c #C4C4C3",
"p$	c #9B9B9B",
"q$	c #6D6144",
"r$	c #706039",
"s$	c #5C4C2E",
"t$	c #6B624F",
"u$	c #655F51",
"v$	c #665F50",
"w$	c #726850",
"x$	c #9A963F",
"y$	c #736E62",
"z$	c #1C180E",
"A$	c #131009",
"B$	c #5F512C",
"C$	c #B0AF26",
"D$	c #564932",
"E$	c #5C4B2B",
"F$	c #42413F",
"G$	c #615334",
"H$	c #020201",
"I$	c #C5C4C3",
"J$	c #C1C1C1",
"K$	c #A9A9A9",
"L$	c #BEBEBD",
"M$	c #181716",
"N$	c #6A5C3E",
"O$	c #524226",
"P$	c #685A32",
"Q$	c #A6A333",
"R$	c #51472F",
"S$	c #2B2516",
"T$	c #372F1C",
"U$	c #3E351F",
"V$	c #423822",
"W$	c #4F4327",
"X$	c #463A23",
"Y$	c #3C3527",
"Z$	c #201E1A",
"`$	c #0E0E0E",
" %	c #CAC8C6",
".%	c #C8C6C5",
"+%	c #C5C4C2",
"@%	c #8E8D8C",
"#%	c #272727",
"$%	c #242423",
"%%	c #272521",
"&%	c #39321D",
"*%	c #352C19",
"=%	c #2E2717",
"-%	c #2E2616",
";%	c #282214",
">%	c #241F12",
",%	c #201A0F",
"'%	c #1A160D",
")%	c #100E08",
"!%	c #060503",
"~%	c #232323",
"{%	c #363636",
"]%	c #5A5959",
"^%	c #CECBC7",
"/%	c #CCCAC7",
"(%	c #BBB9B7",
"_%	c #515050",
":%	c #050505",
"<%	c #3E3E3E",
"[%	c #282828",
"}%	c #1A1A1A",
"|%	c #2B2B2B",
"1%	c #1E1E1E",
"2%	c #303030",
"3%	c #080808",
"4%	c #292929",
"                                                                                                                ",
"                                                                                                                ",
"                                                                                                                ",
"                                                                                                                ",
"                                                                                                                ",
"                                                                                                                ",
"                                                                                                                ",
"                                                                                                                ",
"                                                                                                                ",
"                                                                                                                ",
"                                                                                                                ",
"                                                                                                                ",
"                                                                                                                ",
"                                                                                                                ",
"                                                                                                                ",
"                                                                                                                ",
"                                                                                                                ",
"                        . + @ # $ $ % & * = - ; > , ' ) ! ~ { ]                                                 ",
"                    ^ / ( _ : < [ } | 1 2 3 4 5 6 7 8 9 2 0 4 a b c d                                           ",
"                e f g h i j j j j j k l j j j m n n n o j 1 p j j q r s                                         ",
"            t u v w x y z ] A B C D < E F F G H n I q j j j J j j j K L M                                       ",
"      N O P Q R S T U V W X Y Z ` o  ...+.@.@.#.$.i j j %.j &.*.j j j =.-.;.>.                                  ",
"  ,.,.,.,.,.'.).!.~.{.].^./.(.j _.:.<.0 [.k }.|.1.2.3.4.5.6.d G 7.8.9.0.a.b.c.                                  ",
"d.e.f.f.g.h.i.j.,.,.~.k.l.m.n.o.p.q.r.s.t.u.v.w.x.y.z.A.B.C.D.E.F.G.H.I.J.K.L.M.N.O.P.                          ",
"Q.R.S.T.U.V.W.X.,.,.Y.Z.`.:.l. +.+++@+#+$+%+&+*+=+.+-+;+>+,+'+@+)+!+~+{+]+^+/+(+_+:+<+[+}+|+1+2+3+              ",
"4+5+g..+6+7+8+%+,.,.9+,.0+a+b+O c+d+e+f+g+:.h+i+++j+*+k+l+m+n+o+p+q+r+s+t+u+v+w+x+y+z+A+B+C+D+E+E+F+G+H+        ",
"  I+J+K+L+M+N+O+,.,.P+,.,.,.,.,.,.,.,.o+,.Q+s+R+S+T+:.U+j+#+V+5+W+X+Y+H+Z+`+`+Y+ @ @o+.@P++@@@@@#@P+o+$@%@&@*@  ",
"  =@-@;@>@,@'@)@e.!@~@{@]@^@++/@A.O (@_@,.,.,.,.,.,.:@5+,.,.<@[@}@|@1@q+2@3@4@5@6@7@8@9@0@a@b@c@d@e@f@g@h@i@1.j@",
"      7+k@l@m@n@|+:.>+:.:.:.:.:.:.:.:.o@p@#+q@r@s@t@@+5+,.,.,.,.,.,.u@v@w@h@t.x@y@F z@A@B@C@:+(+D@Y 5.E@F@c@G@H@",
"        I@J@K@L@M@N@O@ +P@:.:.:.:.:.:.Q@R@S@T@U@U@V@W@X@Y@Z@Z@P@-+`@ #G .#+#@#0.##$#$#$#%#&#*#=#(+X -#;#>#,#'#)#",
"        !#M ~#{#]#^#/#b+(#t+_#:#I+<#[#}#|#1#2#U@$#3#4#5#6#:.:.:.:.:.7#8#9#0#a#'#b#z@c#d#e#f#g#h#i#j#x@k#l#m#n#o#",
"        p#q#r#s#t#u#v#w#x#y#z#A#6+B#C#D#E#++F#G#/+H#I#` J#K#:.:.S.L#M#N#O#f#P#Q#R#S#T#U#V#W#X#Y#Z#`# $0#.$j#+$  ",
"          @$#$$$%$&$*$=$@+-$ +;$>$,$x#'$)$!$~${$]$^$/$($_$:$<$[$#+|@}$|$1$)#2$3$4$5$6$7$8$9$0$a$b$c$d$e$f$      ",
"          '@g$h$U@U@              i$e+I+j$k$,.l$m$C ^$n$o$p$q$r+,.r$ +s$t$u$v$w$x$y$z$U@U@U@A$B$C$D$E$          ",
"            F$U@U@U@                      G$,.H$/+I$J$K$L$M M$N$O$h+:.:.:.:.:.P$Q$R$S$T$U$V$W$X$Y$Z$            ",
"                                              U@`$ %.%I$+%@%#%$%%%&%*%=%-%;%>%,%'%)%!%U@U@U@U@~%{%              ",
"                                                U@]%^%/%(%_%:%<%[%                    U@U@U@}%|%                ",
"                                                  U@}%<+=#1%2%{%                                                ",
"                                                    U@&$3%#%4%                                                  ",
"                                                                                                                ",
"                                                                                                                ",
"                                                                                                                ",
"                                                                                                                ",
"                                                                                                                ",
"                                                                                                                ",
"                                                                                                                ",
"                                                                                                                ",
"                                                                                                                ",
"                                                                                                                ",
"                                                                                                                ",
"                                                                                                                ",
"                                                                                                                ",
"                                                                                                                ",
"                                                                                                                ",
"                                                                                                                ",
"                                                                                                                "};
