/* XPM */
static char * wmifs_master_xpm[] = {
"160 100 12 1",
" 	c #00000000FFFF",
".	c #208120812081",
"X	c #000000000000",
"o	c #C71BC30BC71B",
"O	c #28A23CF338E3",
"+	c #2081B2CAAEBA",
"@	c #000049244103",
"#	c #18618A288617",
"$	c #B6DA04101861",
"%	c #0000EBAD0000",
"&	c #F7DEF3CEFFFF",
"*	c #71C6E38D71C6",
"                                                                .                                                                                               ",
"                                                                .                                                                                               ",
"                                                                .                                                                                               ",
"                                                                .                                                                                               ",
"    XXXXXXXXXXXXXXXXXXXXXXXXXXXXXXXXX  XXXXXXXXXXXXXXXXXXXXX    .                                                                                               ",
"    X...............................o  X...................o    .                                                                                               ",
"    X...............................o  X...................o    .                                                                                               ",
"    X...............................o  X..OO....OO....OO...o    .                                                                                               ",
"    X...............................o  X.OOOO..OOOO..OOOO..o    .                                                                                               ",
"    X...............................o  X.OOOO..OOOO..OOOO..o    .                                                                                               ",
"    X...............................o  X..OO....OO....OO...o    .                                                                                               ",
"    X...............................o  X...................o    .                                                                                               ",
"    X...............................o  X...................o    .                                                                                               ",
"    X...............................o  X...................o    .                                                                                               ",
"    X...............................o  X...................o    .                                                                                               ",
"    ooooooooooooooooooooooooooooooooo  ooooooooooooooooooooo    .                                                                                               ",
"                                                                .                                                                                               ",
"                                                                .                                                                                               ",
"    XXXXXXXXXXXXXXXXXXXXXXXXXXXXXXXXXXXXXXXXXXXXXXXXXXXXXXXX    .                                                                                               ",
"    X......................................................o    .                                                                                               ",
"    X......................................................o    .                                                                                               ",
"    X......................................................o    .                                                                                               ",
"    X......................................................o    .                                                                                               ",
"    X......................................................o    .                                                                                               ",
"    X......................................................o    .                                                                                               ",
"    X......................................................o    .                                                                                               ",
"    X......................................................o    .                                                                                               ",
"    X......................................................o    .                                                                                               ",
"    X......................................................o    .                                                                                               ",
"    X......................................................o    .                                                                                               ",
"    X......................................................o    .                                                                                               ",
"    X......................................................o    .                                                                                               ",
"    X......................................................o    .                                                                                               ",
"    X......................................................o    .                                                                                               ",
"    X......................................................o    .                                                                                               ",
"    X......................................................o    .                                                                                               ",
"    X......................................................o    .                                                                                               ",
"    X......................................................o    .                                                                                               ",
"    X......................................................o    .                                                                                               ",
"    X......................................................o    .                                                                                               ",
"    X......................................................o    .                                                                                               ",
"    X......................................................o    .                                                                                               ",
"    X......................................................o    .                                                                                               ",
"    X......................................................o    .                                                                                               ",
"    X......................................................o    .                                                                                               ",
"    X......................................................o    .                                                                                               ",
"    X......................................................o    .                                                                                               ",
"    X......................................................o    .                                                                                               ",
"    X......................................................o    .                                                                                               ",
"    X......................................................o    .                                                                                               ",
"    X......................................................o    .                                                                                               ",
"    X......................................................o    .                                                                                               ",
"    X......................................................o    .                                                                                               ",
"    X......................................................o    .                                                                                               ",
"    X......................................................o    .                                                                                               ",
"    X......................................................o    .                                                                                               ",
"    X......................................................o    .                                                                                               ",
"    X......................................................o    .                                                                                               ",
"    X......................................................o    .                                                                                               ",
"    oooooooooooooooooooooooooooooooooooooooooooooooooooooooo    .                                                                                               ",
"                                                                .                                                                                               ",
"                                                                .                                                                                               ",
"                                                                .                                                                                               ",
"                                                                .                                                                                               ",
"...............................................................................                                                                                 ",
"..+++...@@@#.#+++#.#+++#.#@@@#.#+++#.#+++#.#+++#.#+++#.#+++#...................                                                                                 ",
".+...+.@...+.@...+.@...+.+...+.+...@.+...@.@...+.+...+.+...+............+......  .$$.  .%%.  .OO.                                                               ",
".+...+.@...+.@...+.@...+.+...+.+...@.+...@.@...+.+...+.+...+.......+....+......  $&$$  %&%%  OOOO                                                               ",
".#@@@#..@@@#.#+++#..+++#.#+++#.#+++#.#+++#..@@@#.#+++#.#+++#..#+...#...+.......  $$$$  %%%%  OOOO   .+#*                                                        ",
".+...+.@...+.+...@.@...+.@...+.@...+.+...+.@...+.+...+.@...+...........+.......  .$$.  .%%.  .OO.                                                               ",
".+...+.@...+.+...@.@...+.@...+.@...+.+...+.@...+.+...+.@...+.......+..+........                                                                                 ",
"..+++...@@@#.#+++#.#+++#..@@@#.#+++#.#+++#..@@@#.#+++#.#+++#.......#..+........                                                                                 ",
"...............................................................................                                                                                 ",
"                                                                                                                                                                ",
"................................................................................................................................................................",
".@+++@.#+++...+++#.#+++..#+++#.#+++#.#+++#.#@@@#..@@@#..@@@#.#@@@#.#@@@..+@@@+.#+++..#+++#.#+++#.#+++#.#+++#.#+++#.#+++#.#@@@#.#@@@#.#@@@#.#@@@#.#@@@#.#+++#....",
".+...+.+...+.+...@.+...+.+...@.+...@.+...@.+...+.@...+.@...+.+...+.+...@.++.++.+...+.+...+.+...+.+...+.+...+.+...@.@.+.@.+...+.+...+.+...+.+...+.+...+.@...+....",
".+...+.+...+.+...@.+...+.+...@.+...@.+...@.+...+.@...+.@...+.+...+.+...@.+.+.+.+...+.+...+.+...+.+...+.+...+.+...@.@.+.@.+...+.+...+.+...+..+.+..+...+.@..+@....",
".#+++#.#+++..#@@@..#@@@#.#+++..#+++..#@#+#.#+++#..@@@#..@@@#.#+++..#@@@..#@@@#.#@@@#.#@@@#.#+++#.#+@@#.#+++..#+++#..@#@..#@@@#.#@@@#.#@@@#...+...#+++#..@+@.....",
".+...+.+...+.+...@.+...+.+...@.+...@.+...+.+...+.@...+.@...+.+...+.+...@.+...+.+...+.+...+.+...@.+.+.+.+...+.@...+.@.+.@.+...+.+...+.+.+.+..+.+..@...+.@+..@....",
".+...+.+...+.+...@.+...+.+...@.+...@.+...+.+...+.@...+.@...+.+...+.+...@.+...+.+...+.+...+.+...@.+..++.+...+.@...+.@.+.@.+...+.+...+.++.++.+...+.@...+.+...@....",
".#@@@#.#+++...+++#.#+++..#+++#.#@@@..#+++#.#@@@#..@@@#.#+++#.#@@@#.#+++#.#@@@#.#@@@#.#+++#.#@@@..#+++#.#@@@#.#+++#..@#@..#++++..+++..#@@@#.#@@@#.#+++#.#+++#....",
"................................................................................................................................................................",
"                                                                                                                                                                ",
"    X...............................o  X...................o    .                                                                                               ",
"     ...............................                                                                                                                            ",
"     ...............................                                                                                                                            ",
"     ...............................                                                                                                                            ",
"     ...............................                                                                                                                            ",
"     ...............................                                                                                                                            ",
"     ...............................                                                                                                                            ",
"     ...............................                                                                                                                            ",
"     ...............................                                                                                                                            ",
"     ...............................                                                                                                                            ",
"                                                                                                                                                                ",
"                                                                                                                                                                ",
"                                                                                                                                                                ",
"                                                                                                                                                                ",
"                                                                                                                                                                ",
"                                                                                                                                                                "};
