/* XPM */
static char * master_xpm[] = {
"64 66 18 1",
" 	c None",
".	c #000000",
"+	c #C300FF",
"@	c #B500F2",
"#	c #A800E5",
"$	c #9E00D8",
"%	c #9200CC",
"&	c #8500BF",
"*	c #7900B2",
"=	c #6E00A5",
"-	c #660099",
";	c #5D008C",
">	c #52007F",
",	c #480072",
"'	c #3E0066",
")	c #37005B",
"!	c #2D004C",
"~	c #25003F",
"                                                                ",
"                                                                ",
"                                                                ",
"                                                                ",
"    ......................................................      ",
"    ......................................................      ",
"    ......................................................      ",
"    ......................................................      ",
"    ......................................................      ",
"    ......................................................      ",
"    ......................................................      ",
"    ......................................................      ",
"    ......................................................      ",
"    ......................................................      ",
"    ......................................................      ",
"    ......................................................      ",
"    ......................................................      ",
"    ......................................................      ",
"    ......................................................      ",
"    ......................................................      ",
"    ......................................................      ",
"    ......................................................      ",
"    ......................................................      ",
"    ......................................................      ",
"    ......................................................      ",
"    ......................................................      ",
"    ......................................................      ",
"    ......................................................      ",
"    ......................................................      ",
"    ......................................................      ",
"    ......................................................      ",
"    ......................................................      ",
"    ......................................................      ",
"    ......................................................      ",
"    ......................................................      ",
"    ......................................................      ",
"    ......................................................      ",
"    ......................................................      ",
"    ......................................................      ",
"    ......................................................      ",
"    ......................................................      ",
"    ......................................................      ",
"    ......................................................      ",
"    ......................................................      ",
"    ......................................................      ",
"    ......................................................      ",
"    ......................................................      ",
"    ......................................................      ",
"    ......................................................      ",
"    ......................................................      ",
"    ......................................................      ",
"    ......................................................      ",
"    ......................................................      ",
"    ......................................................      ",
"    ......................................................      ",
"    ......................................................      ",
"    ......................................................      ",
"    ......................................................      ",
"    ......................................................      ",
"                                                                ",
"                                                                ",
"                                                                ",
"                                                                ",
"                                                                ",
"++@@##$$%%&&**==--;;>>,,''))!!~~                                ",
"++@@##$$%%&&**==--;;>>,,''))!!~~                                "};
