/* XPM */
static char * backlight_on_xpm[] = {
"58 58 6 1",
" 	c None",
".	c #020202",
"+	c #6EC63B s Back0",
"@	c #DEDEDE",
"#	c #6CB237 s Back1",
"$	c #3E463E",
"  ......................................................  ",
" .++++++++++++++++++++++++++++++++++++++++++++++++++++++. ",
".++++++++++++++++++++++++++++++++++++++++++++++++++++++++@",
".++++++++++++++++++++++++++++++++++++++++++++++++++++++++@",
".++++++++++++++++++++++++++++++++++++++++....+....+..+.++@",
".++++++++++++++++++++++++++++++++++++++++..+++..+.+..+.++@",
".++++++++++++++++++++++++++++++++++++++++..+++....+..+.++@",
".++++++######++++++######++++++######++++....+.++++....++@",
".++++#++####++#++#++####++#++#++####++#++++++++++++++++++@",
".++++##++++++##++##++++++##++##++++++##++++++++++++++++++@",
".++++##++++++##++##++++++##++##++++++##++++++###+++###+++@",
".++++##++++++##++##++++++##++##++++++##+++++#+++#+#+++#++@",
".++++##++++++##++##++++++##++##++++++##+++++#+++#+#+++#++@",
".++++##++++++##++##++++++##++##++++++##+++++#+++#+#+++#++@",
".++++##++++++##++##++++++##++##++++++##++++++###+++###+++@",
".++++##++++++##++##++++++##++##++++++##+++++#+++#+#+++#++@",
".++++#++####++#++#++####++#++#++####++#+++++#+++#+#+++#++@",
".++++++######++++++######++++++######+++++++#+++#+#+++#++@",
".++++#++++++++#++#++++++++#++#++++++++#++++++###+++###+++@",
".++++##++++++##++##++++++##++##++++++##++++++++++++++++++@",
".++++##++++++##++##++++++##++##++++++##++++++++++++++++++@",
".++++##++++++##++##++++++##++##++++++##++...+++.+++++++++@",
".++++##++++++##++##++++++##++##++++++##++.+.++.++++++++++@",
".++++##++++++##++##++++++##++##++++++##++...+.+++++++++++@",
".++++##++++++##++##++++++##++##++++++##+++++.+...++++++++@",
".++++#++####++#++#++####++#++#++####++#++++.++.+.++++++++@",
".++++++######++++++######++++++######+++++.+++...++++++++@",
".++++++++++++++++++++++++++++++++++++++++++++++++++++++++@",
".++++$$$$$$$$$$$$$$$$$$$$$$$$$$$$$$$$$$$$$$$$$$$$$$$$$+++@",
".++++$$$$$$$$$$$$$$$$$$$$$$$$$$$$$$$$$$$$$$$$$$$$$$$$$#++@",
".+++++#################################################++@",
".++++++++++++++++++++++++++++++++++++++++++++++++++++++++@",
".++++++++++++++++++++++++++++++++++++++++++++++++++++++++@",
".+++++##+##+##+##+##+##+##+##+##+##+##+##+##+##+##+##++++@",
".++++++++++++++++++++++++++++++++++++++++++++++++++++++++@",
".+++++##+##+##+##+##+##+##+##+##+##+##+##+##+##+##+##++++@",
".++++++++++++++++++++++++++++++++++++++++++++++++++++++++@",
".+++++##+##+##+##+##+##+##+##+##+##+##+##+##+##+##+##++++@",
".++++++++++++++++++++++++++++++++++++++++++++++++++++++++@",
".+++++##+##+##+##+##+##+##+##+##+##+##+##+##+##+##+##++++@",
".++++++++++++++++++++++++++++++++++++++++++++++++++++++++@",
".+++++##+##+##+##+##+##+##+##+##+##+##+##+##+##+##+##++++@",
".++++++++++++++++++++++++++++++++++++++++++++++++++++++++@",
".+++++##+##+##+##+##+##+##+##+##+##+##+##+##+##+##+##++++@",
".++++++++++++++++++++++++++++++++++++++++++++++++++++++++@",
".+++++##+##+##+##+##+##+##+##+##+##+##+##+##+##+##+##++++@",
".++++++++++++++++++++++++++++++++++++++++++++++++++++++++@",
".+++++##+##+##+##+##+##+##+##+##+##+##+##+##+##+##+##++++@",
".++++++++++++++++++++++++++++++++++++++++++++++++++++++++@",
".+++++##+##+##+##+##+##+##+##+##+##+##+##+##+##+##+##++++@",
".++++++++++++++++++++++++++++++++++++++++++++++++++++++++@",
".+++++##+##+##+##+##+##+##+##+##+##+##+##+##+##+##+##++++@",
".++++++++++++++++++++++++++++++++++++++++++++++++++++++++@",
".+++++##+##+##+##+##+##+##+##+##+##+##+##+##+##+##+##++++@",
".++++++++++++++++++++++++++++++++++++++++++++++++++++++++@",
".++++++++++++++++++++++++++++++++++++++++++++++++++++++++@",
" .++++++++++++++++++++++++++++++++++++++++++++++++++++++@ ",
"  @@@@@@@@@@@@@@@@@@@@@@@@@@@@@@@@@@@@@@@@@@@@@@@@@@@@@@  "};
