/* XPM */
static char * month_xpm[] = {
"22 72 4 1",
" 	c #FFFFFFFFFFFF",
".	c #000000000000",
"X	c #514455555144",
"o	c #AEBAAAAAAEBA",
"                      ",
"   .     .....  X...  ",
"  o.    o.     o.   . ",
"  .o    .....  .    . ",
"  .     .      .   .  ",
" X.... X....  X.....  ",
"                      ",
"  .  o.  .    .   ... ",
" o.  .  o..  o.  .   .",
" .o o.  .  . .o  .  . ",
" .  .o o.   ..  .  o. ",
" X...  .     .  ....  ",
"                      ",
"   ....X  ....X  .....",
"  o.   . o.   . o.    ",
"  .....  .....  ..... ",
"  .   .  .   .  .     ",
" X....  X    . X....  ",
"                      ",
"   X...   .  o.  ....X",
"  o.   . o.  .  o.   .",
"  .    . .o o.  ..... ",
"  .   .  .  .   .   . ",
" X....   X..   X....  ",
"                      ",
"    .o . .   .  ..... ",
"   o. .o .o .o o.     ",
"   . .   o. .  ....   ",
"  o. o.   ..   .      ",
"  .   .o  .   X....   ",
"                      ",
"   ...   .....  ....X ",
"  .     o.     o.   . ",
"  .     ....   .....  ",
" .      .      .   .  ",
" ..... X....  X    .  ",
"                      ",
"    ...   ....   ...  ",
"   .     o.     .     ",
"   .     ....   .     ",
"  .      .     .      ",
"  ..... X....  .....  ",
"                      ",
"  o....  ....X  X...X ",
"  .     o.   . o.   . ",
"  o..o  .....  .....  ",
"     .  .   . o.      ",
" ....o X    . .       ",
"                      ",
"   .....   .    ....X ",
"     o.    .   o.   . ",
"    .o    . .  .....  ",
"  o.o    ....  .   .  ",
" o..... .   . X    .  ",
"                      ",
"    ....X    .     .  ",
"   o.   .   o.    o.  ",
"   .....    .     .o  ",
"   .   .   o.  .  .   ",
"  X    .   .    ..    ",
"                      ",
"     .     .  o....   ",
"    o.    o.  .       ",
"    .o    .   o..o    ",
"    .    o.      .    ",
"   X.... .   ....o    ",
"                      ",
"   X...X  ....X   ... ",
"  o.   . o.   .  .   .",
"  .....  .....   .  . ",
" o.      .   .  .  o. ",
" .      X    .  ....  "};
