/* XPM */
static char * wmmixer_xpm[] = {
"64 64 10 1",
" 	c None",
".	c #000000",
"+	c #AEAAAE",
"@	c #282828",
"#	c #202020",
"$	c #F7F3FF",
"%	c #86828E",
"&	c #FF0000",
"*	c #FA0808",
"=	c #FE0000",
"                                                                ",
"                                                                ",
"                                                                ",
"                                                                ",
"    .........................+     ........................+    ",
"    .@@@@@@@@@@@@@@@@@@@@@@@@+     .@@@@@@@@@@@@@@@@@@@@@@@+    ",
"    .@@@@@@@@@@@@@@@@@@@@@@@@+     .@@@@@@@@@@@@@@@@@@@@@@@+    ",
"    .@@@@@@@@@@@@@@@@@@@@@@@@+     .@@@@@@@@@@@@@@@@@@@@@@@+    ",
"    .@@@@@@@@@@@@@@@@@@@@@@@@+     .@@@@@@@@@@@@@@@@@@@@@@@+    ",
"    .@@@@@@@@@@@@@@@@@@@@@@@@+     .@@@@@@@@@@@@@@@@@@@@@@@+    ",
"    .@@@@@@@@@@@@@@@@@@@@@@@@+     .@@@@@@@@@@@@@@@@@@@@@@@+    ",
"    .@@@@@@@@@@@@@@@@@@@@@@@@+     .@@@@@@@@@@@@@@@@@@@@@@@+    ",
"    .@@@@@@@@@@@@@@@@@@@@@@@@+     .@@@@@@@@@@@@@@@@@@@@@@@+    ",
"    .@@@@@@@@@@@@@@@@@@@@@@@@+     .@@@@@@@@@@@@@@@@@@@@@@@+    ",
"    .@@@@@@@@@@@@@@@@@@@@@@@@+     .@@@@@@@@@@@@@@@@@@@@@@@+    ",
"    .@@@@@@@@@@@@@@@@@@@@@@@@+     .@@@@@@@@@@@@@@@@@@@@@@@+    ",
"    .@@@@@@@@@@@@@@@@@@@@@@@@+     .@@@@@@@@@@@@@@@@@@@@@@@+    ",
"    .@@@@@@@@@@@@@@@@@@@@@@@@+     .@@@@@@@@@@@@@@@@@@@@@@@+    ",
"    .@@@@@@@@@@@@@@@@@@@@@@@@+     .@@@@@@@@@@@@@@@@@@@@@@@+    ",
"    .@@@@@@@@@@@@@@@@@@@@@@@@+     .@@@@@@@@@@@@@@@@@@@@@@@+    ",
"    .@@@@@@@@@@@@@@@@@@@@@@@@+     .@@@@@@@@@@@@@@@@@@@@@@@+    ",
"    .@@@@@@@@@@@@@@@@@@@@@@@@+     .#@@@@@@@@@@@@@@@@@@@@@@+    ",
"    .@@@@@@@@@@@@@@@@@@@@@@@@+     .@@@@@@@@@@@@@@@@@@@@@@@+    ",
"    .@@@@@@@@@@@@@@@@@@@@@@@@+     .@@@@@@@@@@@@@@@@@@@@@@@+    ",
"    .@@@@@@@@@@@@@@@@@@@@@@@@+     .@@@@@@@@@@@@@@@@@@@@@@@+    ",
"    .@@@@@@@@@@@@@@@@@@@@@@@@+     .@@@@@@@@@@@@@@@@@@@@@@@+    ",
"    .@@@@@@@@@@@@@@@@@@@@@@@@+     .@@@@@@@@@@@@@@@@@@@@@@@+    ",
"    ++++++++++++++++++++++++++     .@@@@@@@@@@@@@@@@@@@@@@@+    ",
"                                   .@@@@@@@@@@@@@@@@@@@@@@@+    ",
"                                   .@@@@@@@@@@@@@@@@@@@@@@@+    ",
"                                   .@@@@@@@@@@@@@@@@@@@@@@@+    ",
"                                   .@@@@@@@@@@@@@@@@@@@@@@@+    ",
"                                   .@@@@@@@@@@@@@@@@@@@@@@@+    ",
"    ..........................     .@@@@@@@@@@@@@@@@@@@@@@@+    ",
"    .$$$$$$$$$$$%$$$$$$$$$$$%+     .#@@@@@@@@@@@@@@@@@@@@@@+    ",
"    .$++++++++++.$++++++++++.+     .#@@@@@@@@@@@@@@@@@@@@@@+    ",
"    .$++++++.+++.$+++.++++++.+     .#@@@@@@@@@@@@@@@@@@@@@@+    ",
"    .$+++++..+++.$+++..+++++.+     .@@@@@@@@@@@@@@@@@@@@@@@+    ",
"    .$++++...+++.$+++...++++.+     .@@@@@@@@@@@@@@@@@@@@@@@+    ",
"    .$+++....+++.$+++....+++.+     .@@@@@@@@@@@@@@@@@@@@@@@+    ",
"    .$++++...+++.$+++...++++.+     .@@@@@@@@@@@@@@@@@@@@@@@+    ",
"    .$+++++..+++.$+++..+++++.+     .@@@@@@@@@@@@@@@@@@@@@@@+    ",
"    .$++++++.+++.$+++.++++++.+     .@@@@@@@@@@@@@@@@@@@@@@@+    ",
"    .$++++++++++.$++++++++++.+     .@@@@@@@@@@@@@@@@@@@@@@@+    ",
"    .%...........%...........+     .@@@@@@@@@@@@@@@@@@@@@@@+    ",
"    ++++++++++++++++++++++++++     .@@@@@@@@@@@@@@@@@@@@@@@+    ",
"    ..........................     .@@@@@@@@@@@@@@@@@@@@@@@+    ",
"    .$$$$$$$$$$$%$$$$$$$$$$$%+     .@@@@@@@@@@@@@@@@@@@@@@@+    ",
"    .$++++++++++.$&++++++++&.+     .@@@@@@@@@@@@@@@@@@@@@@@+    ",
"    .$++++++++++.$+&++++..&+.+     .@@@@@@@@@@@@@@@@@@@@@@@+    ",
"    .$+++*&&=+++.$++&++.+.++.+     .@@@@@@@@@@@@@@@@@@@@@@@+    ",
"    .$++**=*&=++.$++...+&.++.+     .@@@@@@@@@@@@@@@@@@@@@@@+    ",
"    .$++*===*=++.$++.+&&+.++.+     .@@@@@@@@@@@@@@@@@@@@@@@+    ",
"    .$++*===&=++.$++...+&.++.+     .@@@@@@@@@@@@@@@@@@@@@@@+    ",
"    .$+++*=&=+++.$++&++.+.++.+     .@@@@@@@@@@@@@@@@@@@@@@@+    ",
"    .$++++++++++.$+&++++..&+.+     .@@@@@@@@@@@@@@@@@@@@@@@+    ",
"    .$++++++++++.$&++++++++&.+     .@@@@@@@@@@@@@@@@@@@@@@@+    ",
"    .%...........%...........+     .@@@@@@@@@@@@@@@@@@@@@@@+    ",
"    ++++++++++++++++++++++++++     +++++++++++++++++++++++++    ",
"                                                                ",
"                                                                ",
"                                                                ",
"                                                                ",
"                                                                "};
