/* XPM */
static char * wmtop_rainbow_xpm[] = {
"64 109 62 1",
".      c #0000FF",
" 	c None",
"+	c #202020",
"@	c #C7C5C8",
"#	c #20B2AE",
"$	c #004941",
"%	c #007D71",
"&	c #00FF00",
"*	c #09FF00",
"=	c #12FF00",
"-	c #1BFF00",
";	c #24FF00",
">	c #2DFF00",
",	c #36FF00",
"'	c #3FFF00",
")	c #48FF00",
"!	c #51FF00",
"~	c #5BFF00",
"{	c #64FF00",
"]	c #6DFF00",
"^	c #76FF00",
"/	c #7FFF00",
"(	c #88FF00",
"_	c #91FF00",
":	c #9AFF00",
"<	c #A3FF00",
"[	c #ADFF00",
"}	c #B6FF00",
"|	c #BFFF00",
"1	c #C8FF00",
"2	c #D1FF00",
"3	c #DAFF00",
"4	c #E3FF00",
"5	c #ECFF00",
"6	c #F5FF00",
"7	c #FFFE00",
"8	c #FFF500",
"9	c #FFEC00",
"0	c #FFE300",
"a	c #FFDA00",
"b	c #FFD100",
"c	c #FFC800",
"d	c #FFBF00",
"e	c #FFB600",
"f	c #FFAC00",
"g	c #FFA300",
"h	c #FF9A00",
"i	c #FF9100",
"j	c #FF8800",
"k	c #FF7F00",
"l	c #FF7600",
"m	c #FF6D00",
"n	c #FF6400",
"o	c #FF5A00",
"p	c #FF5100",
"q	c #FF4800",
"r	c #FF3F00",
"s	c #FF3600",
"t	c #FF2D00",
"u	c #FF2400",
"v	c #FF1B00",
"w	c #FF1200",
"................................................................",
"................................................................",
"................................................................",
"...+++++++++++++++++++++++++++++++++++++++++++++++++++++++++@...",
"...+++++++++++++++++++++++++++++++++++++++++++++++++++++++++@...",
"...+++++++++++++++++++++++++++++++++++++++++++++++++++++++++@...",
"...+++++++++++++++++++++++++++++++++++++++++++++++++++++++++@...",
"...+++++++++++++++++++++++++++++++++++++++++++++++++++++++++@...",
"...+++++++++++++++++++++++++++++++++++++++++++++++++++++++++@...",
"...+++++++++++++++++++++++++++++++++++++++++++++++++++++++++@...",
"...+++++++++++++++++++++++++++++++++++++++++++++++++++++++++@...",
"...+++++++++++++++++++++++++++++++++++++++++++++++++++++++++@...",
"...+++++++++++++++++++++++++++++++++++++++++++++++++++++++++@...",
"...+++++++++++++++++++++++++++++++++++++++++++++++++++++++++@...",
"...+++++++++++++++++++++++++++++++++++++++++++++++++++++++++@...",
"...+++++++++++++++++++++++++++++++++++++++++++++++++++++++++@...",
"...+++++++++++++++++++++++++++++++++++++++++++++++++++++++++@...",
"...+++++++++++++++++++++++++++++++++++++++++++++++++++++++++@...",
"...+++++++++++++++++++++++++++++++++++++++++++++++++++++++++@...",
"...+++++++++++++++++++++++++++++++++++++++++++++++++++++++++@...",
"...@@@@@@@@@@@@@@@@@@@@@@@@@@@@@@@@@@@@@@@@@@@@@@@@@@@@@@@@@@...",
"................................................................",
"................................................................",
"...+++++++++++++++++++++++++++++++++++++++++++++++++++++++++@...",
"...+++++++++++++++++++++++++++++++++++++++++++++++++++++++++@...",
"...+++++++++++++++++++++++++++++++++++++++++++++++++++++++++@...",
"...+++++++++++++++++++++++++++++++++++++++++++++++++++++++++@...",
"...+++++++++++++++++++++++++++++++++++++++++++++++++++++++++@...",
"...+++++++++++++++++++++++++++++++++++++++++++++++++++++++++@...",
"...+++++++++++++++++++++++++++++++++++++++++++++++++++++++++@...",
"...+++++++++++++++++++++++++++++++++++++++++++++++++++++++++@...",
"...+++++++++++++++++++++++++++++++++++++++++++++++++++++++++@...",
"...+++++++++++++++++++++++++++++++++++++++++++++++++++++++++@...",
"...+++++++++++++++++++++++++++++++++++++++++++++++++++++++++@...",
"...+++++++++++++++++++++++++++++++++++++++++++++++++++++++++@...",
"...+++++++++++++++++++++++++++++++++++++++++++++++++++++++++@...",
"...+++++++++++++++++++++++++++++++++++++++++++++++++++++++++@...",
"...+++++++++++++++++++++++++++++++++++++++++++++++++++++++++@...",
"...+++++++++++++++++++++++++++++++++++++++++++++++++++++++++@...",
"...+++++++++++++++++++++++++++++++++++++++++++++++++++++++++@...",
"...@@@@@@@@@@@@@@@@@@@@@@@@@@@@@@@@@@@@@@@@@@@@@@@@@@@@@@@@@@...",
"................................................................",
"................................................................",
"...+++++++++++++++++++++++++++++++++++++++++++++++++++++++++@...",
"...+++++++++++++++++++++++++++++++++++++++++++++++++++++++++@...",
"...+++++++++++++++++++++++++++++++++++++++++++++++++++++++++@...",
"...+++++++++++++++++++++++++++++++++++++++++++++++++++++++++@...",
"...+++++++++++++++++++++++++++++++++++++++++++++++++++++++++@...",
"...+++++++++++++++++++++++++++++++++++++++++++++++++++++++++@...",
"...+++++++++++++++++++++++++++++++++++++++++++++++++++++++++@...",
"...+++++++++++++++++++++++++++++++++++++++++++++++++++++++++@...",
"...+++++++++++++++++++++++++++++++++++++++++++++++++++++++++@...",
"...+++++++++++++++++++++++++++++++++++++++++++++++++++++++++@...",
"...+++++++++++++++++++++++++++++++++++++++++++++++++++++++++@...",
"...+++++++++++++++++++++++++++++++++++++++++++++++++++++++++@...",
"...+++++++++++++++++++++++++++++++++++++++++++++++++++++++++@...",
"...+++++++++++++++++++++++++++++++++++++++++++++++++++++++++@...",
"...+++++++++++++++++++++++++++++++++++++++++++++++++++++++++@...",
"...+++++++++++++++++++++++++++++++++++++++++++++++++++++++++@...",
"...+++++++++++++++++++++++++++++++++++++++++++++++++++++++++@...",
"...@@@@@@@@@@@@@@@@@@@@@@@@@@@@@@@@@@@@@@@@@@@@@@@@@@@@@@@@@@...",
"................................................................",
"................................................................",
"................................................................",
"++++++++++++++++++++++++++++++++++++++++++++++++++++++++++++++++",
"++###+++$$$%+%###%+%###%+%$$$%+%###%+%###%+%###%+%###%+%###%++++",
"+#+++#+$+++#+$+++#+$+++#+#+++#+#+++$+#+++$+$+++#+#+++#+#+++#++++",
"+#+++#+$+++#+$+++#+$+++#+#+++#+#+++$+#+++$+$+++#+#+++#+#+++#++++",
"+%$$$%++$$$%+%###%++###%+%###%+%###%+%###%++$$$%+$###$+%###%++++",
"+#+++#+$+++#+#+++$+$+++#+$+++#+$+++#+#+++#+$+++#+#+++#+$+++#++++",
"+#+++#+$+++#+#+++$+$+++#+$+++#+$+++#+#+++#+$+++#+#+++#+$+++#++++",
"++###+++$$$#+%###%+%###%++$$$%+%###%+%###%++$$$%+%###%+%###%++++",
"++++++++++++++++++++++++++++++++++++++++++++++++++++++++++++++++",
"+$###$+%###++%###%+%###++%###%+%###%+%###%+%$$$%++$$$%++$$$%++++",
"+#+++#+#+++#+#+++$+#+++#+#+++$+#+++$+#+++$+#+++#+$+++#+$+++#++++",
"+#+++#+#+++#+#+++$+#+++#+#+++$+#+++$+#+++$+#+++#+$+++#+$+++#++++",
"+%###%+%###++%$$$++%$$$%+%###++%###++%$##%+%###%++$$$%++$$$%++++",
"+#+++#+#+++#+#+++$+#+++#+#+++$+#+++$+#+++#+#+++#+$+++#+$+++#++++",
"+#+++#+#+++#+#+++$+#+++#+#+++$+#+++$+#+++#+#+++#+$+++#+$+++#++++",
"+%$$$%+%###++%###%+####++%###%+#$$$++%###%+%$$$%++$$$#+%###%++++",
"++++++++++++++++++++++++++++++++++++++++++++++++++++++++++++++++",
"+%$$$%+%$$$++#$$$#+%###++%###%+%###%+%###%+%###%+%###%+%###%++++",
"+#+++#+#+++$+##+##+#+++#+#+++#+#+++#+#+++#+#+++#+#+++$+$+#+$++++",
"+#++#$+#+++$+#+#+#+#+++#+#+++#+#+++#+#+++#+#+++#+#+++$+$+#+$++++",
"+%##$++%$$$++%$$$%+%$$$%+%$$$%+%###%+%#$$%+%###++%###%++$%$+++++",
"+#++#$+#+++$+#+++#+#+++#+#+++#+#+++$+#+#+#+#+++#+$+++#+$+#+$++++",
"+#+++#+#+++$+#+++#+#+++#+#+++#+#+++$+#++##+#+++#+$+++#+$+#+$++++",
"+%$$$%+%###$+%$$$%+#$$$#+%###%+%$$$++%###%+%$$$%+%###%++$%$+++++",
"++++++++++++++++++++++++++++++++++++++++++++++++++++++++++++++++",
"+%$$$%+%$$$%+%$$$%+%$$$%+%$$$%+%###%++$$$+++++++++++++++++++++++",
"+#+++#+#+++#+#+++#+#+++#+#+++#+$+++#+$+++$++++++++++++++++++++++",
"+#+++#+#+++#+#+++#+$#+#$+#+++#+$++#$+$+++$++++++++++++++++++++++",
"+%$$$%+%$$$%+%$$$%++$#$++%###%++$#$+++$$$+++++++++++++++++++++++",
"+#+++#+#+++#+#+#+#+$#+#$+$+++#+$#++$+$+++$++++++++++++++++++++++",
"+#+++#+#+++#+##+##+#+++#+$+++#+#+++$+$+++$++++++++++++++++++++++",
"+$####++###++#$$$#+%$$$#%%###%+%###%++$$$+++++++++++++++++++++++",
"++++++++++++++++++++++++++++++++++++++++++++++++++++++++++++++++",
"&*=-;>,')!~{]^/(_:<[}|1234567890abcdefghijklmnopqrstuvw.........",
"&*=-;>,')!~{]^/(_:<[}|1234567890abcdefghijklmnopqrstuvw.........",
"&*=-;>,')!~{]^/(_:<[}|1234567890abcdefghijklmnopqrstuvw.........",
"&*=-;>,')!~{]^/(_:<[}|1234567890abcdefghijklmnopqrstuvw.........",
"&*=-;>,')!~{]^/(_:<[}|1234567890abcdefghijklmnopqrstuvw.........",
"&*=-;>,')!~{]^/(_:<[}|1234567890abcdefghijklmnopqrstuvw.........",
"+++++++++++++++++++++++++++++++++++++++++++++++++++++++.........",
"+++++++++++++++++++++++++++++++++++++++++++++++++++++++.........",
"+++++++++++++++++++++++++++++++++++++++++++++++++++++++.........",
"+++++++++++++++++++++++++++++++++++++++++++++++++++++++.........",
"+++++++++++++++++++++++++++++++++++++++++++++++++++++++.........",
"+++++++++++++++++++++++++++++++++++++++++++++++++++++++........."};
