/* XPM */
static char * wmtop_neon1_xpm[] = {
"64 109 60 1",
".      c #0000FF",
" 	c None",
"+	c #000000",
"@	c #C7C5C8",
"#	c #218DBA",
"$	c #168FD9",
"%	c #1A8FD6",
"&	c #1E90D2",
"*	c #2291CF",
"=	c #2592CB",
"-	c #2992C7",
";	c #2D93C4",
">	c #3194C0",
",	c #3495BC",
"'	c #3895B9",
")	c #3C96B5",
"!	c #3F97B1",
"~	c #4398AE",
"{	c #4798AA",
"]	c #4B99A6",
"^	c #4E9AA3",
"/	c #529B9F",
"(	c #569B9B",
"_	c #5A9C98",
":	c #5D9D94",
"<	c #619E90",
"[	c #659F8D",
"}	c #699F89",
"|	c #6CA085",
"1	c #70A182",
"2	c #74A27E",
"3	c #77A27A",
"4	c #7BA377",
"5	c #7FA473",
"6	c #83A570",
"7	c #86A56C",
"8	c #8AA668",
"9	c #8EA765",
"0	c #91A861",
"a	c #95A85D",
"b	c #99A95A",
"c	c #9DAA56",
"d	c #A0AB52",
"e	c #A4AC4F",
"f	c #A8AC4B",
"g	c #ACAD47",
"h	c #AFAE44",
"i	c #B3AF40",
"j	c #B7AF3C",
"k	c #BBB039",
"l	c #BEB135",
"m	c #C2B231",
"n	c #C6B22E",
"o	c #C9B32A",
"p	c #CDB426",
"q	c #D1B523",
"r	c #D5B51F",
"s	c #D8B61B",
"t	c #DCB718",
"u	c #E0B814",
"................................................................",
"................................................................",
"................................................................",
"...+++++++++++++++++++++++++++++++++++++++++++++++++++++++++@...",
"...+++++++++++++++++++++++++++++++++++++++++++++++++++++++++@...",
"...+++++++++++++++++++++++++++++++++++++++++++++++++++++++++@...",
"...+++++++++++++++++++++++++++++++++++++++++++++++++++++++++@...",
"...+++++++++++++++++++++++++++++++++++++++++++++++++++++++++@...",
"...+++++++++++++++++++++++++++++++++++++++++++++++++++++++++@...",
"...+++++++++++++++++++++++++++++++++++++++++++++++++++++++++@...",
"...+++++++++++++++++++++++++++++++++++++++++++++++++++++++++@...",
"...+++++++++++++++++++++++++++++++++++++++++++++++++++++++++@...",
"...+++++++++++++++++++++++++++++++++++++++++++++++++++++++++@...",
"...+++++++++++++++++++++++++++++++++++++++++++++++++++++++++@...",
"...+++++++++++++++++++++++++++++++++++++++++++++++++++++++++@...",
"...+++++++++++++++++++++++++++++++++++++++++++++++++++++++++@...",
"...+++++++++++++++++++++++++++++++++++++++++++++++++++++++++@...",
"...+++++++++++++++++++++++++++++++++++++++++++++++++++++++++@...",
"...+++++++++++++++++++++++++++++++++++++++++++++++++++++++++@...",
"...+++++++++++++++++++++++++++++++++++++++++++++++++++++++++@...",
"...@@@@@@@@@@@@@@@@@@@@@@@@@@@@@@@@@@@@@@@@@@@@@@@@@@@@@@@@@@...",
"................................................................",
"................................................................",
"...+++++++++++++++++++++++++++++++++++++++++++++++++++++++++@...",
"...+++++++++++++++++++++++++++++++++++++++++++++++++++++++++@...",
"...+++++++++++++++++++++++++++++++++++++++++++++++++++++++++@...",
"...+++++++++++++++++++++++++++++++++++++++++++++++++++++++++@...",
"...+++++++++++++++++++++++++++++++++++++++++++++++++++++++++@...",
"...+++++++++++++++++++++++++++++++++++++++++++++++++++++++++@...",
"...+++++++++++++++++++++++++++++++++++++++++++++++++++++++++@...",
"...+++++++++++++++++++++++++++++++++++++++++++++++++++++++++@...",
"...+++++++++++++++++++++++++++++++++++++++++++++++++++++++++@...",
"...+++++++++++++++++++++++++++++++++++++++++++++++++++++++++@...",
"...+++++++++++++++++++++++++++++++++++++++++++++++++++++++++@...",
"...+++++++++++++++++++++++++++++++++++++++++++++++++++++++++@...",
"...+++++++++++++++++++++++++++++++++++++++++++++++++++++++++@...",
"...+++++++++++++++++++++++++++++++++++++++++++++++++++++++++@...",
"...+++++++++++++++++++++++++++++++++++++++++++++++++++++++++@...",
"...+++++++++++++++++++++++++++++++++++++++++++++++++++++++++@...",
"...+++++++++++++++++++++++++++++++++++++++++++++++++++++++++@...",
"...@@@@@@@@@@@@@@@@@@@@@@@@@@@@@@@@@@@@@@@@@@@@@@@@@@@@@@@@@@...",
"................................................................",
"................................................................",
"...+++++++++++++++++++++++++++++++++++++++++++++++++++++++++@...",
"...+++++++++++++++++++++++++++++++++++++++++++++++++++++++++@...",
"...+++++++++++++++++++++++++++++++++++++++++++++++++++++++++@...",
"...+++++++++++++++++++++++++++++++++++++++++++++++++++++++++@...",
"...+++++++++++++++++++++++++++++++++++++++++++++++++++++++++@...",
"...+++++++++++++++++++++++++++++++++++++++++++++++++++++++++@...",
"...+++++++++++++++++++++++++++++++++++++++++++++++++++++++++@...",
"...+++++++++++++++++++++++++++++++++++++++++++++++++++++++++@...",
"...+++++++++++++++++++++++++++++++++++++++++++++++++++++++++@...",
"...+++++++++++++++++++++++++++++++++++++++++++++++++++++++++@...",
"...+++++++++++++++++++++++++++++++++++++++++++++++++++++++++@...",
"...+++++++++++++++++++++++++++++++++++++++++++++++++++++++++@...",
"...+++++++++++++++++++++++++++++++++++++++++++++++++++++++++@...",
"...+++++++++++++++++++++++++++++++++++++++++++++++++++++++++@...",
"...+++++++++++++++++++++++++++++++++++++++++++++++++++++++++@...",
"...+++++++++++++++++++++++++++++++++++++++++++++++++++++++++@...",
"...+++++++++++++++++++++++++++++++++++++++++++++++++++++++++@...",
"...@@@@@@@@@@@@@@@@@@@@@@@@@@@@@@@@@@@@@@@@@@@@@@@@@@@@@@@@@@...",
"................................................................",
"................................................................",
"................................................................",
"++++++++++++++++++++++++++++++++++++++++++++++++++++++++++++++++",
"++###++++#++++###++#####++++#++#####++###++#####++###+++###+++++",
"+#+++#++##+++#+++#++++#++++##++#+++++#+++#+++++#+#+++#+#+++#++++",
"+#+++#+#+#+++++++#+++#++++#+#++#+##++#++++++++#++#+++#+#+++#++++",
"+#+++#+++#++++++#+++###++#++#++##++#+####++++#++++###+++####++++",
"+#+++#+++#+++++#+++++++#+#####+++++#+#+++#+++#+++#+++#+++++#++++",
"+#+++#+++#++++#++++#+++#++++#++#+++#+#+++#++#++++#+++#+#+++#++++",
"++###++#####+#####++###+++++#+++###+++###+++#+++++###+++###+++++",
"++++++++++++++++++++++++++++++++++++++++++++++++++++++++++++++++",
"++###++####+++###++####++####+++####++###++#+++#+++#++++++#+++++",
"+#+++#+#+++#+#+++#+#+++#+#++++++#++++#+++#+#+++#+++#++++++#+++++",
"+#+++#+#+++#+#+++++#+++#+#++++++#++++#+++++#+++#+++#++++++#+++++",
"+#+++#+####++#+++++#+++#+#++++++#++++#+++++#+++#+++#++++++#+++++",
"+#####+#+++#+#+++++#+++#+###++++###++#++##+#####+++#++++++#+++++",
"+#+++#+#+++#+#+++#+#+++#+#++++++#++++#+++#+#+++#+++#+++#++#+++++",
"+#+++#+####+++###++####++#####++#+++++###++#+++#+++#++++##++++++",
"++++++++++++++++++++++++++++++++++++++++++++++++++++++++++++++++",
"+#+++#++#++++#+++#+#+++#++###++####+++###++####+++###++#####++++",
"+#+++#++#++++#+++#+#+++#+#+++#+#+++#+#+++#+#+++#+#+++#+++#++++++",
"+#+++#++#++++##+##+#+++#+#+++#+#+++#+#+++#+#+++#+#+++++++#++++++",
"+#++#+++#++++#+#+#+##++#+#+++#+#+++#+#+++#+#+++#++###++++#++++++",
"+###++++#++++#+#+#+#+#+#+#+++#+####++#+#+#+####++++++#+++#++++++",
"+#++#+++#++++#+++#+#++##+#+++#+#+++++#++##+#+++#+#+++#+++#++++++",
"+#+++#++####+#+++#+#+++#++###++#++++++###++#+++#++###++++#++++++",
"+++++++++++++++++++++++++++++++++++++++++#++++++++++++++++++++++",
"+#+++#+#+++#+#+++#+#+++#+#+++#+#####++++++++++++++++++++++++++++",
"+#+++#+#+++#+#+++#+#+++#+#+++#+++++#++++++++++++++++++++++++++++",
"+#+++#+#+++#+#+++#+#+++#+#+++#++++#+++++++++++++++++++++++++++++",
"+#+++#+#+++#+#+++#++#+#++#+++#+++#++++++++++++++++++++++++++++++",
"+#+++#+#+++#+#+#+#+++#++++###+++#+++++++++++++++++++++++++++++++",
"+#+++#++#+#++#+#+#++#+#++++#+++#++++++++++++++++++++++++++++++++",
"++###++++#+++##+##+#+++#+++#+++#####++++++++++++++++++++++++++++",
"++++++++++++++++++++++++++++++++++++++++++++++++++++++++++++++++",
"$%&*=-;>,')!~{]^/(_:<[}|1234567890abcdefghijklmnopqrstu.........",
"$%&*=-;>,')!~{]^/(_:<[}|1234567890abcdefghijklmnopqrstu.........",
"$%&*=-;>,')!~{]^/(_:<[}|1234567890abcdefghijklmnopqrstu.........",
"$%&*=-;>,')!~{]^/(_:<[}|1234567890abcdefghijklmnopqrstu.........",
"$%&*=-;>,')!~{]^/(_:<[}|1234567890abcdefghijklmnopqrstu.........",
"$%&*=-;>,')!~{]^/(_:<[}|1234567890abcdefghijklmnopqrstu.........",
"+++++++++++++++++++++++++++++++++++++++++++++++++++++++.........",
"+++++++++++++++++++++++++++++++++++++++++++++++++++++++.........",
"+++++++++++++++++++++++++++++++++++++++++++++++++++++++.........",
"+++++++++++++++++++++++++++++++++++++++++++++++++++++++.........",
"+++++++++++++++++++++++++++++++++++++++++++++++++++++++.........",
"+++++++++++++++++++++++++++++++++++++++++++++++++++++++........."};
