/* XPM */
static char * wmtop_lcd_xpm[] = {
"64 109 6 1",
".      c #0000FF",
" 	c None",
"+	c #8E8E69",
"@	c #C7C5C8",
"#	c #000000",
"$	c #616551",
"................................................................",
"................................................................",
"................................................................",
"...+++++++++++++++++++++++++++++++++++++++++++++++++++++++++@...",
"...+++++++++++++++++++++++++++++++++++++++++++++++++++++++++@...",
"...+++++++++++++++++++++++++++++++++++++++++++++++++++++++++@...",
"...+++++++++++++++++++++++++++++++++++++++++++++++++++++++++@...",
"...+++++++++++++++++++++++++++++++++++++++++++++++++++++++++@...",
"...+++++++++++++++++++++++++++++++++++++++++++++++++++++++++@...",
"...+++++++++++++++++++++++++++++++++++++++++++++++++++++++++@...",
"...+++++++++++++++++++++++++++++++++++++++++++++++++++++++++@...",
"...+++++++++++++++++++++++++++++++++++++++++++++++++++++++++@...",
"...+++++++++++++++++++++++++++++++++++++++++++++++++++++++++@...",
"...+++++++++++++++++++++++++++++++++++++++++++++++++++++++++@...",
"...+++++++++++++++++++++++++++++++++++++++++++++++++++++++++@...",
"...+++++++++++++++++++++++++++++++++++++++++++++++++++++++++@...",
"...+++++++++++++++++++++++++++++++++++++++++++++++++++++++++@...",
"...+++++++++++++++++++++++++++++++++++++++++++++++++++++++++@...",
"...+++++++++++++++++++++++++++++++++++++++++++++++++++++++++@...",
"...+++++++++++++++++++++++++++++++++++++++++++++++++++++++++@...",
"...@@@@@@@@@@@@@@@@@@@@@@@@@@@@@@@@@@@@@@@@@@@@@@@@@@@@@@@@@@...",
"................................................................",
"................................................................",
"...+++++++++++++++++++++++++++++++++++++++++++++++++++++++++@...",
"...+++++++++++++++++++++++++++++++++++++++++++++++++++++++++@...",
"...+++++++++++++++++++++++++++++++++++++++++++++++++++++++++@...",
"...+++++++++++++++++++++++++++++++++++++++++++++++++++++++++@...",
"...+++++++++++++++++++++++++++++++++++++++++++++++++++++++++@...",
"...+++++++++++++++++++++++++++++++++++++++++++++++++++++++++@...",
"...+++++++++++++++++++++++++++++++++++++++++++++++++++++++++@...",
"...+++++++++++++++++++++++++++++++++++++++++++++++++++++++++@...",
"...+++++++++++++++++++++++++++++++++++++++++++++++++++++++++@...",
"...+++++++++++++++++++++++++++++++++++++++++++++++++++++++++@...",
"...+++++++++++++++++++++++++++++++++++++++++++++++++++++++++@...",
"...+++++++++++++++++++++++++++++++++++++++++++++++++++++++++@...",
"...+++++++++++++++++++++++++++++++++++++++++++++++++++++++++@...",
"...+++++++++++++++++++++++++++++++++++++++++++++++++++++++++@...",
"...+++++++++++++++++++++++++++++++++++++++++++++++++++++++++@...",
"...+++++++++++++++++++++++++++++++++++++++++++++++++++++++++@...",
"...+++++++++++++++++++++++++++++++++++++++++++++++++++++++++@...",
"...@@@@@@@@@@@@@@@@@@@@@@@@@@@@@@@@@@@@@@@@@@@@@@@@@@@@@@@@@@...",
"................................................................",
"................................................................",
"...+++++++++++++++++++++++++++++++++++++++++++++++++++++++++@...",
"...+++++++++++++++++++++++++++++++++++++++++++++++++++++++++@...",
"...+++++++++++++++++++++++++++++++++++++++++++++++++++++++++@...",
"...+++++++++++++++++++++++++++++++++++++++++++++++++++++++++@...",
"...+++++++++++++++++++++++++++++++++++++++++++++++++++++++++@...",
"...+++++++++++++++++++++++++++++++++++++++++++++++++++++++++@...",
"...+++++++++++++++++++++++++++++++++++++++++++++++++++++++++@...",
"...+++++++++++++++++++++++++++++++++++++++++++++++++++++++++@...",
"...+++++++++++++++++++++++++++++++++++++++++++++++++++++++++@...",
"...+++++++++++++++++++++++++++++++++++++++++++++++++++++++++@...",
"...+++++++++++++++++++++++++++++++++++++++++++++++++++++++++@...",
"...+++++++++++++++++++++++++++++++++++++++++++++++++++++++++@...",
"...+++++++++++++++++++++++++++++++++++++++++++++++++++++++++@...",
"...+++++++++++++++++++++++++++++++++++++++++++++++++++++++++@...",
"...+++++++++++++++++++++++++++++++++++++++++++++++++++++++++@...",
"...+++++++++++++++++++++++++++++++++++++++++++++++++++++++++@...",
"...+++++++++++++++++++++++++++++++++++++++++++++++++++++++++@...",
"...@@@@@@@@@@@@@@@@@@@@@@@@@@@@@@@@@@@@@@@@@@@@@@@@@@@@@@@@@@...",
"................................................................",
"................................................................",
"................................................................",
"++++++++++++++++++++++++++++++++++++++++++++++++++++++++++++++++",
"++###+++$$$$+$###$+$###$+$$$$$+$###$+$###$+$###$+$###$+$###$++++",
"+#+++#+$+++#+$+++#+$+++#+#+++#+#+++$+#+++$+$+++#+#+++#+#+++#++++",
"+#+++#+$+++#+$+++#+$+++#+#+++#+#+++$+#+++$+$+++#+#+++#+#+++#++++",
"+$$$$$++$$$$+$###$++###$+$###$+$###$+$###$++$$$$+$###$+$###$++++",
"+#+++#+$+++#+#+++$+$+++#+$+++#+$+++#+#+++#+$+++#+#+++#+$+++#++++",
"+#+++#+$+++#+#+++$+$+++#+$+++#+$+++#+#+++#+$+++#+#+++#+$+++#++++",
"++###+++$$$#+$###$+$###$++$$$$+$###$+$###$++$$$$+$###$+$###$++++",
"++++++++++++++++++++++++++++++++++++++++++++++++++++++++++++++++",
"+$###$+####++$###++####+++###++$###$+$###$+#$$$#++$$$#++$$$#++++",
"+#+++#+#+++#+#+++$+#+++#+#+++$+#+++$+#+++$+#+++#+$+++#+$+++#++++",
"+#+++#+#+++#+#+++$+#+++#+#+++$+#+++$+#+++$+#+++#+$+++#+$+++#++++",
"+$###$+####++$$$$++#$$$#+$###++$###++$$##$+$###$++$$$$++$$$#++++",
"+#+++#+#+++#+#+++$+#+++#+#+++$+#+++$+#+++#+#+++#+$+++#+$+++#++++",
"+#+++#+#+++#+#+++$+#+++#+#+++$+#+++$+#+++#+#+++#+$+++#+$+++#++++",
"+#$$$#+####++$###++####++$###$+#$$$++$###$+#$$$#++$$$#+$###$++++",
"++++++++++++++++++++++++++++++++++++++++++++++++++++++++++++++++",
"+#$$$#+##$$++#$$$#+$###++$###$+$###$+$###$+####$+$###$+#$$$+++++",
"+#+++#+#+++$+##+##+#+++#+#+++#+#+++#+#+++#+#+++#+#+++$+#+++$++++",
"+#++#$+#+++$+#+#+#+#+++#+#+++#+#+++#+#+++#+#+++#+#+++$+#+++$++++",
"+$##$++$$$$++$$$$$+$$$$$+$$$$$+$###$+$#$$$+$###++$###$+$###+++++",
"+#++#$+#+++$+#+++#+#+++#+#+++#+#+++$+#+#+#+#+++#+$+++#+#+++$++++",
"+#+++#+#+++$+#+++#+#+++#+#+++#+#+++$+#++##+#+++#+$+++#+#+++$++++",
"+#$$$#+$###$+#$$$#+#$$$#+$###$+#$$$++$###$+#$$$#+$###$+$###$++++",
"++++++++++++++++++++++++++++++++++++++++++++++++++++++++++++++++",
"+$$$$$+$$$$$+$$$$$+#$$$#+#$$$#+####$++$$$+++++++++++++++++++++++",
"+#+++#+#+++#+#+++#+#+++#+#+++#+$+++#+$+++$++++++++++++++++++++++",
"+#+++#+#+++#+#+++#+$#+#$+#+++#+$++#$+$+++$++++++++++++++++++++++",
"+$$$$$+$$$$$+$$$$$++$#$++$###$++$#$+++$$$+++++++++++++++++++++++",
"+#+++#+#+++#+#+#+#+$#+#$+$+++#+$#++$+$+++$++++++++++++++++++++++",
"+#+++#+#+++#+##+##+#+++#+$+++#+#+++$+$+++$++++++++++++++++++++++",
"+$####++###++#$$$#+#$$$#+$###$+$####++$$$+++++++++++++++++++++++",
"++++++++++++++++++++++++++++++++++++++++++++++++++++++++++++++++",
"+##+##+##+##+##+##+##+##+##+##+##+##+##+##+##+##+##+##+.........",
"+##+##+##+##+##+##+##+##+##+##+##+##+##+##+##+##+##+##+.........",
"+##+##+##+##+##+##+##+##+##+##+##+##+##+##+##+##+##+##+.........",
"+##+##+##+##+##+##+##+##+##+##+##+##+##+##+##+##+##+##+.........",
"+##+##+##+##+##+##+##+##+##+##+##+##+##+##+##+##+##+##+.........",
"+##+##+##+##+##+##+##+##+##+##+##+##+##+##+##+##+##+##+.........",
"+$$+$$+$$+$$+$$+$$+$$+$$+$$+$$+$$+$$+$$+$$+$$+$$+$$+$$+.........",
"+$$+$$+$$+$$+$$+$$+$$+$$+$$+$$+$$+$$+$$+$$+$$+$$+$$+$$+.........",
"+$$+$$+$$+$$+$$+$$+$$+$$+$$+$$+$$+$$+$$+$$+$$+$$+$$+$$+.........",
"+$$+$$+$$+$$+$$+$$+$$+$$+$$+$$+$$+$$+$$+$$+$$+$$+$$+$$+.........",
"+$$+$$+$$+$$+$$+$$+$$+$$+$$+$$+$$+$$+$$+$$+$$+$$+$$+$$+.........",
"+$$+$$+$$+$$+$$+$$+$$+$$+$$+$$+$$+$$+$$+$$+$$+$$+$$+$$+........."};
