/* XPM */
static char * asmon_master_xpm[] = {
"75 126 76 1",
" 	c None",
".	c #000000",
"+	c #202020",
"@	c #C7C7C7",
"#	c #20B2AE",
"$	c #004941",
"%	c #188A86",
"&	c #107D79",
"*	c #24DA0D",
"=	c #28D60D",
"-	c #2DD10D",
";	c #32CC0C",
">	c #36C80C",
",	c #3BC30C",
"'	c #3FBF0B",
")	c #44BA0B",
"!	c #48B60B",
"~	c #4DB10B",
"{	c #51AD0A",
"]	c #56A80A",
"^	c #5BA30A",
"/	c #5F9F09",
"(	c #649A09",
"_	c #689609",
":	c #6D9109",
"<	c #718D08",
"[	c #768808",
"}	c #7A8408",
"|	c #7F7F07",
"1	c #847A07",
"2	c #887607",
"3	c #8D7107",
"4	c #916D06",
"5	c #966806",
"6	c #9A6406",
"7	c #9F5F05",
"8	c #A35B05",
"9	c #A85605",
"0	c #AD5105",
"a	c #B14D04",
"b	c #B64804",
"c	c #BA4404",
"d	c #BF3F03",
"e	c #C33B03",
"f	c #C83603",
"g	c #CC3203",
"h	c #D12D02",
"i	c #D62802",
"j	c #DA2402",
"k	c #DF1F01",
"l	c #E31B01",
"m	c #E81601",
"n	c #EC1201",
"o	c #F10D00",
"p	c #F50900",
"q	c #FA0400",
"r	c #30CB00",
"s	c #38BE00",
"t	c #41B600",
"u	c #49AA00",
"v	c #59A200",
"w	c #619600",
"x	c #698E00",
"y	c #718200",
"z	c #867900",
"A	c #8E6D00",
"B	c #966500",
"C	c #9E5900",
"D	c #AE5100",
"E	c #B64500",
"F	c #BE3C00",
"G	c #C73000",
"H	c #BF2020",
"I	c #B60418",
"J	c #283C38",
"K	c #F7F3FF",
"                                                                           ",
"                                                                           ",
"                                                                           ",
"                                                                           ",
"    ........................................................               ",
"    .++++++++++++++++++++++++++++++++++++++++++++++++++++++@               ",
"    .++++++++++++++++++++++++++++++++++++++++++++++++++++++@               ",
"    .++++++++++++++++++++++++++++++++++++++++++++++++++++++@               ",
"    .++++++++++++++++++++++++++++++++++++++++++++++++++++++@               ",
"    .++++++++++++++++++++++++++++++++++++++++++++++++++++++@               ",
"    .++++++++++++++++++++++++++++++++++++++++++++++++++++++@               ",
"    .++++++++++++++++++++++++++++++++++++++++++++++++++++++@               ",
"    .++++++++++++++++++++++++++++++++++++++++++++++++++++++@               ",
"    .++++++++++++++++++++++++++++++++++++++++++++++++++++++@               ",
"    .++++++++++++++++++++++++++++++++++++++++++++++++++++++@               ",
"    @@@@@@@@@@@@@@@@@@@@@@@@@@@@@@@@@@@@@@@@@@@@@@@@@@@@@@@@               ",
"                                                                           ",
"                                                                           ",
"    ........................................................               ",
"    .++++++++++++++++++++++++++++++++++++++++++++++++++++++@               ",
"    .++++++++++++++++++++++++++++++++++++++++++++++++++++++@               ",
"    .++++++++++++++++++++++++++++++++++++++++++++++++++++++@               ",
"    .++++++++++++++++++++++++++++++++++++++++++++++++++++++@               ",
"    .++++++++++++++++++++++++++++++++++++++++++++++++++++++@               ",
"    .++++++++++++++++++++++++++++++++++++++++++++++++++++++@               ",
"    .++++++++++++++++++++++++++++++++++++++++++++++++++++++@               ",
"    .++++++++++++++++++++++++++++++++++++++++++++++++++++++@               ",
"    .++++++++++++++++++++++++++++++++++++++++++++++++++++++@               ",
"    .++++++++++++++++++++++++++++++++++++++++++++++++++++++@               ",
"    @@@@@@@@@@@@@@@@@@@@@@@@@@@@@@@@@@@@@@@@@@@@@@@@@@@@@@@@               ",
"                                                                           ",
"                                                                           ",
"    ........................................................               ",
"    .++++++++++++++++++++++++++++++++++++++++++++++++++++++@               ",
"    .++++++++++++++++++++++++++++++++++++++++++++++++++++++@               ",
"    .++++++++++++++++++++++++++++++++++++++++++++++++++++++@               ",
"    .++++++++++++++++++++++++++++++++++++++++++++++++++++++@               ",
"    .++++++++++++++++++++++++++++++++++++++++++++++++++++++@               ",
"    .++++++++++++++++++++++++++++++++++++++++++++++++++++++@               ",
"    .++++++++++++++++++++++++++++++++++++++++++++++++++++++@               ",
"    .++++++++++++++++++++++++++++++++++++++++++++++++++++++@               ",
"    .++++++++++++++++++++++++++++++++++++++++++++++++++++++@               ",
"    .++++++++++++++++++++++++++++++++++++++++++++++++++++++@               ",
"    @@@@@@@@@@@@@@@@@@@@@@@@@@@@@@@@@@@@@@@@@@@@@@@@@@@@@@@@               ",
"                                                                           ",
"                                                                           ",
"    ........................................................               ",
"    .+++++++++++@.+++++++++++++++++++++++++++++++++++++++++@               ",
"    .+++++++++++@.+++++++++++++++++++++++++++++++++++++++++@               ",
"    .+++++++++++@.+++++++++++++++++++++++++++++++++++++++++@               ",
"    .+++++++++++@.+++++++++++++++++++++++++++++++++++++++++@               ",
"    .+++++++++++@.+++++++++++++++++++++++++++++++++++++++++@               ",
"    .+++++++++++@.+++++++++++++++++++++++++++++++++++++++++@               ",
"    .+++++++++++@.+++++++++++++++++++++++++++++++++++++++++@               ",
"    .+++++++++++@.+++++++++++++++++++++++++++++++++++++++++@               ",
"    .+++++++++++@.+++++++++++++++++++++++++++++++++++++++++@               ",
"    .+++++++++++@.+++++++++++++++++++++++++++++++++++++++++@               ",
"    .+++++++++++@.+++++++++++++++++++++++++++++++++++++++++@               ",
"    .+++++++++++@.+++++++++++++++++++++++++++++++++++++++++@               ",
"    @@@@@@@@@@@@@@@@@@@@@@@@@@@@@@@@@@@@@@@@@@@@@@@@@@@@@@@@               ",
"                                                                           ",
"                                                                           ",
"                                                                           ",
"                                                                           ",
"                                                                           ",
"                                                                           ",
"   ++++++++++++++++++++++++++++++++++++++++++++++++++++++++++++++++++      ",
"   ++###+++$$$%+%###%+%###%+#$$$#+%###%+%###%+%###%+%###%+%###%++++++      ",
"   +#+++#+$+++#+$+++#+$+++#+#+++#+#+++$+#+++$+$+++#+#+++#+#+++#+#++++      ",
"   +#+++#+$+++#+$+++#+$+++#+#+++#+#+++$+#+++$+$+++#+#+++#+#+++#+#++++      ",
"   +%$$$%++$$$%+%###%++###%+%###%+####%+%###%++$$$%+%###%+&###%++++++      ",
"   +#+++#+$+++#+#+++$+$+++#+$+++#+$+++#+#+++#+$+++#+#+++#+$+++#+#++++      ",
"   +#+++#+$+++#+#+++$+$+++#+$+++#+$+++#+#+++#+$+++#+#+++#+$+++#+#++++      ",
"   ++###+++$$$#+%###%+%###%++$$$%+%###%+%###%++$$$#+%###%+%###%+++#++      ",
"   ++++++++++++++++++++++++++++++++++++++++++++++++++++++++++++++++++      ",
"   *=-;>,')!~{]^/(_:<[}|1234567890abcdefghijklmnopq                        ",
"   *=-;>,')!~{]^/(_:<[}|1234567890abcdefghijklmnopq                        ",
"   *=-;>,')!~{]^/(_:<[}|1234567890abcdefghijklmnopq                        ",
"   *=-;>,')!~{]^/(_:<[}|1234567890abcdefghijklmnopq                        ",
"   *=-;>,')!~{]^/(_:<[}|1234567890abcdefghijklmnopq                        ",
"   *=-;>,')!~{]^/(_:<[}|1234567890abcdefghijklmnopq                        ",
"   *=-;>,')!~{]^/(_:<[}|1234567890abcdefghijklmnopq                        ",
"   *=-;>,')!~{]^/(_:<[}|1234567890abcdefghijklmnopq                        ",
"   *=-;>,')!~{]^/(_:<[}|1234567890abcdefghijklmnopq                        ",
"   rsstuuvvwwxxyzzAABBCCDEEFFGHHHHHHHHHHHHHHHHHHHHHHHHHH                   ",
"   rsstuuvvwwxxyzzAABBCCDEEFFGHHHHHHHHHHHHHHHHHHHHHHHHHH                   ",
"   rsstuuvvwwxxyzzAABBCCDEEFFGHHHHHHHHHHHHHHHHHHHHHHHHHH                   ",
"   rsstuuvvwwxxyzzAABBCCDEEFFGHHHHHHHHHHHHHHHHHHHHHHHHHH                   ",
"   rsstuuvvwwxxyzzAABBCCDEEFFGHHHHHHHHHHHHHHHHHHHHHHHHHH                   ",
"   rsstuuvvwwxxyzzAABBCCDEEFFGHHHHHHHHHHHHHHHHHHHHHHHHHH                   ",
"   rsstuuvvwwxxyzzAABBCCDEEFFGHHHHHHHHHHHHHHHHHHHHHHHHHH                   ",
"   rsstuuvvwwxxyzzAABBCCDEEFFGHHHHHHHHHHHHHHHHHHHHHHHHHH                   ",
"   rsstuuvvwwxxyzzAABBCCDEEFFGHHHHHHHHHHHHHHHHHHHHHHHHHH                   ",
"   rsstuuvvwwxxyzzAABBCCDEEFFGHHHHHHHHHHHHHHHHHHHHHHHHHH                   ",
"   rsstuuvvwwxxyzzAABBCCDEEFFGHHHHHHHHHHHHHHHHHHHHHHHHHH                   ",
"   +++++++++++++++++++++++++++++++++++++++++++++++++++++++++++++,'         ",
"   +$###$+%###+++###%+%###++%###%+%###%+%###%+%$$$%++$$$%++$$$%+,'         ",
"   +#+++#+#+++#+#+++$+#+++#+#+++$+#+++$+#+++$+#+++#+$+++#+$+++#+,'         ",
"   +#+++#+#+++#+#+++$+#+++#+#+++$+#+++$+#+++$+#+++#+$+++#+$+++#+,'         ",
"   +%###%+%###++%$$$++%$$$%+%###++%###++%$%#%+%###%++$$$%++$$$%+,'         ",
"   +#+++#+#+++#+#+++$+#+++#+#+++$+#+++$+#+++#+#+++#+$+++#+$+++#+,'         ",
"   +#+++#+#+++#+#+++$+#+++#+#+++$+#+++$+#+++#+#+++#+$+++#+$+++#+,'         ",
"   +%$$$%+%###+++###%+%###++%###%+%$$$++%###%+%$$$%++$$$%+%###%+           ",
"   +++++++++++++++++++++++++++++++++++++++++++++++++++++++++++++           ",
"   ++++++++++++++++++++++++++++++++++++++++++++++++++++++++++++++++++++++++",
"   ++++++++++++++++++++++++++++++++++++++++++++++++++++++++++++++++++++++++",
"   ++++++++++++++++++++++++++++++++++++++++++++++++++++++++++++++++++++++++",
"   ++++++++++++++++++++++++++++++++++++++++++++++++++++++++++++++++++++++++",
"   ++++++++++++++++++++++++++++++++++++++++++++++++++++++++++++++++++++++++",
"   ++++++++++++++++++++++++++++++++++++++++++++++++++++++++++++++++++++++++",
"   ++++++++++++++++++++++++++++++++++++++++++++++++++++++++++++++++++++++++",
"   +II+  +JJ+++++++++++++++++++++++++++++++++++++++++++++++++++++++++++++++",
"   IKII  JJJJ++++++++++++++++++++++++++++++++++++++++++++++++++++++++++++++",
"   IIII  JJJJ++++++++++++++++++++++++++++++++++++++++++++++++++++++++++++++",
"   +II+  +JJ+++++++++++++++++++++++++++++++++++++++++++++++++++++++++++++++",
"    .......................................................                ",
"    .++++++++++++++++++++++++++++++++++++++++++++++++++++++                ",
"    .++++++++++++++++++++++++++++++++++++++++++++++++++++++                ",
"    .++++++++++++++++++++++++++++++++++++++++++++++++++++++                ",
"    .++++++++++++++++++++++++++++++++++++++++++++++++++++++                ",
"    .++++++++++++++++++++++++++++++++++++++++++++++++++++++                ",
"    .++++++++++++++++++++++++++++++++++++++++++++++++++++++                ",
"    .++++++++++++++++++++++++++++++++++++++++++++++++++++++                ",
"    .++++++++++++++++++++++++++++++++++++++++++++++++++++++                ",
"    .++++++++++++++++++++++++++++++++++++++++++++++++++++++                ",
"    .++++++++++++++++++++++++++++++++++++++++++++++++++++++                "};
