/* XPM */
static char * wmAppKill_xpm[] = {
"178 38 334 2",
"  	c None",
". 	c #202020",
"+ 	c #0000FF",
"@ 	c #09070C",
"# 	c #08060B",
"$ 	c #010004",
"% 	c #07050A",
"& 	c #030106",
"* 	c #060409",
"= 	c #040207",
"- 	c #010005",
"; 	c #05040C",
"> 	c #000005",
", 	c #000004",
"' 	c #09090B",
") 	c #000000",
"! 	c #010101",
"~ 	c #000002",
"{ 	c #07060C",
"] 	c #0D0C14",
"^ 	c #000007",
"/ 	c #20B2AE",
"( 	c #004941",
"_ 	c #007D71",
": 	c #010002",
"< 	c #050306",
"[ 	c #0B090E",
"} 	c #020003",
"| 	c #050308",
"1 	c #0C0A0F",
"2 	c #09080E",
"3 	c #060606",
"4 	c #020200",
"5 	c #030301",
"6 	c #060604",
"7 	c #040404",
"8 	c #030207",
"9 	c #010006",
"0 	c #0B0A0F",
"a 	c #070709",
"b 	c #B60418",
"c 	c #00EB00",
"d 	c #283C38",
"e 	c #050304",
"f 	c #060407",
"g 	c #A3A1A2",
"h 	c #636164",
"i 	c #333132",
"j 	c #FCFAFD",
"k 	c #727071",
"l 	c #2A282B",
"m 	c #DFDDDE",
"n 	c #080607",
"o 	c #030102",
"p 	c #0A0809",
"q 	c #C0BFBD",
"r 	c #7B7A76",
"s 	c #010000",
"t 	c #070602",
"u 	c #B7B6B4",
"v 	c #424043",
"w 	c #ABA9AE",
"x 	c #A09EA3",
"y 	c #F7F3FF",
"z 	c #060405",
"A 	c #767475",
"B 	c #9D9B9C",
"C 	c #5F5D5E",
"D 	c #E0DEDF",
"E 	c #A7A5A6",
"F 	c #696768",
"G 	c #ABA9AA",
"H 	c #151314",
"I 	c #2D2B2C",
"J 	c #292728",
"K 	c #252324",
"L 	c #0B090A",
"M 	c #3D3B3C",
"N 	c #1D1B1E",
"O 	c #121011",
"P 	c #EAE9E5",
"Q 	c #D0CFCA",
"R 	c #080702",
"S 	c #CAC9C5",
"T 	c #413F40",
"U 	c #838184",
"V 	c #B9B7BC",
"W 	c #050402",
"X 	c #71E371",
"Y 	c #010100",
"Z 	c #2B2B29",
"` 	c #DBDBD9",
" .	c #A3A3A1",
"..	c #888886",
"+.	c #D2D2D0",
"@.	c #969694",
"#.	c #80807E",
"$.	c #444442",
"%.	c #D5D5D3",
"&.	c #737371",
"*.	c #F2F2F0",
"=.	c #90908E",
"-.	c #BABABA",
";.	c #B0AEB1",
">.	c #040203",
",.	c #686765",
"'.	c #9D9C98",
").	c #EAE9E4",
"!.	c #212119",
"~.	c #B9B8B4",
"{.	c #939192",
"].	c #FFFEFF",
"^.	c #2F2D30",
"/.	c #090806",
"(.	c #0C0C0A",
"_.	c #FFFFFD",
":.	c #D7D7D5",
"<.	c #EDEDEB",
"[.	c #DFDFDD",
"}.	c #3E3E3C",
"|.	c #393937",
"1.	c #CACAC8",
"2.	c #B7B7B5",
"3.	c #454543",
"4.	c #3B3B3B",
"5.	c #BEBCBF",
"6.	c #B2B1AF",
"7.	c #767571",
"8.	c #A9A8A3",
"9.	c #75756D",
"0.	c #030200",
"a.	c #C2C1BD",
"b.	c #EDECEA",
"c.	c #A2A0A1",
"d.	c #7E7C7F",
"e.	c #050505",
"f.	c #BDBDBD",
"g.	c #F0F0F0",
"h.	c #B2B2B2",
"i.	c #FEFEFE",
"j.	c #444444",
"k.	c #B6B6B6",
"l.	c #020202",
"m.	c #C0C0C0",
"n.	c #3A3A3A",
"o.	c #464646",
"p.	c #BBB9BC",
"q.	c #1B191A",
"r.	c #E7E6E4",
"s.	c #C5C4C0",
"t.	c #C7C6C1",
"u.	c #D2D1CC",
"v.	c #C4C3BF",
"w.	c #4D4C4A",
"x.	c #141213",
"y.	c #DDDBDE",
"z.	c #151316",
"A.	c #0B0B0B",
"B.	c #090909",
"C.	c #8F8F8F",
"D.	c #AFAFAF",
"E.	c #7C7C7C",
"F.	c #D0D0D0",
"G.	c #3D3D3D",
"H.	c #C6C6C6",
"I.	c #BEBEBE",
"J.	c #3C3C3E",
"K.	c #C4C2C5",
"L.	c #666467",
"M.	c #959394",
"N.	c #E3E2DD",
"O.	c #23221E",
"P.	c #BDBCBA",
"Q.	c #383637",
"R.	c #080609",
"S.	c #7A787D",
"T.	c #949297",
"U.	c #040205",
"V.	c #060608",
"W.	c #19191B",
"X.	c #2A2A2C",
"Y.	c #0F0F11",
"Z.	c #303032",
"`.	c #0B0B0D",
" +	c #161618",
".+	c #232325",
"++	c #2E2E30",
"@+	c #1A1A1C",
"#+	c #171719",
"$+	c #27262B",
"%+	c #1F1E23",
"&+	c #222222",
"*+	c #030400",
"=+	c #2C2D28",
"-+	c #151513",
";+	c #2E2E2C",
">+	c #212123",
",+	c #020106",
"'+	c #111015",
")+	c #3E3D42",
"!+	c #C7C5C8",
"~+	c #107D79",
"{+	c #188A86",
"]+	c #9C9AA8",
"^+	c #9F9EAC",
"/+	c #9C9EAB",
"(+	c #9A9EA9",
"_+	c #989CA8",
":+	c #979BA7",
"<+	c #989AA7",
"[+	c #9799A6",
"}+	c #9698A5",
"|+	c #9695A3",
"1+	c #9A99A9",
"2+	c #9693A4",
"3+	c #9390A1",
"4+	c #918E9F",
"5+	c #9491A2",
"6+	c #9894A5",
"7+	c #9897A5",
"8+	c #9294A0",
"9+	c #898B97",
"0+	c #9799A5",
"a+	c #8F919D",
"b+	c #8E909C",
"c+	c #8B8D99",
"d+	c #848692",
"e+	c #90929E",
"f+	c #81838F",
"g+	c #8D8F9B",
"h+	c #868894",
"i+	c #8B8B97",
"j+	c #7E7E8A",
"k+	c #8A8997",
"l+	c #81818D",
"m+	c #888894",
"n+	c #81818B",
"o+	c #82828E",
"p+	c #82828C",
"q+	c #80808A",
"r+	c #7F7F89",
"s+	c #7E7E88",
"t+	c #A3A1AF",
"u+	c #9A99A7",
"v+	c #9D9FAB",
"w+	c #9CA0A9",
"x+	c #9B9FAA",
"y+	c #999BA7",
"z+	c #989AA6",
"A+	c #9999A5",
"B+	c #9896A4",
"C+	c #9795A3",
"D+	c #9694A2",
"E+	c #9692A1",
"F+	c #9593A1",
"G+	c #9392A0",
"H+	c #9193A0",
"I+	c #90929F",
"J+	c #8F919E",
"K+	c #8E909D",
"L+	c #8D8F9C",
"M+	c #8C8E9B",
"N+	c #8B8D9A",
"O+	c #8A8C99",
"P+	c #898B98",
"Q+	c #8A8A96",
"R+	c #8A8A94",
"S+	c #898995",
"T+	c #888892",
"U+	c #878791",
"V+	c #868690",
"W+	c #86868E",
"X+	c #84848E",
"Y+	c #84848C",
"Z+	c #83838B",
"`+	c #82828A",
" @	c #818189",
".@	c #00FF00",
"+@	c #04FA00",
"@@	c #08F600",
"#@	c #0DF200",
"$@	c #11ED00",
"%@	c #16E900",
"&@	c #1AE500",
"*@	c #1FE000",
"=@	c #23DC00",
"-@	c #28D800",
";@	c #2CD300",
">@	c #31CF00",
",@	c #35CB00",
"'@	c #3AC600",
")@	c #3EC200",
"!@	c #42BE00",
"~@	c #47BA00",
"{@	c #4BB500",
"]@	c #50B100",
"^@	c #54AD00",
"/@	c #59A800",
"(@	c #5DA400",
"_@	c #62A000",
":@	c #669B00",
"<@	c #6B9700",
"[@	c #6F9300",
"}@	c #748E00",
"|@	c #788A00",
"1@	c #7D8600",
"2@	c #818200",
"3@	c #867D00",
"4@	c #8A7900",
"5@	c #8E7500",
"6@	c #937000",
"7@	c #976C00",
"8@	c #9C6800",
"9@	c #A06300",
"0@	c #A55F00",
"a@	c #A95B00",
"b@	c #AE5600",
"c@	c #B25200",
"d@	c #B74E00",
"e@	c #BB4900",
"f@	c #C04500",
"g@	c #C44100",
"h@	c #C93C00",
"i@	c #CD3800",
"j@	c #D23400",
"k@	c #D62F00",
"l@	c #DB2B00",
"m@	c #DF2700",
"n@	c #E42200",
"o@	c #E81E00",
"p@	c #ED1A00",
"q@	c #F11500",
"r@	c #F61100",
"s@	c #FA0D00",
". . . . . . . . . . . . . . . . . . . . . . . . . . . . . . . . . . . . . . . . . . . . . . . . . . . . . . . . . . . . . . . . . . . . . . . . . . . . . . . + + + + + + + + + + + + + + + + + + + + + + + + + + + @ # $ % $ & * $ = * $ & $ $ - ; > , ' ) ) ! ~ > { ] ^ > , + + + + + + + + + + + + + + + + + + + + + + + + + + + + + + + + + + + + + + + + + + + ",
". . / / / . . . ( ( ( _ . _ / / / _ . _ / / / _ . _ ( ( ( _ . _ / / / _ . _ / / / _ . _ / / / _ . _ / / / _ . _ / / / _ . . . . . . . . . . . . . . . . . . . + + + + + + + + + + + + + + + + + + + + + + + + + + + : $ < = : % : * : [ } | : 1 * > 2 ~ 3 4 5 6 7 8 9 > > 0 a + + + + + + + + + + + + + + + + + + + + + + + + + + + + + + + + + + + + + + + + + + + ",
". / . . . / . ( . . . / . ( . . . / . ( . . . / . / . . . / . / . . . ( . / . . . ( . ( . . . / . / . . . / . / . . . / . . . . . . . . . . . . / . . . . . . + + . b b . + + . c c . + + . d d . + + + + + + + + + e f g h i j k l m : n : o : : $ @ p q r s t u v $ w x < s + + + + + + + + + + + + + + + + + + + + + + + + + + + + + + + + + + + + + + + + + + + ",
". / . . . / . ( . . . / . ( . . . / . ( . . . / . / . . . / . / . . . ( . / . . . ( . ( . . . / . / . . . / . / . . . / . . / . . . . / . . . . / . . . . . . + + b y b b + + c y c c + + d d d d + + + + + + + + + s z A B C D E F G H I J K L M N : O P Q R s S T U V : s W + + + + + + + + + + + + + + + + + + + + + + + + + + + + + + + + + + + + + + + + + + + ",
". _ ( ( ( _ . . ( ( ( _ . _ / / / _ . . / / / _ . _ / / / _ . _ / / / _ . _ / / / _ . . ( ( ( _ . ( / / / ( . _ / / / _ . . _ . . . . _ . . . / . . . . . . . + + b b b b + + c c c c + + d d d d + + + . / ( X + + Y ) Z `  ...+.@.#.$.%.&.*.=.-.;.>.,.'.).!.s ~.{.].^.} s /.+ + + + + + + + + + + + + + + + + + + + + + + + + + + + + + + + + + + + + + + + + + + ",
". / . . . / . ( . . . / . / . . . ( . ( . . . / . ( . . . / . ( . . . / . / . . . / . ( . . . / . / . . . / . ( . . . / . . . . . . . . . . . / . . . . . . . + + . b b . + + . c c . + + . d d . + + + + + + + + + (.) 4 _.:.Z <.[.}.|.1.) 2.3.4.5.n 6.7.8.9.0.a.b.c.d.: n s + + + + + + + + + + + + + + + + + + + + + + + + + + + + + + + + + + + + + + + + + + + ",
". / . . . / . ( . . . / . / . . . ( . ( . . . / . ( . . . / . ( . . . / . / . . . / . ( . . . / . / . . . / . ( . . . / . . / . . . . / . . / . . . . . . . . + + + + + + + + + + + + + + + + + + + + + + + + + + + ) ) e.f.g.) h.i.3 j.k.l.m.n.o.p.q.r.s.t.u.s v.w.x.y.z.s s + + + + + + + + + + + + + + + + + + + + + + + + + + + + + + + + + + + + + + + + + + + ",
". . / / / . . . ( ( ( / . _ / / / _ . _ / / / _ . . ( ( ( _ . _ / / / _ . _ / / / _ . . ( ( ( _ . _ / / / _ . _ / / / _ . . _ . . . . _ . . / . . . . . . . . + + + + + + + + + + + + + + + + + + + + + + + + + + + A.B.! C.D.l.E.F.) G.H.B.I.G.J.K.L.M.0.s N.O.P.Q.R.S.T.U.p + + + + + + + + + + + + + + + + + + + + + + + + + + + + + + + + + + + + + + + + + + + ",
". . . . . . . . . . . . . . . . . . . . . . . . . . . . . . . . . . . . . . . . . . . . . . . . . . . . . . . . . . . . . . . . . . . . . . . . . . . . . . . + + + + + + + + + + + + + + + + + + + + + + + + + + + ~ V.~ W.X.~ Y.Z.`. +.+~ ++@+#+$+%+&+6 *+=+-+;+>+,+'+)+Y.) + + + + + + + + + + + + + + + + + + + + + + + + + + + + + + + + + + + + + + + + + + + ",
"+ + + + + + + + + + + + + + + + + + + + + + + + + + + + + + + + + + + + + + + + + + + + + + + + + + + + + + + + + + + + + + + + + + + + + + + + + + + + + + + + + + + + + + + + + + + + + + + + + + + + + + + + + + + + + + + + + + + + + + + + + + + + + + + + + + + + + + + + + + + + + + + + + + + + + + + + + + + + + + + + + + + + + + + + + + + + + + + + + + ",
". . . . . . . . . . . . . . . . . . . . . . . . . . . . . . . . . . . . . . . . . . . . . . . . . . . . . . . . . . . . . . . . . . . . . . . . . . . . . . . . . . . . . . . . . . . . . . . . . . . . . . . . . . . . . . . . . . . . . . . . . . . . . . . . . . . . . . . . . . . . . . . . . . . . . . . . . . . . . . . . . . . . . . . . . . . / . . . + + + ",
". ( / / / ( . _ / / / . . _ / / / _ . _ / / / . . _ / / / _ . _ / / / _ . _ / / / _ . _ ( ( ( _ . . ( / ( . . . ( ( ( _ . _ ( ( ( _ . _ ( ( ( . . / ( ( ( / . _ / / / . . _ / / / _ . _ / / / _ . _ / / / _ . _ / / / _ . _ / / / _ . _ / / / _ . _ ( ( ( _ . _ ( ( ( _ . _ ( ( ( _ . _ ( ( ( _ . _ ( ( ( _ . _ / / / _ . . . _ _ . . . . . . . . . . . . . . + + + ",
". / . . . / . / . . . / . / . . . ( . / . . . / . / . . . ( . / . . . ( . / . . . ( . / . . . / . ( . / . ( . ( . . . / . / . . . / . / . . . ( . / / . / / . / . . . / . / . . . / . / . . . / . / . . . / . / . . . / . / . . . ( . ( . / . ( . / . . . / . / . . . / . / . . . / . / . . . / . / . . . / . ( . . . / . . . _ _ . . . . . . . . ( / / / ( . + + + ",
". / . . . / . / . . . / . / . . . ( . / . . . / . / . . . ( . / . . . ( . / . . . ( . / . . . / . ( . / . ( . ( . . . / . / . . / ( . / . . . ( . / . / . / . / . . . / . / . . . / . / . . . / . / . . . / . / . . . / . / . . . ( . ( . / . ( . / . . . / . / . . . / . / . . . / . ( / . / ( . / . . . / . ( . . / ( . _ _ _ _ _ _ _ _ _ _ _ _ / . . . / . + + + ",
". _ / / / _ . _ / / / . . _ ( ( ( . . _ ( ( ( _ . _ / / / . . _ / / / . . _ ( / / _ . _ / / / _ . . ( / ( . . . ( ( ( _ . _ / / ( . . _ ( ( ( . . _ ( ( ( _ . _ ( ( ( _ . _ ( ( ( _ . _ / / / _ . _ / ( ( _ . _ / / / . . _ / / / _ . . ( _ ( . . _ ( ( ( _ . _ ( ( ( _ . _ ( ( ( _ . . ( / ( . . _ / / / _ . . ( / ( . . _ _ _ _ _ _ _ _ _ _ _ _ / . . . / . + + + ",
". / . . . / . / . . . / . / . . . ( . / . . . / . / . . . ( . / . . . ( . / . . . / . / . . . / . ( . / . ( . ( . . . / . / . . / ( . / . . . ( . / . . . / . / . . . / . / . . . / . / . . . ( . / . / . / . / . . . / . ( . . . / . ( . / . ( . / . . . / . / . . . / . / . / . / . ( / . / ( . ( . . . / . ( / . . ( . . . _ _ . . . . . . . . _ / / / _ . + + + ",
". / . . . / . / . . . / . / . . . ( . / . . . / . / . . . ( . / . . . ( . / . . . / . / . . . / . ( . / . ( . ( . . . / . / . . . / . / . . . ( . / . . . / . / . . . / . / . . . / . / . . . ( . / . . / / . / . . . / . ( . . . / . ( . / . ( . / . . . / . / . . . / . / / . / / . / . . . / . ( . . . / . / . . . ( . . . _ _ . . . . . . . . / . . . / . + + + ",
". _ ( ( ( _ . _ / / / . . _ / / / _ . / / / / . . _ / / / _ . / ( ( ( . . _ / / / _ . _ ( ( ( _ . . ( / ( ( . _ / / / _ . _ ( ( ( _ . _ / / / ( . _ ( ( ( _ . / ( ( ( / . _ / / / _ . _ ( ( ( . . _ / / / _ . _ ( ( ( _ . _ / / / _ . . ( _ ( . . ( / / / / . . / / / . . / ( ( ( / . _ ( ( ( / _ _ / / / _ . _ / / / _ . . . . . . . . . . . . . _ . . . _ . + + + ",
". . . . . . . . . . . . . . . . . . . . . . . . . . . . . . . . . . . . . . . . . . . . . . . . . . . . . . . . . . . . . . . . . . . . . . . . . . . . . . . . . . . . . . . . . . . . . . . . . . . . . . . . . . . . . . . . . . . . . . . . . . . . . . . . . . . . . . . . . . . . . . . . . . . . . . . . . . . . . . . . . . . . . . . . . . . . . . . + + + ",
"+ + . . . . . . . . . . . . . . . . . . . . . . . . . . . . . . . . . . . . . . . . . . . . . . . . . . . . . . . . . . !++ + + . + . . . . . . . . . . . . . . . . . . . . . . . . . . . . . . . . . . . . . . . . . . . . . . . . . . . + + + + + + + + + + + + + + + + + + + + + + + + + + + + + + + + + + + + + + + + + + + + + + + + + + + + + + + + + + + + + ",
"+ + !+!+!+!+!+!+!+!+!+!+!+!+!+!+!+!+!+!+!+!+!+!+!+!+!+!+!+!+!+!+!+!+!+!+!+!+!+!+!+!+!+!+!+!+!+!+!+!+!+!+!+!+!+!+!+!+!+!+!++ + + . + + + + + + + + + + + + + + + + + + + + + + + + + + + + + + + + + + + + + + + + + + + + + + + + + + + + + + + + + + + + + + + + + + + + + + + + + + + + + + + + + + + + + + + + + + + + + + + + + + + + + + + + + + + + + + + + + ",
"+ + + + + + + + + + + + + + + + + + + + + + + + + + + + + + + + + + + + + + + + + + + + + + + + + + + + + + + + + + + + !++ + + . + + . . . . . . . . . . . . . . . . . . . . . . . . . . . . . . . . . . . . . . . . . . . . . . . . . . . . . . . . . . . . . . . . . . . . . . . . . . . . . + + + + + + + + + + + + + + + + + + + + + + + + + + + + + + + + + + ",
"+ ) . . . . . . . . . . . . . . . . . . . . . . . . . . . . . . . . . . . . . . . . . . . . . . . . . .                         . + + . . . . . . . . . . . . . . . . . . . . . . . . . . . . . . . . . . . . . . . . . . . . . . . . . . . . . . . . . . . . . . . . . . . . . . . . . . . . . + + + + + + + + + + + + + + + + + + + + + + + + + + + + + + + + + + ",
"+ + . . ( ( ( . . . ( ( ( . . . ( ( ( . . . ( ( ( . . . ( ( ( . . . ( ( ( . . . ( ( ( . . . ( ( ( . . .                         . + + . . . / / / / . . . ( ( ( ( ~+. ~+/ / / / {+. ~+/ / / / ~+. ~+( ( ( ( ~+. ~+/ / / / ~+. ~+/ / / / {+. ~+/ / / / ~+. ~+/ / / / {+. ~+/ / / / {+. . . . . . + + + + + + + + + + + + + + + + + + + + + + + + + + + + + + + + + + ",
"+ + . ( . . . ( . ( . . . ( . ( . . . ( . ( . . . ( . ( . . . ( . ( . . . ( . ( . . . ( . ( . . . ( . .                         . + + . . / . . . . / . ( . . . . / . ( . . . . / . ( . . . . / . / . . . . / . / . . . . ( . / . . . . ( . ( . . . . / . / . . . . / . / . . . . / . . / . . . + + + + + + + + + + + + + + + + + + + + + + + + + + + + + + + + + + ",
"+ + . ( . . . ( . ( . . . ( . ( . . . ( . ( . . . ( . ( . . . ( . ( . . . ( . ( . . . ( . ( . . . ( . .                         . + + . . / . . . . / . ( . . . . / . ( . . . . / . ( . . . . / . / . . . . / . / . . . . ( . / . . . . ( . ( . . . . / . / . . . . / . / . . . . / . . / . . . + + + + + + + + + + + + + + + + + + + + + + + + + + + + + + + + + + ",
"+ + . . ( ( ( . . . ( ( ( . . . ( ( ( . . . ( ( ( . . . ( ( ( . . . ( ( ( . . . ( ( ( . . . ( ( ( . . .                         . + + . . / . . . . / . ( . . . . / . ( . . . . / . ( . . . . / . / . . . . / . / . . . . ( . / . . . . ( . ( . . . . / . / . . . . / . / . . . . / . . . . . . + + + + + + + + + + + + + + + + + + + + + + + + + + + + + + + + + + ",
"+ + . ( . . . ( . ( . . . ( . ( . . . ( . ( . . . ( . ( . . . ( . ( . . . ( . ( . . . ( . ( . . . ( . .                         . + + . . ~+( ( ( ( ~+. . ( ( ( ( ~+. ~+/ / / / ~+. ~+/ / / / ~+. ~+/ / / / ~+. ~+/ / / / ~+. ~+/ / / / ~+. . ( ( ( ( ~+. ~+/ / / / ~+. ~+/ / / / ~+. . . . . . + + + + + + + + + + + + + + + + + + + + + + + + + + + + + + + + + + ",
"+ + . ( . . . ( . ( . . . ( . ( . . . ( . ( . . . ( . ( . . . ( . ( . . . ( . ( . . . ( . ( . . . ( . .                         . + + . . / . . . . / . ( . . . . / . / . . . . ( . ( . . . . / . ( . . . . / . ( . . . . / . / . . . . / . ( . . . . / . / . . . . / . ( . . . . / . . . . . . + + + + + + + + + + + + + + + + + + + + + + + + + + + + + + + + + + ",
"+ + . . ( ( ( . . . ( ( ( . . . ( ( ( . . . ( ( ( . . . ( ( ( . . . ( ( ( . . . ( ( ( . . . ( ( ( . . .                         . + + . . / . . . . / . ( . . . . / . / . . . . ( . ( . . . . / . ( . . . . / . ( . . . . / . / . . . . / . ( . . . . / . / . . . . / . ( . . . . / . . / . . . + + + + + + + + + + + + + + + + + + + + + + + + + + + + + + + + + + ",
"+ + . . . . . . . . . . . . . . . . . . . . . . . . . . . . . . . . . . . . . . . . . . . . . . . . . .                         . + + . . / . . . . / . ( . . . . / . / . . . . ( . ( . . . . / . ( . . . . / . ( . . . . / . / . . . . / . ( . . . . / . / . . . . / . ( . . . . / . . / . . . + + + + + + + + + + + + + + + + + + + + + + + + + + + + + + + + + + ",
"+ + . . . . . . . . . . . . . . . . . . . . . . . . . . . . . . . . . . . . . . . . . . . . . . . . . .                         . + + . . . / / / / . . . ( ( ( ( ~+. ~+/ / / / ~+. ~+/ / / / ~+. . ( ( ( ( ~+. ~+/ / / / ~+. ~+/ / / / ~+. . ( ( ( ( ~+. ~+/ / / / ~+. ~+/ / / / ~+. . . . . . + + + + + + + + + + + + + + + + + + + + + + + + + + + + + + + + + + ",
"+ + . . . . . . . . . . . . . . . . . . . . . . . . . . . . . . . . . . . . . . . . . . . . . . . . . .                         . + + . . . . . . . . . . . . . . . . . . . . . . . . . . . . . . . . . . . . . . . . . . . . . . . . . . . . . . . . . . . . . . . . . . . . . . . . . . . . . + + + + + + + + + + + + + + + + + + + + + + + + + + + + + + + + + + ",
"+ + . . . . . . . . . . . . . . . . . . . . . . . . . . . . . . . . . . . . . . . . . . . . . . . . . .                         . + + . . . . . . . . . . . . . . . . . . . . . . . . . . . . . . . . . . . . . . . . . . . . . . . . . . . . . . . . . . . . . . . . . . . . . . . . . . . . . + + + + + + + + + + + + + + + + + + + + + + + + + + + + + + + + + + ",
"+ + . . . . . . . . . . . . . . . . . . . . . . . . . . . . . . . . . . . . . . . . . . . . . . . . . .                         . + + + + + + + + + + + + + + + + + + + + + + + + + + + + + + + + + + + + + + + + + + + + + + + + + + + + + + + + + + + + + + + + + + + + + + + + + + + + + + + + + + + + + + + + + + + + + + + + + + + + + + + + + + + + + + + + + ",
"+ + . . . ]+^+/+(+_+:+<+<+[+}+|+1+2+3+4+5+6+2+7+8+9+0+9+a+b+c+8+d+e+f+c+g+h+d+i+j+k+l+i+m+j+n+o+p+n+q+r+s+    .                 . + + + + + + + + + + + + + + + + + + + + + + + + + + + + + + + + + + + + + + + + + + + + + + + + + + + + + + + + + + + + + + + + + + + + + + + + + + + + + + + + + + + + + + + + + + + + + + + + + + + + + + + + + + + + + + + + + ",
"+ + . . . t+u+v+w+x+(+y+z+z+0+A+7+B+B+C+D+E+F+G+H+H+I+J+K+K+K+L+L+M+N+O+P+P+9+Q+R+S+T+T+U+V+W+X+Y+Z+`+ @ @    .                 . + + .@+@@@#@$@%@&@*@=@-@;@>@,@'@)@!@~@{@]@^@/@(@_@:@<@[@}@|@1@2@3@4@5@6@7@8@9@0@a@b@c@d@e@f@g@h@i@j@k@l@m@n@o@p@q@r@s@+ + + + + + + + + + + + + + + + + + + + + + + + + + + + + + + + + + + + + + + + + + + + + + + + + + + + + + ",
"+ + . . . . . . . . . . . . . . . . . . . . . . . . . . . . . . . . . . . . . . . . . . . . . . . . . . . . . . . . . . !++ + + . + + .@+@@@#@$@%@&@*@=@-@;@>@,@'@)@!@~@{@]@^@/@(@_@:@<@[@}@|@1@2@3@4@5@6@7@8@9@0@a@b@c@d@e@f@g@h@i@j@k@l@m@n@o@p@q@r@s@+ + + + + + + + + + + + + + + + + + + + + + + + + + + + + + + + + + + + + + + + + + + + + + + + + + + + + + "};
