/* XPM */
static const char * cdplayer_xpm[] = {
"64 64 8 1",
" 	c None",
".	c #000000",
"X	c #282828 s color_back",
"o	c #C7C3C7",
"O	c #F7F3FF",
"+	c #86828E",
"@	c #AEAAAE",
"Q      c #0000FF s led_color_high",
"                                                                ",
"                                                                ",
"                                                                ",
"                                                                ",
"    ........................................................    ",
"    .XXXXXXXXXXXXXXXXXXXXXXXXXXXXXXXXXXXXXXXXXXXXXXXXXXXXXXo    ",
"    .XXXXXXXXXXXXXXXXXXXXXXXXXXXXXXXXXXXXXXXXXXXXXXXXXXXXXXo    ",
"    .XXXXXXXXXXXXXXXXXXXXXXXXXXXXXXXXXXXXXXXXXXXXXXXXXXXXXXo    ",
"    .XXXXXXXXXXXXXXXXXXXXXXXXXXXXXXXXXXXXXXXXXXXXXXXXXXXXXXo    ",
"    .XXXXXXXXXXXXXXXXXXXXXXXXXXXXXXXXXXXXXXXXXXXXXXXXXXXXXXo    ",
"    .XXXXXXXXXXXXXXXXXXXXXXXXXXXXXXXXXXXXXXXXXXXXXXXXXXXXXXo    ",
"    .XXXXXXXXXXXXXXXXXXXXXXXXXXXXXXXXXXXXXXXXXXXXXXXXXXXXXXo    ",
"    .XXXXXXXXXXXXXXXXXXXXXXXXXXXXXXXXXXXXXXXXXXXXXXXXXXXXXXo    ",
"    .XXXXXXXXXXXXXXXXXXXXXXXXXXXXXXXXXXXXXXXXXXXXXXXXXXXXXXo    ",
"    .XXXXXXXXXXXXXXXXXXXXXXXXXXXXXXXXXXXXXXXXXXXXXXXXXXXXXXo    ",
"    .XXXXXXXXXXXXXXXXXXXXXXXXXXXXXXXXXXXXXXXXXXXXXXXXXXXXXXo    ",
"    .XXXXXXXXXXXXXXXXXXXXXXXXXXXXXXXXXXXXXXXXXXXXXXXXXXXXXXo    ",
"    .XXXXXXXXXXXXXXXXXXXXXXXXXXXXXXXXXXXXXXXXXXXXXXXXXXXXXXo    ",
"    .XXXXXXXXXXXXXXXXXXXXXXXXXXXXXXXXXXXXXXXXXXXXXXXXXXXXXXo    ",
"    .XXXXXXXXXXXXXXXXXXXXXXXXXXXXXXXXXXXXXXXXXXXXXXXXXXXXXXo    ",
"    .XXXXXXXXXXXXXXXXXXXXXXXXXXXXXXXXXXXXXXXXXXXXXXXXXXXXXXo    ",
"    .XXXXXXXXXXXXXXXXXXXXXXXXXXXXXXXXXXXXXXXXXXXXXXXXXXXXXXo    ",
"    .XXXXQQQXXXXXQXXXXXXXXXXXXXXXXXXXXXXXXXXXXXXXXXXXXXXXXXo    ",
"    .XXXXXQXXXQQXQXQXXQXXXXXXXXXXXXXXXXXXXXXXXXXXXXXXXXXXXXo    ",
"    .XXXXXQXXQXXXQQXXXXXXXXXXXXXXXXXXXXXXXXXXXXXXXXXXXXXXXXo    ",
"    .XXXXXQXXQXXXQQXXXXXXXXXXXXXXXXXXXXXXXXXXXXXXXXXXXXXXXXo    ",
"    .XXXXXQXXQXXXQXQXXQXXXXXXXXXXXXXXXXXXXXXXXXXXXXXXXXXXXXo    ",
"    .XXXXXXXXXXXXXXXXXXXXXXXXXXXXXXXXXXXXXXXXXXXXXXXXXXXXXXo    ",
"    .XXXXXXXXXXXXXXXXXXXXXXXXXXXXXXXXXXXXXXXXXXXXXXXXXXXXXXo    ",
"    .XXXXXXXXXXXXXXXXXXXXXXXXXXXXXXXXXXXXXXXXXXXXXXXXXXXXXXo    ",
"    .XXXXXXXXXXXXXXXXXXXXXXXXXXXXXXXXXXXXXXXXXXXXXXXXXXXXXXo    ",
"    oooooooooooooooooooooooooooooooooooooooooooooooooooooooo    ",
"                                                                ",
"                                                                ",
"                                                                ",
"    ........................................................    ",
"    .OOOOOOOOOOOO+OOOOOOOOOOOOO+OOOOOOOOOOOOO+OOOOOOOOOOOO+o    ",
"    .O@@@@@@@@@@@.O@@@@@@@@@@@@.O@@@@@@@@@@@@.O@@@@@@@@@@@.o    ",
"    .O@@@@@@@@@@@.O@@@@@@@@@@@@.O@@@@@@@@@@@@.O@@@@@@@@@@@.o    ",
"    .O@@@@@@@@@@@.O@@@@@@@@@@@@.O@@@@@@@@@@@@.O@@@@@@@@@@@.o    ",
"    .O@@@@@@@@@@@.O@@@@@@@@@@@@.O@@@@@@@@@@@@.O@@@@@@@@@@@.o    ",
"    .O@@@@@@@@@@@.O@@@@@@@@@@@@.O@@@@@@@@@@@@.O@@@@@@@@@@@.o    ",
"    .O@@@@@@@@@@@.O@@@@@@@@@@@@.O@@@@@@@@@@@@.O@@@@@@@@@@@.o    ",
"    .O@@@@@@@@@@@.O@@@@@@@@@@@@.O@@@@@@@@@@@@.O@@@@@@@@@@@.o    ",
"    .O@@@@@@@@@@@.O@@@@@@@@@@@@.O@@@@@@@@@@@@.O@@@@@@@@@@@.o    ",
"    .O@@@@@@@@@@@.O@@@@@@@@@@@@.O@@@@@@@@@@@@.O@@@@@@@@@@@.o    ",
"    .+............+.............+.............+............o    ",
"    .OOOOOOOOOOOO+OOOOOOOOOOOOOOOOOOOOOOOOOOO+OOOOOOOOOOOO+o    ",
"    .O@@@@@@@@@@@.O@@@@@@@@@@@@@@@@@@@@@@@@@@.O@@@@@@@@@@@.o    ",
"    .O@@@@@@@@@@@.O@@@@@@@@@@@@@@@@@@@@@@@@@@.O@@@@@@@@@@@.o    ",
"    .O@@@@@@@@@@@.O@@@@@@@@@@@@@@@@@@@@@@@@@@.O@@@@@@@@@@@.o    ",
"    .O@@@@@@@@@@@.O@@@@@@@@@@@@@@@@@@@@@@@@@@.O@@@@@@@@@@@.o    ",
"    .O@@@@@@@@@@@.O@@@@@@@@@@@@@@@@@@@@@@@@@@.O@@@@@@@@@@@.o    ",
"    .O@@@@@@@@@@@.O@@@@@@@@@@@@@@@@@@@@@@@@@@.O@@@@@@@@@@@.o    ",
"    .O@@@@@@@@@@@.O@@@@@@@@@@@@@@@@@@@@@@@@@@.O@@@@@@@@@@@.o    ",
"    .O@@@@@@@@@@@.O@@@@@@@@@@@@@@@@@@@@@@@@@@.O@@@@@@@@@@@.o    ",
"    .O@@@@@@@@@@@.O@@@@@@@@@@@@@@@@@@@@@@@@@@.O@@@@@@@@@@@.o    ",
"    .+............+...........................+............o    ",
"    oooooooooooooooooooooooooooooooooooooooooooooooooooooooo    ",
"                                                                ",
"                                                                ",
"                                                                ",
"                                                                ",
"                                                                "};
