/* XPM */
static char * led_xpm[] = {
"128 9 3 1",
" 	c #282828 s color_back",
"1	c #006200 s led_color_low",
"0	c #00ff00 s led_color_high",
"10001  1111 10001 10001 11111 10001 10001 10001 10001 10001  111  10001 10001 10001 10001 10001 10001  111  10001 10001         ",
"0 1 0 1 1 0 1 1 0 1 1 0 0 1 0 0 1 1 0 1 1 1 1 0 0 1 0 0 1 0 1 1 1 1 0 0 0 1 0 1 0 1 0 1 0 0 1 0 0 1 1 1 1 1 0 1 0 0 1 1         ",
"0 1 0 1 1 0 1 1 0 1 1 0 0 1 0 0 1 1 0 1 1 1 1 0 0 1 0 0 1 0 1 1 1 1 0 0 0 1 0 1 0 1 0 1 0 0 1 0 0 1 1 1 1 1 0 1 0 0 1 1  0  1  1",
"0   0 1   0 1   0 1   0 0   0 0   1 0   1 1   0 0   0 0   0 1   1 1 1 0 0   0 1 1 1 0   0 0   0 0   1 1   1 0   0 0   1         ",
"11111  1111 10001 10001 10001 10001 10001  1 11 10001 10001  111   1111 10001  111  11111 11111 11111 10001 10001 10001 11 11 00",
"0   0 1   0 0   1 1   0 1   0 1   0 0   0 1   0 0   0 1   0 1   1 1 1 0 0   0 1 1 1 0   0 0   0 0   1 1   1 0   1 0   1         ",
"0 1 0 1 1 0 0 1 1 1 1 0 1 1 0 1 1 0 0 1 0 1 1 0 0 1 0 1 1 0 1 1 1 1 0 0 0 1 0 1 0 1 0 1 0 0 1 0 0 1 1 1 1 1 0 1 1 0 1 1  0  1  1",
"0 1 0 1 1 0 0 1 1 1 1 0 1 1 0 1 1 0 0 1 0 1 1 0 0 1 0 1 1 0 1 1 1 1 0 0 0 1 0 1 0 1 0 1 0 0 1 0 0 1 1 1 1 1 0 1 1 0 1 1         ",
"10001  1111 10001 10001  1111 10001 10001  1111 10001 10001  111  10001 11111  111  11111 10001 10001  111  1111  10001         "};
