/* XPM */
static const char * ledsym_xpm[] = {
"59 9 3 1",
" 	c #282828 s color_back",
"0      c #00ff00 s led_color_high",
"1      c #006200 s color_back",
"0 0 0 0 0 0 0 0 0 0 0 1 1 1 1 0 0 1 0 0 1 1 0 1 1 1 1 0 1 1",
"                                                           ",
"0 0 0 0 0 0 0 0 0 0 0 0 0 1 1 0 0 1 0 0 1 0 0 0 1 1 0 0 0 1",
"                                                           ",
"0 0 0 0 0 0 0 0 0 0 0 0 0 0 0 0 0 1 0 0 0 0 0 0 0 0 0 0 0 0",
"                                                           ",
"0 0 0 0 0 0 0 0 0 0 0 0 0 1 1 0 0 1 0 0 1 1 1 1 1 1 1 1 1 1",
"                                                           ",
"0 0 0 0 0 0 0 0 0 0 0 1 1 1 1 0 0 1 0 0 0 0 0 0 0 0 0 0 0 0"};
