/* XPM */
static const char * ledtsel_xpm[] = {
"69 7 2 1",
" 	c #282828 s color_back",
"0	c #00ff00 s led_color_high",
"                                                                     ",
"                                  0    0        0                 0  ",
"      0    0        0         0000000  0    0000000         0   0  0 ",
"  0000000  0    0000000      0    0    0   0    0        00000 00000 ",
"      0    0        0        0             0             0  0   0    ",
"                              0000          0000          0          ",
"                                                                     "};
