/* XPM */
static char *pushed_buttons_xpm[] = {
/* width height num_colors chars_per_pixel */
"    48    53        6            1",
/* colors */
". c #F6DEB3",
"# c #000000",
"a c #313121",
"  c #635842",
"c c #9D906D",
"R c #FF0000",
/* pixels */
"aaaaaaaaaaaaaaaaaaaaaaaaaaaaaaaaaaaaaaaaaaaaaaaa",
"a##############################################a",
"a#cccccccccccccccccccccccccccccccccccccccccccc#a",
"a#c                                          c#a",
"a#c                                          c#a",
"a#c                                          c#a",
"a#c                                          c#a",
"a#c                                          c#a",
"a#c                                          c#a",
"a#c                                          c#a",
"a#c                                          c#a",
"a#c                                          c#a",
"a#c                                          c#a",
"a#c                                          c#a",
"a#c                                          c#a",
"a#c                                          c#a",
"a#c                                          c#a",
"a#c                                          c#a",
"a#c                                          c#a",
"a#c                                          c#a",
"a#c                                          c#a",
"a#c                                          c#a",
"a#c                                          c#a",
"a#c                                          c#a",
"a#c                                          c#a",
"a#c                                          c#a",
"a#c                                          c#a",
"a#c                                          c#a",
"a#c                                          c#a",
"a#c                                          c#a",
"a#c                                          c#a",
"a#c                                          c#a",
"a#c                                          c#a",
"a#c                                          c#a",
"a#c                                          c#a",
"a#c                                          c#a",
"a#c                                          c#a",
"a#c                                          c#a",
"a#c                                          c#a",
"a#c                                          c#a",
"a#c                                          c#a", 
"a#c                                          c#a",
"a#c                                          c#a",
"a#c                                          c#a",
"a#c                                          c#a",
"a#cccccccccccccccccccccccccccccccccccccccccccc#a",
"a##############################################a",
"aaaaaaaaaaaaaaaaaaaaaaaaaaaaaaaaaaaaaaaaaaaaaaaa",
" ..  .... .... .   ...... ...  .... ...  ...    ",
"  .      .    ..   ..    .        ..   ..   .   ",
"  .    ..  ... ......... ....     . ...  ....   ",
"  .  .        .    .    ..   .    ..   .    .   ",
" ... .........     ....   ...     . ...  ...    ",

};
