/* XPM */
static char * ledtsel_xpm[]={
"29 11 2 1",
"      c #000000",
"0     c #00ff00 s led_color_high",
"             00    00    00  ",
"  0     0   0  0  0  0  0 0  ",
"  0     0   0  0  0  0    0  ",
"  0     0   0  0  0  0   000 ",
"  0     0   0  0  0  0    0  ",
" 000   000    000   000      ",
"  0     0      0     0    0  ",
"  0     0      0     0   000 ",
"                          0  ",
"                          0 0",
" 000          000         00 "};
