/* XPM */
static char * symbols_xpm[] = {
"65 5 2 1",
" 	c None",
"0	c #000000",
"      00000 0     00 00 00 00 0   0 0   0               0   00000",
"      00000 000   00 00 00 00 0 000 000 0  0  0 0  0   000   000 ",
"      00000 00000 00 00 00 00 00000 00000 00 00 00 00 00000   0  ",
"      00000 000   00 00 00 00 0 000 000 0  0  0 0  0             ",
"      00000 0     00 00 00 00 0   0 0   0             00000 00000"};
