/* XPM */
static char * cdplayer_xpm[] = {
"64 64 6 1",
" 	c None",
".	c #410341034103",
"X	c #000000000000",
"o	c #C71BC30BC71B",
"O	c #618561856185",
"+	c #B6DAB2CAB6DA",
"                                                                ",
"                                                                ",
"                                                                ",
"                                                                ",
"                                                                ",
"                                                                ",
"                                                                ",
"                                                                ",
"                                                                ",
"                                                                ",
"                                                                ",
"                  ............................                  ",
"                  .XXXXXXXXXXXXXXXXXXXXXXXXXXo                  ",
"                  .XXXXXXXXXXXXXXXXXXXXXXXXXXo                  ",
"                  .XXXXXXXXXXXXXXXXXXXXXXXXXXo                  ",
"                  .XXXXXXXXXXXXXXXXXXXXXXXXXXo                  ",
"                  .XXXXXXXXXXXXXXXXXXXXXXXXXXo                  ",
"                  .XXXXXXXXXXXXXXXXXXXXXXXXXXo                  ",
"                  .XXXXXXXXXXXXXXXXXXXXXXXXXXo                  ",
"                  .XXXXXXXXXXXXXXXXXXXXXXXXXXo                  ",
"                  .XXXXXXXXXXXXXXXXXXXXXXXXXXo                  ",
"                  .XXXXXXXXXXXXXXXXXXXXXXXXXXo                  ",
"                  .XXXXXXXXXXXXXXXXXXXXXXXXXXo                  ",
"                  .XXXXXXXXXXXXXXXXXXXXXXXXXXo                  ",
"                  .XXXXXXXXXXXXXXXXXXXXXXXXXXo                  ",
"                  .XXXXXXXXXXXXXXXXXXXXXXXXXXo                  ",
"                  .XXXXXXXXXXXXXXXXXXXXXXXXXXo                  ",
"                  oooooooooooooooooooooooooooo                  ",
"                                                                ",
"                                                                ",
"                                                                ",
"                                                                ",
"                                                                ",
"  OOOOOOOOOOOOOOOOOOOOOOOOOOOOOOOOOOOOOOOOOOOOOOOOOOOOOOOOOOOO  ",
"  ++++++++++++++++++++++++++++++++++++++++++++++++++++++++++++  ",
"     OOOOOOOOOOOOOOOOOOOOOOOOOOOOOOOOOOOOOOOOOOOOOOOOOOOOOO     ",
"     OXXXXXXXXXXXXXXXXXXXXXXXXXXXXXXXXXXXXXXXXXXXXXXXXXXXX+     ",
"     OXXXXXXXXXXXXXXXXXXXXXXXXXXXXXXXXXXXXXXXXXXXXXXXXXXXX+     ",
"     OXXXXXXXXXXXXXXXXXXXXXXXXXXXXXXXXXXXXXXXXXXXXXXXXXXXX+     ",
"     OXXXXXXXXXXXXXXXXXXXXXXXXXXXXXXXXXXXXXXXXXXXXXXXXXXXX+     ",
"     OXXXXXXXXXXXXXXXXXXXXXXXXXXXXXXXXXXXXXXXXXXXXXXXXXXXX+     ",
"     OXXXXXXXXXXXXXXXXXXXXXXXXXXXXXXXXXXXXXXXXXXXXXXXXXXXX+     ",
"     OXXXXXXXXXXXXXXXXXXXXXXXXXXXXXXXXXXXXXXXXXXXXXXXXXXXX+     ",
"     OXXXXXXXXXXXXXXXXXXXXXXXXXXXXXXXXXXXXXXXXXXXXXXXXXXXX+     ",
"     OXXXXXXXXXXXXXXXXXXXXXXXXXXXXXXXXXXXXXXXXXXXXXXXXXXXX+     ",
"     OXXXXXXXXXXXXXXXXXXXXXXXXXXXXXXXXXXXXXXXXXXXXXXXXXXXX+     ",
"     OXXXXXXXXXXXXXXXXXXXXXXXXXXXXXXXXXXXXXXXXXXXXXXXXXXXX+     ",
"     OXXXXXXXXXXXXXXXXXXXXXXXXXXXXXXXXXXXXXXXXXXXXXXXXXXXX+     ",
"     OXXXXXXXXXXXXXXXXXXXXXXXXXXXXXXXXXXXXXXXXXXXXXXXXXXXX+     ",
"     ++++++++++++++++++++++++++++++++++++++++++++++++++++++     ",
"  OOOOOOOOOOOOOOOOOOOOOOOOOOOOOOOOOOOOOOOOOOOOOOOOOOOOOOOOOOOO  ",
"  ++++++++++++++++++++++++++++++++++++++++++++++++++++++++++++  ",
"                                                                ",
"                                                                ",
"                                                                ",
"                                                                ",
"                                                                ",
"                                                                ",
"                                                                ",
"                                                                ",
"                                                                ",
"                                                                ",
"                                                                ",
"                                                                "};

