/* XPM */
static const char * ledsym_xpm[] = {
"35 5 2 1",
"       c #000000",
"0      c #00ff00 s led_color_high",
"00000 00000 0     00 00   0     0  ",
"00000 00000 000   00 00  000   000 ",
"00000 00000 00000 00 00 00000 00000",
"00000 00000 000   00 00            ",
"00000 00000 0     00 00 00000 00000"};
