/* XPM */
static char * symbols_xpm[] = {
"87 7 26 1",
" 	c None",
".	c #CF3CCF3CCF3C",
"X	c #E79DE38DE79D",
"o	c #E79DE79DE79D",
"O	c #CF3CCB2BCF3C",
"+	c #B6DAB6DAB6DA",
"@	c #C71BC71BC71B",
"#	c #DF7DDB6CDF7D",
"$	c #D75CD34CD75C",
"%	c #BEFBBAEABEFB",
"&	c #A699A289A699",
"*	c #EFBEEFBEEFBE",
"=	c #9E799E799E79",
"-	c #AEBAAAAAAEBA",
";	c #71C675D671C6",
":	c #965896589658",
">	c #79E77DF779E7",
",	c #69A669A669A6",
"<	c #49244D344924",
"1	c #8E388A288E38",
"2	c #492449244924",
"3	c #59655D755965",
"4	c #69A66DB669A6",
"5	c #38E33CF338E3",
"6	c #514455555144",
"7	c #8E388E388E38",
"        .XoooO+ .@+     .XO#XO+ .XO#XO+ .@+ .@+ .@+ .@+                   .@+   .XoooO+",
"        $oooo%& $X#O+   $o%#o%& $o%#o%& $@OX*O& $X#OX@&  .@+.@+ .@+.@+   .oo%+  +$XoO&=",
"        %%---;; %$O##O+ %%;-%;; %%;-%;; %.O*X&; %$O#X+; .oOOoO& $X%XX%+ .oo#%%+ :>>,<<>",
"        %%---;; %%-11== %%;-%;; %%;-%;; %+-%-;; %%-1-=; +%=1%=; %+;%+;= +=;234=  :>2<> ",
"        %%---;; %=3553> %%;-%;; %%;-%;; %:36;4; %=35;>; :>33>34 =;<;;<> %%---11 .XX#OO+",
"        =>222<4 =;53>   =><,><4 =><,><4 =73;634 =;53;74  :7>:7> :7>:7>  ++---== ++---==",
"        :;2223> :7>     :;3,;3> :;3,;3> :7> :7> :7> :7>                 :;2223> :;2223>"};

