/* XPM */
static char * capshare_xpm[] = {
"60 29 4 1",
" 	c None",
".	c #8E8E69",
"+	c #000000",
"@	c #7F8073",
"............................................................",
"............................................................",
"............................................................",
"............................................................",
".....................++++++++++++++++.......................",
".................++++++++++++++++++++++++...................",
"................++++++++++++++++++++++++++..................",
"................++++++++++++++++++++++++++..................",
"...............++++++++++++++++++++++++++++.................",
"...............++++++@@@@@@@@@@@@@@@@++++++.................",
"...............++++++@@@@@@@@@@@@@@@@++++++.................",
"...............++++++@@@@@@@@@@@@@@@@++++++.................",
"...............++++++@@@@@@@@@@@@@@@@++++++.................",
"...............++++++@@@@@@@@@@@@@@@@++++++.................",
"...............++++++@@@@@@@@@@@@@@@@++++++.................",
"...............++++++@@@@@@@@@@@@@@@@++++++.................",
"...............++++++@@@@@@@@@@@@@@@@++++++.................",
"..............+++++++@@@@@@@@@@@@@@@@++++++.................",
"..............+++++++@@@@@@@@@@@@@@@@+++++++................",
"..............++++++++++++++++++++++++++++++................",
"..............++++++++++++++++++++++++++++++................",
"..............++++++++++++++++++++++++++++++................",
"..............++++++++++++++++++++++++++++++................",
"..............++++++++++++++++++++++++++++++................",
"..............++++++++++++++++++++++++++++++................",
"..............++++++++++++++++++++++++++++++................",
"............................................................",
"............................................................",
"............................................................"};
