/* XPM */
static char * disconnected_xpm[] = {
"14 15 3 1",
" 	c None",
".	c #8E8E69",
"+	c #000000",
"..............",
"..............",
"..............",
"..............",
"..............",
"...++....++...",
"..+++...++++..",
"+++++....+++++",
"..+++...++++..",
"...++....++...",
"..............",
"..............",
"..............",
"..............",
".............."};
