/* XPM */
static char * lcdnums_xpm[] = {
"60 8 4 1",
" 	c None",
".	c #8E8E69",
"+	c #000000",
"@	c #616551",
"............................................................",
"..+++...@@@@.@+++@.@+++@.@@@@@.@+++@.@+++@.@+++@.@+++@.@+++@",
".+...+.@...+.@...+.@...+.+...+.+...@.+...@.@...+.+...+.+...+",
".+...+.@...+.@...+.@...+.+...+.+...@.+...@.@...+.+...+.+...+",
".@@@@@..@@@@.@+++@..+++@.@+++@.@+++@.@+++@..@@@@.@+++@.@+++@",
".+...+.@...+.+...@.@...+.@...+.@...+.+...+.@...+.+...+.@...+",
".+...+.@...+.+...@.@...+.@...+.@...+.+...+.@...+.+...+.@...+",
"..+++...@@@+.@+++@.@+++@..@@@@.@+++@.@+++@..@@@@.@+++@.@+++@"};
