/* XPM */
static char * mask_xpm[] = {
"55 57 2 1",
" 	c #282828282828",
".	c #ffffffffffff",
"                                                       ",
"                                                      .",
"                                                      .",
"                                                      .",
"                                                      .",
"                                                      .",
"                                                      .",
"                                                      .",
"                                                      .",
"                                                      .",
"                                                      .",
"                                                      .",
"                                                      .",
"                                                      .",
"                                                      .",
"                                                      .",
"                                                      .",
"                                                      .",
"                                                      .",
"                                                      .",
"                                                      .",
"                                                      .",
"                                                      .",
"                                                      .",
"                                                      .",
"                                                      .",
"                                                      .",
"                                                      .",
"                                                      .",
"                                                      .",
"                                                      .",
"                                                      .",
"                                                      .",
"                                                      .",
"                                                      .",
"                                                      .",
"                                                      .",
"                                                      .",
"                                                      .",
"                                                      .",
"                                                      .",
"                                                      .",
"                                                      .",
"                                                      .",
"                                                      .",
"                                                      .",
"                                                      .",
"                                                      .",
"                                                      .",
"                                                      .",
"                                                      .",
"                                                      .",
"                                                      .",
"                                                      .",
"                                                      .",
"                                                      .",
"  ....................................................."};
