/* XPM */
static char * status_error_xpm[] = {
"16 16 105 2",
"  	c None",
". 	c #000000",
"+ 	c #B81818",
"@ 	c #B61818",
"# 	c #AD1514",
"$ 	c #A11111",
"% 	c #920B0B",
"& 	c #7E0504",
"* 	c #B91819",
"= 	c #B9191B",
"- 	c #B51A1B",
"; 	c #C21D1C",
"> 	c #C21A1B",
", 	c #B51718",
"' 	c #9B0E0E",
") 	c #7E0505",
"! 	c #6F0204",
"~ 	c #B21717",
"{ 	c #B41919",
"] 	c #952A2A",
"^ 	c #B37575",
"/ 	c #971C1C",
"( 	c #BF1D1C",
"_ 	c #B81718",
": 	c #880E0E",
"< 	c #824040",
"[ 	c #5C1617",
"} 	c #620204",
"| 	c #B71819",
"1 	c #A21819",
"2 	c #DBC6C4",
"3 	c #FEFEFC",
"4 	c #CDACAB",
"5 	c #901414",
"6 	c #955959",
"7 	c #CFC1C0",
"8 	c #550204",
"9 	c #6D0204",
"0 	c #A21110",
"a 	c #BB1819",
"b 	c #B11C1C",
"c 	c #994948",
"d 	c #F2EBEA",
"e 	c #F8F4F3",
"f 	c #9B5F5F",
"g 	c #7C3333",
"h 	c #F7F4F2",
"i 	c #764849",
"j 	c #5C0204",
"k 	c #710204",
"l 	c #9C0F0F",
"m 	c #C31D1B",
"n 	c #A01C1C",
"o 	c #B88786",
"p 	c #E3D7D5",
"q 	c #A17B7B",
"r 	c #5B0204",
"s 	c #6B0204",
"t 	c #930C0B",
"u 	c #AA1414",
"v 	c #BA191A",
"w 	c #B51A1A",
"x 	c #7F1414",
"y 	c #CAB0AF",
"z 	c #BFADAC",
"A 	c #550405",
"B 	c #850707",
"C 	c #990E0E",
"D 	c #A51212",
"E 	c #9A1111",
"F 	c #77201F",
"G 	c #DED5D4",
"H 	c #571617",
"I 	c #600204",
"J 	c #6C0204",
"K 	c #790304",
"L 	c #840706",
"M 	c #890808",
"N 	c #6D0909",
"O 	c #B2908F",
"P 	c #C5B7B6",
"Q 	c #4A0204",
"R 	c #660204",
"S 	c #6E0204",
"T 	c #750304",
"U 	c #977171",
"V 	c #E6DFDE",
"W 	c #501617",
"X 	c #D6CBCA",
"Y 	c #A08584",
"Z 	c #510204",
"` 	c #680204",
" .	c #530204",
"..	c #7C5253",
"+.	c #5A0204",
"@.	c #6D3E3F",
"#.	c #642A2B",
"$.	c #650204",
"%.	c #703E3F",
"&.	c #560204",
"*.	c #690204",
"=.	c #570204",
"-.	c #6E3E3F",
";.	c #630204",
">.	c #640204",
"          . . . . . .           ",
"      . . + @ # $ % & . .       ",
"    . * = - ; > , ' ) ! ! .     ",
"  . ~ { ] ^ / ( _ : < [ } ! .   ",
"  . | 1 2 3 4 / 5 6 3 7 8 9 .   ",
". 0 a b c d e f g h 3 i j ! k . ",
". l @ m n o 3 3 p 3 q r s k k . ",
". t u v w x y 3 3 z A s ! k k . ",
". B C D E F p 3 3 G H I J ! k . ",
". K L M N O 3 G G 3 P Q R k S . ",
". k T } U 3 V W W X 3 Y Z ` k . ",
"  . S  .7 3 ..8 +.@.3 3 #.$..   ",
"  . ! } H %.&.s *.=.-.-.+.J .   ",
"    . ! R ;.9 k k J >.>.s .     ",
"      . . k k S k k k . .       ",
"          . . . . . .           "};
