/* XPM */
static char * buttons_xpm[] = {
"54 54 797 2",
"  	c None",
". 	c #FFFFFF",
"+ 	c #AEAAAE",
"@ 	c #000000",
"# 	c #EDEDED",
"$ 	c #E7E7E8",
"% 	c #DCDCDE",
"& 	c #D0D1D5",
"* 	c #878D9B",
"= 	c #858E9F",
"- 	c #808793",
"; 	c #7A869E",
"> 	c #8C94A1",
", 	c #A2A5AD",
"' 	c #C6C6C9",
") 	c #C2C2C5",
"! 	c #FCFCFC",
"~ 	c #F9F9F9",
"{ 	c #F4F4F4",
"] 	c #EFEFEF",
"^ 	c #EAEAEA",
"/ 	c #E6E6E6",
"( 	c #E1E1E1",
"_ 	c #DCDCDC",
": 	c #D7D7D7",
"< 	c #D3D3D3",
"[ 	c #CFCFCF",
"} 	c #CACACA",
"| 	c #C5C5C5",
"1 	c #C0C0C0",
"2 	c #BCBCBC",
"3 	c #B7B7B7",
"4 	c #6F706F",
"5 	c #686868",
"6 	c #C5C7CF",
"7 	c #717E92",
"8 	c #889CA3",
"9 	c #CFE3D8",
"0 	c #D1E6D5",
"a 	c #D1E7D4",
"b 	c #D6EFD3",
"c 	c #D8F0D3",
"d 	c #B6C9C3",
"e 	c #B8C1BE",
"f 	c #ABAEB8",
"g 	c #BCBCC0",
"h 	c #EFEEEE",
"i 	c #F6F6F4",
"j 	c #F6F7F3",
"k 	c #F3F4EE",
"l 	c #E2E3DF",
"m 	c #C5C5BE",
"n 	c #B3B2A9",
"o 	c #9F9F94",
"p 	c #868685",
"q 	c #6E706A",
"r 	c #949685",
"s 	c #B2B2B2",
"t 	c #514E5A",
"u 	c #1A1729",
"v 	c #201A30",
"w 	c #23203B",
"x 	c #232039",
"y 	c #211E37",
"z 	c #616161",
"A 	c #6E6E6E",
"B 	c #C4C7D0",
"C 	c #76899C",
"D 	c #ADD1B9",
"E 	c #CCFBB9",
"F 	c #C5F1B5",
"G 	c #B3D5AF",
"H 	c #BAE1AB",
"I 	c #C5F6A7",
"J 	c #C3F4A2",
"K 	c #BFF09E",
"L 	c #AAD39E",
"M 	c #86A197",
"N 	c #B6B6BA",
"O 	c #B4B3B6",
"P 	c #898297",
"Q 	c #554A75",
"R 	c #40365E",
"S 	c #241A4B",
"T 	c #170B46",
"U 	c #12093E",
"V 	c #0E0737",
"W 	c #0A0530",
"X 	c #060429",
"Y 	c #030325",
"Z 	c #00031F",
"` 	c #A1A2A0",
" .	c #575747",
"..	c #ADADAD",
"+.	c #5B566C",
"@.	c #353056",
"#.	c #423968",
"$.	c #48416C",
"%.	c #484066",
"&.	c #413969",
"*.	c #546586",
"=.	c #90C39C",
"-.	c #E2FF9C",
";.	c #93B38F",
">.	c #79899E",
",.	c #7585AA",
"'.	c #96BA9B",
").	c #B2EC86",
"!.	c #B0EB7F",
"~.	c #ACE777",
"{.	c #A9E571",
"].	c #A5DF6F",
"^.	c #1C3078",
"/.	c #B2B2B6",
"(.	c #ACACB1",
"_.	c #B2B2B3",
":.	c #4D436A",
"<.	c #160350",
"[.	c #13034B",
"}.	c #110346",
"|.	c #0F0340",
"1.	c #0C033A",
"2.	c #0A0335",
"3.	c #07032F",
"4.	c #05032A",
"5.	c #A3A4A3",
"6.	c #5C5C4D",
"7.	c #A8A8A8",
"8.	c #615C75",
"9.	c #423A61",
"0.	c #4F4D70",
"a.	c #594E85",
"b.	c #493F66",
"c.	c #BEC3CF",
"d.	c #3E6C75",
"e.	c #98D080",
"f.	c #5D6C8D",
"g.	c #6174A4",
"h.	c #5F73AC",
"i.	c #6985A2",
"j.	c #9ADA69",
"k.	c #9CE05B",
"l.	c #9ADC58",
"m.	c #98DA58",
"n.	c #96D758",
"o.	c #95D358",
"p.	c #296B42",
"q.	c #6E7A9B",
"r.	c #B1B0B1",
"s.	c #4E436A",
"t.	c #070330",
"u.	c #A4A5A3",
"v.	c #61614F",
"w.	c #3B3B2E",
"x.	c #635C75",
"y.	c #3D3660",
"z.	c #494169",
"A.	c #4B4669",
"B.	c #4F4A6A",
"C.	c #8D8F8D",
"D.	c #878787",
"E.	c #A4A4A4",
"F.	c #63778E",
"G.	c #5EA750",
"H.	c #638F72",
"I.	c #4D659F",
"J.	c #4B61A2",
"K.	c #5B7E8A",
"L.	c #87CD4C",
"M.	c #8BD442",
"N.	c #89D142",
"O.	c #88CD42",
"P.	c #87CA42",
"Q.	c #84C742",
"R.	c #83C342",
"S.	c #74DD00",
"T.	c #0B2668",
"U.	c #A6A6AC",
"V.	c #AEAEAF",
"W.	c #4D4269",
"X.	c #261459",
"Y.	c #281C4E",
"Z.	c #2A1E4E",
"`.	c #150945",
" +	c #0C033B",
".+	c #0A0336",
"++	c #A7A7A5",
"@+	c #6A6B59",
"#+	c #454632",
"$+	c #5D5871",
"%+	c #333158",
"&+	c #3D3460",
"*+	c #423E65",
"=+	c #515171",
"-+	c #9D9E9D",
";+	c #626262",
">+	c #8A8A8A",
",+	c #2B4B70",
"'+	c #56A62B",
")+	c #396362",
"!+	c #3C598C",
"~+	c #354C99",
"{+	c #507D6E",
"]+	c #76BF33",
"^+	c #78C32D",
"/+	c #77C02D",
"(+	c #74BC2D",
"_+	c #73B82D",
":+	c #71B42D",
"<+	c #6BAE28",
"[+	c #5EB800",
"}+	c #002F32",
"|+	c #ACADB5",
"1+	c #ADACAE",
"2+	c #52476D",
"3+	c #38314A",
"4+	c #0A0809",
"5+	c #181618",
"6+	c #362F50",
"7+	c #0F053D",
"8+	c #000320",
"9+	c #ABACAB",
"0+	c #757764",
"a+	c #565842",
"b+	c #28233D",
"c+	c #2E2749",
"d+	c #373051",
"e+	c #393561",
"f+	c #393259",
"g+	c #352C52",
"h+	c #1F4B59",
"i+	c #60C004",
"j+	c #5EB70D",
"k+	c #4C8A39",
"l+	c #2A4C7E",
"m+	c #264386",
"n+	c #417257",
"o+	c #4F8A3D",
"p+	c #62AC17",
"q+	c #5FA717",
"r+	c #5DA317",
"s+	c #599C18",
"t+	c #4A881A",
"u+	c #488C00",
"v+	c #0F4D20",
"w+	c #848FAC",
"x+	c #5A5072",
"y+	c #5F5A67",
"z+	c #676149",
"A+	c #777570",
"B+	c #25232F",
"C+	c #170E43",
"D+	c #05032B",
"E+	c #030326",
"F+	c #B0B0AF",
"G+	c #7E826D",
"H+	c #666751",
"I+	c #959497",
"J+	c #ACABAE",
"K+	c #737473",
"L+	c #302A4F",
"M+	c #3F3C64",
"N+	c #4B4274",
"O+	c #4F4876",
"P+	c #3F3C69",
"Q+	c #0A3455",
"R+	c #5CB800",
"S+	c #58B100",
"T+	c #6BD600",
"U+	c #2D5E1B",
"V+	c #1A3884",
"W+	c #1D3A85",
"X+	c #234573",
"Y+	c #4D9502",
"Z+	c #4B9203",
"`+	c #478D01",
" @	c #38770F",
".@	c #1D454C",
"+@	c #1F4B5B",
"@@	c #000E78",
"#@	c #8692B2",
"$@	c #AAABAB",
"%@	c #645C7A",
"&@	c #776349",
"*@	c #E5C319",
"=@	c #A78F32",
"-@	c #27232C",
";@	c #1E1448",
">@	c #080330",
",@	c #010320",
"'@	c #B2B3B2",
")@	c #888A75",
"!@	c #6D6F59",
"~@	c #393052",
"{@	c #494261",
"]@	c #52497A",
"^@	c #4F487A",
"/@	c #4D4669",
"(@	c #463E69",
"_@	c #30517B",
":@	c #54A800",
"<@	c #52A700",
"[@	c #1F3A7F",
"}@	c #25408A",
"|@	c #27428B",
"1@	c #294782",
"2@	c #468E00",
"3@	c #428203",
"4@	c #428600",
"5@	c #23466B",
"6@	c #224542",
"7@	c #437E00",
"8@	c #08083D",
"9@	c #84848C",
"0@	c #A7A7AA",
"a@	c #6D677D",
"b@	c #9A9798",
"c@	c #DBD0B1",
"d@	c #ECE9E0",
"e@	c #353334",
"f@	c #362F4E",
"g@	c #0F073A",
"h@	c #080331",
"i@	c #BBBCBB",
"j@	c #8B8E79",
"k@	c #72735E",
"l@	c #14D121",
"m@	c #332C54",
"n@	c #3D3A69",
"o@	c #494266",
"p@	c #494666",
"q@	c #494363",
"r@	c #3F3B66",
"s@	c #979897",
"t@	c #7185A6",
"u@	c #3D7E21",
"v@	c #3E7B1A",
"w@	c #253E82",
"x@	c #2C478F",
"y@	c #304B90",
"z@	c #334D92",
"A@	c #344D92",
"B@	c #335C3A",
"C@	c #3B7800",
"D@	c #315660",
"E@	c #233D6F",
"F@	c #264A37",
"G@	c #316902",
"H@	c #294489",
"I@	c #A8A7A8",
"J@	c #636264",
"K@	c #D9D8D7",
"L@	c #FAFAF8",
"M@	c #8D8D8D",
"N@	c #18171B",
"O@	c #514D66",
"P@	c #434058",
"Q@	c #403E53",
"R@	c #3D3C4F",
"S@	c #3A3B4A",
"T@	c #CACBC8",
"U@	c #8A8D78",
"V@	c #64665B",
"W@	c #58576C",
"X@	c #5C5874",
"Y@	c #5E5576",
"Z@	c #5C597A",
"`@	c #5E5778",
" #	c #5C5570",
".#	c #646464",
"+#	c #B7BAC1",
"@#	c #325B60",
"##	c #34623B",
"$#	c #324B91",
"%#	c #385194",
"&#	c #3C5497",
"*#	c #3F5698",
"=#	c #405799",
"-#	c #3F5699",
";#	c #3B5496",
">#	c #375095",
",#	c #2D486C",
"'#	c #2A4877",
")#	c #224372",
"!#	c #9F9EA1",
"~#	c #7F7E7E",
"{#	c #F9FAF8",
"]#	c #FBFBF9",
"^#	c #DEDFDD",
"/#	c #131313",
"(#	c #959695",
"_#	c #F0EFEA",
":#	c #ECECE7",
"<#	c #E9E9E4",
"[#	c #E7E7DE",
"}#	c #DEDED3",
"|#	c #858773",
"1#	c #555551",
"2#	c #6B6C6D",
"3#	c #828282",
"4#	c #C1C2C7",
"5#	c #7789A4",
"6#	c #375966",
"7#	c #435A9A",
"8#	c #485E9D",
"9#	c #4B609F",
"0#	c #4B619F",
"a#	c #475E9C",
"b#	c #42599A",
"c#	c #3B5396",
"d#	c #354E90",
"e#	c #364F91",
"f#	c #7A7A82",
"g#	c #A7A293",
"h#	c #F9F9F8",
"i#	c #F8F8F6",
"j#	c #F0EEDF",
"k#	c #1D1D19",
"l#	c #5D5C58",
"m#	c #C9C9BE",
"n#	c #C7C7BD",
"o#	c #939388",
"p#	c #929484",
"q#	c #9A9A8B",
"r#	c #595953",
"s#	c #515161",
"t#	c #B1B0B4",
"u#	c #B1AFB4",
"v#	c #858587",
"w#	c #6B6A6B",
"x#	c #757475",
"y#	c #787678",
"z#	c #7C7A7C",
"A#	c #C0C0C4",
"B#	c #8694BA",
"C#	c #0D2A87",
"D#	c #4F6795",
"E#	c #456952",
"F#	c #586BA6",
"G#	c #5E6DBC",
"H#	c #5F6DC0",
"I#	c #5966CC",
"J#	c #5B6EA8",
"K#	c #3A5195",
"L#	c #3A5293",
"M#	c #C7C1B4",
"N#	c #ECC635",
"O#	c #C4A420",
"P#	c #AFADA8",
"Q#	c #F9F9F6",
"R#	c #F9F9F7",
"S#	c #E6CD79",
"T#	c #7C5B09",
"U#	c #AB922F",
"V#	c #343326",
"W#	c #1E1E14",
"X#	c #313125",
"Y#	c #504F4F",
"Z#	c #CDBC6E",
"`#	c #AE6E22",
" $	c #6B6A6C",
".$	c #595959",
"+$	c #BFC7E0",
"@$	c #5369A2",
"#$	c #234C37",
"$$	c #30600E",
"%$	c #336407",
"&$	c #235A00",
"*$	c #406736",
"=$	c #1F397E",
"-$	c #6C7EAF",
";$	c #6D6D76",
">$	c #DBC475",
",$	c #F5CC10",
"'$	c #F4CA10",
")$	c #C1AC62",
"!$	c #EEEEEC",
"~$	c #C2C2C0",
"{$	c #A07F2F",
"]$	c #F5C80E",
"^$	c #F3CB17",
"/$	c #B0A263",
"($	c #626254",
"_$	c #595949",
":$	c #747474",
"<$	c #9B9B9D",
"[$	c #6E6C6F",
"}$	c #B7BFD7",
"|$	c #8695BE",
"1$	c #7484B4",
"2$	c #929EC4",
"3$	c #8997BF",
"4$	c #A4A5AF",
"5$	c #9A9693",
"6$	c #B9A478",
"7$	c #CBA133",
"8$	c #967432",
"9$	c #6F6D6D",
"0$	c #6F6B6D",
"a$	c #957642",
"b$	c #C59D35",
"c$	c #8D8D86",
"d$	c #8C8C8C",
"e$	c #7D7D7D",
"f$	c #797979",
"g$	c #6F6F6F",
"h$	c #9F9F9F",
"i$	c #696869",
"j$	c #F8F8F8",
"k$	c #F3F3F3",
"l$	c #EEEEEE",
"m$	c #E9E9E9",
"n$	c #090909",
"o$	c #D5D6D5",
"p$	c #CCCCCC",
"q$	c #C6C6C6",
"r$	c #C1C1C1",
"s$	c #DD0D8A",
"t$	c #0909EF",
"u$	c #E4E4E4",
"v$	c #DFDFDF",
"w$	c #DADADA",
"x$	c #D1D1D1",
"y$	c #A56721",
"z$	c #A3A3A3",
"A$	c #AFB505",
"B$	c #F79B31",
"C$	c #9E9E9E",
"D$	c #EFF707",
"E$	c #0D8214",
"F$	c #989898",
"G$	c #9A9A9A",
"H$	c #939393",
"I$	c #959595",
"J$	c #8E8E8E",
"K$	c #919191",
"L$	c #050591",
"M$	c #898989",
"N$	c #848484",
"O$	c #7F7F7F",
"P$	c #7A7A7A",
"Q$	c #757575",
"R$	c #F4C844",
"S$	c #707070",
"T$	c #6B6B6B",
"U$	c #676767",
"V$	c #E8E5E0",
"W$	c #E7E2C7",
"X$	c #D9D499",
"Y$	c #E4D08D",
"Z$	c #EABE8D",
"`$	c #E3B26B",
" %	c #E3B982",
".%	c #BDA385",
"+%	c #EDE1C3",
"@%	c #ECC48A",
"#%	c #F69854",
"$%	c #F78E42",
"%%	c #EB9D54",
"&%	c #FFC280",
"*%	c #DA776F",
"=%	c #EA3166",
"-%	c #DE2F66",
";%	c #D57F6A",
">%	c #BBA97D",
",%	c #95939B",
"'%	c #E609EA",
")%	c #850589",
"!%	c #EED392",
"~%	c #FFCF86",
"{%	c #FBBB57",
"]%	c #E92F00",
"^%	c #EB2F00",
"/%	c #D85025",
"(%	c #F3B366",
"_%	c #E6466F",
":%	c #FF0061",
"<%	c #DD7075",
"[%	c #D6B275",
"}%	c #B89A77",
"|%	c #88888E",
"1%	c #ECECEC",
"2%	c #FEFEFE",
"3%	c #F1DCB7",
"4%	c #FDCF86",
"5%	c #FFCF72",
"6%	c #F8BB57",
"7%	c #D02F00",
"8%	c #DF2F00",
"9%	c #EF4310",
"0%	c #F6B661",
"a%	c #E44D6C",
"b%	c #F00877",
"c%	c #F80677",
"d%	c #DD7179",
"e%	c #CEA764",
"f%	c #CE9B60",
"g%	c #FDFDFD",
"h%	c #9B9B9B",
"i%	c #F3D269",
"j%	c #F8D334",
"k%	c #FFDC45",
"l%	c #FAC75D",
"m%	c #DF7D3B",
"n%	c #E97A2A",
"o%	c #E7843C",
"p%	c #EDBD61",
"q%	c #E3947A",
"r%	c #DE6C79",
"s%	c #DB3686",
"t%	c #CE7E9D",
"u%	c #CE8BA6",
"v%	c #CE8188",
"w%	c #996D74",
"x%	c #7F7D85",
"y%	c #4F4F4F",
"z%	c #C4C4C4",
"A%	c #727272",
"B%	c #F6F6F6",
"C%	c #FFEB19",
"D%	c #FFFF00",
"E%	c #FFF709",
"F%	c #F2D135",
"G%	c #E5C26F",
"H%	c #D3CE77",
"I%	c #D1B165",
"J%	c #CFB875",
"K%	c #AF7C77",
"L%	c #B1306F",
"M%	c #961766",
"N%	c #9D36B5",
"O%	c #9F09D6",
"P%	c #A406CC",
"Q%	c #A55DB4",
"R%	c #898A8F",
"S%	c #ACACAC",
"T%	c #B0B0B1",
"U%	c #434343",
"V%	c #2F2F2F",
"W%	c #BDBEBD",
"X%	c #FBEF0C",
"Y%	c #FFF70C",
"Z%	c #DFD148",
"`%	c #DDC063",
" &	c #D0C261",
".&	c #D5B46A",
"+&	c #907059",
"@&	c #421B10",
"#&	c #7B0947",
"$&	c #7C0642",
"%&	c #B43ED9",
"&&	c #A90BFD",
"*&	c #B853C8",
"=&	c #9F7258",
"-&	c #999999",
";&	c #F0F0F0",
">&	c #6C6C6D",
",&	c #FAD739",
"'&	c #F3ED24",
")&	c #F8E533",
"!&	c #D8C763",
"~&	c #EBA76F",
"{&	c #D1C260",
"]&	c #C7A65C",
"^&	c #311F0F",
"/&	c #0C0000",
"(&	c #390012",
"_&	c #5F1B24",
":&	c #AA36BA",
"<&	c #9B0BD5",
"[&	c #9D0BD9",
"}&	c #A4569D",
"|&	c #7E7E7E",
"1&	c #D9D9D9",
"2&	c #EAC46F",
"3&	c #F0CB6C",
"4&	c #D8B36A",
"5&	c #D1BD6E",
"6&	c #D3B375",
"7&	c #CBB260",
"8&	c #B28866",
"9&	c #0C0706",
"0&	c #020206",
"a&	c #2B1010",
"b&	c #5E3D1F",
"c&	c #CB8B8D",
"d&	c #B78394",
"e&	c #C27794",
"f&	c #B0747D",
"g&	c #A8A9AF",
"h&	c #A6A7A6",
"i&	c #E5C895",
"j&	c #DCAF6C",
"k&	c #D8C065",
"l&	c #CEBF61",
"m&	c #C5B677",
"n&	c #ACA385",
"o&	c #9E9899",
"p&	c #434340",
"q&	c #3F3D1C",
"r&	c #744232",
"s&	c #BA7D50",
"t&	c #9B7687",
"u&	c #313FDB",
"v&	c #1E3DF1",
"w&	c #494FBA",
"x&	c #9E9BA5",
"y&	c #D4D4D4",
"z&	c #D3BB6C",
"A&	c #CFB869",
"B&	c #D0BB6C",
"C&	c #B1A5A1",
"D&	c #8A94A5",
"E&	c #2D3945",
"F&	c #444823",
"G&	c #A17741",
"H&	c #CF9A61",
"I&	c #887F9F",
"J&	c #0B2FFD",
"K&	c #002FFD",
"L&	c #324AD8",
"M&	c #9C725C",
"N&	c #3F4046",
"O&	c #C6A47F",
"P&	c #A69F87",
"Q&	c #3A364D",
"R&	c #525141",
"S&	c #A67E41",
"T&	c #C88B53",
"U&	c #CF9061",
"V&	c #C88761",
"W&	c #897F90",
"X&	c #0F2FF3",
"Y&	c #082FF7",
"Z&	c #4047D8",
"`&	c #81645A",
" *	c #CECECE",
".*	c #B27F5B",
"+*	c #D4A77A",
"@*	c #8C6636",
"#*	c #72491F",
"$*	c #9D7A45",
"%*	c #CC9A61",
"&*	c #CF9361",
"**	c #C99061",
"=*	c #A97E5C",
"-*	c #906D5F",
";*	c #808185",
">*	c #8F7885",
",*	c #A16773",
"'*	c #6D4C42",
")*	c #DDDDDD",
"!*	c #F2F2F2",
"~*	c #99714C",
"{*	c #DBA97B",
"]*	c #7B5029",
"^*	c #767361",
"/*	c #BBA07C",
"(*	c #CA9E68",
"_*	c #CA9561",
":*	c #CF8761",
"<*	c #B3805C",
"[*	c #322841",
"}*	c #413759",
"|*	c #8D7963",
"1*	c #A7735A",
"2*	c #A26453",
"3*	c #E0E0E0",
"4*	c #D2D2D2",
"5*	c #937257",
"6*	c #DBAA7B",
"7*	c #714D25",
"8*	c #C69D70",
"9*	c #BE8D61",
"0*	c #A77F54",
"a*	c #443251",
"b*	c #606492",
"c*	c #A39EA3",
"d*	c #A46959",
"e*	c #96734D",
"f*	c #636364",
"g*	c #737373",
"h*	c #BEBEBE",
"i*	c #979797",
"j*	c #AFAFAF",
"k*	c #D5A96D",
"l*	c #775529",
"m*	c #A17E63",
"n*	c #AC825F",
"o*	c #936958",
"p*	c #AC97A9",
"q*	c #C9B4B3",
"r*	c #737375",
"s*	c #B5B5B7",
"t*	c #B7B7B9",
"u*	c #616163",
"v*	c #0B0B0B",
". . . . . . . . . . . . . . . . . + . . . . . . . . . . . . . . . . . + . . . . . . . . . . . . . . . . . @ ",
"# $ $ % & % * = - ; > , ' ' ) ) ) @ . ! ~ { ] ^ / ( _ : < [ } | 1 2 3 @ . 4 4 4 4 4 4 4 4 5 < [ } | 1 2 3 @ ",
"# $ % 6 7 8 9 0 a b c d e f g g g @ . ~ { h i j k l : m n o p q r 3 s @ . 4 t u v w x y 4 z A } | 1 2 3 s @ ",
"# % B C D E F G H I J K L M N N N @ . { O P Q R S T U V W X Y Z `  ...@ . 4 +.@.#.$.%.&.4 z A | 1 2 3 s ..@ ",
"# % *.=.-.;.>.,.'.).!.~.{.].^./.(.@ . ] _.:.<.[.}.|.1.2.3.4.Y Z 5.6.7.@ . 4 8.9.0.a.0.b.4 z A 1 2 3 s ..7.@ ",
"# c.d.e.f.g.h.i.j.k.l.m.n.o.p.q.(.@ . ^ r.s.<.[.}.|.1.2.t.4.Y Z u.v.w.@ . 4 x.y.z.A.B.a.4 C.D.2 3 s ..7.E.@ ",
"# F.G.H.I.J.K.L.M.N.O.P.Q.R.S.T.U.@ . / V.W.X.Y.Z.`. +.+t.4.Y Z ++@+#+@ . 4 $+%+&+*+=+-+-+-+-+-+-+-+-+;+>+@ ",
"# ,+'+)+!+~+{+]+^+/+(+_+:+<+[+}+|+@ . ( 1+2+3+4+5+6+7+.+t.4.Y 8+9+0+a+@ . 4 4 4 4 4 4 -+b+c+d+e+f+g+-+z A @ ",
"# h+i+j+k+l+m+n+o+p+q+r+s+t+u+v+w+@ . _ 1+x+y+z+A+B+C+.+t.D+E+8+F+G+H+@ . _ : I+J+4 K+-+L+M+N+O+z.P+-+z A @ ",
"# Q+R+S+T+U+V+W+X+Y+Z+`+ @.@+@@@#@@ . : $@%@&@*@=@-@;@.+>@D+E+,@'@)@!@@ . -+-+-+-+-+-+-+~@{@]@^@/@(@-+z A @ ",
"# _@:@:@<@[@}@|@1@2@3@4@5@6@7@8@9@@ . < 0@a@b@c@d@e@f@g@h@D+E+,@i@j@k@@ . -+l@-+-+-+-+-+m@n@o@p@q@r@-+z s@@ ",
"# t@u@v@w@x@y@z@A@B@C@D@E@F@G@H@9@@ . [ I@J@K@L@i M@N@O@P@Q@R@S@T@U@V@@ . -+-+-+-+-+-+-+W@X@Y@Z@`@ #-+.#D.@ ",
"# +#@###$#%#&#*#=#-#;#>#,#'#)#9@9@@ . } !#~#{#]#]#^#/#(#_#:#<#[#}#|#1#@ . } | 1 2#3 s -+-+-+-+-+-+-+-+-+3#@ ",
"# 4#5#6#&#7#8#9#0#9#a#b#c#d#e#f#f#@ . | 1 g#h#i#L@j#k#l#m#n#o#p#q#r#s#@ . | 1 2 2#s ..7.E.t#u#v#w#x#y#z#5 @ ",
"# ) A#B#C#D#E#F#G#H#I#J#K#L#f#f#f#@ . M#N#O#P#Q#R#S#T#U#V#W#X#Y#s#s#s#@ . 1 2 Z#`#Z#7.-+-+-+-+-+-+-+-+ $.$@ ",
"# ) g N +$@$#$$$%$&$*$=$-$f#f#f#;$@ . >$,$'$)$!$~${$]$^$/$($_$s#s#s#:$@ . 2#2#`#`#`#2#-+l@-+-+-+-+-+<$[$.$@ ",
"# ) g N (.(.}$|$1$2$3$4$9@f#f#;$;$@ . 5$6$7$8$9$0$a$b$c$d$D.3#e$f$:$g$@ . 3 s Z#`#Z#h$-+-+-+-+-+-+-+-+i$g$@ ",
"@ @ @ @ @ @ @ @ @ @ @ @ @ @ @ @ @ @ @ @ @ @ @ @ @ @ @ @ @ @ @ @ @ @ @ @ @ @ @ @ @ @ @ @ @ @ @ @ @ @ @ @ @ @ ",
". . . . . . . . . . . . . . . . . + . . . . . . . . . . . . . . . . . @ . . . . . . . . . . . . . . . . . @ ",
". ! ~ { ] ^ / ( _ : < [ } | 1 2 3 @ . ! j$k$l$m$n$o$o$o$n$p$q$r$2 3 s @ . ! ~ { ] ^ / ( _ : < [ } | s$s$3 @ ",
". t$t$t$^ t$t$t$t$< t$t$t$1 2 3 s @ . j$k$l$m$u$n$n$n$n$n$n$r$2 3 s ..@ . ~ { ] ^ / ( _ : < [ } | s$s$s$s$@ ",
". { t$t$/ ( t$t$< [ t$t$1 2 3 s ..@ . k$n$m$u$v$w$o$x$p$q$r$2 3 s ..7.@ . { ] ^ / ( _ : < [ } | @ @ s$s$s$@ ",
". ] t$t$( _ t$t$[ } t$1 2 3 s ..7.@ . l$n$u$v$w$o$x$p$q$r$2 3 y$y$7.z$@ . ] ^ / ( _ : < [ } | @ @ A$@ s$7.@ ",
". ^ t$t$_ t$t$t$} t$t$2 3 s ..7.E.@ . m$n$v$w$o$x$p$q$r$2 3 B$B$y$z$C$@ . ^ / ( _ : < [ } | A$D$@ @ @ 7.E.@ ",
". / t$t$: t$[ t$| t$2 3 s ..7.E.h$@ . n$n$w$o$E$E$q$r$2 3 s B$B$y$C$F$@ . / ( _ : < [ } | A$D$D$D$@ 7.E.h$@ ",
". ( _ t$t$t$} t$1 t$t$t$t$t$t$h$G$@ . n$n$o$l@l@E$r$2 3 s ..B$B$y$F$H$@ . ( _ : < [ } | A$D$D$D$A$7.E.h$G$@ ",
". _ : t$t$} | t$t$3 s t$t$E.t$t$I$@ . n$n$x$l@l@E$2 3 s ..7.B$B$y$H$J$@ . _ : < [ } | A$D$D$D$A$7.E.h$G$I$@ ",
". : < t$t$| 1 t$t$s ..t$t$h$t$t$K$@ . n$n$p$l@l@E$3 s L$L$z$B$B$y$J$M$@ . : < [ } | A$D$D$D$A$7.E.h$G$I$K$@ ",
". < [ t$| 1 2 t$s ..t$t$h$G$t$t$d$@ . n$n$q$l@l@E$s t$t$L$C$B$B$y$M$N$@ . < [ } | A$D$D$D$A$7.E.h$G$I$K$d$@ ",
". [ } | 1 2 3 s ..7.t$t$G$t$t$d$D.@ . p$n$r$l@l@E$..t$t$L$F$B$B$y$N$O$@ . [ } | A$D$D$D$A$7.E.h$G$I$K$d$D.@ ",
". } | 1 2 3 s ..7.E.t$t$t$t$d$D.3#@ . q$n$2 l@l@E$7.t$t$L$H$B$B$y$O$P$@ . } | A$D$D$D$A$7.E.h$G$I$K$d$D.3#@ ",
". | 1 2 3 s ..7.E.t$t$I$K$d$D.3#e$@ . r$n$3 l@l@E$z$t$t$L$J$B$B$y$P$Q$@ . | 1 R$D$D$A$7.E.h$G$I$K$d$D.3#e$@ ",
". 1 2 3 s ..7.E.h$t$t$K$d$D.3#e$f$@ . 2 n$n$n$n$n$n$n$n$n$n$n$n$n$n$S$@ . 1 R$R$R$A$7.E.h$G$I$K$d$D.3#e$f$@ ",
". 2 3 s ..7.E.h$t$t$t$t$D.3#e$f$:$@ . 3 s ..7.z$n$n$n$n$n$N$O$P$Q$S$T$@ . 2 R$R$..7.E.h$G$I$K$d$D.3#e$f$:$@ ",
". 3 s ..7.E.h$G$I$K$d$D.3#e$f$:$g$@ . s ..7.z$C$F$H$J$M$N$O$P$Q$S$T$U$@ . @ s ..7.E.h$G$I$K$d$D.3#e$f$:$g$@ ",
"@ @ @ @ @ @ @ @ @ @ @ @ @ @ @ @ @ @ @ @ @ @ @ @ @ @ @ @ @ @ @ @ @ @ @ @ @ @ @ @ @ @ @ @ @ @ @ @ @ @ @ @ @ @ ",
". . . . . . . . . . . . . . . . . @ . . . . . . . . . . . . . . . . . + . . . . . . . . . . . . . . . . . @ ",
". ! ~ { ] V$W$X$Y$Z$`$ %.%| 1 2 3 @ . ! ~ { ] ^ / ( _ : < [ } | 1 2 3 @ . ! ~ { ] ^ / ( _ n$< [ } | 1 2 3 @ ",
". ~ { +%@%#%$%%%&%*%=%-%;%>%2 3 s @ . ~ { ] ^ / ,%n$n$n$n$n$| 1 2 3 s @ . '%'%'%'%'%'%'%n$)%n$'%'%'%'%'%'%@ ",
". { !%~%{%]%^%/%(%_%:%:%<%[%}%s ..@ . { ] ^ / |%n$1%2%. j$x$n$2 3 s ..@ . { ] ^ / ( _ : n$[ n$| 1 2 3 s ..@ ",
". 3%4%5%6%7%8%9%0%a%b%c%d%e%f%}%7.@ . ] ^ / ( n$j$g%. . . . h%n$s ..7.@ . ] ^ / ( _ : < n$} n$1 2 3 s ..7.@ ",
". i%j%k%l%m%n%o%p%q%r%s%t%u%v%w%E.@ . ^ / ( x%n$: y%z%] A%M$B%n$..7.E.@ . '%'%'%'%'%'%'%n$)%n$'%'%'%'%'%'%@ ",
". C%D%E%F%G%H%I%J%K%L%M%N%O%P%Q%}%@ . / R%n$n$S%T%n$I$v$n$U%. n$n$n$h$@ . / ( _ : < [ } n$V%W%3 s ..7.E.h$@ ",
". X%D%Y%Z%`% &.&+&@&#&$&%&&&&&*&=&@ . ( n$] B%{ g%g%. . . . . -&;&>&n$@ . ( _ : < [ } J$n$W%3 s ..7.E.h$G$@ ",
". ,&'&)&!&~&{&]&^&/&(&_&:&<&[&}&=&@ . _ n$|&k$. g%g%. . . . . ! 1&d$n$@ . '%'%'%'%'%)%n$n$)%'%'%'%'%'%'%'%@ ",
". 2&3&4&5&6&7&8&9&0&a&b&c&d&e&f&=&@ . : g&n$M$k$g%g%. . . . . 2 n$n$K$@ . : < [ } | n$h&n$n$n$J$E.h$G$I$K$@ ",
". i&j&k&l&m&n&o&p&q&r&s&t&u&v&w&=&@ . < [ x&n$y&g%g%. . . . . n$I$K$d$@ . < [ } | 1 n$3 n$..7.n$h$G$I$K$d$@ ",
". [ z&A&B&C&D&E&F&G&H&H&I&J&K&L&M&@ . [ } | n$y&g%g%. . . . . n$N&d$D.@ . '%'%'%'%'%n$)%n$)%'%n$'%'%'%'%'%@ ",
". } | 1 O&P&Q&R&S&T&U&V&W&X&Y&Z&`&@ . } | 1 n$y&g%g%. . . . .  *n$D.3#@ . } | 1 2 3 n$J$n$J$J$n$I$K$d$D.3#@ ",
". | 1 .*+*@*#*$*%*&***=*-*;*>*,*'*@ . | 1 2 n$)*g%!*# . . . } j$x$n$e$@ . | 1 2 3 s ..n$n$n$n$I$K$d$D.3#e$@ ",
". 1 ~*{*]*^*/*(*_*:*<*[*}*|*1*2*}%@ . 1 2 n$K$! g%3 -&!*. 3*n$4*g%z%n$@ . '%'%'%'%'%'%'%)%n$)%'%'%'%'%'%'%@ ",
". 5*6*7*..7.E.h$8*9*0*a*b*c*d*e*:$@ . 2 n$f*w$g%;&n$g*h*r$i*n$j*r$j*n$@ . 2 3 s ..7.E.n$n$n$K$d$D.3#e$f$:$@ ",
". k*l*..7.E.h$G$I$m*n*o*p*q*}%:$g$@ . 3 n$r*s*t*n$n$n$n$n$n$3#n$n$u*g$@ . 3 s ..7.E.h$n$n$J$d$D.3#e$f$:$g$@ ",
"@ @ @ @ @ @ @ @ @ @ @ @ @ @ @ @ @ @ @ @ @ v*n$n$@ @ @ @ @ @ @ @ @ @ @ @ @ @ @ @ @ @ @ @ @ @ @ @ @ @ @ @ @ @ "};
