/* XPM */
static char * gv_xpm[] = {
"18 18 63 1",
" 	c None",
".	c #FFFFFF",
"+	c #AEAAAE",
"@	c #D5D6D5",
"#	c #000000",
"$	c #95939B",
"%	c #090909",
"&	c #88888E",
"*	c #ECECEC",
"=	c #FEFEFE",
"-	c #F8F8F8",
";	c #D1D1D1",
">	c #FDFDFD",
",	c #9B9B9B",
"'	c #7F7D85",
")	c #D7D7D7",
"!	c #4F4F4F",
"~	c #C4C4C4",
"{	c #EFEFEF",
"]	c #727272",
"^	c #898989",
"/	c #F6F6F6",
"(	c #898A8F",
"_	c #ACACAC",
":	c #B0B0B1",
"<	c #959595",
"[	c #DFDFDF",
"}	c #434343",
"|	c #F4F4F4",
"1	c #999999",
"2	c #F0F0F0",
"3	c #6C6C6D",
"4	c #7E7E7E",
"5	c #F3F3F3",
"6	c #FCFCFC",
"7	c #D9D9D9",
"8	c #8C8C8C",
"9	c #A8A9AF",
"0	c #BCBCBC",
"a	c #9E9BA5",
"b	c #D4D4D4",
"c	c #3F4046",
"d	c #CECECE",
"e	c #DDDDDD",
"f	c #F2F2F2",
"g	c #EDEDED",
"h	c #CACACA",
"i	c #919191",
"j	c #B7B7B7",
"k	c #E0E0E0",
"l	c #D2D2D2",
"m	c #636364",
"n	c #DADADA",
"o	c #737373",
"p	c #BEBEBE",
"q	c #C1C1C1",
"r	c #979797",
"s	c #AFAFAF",
"t	c #737375",
"u	c #B5B5B7",
"v	c #B7B7B9",
"w	c #616163",
"x	c #0B0B0B",
".................+",
".@@@@@@@@@@@@@@@@#",
".@@@@@$%%%%%@@@@@#",
".@@@@&%*=.-;%@@@@#",
".@@@@%->....,%@@@#",
".@@@'%)!~{]^/%@@@#",
".@(%%_:%<[%}.%%%@#",
".@%{/|>>.....123%#",
".@%45.>>.....678%#",
".@9%^5>>.....0%%@#",
".@@a%b>>.....%@@@#",
".@@@%b>>.....%c@@#",
".@@@%b>>.....d%@@#",
".@@@%e>fg...h-;%@#",
".@@%i6>j1f.k%l>~%#",
".@%mn>2%opqr%sqs%#",
".@%tuv%%%%%%@%%w@#",
"###x%%############"};
