/* XPM */
static char * paint_xpm[] = {
"18 18 211 2",
"  	c None",
". 	c #FFFFFF",
"+ 	c #000000",
"@ 	c #D5D6D5",
"# 	c #E2D7C3",
"$ 	c #E8E2C0",
"% 	c #DAD499",
"& 	c #E4D08D",
"* 	c #EABE8D",
"= 	c #E3B26B",
"- 	c #E3B982",
"; 	c #BDA385",
"> 	c #EDE1C3",
", 	c #EDC48A",
"' 	c #F79854",
") 	c #F88E42",
"! 	c #EC9D54",
"~ 	c #FFC280",
"{ 	c #DA776F",
"] 	c #EA3166",
"^ 	c #DE2F66",
"/ 	c #D67F6A",
"( 	c #BBA97D",
"_ 	c #EED392",
": 	c #FFCF86",
"< 	c #FCBB57",
"[ 	c #EA2F00",
"} 	c #EC2F00",
"| 	c #D95025",
"1 	c #F3B366",
"2 	c #E6466F",
"3 	c #FF0061",
"4 	c #DE7075",
"5 	c #D7B275",
"6 	c #B89A77",
"7 	c #F2DDB7",
"8 	c #FDCF86",
"9 	c #FFCF72",
"0 	c #F9BB57",
"a 	c #D02F00",
"b 	c #E02F00",
"c 	c #F04310",
"d 	c #F6B661",
"e 	c #E44D6C",
"f 	c #F00877",
"g 	c #F80677",
"h 	c #DE7179",
"i 	c #CEA764",
"j 	c #CE9B60",
"k 	c #F3D269",
"l 	c #F8D334",
"m 	c #FFDC45",
"n 	c #FBC75D",
"o 	c #E07D3B",
"p 	c #EA7A2A",
"q 	c #E8843C",
"r 	c #EDBD61",
"s 	c #E3947A",
"t 	c #DE6C79",
"u 	c #DB3686",
"v 	c #CE7E9D",
"w 	c #CE8BA6",
"x 	c #CE8188",
"y 	c #996D74",
"z 	c #FFEB19",
"A 	c #FFFF00",
"B 	c #FFF709",
"C 	c #F3D135",
"D 	c #E6C26F",
"E 	c #D3CE77",
"F 	c #D1B165",
"G 	c #CFB875",
"H 	c #AF7C77",
"I 	c #B1306F",
"J 	c #961766",
"K 	c #9D36B5",
"L 	c #9F09D7",
"M 	c #A406CC",
"N 	c #A55DB4",
"O 	c #FCF00C",
"P 	c #FFF70C",
"Q 	c #E0D148",
"R 	c #DEC063",
"S 	c #D0C261",
"T 	c #D5B46A",
"U 	c #907059",
"V 	c #421B10",
"W 	c #7B0947",
"X 	c #7C0642",
"Y 	c #B43EDA",
"Z 	c #A90BFE",
"` 	c #B853C8",
" .	c #9F7258",
"..	c #FAD739",
"+.	c #F3ED24",
"@.	c #F8E533",
"#.	c #D9C763",
"$.	c #ECA76F",
"%.	c #D1C260",
"&.	c #C7A65C",
"*.	c #311F0F",
"=.	c #0C0000",
"-.	c #390012",
";.	c #5F1B24",
">.	c #AA36BA",
",.	c #9B0BD6",
"'.	c #9D0BDA",
").	c #A4569D",
"!.	c #EAC46F",
"~.	c #F0CB6C",
"{.	c #D8B36A",
"].	c #D1BD6E",
"^.	c #D3B375",
"/.	c #CBB260",
"(.	c #B28866",
"_.	c #0C0706",
":.	c #020206",
"<.	c #2B1010",
"[.	c #5E3D1F",
"}.	c #CB8B8D",
"|.	c #B78394",
"1.	c #C27794",
"2.	c #B0747D",
"3.	c #E6C895",
"4.	c #DCAF6C",
"5.	c #D8C065",
"6.	c #CEBF61",
"7.	c #C5B677",
"8.	c #ACA385",
"9.	c #9E9899",
"0.	c #434340",
"a.	c #3F3D1C",
"b.	c #744232",
"c.	c #BA7D50",
"d.	c #9B7687",
"e.	c #313FDC",
"f.	c #1E3DF2",
"g.	c #494FBA",
"h.	c #D3BB6C",
"i.	c #CFB869",
"j.	c #D0BB6C",
"k.	c #B1A5A1",
"l.	c #8A94A5",
"m.	c #2D3945",
"n.	c #444823",
"o.	c #A17741",
"p.	c #CF9A61",
"q.	c #887F9F",
"r.	c #0B2FFE",
"s.	c #002FFE",
"t.	c #324AD9",
"u.	c #9C725C",
"v.	c #C6A47F",
"w.	c #A69F87",
"x.	c #3A364D",
"y.	c #525141",
"z.	c #A67E41",
"A.	c #C88B53",
"B.	c #CF9061",
"C.	c #C88761",
"D.	c #897F90",
"E.	c #0F2FF4",
"F.	c #082FF8",
"G.	c #4047D9",
"H.	c #81645A",
"I.	c #B27F5B",
"J.	c #D4A77A",
"K.	c #8C6636",
"L.	c #72491F",
"M.	c #9D7A45",
"N.	c #CC9A61",
"O.	c #CF9361",
"P.	c #C99061",
"Q.	c #A97E5C",
"R.	c #906D5F",
"S.	c #808185",
"T.	c #8F7885",
"U.	c #A16773",
"V.	c #6D4C42",
"W.	c #966B43",
"X.	c #DBA97B",
"Y.	c #7B5029",
"Z.	c #767361",
"`.	c #BBA07C",
" +	c #CA9E68",
".+	c #CA9561",
"++	c #CF8761",
"@+	c #B3805C",
"#+	c #322841",
"$+	c #413759",
"%+	c #8D7963",
"&+	c #A7735A",
"*+	c #A26453",
"=+	c #845B3A",
"-+	c #DBAA7B",
";+	c #714D25",
">+	c #C69D70",
",+	c #BE8D61",
"'+	c #A77F54",
")+	c #443251",
"!+	c #606492",
"~+	c #A39EA3",
"{+	c #A46959",
"]+	c #96734D",
"^+	c #D6A96D",
"/+	c #775529",
"(+	c #A17E63",
"_+	c #AC825F",
":+	c #936958",
"<+	c #AC97A9",
"[+	c #C9B4B3",
". . . . . . . . . . . . . . . . . + ",
". @ @ @ @ # $ % & * = - ; @ @ @ @ + ",
". @ @ > , ' ) ! ~ { ] ^ / ( @ @ @ + ",
". @ _ : < [ } | 1 2 3 3 4 5 6 @ @ + ",
". 7 8 9 0 a b c d e f g h i j 6 @ + ",
". k l m n o p q r s t u v w x y @ + ",
". z A B C D E F G H I J K L M N 6 + ",
". O A P Q R S T U V W X Y Z Z `  .+ ",
". ..+.@.#.$.%.&.*.=.-.;.>.,.'.). .+ ",
". !.~.{.].^./.(._.:.<.[.}.|.1.2. .+ ",
". 3.4.5.6.7.8.9.0.a.b.c.d.e.f.g. .+ ",
". @ h.i.j.k.l.m.n.o.p.p.q.r.s.t.u.+ ",
". @ @ @ v.w.x.y.z.A.B.C.D.E.F.G.H.+ ",
". @ @ I.J.K.L.M.N.O.P.Q.R.S.T.U.V.+ ",
". @ W.X.Y.Z.`. +.+++@+#+$+%+&+*+6 + ",
". =+-+;+@ @ @ @ >+,+'+)+!+~+{+]+@ + ",
". ^+/+@ @ @ @ @ @ (+_+:+<+[+6 @ @ + ",
"+ + + + + + + + + + + + + + + + + + "};
