/* XPM */
static char * wp_xpm[] = {
"18 18 6 1",
" 	c None",
".	c #FFFFFF",
"+	c #AEAAAE",
"@	c #D5D6D5",
"#	c #000000",
"$	c #0909EF",
".................+",
".@@@@@@@@@@@@@@@@#",
".$$$@$$$$@$$$@@@@#",
".@$$@@$$@@$$@@@@@#",
".@$$@@$$@@$@@@@@@#",
".@$$@$$$@$$@@@@@@#",
".@$$@$@$@$@@@@@@@#",
".@@$$$@$@$$$$$$@@#",
".@@$$@@$$@@$$@$$@#",
".@@$$@@$$@@$$@$$@#",
".@@$@@@$@@$$@@$$@#",
".@@@@@@@@@$$@$$@@#",
".@@@@@@@@@$$$$@@@#",
".@@@@@@@@$$@@@@@@#",
".@@@@@@@@$$@@@@@@#",
".@@@@@@@$$$$@@@@@#",
".@@@@@@@@@@@@@@@@#",
"##################"};
