/* XPM */
static char * xterm_xpm[] = {
"18 18 181 2",
"  	c None",
". 	c #FFFFFF",
"+ 	c #AEAAAE",
"@ 	c #D5D6D5",
"# 	c #000000",
"$ 	c #EFEEEE",
"% 	c #F6F6F4",
"& 	c #F6F7F3",
"* 	c #F3F4EE",
"= 	c #E8E9E1",
"- 	c #D6D7CF",
"; 	c #C5C5BE",
"> 	c #B3B2A9",
", 	c #9F9F94",
"' 	c #868685",
") 	c #6E706A",
"! 	c #949685",
"~ 	c #B4B3B6",
"{ 	c #898297",
"] 	c #554A75",
"^ 	c #40365E",
"/ 	c #241A4B",
"( 	c #170B46",
"_ 	c #12093E",
": 	c #0E0737",
"< 	c #0A0530",
"[ 	c #060429",
"} 	c #030325",
"| 	c #00031F",
"1 	c #A1A2A0",
"2 	c #575747",
"3 	c #B2B2B3",
"4 	c #4D436A",
"5 	c #160350",
"6 	c #13034B",
"7 	c #110346",
"8 	c #0F0340",
"9 	c #0C033A",
"0 	c #0A0335",
"a 	c #07032F",
"b 	c #05032A",
"c 	c #A3A4A3",
"d 	c #5C5C4D",
"e 	c #B1B0B1",
"f 	c #4E436A",
"g 	c #070330",
"h 	c #A4A5A3",
"i 	c #61614F",
"j 	c #3B3B2E",
"k 	c #AEAEAF",
"l 	c #4D4269",
"m 	c #261459",
"n 	c #281C4E",
"o 	c #2A1E4E",
"p 	c #150945",
"q 	c #0C033B",
"r 	c #0A0336",
"s 	c #A7A7A5",
"t 	c #6A6B59",
"u 	c #454632",
"v 	c #ADACAE",
"w 	c #52476D",
"x 	c #38314A",
"y 	c #0A0809",
"z 	c #181618",
"A 	c #362F50",
"B 	c #0F053D",
"C 	c #000320",
"D 	c #ABACAB",
"E 	c #757764",
"F 	c #565842",
"G 	c #5A5072",
"H 	c #5F5A67",
"I 	c #676149",
"J 	c #777570",
"K 	c #25232F",
"L 	c #170E43",
"M 	c #05032B",
"N 	c #030326",
"O 	c #B0B0AF",
"P 	c #7E826D",
"Q 	c #666751",
"R 	c #AAABAB",
"S 	c #645C7A",
"T 	c #776349",
"U 	c #E5C319",
"V 	c #A78F32",
"W 	c #27232C",
"X 	c #1E1448",
"Y 	c #080330",
"Z 	c #010320",
"` 	c #B2B3B2",
" .	c #888A75",
"..	c #6D6F59",
"+.	c #A7A7AA",
"@.	c #6D677D",
"#.	c #9A9798",
"$.	c #DBD0B1",
"%.	c #ECE9E0",
"&.	c #353334",
"*.	c #362F4E",
"=.	c #0F073A",
"-.	c #080331",
";.	c #BBBCBB",
">.	c #8B8E79",
",.	c #72735E",
"'.	c #A8A7A8",
").	c #636264",
"!.	c #D9D8D7",
"~.	c #FAFAF8",
"{.	c #8D8D8D",
"].	c #18171B",
"^.	c #514D66",
"/.	c #434058",
"(.	c #403E53",
"_.	c #3D3C4F",
":.	c #3A3B4A",
"<.	c #CACBC8",
"[.	c #8A8D78",
"}.	c #64665B",
"|.	c #9F9EA1",
"1.	c #7F7E7E",
"2.	c #F9FAF8",
"3.	c #FBFBF9",
"4.	c #DEDFDD",
"5.	c #131313",
"6.	c #959695",
"7.	c #F0EFEA",
"8.	c #ECECE7",
"9.	c #E9E9E4",
"0.	c #E7E7DE",
"a.	c #DEDED3",
"b.	c #858773",
"c.	c #555551",
"d.	c #A7A293",
"e.	c #F9F9F8",
"f.	c #F8F8F6",
"g.	c #F0EEDF",
"h.	c #1D1D19",
"i.	c #5D5C58",
"j.	c #C9C9BE",
"k.	c #C7C7BD",
"l.	c #939388",
"m.	c #929484",
"n.	c #9A9A8B",
"o.	c #595953",
"p.	c #515161",
"q.	c #C7C1B4",
"r.	c #ECC635",
"s.	c #C4A420",
"t.	c #AFADA8",
"u.	c #F9F9F6",
"v.	c #F9F9F7",
"w.	c #E6CD79",
"x.	c #7C5B09",
"y.	c #AB922F",
"z.	c #343326",
"A.	c #1E1E14",
"B.	c #313125",
"C.	c #504F4F",
"D.	c #DBC475",
"E.	c #F5CC10",
"F.	c #F4CA10",
"G.	c #C1AC62",
"H.	c #EEEEEC",
"I.	c #C2C2C0",
"J.	c #A07F2F",
"K.	c #F5C80E",
"L.	c #F3CB17",
"M.	c #B0A263",
"N.	c #626254",
"O.	c #595949",
"P.	c #9A9693",
"Q.	c #B9A478",
"R.	c #CBA133",
"S.	c #967432",
"T.	c #6F6D6D",
"U.	c #6F6B6D",
"V.	c #957642",
"W.	c #C59D35",
"X.	c #8D8D86",
". . . . . . . . . . . . . . . . . + ",
". @ @ @ @ @ @ @ @ @ @ @ @ @ @ @ @ # ",
". @ @ $ % & * = - ; > , ' ) ! @ @ # ",
". @ ~ { ] ^ / ( _ : < [ } | 1 2 @ # ",
". @ 3 4 5 6 7 8 9 0 a b } | c d @ # ",
". @ e f 5 6 7 8 9 0 g b } | h i j # ",
". @ k l m n o p q r g b } | s t u # ",
". @ v w x y z A B r g b } C D E F # ",
". @ v G H I J K L r g M N C O P Q # ",
". @ R S T U V W X r Y M N Z `  ...# ",
". @ +.@.#.$.%.&.*.=.-.M N Z ;.>.,.# ",
". @ '.).!.~.% {.].^./.(._.:.<.[.}.# ",
". @ |.1.2.3.3.4.5.6.7.8.9.0.a.b.c.# ",
". @ @ d.e.f.~.g.h.i.j.k.l.m.n.o.p.# ",
". q.r.s.t.u.v.w.x.y.z.A.B.C.p.p.p.# ",
". D.E.F.G.H.I.J.K.L.M.N.O.p.p.p.@ # ",
". P.Q.R.S.T.U.V.W.X.@ @ @ @ @ @ @ # ",
"# # # # # # # # # # # # # # # # # # "};
