/* XPM */
static char * wmcube_xpm[] = {
"160 100 39 1",
" 	c blue",
".	c #202020",
"X	c black",
"o	c #C7C3C7",
"O	c #20B2AE",
"+	c #007D71",
"@	c #B60418",
"#	c #00EB00",
"$	c #283C38",
"%	c #F7F3FF",
"&	c #004941",
"!	c #1A8E8A",
"A	c #20AFAB",
"B	c #1FACA9",
"C	c #1EA9A5",
"D	c #1EA5A1",
"E	c #1DA19E",
"F	c #1C9C99",
"G	c #1B9894",
"H	c #1B928F",
"I	c #1A8E8A",
"J	c #198985",
"K	c #178480",
"L	c #177F7B",
"M	c #167A77",
"N	c #157672",
"P	c #14716E",
"Q	c #136C69",
"R	c #136764",
"S	c #116360",
"T	c #115E5A",
"U	c #115D5B",
"V	c #0F5956",
"W	c #0F5351",
"Y	c #0E4E4D",
"Z	c #0E4E4C",
"1	c #0D4A48",
"2	c #0C4644",
"3	c #0C4240",
"                                                                XXXXXXXXXXXXXXXXXXXXXXXXXXXXXXXXXXXXXXXXXXXXXXXXXXXXXXXXXXXXXXXXXXXXXX                        O!",
"                                                                .............oX......................................................o                          ",
"                                                                .............oX......................................................o                          ",
"                                                                .............oX......................................................o                          ",
"    XXXXXXXXXXXXXXXXXXXXXXXXXXXXXXXXXXXXXXXXXXXXXXXXXXXXXXXX    .............oX......................................................o                          ",
"    .......................................................o    .............oX......................................................o                          ",
"    .......................................................o    .............oX......................................................o..........................",
"    .......................................................o    .............oX......................................................o..........................",
"    .......................................................o    .............oX......................................................o..........................",
"    .......................................................o    .............oX......................................................o..........................",
"    .......................................................o    .............oX......................................................o..........................",
"    .......................................................o    .............oX......................................................o..........................",
"    .......................................................o    .............oX......................................................o..........................",
"    .......................................................o    .............oX......................................................o..........................",
"    .......................................................o    .............oX......................................................o..........................",
"    .......................................................o    .............oX......................................................o..........................",
"    .......................................................o    .............oX......................................................o..........................",
"    .......................................................o    .............oX......................................................o..........................",
"    .......................................................o    .............oX......................................................o..........................",
"    .......................................................o    .............oX......................................................o..........................",
"    .......................................................o    .............oX......................................................o..........................",
"    .......................................................o    .............oX......................................................o..........................",
"    .......................................................o    .............oX......................................................o..........................",
"    .......................................................o    .............oX......................................................o..........................",
"    .......................................................o    .............oX......................................................o..........................",
"    .......................................................o    .............oX......................................................o..........................",
"    .......................................................o    .............oX......................................................o..........................",
"    .......................................................o    .............oX......................................................o..........................",
"    .......................................................o    .............oX......................................................o..........................",
"    .......................................................o    .............oX......................................................o..........................",
"    .......................................................o    .............oX......................................................o..........................",
"    .......................................................o    .............oX......................................................o..........................",
"    .......................................................o    .............oX......................................................o..........................",
"    .......................................................o    .............oX......................................................o..........................",
"    .......................................................o    .............oX......................................................o..........................",
"    .......................................................o    .............oX......................................................o..........................",
"    .......................................................o    .............oX......................................................o..........................",
"    .......................................................o    .............oX......................................................o..........................",
"    .......................................................o    .............oX......................................................o..........................",
"    .......................................................o    .............oX......................................................o..........................",
"    .......................................................o    .............oX......................................................o..........................",
"    .......................................................o    .............oX......................................................o..........................",
"    .......................................................o    .............oX......................................................o..........................",
"    .......................................................o    .............oX......................................................o..........................",
"    .......................................................o    .............oX......................................................o..........................",
"    .......................................................o    .............oX......................................................o..........................",
"    .......................................................o    .............oX..............................................&&......o..........................",
"    .......................................................o    .............oX..............................................&&......o..........................",
"    .......................................................o    .............oX.....&&&&&&.................................&&&&&&....o..........................",
"    .......................................................o    .............oX.....&&&&&&.................................&&&&&&....o..........................",
"    .......................................................o    .............oX..............................................&&......o..........................",
"    .......................................................o    .............oX..............................................&&......o..........................",
"    .......................................................o    .............oX......................................................o..........................",
"    .......................................................o    .............oX......................................................o..........................",
"    .......................................................o    .............oX......................................................o..........................",
"    .......................................................o    oooooooooooooooooooooooooooooooooooooooooooooooooooooooooooooooooooooo..........................",
"    .......................................................o    .                                       OOOOOOOOOOOOOOOOOOOOOOOOOOOOOOOOOOOOOOOOOOOOOOOOOOOOOOOO",
"    .......................................................o    .                                       AAAAAAAAAAAAAAAAAAAAAAAAAAAAAAAAAAAAAAAAAAAAAAAAAAAAAAAA",
"    .......................................................o    .                                       BBBBBBBBBBBBBBBBBBBBBBBBBBBBBBBBBBBBBBBBBBBBBBBBBBBBBBBB",
"    oooooooooooooooooooooooooooooooooooooooooooooooooooooooo    .                                       CCCCCCCCCCCCCCCCCCCCCCCCCCCCCCCCCCCCCCCCCCCCCCCCCCCCCCCC",
"                                                                .                                       EEEEEEEEEEEEEEEEEEEEEEEEEEEEEEEEEEEEEEEEEEEEEEEEEEEEEEEE",
"                                                                .                                       FFFFFFFFFFFFFFFFFFFFFFFFFFFFFFFFFFFFFFFFFFFFFFFFFFFFFFFF",
"                                                                .                                       GGGGGGGGGGGGGGGGGGGGGGGGGGGGGGGGGGGGGGGGGGGGGGGGGGGGGGGG",
"                                                                .                                       HHHHHHHHHHHHHHHHHHHHHHHHHHHHHHHHHHHHHHHHHHHHHHHHHHHHHHHH",
"...............................................................................                         IIIIIIIIIIIIIIIIIIIIIIIIIIIIIIIIIIIIIIIIIIIIIIIIIIIIIIII",
"..OOO.....+..+OOO+.+OOO+.+...+.+OOO+.+OOO+.+OOO+.+OOO+.+OOO+...................                         JJJJJJJJJJJJJJJJJJJJJJJJJJJJJJJJJJJJJJJJJJJJJJJJJJJJJJJJ",
".O...O....O......O.....O.O...O.O.....O.........O.O...O.O...O............O......                         KKKKKKKKKKKKKKKKKKKKKKKKKKKKKKKKKKKKKKKKKKKKKKKKKKKKKKKK",
".O...O....O......O.....O.O...O.O.....O.........O.O...O.O...O............O......                         LLLLLLLLLLLLLLLLLLLLLLLLLLLLLLLLLLLLLLLLLLLLLLLLLLLLLLLL",
".+...+....+..+OOO+..OOO+.+OOO+.+OOO+.+OOO+.....+.&OOO&.+OOO+...........O.......                         MMMMMMMMMMMMMMMMMMMMMMMMMMMMMMMMMMMMMMMMMMMMMMMMMMMMMMMM",
".O...O....O..O.........O.....O.....O.O...O.....O.O...O.....O...........O.......                         NNNNNNNNNNNNNNNNNNNNNNNNNNNNNNNNNNNNNNNNNNNNNNNNNNNNNNNN",
".O...O....O..O.........O.....O.....O.O...O.....O.O...O.....O...O...O..O.....O..                         PPPPPPPPPPPPPPPPPPPPPPPPPPPPPPPPPPPPPPPPPPPPPPPPPPPPPPPP",
"..OOO.....O..+OOO+.+OOO+.....+.+OOO+.+OOO+.....+.+OOO+.+OOO+...+...+..O.....+..                         QQQQQQQQQQQQQQQQQQQQQQQQQQQQQQQQQQQQQQQQQQQQQQQQQQQQQQQQ",
"...............................................................................                         RRRRRRRRRRRRRRRRRRRRRRRRRRRRRRRRRRRRRRRRRRRRRRRRRRRRRRRR",
"                                                                                                        SSSSSSSSSSSSSSSSSSSSSSSSSSSSSSSSSSSSSSSSSSSSSSSSSSSSSSSS",
"................................................................................................................................................................",
".&OOO&.+OOO..+OOO+.+OOO..+OOO+.+OOO+.+OOO+.+...+...+.......+.+...+.+.....O...O.+OOO..+OOO+.+OOO+.+OOO+.+OOO+.+OOO+.+OOO+.+...+.+...+.+...+.+...+.+...+..........",
".O...O.O...O.O.....O...O.O.....O.....O.....O...O...O.......O.O...O.O.....OO.OO.O...O.O...O.O...O.O...O.O...O.O.......O...O...O.O...O.O...O.O...O.O...O.O...O....",
".O...O.O...O.O.....O...O.O.....O.....O.....O...O...O.......O.O..O..O.....O.O.O.O...O.O...O.O...O.O...O.O...O.O.......O...O...O.O...O.O...O..O.O..O...O....O.....",
".+OOO+.+OOO..+.....+...+.+OOO..+OOO..+.OO+.+OOO+...+.......+.+OO&..+.....+...+.+...+.+...+.+OOO+.+O..+.+OOO..+OOO+...+...+...+.+...+.+...+..&O&..+OOO+...O......",
".O...O.O...O.O.....O...O.O.....O.....O...O.O...O...O.......O.O..O..O.....O...O.O...O.O...O.O.....O.O.O.O...O.....O...O...O...O.O+.+O.O.O.O..O.O......O..O.......",
".O...O.O...O.O.....O...O.O.....O.....O...O.O...O...O.......O.O...O.O.....O...O.O...O.O...O.O.....O..OO.O...O.....O...O...O...O..O+O..OO.OO.O...O.....O.O...O....",
".+...+.+OOO..+OOO+.OOOO..+OOO+.O.....+OOO+.+...+...O...+OOO+.+...+.+OOO&.+...+.O...O.+OOO+.+.....+OOO+.+...+.+OOO+...+...&OOOO...O...O...O.+...O.+OOO+..........",
"................................................................................................................................................................",
"                                                                                                        TTTTTTTTTTTTTTTTTTTTTTTTTTTTTTTTTTTTTTTTTTTTTTTTTTTTTTTT",
"...............O...                                                                                     UUUUUUUUUUUUUUUUUUUUUUUUUUUUUUUUUUUUUUUUUUUUUUUUUUUUUUUU",
"...++..............                                                                                     VVVVVVVVVVVVVVVVVVVVVVVVVVVVVVVVVVVVVVVVVVVVVVVVVVVVVVVV",
"...++........&OOO&.                                                                                     WWWWWWWWWWWWWWWWWWWWWWWWWWWWWWWWWWWWWWWWWWWWWWWWWWWWWWWW",
".++++++++++++O...O.                                                                                     YYYYYYYYYYYYYYYYYYYYYYYYYYYYYYYYYYYYYYYYYYYYYYYYYYYYYYYY",
".++++++++++++O...O.                                                                                     ZZZZZZZZZZZZZZZZZZZZZZZZZZZZZZZZZZZZZZZZZZZZZZZZZZZZZZZZ",
"...++........+OOO+.                                                                                     11111111111111111111111111111111111111111111111111111111",
"...++........O...O.                                                                                     22222222222222222222222222222222222222222222222222222222",
".............+...+.                                                                                     33333333333333333333333333333333333333333333333333333333",
"...................                                                                                                                                             ",
"                                                                                                                                                                ",
"                                                                                                                                                                ",
"                                                                                                                                                                ",
"                                                                                                                                                                ",
"                                                                                                                                                                ",
"                                                                                                                                                                ",
"                                                                                                                                                                "};
