/* XPM */
static char *wmMatrix_master[] = {
/* width height num_colors chars_per_pixel */
"    64    64        2            1",
/* colors */
". c #ffffff",
"# c #000000",
/* pixels */
"................................................................",
"................................................................",
"................................................................",
"................................................................",
"....########################################################....",
"....########################################################....",
"....########################################################....",
"....########################################################....",
"....########################################################....",
"....########################################################....",
"....########################################################....",
"....########################################################....",
"....########################################################....",
"....########################################################....",
"....########################################################....",
"....########################################################....",
"....########################################################....",
"....########################################################....",
"....########################################################....",
"....########################################################....",
"....########################################################....",
"....########################################################....",
"....########################################################....",
"....########################################################....",
"....########################################################....",
"....########################################################....",
"....########################################################....",
"....########################################################....",
"....########################################################....",
"....########################################################....",
"....########################################################....",
"....########################################################....",
"....########################################################....",
"....########################################################....",
"....########################################################....",
"....########################################################....",
"....########################################################....",
"....########################################################....",
"....########################################################....",
"....########################################################....",
"....########################################################....",
"....########################################################....",
"....########################################################....",
"....########################################################....",
"....########################################################....",
"....########################################################....",
"....########################################################....",
"....########################################################....",
"....########################################################....",
"....########################################################....",
"....########################################################....",
"....########################################################....",
"....########################################################....",
"....########################################################....",
"....########################################################....",
"....########################################################....",
"....########################################################....",
"....########################################################....",
"....########################################################....",
"....########################################################....",
"................................................................",
"................................................................",
"................................................................",
"................................................................"
};
