/* XPM */
static char * caps_num_scroll_xpm[] = {
"56 56 162 2",
"  	c #000000",
". 	c #362503",
"+ 	c #382703",
"@ 	c #DA960D",
"# 	c #060400",
"$ 	c #B17A0A",
"% 	c #614306",
"& 	c #090600",
"* 	c #1D1402",
"= 	c #1A1202",
"- 	c #593D05",
"; 	c #BA7F0B",
"> 	c #C4860B",
", 	c #7B5507",
"' 	c #ECA20E",
") 	c #422D04",
"! 	c #D2900C",
"~ 	c #412C04",
"{ 	c #704D06",
"] 	c #A26F09",
"^ 	c #312203",
"/ 	c #583C05",
"( 	c #04371D",
"_ 	c #6C4A06",
": 	c #322203",
"< 	c #181001",
"[ 	c #E9A00D",
"} 	c #291C02",
"| 	c #885D08",
"1 	c #8A5F08",
"2 	c #064F29",
"3 	c #0FC366",
"4 	c #12E879",
"5 	c #021F10",
"6 	c #5A3E05",
"7 	c #E19A0D",
"8 	c #765107",
"9 	c #785307",
"0 	c #2F2103",
"a 	c #E39C0D",
"b 	c #110C01",
"c 	c #043019",
"d 	c #0DA455",
"e 	c #0EB860",
"f 	c #0DAC5A",
"g 	c #032B17",
"h 	c #432E04",
"i 	c #714E07",
"j 	c #6A4906",
"k 	c #0C0801",
"l 	c #010000",
"m 	c #A8740A",
"n 	c #011109",
"o 	c #0A8545",
"p 	c #11D770",
"q 	c #086334",
"r 	c #0A8043",
"s 	c #C3850B",
"t 	c #4A3204",
"u 	c #382603",
"v 	c #086635",
"w 	c #11DA71",
"x 	c #0A8244",
"y 	c #010E08",
"z 	c #0DA757",
"A 	c #010704",
"B 	c #503705",
"C 	c #C98A0C",
"D 	c #070500",
"E 	c #181101",
"F 	c #010D07",
"G 	c #0C974F",
"H 	c #042E18",
"I 	c #054625",
"J 	c #0C954E",
"K 	c #0EBA61",
"L 	c #054122",
"M 	c #000603",
"N 	c #0EB25D",
"O 	c #064D28",
"P 	c #032715",
"Q 	c #0C9B51",
"R 	c #0FC164",
"S 	c #050400",
"T 	c #835A08",
"U 	c #251902",
"V 	c #0A7C41",
"W 	c #0B8E4A",
"X 	c #11E075",
"Y 	c #086C38",
"Z 	c #010804",
"` 	c #032111",
" .	c #231802",
"..	c #916308",
"+.	c #825908",
"@.	c #032413",
"#.	c #0B8B48",
"$.	c #02170C",
"%.	c #075D31",
"&.	c #10D16D",
"*.	c #086B38",
"=.	c #F1A50E",
"-.	c #996909",
";.	c #201602",
">.	c #513805",
",.	c #090601",
"'.	c #09773E",
").	c #0DAA59",
"!.	c #04361C",
"~.	c #053E20",
"{.	c #795307",
"].	c #F2A60E",
"^.	c #AA740A",
"/.	c #000101",
"(.	c #10C969",
"_.	c #07552C",
":.	c #09743C",
"<.	c #191101",
"[.	c #C1850B",
"}.	c #7C5507",
"|.	c #02190D",
"1.	c #0F0A01",
"2.	c #042F18",
"3.	c #261A02",
"4.	c #302103",
"5.	c #684806",
"6.	c #1F1502",
"7.	c #064825",
"8.	c #0EB961",
"9.	c #12E477",
"0.	c #CB8B0C",
"a.	c #453004",
"b.	c #021D0F",
"c.	c #11E175",
"d.	c #06522B",
"e.	c #086434",
"f.	c #734F07",
"g.	c #A06E09",
"h.	c #8E6208",
"i.	c #402C04",
"j.	c #086534",
"k.	c #07542C",
"l.	c #674706",
"m.	c #080600",
"n.	c #7B5407",
"o.	c #030200",
"p.	c #02160B",
"q.	c #0DA254",
"r.	c #064926",
"s.	c #054222",
"t.	c #946609",
"u.	c #04321A",
"v.	c #032C17",
"w.	c #A9740A",
"x.	c #473104",
"y.	c #2D1F03",
"z.	c #523805",
"A.	c #271B02",
"B.	c #6F4C06",
"C.	c #171001",
"D.	c #043A1E",
"E.	c #14ABE2",
"                                                                                                                ",
"                                                                                                                ",
"                                                                                                                ",
"                                                                                                                ",
"                                                                                                                ",
"                                                                                                                ",
"                                                                                                                ",
"                                                                                                                ",
"                                              .                                                                 ",
"                                            + @ #                                                               ",
"                                            $ %   & * =                                                         ",
"                                          - ;     > , ' )                                                       ",
"                                          ! ~   { ]   ^ /                     (                                 ",
"                                          _ : < [ }   | 1                 2 3 4 5                               ",
"                                          6 7 8 9   0 a b             c d e f e g                               ",
"                                      h i j k   l   m j           n o p q n r                                   ",
"                                    ~ ! 0 m s t   u s           v w x y   z x A                                 ",
"                                    ; -     B C ] D E         F G H     I J     I K L                           ",
"                                  % $           9 #                   M N O P Q R O                             ",
"                                S @ T         < [ U                 M V W V X Y Z `                             ",
"                                 .+ $ ; ~     ..+.                  @.4 4 #.$.%.&.*.                            ",
"                              } =.-.;.- ! -.>.@ ,.                  '.).!.~.N ).!.                              ",
"                              ] { {.].{.  {.].^.                    y /.o (._.                                  ",
"                            t C     ;.-.! - ;.-.! -                     :.                                      ",
"                            s B       <.].[.0   ~ }.                  A &.!.        _.(.|.                      ",
"                            { <         {.1.                            %.).2.  !.).N ~.@.                      ",
"                    3.4.5.  5.[ {     ;.].6.                              7.Q 8.&.%.$.#.9.I                     ",
"                    0./ a.    } ] C B -.{.                                b.c.V Z Y X V d.e.                    ",
"                  f.g.            t h.i.                                    |.O R Q P O R j.k.                  ",
"                  l.^           m.n.o.                                      p.K I ` q.K I r.s.                  ",
"                  ) t.          ,.}.                                              u.v y x w v.                  ",
"                    w.x.        ,.@ y.                                              q p o n                     ",
"                    z.0.g.A.  = +...                                            |.e d c                         ",
"                        f.' , > B.C.                                              D.                            ",
"                          = * &                                                                                 ",
"                                                                                                                ",
"                                                                                                                ",
"                                                                                                                ",
"                                                                        E.E.E.        E.E.E.                    ",
"                  E.E.E.E.                                                  E.            E.                    ",
"                E.        E.                                                E.            E.                    ",
"                E.              E.E.E.E.    E.  E.E.E.      E.E.E.E.        E.            E.                    ",
"                E.            E.            E.E.          E.        E.      E.            E.                    ",
"                  E.E.E.E.    E.            E.            E.        E.      E.            E.                    ",
"                          E.  E.            E.            E.        E.      E.            E.                    ",
"                          E.  E.            E.            E.        E.      E.            E.                    ",
"                E.        E.  E.            E.            E.        E.      E.            E.                    ",
"                  E.E.E.E.      E.E.E.E.    E.              E.E.E.E.    E.E.E.E.E.    E.E.E.E.E.                ",
"                                                                                                                ",
"                                                                                                                ",
"                                                                                                                ",
"                                                                                                                ",
"                                                                                                                ",
"                                                                                                                ",
"                                                                                                                ",
"                                                                                                                "};
