/* XPM */
static char * back_xpm[] = {
"64 64 584 2",
"  	c None",
". 	c #000000",
"+ 	c #FFFFFF",
"@ 	c #E4C499",
"# 	c #D8B98F",
"$ 	c #DDC297",
"% 	c #E0C499",
"& 	c #DEC89B",
"* 	c #E3CCA0",
"= 	c #DFC59D",
"- 	c #DDC29A",
"; 	c #DEC297",
"> 	c #DFC699",
", 	c #DDC397",
"' 	c #DABF94",
") 	c #D8B890",
"! 	c #E1BE92",
"~ 	c #E6C89B",
"{ 	c #E3C395",
"] 	c #DDBF90",
"^ 	c #DEBF92",
"/ 	c #DBBE91",
"( 	c #DEC79A",
"_ 	c #D9C094",
": 	c #E6CCA1",
"< 	c #D9BA91",
"[ 	c #D9BB91",
"} 	c #DEC296",
"| 	c #DFC499",
"1 	c #DFC89C",
"2 	c #E2CB9F",
"3 	c #E0C69E",
"4 	c #DDC299",
"5 	c #DDC196",
"6 	c #E2C69B",
"7 	c #DEC598",
"8 	c #DAC094",
"9 	c #D8B78F",
"0 	c #E2C093",
"a 	c #E6C89A",
"b 	c #E1C394",
"c 	c #DDBF91",
"d 	c #DABD91",
"e 	c #DFC89B",
"f 	c #DEC69A",
"g 	c #DAC196",
"h 	c #E4CA9F",
"i 	c #A89170",
"j 	c #D6B890",
"k 	c #BDA380",
"l 	c #BCA17F",
"m 	c #BDA17F",
"n 	c #C2AB86",
"o 	c #BCA47F",
"p 	c #BFA581",
"q 	c #BFA682",
"r 	c #BCA17E",
"s 	c #C2A785",
"t 	c #B89E7D",
"u 	c #B79F7D",
"v 	c #BCA681",
"w 	c #BA9C7B",
"x 	c #BBA17F",
"y 	c #BAA07C",
"z 	c #BCA27D",
"A 	c #BBA180",
"B 	c #B89E7B",
"C 	c #BBA480",
"D 	c #BDA682",
"E 	c #BEA481",
"F 	c #B99E7B",
"G 	c #BDA280",
"H 	c #BDA17E",
"I 	c #B79D7C",
"J 	c #BDA681",
"K 	c #BCA07D",
"L 	c #BA9D7B",
"M 	c #B9A07B",
"N 	c #BCA27E",
"O 	c #B89E7C",
"P 	c #BAA37E",
"Q 	c #BFA884",
"R 	c #6F604B",
"S 	c #C0A683",
"T 	c #BB9F7B",
"U 	c #B89D79",
"V 	c #B89F7B",
"W 	c #BFA783",
"X 	c #BBA27C",
"Y 	c #BDA07C",
"Z 	c #BB9F7C",
"` 	c #BEA37E",
" .	c #B89E79",
"..	c #BCA27F",
"+.	c #C0A67F",
"@.	c #C5AD84",
"#.	c #C1A783",
"$.	c #BFA684",
"%.	c #BCA180",
"&.	c #B8A17D",
"*.	c #BDA782",
"=.	c #B69E7A",
"-.	c #BAA07D",
";.	c #C0A682",
">.	c #BA9E7A",
",.	c #B99E79",
"'.	c #B8A07C",
").	c #BBA17C",
"!.	c #BDA17D",
"~.	c #BCA17D",
"{.	c #BDA27D",
"].	c #B79D79",
"^.	c #C1A780",
"/.	c #C4AC84",
"(.	c #C1A683",
"_.	c #C0A783",
":.	c #BFA584",
"<.	c #BEA782",
"[.	c #B79E7A",
"}.	c #BDA37F",
"|.	c #BAA17E",
"1.	c #71624E",
"2.	c #DCBE97",
"3.	c #B99E7F",
"4.	c #C1A787",
"5.	c #C5AD89",
"6.	c #C0A884",
"7.	c #C2A784",
"8.	c #BDA37E",
"9.	c #C3A984",
"0.	c #BEA582",
"a.	c #BEA27F",
"b.	c #BA9E7C",
"c.	c #BA9D7A",
"d.	c #B79A77",
"e.	c #B89E7A",
"f.	c #BC9F7D",
"g.	c #C3AC88",
"h.	c #BCA581",
"i.	c #BDA580",
"j.	c #C4AB88",
"k.	c #BDA481",
"l.	c #B99F7F",
"m.	c #C2A888",
"n.	c #BEA682",
"o.	c #C1A682",
"p.	c #BEA57F",
"q.	c #BFA582",
"r.	c #BEA380",
"s.	c #BDA27F",
"t.	c #B99C78",
"u.	c #B79B78",
"v.	c #B99F7B",
"w.	c #C5AB88",
"x.	c #DDC097",
"y.	c #BDA480",
"z.	c #BFA681",
"A.	c #C0A681",
"B.	c #C2AB87",
"C.	c #C8AF8C",
"D.	c #C8B48E",
"E.	c #C4AA85",
"F.	c #C1A681",
"G.	c #C2A886",
"H.	c #C1A984",
"I.	c #BBA381",
"J.	c #BBA282",
"K.	c #B59B7A",
"L.	c #BCA381",
"M.	c #B49976",
"N.	c #BA9F7D",
"O.	c #BEA280",
"P.	c #C0A481",
"Q.	c #BFA683",
"R.	c #BCA583",
"S.	c #9D8B6F",
"T.	c #B5A381",
"U.	c #756651",
"V.	c #A28C6D",
"W.	c #C1A784",
"X.	c #BBA17E",
"Y.	c #BEA681",
"Z.	c #C0A883",
"`.	c #BCA382",
" +	c #BAA180",
".+	c #BDA482",
"++	c #BEA581",
"@+	c #B39875",
"#+	c #B29977",
"$+	c #958065",
"%+	c #C0A581",
"&+	c #6E604B",
"*+	c #DEC59B",
"=+	c #C3AD88",
"-+	c #BDA581",
";+	c #B99D7B",
">+	c #BAA27F",
",+	c #B09977",
"'+	c #B79F7B",
")+	c #B59E79",
"!+	c #BEA781",
"~+	c #BC9D7D",
"{+	c #BDA67E",
"]+	c #BCA57E",
"^+	c #BCA47E",
"/+	c #C1A77F",
"(+	c #BBA681",
"_+	c #BEA680",
":+	c #C2AA84",
"<+	c #BFA780",
"[+	c #B8A47E",
"}+	c #BAA480",
"|+	c #B8A07D",
"1+	c #C2AC87",
"2+	c #BCA37F",
"3+	c #7B6B54",
"4+	c #060504",
"5+	c #A18C6C",
"6+	c #181510",
"7+	c #7E6E56",
"8+	c #BB9D7D",
"9+	c #BFA782",
"0+	c #BCA57C",
"a+	c #BCA57F",
"b+	c #BDA47E",
"c+	c #C0A780",
"d+	c #C2AA82",
"e+	c #B7A47D",
"f+	c #6B5E49",
"g+	c #0A0907",
"h+	c #B59D7B",
"i+	c #736650",
"j+	c #DBBB93",
"k+	c #B99D7C",
"l+	c #AB9174",
"m+	c #A78F71",
"n+	c #B39C7A",
"o+	c #AF9979",
"p+	c #B39A79",
"q+	c #AD9779",
"r+	c #B09877",
"s+	c #AA9272",
"t+	c #AE9677",
"u+	c #9C886A",
"v+	c #B8A080",
"w+	c #A79074",
"x+	c #A68E71",
"y+	c #B9A27E",
"z+	c #A38D6D",
"A+	c #9B8769",
"B+	c #BCA886",
"C+	c #C4AD88",
"D+	c #AE9575",
"E+	c #A78D71",
"F+	c #A58E71",
"G+	c #B69B7A",
"H+	c #AC9273",
"I+	c #A28A6E",
"J+	c #B69D7B",
"K+	c #A89272",
"L+	c #695C49",
"M+	c #B49B7A",
"N+	c #211D18",
"O+	c #7D6C55",
"P+	c #B79D7A",
"Q+	c #A28C6E",
"R+	c #BCA480",
"S+	c #A58E72",
"T+	c #B79F80",
"U+	c #B09778",
"V+	c #AA9171",
"W+	c #B09978",
"X+	c #A58F6E",
"Y+	c #A79272",
"Z+	c #B19E7D",
"`+	c #AF9B7A",
" @	c #6A5B48",
".@	c #B19678",
"+@	c #C2A786",
"@@	c #6C5B48",
"#@	c #D6BB93",
"$@	c #B9A17E",
"%@	c #493F31",
"&@	c #201C16",
"*@	c #AB9576",
"=@	c #0F0D0A",
"-@	c #9C896C",
";@	c #353026",
">@	c #6A5D48",
",@	c #090806",
"'@	c #4E4537",
")@	c #1F1B15",
"!@	c #3B3429",
"~@	c #484031",
"{@	c #110F0C",
"]@	c #B09C7C",
"^@	c #7B6B55",
"/@	c #3A3328",
"(@	c #645944",
"_@	c #40392D",
":@	c #A59373",
"<@	c #191612",
"[@	c #3F382D",
"}@	c #2F2920",
"|@	c #28231B",
"1@	c #534838",
"2@	c #0B0A07",
"3@	c #998669",
"4@	c #655745",
"5@	c #16130F",
"6@	c #B7A280",
"7@	c #221E18",
"8@	c #7C6C55",
"9@	c #423A2D",
"0@	c #615744",
"a@	c #6E614C",
"b@	c #0F0D0B",
"c@	c #A59371",
"d@	c #29241C",
"e@	c #564C3C",
"f@	c #5D5141",
"g@	c #221E17",
"h@	c #3B352A",
"i@	c #594F3F",
"j@	c #1F1B16",
"k@	c #BAA483",
"l@	c #B69F7D",
"m@	c #B9A17F",
"n@	c #6E5F4A",
"o@	c #D0B58E",
"p@	c #968368",
"q@	c #8F7E63",
"r@	c #766850",
"s@	c #574D3C",
"t@	c #B69F7C",
"u@	c #0C0A08",
"v@	c #917E62",
"w@	c #5F5240",
"x@	c #342D23",
"y@	c #AD9473",
"z@	c #080706",
"A@	c #9A896C",
"B@	c #2D271E",
"C@	c #746651",
"D@	c #AA9373",
"E@	c #AA9476",
"F@	c #746752",
"G@	c #887860",
"H@	c #13110D",
"I@	c #BCA483",
"J@	c #241F19",
"K@	c #7C6D58",
"L@	c #8F7D63",
"M@	c #12100C",
"N@	c #B7A27E",
"O@	c #221F18",
"P@	c #473F31",
"Q@	c #574C3B",
"R@	c #978264",
"S@	c #0B0907",
"T@	c #AB9472",
"U@	c #473F32",
"V@	c #524839",
"W@	c #907D62",
"X@	c #928065",
"Y@	c #070604",
"Z@	c #9B876A",
"`@	c #84735C",
" #	c #1D1A14",
".#	c #C2AB89",
"+#	c #BDA684",
"@#	c #B8A07E",
"##	c #DBC098",
"$#	c #C3AB88",
"%#	c #B09876",
"&#	c #0E0C09",
"*#	c #4E4436",
"=#	c #4B4133",
"-#	c #655643",
";#	c #AE9573",
">#	c #625945",
",#	c #B5A17F",
"'#	c #9C8B6E",
")#	c #211D17",
"!#	c #82745C",
"~#	c #B3A07D",
"{#	c #0A0807",
"]#	c #9C8A6C",
"^#	c #2A251D",
"/#	c #786A54",
"(#	c #85755C",
"_#	c #191611",
":#	c #C0A886",
"<#	c #241F18",
"[#	c #938066",
"}#	c #12100D",
"|#	c #B6A07D",
"1#	c #211C16",
"2#	c #201B15",
"3#	c #231E17",
"4#	c #BAA481",
"5#	c #9D8F6F",
"6#	c #0B0A08",
"7#	c #B39F7D",
"8#	c #453D2F",
"9#	c #544A3B",
"0#	c #B8A17F",
"a#	c #332D24",
"b#	c #494133",
"c#	c #B8A380",
"d#	c #7E7058",
"e#	c #1C1813",
"f#	c #C1AA88",
"g#	c #BAA381",
"h#	c #C3AA88",
"i#	c #71634F",
"j#	c #D7BB92",
"k#	c #C1A983",
"l#	c #857359",
"m#	c #070605",
"n#	c #918064",
"o#	c #B7A17E",
"p#	c #0D0B09",
"q#	c #978769",
"r#	c #635844",
"s#	c #3A3228",
"t#	c #B39E7E",
"u#	c #9D886E",
"v#	c #3C3428",
"w#	c #685C48",
"x#	c #A49171",
"y#	c #0D0B08",
"z#	c #B49F7B",
"A#	c #2B261D",
"B#	c #776952",
"C#	c #85755B",
"D#	c #27221A",
"E#	c #7C6D55",
"F#	c #917D62",
"G#	c #6C5F4A",
"H#	c #0E0D0A",
"I#	c #625844",
"J#	c #9C8C6C",
"K#	c #040403",
"L#	c #A59173",
"M#	c #362F25",
"N#	c #524738",
"O#	c #837258",
"P#	c #6E624B",
"Q#	c #817259",
"R#	c #BFA984",
"S#	c #B69F7A",
"T#	c #70624C",
"U#	c #DEC197",
"V#	c #BBA47F",
"W#	c #B9A07E",
"X#	c #75664F",
"Y#	c #675A44",
"Z#	c #B49F7C",
"`#	c #393327",
" $	c #B5A07D",
".$	c #948066",
"+$	c #807158",
"@$	c #5D5140",
"#$	c #443B2F",
"$$	c #97856B",
"%$	c #352E24",
"&$	c #736450",
"*$	c #9F8E6F",
"=$	c #443B2D",
"-$	c #564C3B",
";$	c #766851",
">$	c #9D8B6B",
",$	c #3F372B",
"'$	c #72644D",
")$	c #383126",
"!$	c #927F63",
"~$	c #3A3227",
"{$	c #564B3A",
"]$	c #695C47",
"^$	c #393228",
"/$	c #7E7057",
"($	c #3B3328",
"_$	c #605341",
":$	c #796851",
"<$	c #A49071",
"[$	c #393227",
"}$	c #544939",
"|$	c #483F32",
"1$	c #4E4536",
"2$	c #40382C",
"3$	c #70634E",
"4$	c #4D4434",
"5$	c #5D5240",
"6$	c #9E8C6D",
"7$	c #DCC398",
"8$	c #B8A281",
"9$	c #BAA280",
"0$	c #BCA683",
"a$	c #B7A17F",
"b$	c #B9A57F",
"c$	c #B8A27E",
"d$	c #BEA883",
"e$	c #B9A27D",
"f$	c #BEA984",
"g$	c #BAA37F",
"h$	c #BAA57E",
"i$	c #BFA881",
"j$	c #C1A982",
"k$	c #BFA883",
"l$	c #BFAC86",
"m$	c #BAA682",
"n$	c #BFA982",
"o$	c #C1AB85",
"p$	c #BDA783",
"q$	c #B8A180",
"r$	c #BBA483",
"s$	c #BBA582",
"t$	c #B9A580",
"u$	c #B7A37D",
"v$	c #B9A47F",
"w$	c #BBA580",
"x$	c #BFA985",
"y$	c #B69E7B",
"z$	c #BCA780",
"A$	c #BEA780",
"B$	c #C1AA83",
"C$	c #C0AD86",
"D$	c #B9A582",
"E$	c #BEA881",
"F$	c #C2AC86",
"G$	c #BCA682",
"H$	c #6C5F4B",
"I$	c #DDC29B",
"J$	c #BFA785",
"K$	c #BDA483",
"L$	c #C0AA85",
"M$	c #C1AB86",
"N$	c #C7B18C",
"O$	c #C1AD88",
"P$	c #C0AB85",
"Q$	c #C3AB87",
"R$	c #BBA57E",
"S$	c #B8A280",
"T$	c #BEA887",
"U$	c #BAA17F",
"V$	c #C0A885",
"W$	c #BEA684",
"X$	c #BDA583",
"Y$	c #C0AB86",
"Z$	c #C7B18D",
"`$	c #C1AA85",
" %	c #BDA883",
".%	c #C2AD88",
"+%	c #BFA882",
"@%	c #BAA47E",
"#%	c #B9A281",
"$%	c #BEA787",
"%%	c #BEA685",
"&%	c #BEA785",
"*%	c #6D5D4A",
"=%	c #927E64",
"-%	c #5D513F",
";%	c #5A4F3D",
">%	c #5C513F",
",%	c #5E5240",
"'%	c #5C503E",
")%	c #5F5340",
"!%	c #5C513E",
"~%	c #5E5442",
"{%	c #5E5341",
"]%	c #5A4E3D",
"^%	c #5C4F3C",
"/%	c #5B513E",
"(%	c #5C503F",
"_%	c #5E5340",
":%	c #5C5040",
"<%	c #5A4E3C",
"[%	c #5F5341",
"}%	c #5E5441",
"|%	c #5D523F",
"1%	c #5B4F3D",
"2%	c #5B4F3B",
"3%	c #5C5140",
"                                                                                                                                ",
"                                                                                                                                ",
"                                                                                                                                ",
"                                                                                                                                ",
"        . . . . . . . . . . . . . . . . . . . . . . . . . . . . . . . . . . . . . . . . . . . . . . . . . . . . . .             ",
"        . . . . . . . . . . . . . . . . . . . . . . . . . . . . . . . . . . . . . . . . . . . . . . . . . . . . . .             ",
"        . . . . . . . . . . . . . . . . . . . . . . . . . . . . . . . . . . . . . . . . . . . . . . . . . . . . . .             ",
"        . . . + + + + + + + + + + + + + + + + + + + + + + + + + + + + + + + + + + + + + + + + + + + + + + + + + + +             ",
"        . . . + + + + + + + + + + + + + + + + + + + + + + + + + + + + + + + + + + + + + + + + + + + + + + + + + + +             ",
"        . . . + + + + + + + + + + + + + + + + + + + + + + + + + + + + + + + + + + + + + + + + + + + + + + + + + + +             ",
"        . . . + + + + + + + + + + + + + + + + + + + + + + + + + + + + + + + + + + + + + + + + + + + + + + + + + + +             ",
"        . . . + + + + + + + + + + + + + + + + + + + + + + + + + + + + + + + + + + + + + + + + + + + + + + + + + + +             ",
"        . . . + + + + + + + + + + + + + + + + + + + + + + + + + + + + + + + + + + + + + + + + + + + + + + + + + + +             ",
"        . . . + + + + + + + + + + + + + + + + + + + + + + + + + + + + + + + + + + + + + + + + + + + + + + + + + + +             ",
"        . . . + + + + + + + + + + + + + + + + + + + + + + + + + + + + + + + + + + + + + + + + + + + + + + + + + + +             ",
"        . . . + + + + + + + + + + + + + + + + + + + + + + + + + + + + + + + + + + + + + + + + + + + + + + + + + + +             ",
"        . . . + + + + + + + + + + + + + + + + + + + + + + + + + + + + + + + + + + + + + + + + + + + + + + + + + + +             ",
"        . . . + + + + + + + + + + + + + + + + + + + + + + + + + + + + + + + + + + + + + + + + + + + + + + + + + + +             ",
"        . . . + + + + + + + + + + + + + + + + + + + + + + + + + + + + + + + + + + + + + + + + + + + + + + + + + + +             ",
"        . . . + + + + + + + + + + + + + + + + + + + + + + + + + + + + + + + + + + + + + + + + + + + + + + + + + + +             ",
"        . . . + + + + + + + + + + + + + + + + + + + + + + + + + + + + + + + + + + + + + + + + + + + + + + + + + + +             ",
"        . . . + + + + + + + + + + + + + + + + + + + + + + + + + + + + + + + + + + + + + + + + + + + + + + + + + + +             ",
"        . . . + + + + + + + + + + + + + + + + + + + + + + + + + + + + + + + + + + + + + + + + + + + + + + + + + + +             ",
"        . . . + + + + + + + + + + + + + + + + + + + + + + + + + + + + + + + + + + + + + + + + + + + + + + + + + + +             ",
"        . . . + + + + + + + + + + + + + + + + + + + + + + + + + + + + + + + + + + + + + + + + + + + + + + + + + + +             ",
"        . . . + + + + + + + + + + + + + + + + + + + + + + + + + + + + + + + + + + + + + + + + + + + + + + + + + + +             ",
"        . . . + + + + + + + + + + + + + + + + + + + + + + + + + + + + + + + + + + + + + + + + + + + + + + + + + + +             ",
"        . . . + + + + + + + + + + + + + + + + + + + + + + + + + + + + + + + + + + + + + + + + + + + + + + + + + + +             ",
"        . . . + + + + + + + + + + + + + + + + + + + + + + + + + + + + + + + + + + + + + + + + + + + + + + + + + + +             ",
"        . . . + + + + + + + + + + + + + + + + + + + + + + + + + + + + + + + + + + + + + + + + + + + + + + + + + + +             ",
"        . . . + + + + + + + + + + + + + + + + + + + + + + + + + + + + + + + + + + + + + + + + + + + + + + + + + + +             ",
"        . . . + + + + + + + + + + + + + + + + + + + + + + + + + + + + + + + + + + + + + + + + + + + + + + + + + + +             ",
"        . . . + + + + + + + + + + + + + + + + + + + + + + + + + + + + + + + + + + + + + + + + + + + + + + + + + + +             ",
"        . . . + + + + + + + + + + + + + + + + + + + + + + + + + + + + + + + + + + + + + + + + + + + + + + + + + + +             ",
"        . . . + + + + + + + + + + + + + + + + + + + + + + + + + + + + + + + + + + + + + + + + + + + + + + + + + + +             ",
"        . . . + + + + + + + + + + + + + + + + + + + + + + + + + + + + + + + + + + + + + + + + + + + + + + + + + + +             ",
"        . . . + + + + + + + + + + + + + + + + + + + + + + + + + + + + + + + + + + + + + + + + + + + + + + + + + + +             ",
"        . . . + + + + + + + + + + + + + + + + + + + + + + + + + + + + + + + + + + + + + + + + + + + + + + + + + + +             ",
"        . . . + + + + + + + + + + + + + + + + + + + + + + + + + + + + + + + + + + + + + + + + + + + + + + + + + + +             ",
"        . . . + + + + + + + + + + + + + + + + + + + + + + + + + + + + + + + + + + + + + + + + + + + + + + + + + + +             ",
"        . . . + + + + + + + + + + + + + + + + + + + + + + + + + + + + + + + + + + + + + + + + + + + + + + + + + + +             ",
"        . . . + + + + + + + + + + + + + + + + + + + + + + + + + + + + + + + + + + + + + + + + + + + + + + + + + + +             ",
"        + + + + + + + + + + + + + + + + + + + + + + + + + + + + + + + + + + + + + + + + + + + + + + + + + + + + + +             ",
"                                                                                                                                ",
"                                                                                                                                ",
"                                                                                                                                ",
"              @ # $ % & * = - ; % > , ' ) ! ~ { ] ^ / ( ( _ : < [ } | 1 2 3 4 5 6 7 , 8 9 0 a b c ^ d e f g h < i               ",
"              j k l m n o p q r s t u v r w x y z A B C D q E F k m G n o p q H s I u J K L k M N A O P Q E E B R               ",
"              j S T U V W X Y m Z `  ...r +.@.#.q $.%.&.*.=.k -.;.>.,.'.W ).!.r ~.{.].k r ^./.(._.:.%.&.<.[.}.|.1.              ",
"              2.E 3.4.5.6.J 7.8.9.0.E a.b.c.d.e.N f.g.h.i.j.k.E E l.m.5.W n.o.p.9.q.r.s.F t.u.v.r f.g.J i.w.k.k R               ",
"              x.y.z.A.B.C.D.B.E.F.G.-.J H.I.J.K.L.n.M.-.N.O.P.Q.k.z.A.R.S.T.U.V.;.W.X.Y.Z.`. +K..+++@+#+$+O.%+S &+              ",
"              *+=+-+;+>+,+'+)+!+~+n.{+]+^+/+(+_+:+<+[+}+B |+]+1+=+2+b.3+4+5+6+7+8+9+0+a+b+c+v !+d+J e+f+g+h+a+g.i+              ",
"              j+k+l+m+n+o+p+q+r+s+t+u+v+w+x+;+y+z+A+B+C+D+E+F+G+H+I+J+K+L+M+N+O+P+Q+R+S+T+U+V+W+X+Y+Z+`+ @.@+@m @@              ",
"              #@$@%@&@*@=@-@;@>@,@'@)@!@~@{@]@^@/@(@_@:@<@[@}@|@1@2@3@4@5@6@7@8@9@0@a@b@c@d@e@f@a@g@h@i@j@k@l@m@n@              ",
"              o@$.p@,@q@4+r@s@t@u@v@w@x@y@z@A@B@C@D@,@E@d@F@G@H@I@J@K@L@M@N@O@P@Q@|.R@S@T@U@V@W@X@Y@Z@`@ #.#+#@#1.              ",
"              ##$#%#&#*#=#9@-#;#u@A@>#/@,#g+'#)#!#~#{#]#^#/#(#_#:#<#^@[#}#|#1#2#3#4#5#6#7#8#9#0#a#b#c#d#e#f#g#h#i#              ",
"              j#C k#/@d@l#m#n#o#p#q#r#s#t#S@u#v#w#x#y#z#A#B#C#5@-+D#E#F#M@}+)#G#H#I#J#K#L#M#N#O#g+x#P#Q#e#R#v S#T#              ",
"              U#V#W#X#Y#Z#`# $.$x@+$@$#$$$%$&$*$=$-$;$>$,$r#'$)$!$~${$]$^$/$($_$:$M#<$%$[$}$|$1$2$3$4$5$/@6$J _.G#              ",
"              7$8$9$I.0$a$b$[+c$d$e$h.f$'+D g$h$i$j$k$l$m$n$o$p$q$ +r$s$o#t$u$v$p$e$w$x$y$D y+z$A$B$<.C$D$E$F$G$H$              ",
"              I$I.m@J$J$K$L$M$N$1+*.d$O$++P$d$Q$R+i$!+R$S$T$R.J$U$9$V$W$X$Y$B.Z$`$*. %.%R+M$d$Q$R++%i$@%#%$%%%&%*%              ",
"              =%-%;%>%-%,%'%)%@$-%!%,%~%'%{%5$,%]%-%^%/%(%_%'%:%!%<%@$@$-%'%[%-%-%!%_%}%-%{%|%,%1%-%2%/%(%_%'%3%;%              ",
"                                                                                                                                ",
"                                                                                                                                ",
"                                                                                                                                "};
