/* XPM */
static char * chukichi_xpm[] = {
"55 38 300 2",
"  	c None",
". 	c #FFFFFF",
"+ 	c #FEFEFE",
"@ 	c #FDFDFD",
"# 	c #FCFCFC",
"$ 	c #FBFBFB",
"% 	c #5757D0",
"& 	c #2020BB",
"* 	c #8C8CDC",
"= 	c #F6F6F6",
"- 	c #F7F7F7",
"; 	c #F9F9F9",
"> 	c #5555B0",
", 	c #1E1E88",
"' 	c #8B8BC8",
") 	c #F5F5F5",
"! 	c #F8F8F8",
"~ 	c #FAFAFA",
"{ 	c #5656CE",
"] 	c #5555CC",
"^ 	c #F2F2F2",
"/ 	c #EEEEEE",
"( 	c #F0F0F0",
"_ 	c #F4F4F4",
": 	c #5454AD",
"< 	c #5252AA",
"[ 	c #EBEBEB",
"} 	c #EAEAEA",
"| 	c #ECECEC",
"1 	c #5555CB",
"2 	c #5353C8",
"3 	c #E8E8E8",
"4 	c #E3E3E3",
"5 	c #E2E2E2",
"6 	c #E6E6E6",
"7 	c #F3F3F3",
"8 	c #A8A8DE",
"9 	c #A7A7DD",
"0 	c #A6A6DB",
"a 	c #A6A6DA",
"b 	c #A5A5D9",
"c 	c #A4A4D7",
"d 	c #A3A3D5",
"e 	c #A1A1D2",
"f 	c #373799",
"g 	c #353596",
"h 	c #9696C6",
"i 	c #9393C1",
"j 	c #9292C0",
"k 	c #9595C2",
"l 	c #9898C5",
"m 	c #6969AC",
"n 	c #020254",
"o 	c #6C6CAD",
"p 	c #F1F1F1",
"q 	c #E2E2F7",
"r 	c #E1E1F6",
"s 	c #5252C8",
"t 	c #4F4FC3",
"u 	c #DCDCDC",
"v 	c #D5D5D5",
"w 	c #D4D4D4",
"x 	c #D9D9D9",
"y 	c #9D9DD5",
"z 	c #BCBCE1",
"A 	c #5353B9",
"B 	c #5353B7",
"C 	c #5252B4",
"D 	c #5151B2",
"E 	c #5151B0",
"F 	c #5050AE",
"G 	c #4F4FAB",
"H 	c #4E4EA9",
"I 	c #1C1C85",
"J 	c #1B1B81",
"K 	c #47479B",
"L 	c #444497",
"M 	c #444495",
"N 	c #454595",
"O 	c #484896",
"P 	c #4A4A97",
"Q 	c #4C4C97",
"R 	c #4D4D95",
"S 	c #E9E9E9",
"T 	c #EDEDED",
"U 	c #AAAAEA",
"V 	c #3B3BCC",
"W 	c #5656D1",
"X 	c #5555CF",
"Y 	c #5454CC",
"Z 	c #5353CA",
"` 	c #5151C7",
" .	c #1E1EB5",
"..	c #1C1CB1",
"+.	c #4747B9",
"@.	c #4545B5",
"#.	c #4444B3",
"$.	c #4747B4",
"%.	c #4A4AB6",
"&.	c #040496",
"*.	c #1D1DA0",
"=.	c #B5B5DA",
"-.	c #E7E7E7",
";.	c #E5E5E5",
">.	c #E1E1E1",
",.	c #DFDFDF",
"'.	c #DDDDDD",
").	c #D8D8D8",
"!.	c #4848A0",
"~.	c #44449A",
"{.	c #BEBEBE",
"].	c #B6B6B6",
"^.	c #B5B5B5",
"/.	c #BBBBBB",
"(.	c #C5C5C5",
"_.	c #CDCDCD",
":.	c #D7D7D7",
"<.	c #DADADA",
"[.	c #DEDEDE",
"}.	c #E4E4E4",
"|.	c #A9A9E8",
"1.	c #0505B9",
"2.	c #E0E0E0",
"3.	c #4B4BBF",
"4.	c #4747BA",
"5.	c #C4C4C4",
"6.	c #BABABA",
"7.	c #C1C1C1",
"8.	c #CCCCCC",
"9.	c #040493",
"0.	c #4B4BB2",
"a.	c #D6D6D6",
"b.	c #D2D2D2",
"c.	c #404095",
"d.	c #B0B0B0",
"e.	c #A8A8A8",
"f.	c #AEAEAE",
"g.	c #B8B8B8",
"h.	c #C2C2C2",
"i.	c #C8C8C8",
"j.	c #CFCFCF",
"k.	c #A7A7E5",
"l.	c #0505B6",
"m.	c #DBDBDB",
"n.	c #4444B5",
"o.	c #B2B2B2",
"p.	c #B9B9B9",
"q.	c #C3C3C3",
"r.	c #040492",
"s.	c #4747AD",
"t.	c #C9C9C9",
"u.	c #CBCBCB",
"v.	c #CECECE",
"w.	c #424298",
"x.	c #3E3E93",
"y.	c #AAAAAA",
"z.	c #A2A2A2",
"A.	c #8C8CA9",
"B.	c #9393B0",
"C.	c #C7C7C7",
"D.	c #A5A5E3",
"E.	c #0505B3",
"F.	c #D0D0D0",
"G.	c #4545B6",
"H.	c #4242B2",
"I.	c #ADADAD",
"J.	c #B4B4B4",
"K.	c #04048F",
"L.	c #4343A9",
"M.	c #BFBFBF",
"N.	c #9393B6",
"O.	c #4242A2",
"P.	c #4444A2",
"Q.	c #4646A3",
"R.	c #4646A1",
"S.	c #46469F",
"T.	c #44449B",
"U.	c #18187C",
"V.	c #171778",
"W.	c #3A3A8C",
"X.	c #373788",
"Y.	c #373786",
"Z.	c #393986",
"`.	c #16166A",
" +	c #171768",
".+	c #6D6DA2",
"++	c #D3D3D3",
"@+	c #A3A3E0",
"#+	c #0505B0",
"$+	c #C6C6C6",
"%+	c #4444B4",
"&+	c #4242B1",
"*+	c #AFAFAF",
"=+	c #04048D",
"-+	c #4242A6",
";+	c #B3B3B3",
">+	c #BDBDBD",
",+	c #CACACA",
"'+	c #A7A7A7",
")+	c #A3A3DF",
"!+	c #0505AC",
"~+	c #4343AF",
"{+	c #B1B1B1",
"]+	c #B7B7B7",
"^+	c #04048A",
"/+	c #4141A5",
"(+	c #9C9CBD",
"_+	c #ACACAC",
":+	c #9D9DAD",
"<+	c #7B7BA6",
"[+	c #D1D1D1",
"}+	c #EFEFEF",
"|+	c #A2A2DE",
"1+	c #0404A8",
"2+	c #4949BC",
"3+	c #4444B6",
"4+	c #4444B2",
"5+	c #1A1AA4",
"6+	c #1919A2",
"7+	c #4040AB",
"8+	c #3E3EA6",
"9+	c #4040A6",
"0+	c #4242A7",
"a+	c #030388",
"b+	c #4141A3",
"c+	c #191985",
"d+	c #47479F",
"e+	c #46469C",
"f+	c #454599",
"g+	c #424296",
"h+	c #404091",
"i+	c #3E3E8E",
"j+	c #3D3D8B",
"k+	c #3D3D89",
"l+	c #2A2A7A",
"m+	c #020251",
"n+	c #6B6B9F",
"o+	c #A1A1DC",
"p+	c #0404A5",
"q+	c #BCBCBC",
"r+	c #4444AF",
"s+	c #4242AC",
"t+	c #030386",
"u+	c #4040A1",
"v+	c #030374",
"w+	c #7D7DA8",
"x+	c #02024F",
"y+	c #C0C0C0",
"z+	c #BCBCE3",
"A+	c #4E4EBE",
"B+	c #4343AD",
"C+	c #4242AA",
"D+	c #030371",
"E+	c #46469D",
"F+	c #8181AC",
"G+	c #02024D",
"H+	c #4343AC",
"I+	c #4141A9",
"J+	c #03036F",
"K+	c #8585AF",
"L+	c #02024B",
"M+	c #4545AC",
"N+	c #03036D",
"O+	c #45459A",
"P+	c #8A8AB4",
"Q+	c #02024A",
"R+	c #4848AE",
"S+	c #4545A9",
"T+	c #03036A",
"U+	c #2F2F8B",
"V+	c #8181AF",
"W+	c #7979A7",
"X+	c #7777A4",
"Y+	c #7C7CA8",
"Z+	c #8484B0",
"`+	c #8B8BB6",
" @	c #8F8FBA",
".@	c #9090BA",
"+@	c #5F5F9D",
"@@	c #020247",
"#@	c #4C4CB0",
"$@	c #4848AA",
"%@	c #030368",
"&@	c #2F2F8A",
"*@	c #8080AE",
"=@	c #7878A5",
"-@	c #7676A3",
";@	c #7B7BA7",
">@	c #8484AF",
",@	c #8C8CB7",
"'@	c #9191BB",
")@	c #9292BB",
"!@	c #60609E",
"~@	c #020246",
"{@	c #4E4EB1",
"]@	c #4A4AAC",
"^@	c #020265",
"/@	c #474798",
"(@	c #8F8FB7",
"_@	c #010143",
". . . . . . . . . . . . . . . . . . . . . . . . . . . . . . . . . . . . . . . . . . . . . . . . . . . . . . . ",
". . . . . . . . . . . . . . . . . . . . . . . . . . . . . . . . . . . . . . . . . . . . . . . . . . . . . . . ",
". . . . . . . . . . . . . . . . . . . . . . . . . . . . . . . . . . . . . . . . . . . . . . . . . . . . . . . ",
". . . . . . . . . . . . . . . . . . . . . . . . . . . . . . . . . . . . . . . . . . . . . . . . . . . . . . . ",
". . . . . . . . . . . . . . . . . . . . . . . . . . . . . . . . . . . . . . . . . . . . . . . . . . . . . . . ",
". . . . . . . . . . . . . . . . . . . . . . . . . . . . . . . . . . . . . . . . . . . . . . . . . . . . . . . ",
". . . . . . . . . . . . . . . . . . . . . . . . . . . . . . . . . . . . . . . . . . . . . . . . . . . . . . . ",
". . . . . . . . . . . . . . . . . . . . . . . . . . . . . . . . . . . . . . . . . . . . . . . . . . . . . . . ",
". . . . . . . . . . . . . . . . . . . + + + + . . . . . . . . . . . . . . + + + + . . . . . . . . . . . . . . ",
". . . . . . . . . . . . . . . . . + @ # # $ # @ + . . . . . . . . . . + @ # # $ # @ + . . . . . . . . . . . . ",
". . . . . . . . . . . . . . . . + % & * = = - ; # + . . . . + + + @ # > , ' ) ) = ! ~ # @ @ + + + . . . . . . ",
". . . . . . . . . . . . . . . + @ { ] ^ / / ( _ ! # @ + @ @ # $ $ ~ ! : < / [ } | ( _ - ! ; ~ $ # @ + . . . . ",
". . . . . . . . . . . . + + @ # ~ 1 2 3 4 5 6 | 7 - ~ 8 9 0 a b c d e f g h i j k l m n o p 7 ) ! $ @ + . . . ",
". . . . . . . . . . q r # $ ; - _ s t u v w x 5 y z 7 A B C D E F G H I J K L M N O P Q R 6 S T ^ - $ + . . . ",
". . . . . . . . . + U V W X Y Z `  ...+.@.#.$.%.&.*.=.3 -.;.4 >.,.'.).!.~.{.].^./.(._.w :.<.[.}.| _ ; @ . . . ",
". . . . . . . . . + |.1.^ | 3 }.2.3.4.5./.6.7.8.9.0.<.x ).:.:.a.v b._.~.c.d.e.e.f.g.h.i.8.j.v '.-.p ! # + . . ",
". . . . . . . . + # k.l.} >.m.).v 4.n./.o.o.p.q.r.s.8.t.t.u.v.j.j._.i.w.x.y.z.z.e.A.B.q.C.u.b.m.6 ( ! # + . . ",
". . . . . . . . + $ D.E.5 :.F._.8.G.H.].f.I.J.{.K.L.M./.N.O.P.Q.R.S.T.U.V.W.X.Y.Z.`. +.+C.8.++'.3 ^ ; @ + . . ",
". . . . . . . . + ~ @+#+m.v.C.$+C.%+&+].*+f.^.{.=+-+g.;+J.>+$+v.F.j.,+h.g.f.'+'+I.].{.5.t.j.:.5 | _ ~ @ . . . ",
". . . . . . . . @ ; )+!+a.t.7.7.(.#.~+g.{+d.]+M.^+/+J.f.{+/.(+j.b.F.u.5./.;+I._+:+<+M.5.t.[+<.;.}+- $ + . . . ",
". . . . . . . . @ ; |+1+2+3+H.&+4+5+6+7+8+8+9+0+a+b+;+I.d./.c+d+d+e+f+g+h+i+j+k+l+m+n+h.C.F.m.-.p ! # + . . . ",
". . . . . . . . @ ; o+p+++5.q+>+h.r+s+g.{+d.]+M.t+u+o.I.d.q+v+d+j.u.$+h.M.q+/.6.w+x+{.y+(.v.m.3 ^ ; @ . . . . ",
". . . . . . . . @ ; z+A+w (.>+>+7.B+C+^.f.f.^.>+b+m ;+*+;+{.D+E+u.(.7.M.y+7.h.7.F+G+>+>+7.8.<.3 7 ~ @ . . . . ",
". . . . . . . . @ ~ ^ 6 :.t.7.y+h.H+I+J.I.I.J.q+y+>+]+J.p.h.J+e+$+M./.>+h.$+t.,+K+L+>+/.M.,+x 3 _ ~ + . . . . ",
". . . . . . . . + $ _ } '.b.,+t.,+M+L.g.d.d.g.7.$+$+h.y+q.,+N+O+h.p.]./.5.8.[+b.P+Q+M.6.>+i.).3 _ $ + . . . . ",
". . . . . . . . + # - }+6 '.:.a.v R+S+{.].].{.t.F.b.F.j.[+w T+U+V+W+X+Y+Z+`+ @.@+@@@y+6.q+i.).3 _ $ + . . . . ",
". . . . . . . . . @ ~ ) / 3 ;.4 >.#@$@$+>+>+$+b.m.,.,.[.,.[.%@&@*@=@-@;@>@,@'@)@!@~@7.6.q+i.x S ) $ + . . . . ",
". . . . . . . . . + # ; = ^ ( / [ {@]@_.5.5._.x }.} | | [ 3 ^@/@y+;+d.]+5.F.).x (@_@h./.{.t.<.} ) $ + . . . . ",
". . . . . . . . . . + # $ ; ! = 7 [ 2.w 8.8.w 2.[ ^ ) ) 7 }+;.a.5.]+J.6.(.[+).x v _.5.{.7._.u [ = # + . . . . ",
". . . . . . . . . . . + + @ # $ - p -.u w w u -.p - ~ ~ ; _ } u 8.y+>+h.8.v m.u x b.,+$+t.++>./ - # + . . . . ",
". . . . . . . . . . . . . . + @ ~ _ | 4 [.[.4 | _ ~ # @ # ! ( }.:.v.,+v.a.'.5 4 2.m.v b.w u -.^ ; @ . . . . . ",
". . . . . . . . . . . . . . . + # ! ^ | 3 3 | ^ ! # + + @ ~ ) T }.'.m.[.4 3 [ | } 6 5 2.5 -.}+= $ + . . . . . ",
". . . . . . . . . . . . . . . . @ $ - _ p p _ - $ @ . . + # ; _ }+[ } [ }+^ _ _ 7 p / T / p ) ~ @ + . . . . . ",
". . . . . . . . . . . . . . . . + @ $ ; ! ! ; $ @ + . . . + # ~ - ) _ ) - ; ~ ~ ~ ; - = - ! ~ @ + . . . . . . ",
". . . . . . . . . . . . . . . . . . + @ # # @ + . . . . . . + @ # $ $ # @ @ + + + @ # # # @ @ + . . . . . . . ",
". . . . . . . . . . . . . . . . . . . . + + . . . . . . . . . . + + + + . . . . . . . + + + . . . . . . . . . ",
". . . . . . . . . . . . . . . . . . . . . . . . . . . . . . . . . . . . . . . . . . . . . . . . . . . . . . . ",
". . . . . . . . . . . . . . . . . . . . . . . . . . . . . . . . . . . . . . . . . . . . . . . . . . . . . . . "};
