/* XPM */
static char * daikichi_xpm[] = {
"56 38 320 2",
"  	c None",
". 	c #FFFFFF",
"+ 	c #FEFEFE",
"@ 	c #FDFDFD",
"# 	c #FCFCFC",
"$ 	c #FBFBFB",
"% 	c #5757CF",
"& 	c #2020BA",
"* 	c #8C8CDB",
"= 	c #F6F6F6",
"- 	c #F7F7F7",
"; 	c #F9F9F9",
"> 	c #5555AE",
", 	c #1E1E86",
"' 	c #8B8BC8",
") 	c #F5F5F5",
"! 	c #F8F8F8",
"~ 	c #FAFAFA",
"{ 	c #5656CD",
"] 	c #5555CA",
"^ 	c #F2F2F2",
"/ 	c #EFEFEF",
"( 	c #EEEEEE",
"_ 	c #F0F0F0",
": 	c #F4F4F4",
"< 	c #5454AC",
"[ 	c #5252A9",
"} 	c #EBEBEB",
"| 	c #EAEAEA",
"1 	c #ECECEC",
"2 	c #5555CB",
"3 	c #5353C7",
"4 	c #E9E9E9",
"5 	c #E4E4E4",
"6 	c #E3E3E3",
"7 	c #E7E7E7",
"8 	c #AAAAE0",
"9 	c #A9A9DE",
"0 	c #A8A8DC",
"a 	c #A6A6DA",
"b 	c #A5A5D8",
"c 	c #A4A4D7",
"d 	c #A3A3D5",
"e 	c #A1A1D2",
"f 	c #373798",
"g 	c #353595",
"h 	c #9696C5",
"i 	c #9393C1",
"j 	c #9292C0",
"k 	c #9595C2",
"l 	c #9898C4",
"m 	c #6969AC",
"n 	c #020253",
"o 	c #6C6CAC",
"p 	c #F1F1F1",
"q 	c #F3F3F3",
"r 	c #5454C8",
"s 	c #5050C4",
"t 	c #DFDFDF",
"u 	c #D8D8D8",
"v 	c #D7D7D7",
"w 	c #DDDDDD",
"x 	c #E6E6E6",
"y 	c #5656BA",
"z 	c #5454B8",
"A 	c #5353B5",
"B 	c #5252B3",
"C 	c #5151B0",
"D 	c #5050AD",
"E 	c #4F4FAA",
"F 	c #4E4EA7",
"G 	c #1C1C83",
"H 	c #1B1B80",
"I 	c #47479B",
"J 	c #444497",
"K 	c #444494",
"L 	c #454594",
"M 	c #484894",
"N 	c #4A4A96",
"O 	c #4C4C95",
"P 	c #4D4D95",
"Q 	c #EDEDED",
"R 	c #5151C5",
"S 	c #4D4DC0",
"T 	c #D5D5D5",
"U 	c #CDCDCD",
"V 	c #CCCCCC",
"W 	c #D3D3D3",
"X 	c #DEDEDE",
"Y 	c #E8E8E8",
"Z 	c #E0E0E0",
"` 	c #D9D9D9",
" .	c #48489E",
"..	c #444499",
"+.	c #BEBEBE",
"@.	c #B6B6B6",
"#.	c #B5B5B5",
"$.	c #BBBBBB",
"%.	c #C5C5C5",
"&.	c #D4D4D4",
"*.	c #DADADA",
"=.	c #ABABEA",
"-.	c #AAAAE9",
";.	c #A9A9E7",
">.	c #A7A7E4",
",.	c #A5A5E3",
"'.	c #A4A4E1",
").	c #A2A2DE",
"!.	c #9E9EDA",
"~.	c #3636BA",
"{.	c #3333B5",
"].	c #8888C2",
"^.	c #8282BB",
"/.	c #8787BF",
"(.	c #8F8FC7",
"_.	c #6666BF",
":.	c #04048E",
"<.	c #6B6BC1",
"[.	c #D6D6D6",
"}.	c #D2D2D2",
"|.	c #44449A",
"1.	c #404095",
"2.	c #B0B0B0",
"3.	c #A8A8A8",
"4.	c #AEAEAE",
"5.	c #B8B8B8",
"6.	c #C2C2C2",
"7.	c #C8C8C8",
"8.	c #CFCFCF",
"9.	c #5757D2",
"0.	c #5656D0",
"a.	c #5555CE",
"b.	c #5454CB",
"c.	c #5353C9",
"d.	c #5151C7",
"e.	c #4E4EC1",
"f.	c #1C1CAE",
"g.	c #1A1AAA",
"h.	c #4242B1",
"i.	c #3F3FAC",
"j.	c #3F3FAB",
"k.	c #4242AC",
"l.	c #4646AF",
"m.	c #4A4AB0",
"n.	c #4C4CB2",
"o.	c #4D4DB1",
"p.	c #D1D1D1",
"q.	c #424297",
"r.	c #3E3E91",
"s.	c #AAAAAA",
"t.	c #A2A2A2",
"u.	c #8C8CA9",
"v.	c #9393B0",
"w.	c #C3C3C3",
"x.	c #C7C7C7",
"y.	c #CBCBCB",
"z.	c #DBDBDB",
"A.	c #E2E2E2",
"B.	c #4747B8",
"C.	c #4343B1",
"D.	c #B4B4B4",
"E.	c #ABABAB",
"F.	c #B3B3B3",
"G.	c #BFBFBF",
"H.	c #A6A6C9",
"I.	c #4848A7",
"J.	c #4848A4",
"K.	c #4747A3",
"L.	c #4747A0",
"M.	c #46469E",
"N.	c #44449B",
"O.	c #18187B",
"P.	c #161676",
"Q.	c #3A3A8B",
"R.	c #373787",
"S.	c #373786",
"T.	c #393986",
"U.	c #161669",
"V.	c #171766",
"W.	c #6D6DA2",
"X.	c #8A8AC5",
"Y.	c #04049F",
"Z.	c #7B7BB4",
"`.	c #3B3BA8",
" +	c #A1A1A1",
".+	c #C9C9C9",
"++	c #CECECE",
"@+	c #D0D0D0",
"#+	c #CACACA",
"$+	c #A7A7A7",
"%+	c #ADADAD",
"&+	c #C4C4C4",
"*+	c #04049D",
"=+	c #8C8CB2",
"-+	c #4B4BA6",
";+	c #8C8C9E",
">+	c #9D9D9D",
",+	c #A5A5A5",
"'+	c #B2B2B2",
")+	c #A7A7C8",
"!+	c #ACACAC",
"~+	c #9D9DAC",
"{+	c #7B7BA6",
"]+	c #E5E5E5",
"^+	c #A8A8CF",
"/+	c #3131AE",
"(+	c #5959B5",
"_+	c #7070A7",
":+	c #6A6AA2",
"<+	c #9E9E9E",
"[+	c #C1C1C1",
"}+	c #1B1B86",
"|+	c #4A4AA3",
"1+	c #49499F",
"2+	c #454598",
"3+	c #424295",
"4+	c #404091",
"5+	c #3E3E8D",
"6+	c #3D3D8A",
"7+	c #3D3D89",
"8+	c #2A2A7A",
"9+	c #02024F",
"0+	c #6B6B9F",
"a+	c #6565C2",
"b+	c #1B1BA5",
"c+	c #9C9CC2",
"d+	c #38389F",
"e+	c #8080A5",
"f+	c #BABABA",
"g+	c #030372",
"h+	c #4B4BA2",
"i+	c #C6C6C6",
"j+	c #BCBCBC",
"k+	c #7D7DA8",
"l+	c #02024E",
"m+	c #C0C0C0",
"n+	c #040499",
"o+	c #4B4BB6",
"p+	c #AFAFAF",
"q+	c #5F5FA6",
"r+	c #29299A",
"s+	c #8D8DB0",
"t+	c #030370",
"u+	c #8181AB",
"v+	c #02024C",
"w+	c #BDBDBD",
"x+	c #8787D1",
"y+	c #3737B0",
"z+	c #ACACD1",
"A+	c #B1B1B1",
"B+	c #030387",
"C+	c #171791",
"D+	c #9999BC",
"E+	c #03036D",
"F+	c #4B4BA0",
"G+	c #8585AF",
"H+	c #02024B",
"I+	c #DFDFF2",
"J+	c #7070CA",
"K+	c #3838B1",
"L+	c #9494B7",
"M+	c #2D2D9A",
"N+	c #03037F",
"O+	c #8888BB",
"P+	c #A3A3C5",
"Q+	c #E1E1E1",
"R+	c #03036C",
"S+	c #49499E",
"T+	c #B7B7B7",
"U+	c #8A8AB3",
"V+	c #020248",
"W+	c #7171CB",
"X+	c #1F1FA2",
"Y+	c #B9B9DE",
"Z+	c #9C9CBF",
"`+	c #19198C",
" @	c #03037A",
".@	c #2E2E94",
"+@	c #8989BA",
"@@	c #DCDCDC",
"#@	c #030369",
"$@	c #30308B",
"%@	c #8282B0",
"&@	c #7A7AA7",
"*@	c #7878A5",
"=@	c #7C7CA8",
"-@	c #8484B0",
";@	c #8B8BB6",
">@	c #8F8FBA",
",@	c #9090BA",
"'@	c #5F5F9D",
")@	c #020247",
"!@	c #C6C6EB",
"~@	c #5656BE",
"{@	c #A4A4DB",
"]@	c #BBBBDF",
"^@	c #9F9FC1",
"/@	c #030377",
"(@	c #030375",
"_@	c #5757A4",
":@	c #030367",
"<@	c #2E2E89",
"[@	c #7F7FAC",
"}@	c #7777A4",
"|@	c #7676A2",
"1@	c #7B7BA7",
"2@	c #8484AF",
"3@	c #8C8CB6",
"4@	c #9191BA",
"5@	c #9292BB",
"6@	c #60609D",
"7@	c #020245",
"8@	c #040493",
"9@	c #8686B7",
"0@	c #414199",
"a@	c #B9B9B9",
"b@	c #020264",
"c@	c #434395",
"d@	c #8F8FB7",
"e@	c #010143",
". . . . . . . . . . . . . . . . . . . . . . . . . . . . . . . . . . . . . . . . . . . . . . . . . . . . . . . . ",
". . . . . . . . . . . . . . . . . . . . . . . . . . . . . . . . . . . . . . . . . . . . . . . . . . . . . . . . ",
". . . . . . . . . . . . . . . . . . . . . . . . . . . . . . . . . . . . . . . . . . . . . . . . . . . . . . . . ",
". . . . . . . . . . . . . . . . . . . . . . . . . . . . . . . . . . . . . . . . . . . . . . . . . . . . . . . . ",
". . . . . . . . . . . . . . . . . . . . . . . . . . . . . . . . . . . . . . . . . . . . . . . . . . . . . . . . ",
". . . . . . . . . . . . . . . . . . . . . . . . . . . . . . . . . . . . . . . . . . . . . . . . . . . . . . . . ",
". . . . . . . . . . . . . . . . . . . . . . . . . . . . . . . . . . . . . . . . . . . . . . . . . . . . . . . . ",
". . . . . . . . . . . . . . . . . . . . . . . . . . . . . . . . . . . . . . . . . . . . . . . . . . . . . . . . ",
". . . . . . . . . . . . . . . . . . . . + + + + . . . . . . . . . . . . . . + + + + . . . . . . . . . . . . . . ",
". . . . . . . . . . . . . . . . . . + @ # # $ # @ + . . . . . . . . . . + @ # # $ # @ + . . . . . . . . . . . . ",
". . . . . . . . . . . . . . . . . + % & * = = - ; # + . . . . + + + @ # > , ' ) ) = ! ~ # @ @ + + + . . . . . . ",
". . . . . . . . . . . . . . . . . @ { ] ^ / ( _ : ; # + + + @ @ # $ ~ ! < [ ( } | 1 _ : - ! ; ~ $ # @ + . . . . ",
". . . . . . . . . . . . . . . . + # 2 3 4 5 6 7 ( ) ~ @ 8 9 0 a b c d e f g h i j k l m n o p q ) ! $ @ + . . . ",
". . . . . . . . . . . . . + + @ # ! r s t u v w x / = ; y z A B C D E F G H I J K L M N O P x 4 Q ^ - $ + . . . ",
". . . . . . . . . . . + @ @ # ~ ! : R S T U V W X 4 p : : p Q Y 5 Z w `  ...+.@.#.$.%.U &.v *.X 5 1 : ; @ . . . ",
". . . . . . . . . . =.-.;.>.,.'.).!.~.{.].^.^./.(._.:.<.} Y 5 t *.[.}.U |.1.2.3.3.4.5.6.7.V 8.T w 7 p ! # + . . ",
". . . . . . . . . + 9.0.a.b.c.d.s e.f.g.h.i.j.k.l.m.n.o.Z X *.v &.p.U 7.q.r.s.t.t.3.u.v.w.x.y.}.z.x _ ! # + . . ",
". . . . . . . . . + $ - ^ 1 x A.w v B.C.D.E.s.F.G.y.}.T T H.I.J.K.L.M.N.O.P.Q.R.S.T.U.V.W.x.V W w Y ^ ; @ + . . ",
". . . . . . . . . @ ~ ) ( 7 Z *.&.X.Y.Z.`. + +s.@.6..+U ++8.@+}.W }.8.#+6.5.4.$+$+%+@.+.&+.+8.v A.1 : ~ @ . . . ",
". . . . . . . . . @ ~ ) ( x t ` W ].*+=+-+;+>+,+'++.x.y.++@+W )+[.&.@+y.&+$.F.%+!+~+{+G.&+.+p.*.]+/ - $ + . . . ",
". . . . . . . . . @ $ = _ | 6 w ^+/+(+D._+:+<+$+D.[+y.p.T u *.}+|+1+I 2+3+4+5+6+7+8+9+0+6.x.@+z.7 p ! # + . . . ",
". . . . . . . . . + # ; ) _ } ]+a+b+c+5.s.d+e+%+f+7.W *.t A.6 g+h+T U i+6.G.j+$.f+k+l++.m+%.++z.Y ^ ; @ . . . . ",
". . . . . . . . . . + # ; = ^ Q n+o+V j+p+q+r+s+m+V v Z x | | t+h+p.x.[+G.m+[+6.[+u+v+w+w+[+V *.Y q ~ @ . . . . ",
". . . . . . . . . . . + # ~ - x+y+z+U G.D.A+B+C+D+U v Z 7 1 } E+F+U [+j+w+6.i+.+#+G+H+w+$.G.#+` Y : ~ + . . . . ",
". . . . . . . . . . . + @ I+J+K+7 *.U [+f+f+L+M+N+O+P+u Q+7 Y R+S+x.$.T+$.&+V p.}.U+V+G.f+w+7.u Y : $ + . . . . ",
". . . . . . . . . . . + # W+X+Y+A.[.y.&+6.&+x.Z+`+ @.@+@&.@@Z #@$@%@&@*@=@-@;@>@,@'@)@m+f+j+7.u Y : $ + . . . . ",
". . . . . . . . . . + !@~@{@]@7 w W y..+y.@+}.p.^@/@(@_@i+8.T :@<@[@}@|@1@2@3@4@5@6@7@[+f+j+7.` 4 ) $ + . . . . ",
". . . . . . . . . + 8@~@= _ 4 Q+u }.8.p.[.@@t z.}.9@0@a@j+w.y.b@c@$.A+p+T+&+@+u ` d@e@6.$.+..+*.| ) $ + . . . . ",
". . . . . . . . . + # ! ^ } 5 w v &.[.z.A.Y 4 ]+@@8.6.f+5.+.i+#+i+w+D.'+f+%.p.u ` T U &++.[+U @@} = # + . . . . ",
". . . . . . . . . @ ~ = _ 4 A.w z.z.t ]+1 p ^ / x *.U w.G.6.7.U y.&+w+$.[+y.T z.@@` }.#+i+.+W Q+( - # + . . . . ",
". . . . . . . . . @ ~ = _ | ]+A.A.]+4 / : ! ! = / x z.p.U ++}.[.T @+#+.+++[.w A.6 Z z.T }.&.@@7 ^ ; @ . . . . . ",
". . . . . . . . . @ $ - ^ ( } | } ( ^ = ~ # # $ - _ 4 A.w w Z A.A.X z.*.w 6 Y } 1 | x A.Z A.7 / = $ + . . . . . ",
". . . . . . . . . + # ; = q ^ ^ : = ; $ @ + + @ $ ! q / 1 } Q ( ( 1 4 4 } / ^ : : q p ( Q ( p ) ~ @ + . . . . . ",
". . . . . . . . . . + # ~ ; ! ! ~ $ @ + . . . . + # ~ ! = = = - = ) : : ) - ; ~ ~ ~ ; - = - ! ~ @ + . . . . . . ",
". . . . . . . . . . . + @ @ # @ @ + . . . . . . . + @ # # # # # # $ $ $ # @ @ + + + @ # # # @ @ + . . . . . . . ",
". . . . . . . . . . . . . . . . . . . . . . . . . . . . + + + + + + + + + . . . . . . . + + + . . . . . . . . . ",
". . . . . . . . . . . . . . . . . . . . . . . . . . . . . . . . . . . . . . . . . . . . . . . . . . . . . . . . ",
". . . . . . . . . . . . . . . . . . . . . . . . . . . . . . . . . . . . . . . . . . . . . . . . . . . . . . . . "};
