/* XPM */
static char * shoukichi_xpm[] = {
"56 38 288 2",
"  	c None",
". 	c #FFFFFF",
"+ 	c #FEFEFE",
"@ 	c #FDFDFD",
"# 	c #FCFCFC",
"$ 	c #FBFBFB",
"% 	c #5757CF",
"& 	c #2020BA",
"* 	c #8C8CDB",
"= 	c #F6F6F6",
"- 	c #F7F7F7",
"; 	c #F9F9F9",
"> 	c #5555AE",
", 	c #1E1E86",
"' 	c #8B8BC8",
") 	c #F5F5F5",
"! 	c #F8F8F8",
"~ 	c #FAFAFA",
"{ 	c #5656CD",
"] 	c #5555CA",
"^ 	c #F2F2F2",
"/ 	c #EFEFEF",
"( 	c #EEEEEE",
"_ 	c #F0F0F0",
": 	c #F4F4F4",
"< 	c #5454AC",
"[ 	c #5252A9",
"} 	c #EBEBEB",
"| 	c #EAEAEA",
"1 	c #ECECEC",
"2 	c #5555CB",
"3 	c #5353C7",
"4 	c #E4E4E4",
"5 	c #E7E7E7",
"6 	c #AAAAE0",
"7 	c #A9A9DE",
"8 	c #A8A8DD",
"9 	c #A6A6DA",
"0 	c #A5A5D8",
"a 	c #A4A4D7",
"b 	c #A3A3D5",
"c 	c #A1A1D2",
"d 	c #373798",
"e 	c #353595",
"f 	c #9696C5",
"g 	c #9393C1",
"h 	c #9292C0",
"i 	c #9595C2",
"j 	c #9898C4",
"k 	c #6969AC",
"l 	c #020253",
"m 	c #6C6CAC",
"n 	c #F1F1F1",
"o 	c #F3F3F3",
"p 	c #5454C9",
"q 	c #5050C4",
"r 	c #E0E0E0",
"s 	c #D9D9D9",
"t 	c #D8D8D8",
"u 	c #DEDEDE",
"v 	c #5656BB",
"w 	c #5555B9",
"x 	c #5454B6",
"y 	c #5353B3",
"z 	c #5151B0",
"A 	c #5050AD",
"B 	c #4F4FAA",
"C 	c #4E4EA7",
"D 	c #1C1C83",
"E 	c #1B1B80",
"F 	c #47479B",
"G 	c #444497",
"H 	c #444494",
"I 	c #454594",
"J 	c #484894",
"K 	c #4A4A96",
"L 	c #4C4C95",
"M 	c #4D4D95",
"N 	c #E6E6E6",
"O 	c #E9E9E9",
"P 	c #EDEDED",
"Q 	c #5151C5",
"R 	c #4E4EC1",
"S 	c #D0D0D0",
"T 	c #CFCFCF",
"U 	c #D6D6D6",
"V 	c #E2E2E2",
"W 	c #E1E1E1",
"X 	c #DDDDDD",
"Y 	c #48489E",
"Z 	c #444499",
"` 	c #BEBEBE",
" .	c #B6B6B6",
"..	c #B5B5B5",
"+.	c #BBBBBB",
"@.	c #C5C5C5",
"#.	c #CDCDCD",
"$.	c #D4D4D4",
"%.	c #D7D7D7",
"&.	c #DADADA",
"*.	c #AAAAE8",
"=.	c #3B3BC6",
"-.	c #A7A7E3",
";.	c #4F4FC2",
">.	c #4C4CBD",
",.	c #C8C8C8",
"'.	c #5B5BB7",
").	c #A3A3C8",
"!.	c #E5E5E5",
"~.	c #D3D3D3",
"{.	c #CECECE",
"].	c #44449A",
"^.	c #404095",
"/.	c #B0B0B0",
"(.	c #A8A8A8",
"_.	c #AEAEAE",
":.	c #B8B8B8",
"<.	c #C2C2C2",
"[.	c #CCCCCC",
"}.	c #D5D5D5",
"|.	c #A9A9E6",
"1.	c #0505B0",
"2.	c #3939C1",
"3.	c #4C4CBE",
"4.	c #4949B9",
"5.	c #C9C9C9",
"6.	c #9999BE",
"7.	c #5D5DB7",
"8.	c #C1C1D4",
"9.	c #E3E3E3",
"0.	c #DBDBDB",
"a.	c #424297",
"b.	c #3E3E91",
"c.	c #AAAAAA",
"d.	c #A2A2A2",
"e.	c #8C8CA9",
"f.	c #9393B0",
"g.	c #C3C3C3",
"h.	c #C7C7C7",
"i.	c #CBCBCB",
"j.	c #D2D2D2",
"k.	c #0505AD",
"l.	c #9D9DD9",
"m.	c #4848B9",
"n.	c #4646B4",
"o.	c #C0C0C0",
"p.	c #B3B3C6",
"q.	c #6161B9",
"r.	c #E8E8E8",
"s.	c #B9B9DC",
"t.	c #4F4FAE",
"u.	c #4D4DAA",
"v.	c #4B4BA6",
"w.	c #4949A2",
"x.	c #47479F",
"y.	c #45459B",
"z.	c #18187B",
"A.	c #161676",
"B.	c #3A3A8B",
"C.	c #373787",
"D.	c #373786",
"E.	c #393986",
"F.	c #161669",
"G.	c #171766",
"H.	c #6D6DA2",
"I.	c #0505AC",
"J.	c #4545B3",
"K.	c #4343B1",
"L.	c #BDBDBD",
"M.	c #C6C6C6",
"N.	c #7676BD",
"O.	c #3434A6",
"P.	c #B1B1D4",
"Q.	c #A7A7A7",
"R.	c #ADADAD",
"S.	c #C4C4C4",
"T.	c #C3C3EB",
"U.	c #1E1EB3",
"V.	c #8181CF",
"W.	c #CACACA",
"X.	c #4242B0",
"Y.	c #4141AE",
"Z.	c #BABABA",
"`.	c #B9B9B9",
" +	c #3333A3",
".+	c #C6C6D8",
"++	c #B1B1D2",
"@+	c #B3B3B3",
"#+	c #ACACAC",
"$+	c #9D9DAC",
"%+	c #7B7BA6",
"&+	c #BFBFBF",
"*+	c #D1D1D1",
"=+	c #5454C8",
"-+	c #5151C3",
";+	c #DFDFDF",
">+	c #BCBCBC",
",+	c #4040AD",
"'+	c #4040AB",
")+	c #9090C4",
"!+	c #030384",
"~+	c #9292C5",
"{+	c #1B1B87",
"]+	c #4B4BA3",
"^+	c #4949A0",
"/+	c #47479C",
"(+	c #454598",
"_+	c #424295",
":+	c #404091",
"<+	c #3E3E8D",
"[+	c #3D3D8A",
"}+	c #3D3D89",
"|+	c #2A2A7A",
"1+	c #02024F",
"2+	c #6B6B9F",
"3+	c #A8A8E3",
"4+	c #3939BB",
"5+	c #C1C1C1",
"6+	c #4141AC",
"7+	c #4141AB",
"8+	c #03037E",
"9+	c #030372",
"0+	c #7D7DA8",
"a+	c #02024E",
"b+	c #E1E1F5",
"c+	c #8B8BD8",
"d+	c #BCBCE3",
"e+	c #4343AD",
"f+	c #4343AB",
"g+	c #03037C",
"h+	c #030370",
"i+	c #46469D",
"j+	c #8181AB",
"k+	c #02024C",
"l+	c #7272D0",
"m+	c #C1C1E8",
"n+	c #4646AE",
"o+	c #4545AC",
"p+	c #C5C5D6",
"q+	c #9090C2",
"r+	c #03036D",
"s+	c #8585AF",
"t+	c #02024B",
"u+	c #DCDCDC",
"v+	c #4949AF",
"w+	c #4747AD",
"x+	c #03036C",
"y+	c #434398",
"z+	c #8A8AB3",
"A+	c #020248",
"B+	c #4B4BB0",
"C+	c #4949AD",
"D+	c #030369",
"E+	c #2D2D88",
"F+	c #7C7CAA",
"G+	c #7777A5",
"H+	c #7777A3",
"I+	c #7C7CA8",
"J+	c #8484B0",
"K+	c #8B8BB6",
"L+	c #8F8FBA",
"M+	c #9090BA",
"N+	c #5F5F9D",
"O+	c #020247",
"P+	c #4F4FB5",
"Q+	c #4F4FB3",
"R+	c #1C1C97",
"S+	c #4949AB",
"T+	c #030367",
"U+	c #7C7CA9",
"V+	c #7676A3",
"W+	c #7575A2",
"X+	c #7B7BA7",
"Y+	c #8484AF",
"Z+	c #8C8CB6",
"`+	c #9191BA",
" @	c #9292BB",
".@	c #60609D",
"+@	c #020245",
"@@	c #9D9DD2",
"#@	c #030385",
"$@	c #020264",
"%@	c #454596",
"&@	c #B1B1B1",
"*@	c #AFAFAF",
"=@	c #B7B7B7",
"-@	c #8F8FB7",
";@	c #010143",
". . . . . . . . . . . . . . . . . . . . . . . . . . . . . . . . . . . . . . . . . . . . . . . . . . . . . . . . ",
". . . . . . . . . . . . . . . . . . . . . . . . . . . . . . . . . . . . . . . . . . . . . . . . . . . . . . . . ",
". . . . . . . . . . . . . . . . . . . . . . . . . . . . . . . . . . . . . . . . . . . . . . . . . . . . . . . . ",
". . . . . . . . . . . . . . . . . . . . . . . . . . . . . . . . . . . . . . . . . . . . . . . . . . . . . . . . ",
". . . . . . . . . . . . . . . . . . . . . . . . . . . . . . . . . . . . . . . . . . . . . . . . . . . . . . . . ",
". . . . . . . . . . . . . . . . . . . . . . . . . . . . . . . . . . . . . . . . . . . . . . . . . . . . . . . . ",
". . . . . . . . . . . . . . . . . . . . . . . . . . . . . . . . . . . . . . . . . . . . . . . . . . . . . . . . ",
". . . . . . . . . . . . . . . . . . . . . . . . . . . . . . . . . . . . . . . . . . . . . . . . . . . . . . . . ",
". . . . . . . . . . . . . . . . . . . . + + + + . . . . . . . . . . . . . . + + + + . . . . . . . . . . . . . . ",
". . . . . . . . . . . . . . . . . . + @ # # $ # @ + . . . . . . . . . . + @ # # $ # @ + . . . . . . . . . . . . ",
". . . . . . . . . . . . . . . . . + % & * = = - ; # + . . . . + + + @ # > , ' ) ) = ! ~ # @ @ + + + . . . . . . ",
". . . . . . . . . . . . . . . . . @ { ] ^ / ( _ : ; # + + + @ @ # $ ~ ! < [ ( } | 1 _ : - ! ; ~ $ # @ + . . . . ",
". . . . . . . . . . . . . . . . + # 2 3 | 4 4 5 ( ) ~ @ 6 7 8 9 0 a b c d e f g h i j k l m n o ) ! $ @ + . . . ",
". . . . . . . . . . . . . . . + # ; p q r s t u 5 n ! $ v w x y z A B C D E F G H I J K L M N O P ^ - $ + . . . ",
". . . . . . . . . . . . . . + # ; ) Q R t S T U V P ) ; ; = n 1 N W X s Y Z `  ...+.@.#.$.%.&.u 4 1 : ; @ . . . ",
". . . . . . . . . . . . . *.=.-.: / ;.>.S ,.'.).X O ^ = = o P !.u t ~.{.].^./.(.(._.:.<.,.[.T }.X 5 n ! # + . . ",
". . . . . . . . . . . . + |.1.2.1 !.3.4.5.<.6.7.8.!.P ^ o _ | 9.0.}.T 5.a.b.c.d.d.(.e.f.g.h.i.j.0.N _ ! # + . . ",
". . . . . . . . . . . + # -.k.l.W s m.n.g.` o.p.q.r r.P ( s.t.u.v.w.x.y.z.A.B.C.D.E.F.G.H.h.[.~.X r.^ ; @ + . . ",
". . . . . . . . . . . + $ I.Q r }.[.J.K.L.+.` M.N.O.P.N r.O r.4 u t j.i.g.:._.Q.Q.R. .` S.5.T %.V 1 : ~ @ . . . ",
". . . . . . . . . . . @ T.U.V.%.W.<.X.Y.Z.`.L.@.S  + +.+r V 9.++u s j.[.S.+.@+R.#+$+%+&+S.5.*+&.!./ - $ + . . . ",
". . . . . . . . . . + $ =+-+;+T g.>+,+'+`.`.L.M.S )+!+~+t &.X {+]+^+/+(+_+:+<+[+}+|+1+2+<.h.S 0.5 n ! # + . . . ",
". . . . . . . . . . @ 3+4+O &.[.5+>+6+7++.Z.` h.*+%.)+8+*+*+$.9+^+*+i.M.<.&+>++.Z.0+a+` o.@.{.0.r.^ ; @ . . . . ",
". . . . . . . . . + b+c+d+N t [.S.<.e+f+&+L.o.5.$.&.~+g+{.i.#.h+i+W.S.o.&+o.5+<.5+j+k+L.L.5+[.&.r.o ~ @ . . . . ",
". . . . . . . . . + l+m+/ 4 s S i.i.n+o+S.o.<.[.%.u p+q+T W.5.r+].<.L.Z.>+5+M.5.W.s+t+L.+.&+W.s r.: ~ + . . . . ",
". . . . . . . . . + $ = ( !.u+U $.}.v+w+,.<.S.#.s V 9.u+$.#.W.x+y+>+ ...Z.S.[.*+j.z+A+&+Z.L.,.t r.: $ + . . . . ",
". . . . . . . . . + $ = / r.V u u u B+C+5.<.S.{.0.!.r.4 u+}.S D+E+F+G+H+I+J+K+L+M+N+O+o.Z.>+,.t r.: $ + . . . . ",
". . . . . . . . . + $ - ^ 1 O 5 P+Q+R+S+W.<.S.T X r.P 1 N ;+s T+E+U+V+W+X+Y+Z+`+ @.@+@5+Z.>+,.s O ) $ + . . . . ",
". . . . . . . . . + # ; ) ^ _ / ( @@#@U 5.<.@.S ;+} ^ ^ / | 9.$@%@>+&@*@=@S.S t s -@;@<.+.` 5.&.| ) $ + . . . . ",
". . . . . . . . . . @ $ ; - = ) o ( 4 %.W.S.,.~.V ( ) - = ^ } W j.<. .@+Z.@.*+t s }.#.S.` 5+#.u+} = # + . . . . ",
". . . . . . . . . . + @ # $ ~ ; = _ N s T W.{.s N n ! $ ~ ! ^ r.&.i.o.>+<.i.}.0.u+s j.W.M.5.~.W ( - # + . . . . ",
". . . . . . . . . . . . + + @ # ; o | r %.$.t W 1 ) ~ @ @ $ = ( 9.%.#.W.{.U X V 9.r 0.}.j.$.u+5 ^ ; @ . . . . . ",
". . . . . . . . . . . . . . + @ $ - _ O 9.W 4 } ^ ; # + + @ ~ ) 1 4 X 0.u 9.r.} 1 | N V r V 5 / = $ + . . . . . ",
". . . . . . . . . . . . . . . + @ ~ = ^ ( P / o ! $ + . . + # ; : / } | } / ^ : : o n ( P ( n ) ~ @ + . . . . . ",
". . . . . . . . . . . . . . . . + @ $ ! = = - ; # + . . . . + # ~ - ) : ) - ; ~ ~ ~ ; - = - ! ~ @ + . . . . . . ",
". . . . . . . . . . . . . . . . . + + @ # # # @ + . . . . . . + @ # $ $ # @ @ + + + @ # # # @ @ + . . . . . . . ",
". . . . . . . . . . . . . . . . . . . . + + + . . . . . . . . . . + + + + . . . . . . . + + + . . . . . . . . . ",
". . . . . . . . . . . . . . . . . . . . . . . . . . . . . . . . . . . . . . . . . . . . . . . . . . . . . . . . ",
". . . . . . . . . . . . . . . . . . . . . . . . . . . . . . . . . . . . . . . . . . . . . . . . . . . . . . . . "};
