/* XPM */
static char * suekichi_xpm[] = {
"56 38 353 2",
"  	c None",
". 	c #FFFFFF",
"+ 	c #FEFEFE",
"@ 	c #FDFDFD",
"# 	c #FCFCFC",
"$ 	c #FBFBFB",
"% 	c #5757CF",
"& 	c #2020BA",
"* 	c #8C8CDB",
"= 	c #F6F6F6",
"- 	c #F7F7F7",
"; 	c #F9F9F9",
"> 	c #5555AE",
", 	c #1E1E86",
"' 	c #8B8BC8",
") 	c #F5F5F5",
"! 	c #F8F8F8",
"~ 	c #FAFAFA",
"{ 	c #5656CD",
"] 	c #5555CA",
"^ 	c #F1F1F1",
"/ 	c #EEEEEE",
"( 	c #EDEDED",
"_ 	c #EFEFEF",
": 	c #F3F3F3",
"< 	c #5454AC",
"[ 	c #5252A9",
"} 	c #EBEBEB",
"| 	c #EAEAEA",
"1 	c #ECECEC",
"2 	c #F0F0F0",
"3 	c #F4F4F4",
"4 	c #5454CA",
"5 	c #5151C6",
"6 	c #E6E6E6",
"7 	c #E1E1E1",
"8 	c #E0E0E0",
"9 	c #E4E4E4",
"0 	c #D6D6E9",
"a 	c #A4A4DC",
"b 	c #DCDCEE",
"c 	c #A6A6DC",
"d 	c #A5A5DA",
"e 	c #A4A4D9",
"f 	c #A4A4D8",
"g 	c #A4A4D7",
"h 	c #A3A3D5",
"i 	c #A2A2D4",
"j 	c #A1A1D2",
"k 	c #373798",
"l 	c #353595",
"m 	c #9696C5",
"n 	c #9393C1",
"o 	c #9292C0",
"p 	c #9595C2",
"q 	c #9898C4",
"r 	c #6969AC",
"s 	c #020253",
"t 	c #6C6CAC",
"u 	c #ABABEB",
"v 	c #AAAAEA",
"w 	c #A9A9E9",
"x 	c #A8A8E7",
"y 	c #A7A7E6",
"z 	c #A6A6E4",
"A 	c #A5A5E2",
"B 	c #A3A3DF",
"C 	c #3838BE",
"D 	c #3535BA",
"E 	c #9292CD",
"F 	c #8E8EC8",
"G 	c #8D8DC7",
"H 	c #9090C9",
"I 	c #9696CE",
"J 	c #6969C4",
"K 	c #040492",
"L 	c #6D6DC3",
"M 	c #5252B6",
"N 	c #5151B5",
"O 	c #5050B2",
"P 	c #5050B1",
"Q 	c #5050AE",
"R 	c #4F4FAC",
"S 	c #4F4FAA",
"T 	c #4E4EA7",
"U 	c #1C1C83",
"V 	c #1B1B80",
"W 	c #47479B",
"X 	c #444497",
"Y 	c #444494",
"Z 	c #454594",
"` 	c #484894",
" .	c #4A4A96",
"..	c #4C4C95",
"+.	c #4D4D95",
"@.	c #E9E9E9",
"#.	c #F2F2F2",
"$.	c #A5A5E4",
"%.	c #A3A3E1",
"&.	c #A2A2DF",
"*.	c #A0A0DD",
"=.	c #9D9DDA",
"-.	c #3535BB",
";.	c #3333B7",
">.	c #8989C4",
",.	c #8484BE",
"'.	c #8383BC",
").	c #8888C0",
"!.	c #8E8EC6",
"~.	c #9494CC",
"{.	c #9898CF",
"].	c #9999CF",
"^.	c #E3E3E3",
"/.	c #DFDFDF",
"(.	c #DEDEDE",
"_.	c #DDDDDD",
":.	c #DCDCDC",
"<.	c #D8D8D8",
"[.	c #48489E",
"}.	c #444499",
"|.	c #BEBEBE",
"1.	c #B6B6B6",
"2.	c #B5B5B5",
"3.	c #BBBBBB",
"4.	c #C5C5C5",
"5.	c #CDCDCD",
"6.	c #D4D4D4",
"7.	c #D7D7D7",
"8.	c #DADADA",
"9.	c #4A4ABE",
"0.	c #4747B8",
"a.	c #C0C0C0",
"b.	c #B8B8B8",
"c.	c #B7B7B7",
"d.	c #CACACA",
"e.	c #D9D9D9",
"f.	c #D6D6D6",
"g.	c #D3D3D3",
"h.	c #D2D2D2",
"i.	c #D1D1D1",
"j.	c #43439A",
"k.	c #404095",
"l.	c #B0B0B0",
"m.	c #A8A8A8",
"n.	c #AEAEAE",
"o.	c #C2C2C2",
"p.	c #C8C8C8",
"q.	c #CCCCCC",
"r.	c #CFCFCF",
"s.	c #D5D5D5",
"t.	c #E7E7E7",
"u.	c #4848BA",
"v.	c #4444B4",
"w.	c #AFAFAF",
"x.	c #D0D0D0",
"y.	c #CECECE",
"z.	c #424297",
"A.	c #3E3E91",
"B.	c #AAAAAA",
"C.	c #A2A2A2",
"D.	c #8C8CA9",
"E.	c #9393B0",
"F.	c #C3C3C3",
"G.	c #C7C7C7",
"H.	c #CBCBCB",
"I.	c #DBDBDB",
"J.	c #E2E2E2",
"K.	c #4646B7",
"L.	c #4242B1",
"M.	c #B2B2B2",
"N.	c #A9A9A9",
"O.	c #B1B1B1",
"P.	c #6B6BB2",
"Q.	c #7171B8",
"R.	c #A2A2C5",
"S.	c #4747A6",
"T.	c #4747A4",
"U.	c #4747A2",
"V.	c #4747A0",
"W.	c #46469E",
"X.	c #44449B",
"Y.	c #18187B",
"Z.	c #161676",
"`.	c #3A3A8B",
" +	c #373787",
".+	c #373786",
"++	c #393986",
"@+	c #161669",
"#+	c #171766",
"$+	c #6D6DA2",
"%+	c #E8E8E8",
"&+	c #C3C3EB",
"*+	c #5252C7",
"=+	c #5050C4",
"-+	c #4E4EC1",
";+	c #3434B6",
">+	c #0404A3",
",+	c #04049F",
"'+	c #1818A3",
")+	c #2929A6",
"!+	c #2727A1",
"~+	c #3939A2",
"{+	c #3C3CA4",
"]+	c #4040A6",
"^+	c #4444A9",
"/+	c #7373B8",
"(+	c #A7A7A7",
"_+	c #ADADAD",
":+	c #C4C4C4",
"<+	c #C9C9C9",
"[+	c #6363C2",
"}+	c #1B1BA8",
"|+	c #1919A4",
"1+	c #3E3EAB",
"2+	c #8282A7",
"3+	c #5959A2",
"4+	c #9F9F9F",
"5+	c #ADADCE",
"6+	c #B3B3B3",
"7+	c #ACACAC",
"8+	c #9D9DAC",
"9+	c #7B7BA6",
"0+	c #BFBFBF",
"a+	c #E5E5E5",
"b+	c #4646B4",
"c+	c #4141AE",
"d+	c #3B3BA6",
"e+	c #9D9D9D",
"f+	c #34349D",
"g+	c #979797",
"h+	c #BDBDBD",
"i+	c #1C1C87",
"j+	c #4C4CA4",
"k+	c #4A4AA0",
"l+	c #47479C",
"m+	c #454598",
"n+	c #424295",
"o+	c #404091",
"p+	c #3E3E8D",
"q+	c #3D3D8A",
"r+	c #3D3D89",
"s+	c #2A2A7A",
"t+	c #02024F",
"u+	c #6B6B9F",
"v+	c #D1D1E5",
"w+	c #3535B3",
"x+	c #7777C2",
"y+	c #3E3EA9",
"z+	c #3838A2",
"A+	c #949494",
"B+	c #8E8E8E",
"C+	c #232396",
"D+	c #7A7A9E",
"E+	c #ABABAB",
"F+	c #B9B9B9",
"G+	c #030372",
"H+	c #4C4CA3",
"I+	c #BCBCBC",
"J+	c #BABABA",
"K+	c #7D7DA8",
"L+	c #02024E",
"M+	c #D8D8EC",
"N+	c #6B6BC8",
"O+	c #3535B1",
"P+	c #C1C1C1",
"Q+	c #3D3DA6",
"R+	c #37379F",
"S+	c #909090",
"T+	c #8B8B8B",
"U+	c #232394",
"V+	c #242494",
"W+	c #9696A8",
"X+	c #030370",
"Y+	c #4B4BA2",
"Z+	c #8181AB",
"`+	c #02024C",
" @	c #3939B6",
".@	c #3737B2",
"+@	c #C6C6D9",
"@@	c #3D3DA5",
"#@	c #37379E",
"$@	c #939393",
"%@	c #8F8F8F",
"&@	c #838395",
"*@	c #48489C",
"=@	c #282895",
"-@	c #6767AA",
";@	c #03036D",
">@	c #4A4A9F",
",@	c #C6C6C6",
"'@	c #8585AF",
")@	c #02024B",
"!@	c #E0E0F3",
"~@	c #3A3AB6",
"{@	c #8888D2",
"]@	c #3E3EA4",
"^@	c #39399F",
"/@	c #9C9C9C",
"(@	c #989898",
"_@	c #A5A5A5",
":@	c #6363A5",
"<@	c #03037D",
"[@	c #03037A",
"}@	c #2F2F94",
"|@	c #03036C",
"1@	c #8A8AB3",
"2@	c #020248",
"3@	c #AAAAE2",
"4@	c #8D8DD7",
"5@	c #5454BF",
"6@	c #4040A5",
"7@	c #3D3DA1",
"8@	c #A4A4A4",
"9@	c #2C2C94",
"0@	c #030377",
"a@	c #8484B6",
"b@	c #030369",
"c@	c #2F2F8A",
"d@	c #8080AE",
"e@	c #7979A7",
"f@	c #7777A4",
"g@	c #7C7CA8",
"h@	c #8484B0",
"i@	c #8B8BB6",
"j@	c #8F8FBA",
"k@	c #9090BA",
"l@	c #5F5F9D",
"m@	c #020247",
"n@	c #A9A9E1",
"o@	c #C3C3E8",
"p@	c #4242A6",
"q@	c #4040A3",
"r@	c #B4B4B4",
"s@	c #ADADBE",
"t@	c #8282B4",
"u@	c #ADADBD",
"v@	c #030367",
"w@	c #2D2D88",
"x@	c #7D7DAB",
"y@	c #7676A2",
"z@	c #7B7BA7",
"A@	c #8484AF",
"B@	c #8C8CB6",
"C@	c #9191BA",
"D@	c #9292BB",
"E@	c #60609D",
"F@	c #020245",
"G@	c #4646A9",
"H@	c #4444A5",
"I@	c #020264",
"J@	c #424294",
"K@	c #8F8FB7",
"L@	c #010143",
". . . . . . . . . . . . . . . . . . . . . . . . . . . . . . . . . . . . . . . . . . . . . . . . . . . . . . . . ",
". . . . . . . . . . . . . . . . . . . . . . . . . . . . . . . . . . . . . . . . . . . . . . . . . . . . . . . . ",
". . . . . . . . . . . . . . . . . . . . . . . . . . . . . . . . . . . . . . . . . . . . . . . . . . . . . . . . ",
". . . . . . . . . . . . . . . . . . . . . . . . . . . . . . . . . . . . . . . . . . . . . . . . . . . . . . . . ",
". . . . . . . . . . . . . . . . . . . . . . . . . . . . . . . . . . . . . . . . . . . . . . . . . . . . . . . . ",
". . . . . . . . . . . . . . . . . . . . . . . . . . . . . . . . . . . . . . . . . . . . . . . . . . . . . . . . ",
". . . . . . . . . . . . . . . . . . . . . . . . . . . . . . . . . . . . . . . . . . . . . . . . . . . . . . . . ",
". . . . . . . . . . . . . . . . . . . . . . . . . . . . . . . . . . . . . . . . . . . . . . . . . . . . . . . . ",
". . . . . . . . . . . . . . . . . . . . + + + + . . . . . . . . . . . . . . + + + + . . . . . . . . . . . . . . ",
". . . . . . . . . . . . . . . . . . + @ # # $ # @ + . . . . . . . . . . + @ # # $ # @ + . . . . . . . . . . . . ",
". . . . . . . . . . . . . . . . . + % & * = = - ; # @ + + + + + + @ @ # > , ' ) ) = ! ~ # @ @ + + + . . . . . . ",
". . . . . . . . . . . . . . . + + # { ] ^ / ( _ : - ~ # # # $ $ $ ~ ~ ! < [ / } | 1 2 3 - ! ; ~ $ # @ + . . . . ",
". . . . . . . . . . . . + @ # # ~ ! 4 5 6 7 8 9 | 0 a b c d e f g h i j k l m n o p q r s t ^ : ) ! $ @ + . . . ",
". . . . . . . . . . u v w x y z A B C D E F G H I J K L M N O P Q R S T U V W X Y Z `  ...+.6 @.( #.- $ + . . . ",
". . . . . . . . . . v w y $.%.&.*.=.-.;.>.,.'.).!.~.{.].^.7 /.(.(._.:.<.[.}.|.1.2.3.4.5.6.7.8.(.9 1 3 ; @ . . . ",
". . . . . . . . . + # ~ = #.( | 6 7 9.0.a.b.c.|.d.6.e.8.<.f.6.6.g.h.i.5.j.k.l.m.m.n.b.o.p.q.r.s._.t.^ ! # + . . ",
". . . . . . . . . + # ! : / @.9 8 8.u.v.b.w.n.1.o.q.h.g.i.x.r.r.r.y.q.p.z.A.B.C.C.m.D.E.F.G.H.h.I.6 2 ! # + . . ",
". . . . . . . . . + # ! : ( t.J._.f.K.L.M.N.N.O.P.Q.y.x.x.R.S.T.U.V.W.X.Y.Z.`. +.+++@+#+$+G.q.g._.%+#.; @ + . . ",
". . . . . . . . . + # &+4 *+=+-+;+>+,+'+)+!+~+{+]+^+/+x.h.g.s.f.f.6.x.d.o.b.n.(+(+_+1.|.:+<+r.7.J.1 3 ~ @ . . . ",
". . . . . . . . . + @ ~ ) 2 @.J.[+}+|+1+2+3+4+m.1.o.d.x.6.<.I.5+I.7.h.q.:+3.6+_+7+8+9+0+:+<+i.8.a+_ - $ + . . . ",
". . . . . . . . . . @ $ - ^ | 7 ,+b+c+d+e+f+g+C.l.h+G.r.f.:.8 i+j+k+l+m+n+o+p+q+r+s+t+u+o.G.x.I.t.^ ! # + . . . ",
". . . . . . . . . . + # ! #.v+w+x+4.y+z+A+B+C+D+E+F+4.r.7./.^.G+H+f.y.G.o.0+I+3.J+K+L+|.a.4.y.I.%+#.; @ . . . . ",
". . . . . . . . . . + # ; M+N+O+h.P+Q+R+S+T+U+V+W+c.F.y.<.8 9 X+Y+h.p.P+0+a.P+o.P+Z+`+h+h+P+q.8.%+: ~ @ . . . . ",
". . . . . . . . . . + # ;  @.@+@x.a.@@#@$@%@&@*@=@-@F.5.f./.^.;@>@q.P+I+h+o.,@<+d.'@)@h+3.0+d.e.%+3 ~ + . . . . ",
". . . . . . . . . . + !@~@{@%+_.r.P+]@^@/@(@/@_@:@<@[@}@h.e.(.|@*@4.J+c.3.:+q.i.h.1@2@0+J+h+p.<.%+3 $ + . . . . ",
". . . . . . . . . . 3@4@5@/ a+8.y.F.6@7@m.8@(+n.1.9@0@a@H.i.f.b@c@d@e@f@g@h@i@j@k@l@m@a.J+I+p.<.%+3 $ + . . . . ",
". . . . . . . . . + n@o@: } 7 <.x.<+p@q@r@l.M.b.|.s@t@u@:+<+5.v@w@x@f@y@z@A@B@C@D@E@F@P+J+I+p.e.@.) $ + . . . . ",
". . . . . . . . . + $ - ^ %+8 e.6.i.G@H@a.3.I+o.p.d.p.4.F.4.<+I@J@F+l.w.c.:+x.<.e.K@L@o.3.|.<+8.| ) $ + . . . . ",
". . . . . . . . . + $ - 2 @.J._.I.I.<.g.H.,@,@q.h.6.h.5.<+<+q.q.,@h+r@M.J+4.i.<.e.s.5.:+|.P+5.:.} = # + . . . . ",
". . . . . . . . . + $ - #.1 %+a+a+a+^._.f.i.i.f.:.8 (.8.f.6.s.6.r.4.h+I+P+H.s.I.:.e.h.d.,@<+g.7 / - # + . . . . ",
". . . . . . . . . + # ; = #._ / _ _ ( %+7 :.:.7 t.| | t.9 J.J.8 8.h.H.d.y.f._.J.^.8 I.s.h.6.:.t.#.; @ . . . . . ",
". . . . . . . . . . @ # ; - = = = = 3 2 } %+t.} 2 : : #.2 _ / } t.7 :.8._.^.%+} 1 | 6 J.8 J.t._ = $ + . . . . . ",
". . . . . . . . . . + @ # $ $ $ $ $ ; - : ^ ^ : = ; ~ ; ! - = 3 ^ ( | @.} _ #.3 3 : ^ / ( / ^ ) ~ @ + . . . . . ",
". . . . . . . . . . . . + + + + + + @ $ ; ! ! ; $ # @ @ @ # # ~ ; = ) 3 ) - ; ~ ~ ~ ; - = - ! ~ @ + . . . . . . ",
". . . . . . . . . . . . . . . . . . + + @ # # @ + + . . . . + + @ # $ $ # @ @ + + + @ # # # @ @ + . . . . . . . ",
". . . . . . . . . . . . . . . . . . . . . + + . . . . . . . . . . + + + + . . . . . . . + + + . . . . . . . . . ",
". . . . . . . . . . . . . . . . . . . . . . . . . . . . . . . . . . . . . . . . . . . . . . . . . . . . . . . . ",
". . . . . . . . . . . . . . . . . . . . . . . . . . . . . . . . . . . . . . . . . . . . . . . . . . . . . . . . "};
