/* XPM */
static char * wmauda_xpm[] = {
"48 48 135 2",
"  	c #000000",
". 	c #444A4C",
"+ 	c #4C4A4C",
"@ 	c #44464C",
"# 	c #A4A2A4",
"$ 	c #801C1C",
"% 	c #B40204",
"& 	c #A4A6A4",
"* 	c #080808",
"= 	c #090909",
"- 	c #313131",
"; 	c #505050",
"> 	c #5A5A5A",
", 	c #4F4F4F",
"' 	c #0E0D0E",
") 	c #181818",
"! 	c #0D0D0D",
"~ 	c #5C5C5C",
"{ 	c #A8A8A8",
"] 	c #D6D6D6",
"^ 	c #D9D9D9",
"/ 	c #D5D5D5",
"( 	c #A5A5A5",
"_ 	c #595959",
": 	c #0B0B0B",
"< 	c #060606",
"[ 	c #6A6A6A",
"} 	c #CCCCCC",
"| 	c #CBCBCB",
"1 	c #696969",
"2 	c #2B2B2B",
"3 	c #BABABA",
"4 	c #B8B8B8",
"5 	c #2A2A2A",
"6 	c #484848",
"7 	c #D4D4D4",
"8 	c #D3D3D3",
"9 	c #474747",
"0 	c #494949",
"a 	c #D7D7D7",
"b 	c #171717",
"c 	c #2D2D2D",
"d 	c #2E2E2E",
"e 	c #BBBBBB",
"f 	c #C5C5C5",
"g 	c #A3A3A3",
"h 	c #949494",
"i 	c #6E6E6E",
"j 	c #4D4D4D",
"k 	c #858585",
"l 	c #C6C6C6",
"m 	c #BEBEBE",
"n 	c #050505",
"o 	c #020202",
"p 	c #6C6C6C",
"q 	c #777777",
"r 	c #030303",
"s 	c #515151",
"t 	c #6B6B6B",
"u 	c #CDCDCD",
"v 	c #A7A7A7",
"w 	c #141414",
"x 	c #0E0E0E",
"y 	c #5E5E5E",
"z 	c #9A9A9A",
"A 	c #393939",
"B 	c #626262",
"C 	c #ACACAC",
"D 	c #717171",
"E 	c #3E3E3E",
"F 	c #5F5F5F",
"G 	c #040404",
"H 	c #BCBCBC",
"I 	c #AFAFAF",
"J 	c #010101",
"K 	c #121212",
"L 	c #D8D8D8",
"M 	c #333333",
"N 	c #8C8C8C",
"O 	c #3D3D3D",
"P 	c #ABABAB",
"Q 	c #7B7B7B",
"R 	c #373737",
"S 	c #111111",
"T 	c #606060",
"U 	c #3B3B3B",
"V 	c #919191",
"W 	c #424242",
"X 	c #585858",
"Y 	c #656565",
"Z 	c #7C7C7C",
"` 	c #676767",
" .	c #6D6D6D",
"..	c #5D5D5D",
"+.	c #353535",
"@.	c #2C2C2C",
"#.	c #1F1F1F",
"$.	c #878787",
"%.	c #5B5B5B",
"&.	c #525252",
"*.	c #272727",
"=.	c #A2A2A2",
"-.	c #404040",
";.	c #1A1A1A",
">.	c #303030",
",.	c #343434",
"'.	c #A9A9A9",
").	c #B9B9B9",
"!.	c #666666",
"~.	c #808080",
"{.	c #7E7E7E",
"].	c #969696",
"^.	c #212121",
"/.	c #1B1B1B",
"(.	c #C9C9C9",
"_.	c #7F7F7F",
":.	c #464646",
"<.	c #070707",
"[.	c #3F3F3F",
"}.	c #959595",
"|.	c #D0D0D0",
"1.	c #CACACA",
"2.	c #757575",
"3.	c #444444",
"4.	c #636363",
"5.	c #C8C8C8",
"6.	c #7D7D7D",
"7.	c #C4C4C4",
"8.	c #0F0F0F",
"9.	c #868686",
"0.	c #848484",
"a.	c #1E1E1E",
"b.	c #C2C2C2",
"c.	c #BFBFBF",
"d.	c #747474",
"                                                                                                ",
"                                                                                                ",
"                                                                                                ",
"                                                                                                ",
"    . + @ + @ + @ + @ + @ + @ + #                                                               ",
"    . $ $ $ $ $ $ $ $ $ $ $ $ $ #                                                               ",
"    + $ % % % % % % % % % % % $ &                                                               ",
"    . $ % % % % % % % % % % % $ &                                                               ",
"    + $ $ $ $ $ $ $ $ $ $ $ $ $ #                                                               ",
"    & & & & & & & & & & & & & & &                                                               ",
"                                                                                                ",
"                                  *     = - ; > > , - =                                         ",
"                            * ' ) ! ~ { ] ^ ^ ^ ^ ^ ^ / ( _ :                                   ",
"                              < [ } ^ ^ ^ ^ ^ ^ ^ ^ ^ ^ ^ ^ | 1 <                               ",
"                            2 3 ^ ^ ^ ^ ^ ^ ^ ^ ^ ^ ^ ^ ^ ^ ^ ^ 4 5                             ",
"                          6 7 ^ ^ ^ ^ ^ ^ ^ ^ ^ ^ ^ ^ ^ ^ ^ ^ ^ ^ 8 9                           ",
"                        0 a ^ ^ ^ ^ ^ ^ ^ ^ ^ ^ ^ ^ ^ ^ ^ ^ ^ ^ ^ ^ a 9                 b       ",
"                      c 7 ^ ^ ^ ^ ^ ^ ^ ^ ^ ^ ^ ^ ^ ^ ^ ^ ^ ^ ^ ^ ^ ^ 8 d               )       ",
"                    * e ^ ^ ^ ^ ^ ^ ^ f g h i j 9 > k l ^ ^ ^ ^ ^ ^ ^ ^ m *             n       ",
"    o               p ^ ^ ^ ^ ^ ^ ^ q r               r s f ^ ^ ^ ^ ^ ^ ^ t                     ",
"                  ! u ^ ^ ^ ^ ^ ^ v                       w 3 ^ ^ ^ ^ ^ ^ u x                   ",
"                  y ^ ^ ^ ^ ^ ^ ^ z                         A ^ ^ ^ ^ ^ ^ ^ B                   ",
"                  C ^ ^ ^ ^ ^ ^ ^ ^ D E > F F ; G             H ^ ^ ^ ^ ^ ^ I         J         ",
"                K L ^ ^ ^ ^ ^ ^ ^ ^ ^ ^ ^ ^ ^ L M             N ^ ^ ^ ^ ^ ^ L K                 ",
"                O ^ ^ ^ ^ ^ ^ ^ ^ ^ ^ ] P Q R S               T ^ ^ ^ ^ ^ ^ ^ U                 ",
"                > ^ ^ ^ ^ ^ ^ ^ ^ ^ V K                       W ^ ^ ^ ^ ^ ^ ^ X                 ",
"                Y ^ ^ ^ ^ ^ ^ ^ ^ Z                           O ^ ^ ^ ^ ^ ^ ^ `                 ",
"                ` ^ ^ ^ ^ ^ ^ ^ ( o                            .^ ^ ^ ^ ^ ^ ^ 1                 ",
"                ..^ ^ ^ ^ ^ ^ ^ +.          @.3 3 #.          $.^ ^ ^ ^ ^ ^ ^ %.                ",
"                W ^ ^ ^ ^ ^ ^ ^ 2           &.^ a *.          =.^ ^ ^ ^ ^ ^ ^ -.                ",
"                ;.^ ^ ^ ^ ^ ^ ^ >.          r A ,.            '.^ ^ ^ ^ ^ ^ ^ ;.                ",
"                  ).^ ^ ^ ^ ^ ^ !.                            ~.^ ^ ^ ^ ^ ^ H     J             ",
"            J      .^ ^ ^ ^ ^ ^ e <                           {.^ ^ ^ ^ ^ ^ D     J             ",
"                  ) 7 ^ ^ ^ ^ ^ ^ ].:           r ^.=       /.(.^ ^ ^ ^ ^ 7 ;.                  ",
"                    _.^ ^ ^ ^ ^ ^ ^ 3 :.<.  [.}.|.^ 1.2.3.4.5.^ ^ ^ ^ ^ ^ 6.                    ",
"                    x l ^ ^ ^ ^ ^ ^ ^ ^ |.7.^ ^ ^ ^ ^ ^ ^ ^ ^ ^ ^ ^ ^ ^ 5.8.                    ",
"                      E L ^ ^ ^ ^ ^ ^ ^ ^ ^ ^ ^ ^ ^ ^ ^ ^ ^ ^ ^ ^ ^ ^ L E                       ",
"                        T ^ ^ ^ ^ ^ ^ ^ ^ ^ ^ ^ ^ ^ ^ ^ ^ ^ ^ ^ ^ ^ ^ y                         ",
"                          B L ^ ^ ^ ^ ^ ^ ^ ^ ^ ^ ^ ^ ^ ^ ^ ^ ^ ^ L F                           ",
"                            W (.^ ^ ^ ^ ^ ^ ^ ^ ^ ^ ^ ^ ^ ^ ^ ^ 5.-.                            ",
"                              K 9.] ^ ^ ^ ^ ^ ^ ^ ^ ^ ^ ^ ^ ] 0.S                               ",
"                                  a.q b.^ ^ ^ ^ ^ ^ ^ ^ c.d./.                                  ",
"                                        ^.0 Y d.d.Y 0 #.                                        ",
"                                                                                                ",
"                                                                                                ",
"                                                                                                ",
"                                                                                                ",
"                                                                                                "};
