/* XPM */
static const char * wmbiff_master_xpm[] = {
"160 109 15 1",
" 	c #00000000FFFF",
".	c #208120812081",
"X	c #FFFFFFFF0000",
"o	c #492441030000",
"O	c #79E779E70820",
"+	c #000000000000",
"@	c #C71BC30BC71B",
":	c #000049244103",
"$	c #2081B2CAAEBA",
"%	c #00007DF771C6",
"&	c #B6DA04101861",
"*	c #0000EBAD0000",
"=	c #28A23CF338E3",
"-	c #F7DEF3CEFFFF",
";	c #71C6E38D71C6",
"                                                                ................................................................................                ",
"                                                                ...XXX...oooO.OXXXO.OXXXO.OoooO.OXXXO.OXXXO.OXXXO.OXXXO.OXXXO...................                ",
"                                                                ..X...X.o...X.o...X.o...X.X...X.X...o.X...o.o...X.X...X.X...X............X......                ",
"                                                                ..X...X.o...X.o...X.o...X.X...X.X...o.X...o.o...X.X...X.X...X..X....X....X......                ",
"    ++++++++++++++++++++++++++++++++++++++++++++++++++++++++    ..OoooO..oooO.OXXXO..XXXO.OXXXO.OXXXO.OXXXO..oooO.oXXXo.OXXXO..O....O...X.......                ",
"    +......................................................@    ..X...X.o...X.X...o.o...X.o...X.o...X.X...X.o...X.X...X.o...X...........X.......                ",
"    +..:::...:::...:::...:::...:::.......:::...:::...:::...@    ..X...X.o...X.X...o.o...X.o...X.o...X.X...X.o...X.X...X.o...X..X....X..X........                ",
"    +.:...:.:...:.:...:.:...:.:...:.....:...:.:...:.:...:..@    ...XXX...oooX.OXXXO.OXXXO..oooO.OXXXO.OXXXO..oooO.OXXXO.OXXXO..O....O..X........                ",
"    +.:...:.:...:.:...:.:...:.:...:..:..:...:.:...:.:...:..@    ................................................................................                ",
"    +..:::...:::...:::...:::...:::...:...:::...:::...:::...@    .                                                                                               ",
"    +.:...:.:...:.:...:.:...:.:...:.....:...:.:...:.:...:..@    .                                                                                               ",
"    +.:...:.:...:.:...:.:...:.:...:..:..:...:.:...:.:...:..@    .                                                                                               ",
"    +..:::...:::...:::...:::...:::...:...:::...:::...:::...@    .                                                                                               ",
"    +......................................................@    .                                                                                               ",
"    +......................................................@    .                                                                                               ",
"    +......................................................@    .                                                                                               ",
"    +......................................................@    .                                                                                               ",
"    +..:::...:::...:::...:::...:::.......:::...:::...:::...@    .                                                                                               ",
"    +.:...:.:...:.:...:.:...:.:...:.....:...:.:...:.:...:..@    .                                                                                               ",
"    +.:...:.:...:.:...:.:...:.:...:..:..:...:.:...:.:...:..@    .                                                                                               ",
"    +..:::...:::...:::...:::...:::...:...:::...:::...:::...@    .                                                                                               ",
"    +.:...:.:...:.:...:.:...:.:...:.....:...:.:...:.:...:..@    .                                                                                               ",
"    +.:...:.:...:.:...:.:...:.:...:..:..:...:.:...:.:...:..@    .                                                                                               ",
"    +..:::...:::...:::...:::...:::...:...:::...:::...:::...@    .                                                                                               ",
"    +......................................................@    .                                                                                               ",
"    +......................................................@    .                                                                                               ",
"    +......................................................@    .                                                                                               ",
"    +......................................................@    .                                                                                               ",
"    +..:::...:::...:::...:::...:::.......:::...:::...:::...@    .                                                                                               ",
"    +.:...:.:...:.:...:.:...:.:...:.....:...:.:...:.:...:..@    .                                                                                               ",
"    +.:...:.:...:.:...:.:...:.:...:..:..:...:.:...:.:...:..@    .                                                                                               ",
"    +..:::...:::...:::...:::...:::...:...:::...:::...:::...@    .                                                                                               ",
"    +.:...:.:...:.:...:.:...:.:...:.....:...:.:...:.:...:..@    .                                                                                               ",
"    +.:...:.:...:.:...:.:...:.:...:..:..:...:.:...:.:...:..@    .                                                                                               ",
"    +..:::...:::...:::...:::...:::...:...:::...:::...:::...@    .                                                                                               ",
"    +......................................................@    .                                                                                               ",
"    +......................................................@    .                                                                                               ",
"    +......................................................@    .                                                                                               ",
"    +......................................................@    .                                                                                               ",
"    +..:::...:::...:::...:::...:::.......:::...:::...:::...@    .                                                                                               ",
"    +.:...:.:...:.:...:.:...:.:...:.....:...:.:...:.:...:..@    .                                                                                               ",
"    +.:...:.:...:.:...:.:...:.:...:..:..:...:.:...:.:...:..@    .                                                                                               ",
"    +..:::...:::...:::...:::...:::...:...:::...:::...:::...@    .                                                                                               ",
"    +.:...:.:...:.:...:.:...:.:...:.....:...:.:...:.:...:..@    .                                                                                               ",
"    +.:...:.:...:.:...:.:...:.:...:..:..:...:.:...:.:...:..@    .                                                                                               ",
"    +..:::...:::...:::...:::...:::...:...:::...:::...:::...@    .                                                                                               ",
"    +......................................................@    .                                                                                               ",
"    +......................................................@    .                                                                                               ",
"    +......................................................@    .                                                                                               ",
"    +......................................................@    .                                                                                               ",
"    +..:::...:::...:::...:::...:::.......:::...:::...:::...@    .                                                                                               ",
"    +.:...:.:...:.:...:.:...:.:...:.....:...:.:...:.:...:..@    .                                                                                               ",
"    +.:...:.:...:.:...:.:...:.:...:..:..:...:.:...:.:...:..@    .                                                                                               ",
"    +..:::...:::...:::...:::...:::...:...:::...:::...:::...@    .                                                                                               ",
"    +.:...:.:...:.:...:.:...:.:...:.....:...:.:...:.:...:..@    .                                                                                               ",
"    +.:...:.:...:.:...:.:...:.:...:..:..:...:.:...:.:...:..@    .                                                                                               ",
"    +..:::...:::...:::...:::...:::...:...:::...:::...:::...@    .                                                                                               ",
"    +......................................................@    .                                                                                               ",
"    +......................................................@    .                                                                                               ",
"    @@@@@@@@@@@@@@@@@@@@@@@@@@@@@@@@@@@@@@@@@@@@@@@@@@@@@@@@    .                                                                                               ",
"                                                                .                                                                                               ",
"                                                                .                                                                                               ",
"                                                                .                                                                                               ",
"                                                                .                                                                                               ",
"...............................................................................                                                                                 ",
"..$$$...:::%.%$$$%.%$$$%.%:::%.%$$$%.%$$$%.%$$$%.:$$$%.%$$$%...................                                                                                 ",
".$...$.:...$.:...$.:...$.$...$.$...:.$...:.:...$.$...$.$...$............$......  .&&.  .**.  .==.                                                               ",
".$...$.:...$.:...$.:...$.$...$.$...:.$...:.:...$.$...$.$...$..$....$....$......  &-&&  *-**  ====                                                               ",
".%:::%..:::%.%$$$%..$$$%.%$$$%.%$$$%.%$$$%..:::%.:$$$:.%$$$%..%....%...$.......  &&&&  ****  ====   .$:;                                                        ",
".$...$.:...$.$...:.:...$.:...$.:...$.$...$.:...$.$...$.:...$...........$.......  .&&.  .**.  .==.                                                               ",
".$...$.:...$.$...:.:...$.:...$.:...$.$...$.:...$.$...$.:...$..$....$..$........                                                                                 ",
"..$$$...:::$.%$$$%.%$$$%..:::%.%$$$%.%$$$%..:::%.%$$$:.%$$$%..%....%..$........                                                                                 ",
"...............................................................................                                                                                 ",
"                                                                                                                                                                ",
"................................................................................................................................................................",
".:$$$:.%$$$..%$$$%.%$$$..%$$$%.%$$$%.%$$$%.%:::%..:::%..:::%.%:::%.%:::..$:::$.%$$$..%$$$%.%$$$%.%$$$%.%$$$%.%$$$%.%$$$%.%:::%.%:::%.%:::%.%:::%.%:::%.%$$$%....",
".$...$.$...$.$...:.$...$.$...:.$...:.$...:.$...$.:...$.:...$.$...$.$...:.$$.$$.$...$.$...$.$...$.$...$.$...$.$...:.:.$.:.$...$.$...$.$...$.$...$.$...$.:...$....",
".$...$.$...$.$...:.$...$.$...:.$...:.$...:.$...$.:...$.:...$.$..$:.$...:.$.$.$.$...$.$...$.$...$.$...$.$...$.$...:.:.$.:.$...$.$...$.$...$.:$.$:.$...$.:..$:....",
".%$$$%.%$$$..%:::..%:::%.%$$$..%$$$..%:$$%.%$$$%..:::%..:::%.%$$:..%:::..%:::%.%:::%.%:::%.%$$$%.%$::%.%$$$..%$$$%..:%:..%:::%.%:::%.%:::%..:$:..%$$$%..:$:.....",
".$...$.$...$.$...:.$...$.$...:.$...:.$...$.$...$.:...$.:...$.$..$:.$...:.$...$.$...$.$...$.$...:.$.$.$.$...$.:...$.:.$.:.$...$.$...$.$.$.$.:$.$:.:...$.:$..:....",
".$...$.$...$.$...:.$...$.$...:.$...:.$...$.$...$.:...$.:...$.$...$.$...:.$...$.$...$.$...$.$...:.$..$$.$...$.:...$.:.$.:.$...$.$...$.$$.$$.$...$.:...$.$...:....",
".%:::%.%$$$..%$$$%.$$$$..%$$$%.$:::..%$$$%.%:::%..:::$.:$$$%.%:::%.%$$$:.%:::%.$:::$.%$$$%.%:::..%$$$%.%:::%.%$$$%..:%:..:$$$$..$$$..$:::$.%:::$.:$$$%.%$$$%....",
"................................................................................................................................................................",
"                                                                                                                                                                ",
"    +......................................................@    .                                                                                               ",
"     ..:::...:::...:::...:::...:::.......:::...:::...:::...                                                                                                     ",
"     .:...:.:...:.:...:.:...:.:...:.....:...:.:...:.:...:..                                                                                                     ",
"     .:...:.:...:.:...:.:...:.:...:..:..:...:.:...:.:...:..                                                                                                     ",
"     ..:::...:::...:::...:::...:::...:...:::...:::...:::...                                                                                                     ",
"     .:...:.:...:.:...:.:...:.:...:.....:...:.:...:.:...:..                                                                                                     ",
"     .:...:.:...:.:...:.:...:.:...:..:..:...:.:...:.:...:..                                                                                                     ",
"     ..:::...:::...:::...:::...:::...:...:::...:::...:::...                                                                                                     ",
"     ......................................................                                                                                                     ",
"     ......................................................                                                                                                     ",
"                                                                                                                                                                ",
"................................................................................................................................................................",
".oXXXo.OXXX..OXXXO.OXXX..OXXXO.OXXXO.OXXXO.OoooO..oooO..oooO.OoooO.Oooo..XoooX.OXXX..OXXXO.OXXXO.OXXXO.OXXXO.OXXXO.OXXXO.OoooO.OoooO.OoooO.OoooO.OoooO.OXXXO....",
".X...X.X...X.X...o.X...X.X...o.X...o.X...o.X...X.o...X.o...X.X...X.X...o.XX.XX.X...X.X...X.X...X.X...X.X...X.X...o.o.X.o.X...X.X...X.X...X.X...X.X...X.o...X....",
".X...X.X...X.X...o.X...X.X...o.X...o.X...o.X...X.o...X.o...X.X..Xo.X...o.X.X.X.X...X.X...X.X...X.X...X.X...X.X...o.o.X.o.X...X.X...X.X...X.oX.Xo.X...X.o..Xo....",
".OXXXO.OXXX..Oooo..OoooO.OXXX..OXXX..OoXXO.OXXXO..oooO..oooO.OXXo..Oooo..OoooO.OoooO.OoooO.OXXXO.OXooO.OXXX..OXXXO..oOo..OoooO.OoooO.OoooO..oXo..OXXXO..oXo.....",
".X...X.X...X.X...o.X...X.X...o.X...o.X...X.X...X.o...X.o...X.X..Xo.X...o.X...X.X...X.X...X.X...o.X.X.X.X...X.o...X.o.X.o.X...X.X...X.X.X.X.oX.Xo.o...X.oX..o....",
".X...X.X...X.X...o.X...X.X...o.X...o.X...X.X...X.o...X.o...X.X...X.X...o.X...X.X...X.X...X.X...o.X..XX.X...X.o...X.o.X.o.X...X.X...X.XX.XX.X...X.o...X.X...o....",
".OoooO.OXXX..OXXXO.XXXX..OXXXO.Xooo..OXXXO.OoooO..oooX.OXXXO.OoooO.OXXXo.OoooO.XoooX.OXXXO.Oooo..OXXXO.OoooO.OXXXO..oOo..oXXXX..XXX..XoooX.OoooX.oXXXO.OXXXO....",
"................................................................................................................................................................",
"                                                                                                                                                                ",
"                                                                                                                                                                ",
"                                                                                                                                                                ",
"                                                                                                                                                                ",
"                                                                                                                                                                ",
"                                                                                                                                                                "};
