/* XPM */
static char * charmap_medium_xpm[] = {
"96 54 5 1",
" 	c None",
".	c #282828",
"+	c #004941",
"@	c #20B2AE",
"#	c #188A86",
"................................................................................................",
"..+++...+++...+++...+++...+++...+++...+++...+++...@++...++@...+++...+++.........+++.........++##",
".+...+.+...+.+...+.+...+.+...+.+...+.+...+.+...+.@...+.+...@.+...+.+.@.+.......+...+.......+..@+",
".+...+.+...+.+...+.+...+.+...+.+...+.+...+.+...+.@...+.+...@.+...+.+.@.+.......+...+.......+.##+",
"..+++...+++...+++...+++...+++...+++...+++...+++..#+++...+++#..+++..#@@@#........#@@.........+@+.",
".+...+.+...+.+...+.+...+.+...+.+...+.+...+.+...+.@...+.+...@.+...+.+.@.+.......+...+.......+##.+",
".+...+.+...+.+...+.+...+.+...+.+...+.+...+.+...+.@...+.+...@.+...+.+.@.+....@..+...+.......+@..+",
"..+++...+++...+++...+++...+++...+++...+++...+++...@++...++@...+++...+++....##...+++...#@...##++.",
"................................................................................................",
"................................................................................................",
"..@@@...+++#.#@@@#.#@@@#.@+++@.#@@@#.#@@@#.#@@@#.#@@@#.#@@@#..............+++...+++...+++...+++.",
".@...@.+...@.+...@.+...@.@...@.@...+.@...+.+...@.@...@.@...@.............+...+.+...+.+...+.+...+",
".@...@.+...@.+...@.+...@.@...@.@...+.@...+.+...@.@...@.@...@..#@....#@...+...+.+...+.+...+.+...+",
".#+++#..+++#.#@@@#..@@@#.#@@@#.@@@@#.#@@@#..+++#.#@@@#.#@@@#..............+++...+++...+++...+++.",
".@...@.+...@.@...+.+...@.+...@.+...@.@...@.+...@.@...@.+...@.............+...+.+...+.+...+.+...+",
".@...@.+...@.@...+.+...@.+...@.+...@.@...@.+...@.@...@.+...@..#@.....@...+...+.+...+.+...+.+...+",
"..@@@...+++@.#@@@#.#@@@#..+++#.#@@@#.#@@@#..+++@.#@@@#.#@@@#........##....+++...+++...+++...+++.",
"................................................................................................",
"................................................................................................",
".+@@@+.+@@@+.#@@@...@@@#.#@@@..#@@@#.#@@@#.#@@@#.#+++#..@@@...+++#.#+++#.#+++..@+++@.#@@@..#@@@#",
".@...@.@...@.@...@.@...+.@...@.@...+.@...+.@...+.@...@.+.@.+.+...@.@...@.@...+.@@.@@.@...@.@...@",
".@...@.@...@.@...@.@...+.@...@.@...+.@...+.@...+.@...@.+.@.+.+...@.@..@..@...+.@.@.@.@...@.@...@",
".#+@@#.#@@@#.#@@@..#+++..#+++#.#@@@..#@@@..#+#@#.#@@@#..+#+...+++#.#@@...#+++..#+++#.#+++#.#+++#",
".@.@@+.@...@.@...@.@...+.@...@.@...+.@...+.@...@.@...@.+.@.+.+...@.@..@..@...+.@...@.@...@.@...@",
".@...+.@...@.@...@.@...+.@...@.@...+.@...+.@...@.@...@.+.@.+.@...@.@...@.@...+.@...@.@...@.@...@",
".#@@@#.#+++#.#@@@...@@@#.#@@@..#@@@#.#+++..#@@@#.#+++#..@@@..#@@@#.#+++#.#@@@#.#+++#.#+++#.#@@@#",
"................................................................................................",
"................................................................................................",
".#@@@#.#@@@#.#@@@#.#@@@#.#@@@#.#+++#.#+++#.#+++#.#+++#.#+++#.#@@@#.#@++..##++...++@#..+++...+++.",
".@...@.@...@.@...@.@...+.+.@.+.@...@.@...@.@...@.@...@.@...@.+...@.@...+.+@..+.+...@.+...+.+...+",
".@...@.@...@.@...@.@...+.+.@.+.@...@.@...@.@...@..@.@..@...@.+..@+.@...+.+##.+.+...@.+...+.+...+",
".#@@@#.#@++#.#@@@..#@@@#..+#+..#+++#.#+++#.#+++#...@...#@@@#..+@+..#+++...+@+...+++#..+++...+++.",
".@...+.@.@.@.@...@.+...@.+.@.+.@...@.@...@.@.@.@..@.@..+...@.+@..+.@...+.+.##+.+...@.+...+.+...+",
".@...+.@..@@.@...@.+...@.+.@.+.@...@.@...@.@@.@@.@...@.+...@.@...+.@...+.+..@+.+...@.+...+.+...+",
".#+++..#@@@#.#+++#.#@@@#..+#+..#@@@#..#@#..#+++#.#+++#.#@@@#.#@@@#.#@++...++##..++@#..+++..#@@@#",
"................................................................................................",
"................................................................................................",
"..+++..+@@@+.#@@@...@@@#.#@@@..#@@@#.#@@@#.#@@@#.#+++#..@@@...+++#.#+++#.#+++..@+++@.#@@@..#@@@#",
".+...+.@...@.@...@.@...+.@...@.@...+.@...+.@...+.@...@.+.@.+.+...@.@...@.@...+.@@.@@.@...@.@...@",
".+...+.@...@.@...@.@...+.@...@.@...+.@...+.@...+.@...@.+.@.+.+...@.@..@..@...+.@.@.@.@...@.@...@",
"..+++..#@@@#.#@@@..#+++..#+++#.#@@@..#@@@..#+#@#.#@@@#..+#+...+++#.#@@...#+++..#+++#.#+++#.#+++#",
".+...+.@...@.@...@.@...+.@...@.@...+.@...+.@...@.@...@.+.@.+.+...@.@..@..@...+.@...@.@...@.@...@",
".+...+.@...@.@...@.@...+.@...@.@...+.@...+.@...@.@...@.+.@.+.@...@.@...@.@...+.@...@.@...@.@...@",
"..+++..#+++#.#@@@...@@@#.#@@@..#@@@#.#+++..#@@@#.#+++#..@@@..#@@@#.#+++#.#@@@#.#+++#.#+++#.#@@@#",
"................................................................................................",
"................................................................................................",
".#@@@#.#@@@#.#@@@#.#@@@#.#@@@#.#+++#.#+++#.#+++#.#+++#.#+++#.#@@@#..++@...+#+...@++...+++..+@+..",
".@...@.@...@.@...@.@...+.+.@.+.@...@.@...@.@...@.@...@.@...@.+...@.+.@.+.+.@.+.+.@.+.+...+.@.@..",
".@...@.@...@.@...@.@...+.+.@.+.@...@.@...@.@...@..@.@..@...@.+..@+.+.@.+.+.@.+.+.@.+.+...+.+@+..",
".#@@@#.#@++#.#@@@..#@@@#..+#+..#+++#.#+++#.#+++#...@...#@@@#..+@+...@#+...+#+...+#@...+++.......",
".@...+.@.@.@.@...@.+...@.+.@.+.@...@.@...@.@.@.@..@.@..+...@.+@..+.+.@.+.+.@.+.+.@.+.+...+......",
".@...+.@..@@.@...@.+...@.+.@.+.@...@.@...@.@@.@@.@...@.+...@.@...+.+.@.+.+.@.+.+.@.+.+...+......",
".#+++..#@@@#.#+++#.#@@@#..+#+..#@@@#..#@#..#+++#.#+++#.#@@@#.#@@@#..++@...+#+...@++...+++.......",
"................................................................................................"};
