/* XPM */
static char * xbutton_xpm[] = {
"9 9 2 1",
".	c #AEAAAE",
"+	c #000000",
".........",
".++...++.",
".+++.+++.",
"..+++++..",
"...+++...",
"..+++++..",
".+++.+++.",
".++...++.",
"........."};
