/* XPM */
static char * parts_xpm[] = {
"100 31 4 1",
" 	c None",
".	c #8E968A s Back0",
"+	c #767C6F s High0",
"@	c #000000 s Fore0",
"....................................................................................................",
"....................................................................................................",
"....................................................................................................",
"....................................................................................................",
"....................................................................................................",
".....+++...+++.......+++...+++.......+++...+++.......@@@...@@@......................................",
"....+.........+.....+.........+.....+.........+.....@.........@.....................................",
"...+..++...++..+...+..++...++..+...+..@@...@@..+...@..@@...@@..@....................................",
"..+..+.......+..+.+..+.......+..+.+..@.......@..+.@..@.......@..@...................................",
"..+.+..+...+..+.+.+.+..@...@..+.+.+.@..@...@..@.+.@.@..@...@..@.@...................................",
"..+.+.+.....+.+.+.+.+.@.....@.+.+.+.@.@.....@.@.+.@.@.@.....@.@.@...................................",
"..+.+.+.@@@.+.+.+.+.+.@.@@@.@.+.+.+.@.@.@@@.@.@.+.@.@.@.@@@.@.@.@...................................",
"..+.+.+.@@@.+.+.+.+.+.@.@@@.@.+.+.+.@.@.@@@.@.@.+.@.@.@.@@@.@.@.@...................................",
"..+.+.+..@..+.+.+.+.+.@..@..@.+.+.+.@.@..@..@.@.+.@.@.@..@..@.@.@...................................",
"..+.+..+.@.+..+.+.+.+..@.@.@..+.+.+.@..@.@.@..@.+.@.@..@.@.@..@.@...................................",
"..+..+...@...+..+.+..+...@...+..+.+..@...@...@..+.@..@...@...@..@...................................",
"...+..++.@.++..+...+..++.@.++..+...+..@@.@.@@..+...@..@@.@.@@..@....................................",
"....+....@....+.....+....@....+.....+....@....+.....@....@....@.....................................",
".....+++.@.+++.......+++.@.+++.......+++.@.+++.......@@@.@.@@@......................................",
".........@...............@...............@...............@..........................................",
".........@...............@...............@...............@..........................................",
".........@...............@...............@...............@..........................................",
".........@...............@...............@...............@................@@........................",
".........@...............@...............@...............@................@@........................",
".........@...............@...............@...............@................@@........................",
".........@...............@...............@...............@................@@........................",
".........@...............@...............@...............@................@@........................",
"........@@@.............@@@.............@@@.............@@@...........@@..@@........................",
"........@@@.............@@@.............@@@.............@@@...........@@..@@........................",
"....................................................................................................",
"...................................................................................................."};
