/* XPM */
static char * fire_xpm[] = {
"102 71 205 2",
"  	c None",
". 	c #AA0000",
"+ 	c #FFE299",
"@ 	c #FFDD6F",
"# 	c #FEDC6E",
"$ 	c #FEDB6D",
"% 	c #FEDA6C",
"& 	c #FDD96B",
"* 	c #FDD86A",
"= 	c #FDD769",
"- 	c #FDD667",
"; 	c #FCD666",
"> 	c #FCD565",
", 	c #FCD464",
"' 	c #FCD363",
") 	c #FBD262",
"! 	c #FBD161",
"~ 	c #FBD15F",
"{ 	c #FBD05E",
"] 	c #FACF5D",
"^ 	c #FACE5C",
"/ 	c #FACD5B",
"( 	c #F9CC5A",
"_ 	c #F9CB59",
": 	c #F9CB57",
"< 	c #F9CA56",
"[ 	c #F8C955",
"} 	c #F8C854",
"| 	c #F8C753",
"1 	c #F8C652",
"2 	c #F7C551",
"3 	c #F7C44F",
"4 	c #F7C44E",
"5 	c #F7C34D",
"6 	c #F6C24C",
"7 	c #F6C14B",
"8 	c #F6C04A",
"9 	c #F5BF49",
"0 	c #F5BF47",
"a 	c #F5BE46",
"b 	c #F5BD45",
"c 	c #F4BC44",
"d 	c #F4BB43",
"e 	c #F4BA42",
"f 	c #F4B941",
"g 	c #F3B93F",
"h 	c #F3B83E",
"i 	c #F3B73D",
"j 	c #F3B63C",
"k 	c #F2B53B",
"l 	c #F2B43A",
"m 	c #F2B339",
"n 	c #E9B200",
"o 	c #E9B100",
"p 	c #E8AF00",
"q 	c #E8AD00",
"r 	c #E7AB00",
"s 	c #E6A900",
"t 	c #E6A800",
"u 	c #E5A600",
"v 	c #E4A400",
"w 	c #E4A200",
"x 	c #E3A000",
"y 	c #E29E00",
"z 	c #E29D00",
"A 	c #E19B00",
"B 	c #E09900",
"C 	c #E09700",
"D 	c #DF9500",
"E 	c #DE9300",
"F 	c #DE9200",
"G 	c #DD9000",
"H 	c #DC8E00",
"I 	c #DC8C00",
"J 	c #DB8A00",
"K 	c #DA8800",
"L 	c #DA8700",
"M 	c #D98500",
"N 	c #D98300",
"O 	c #D88100",
"P 	c #D77F00",
"Q 	c #D77E00",
"R 	c #D67C00",
"S 	c #D57A00",
"T 	c #D57800",
"U 	c #D47600",
"V 	c #D37400",
"W 	c #D37300",
"X 	c #D27100",
"Y 	c #D16F00",
"Z 	c #D16D00",
"` 	c #D06B00",
" .	c #CF6900",
"..	c #CF6800",
"+.	c #CE6600",
"@.	c #CD6400",
"#.	c #CD6200",
"$.	c #CC6000",
"%.	c #CB5E00",
"&.	c #CB5D00",
"*.	c #CA5B00",
"=.	c #F2B337",
"-.	c #CA5900",
";.	c #F7C550",
">.	c #F3B940",
",.	c #F1B236",
"'.	c #C95700",
").	c #F2B338",
"!.	c #F1B135",
"~.	c #C85500",
"{.	c #F1B034",
"].	c #C85400",
"^.	c #F0AF33",
"/.	c #C75200",
"(.	c #F0AE32",
"_.	c #C65000",
":.	c #F0AD31",
"<.	c #C64E00",
"[.	c #F0AC2F",
"}.	c #C54C00",
"|.	c #F0AD2F",
"1.	c #EFAC2E",
"2.	c #C44A00",
"3.	c #EFAB2D",
"4.	c #C44900",
"5.	c #EFAA2C",
"6.	c #C34700",
"7.	c #EFA92B",
"8.	c #C24500",
"9.	c #EEA82A",
"0.	c #C24300",
"a.	c #EEA729",
"b.	c #C14100",
"c.	c #EEA727",
"d.	c #C03F00",
"e.	c #EEA626",
"f.	c #C03E00",
"g.	c #EDA525",
"h.	c #BF3C00",
"i.	c #EEA728",
"j.	c #EDA424",
"k.	c #BE3A00",
"l.	c #EDA323",
"m.	c #BE3800",
"n.	c #ECA222",
"o.	c #BD3600",
"p.	c #ECA121",
"q.	c #BC3400",
"r.	c #ECA11F",
"s.	c #BC3300",
"t.	c #ECA120",
"u.	c #ECA01E",
"v.	c #BB3100",
"w.	c #EB9F1D",
"x.	c #BA2F00",
"y.	c #EB9E1C",
"z.	c #BA2D00",
"A.	c #EB9D1B",
"B.	c #B92B00",
"C.	c #EB9C1A",
"D.	c #B92A00",
"E.	c #EA9B19",
"F.	c #B82800",
"G.	c #EA9B17",
"H.	c #B72600",
"I.	c #EA9A16",
"J.	c #B72400",
"K.	c #EA9915",
"L.	c #B62200",
"M.	c #E99814",
"N.	c #B52000",
"O.	c #E99713",
"P.	c #B51F00",
"Q.	c #E99612",
"R.	c #B41D00",
"S.	c #E89511",
"T.	c #B31B00",
"U.	c #E89510",
"V.	c #B31900",
"W.	c #E8940F",
"X.	c #E8940E",
"Y.	c #B21700",
"Z.	c #E8930D",
"`.	c #B11500",
" +	c #E7920C",
".+	c #B11400",
"++	c #E7910B",
"@+	c #B01200",
"#+	c #E7900A",
"$+	c #AF1000",
"%+	c #E78F09",
"&+	c #AF0E00",
"*+	c #E68F07",
"=+	c #AE0C00",
"-+	c #E68E06",
";+	c #AD0A00",
">+	c #E68D05",
",+	c #AD0900",
"'+	c #E68C04",
")+	c #AC0700",
"!+	c #E58B03",
"~+	c #AB0500",
"{+	c #E58A02",
"]+	c #AB0300",
"^+	c #840000",
". . . . . . . . . . . . . . . . . . . . . . . . . . . . . . . . . . . . . . . . . . . . . . . . . . + + + + + + + + + + + + + + + + + + + + + + + + + + + + + + + + + + + + + + + + + + + + + + + + + + + + ",
". @ # $ % & * = - ; > , ' ) ! ~ { ] ^ / ( _ : < [ } | 1 2 3 4 5 6 7 8 9 0 a b c d e f g h i j k l m + + n o p q r s t u v w x y z A B C D E F G H I J K L M N O P Q R S T U V W X Y Z `  ...+.@.#.$.%.&.*.. ",
". # $ % & * = - ; > , ' ) ! ~ { ] ^ / ( _ : < [ } | 1 2 3 4 5 6 7 8 9 0 a b c d e f g h i j k l m =.+ + o p q r s t u v w x y z A B C D E F G H I J K L M N O P Q R S T U V W X Y Z `  ...+.@.#.$.%.&.*.-.. ",
". $ % & * = - ; > , ' ) ! ~ { ] ^ / ( _ : < [ } | 1 2 ;.4 5 6 7 8 9 0 a b c d e f >.h i j k l m =.,.+ + p q r s t u v w x y z A B C D E F G H I J K L M N O P Q R S T U V W X Y Z `  ...+.@.#.$.%.&.*.-.'.. ",
". % & * = - ; > , ' ) ! ~ { ] ^ / ( _ : < [ } | 1 2 ;.4 5 6 7 8 9 0 a b c d e f >.h i j k l m ).,.!.+ + q r s t u v w x y z A B C D E F G H I J K L M N O P Q R S T U V W X Y Z `  ...+.@.#.$.%.&.*.-.'.~.. ",
". & * = - ; > , ' ) ! ~ { ] ^ / ( _ : < [ } | 1 2 3 4 5 6 7 8 9 0 a b c d e f g h i j k l m =.,.!.{.+ + r s t u v w x y z A B C D E F G H I J K L M N O P Q R S T U V W X Y Z `  ...+.@.#.$.%.&.*.-.'.~.].. ",
". * = - ; > , ' ) ! ~ { ] ^ / ( _ : < [ } | 1 2 3 4 5 6 7 8 9 0 a b c d e f g h i j k l m =.,.!.{.^.+ + s t u v w x y z A B C D E F G H I J K L M N O P Q R S T U V W X Y Z `  ...+.@.#.$.%.&.*.-.'.~.]./.. ",
". = - ; > , ' ) ! ~ { ] ^ / ( _ : < [ } | 1 2 3 4 5 6 7 8 9 0 a b c d e f g h i j k l m =.,.!.{.^.(.+ + t u v w x y z A B C D E F G H I J K L M N O P Q R S T U V W X Y Z `  ...+.@.#.$.%.&.*.-.'.~.]./._.. ",
". - ; > , ' ) ! ~ { ] ^ / ( _ : < [ } | 1 2 3 4 5 6 7 8 9 0 a b c d e f g h i j k l m =.,.!.{.^.(.:.+ + u v w x y z A B C D E F G H I J K L M N O P Q R S T U V W X Y Z `  ...+.@.#.$.%.&.*.-.'.~.]./._.<.. ",
". ; > , ' ) ! ~ { ] ^ / ( _ : < [ } | 1 2 3 4 5 6 7 8 9 0 a b c d e f g h i j k l m =.,.!.{.^.(.:.[.+ + v w x y z A B C D E F G H I J K L M N O P Q R S T U V W X Y Z `  ...+.@.#.$.%.&.*.-.'.~.]./._.<.}.. ",
". > , ' ) ! ~ { ] ^ / ( _ : < [ } | 1 2 3 4 5 6 7 8 9 0 a b c d e f g h i j k l m =.,.!.{.^.(.:.|.1.+ + w x y z A B C D E F G H I J K L M N O P Q R S T U V W X Y Z `  ...+.@.#.$.%.&.*.-.'.~.]./._.<.}.2.. ",
". , ' ) ! ~ { ] ^ / ( _ : < [ } | 1 2 ;.4 5 6 7 8 9 0 a b c d e f >.h i j k l m =.,.!.{.^.(.:.|.1.3.+ + x y z A B C D E F G H I J K L M N O P Q R S T U V W X Y Z `  ...+.@.#.$.%.&.*.-.'.~.]./._.<.}.2.4.. ",
". ' ) ! ~ { ] ^ / ( _ : < [ } | 1 2 3 4 5 6 7 8 9 0 a b c d e f g h i j k l m =.,.!.{.^.(.:.|.1.3.5.+ + y z A B C D E F G H I J K L M N O P Q R S T U V W X Y Z `  ...+.@.#.$.%.&.*.-.'.~.]./._.<.}.2.4.6.. ",
". ) ! ~ { ] ^ / ( _ : < [ } | 1 2 3 4 5 6 7 8 9 0 a b c d e f g h i j k l m =.,.!.{.^.(.:.|.1.3.5.7.+ + z A B C D E F G H I J K L M N O P Q R S T U V W X Y Z `  ...+.@.#.$.%.&.*.-.'.~.]./._.<.}.2.4.6.8.. ",
". ! ~ { ] ^ / ( _ : < [ } | 1 2 ;.4 5 6 7 8 9 0 a b c d e f >.h i j k l m =.,.!.{.^.(.:.|.1.3.5.7.9.+ + A B C D E F G H I J K L M N O P Q R S T U V W X Y Z `  ...+.@.#.$.%.&.*.-.'.~.]./._.<.}.2.4.6.8.0.. ",
". ~ { ] ^ / ( _ : < [ } | 1 2 3 4 5 6 7 8 9 0 a b c d e f g h i j k l m =.,.!.{.^.(.:.|.1.3.5.7.9.a.+ + B C D E F G H I J K L M N O P Q R S T U V W X Y Z `  ...+.@.#.$.%.&.*.-.'.~.]./._.<.}.2.4.6.8.0.b.. ",
". { ] ^ / ( _ : < [ } | 1 2 ;.4 5 6 7 8 9 0 a b c d e f g h i j k l m =.,.!.{.^.(.:.|.1.3.5.7.9.a.c.+ + C D E F G H I J K L M N O P Q R S T U V W X Y Z `  ...+.@.#.$.%.&.*.-.'.~.]./._.<.}.2.4.6.8.0.b.d.. ",
". ] ^ / ( _ : < [ } | 1 2 3 4 5 6 7 8 9 0 a b c d e f g h i j k l m =.,.!.{.^.(.:.|.1.3.5.7.9.a.c.e.+ + D E F G H I J K L M N O P Q R S T U V W X Y Z `  ...+.@.#.$.%.&.*.-.'.~.]./._.<.}.2.4.6.8.0.b.d.f.. ",
". ^ / ( _ : < [ } | 1 2 3 4 5 6 7 8 9 0 a b c d e f g h i j k l m =.,.!.{.^.(.:.|.1.3.5.7.9.a.c.e.g.+ + E F G H I J K L M N O P Q R S T U V W X Y Z `  ...+.@.#.$.%.&.*.-.'.~.]./._.<.}.2.4.6.8.0.b.d.f.h.. ",
". / ( _ : < [ } | 1 2 ;.4 5 6 7 8 9 0 a b c d e f g h i j k l m =.,.!.{.^.(.:.|.1.3.5.7.9.a.i.e.g.j.+ + F G H I J K L M N O P Q R S T U V W X Y Z `  ...+.@.#.$.%.&.*.-.'.~.]./._.<.}.2.4.6.8.0.b.d.f.h.k.. ",
". ( _ : < [ } | 1 2 3 4 5 6 7 8 9 0 a b c d e f g h i j k l m =.,.!.{.^.(.:.|.1.3.5.7.9.a.c.e.g.j.l.+ + G H I J K L M N O P Q R S T U V W X Y Z `  ...+.@.#.$.%.&.*.-.'.~.]./._.<.}.2.4.6.8.0.b.d.f.h.k.m.. ",
". _ : < [ } | 1 2 3 4 5 6 7 8 9 0 a b c d e f g h i j k l m =.,.!.{.^.(.:.|.1.3.5.7.9.a.c.e.g.j.l.n.+ + H I J K L M N O P Q R S T U V W X Y Z `  ...+.@.#.$.%.&.*.-.'.~.]./._.<.}.2.4.6.8.0.b.d.f.h.k.m.o.. ",
". : < [ } | 1 2 3 4 5 6 7 8 9 0 a b c d e f g h i j k l m =.,.!.{.^.(.:.[.1.3.5.7.9.a.c.e.g.j.l.n.p.+ + I J K L M N O P Q R S T U V W X Y Z `  ...+.@.#.$.%.&.*.-.'.~.]./._.<.}.2.4.6.8.0.b.d.f.h.k.m.o.q.. ",
". < [ } | 1 2 3 4 5 6 7 8 9 0 a b c d e f g h i j k l m =.,.!.{.^.(.:.|.1.3.5.7.9.a.c.e.g.j.l.n.p.r.+ + J K L M N O P Q R S T U V W X Y Z `  ...+.@.#.$.%.&.*.-.'.~.]./._.<.}.2.4.6.8.0.b.d.f.h.k.m.o.q.s.. ",
". [ } | 1 2 3 4 5 6 7 8 9 0 a b c d e f g h i j k l m =.,.!.{.^.(.:.|.1.3.5.7.9.a.i.e.g.j.l.n.p.t.u.+ + K L M N O P Q R S T U V W X Y Z `  ...+.@.#.$.%.&.*.-.'.~.]./._.<.}.2.4.6.8.0.b.d.f.h.k.m.o.q.s.v.. ",
". } | 1 2 3 4 5 6 7 8 9 0 a b c d e f g h i j k l m =.,.!.{.^.(.:.|.1.3.5.7.9.a.c.e.g.j.l.n.p.r.u.w.+ + L M N O P Q R S T U V W X Y Z `  ...+.@.#.$.%.&.*.-.'.~.]./._.<.}.2.4.6.8.0.b.d.f.h.k.m.o.q.s.v.x.. ",
". | 1 2 ;.4 5 6 7 8 9 0 a b c d e f g h i j k l m =.,.!.{.^.(.:.|.1.3.5.7.9.a.c.e.g.j.l.n.p.r.u.w.y.+ + M N O P Q R S T U V W X Y Z `  ...+.@.#.$.%.&.*.-.'.~.]./._.<.}.2.4.6.8.0.b.d.f.h.k.m.o.q.s.v.x.z.. ",
". 1 2 ;.4 5 6 7 8 9 0 a b c d e f g h i j k l m =.,.!.{.^.(.:.|.1.3.5.7.9.a.i.e.g.j.l.n.p.t.u.w.y.A.+ + N O P Q R S T U V W X Y Z `  ...+.@.#.$.%.&.*.-.'.~.]./._.<.}.2.4.6.8.0.b.d.f.h.k.m.o.q.s.v.x.z.B.. ",
". 2 3 4 5 6 7 8 9 0 a b c d e f g h i j k l m =.,.!.{.^.(.:.|.1.3.5.7.9.a.c.e.g.j.l.n.p.r.u.w.y.A.C.+ + O P Q R S T U V W X Y Z `  ...+.@.#.$.%.&.*.-.'.~.]./._.<.}.2.4.6.8.0.b.d.f.h.k.m.o.q.s.v.x.z.B.D.. ",
". 3 4 5 6 7 8 9 0 a b c d e f g h i j k l m =.,.!.{.^.(.:.|.1.3.5.7.9.a.c.e.g.j.l.n.p.r.u.w.y.A.C.E.+ + P Q R S T U V W X Y Z `  ...+.@.#.$.%.&.*.-.'.~.]./._.<.}.2.4.6.8.0.b.d.f.h.k.m.o.q.s.v.x.z.B.D.F.. ",
". 4 5 6 7 8 9 0 a b c d e f >.h i j k l m =.,.!.{.^.(.:.|.1.3.5.7.9.a.c.e.g.j.l.n.p.r.u.w.y.A.C.E.G.+ + Q R S T U V W X Y Z `  ...+.@.#.$.%.&.*.-.'.~.]./._.<.}.2.4.6.8.0.b.d.f.h.k.m.o.q.s.v.x.z.B.D.F.H.. ",
". 5 6 7 8 9 0 a b c d e f g h i j k l m =.,.!.{.^.(.:.|.1.3.5.7.9.a.c.e.g.j.l.n.p.r.u.w.y.A.C.E.G.I.+ + R S T U V W X Y Z `  ...+.@.#.$.%.&.*.-.'.~.]./._.<.}.2.4.6.8.0.b.d.f.h.k.m.o.q.s.v.x.z.B.D.F.H.J.. ",
". 6 7 8 9 0 a b c d e f g h i j k l m =.,.!.{.^.(.:.|.1.3.5.7.9.a.i.e.g.j.l.n.p.t.u.w.y.A.C.E.G.I.K.+ + S T U V W X Y Z `  ...+.@.#.$.%.&.*.-.'.~.]./._.<.}.2.4.6.8.0.b.d.f.h.k.m.o.q.s.v.x.z.B.D.F.H.J.L.. ",
". 7 8 9 0 a b c d e f >.h i j k l m =.,.!.{.^.(.:.|.1.3.5.7.9.a.i.e.g.j.l.n.p.r.u.w.y.A.C.E.G.I.K.M.+ + T U V W X Y Z `  ...+.@.#.$.%.&.*.-.'.~.]./._.<.}.2.4.6.8.0.b.d.f.h.k.m.o.q.s.v.x.z.B.D.F.H.J.L.N.. ",
". 8 9 0 a b c d e f g h i j k l m =.,.!.{.^.(.:.|.1.3.5.7.9.a.c.e.g.j.l.n.p.r.u.w.y.A.C.E.G.I.K.M.O.+ + U V W X Y Z `  ...+.@.#.$.%.&.*.-.'.~.]./._.<.}.2.4.6.8.0.b.d.f.h.k.m.o.q.s.v.x.z.B.D.F.H.J.L.N.P.. ",
". 9 0 a b c d e f g h i j k l m =.,.!.{.^.(.:.|.1.3.5.7.9.a.c.e.g.j.l.n.p.r.u.w.y.A.C.E.G.I.K.M.O.Q.+ + V W X Y Z `  ...+.@.#.$.%.&.*.-.'.~.]./._.<.}.2.4.6.8.0.b.d.f.h.k.m.o.q.s.v.x.z.B.D.F.H.J.L.N.P.R.. ",
". 0 a b c d e f g h i j k l m =.,.!.{.^.(.:.[.1.3.5.7.9.a.c.e.g.j.l.n.p.r.u.w.y.A.C.E.G.I.K.M.O.Q.S.+ + W X Y Z `  ...+.@.#.$.%.&.*.-.'.~.]./._.<.}.2.4.6.8.0.b.d.f.h.k.m.o.q.s.v.x.z.B.D.F.H.J.L.N.P.R.T.. ",
". a b c d e f g h i j k l m =.,.!.{.^.(.:.|.1.3.5.7.9.a.c.e.g.j.l.n.p.r.u.w.y.A.C.E.G.I.K.M.O.Q.S.U.+ + X Y Z `  ...+.@.#.$.%.&.*.-.'.~.]./._.<.}.2.4.6.8.0.b.d.f.h.k.m.o.q.s.v.x.z.B.D.F.H.J.L.N.P.R.T.V.. ",
". b c d e f g h i j k l m =.,.!.{.^.(.:.|.1.3.5.7.9.a.i.e.g.j.l.n.p.r.u.w.y.A.C.E.G.I.K.M.O.Q.S.W.X.+ + Y Z `  ...+.@.#.$.%.&.*.-.'.~.]./._.<.}.2.4.6.8.0.b.d.f.h.k.m.o.q.s.v.x.z.B.D.F.H.J.L.N.P.R.T.V.Y.. ",
". c d e f g h i j k l m =.,.!.{.^.(.:.|.1.3.5.7.9.a.c.e.g.j.l.n.p.r.u.w.y.A.C.E.G.I.K.M.O.Q.S.W.X.Z.+ + Z `  ...+.@.#.$.%.&.*.-.'.~.]./._.<.}.2.4.6.8.0.b.d.f.h.k.m.o.q.s.v.x.z.B.D.F.H.J.L.N.P.R.T.V.Y.`.. ",
". d e f >.h i j k l m =.,.!.{.^.(.:.|.1.3.5.7.9.a.c.e.g.j.l.n.p.t.u.w.y.A.C.E.G.I.K.M.O.Q.S.W.X.Z. ++ + `  ...+.@.#.$.%.&.*.-.'.~.]./._.<.}.2.4.6.8.0.b.d.f.h.k.m.o.q.s.v.x.z.B.D.F.H.J.L.N.P.R.T.V.Y.`..+. ",
". e f >.h i j k l m =.,.!.{.^.(.:.|.1.3.5.7.9.a.i.e.g.j.l.n.p.r.u.w.y.A.C.E.G.I.K.M.O.Q.S.U.X.Z. ++++ +  ...+.@.#.$.%.&.*.-.'.~.]./._.<.}.2.4.6.8.0.b.d.f.h.k.m.o.q.s.v.x.z.B.D.F.H.J.L.N.P.R.T.V.Y.`..+@+. ",
". f g h i j k l m =.,.!.{.^.(.:.|.1.3.5.7.9.a.c.e.g.j.l.n.p.r.u.w.y.A.C.E.G.I.K.M.O.Q.S.W.X.Z. +++#++ + ..+.@.#.$.%.&.*.-.'.~.]./._.<.}.2.4.6.8.0.b.d.f.h.k.m.o.q.s.v.x.z.B.D.F.H.J.L.N.P.R.T.V.Y.`..+@+$+. ",
". g h i j k l m =.,.!.{.^.(.:.|.1.3.5.7.9.a.c.e.g.j.l.n.p.r.u.w.y.A.C.E.G.I.K.M.O.Q.S.W.X.Z. +++#+%++ + +.@.#.$.%.&.*.-.'.~.]./._.<.}.2.4.6.8.0.b.d.f.h.k.m.o.q.s.v.x.z.B.D.F.H.J.L.N.P.R.T.V.Y.`..+@+$+&+. ",
". h i j k l m =.,.!.{.^.(.:.|.1.3.5.7.9.a.c.e.g.j.l.n.p.r.u.w.y.A.C.E.G.I.K.M.O.Q.S.W.X.Z. +++#+%+*++ + @.#.$.%.&.*.-.'.~.]./._.<.}.2.4.6.8.0.b.d.f.h.k.m.o.q.s.v.x.z.B.D.F.H.J.L.N.P.R.T.V.Y.`..+@+$+&+=+. ",
". i j k l m =.,.!.{.^.(.:.|.1.3.5.7.9.a.c.e.g.j.l.n.p.t.u.w.y.A.C.E.G.I.K.M.O.Q.S.U.X.Z. +++#+%+*+-++ + #.$.%.&.*.-.'.~.]./._.<.}.2.4.6.8.0.b.d.f.h.k.m.o.q.s.v.x.z.B.D.F.H.J.L.N.P.R.T.V.Y.`..+@+$+&+=+;+. ",
". j k l m =.,.!.{.^.(.:.|.1.3.5.7.9.a.i.e.g.j.l.n.p.r.u.w.y.A.C.E.G.I.K.M.O.Q.S.W.X.Z. +++#+%+*+-+>++ + $.%.&.*.-.'.~.]./._.<.}.2.4.6.8.0.b.d.f.h.k.m.o.q.s.v.x.z.B.D.F.H.J.L.N.P.R.T.V.Y.`..+@+$+&+=+;+,+. ",
". k l m ).,.!.{.^.(.:.|.1.3.5.7.9.a.c.e.g.j.l.n.p.r.u.w.y.A.C.E.G.I.K.M.O.Q.S.W.X.Z. +++#+%+*+-+>+'++ + %.&.*.-.'.~.]./._.<.}.2.4.6.8.0.b.d.f.h.k.m.o.q.s.v.x.z.B.D.F.H.J.L.N.P.R.T.V.Y.`..+@+$+&+=+;+,+)+. ",
". l m =.,.!.{.^.(.:.|.1.3.5.7.9.a.c.e.g.j.l.n.p.t.u.w.y.A.C.E.G.I.K.M.O.Q.S.W.X.Z. +++#+%+*+-+>+'+!++ + &.*.-.'.~.]./._.<.}.2.4.6.8.0.b.d.f.h.k.m.o.q.s.v.x.z.B.D.F.H.J.L.N.P.R.T.V.Y.`..+@+$+&+=+;+,+)+~+. ",
". m =.,.!.{.^.(.:.[.1.3.5.7.9.a.c.e.g.j.l.n.p.r.u.w.y.A.C.E.G.I.K.M.O.Q.S.U.X.Z. +++#+%+*+-+>+'+!+{++ + *.-.'.~.]./._.<.}.2.4.6.8.0.b.d.f.h.k.m.o.q.s.v.x.z.B.D.F.H.J.L.N.P.R.T.V.Y.`..+@+$+&+=+;+,+)+~+]+. ",
"+ + + + + + + + + + + + + + + + + + + + + + + + + + + + + + + + + + + + + + + + + + + + + + + + + + + + . . . . . . . . . . . . . . . . . . . . . . . . . . . . . . . . . . . . . . . . . . . . . . . . . . ",
"                                                                                                                                                                                                            ",
"                                                                                                                                                                                                            ",
"        ^+^+              ^+^+^+              ^+^+^+                    ^+            ^+^+^+^+              ^+^+^+            ^+^+^+^+              ^+^+                ^+^+                                ",
"          ^+/               / / ^+              / / ^+                ^+^+/           ^+/ / / /           ^+  / / /             / / ^+/           ^+  / ^+            ^+  / ^+                              ",
"          ^+/                   ^+/             ^+^+  /             ^+/ ^+/           ^+^+^+              ^+^+^+                  ^+  /             ^+^+  /           ^+/   ^+/                             ",
"          ^+/                 ^+  /               / ^+            ^+^+^+^+^+            / / ^+            ^+/ / ^+                ^+/             ^+  / ^+              ^+^+^+/                             ",
"          ^+/               ^+  /                   ^+/             / / ^+/ /         ^+    ^+/           ^+/   ^+/               ^+/             ^+/   ^+/               ^+/ /                             ",
"      ^+^+^+^+/           ^+^+^+^+            ^+^+^+  /               ^+^+^+            ^+^+  /             ^+^+  /               ^+/               ^+^+  /           ^+^+  /                               ",
"      / / / / /             / / / /             / / /                   / / /             / /                 / /                   /                 / /               / /                                 ",
"                                                                                                                                                                                                            ",
"                                                                                                                                                                                                            ",
"                                                                                                                                                                                                            ",
"        ^+^+              ^+^+^+              ^+^+^+                    ^+            ^+^+^+^+              ^+^+^+            ^+^+^+^+              ^+^+                ^+^+                                ",
"          ^+{+              {+{+^+              {+{+^+                ^+^+{+          ^+{+{+{+{+          ^+  {+{+{+            {+{+^+{+          ^+  {+^+            ^+  {+^+                              ",
"          ^+{+                  ^+{+            ^+^+  {+            ^+{+^+{+          ^+^+^+              ^+^+^+                  ^+  {+            ^+^+  {+          ^+{+  ^+{+                            ",
"          ^+{+                ^+  {+              {+^+            ^+^+^+^+^+            {+{+^+            ^+{+{+^+                ^+{+            ^+  {+^+              ^+^+^+{+                            ",
"          ^+{+              ^+  {+                  ^+{+            {+{+^+{+{+        ^+    ^+{+          ^+{+  ^+{+              ^+{+            ^+{+  ^+{+              ^+{+{+                            ",
"      ^+^+^+^+{+          ^+^+^+^+            ^+^+^+  {+              ^+^+^+            ^+^+  {+            ^+^+  {+              ^+{+              ^+^+  {+          ^+^+  {+                              ",
"      {+{+{+{+{+            {+{+{+{+            {+{+{+                  {+{+{+            {+{+                {+{+                  {+                {+{+              {+{+                                ",
"                                                                                                                                                                                                            "};
