/* XPM */
static char * backlight_on_xpm[] = {
"58 58 10 1",
" 	c None",
".	c #020202",
"+	c #0A0A0A",
"@	c #484C46 s Back1",
"#	c #DEDEDE",
"$	c #779866",
"%	c #6EC63B s Back0",
"&	c #2E4C17 s Back1",
"*	c #6CB237 s Back1",
"=	c #3E463E",
"  ......................................................  ",
" .%%%%%%%%%%%%%%%%%%%%%%%%%%%%%%%%%%%%%%%%%%%%%%%%%%%%%%. ",
".%%%%%%%%%%%%%%%%%%%%%%%%%%%%%%%%%%%%%%%%%%%%%%%%%%%%%%%%#",
".%%%%%%%%%%%%%%%%%%%%%%%%%%%%%%%%%%%%%%%%%%%%%%%%%%%%%%%%#",
".%%%%%%%%%%%%%%%%%%%%%%%%%%%%%%%%%%%%%%%%%%%%%%%%%%%%%%%%#",
".%%%%%%%%%%%%%%%%%%%%%%%%%%%%%%%%%%%%%%%%%%%%%%%%&&%&&%%%#",
".%%%%%%%%%%%%%%%%%%%%%%%%%%%%%%%%%%%%%%%%%%%%%%%%&&&&&%%%#",
".%%%%%%******%%%%%%******%%%%%%******%%%%%%%%%%%%&%&%&%%%#",
".%%%%*%%****%%*%%*%%****%%*%%*%%****%%*%%%%%%%%%%&%%%&%%%#",
".%%%%**%%%%%%**%%**%%%%%%**%%**%%%%%%**%%%%%%%%%%%%%%%%%%#",
".%%%%**%%%%%%**%%**%%%%%%**%%**%%%%%%**%%%%%%%%%%&&&&&%%%#",
".%%%%**%%%%%%**%%**%%%%%%**%%**%%%%%%**%%%%%%%%%%&%%%%%%%#",
".%%%%**%%%%%%**%%**%%%%%%**%%**%%%%%%**%%%%%%%%%%&&&%%%%%#",
".%%%%**%%%%%%**%%**%%%%%%**%%**%%%%%%**%%%%%%%%%%&%%%%%%%#",
".%%%%**%%%%%%**%%**%%%%%%**%%**%%%%%%**%%%%%%%%%%&&&&&%%%#",
".%%%%**%%%%%%**%%**%%%%%%**%%**%%%%%%**%%%%%%%%%%%%%%%%%%#",
".%%%%*%%****%%*%%*%%****%%*%%*%%****%%*%%%%%%%%%%&&%&&%%%#",
".%%%%%%******%%%%%%******%%%%%%******%%%%%%%%%%%%&&&&&%%%#",
".%%%%*%%%%%%%%*%%*%%%%%%%%*%%*%%%%%%%%*%%%%%%%%%%&%&%&%%%#",
".%%%%**%%%%%%**%%**%%%%%%**%%**%%%%%%**%%%%%%%%%%&%%%&%%%#",
".%%%%**%%%%%%**%%**%%%%%%**%%**%%%%%%**%%%%%%%%%%%%%%%%%%#",
".%%%%**%%%%%%**%%**%%%%%%**%%**%%%%%%**%%...%%%.%%%%%%%%%#",
".%%%%**%%%%%%**%%**%%%%%%**%%**%%%%%%**%%.%.%%.%%%%%%%%%%#",
".%%%%**%%%%%%**%%**%%%%%%**%%**%%%%%%**%%...%.%%%%%%%%%%%#",
".%%%%**%%%%%%**%%**%%%%%%**%%**%%%%%%**%%%%%.%...%%%%%%%%#",
".%%%%*%%****%%*%%*%%****%%*%%*%%****%%*%%%%.%%.%.%%%%%%%%#",
".%%%%%%******%%%%%%******%%%%%%******%%%%%.%%%...%%%%%%%%#",
".%%%%%%%%%%%%%%%%%%%%%%%%%%%%%%%%%%%%%%%%%%%%%%%%%%%%%%%%#",
".%%%%=================================================%%%#",
".%%%%=================================================*%%#",
".%%%%%*************************************************%%#",
".%%%%%%%%%%%%%%%%%%%%%%%%%%%%%%%%%%%%%%%%%%%%%%%%%%%%%%%%#",
".%%%%%%%%%%%%%%%%%%%%%%%%%%%%%%%%%%%%%%%%%%%%%%%%&&&&&%%%#",
".%%%%%%%%%%%%%%%%%%%%%%%%%%%%%%%%%%%%%%%%%%%%%%%%&%%%%%%%#",
".%%%%%%******%%%%%%******%%%%%%******%%%%%%%%%%%%&&&&&%%%#",
".%%%%*%%****%%*%%*%%****%%*%%*%%****%%*%%%%%%%%%%%%%%&%%%#",
".%%%%**%%%%%%**%%**%%%%%%**%%**%%%%%%**%%%%%%%%%%&&&&&%%%#",
".%%%%**%%%%%%**%%**%%%%%%**%%**%%%%%%**%%%%%%%%%%%%%%%%%%#",
".%%%%**%%%%%%**%%**%%%%%%**%%**%%%%%%**%%%%%%%%%%&%%%&%%%#",
".%%%%**%%%%%%**%%**%%%%%%**%%**%%%%%%**%%%%%%%%%%&%&%&%%%#",
".%%%%**%%%%%%**%%**%%%%%%**%%**%%%%%%**%%%%%%%%%%&&&&&%%%#",
".%%%%**%%%%%%**%%**%%%%%%**%%**%%%%%%**%%%%%%%%%%&&%&&%%%#",
".%%%%**%%%%%%**%%**%%%%%%**%%**%%%%%%**%%%%%%%%%%%%%%%%%%#",
".%%%%*%%****%%*%%*%%****%%*%%*%%****%%*%%%%%%%%%%&&&&&%%%#",
".%%%%%%******%%%%%%******%%%%%%******%%%%%%%%%%%%&%%%&%%%#",
".%%%%*%%%%%%%%*%%*%%%%%%%%*%%*%%%%%%%%*%%%%%%%%%%&&&&&%%%#",
".%%%%**%%%%%%**%%**%%%%%%**%%**%%%%%%**%%%%%%%%%%&%%%%%%%#",
".%%%%**%%%%%%**%%**%%%%%%**%%**%%%%%%**%%%%%%%%%%%%%%%%%%#",
".%%%%**%%%%%%**%%**%%%%%%**%%**%%%%%%**%%...%%%.%%%%%%%%%#",
".%%%%**%%%%%%**%%**%%%%%%**%%**%%%%%%**%%.%.%%.%%%%%%%%%%#",
".%%%%**%%%%%%**%%**%%%%%%**%%**%%%%%%**%%...%.%%%%%%%%%%%#",
".%%%%**%%%%%%**%%**%%%%%%**%%**%%%%%%**%%%%%.%...%%%%%%%%#",
".%%%%*%%****%%*%%*%%****%%*%%*%%****%%*%%%%.%%.%.%%%%%%%%#",
".%%%%%%******%%%%%%******%%%%%%******%%%%%.%%%...%%%%%%%%#",
".%%%%%%%%%%%%%%%%%%%%%%%%%%%%%%%%%%%%%%%%%%%%%%%%%%%%%%%%#",
".%%%%%%%%%%%%%%%%%%%%%%%%%%%%%%%%%%%%%%%%%%%%%%%%%%%%%%%%#",
" .%%%%%%%%%%%%%%%%%%%%%%%%%%%%%%%%%%%%%%%%%%%%%%%%%%%%%%# ",
"  ######################################################  "};
