/* XPM */
static char * month_xpm[] = {
"22 72 4 1",
" 	c #FFFFFFFFFFFF",
".	c #AEBAAAAAAEBA",
"X	c #000000000000",
"o	c #514455555144",
"                      ",
" .XXXX  XXXXX  X    X ",
" X     .X     .XX  .X ",
".X XXX XXXXX  X. X X. ",
"X.  X  X     .X   XX  ",
" XXX  oXXXX  X     X  ",
"                      ",
"  oXXXXX  XXXXX  XXXXo",
"  X      .X     .X   X",
" .XXXXX  XXXXX  XXXXX ",
" X       X      X   X ",
"X       oXXXX  oXXXX  ",
"                      ",
"  X    X    X   XXXXo ",
"  X   XX    X. .X   X ",
" X X X X   X X XXXXXX ",
" X  X  X  XXXX X   X  ",
"X      X X   Xo    X  ",
"                      ",
"    X    XXXXo  XXXXo ",
"    X.  .X   X .X   X ",
"   X X  XXXXX  XXXXXX ",
"  XXXX  X      X   X  ",
" X   X X      X    X  ",
"                      ",
"   X    X    X   .XXXX",
"  .X   XX    X   X    ",
"  X.X X X   X X .X XXX",
" .X  X  X  XXXX X.  X ",
" X      X X   X  XXX  ",
"                      ",
"    .XXXX    X  X  .X ",
"    X       XX .X  X  ",
"   .X XXX  XX  X. .X  ",
"   X.  X  XX   X  X.  ",
"    XXX   X    oXXX   ",
"                      ",
"    X    X  .X .XXXX  ",
"   .X   .X  X  X      ",
"   X.   X. .X .X XXX  ",
"   X    X  X  X.  X   ",
"  oXXXX oXX    XXX    ",
"                      ",
"    X   .XXXX   XXX   ",
"    X.  X      X   X  ",
"   X X .X XXX  X  X   ",
"  XXXX X.  X  X  .X   ",
" X   X  XXX   XXXX    ",
"                      ",
" .XXXX  XXXXX XXXXX   ",
" X     .X      .X     ",
" .XX.  XXXX    X.     ",
"    X  X      .X      ",
"XXXX. oXXXX   X       ",
"                      ",
"   XXX   XXXXX XXXXX  ",
"  X   X   .X    .X    ",
"  X  X    X.    X.    ",
" X  .X   .X    .X     ",
" XXXX    X     X      ",
"                      ",
"  X    X  .XXX  X   X ",
" .XX  .X  X   X X. X. ",
" X  X X. .X  X. .X X  ",
".X   XX  X   X   XX   ",
"X     X  XXXX    X    ",
"                      ",
"   oXXX     X   XXX   ",
"  .X   X   XX  X      ",
"  X    X  XX   X      ",
"  X   X  XX   X       ",
" oXXXX   X    XXXXX   "};
