/* XPM */
static char *small[] = {
/* columns rows colors chars-per-pixel */
"8 108 584 2",
"   c Gray0",
".  c #000501a6000b",
"X  c #00200253002f",
"o  c #002c038e003f",
"O  c #00de03f00108",
"+  c #0031044b003b",
"@  c #00e904bc0114",
"#  c #001b0597001c",
"$  c #00e705560116",
"%  c #01320498013a",
"&  c #013c051f0155",
"*  c #0036064e0044",
"=  c #0084073100b4",
"-  c #014c06680173",
";  c #0184076101b1",
":  c #028007f202ad",
">  c #004c088a006e",
",  c #000009a50000",
"<  c #00f0096e0116",
"1  c #01640885019f",
"2  c #01bb098201c2",
"3  c #01eb08720219",
"4  c #01f309d30210",
"5  c #006c0a4e0077",
"6  c #00000b800000",
"7  c #017e0a5001cf",
"8  c #01500b5d015e",
"9  c #01db0adf0229",
"0  c #024d089e0264",
"q  c #025109790282",
"w  c #027a0a6a029c",
"e  c #027e0b8702bc",
"r  c #03710a51039c",
"t  c #03000b820310",
"y  c #03f70a2f0432",
"u  c #00000c900000",
"i  c #014c0d61019c",
"p  c #01670c2b0202",
"a  c #00000ea90000",
"s  c #00470f690063",
"d  c #01d40e7c022a",
"f  c #02c60c9802e1",
"g  c #02010d790251",
"h  c #02d20d7b0303",
"j  c #03050cf40344",
"k  c #03810db80396",
"l  c #02820e9f0291",
"z  c #038c0e5403ac",
"x  c #035f0fa6037b",
"c  c #03fa0db0041d",
"v  c #04d20a3704ef",
"b  c #04760d930483",
"n  c #05c90cc405f1",
"m  c #041a0e7d0458",
"M  c #04650fd2048b",
"N  c #05ec0fd30621",
"B  c #06750de30682",
"V  c #06950f5b06bf",
"C  c #000010a70000",
"Z  c #000011190000",
"A  c #0000128c0000",
"S  c #0115135f014d",
"D  c #01e013c5023b",
"F  c #02e410a20311",
"G  c #02d711400334",
"H  c #0387106c03fb",
"J  c #031d11130356",
"K  c #034312320354",
"L  c #0000149f0000",
"P  c #01b914b801fc",
"I  c #00001721004f",
"U  c #028514e402c4",
"Y  c #03fe16170421",
"T  c #046c114e046e",
"R  c #0571105a05ad",
"E  c #05f711d40637",
"W  c #04a9123704b0",
"Q  c #050312430547",
"!  c #05d413a305d9",
"~  c #063d10f90667",
"^  c #06b511c006e1",
"/  c #054d14340561",
"(  c #0548156a057b",
")  c #05e815e20610",
"_  c #0451160d0477",
"`  c #050117020575",
"'  c #06f515c40723",
"]  c #0610165b064e",
"[  c #06dc1760071d",
"{  c #01da194e01c9",
"}  c #01d61a3d0222",
"|  c #02491e6402cd",
" . c #03121f420371",
".. c #0528186b0552",
"X. c #05a219a605bf",
"o. c #05ff1a18063c",
"O. c #068e19b506c7",
"+. c #078f199707aa",
"@. c #06c31a200730",
"#. c #06b11ba406bc",
"$. c #07b31a6807cb",
"%. c #07991b1d07d3",
"&. c #04fe1d0c04cb",
"*. c #05101c190526",
"=. c #041c1fad0416",
"-. c #05e11e2c05fc",
";. c #075f1c94078a",
":. c #062b1fb806b9",
">. c #09b115020a23",
",. c #080c16bc083a",
"<. c #08a717c308c6",
"1. c #09011708092d",
"2. c #084b199a0846",
"3. c #0a1f193c0a6b",
"4. c #0a5d1a3d0a84",
"5. c #08621cb6088b",
"6. c #09991c2209d7",
"7. c #09241d95090a",
"8. c #08261fee083f",
"9. c #09171e29094a",
"0. c #09731f0e099a",
"q. c #0ac31c740adf",
"w. c #0a731ed10a87",
"e. c #000022700000",
"r. c #03d1225a03eb",
"t. c #05d120cb05ea",
"y. c #0798211b07ae",
"u. c #06b723c406c0",
"i. c #05892525058a",
"p. c #06cd29520757",
"a. c #06fb2d8d0734",
"s. c #08a2202908ca",
"d. c #095a205a0982",
"f. c #098d218d09d4",
"g. c #08a2226b0950",
"h. c #08de23a5092f",
"j. c #0ab822d20af2",
"k. c #0aad24840acd",
"l. c #0a6d257d0a9d",
"z. c #0b7524130bbd",
"x. c #0a9c263a0a9a",
"c. c #0a6f27c50aa8",
"v. c #0bb8265c0bc2",
"b. c #0c9222330cca",
"n. c #0f04213b0f72",
"m. c #0e46231b0e7e",
"M. c #0e0025ca0e4e",
"N. c #0ab828fc0aee",
"B. c #0ad3296b0afa",
"V. c #0bd129480bda",
"C. c #0b1a2ae90ae6",
"Z. c #0b4b2c7a0b93",
"A. c #0d1028450d39",
"S. c #0dcd28510e28",
"D. c #0c7a2ace0ca7",
"F. c #0cfd2a730d57",
"G. c #0c612b580c9e",
"H. c #0d662aa50d8c",
"J. c #0db92a1d0e17",
"K. c #0d5e2d6c0d41",
"L. c #0deb2d420e12",
"P. c #0c842e010cbf",
"I. c #0cd82f120cae",
"U. c #0da72ee10da4",
"Y. c #0d542f3a0d26",
"T. c #0f862da20fa4",
"R. c #0e892e890eb7",
"E. c #0fca2efb0fb0",
"W. c #0f382f680f44",
"Q. c #06c5339a068b",
"!. c #07fb31490837",
"~. c #0ba630ac0be2",
"^. c #0a09341809e2",
"/. c #0b5c34fd0b6e",
"(. c #0cf433400d0e",
"). c #0da233d10dcd",
"_. c #0edd30250ee6",
"`. c #0e6d31d10e99",
"'. c #0f9e30d20fae",
"]. c #0f2031000ef6",
"[. c #0fb631190f91",
"{. c #0e8332c50ec9",
"}. c #0fbb33660fa6",
"|. c #0e9637370e52",
" X c #09b23f840a65",
".X c #0f7e38ed0f8d",
"XX c #0e5e3e370e84",
"oX c #0fab3f840f46",
"OX c #0fda321e100e",
"+X c #16f227b11739",
"@X c #136d282b1333",
"#X c #146b2b921490",
"$X c #14bf2fa214eb",
"%X c #1ae92c021b7d",
"&X c #1043363a0fe8",
"*X c #107c313d1058",
"=X c #113a31111178",
"-X c #10a2329d10bb",
";X c #104f34331084",
":X c #116134b7115c",
">X c #111835d610f4",
",X c #113a35f61168",
"<X c #103836781028",
"1X c #11743652118c",
"2X c #11af379511ab",
"3X c #12f134241302",
"4X c #125d35541264",
"5X c #151c33ca156b",
"6X c #166337b81691",
"7X c #11113ac010e9",
"8X c #11453ad81174",
"9X c #11b43bd411c7",
"0X c #1287381d12a5",
"qX c #1240390b125b",
"wX c #12543a8311f3",
"eX c #12053a4c1235",
"rX c #131e3bb912d4",
"tX c #136d3b671324",
"yX c #11f93c8a11fd",
"uX c #11df3d3611a5",
"iX c #12363d6c11f5",
"pX c #12b73c3c127f",
"aX c #13a53d941374",
"sX c #12d33e1d12c2",
"dX c #16483b9c1657",
"fX c #14db3d8314cc",
"gX c #14983e6a14a8",
"hX c #141a3fdc141a",
"jX c #15193eb214ee",
"kX c #18563552187b",
"lX c #18483672187b",
"zX c #1b5a37281b58",
"xX c #1bdb34f41c72",
"cX c #189439ea18c0",
"vX c #1b0f3bd41ba4",
"bX c #1c6839401c70",
"nX c #1c2b3fce1c74",
"mX c #1ee53f881f0a",
"MX c #1ff739fc204d",
"NX c #20333b022029",
"BX c #07a0484b07ed",
"VX c #0c6843eb0cfe",
"CX c #0eab45870e8f",
"ZX c #08924f4c08f4",
"AX c #0ce348bd0c53",
"SX c #13fe41a51416",
"DX c #14df4099148a",
"FX c #14eb41f814a0",
"GX c #156541811533",
"HX c #14ed42fb151f",
"JX c #14db439e14c6",
"KX c #159e437c152c",
"LX c #163c41511658",
"PX c #1506448014fa",
"IX c #15f345ea158f",
"UX c #14d4479d14c1",
"YX c #15ba46ae15e0",
"TX c #1524475e14db",
"RX c #1695448816a8",
"EX c #1625466815e6",
"WX c #176447db1701",
"QX c #10b5485c108e",
"!X c #139649891398",
"~X c #14a8481814e4",
"^X c #15d649cb1614",
"/X c #15714bf01587",
"(X c #1684497d164a",
")X c #176048151784",
"_X c #17114a0416a2",
"`X c #16a74fda1728",
"'X c #17d44ab81858",
"]X c #190640f61931",
"[X c #1a5243e31a57",
"{X c #19e245351a04",
"}X c #1a8a45e01aab",
"|X c #1bc945cd1bf0",
" o c #1c8242401cd0",
".o c #187148251847",
"Xo c #1857498f1826",
"oo c #194e48d61963",
"Oo c #1964493c1978",
"+o c #18bc4bd118c9",
"@o c #182a4d261842",
"#o c #19244cdd18ec",
"$o c #18b24ecb18b7",
"%o c #1a074e1819fb",
"&o c #1ab54f281a51",
"*o c #1b884e3f1b4a",
"=o c #17dc52531789",
"-o c #12695ea3125d",
";o c #16825d1d16dc",
":o c #183b529017bc",
">o c #188a530517d8",
",o c #181b568417ce",
"<o c #186b50921887",
"1o c #1a7d50351a0e",
"2o c #1999562918ec",
"3o c #1bcb54491baa",
"4o c #1d4f51121d3b",
"5o c #1d1c53571d2a",
"6o c #1c3257b51c0b",
"7o c #1e04574d1d99",
"8o c #1f4457c11ed5",
"9o c #19c15b2e1a13",
"0o c #1ae35c4b1aeb",
"qo c #1c5859581bdb",
"wo c #1e42598d1dec",
"eo c #1f595aa61eb1",
"ro c #1cc45d361bdd",
"to c #1d155d691c7a",
"yo c #17cd64741841",
"uo c #1a1663341a64",
"io c #1d1361591cce",
"po c #1fec65911ee9",
"ao c #1c0a6a611b6d",
"so c #1e7f6d491eb4",
"do c #11b07cf3116f",
"fo c #1dd07e351e09",
"go c #1fd4739c2013",
"ho c #21dc4a2921c3",
"jo c #20c44d6720b1",
"ko c #22724fb4224d",
"lo c #252a4a7e25b7",
"zo c #25bd4b9825ff",
"xo c #2a2b4a0a2a68",
"co c #24e253a42583",
"vo c #27ce50612810",
"bo c #20d05ca620ae",
"no c #21125ff120be",
"mo c #22715f4521cb",
"Mo c #238a5fa2238f",
"No c #267b583e264f",
"Bo c #253a5e232529",
"Vo c #294d527428f1",
"Co c #2b72535b2b91",
"Zo c #2ab455c72b3f",
"Ao c #2ab7571c2ab7",
"So c #2abb59ea2afd",
"Do c #2d6d58b52d8e",
"Fo c #2fe55d6c3035",
"Go c #30cb4ca130ea",
"Ho c #31e5520f3253",
"Jo c #34cc579b3513",
"Ko c #31765a4531bc",
"Lo c #201267f61f90",
"Po c #213164b020aa",
"Io c #21fc662221fd",
"Uo c #2284648221c0",
"Yo c #224c64ba222a",
"To c #220d67b9214f",
"Ro c #2313670e2233",
"Eo c #243b64102422",
"Wo c #20096bd52065",
"Qo c #227d6b462206",
"!o c #244c6a212372",
"~o c #256768a024c2",
"^o c #26726b3e2547",
"/o c #27006dcf26ad",
"(o c #29cb617a2aa0",
")o c #2b70651e2b71",
"_o c #2ae566652b55",
"`o c #2b78680d2b6c",
"'o c #2ba46a9f2b62",
"]o c #2a3d6f6c2a16",
"[o c #2d816e122dbe",
"{o c #2fd16d262fd0",
"}o c #21d972ca21a1",
"|o c #23dc70f022ab",
" O c #21e7766b21d5",
".O c #2170777821c1",
"XO c #23f1777823bd",
"oO c #23d475f52404",
"OO c #257273cb24d8",
"+O c #24c8775923d6",
"@O c #268477f925a5",
"#O c #26177675262c",
"$O c #27fc774d2742",
"%O c #21d57846226e",
"&O c #278178592729",
"*O c #24567ef5242a",
"=O c #28c3745927f8",
"-O c #2bd971d92bcc",
";O c #2d5c72d52cf2",
":O c #2d8772ed2d69",
">O c #299b7b232931",
",O c #2a96784029d4",
"<O c #2bf27c982bda",
"1O c #2be27d062af3",
"2O c #2e5179262eab",
"3O c #2cd47ef12be0",
"4O c #2c797fd02be6",
"5O c #2ded7e572cea",
"6O c #30ea65463131",
"7O c #35236c2734d4",
"8O c #3cce6be83d20",
"9O c #352173573536",
"0O c #355e767c3559",
"qO c #39c975c7399e",
"wO c #3b9e7de83b61",
"eO c #3d9e7acd3dca",
"rO c #3c307c313c5b",
"tO c #3d1f7fe63cff",
"yO c #44ca690c4520",
"uO c #4b5b70974b48",
"iO c #4ba778214b93",
"pO c #51577c94512c",
"aO c #1bbc95311afe",
"sO c #254d87182545",
"dO c #211b8b642117",
"fO c #22e88bd222a1",
"gO c #2c7a85732bdd",
"hO c #2f5184372ea6",
"jO c #2edd87172dd6",
"kO c #2e7987652e8e",
"lO c #2f6688392ec5",
"zO c #2fd28ca12f25",
"xO c #2f818fe72eeb",
"cO c #2d359c8d2c15",
"vO c #302483bc2f87",
"bO c #304f884c2fea",
"nO c #31dd80a130be",
"mO c #315a85aa30b7",
"MO c #312e876e3092",
"NO c #30de8ab73046",
"BO c #33868f713277",
"VO c #35ac8d23341a",
"CO c #3b448f8d3aa5",
"ZO c #3e3988943dc1",
"AO c #302c9d942fc1",
"SO c #31a59224314f",
"DO c #33f093eb330f",
"FO c #32e6950331d0",
"GO c #32e7943b3244",
"HO c #342893b6340d",
"JO c #358592b034f6",
"KO c #36199265345f",
"LO c #35a5977a34e4",
"PO c #36a294173582",
"IO c #373197cd35f9",
"UO c #33e1990c32f2",
"YO c #352e9972347d",
"TO c #3576995b3503",
"RO c #379099f536d3",
"EO c #37e59b263773",
"WO c #36039c5f358a",
"QO c #37949c8f36cd",
"!O c #3c4794b83b89",
"~O c #3da7963f3dad",
"^O c #38369a0d376b",
"/O c #386b9b1f3762",
"(O c #383f9e3c370c",
")O c #38a499693825",
"_O c #39a69c233844",
"`O c #39819dbf3859",
"'O c #3f3b9eda3e92",
"]O c #37c7a2563781",
"[O c #3643ab3a35d2",
"{O c #3a5ea1973996",
"}O c #3a3da2c039d1",
"|O c #3b96a3fb3ac2",
" + c #39e9a7a43964",
".+ c #3bbea7e03ada",
"X+ c #3c67a0ee3afc",
"o+ c #3d8da29f3cdf",
"O+ c #3eafa4453e13",
"++ c #3ee8a6003dc9",
"@+ c #3df2aa013cf3",
"#+ c #3d62abe33d03",
"$+ c #3e99a9c83e0c",
"%+ c #3fa6ae913f86",
"&+ c #3a2eb7c338f6",
"*+ c #3c93c1163bc3",
"=+ c #3ea5ce5d3d80",
"-+ c #404090f33f97",
";+ c #4167826c418c",
":+ c #4432822943a2",
">+ c #449d838644cf",
",+ c #46db8182474f",
"<+ c #45ab88af456d",
"1+ c #49f580fd49f0",
"2+ c #48528ba34793",
"3+ c #4a498cdb4a5f",
"4+ c #428394bd425a",
"5+ c #49c396b849aa",
"6+ c #58ba9298588e",
"7+ c #418daf774103",
"8+ c #4666abdf459b",
"9+ c #4af8a8944ae6",
"0+ c #423eb0d54163",
"q+ c #4327b0e941c7",
"w+ c #4271b32b41b5",
"e+ c #45f7b64044e4",
"r+ c #47f9b48146be",
"t+ c #4744b7da469d",
"y+ c #4301beaa422c",
"u+ c #4512ba79446d",
"i+ c #476fb81b4681",
"p+ c #489ebe3f4798",
"a+ c #48d1bf19486e",
"s+ c #4ad9bfb649d9",
"d+ c #51e9afbc51be",
"f+ c #5988a34559e6",
"g+ c #5cc3a19a5c23",
"h+ c #5914ab04582a",
"j+ c #5ab6b6025ad8",
"k+ c #5f69b6f45f0c",
"l+ c #69a1974d69be",
"z+ c #74679d0d745b",
"x+ c #68cba79868ed",
"c+ c #6c18bffa6b8c",
"v+ c #4394c37b4283",
"b+ c #415dc4024081",
"n+ c #4c88cbc04c23",
"m+ c #5594c63a5543",
"M+ c #53cfce8a5367",
"N+ c #570ccfec5632",
"B+ c #4c08e47e4acc",
"V+ c #64aac209649a",
"C+ c #6aebce606aaf",
"Z+ c #6fccdeba6eca",
"A+ c #7f89c7787f76",
"S+ c #7da0c9797da0",
"D+ c #76b4d606769e",
"F+ c #7e49d2e67e42",
"G+ c #7cddd6537bf9",
"H+ c #7cd3d5737c27",
"J+ c #7b20d8927b10",
"K+ c #7dc2d9f27d9c",
"L+ c #67fbe39e6759",
"P+ c #67aeead26676",
"I+ c #718bfdbc707a",
"U+ c #7463fe9a729a",
"Y+ c #7d48fb647bf1",
"T+ c #80c6c8a58088",
"R+ c #8bf8c2838c2e",
"E+ c #8e5ecb248e33",
"W+ c #825cd9e281d1",
"Q+ c #9761da9c9704",
"!+ c #8434e35b833a",
"~+ c #8533eab9848f",
"^+ c #8c0bed8f8b47",
"/+ c #8e40ed998d91",
"(+ c #842bffff8294",
")+ c #86dafc808639",
"_+ c #88ecffff8724",
"`+ c #8a8fffff89d8",
"'+ c #8a80ffff8a06",
"]+ c #8e51fa258de3",
"[+ c #8f9dffff8efe",
"{+ c #9015e9278f63",
"}+ c #9035ea068fff",
"|+ c #9310eb599270",
" @ c #9121f35490b4",
".@ c #96b9f30c9632",
"X@ c #9710f6d196bd",
"o@ c #910dffff9012",
"O@ c #937dffff92b3",
"+@ c #9833fc1896db",
"@@ c #9cfbffff9c10",
"#@ c #9d43ffff9c7d",
"$@ c #a7dce408a785",
"%@ c #a42af40da2ef",
"&@ c #a214ffffa159",
"*@ c #a3c9ffffa25b",
"=@ c #a60dfc95a58e",
"-@ c #a8f0f007a887",
";@ c #ae84ffffaddd",
":@ c #b013ffffae12",
">@ c #b43cf389b381",
",@ c #b0f4ffffb086",
"<@ c #b32dfc07b292",
"1@ c #b47cffffb3cb",
"2@ c #bee3ffffbd9d",
"3@ c #c1aeffffc140",
"4@ c #c327ffffc1b7",
"5@ c #c432ffffc36f",
"6@ c #c7f6ffffc699",
"7@ c #c9d7ffffc875",
"8@ c #ca81ffffc9ed",
"9@ c #cc62ffffcbfc",
"0@ c #cc71ffffcc74",
"q@ c #d0aaffffcfce",
"w@ c #d2a5ffffd1c2",
"e@ c #d418ffffd379",
/* pixels */
"0 ;XR.@ b Voho; ",
"0X/OPOs Jo=@|+kX",
"LXLOKOI yO @}+mX",
"Q wo%o  # -+tON ",
"  J.H.    NX[XX ",
"o CO8o    R+>+. ",
"* !OgX    E+Ao  ",
"$ 5oc.    ,+fX  ",
"c XoaX    9O_ov ",
"A.++2o  MX,@SOV ",
"8.UOQo  e.Y+h+h ",
"/ YoEo  a g+z+R ",
"m &o<X    rO9o- ",
"H.r+$o  cX9@sO; ",
":X|O/X  Do&@*Oy ",
"M EXRX  +  O-Or ",
"; GXd     6OS   ",
"o.w+JO  L 4@$@;.",
"l.a+EOJ !.w@-@=X",
"3 C.      BX  X ",
"f wo4o    4+1+= ",
"s.{OmO  r.@@F+d ",
"'.QO=o  Co[+fOq ",
"w 9X_.    yo`X% ",
"- (XHX    fo{oq ",
"d.zOt+s n.!+5@$X",
"*XGOHO> Ho)+~+#X",
"q I.V.    ZXVX: ",
"! nO^o> B A+j+w.",
"z MO>o  . K+lOk ",
"  K.Ro    oo8+2 ",
"    9.      OX0 ",
"0 IXTX    oO.O~ ",
"$.q+p+P J 3@0@6X",
"5.$+#+:.] 1@*@{X",
"0 8XPX    uogo<.",
"q hXYX    Wo%O' ",
"f.}OYOh.m.+@(+}X",
"( o+bO. , >@W+0.",
". O.&X    G.;o= ",
"  0 2.    n +X  ",
"o 7X=O    noV+l ",
"1XgO^O).FoB+]+So",
"v.`.:Xy.bX*oGonX",
"O 2X7     Bos   ",
"X JX1Oh   ]oC+q.",
"X EX!o1   :Od+,.",
"& -X      co    ",
"w D.W.    QXjol ",
"KX&O_OoXeOM+`+XO",
"tX0o$Oro8OcOm+~O",
"$ o *     o # 1.",
"Y.#oU.  AXwO$o< ",
":o.+}od aO#@v+=.",
"#.5OUX  L T+;O5 ",
"  E.]     xob.  ",
". rXr     (oE   ",
". ~oz.    x+zX  ",
"  &o_X    ;+2O. ",
"    (       g.@ ",
"w SX!X`   sodo4X",
"F.%+y+,olX2@7@<+",
"k.]O +~.M._+O@Mo",
"3 eo|.    5+-o8 ",
"O o x.    o XX3 ",
"L.)O`OD lo%@o@-X",
"j Uo|o..  f+*+(.",
"    x.       X4 ",
"3 }.D.    6o|X+ ",
"DXe+WOa `o8@^+a.",
"R.ROxOA vX.@P+/.",
"0 D.B.K   ~XCXc.",
"e ].G     ko} + ",
"1os+IOZ :+e@X@3X",
"pXO+vO6 No<@J+T.",
"o v.>     ]Xu   ",
"  o iX=   + Io_ ",
"  P.@+*.  )X;@.X",
"( iou+Z.C 'Oq@<o",
"d.EXsXf !.#O)oN.",
"t [...    zoi.$ ",
".oi+NO. iO6@Z+u.",
",XFOOO  ZoI+b+-.",
"; 6.@.X   %Xp.( ",
"[ t.y.  3.Q.^./ ",
"RXao@O| pO&+=+^X",
"jX+OjO .uOn+L+Oo",
"k * g     # A T ",
"5.qo(Xi @X2+qOS.",
"[ kODOs 4.G+/+Z.",
"  F to#   { AOY ",
"    p .     A x ",
"w 7o/o9.  3+k+dX",
"T VO0+GX# Q+:@'o",
". mo(OG.  l+'++o",
"% e l.    H 9X) ",
"U.Tobo%.@o7+6+ o",
"{.TO>OwX'XU+N+[o",
"+.Po4O>X>.9+D+Ko",
"  X j.    . xX^ ",
"; WXuX7.  <OLo5X",
"9 3OX+X.  S+@@eX",
"v.hO,OU FXH+c+).",
"t             z ",
"aXDX    0O7O  w ",
"[.BO:o&.vo{+dOqX",
"- 3opo+   ZO[OX.",
"  - k.W   4 yX#."
};
