/* XPM */
static char * bundled_xpm[] = {
"64 64 13 1",
" 	c None",
".	c #000000",
"+	c #202020",
"@	c #FFFFFF",
"#	c #4F301A",
"$	c #B0520F",
"%	c #683917",
"&	c #974A12",
"*	c #E06309",
"=	c #F96C07",
"-	c #C85B0C",
";	c #37281D",
">	c #804114",
"                                                                ",
"                                                                ",
"                                                                ",
"                                                                ",
"                                                                ",
"                                                                ",
"                                                                ",
"                                                                ",
"                                                                ",
"                                                                ",
"                                                                ",
"                                                                ",
"                                                                ",
"                                                                ",
"                                                                ",
"                                                                ",
"                                                                ",
"                                                                ",
"                                                                ",
"                                                                ",
"                                                                ",
"                                                                ",
"                                                                ",
"                                                                ",
"                                                                ",
"                                                                ",
"                                                                ",
"                                                                ",
"                                                                ",
"                                                                ",
"                                                                ",
"                                                                ",
"                                                                ",
"     .++++++++++++++++++++++++++++++++++++++++++++++++++++@     ",
"     .++++++++++++++++++++++++++++++++++++++++++++++++++++@     ",
"     .+++++++++++++++#$++++++++++++++++++#$+$%+++++++++&%+@     ",
"     .+++++++++++++++%$++++++++++++++++++%$+$%+++++++++$%+@     ",
"     .+++++++++++++++%$++++++++++++++++++%$+$%+++++++++$%+@     ",
"     .+++++++++++++++%**=%+$%+%$%-$=$+;*=*$+$%;-=*%+%==*%+@     ",
"     .+++++++++++++++%-;;*#$%+%$%=$+=+-%+>$+$%-&;-&;*;+-%+@     ",
"     .+++++++++++++++%$++$%$%+%$%*++=+=++%$+$%=$->+%$++$%+@     ",
"     .+++++++++++++++%-+;*;$%+%$%$++=+*%+&$+$%*%+;&#*;;-%+@     ",
"     .+++++++++++++++%*=*%+%==*$#$++=+%*=-$+$%%*=*>+&==-%+@     ",
"     .++++++++++++++++++++++++++++++++++++++++++++++++++++@     ",
"     .++++++++++++++++++++++++++++++++++++++++++++++++++++@     ",
"                                                                ",
"                                                                ",
"                                                                ",
"                                                                ",
"                                                                ",
"                                                                ",
"                                                                ",
"                                                                ",
"                                                                ",
"                                                                ",
"                                                                ",
"                                                                ",
"                                                                ",
"                                                                ",
"                                                                ",
"                                                                ",
"                                                                ",
"                                                                ",
"                                                                "};
