/* XPM */
static char * dialing_xpm[] = {
"64 64 13 1",
" 	c None",
".	c #000000",
"+	c #202020",
"@	c #FFFFFF",
"#	c #434D21",
"$	c #51601E",
"%	c #A3D10C",
"&	c #6C8518",
"*	c #95BD0F",
"=	c #5E721B",
"-	c #7A9815",
";	c #353A24",
">	c #87AB12",
"                                                                ",
"                                                                ",
"                                                                ",
"                                                                ",
"                                                                ",
"                                                                ",
"                                                                ",
"                                                                ",
"                                                                ",
"                                                                ",
"                                                                ",
"                                                                ",
"                                                                ",
"                                                                ",
"                                                                ",
"     .++++++++++++++++++++++++++++++++++++++++++++++++++++@     ",
"     .++++++++++++++++++++++++++++++++++++++++++++++++++++@     ",
"     .++++++++++++++++++++++++++++++++++++++++++++++++++++@     ",
"     .++++++++++++++++++++++++++++++++++++++++++++++++++++@     ",
"     .++++++++++++++++++++++++++++++++++++++++++++++++++++@     ",
"     .++++++++++++++++++++++++++++++++++++++++++++++++++++@     ",
"     .++++++++++++++++++++++++++++++++++++++++++++++++++++@     ",
"     .++++++++++++++++++++++++++++++++++++++++++++++++++++@     ",
"     .++++++++++++++++++++++++++++++++++++++++++++++++++++@     ",
"     .+++#++++++++++$+++++++++++#%#++$++++++++++++++++++++@     ",
"     .++&%*=+++++++$%$++++++++++$%$+$%$+++++++++++++++++++@     ",
"     .++-%&%%&;+++++$+++++++++++$%$++$++++++++++++++++++++@     ",
"     .++-%++=**$++++++++++++++++$%$+++++++++++++++++++++++@     ",
"     .++-%+++;-%$++;-;++++$--$++$%$+;-;+#%#;&-#+++;=--=+++@     ",
"     .++-%+++++>*;+$%$++;>%%%%&+$%$+$%$+$%-%%%*++#*%%%%*++@     ",
"     .++-%+++++#%=+$%$++-%-;$%$+$%$+$%$+$%%*;=%$+**#+;%%++@     ",
"     .++-%++++++%-+$%$+;%>++$%$+$%$+$%$+$%%#+$%$=%=+++%*++@     ",
"     .++-%+++++;%-+$%$+$%$++$%$+$%$+$%$+$%>++$%$-%+++$%-++@     ",
"     .++-%+++++=%=+$%$+$%$++$%$+$%$+$%$+$%$++$%$-%+++=%-++@     ",
"     .++-%++++$%*++$%$+#%&++;%&+$%$+$%$+$%$++$%$&%#+;*%-++@     ",
"     .++-%*--*%*#++$%$++*%>-%%*+$%$+$%$+$%$++$%$;%*-*>%&++@     ",
"     .++;=>%%*&;+++;-;++;-%%-=*##%#+;-;+#%#++#%#+$>%>;%$++@     ",
"     .+++++++++++++++++++++++++++++++++++++++++++++++$%$++@     ",
"     .+++++++++++++++++++++++++++++++++++++++++++++++>%;++@     ",
"     .++++++++++++++++++++++++++++++++++++++++++&*--*%-+++@     ",
"     .++++++++++++++++++++++++++++++++++++++++++$*%%*&++++@     ",
"     .++++++++++++++++++++++++++++++++++++++++++++++++++++@     ",
"     .++++++++++++++++++++++++++++++++++++++++++++++++++++@     ",
"     .++++++++++++++++++++++++++++++++++++++++++++++++++++@     ",
"     .++++++++++++++++++++++++++++++++++++++++++++++++++++@     ",
"                                                                ",
"                                                                ",
"                                                                ",
"                                                                ",
"                                                                ",
"                                                                ",
"                                                                ",
"                                                                ",
"                                                                ",
"                                                                ",
"                                                                ",
"                                                                ",
"                                                                ",
"                                                                ",
"                                                                ",
"                                                                ",
"                                                                ",
"                                                                ",
"                                                                "};
