/* XPM */
static char * fax_xpm[] = {
"64 64 13 1",
" 	c None",
".	c #000000",
"+	c #202020",
"@	c #FFFFFF",
"#	c #313D51",
"$	c #364867",
"%	c #405D90",
"&	c #5489E5",
"*	c #4568A6",
"=	c #2C323C",
"-	c #3B527B",
";	c #4E7DCF",
">	c #4A73BA",
"                                                                ",
"                                                                ",
"                                                                ",
"                                                                ",
"                                                                ",
"                                                                ",
"                                                                ",
"                                                                ",
"                                                                ",
"                                                                ",
"                                                                ",
"                                                                ",
"                                                                ",
"                                                                ",
"                                                                ",
"     .++++++++++++++++++++++++++++++++++++++++++++++++++++@     ",
"     .++++++++++++++++++++++++++++++++++++++++++++++++++++@     ",
"     .++++++++++++++++++++++++++++++++++++++++++++++++++++@     ",
"     .++++++++++++++++++++++++++++++++++++++++++++++++++++@     ",
"     .+++++++++++#$$#+++++++++++++++++++++++++++++++++++++@     ",
"     .++++++++%&&&&&&&$+++++++++++++++++++++++++++++++++++@     ",
"     .++++++++*&*$$$$*$+++++++++++++++++++++++++++++++++++@     ",
"     .++++++++*&++++++++++++++++++++++++++++++++++++++++++@     ",
"     .++++++++*&+++++++++=-*%#++%$++++#%++++++++++++++++++@     ",
"     .++++++++*&$****$++$;&&&&#+>&$++=;;++++++++++++++++++@     ",
"     .++++++++*&&&&&&%+=;&-+*&+++;;=$&;=++++++++++++++++++@     ",
"     .++++++++*&$++++++-&-++*&+++=;;&*++++++++++++++++++++@     ",
"     .++++++++*&+++++++*&+++*&++++%&;+++++++++++++++++++++@     ",
"     .++++++++*&+++++++*&+++*&+++$&;&%++++++++++++++++++++@     ",
"     .++++++++*&+++++++%&#++-&#+-&*+*&$+++++++++++++++++++@     ",
"     .++++++++*&+++++++#&&*>&&%%&*+++>&$++++++++++++++++++@     ",
"     .++++++++%;++++++++$>&;%%;$%++++=;%++++++++++++++++++@     ",
"     .++++++++++++++++++++++++++++++++++++++++++++++++++++@     ",
"                                                                ",
"                                                                ",
"                                                                ",
"                                                                ",
"                                                                ",
"                                                                ",
"                                                                ",
"                                                                ",
"                                                                ",
"                                                                ",
"                                                                ",
"                                                                ",
"                                                                ",
"                                                                ",
"                                                                ",
"                                                                ",
"                                                                ",
"                                                                ",
"                                                                ",
"                                                                ",
"                                                                ",
"                                                                ",
"                                                                ",
"                                                                ",
"                                                                ",
"                                                                ",
"                                                                ",
"                                                                ",
"                                                                ",
"                                                                ",
"                                                                "};
