/* XPM */
static char * incoming_xpm[] = {
"64 64 13 1",
" 	c None",
".	c #000000",
"+	c #202020",
"@	c #3D3527",
"#	c #534327",
"$	c #FFFFFF",
"%	c #805F27",
"&	c #6A5127",
"*	c #AC7B26",
"=	c #C28926",
"-	c #EFA526",
";	c #D89626",
">	c #966D26",
"                                                                ",
"                                                                ",
"                                                                ",
"                                                                ",
"                                                                ",
"                                                                ",
"                                                                ",
"                                                                ",
"                                                                ",
"                                                                ",
"                                                                ",
"                                                                ",
"                                                                ",
"                                                                ",
"                                                                ",
"                                                                ",
"                                                                ",
"                                                                ",
"                                                                ",
"                                                                ",
"                                                                ",
"                                                                ",
"                                                                ",
"                                                                ",
"                                                                ",
"                                                                ",
"                                                                ",
"                                                                ",
"                                                                ",
"                                                                ",
"                                                                ",
"                                                                ",
"                                                                ",
"     .++++++++++++@#++++++++++++++++++++++++#@++++++++++++$     ",
"     .++++++++++++#%++++++++++++++++++++++++%#++++++++++++$     ",
"     .++++++++++++++++++++++++++++++++++++++++++++++++++++$     ",
"     .++++++++++++&*&=*-*++*-=@@=-*+&**;*->+*&*>;-&+&;->++$     ",
"     .++++++++++++&*&-*+-+>*+#@=%+;#&-%**%*+*&*-&&*@-#+-++$     ",
"     .++++++++++++&*&;++-+-@+++-++*&&*+*&&=+*&*>+&*&*+@-++$     ",
"     .++++++++++++&*&*++-+;&+%#;&@;@&*+*&+-+*&*&+&*&=+*-++$     ",
"     .++++++++++++&*#*++-+&;-=@&;-&+&*+*&+-+*&>&+&*+*->-++$     ",
"     .+++++++++++++++++++++++++++++++++#@+++++++++++++#=++$     ",
"     .+++++++++++++++++++++++++++++++++++++++++++++@&&=>++$     ",
"     .+++++++++++++++++++++++++++++++++++++++++++++@**%+++$     ",
"     .++++++++++++++++++++++++++++++++++++++++++++++++++++$     ",
"                                                                ",
"                                                                ",
"                                                                ",
"                                                                ",
"                                                                ",
"                                                                ",
"                                                                ",
"                                                                ",
"                                                                ",
"                                                                ",
"                                                                ",
"                                                                ",
"                                                                ",
"                                                                ",
"                                                                ",
"                                                                ",
"                                                                ",
"                                                                ",
"                                                                "};
