/* XPM */
static char * lamps_sw_xpm[] = {
"40 8 4 1",
" 	c None",
".	c #202020",
"+	c #364F6D",
"@	c #3DDEFF",
"....++........@@........++........@@....",
"...++++......@@@@.......++........@@....",
"..++++++....@@@@@@......++........@@....",
"....++........@@........++........@@....",
"....++........@@........++........@@....",
"....++........@@......++++++....@@@@@@..",
"....++........@@.......++++......@@@@...",
"....++........@@........++........@@...."};
