/* XPM */
static char * leds_xpm[] = {
"388 8 6 1",
" 	c None",
".	c #202020 s led_color_back",
"+	c #20B2AE s led_color_high",
"@	c #004941 s led_color_low",
"#	c #007D71 s led_color_mid",
"$	c #FFFFFF",
"..+++...@@@#.#+++#.#+++#.#@@@#.#+++#.#+++#.#+++#.#+++#.#+++#..+++................+....+++...+.+...+++..........+.....+...#...#....+...+.............................+.+..++.+......+..+....#+++...+++#...++...++.....................@+++@.#+++..#+++#.#+++..#+++#.#+++#.#+++#.#@@@#..@@@#..@@@#.#@@@#.#@@@..+@@@+.#+++..#+++#.#+++#.#+++#.#+++#.#+++#.#+++#.#@@@#.#@@@#.#@@@#.#@@@#.#@@@#.#+++#....",
".+...+.@...+.@...+.@...+.+...+.+...@.+...@.@...+.+...+.+...+.+...+....+..+.......+...+...+..+.+..+.+...+..+...+.+...+.+...+.+....+.....+...........+................+.+.+..+.+....+....+...+.........+..+.......+....................+...+.+...+.+...@.+...+.+...@.+...@.+...@.+...+.@...+.@...+.+...+.+...@.++.++.+...+.+...+.+...+.+...+.+...+.+...@.@.+.@.+...+.+...+.+...+.+...+.+...+.@...+....",
".+...+.@...+.@...+.@...+.+...+.+...@.+...@.@...+.+...+.+...+....+.....+..+.......+...+.+.+.+@+@+.+.+...#..+..+...+...+.....+....+.......+..........+.........+++++..#.#..........+......+..+.........+..+.......+...+................+...+.+...+.+...@.+...+.+...@.+...@.+...@.+...+.@...+.@...+.+..+@.+...@.+.+.+.+...+.+...+.+...+.+...+.+...+.+...@.@.+.@.+...+.+...+.+...+.@+.+@.+...+.@..+@....",
".#@@@#..@@@#.#+++#..+++#.#+++#.#+++#.#+++#..@@@#.@+++@.#+++#...+.....+....+......+...#@++#..+.+...+@+....+...........+...#+@+#..+.......+........+++++.+++++....................+........+.#.........#.+.........+..#................#+++#.#+++..#@@@..#@@@#.#+++..#+++..#@++#.#+++#..@@@#..@@@#.#++@..#@@@..#@@@#.#@@@#.#@@@#.#+++#.#+@@#.#+++..#+++#..@#@..#@@@#.#@@@#.#@@@#..@+@..#+++#..@+@.....",
".+...+.@...+.+...@.@...+.@...+.@...+.+...+.@...+.+...+.@...+.........+....+..........+.@...+@+@+...+.+...+..........+..+...+....+.......+..........+.........+++++...............+......+..+.........+..+.......+....................+...+.+...+.+...@.+...+.+...@.+...@.+...+.+...+.@...+.@...+.+..+@.+...@.+...+.+...+.+...+.+...@.+.+.+.+...+.@...+.@.+.@.+...+.+...+.+.+.+.@+.+@.@...+.@+..@....",
".+...+.@...+.+...@.@...+.@...+.@...+.+...+.@...+.+...+.@...+...+....+......+.....+...+...+..+.+....+.+..+..+.......+..+...+.+....+.....+...........+..............................+....+...+.........+..+.......+...+....+...........+...+.+...+.+...@.+...+.+...@.+...@.+...+.+...+.@...+.@...+.+...+.+...@.+...+.+...+.+...+.+...@.+..++.+...+.@...+.@.+.@.+...+.+...+.++.++.+...+.@...+.+...@....",
"..+++...@@@+.#+++#.#+++#..@@@#.#+++#.#+++#..@@@#.#+++#.#+++#...#....+......+.....#....+++...+.+...+++...+..#........++.+.#...#....+...+....+++++...................................+..+....#+++...+++#...++...++....#....#...........#@@@#.#+++..#+++#.++++..#+++#.+@@@..#+++#.#@@@#..@@@+.#+++#.#@@@#.#+++@.#@@@#.+@@@+.#+++#.#@@@..#+++#.#@@@#.#+++#..@#@..@++++..+++..+@@@+.#@@@+##+++#.#+++#....",
"...................................................................................................................................................................................................................................................................................................................................................................................................."};
