/* XPM */
static char * modem_xpm[] = {
"64 64 13 1",
" 	c None",
".	c #000000",
"+	c #202020",
"@	c #FFFFFF",
"#	c #203B23",
"$	c #097516",
"%	c #15581C",
"&	c #067F14",
"*	c #11621A",
"=	c #1C4521",
"-	c #0D6B18",
";	c #184E1F",
">	c #243125",
"                                                                ",
"                                                                ",
"                                                                ",
"                                                                ",
"                                                                ",
"                                                                ",
"                                                                ",
"                                                                ",
"                                                                ",
"                                                                ",
"                                                                ",
"                                                                ",
"                                                                ",
"                                                                ",
"                                                                ",
"     .++++++++++++++++++++++++++++++++++++++++++++++++++++@     ",
"     .++++++++++++++++++++++++++++++++++++++++++++++++++++@     ",
"     .++++++++++++++++++++++++++++++++++++++++++++++++++++@     ",
"     .++++#+++++#++++++++++++++++++$%+++++++++++++++++++++@     ",
"     .+++%&#+++%&#+++++++++++++++++&*+++++++++++++++++++++@     ",
"     .+++&&=+++-&=++++++++++++++++=&*+++++++++++++++++++++@     ",
"     .++#&&*+++&&*++++++++++++++++=&*+++++++++++++++++++++@     ",
"     .++=&&*++=&$*++++#%*;++++>%*%;&;+++=**;>++=*+#*=+;*=+@     ",
"     .++%&*$++%$*-+++=&&&&%++>$&&&&&=++*&&&&$>+*&=&&&$&&&#@     ",
"     .++--*&++$**&++>&$>>-&++-&=+>-&=+;&*>+*&=+*&$*=&$#%&=@     ",
"     .++&%=&=#&==&>+%&#++;&=#&%+++=&=+-&>#-&$++*&*+=&=+=&*@     ",
"     .+=&=#&;*&+#&=+*&+++=&==&=+++=&=+&--&-;+++*&++=&=+>&*@     ",
"     .+%&++&*&*++&%+*&+++=&==&=+++=&=+&&*#+++++*&++=&=++&*@     ",
"     .+&-++-&&=++--+;&;++-&+>&$>++*&=+$$>+++=$+-$+++&*++&$@     ",
"     .=&*++*&&>++*&>>$&*$&;++%&$*-&&;+=&&-*$&*+-$+++&*++-&@     ",
"     .=&=++#&%+++=&=+>-&$;++++;$&&%$%++=-&&-;++%$+++&*++%$@     ",
"     .+=++++++++++=+++++++++++++++++++++++++++++++++#>++++@     ",
"     .++++++++++++++++++++++++++++++++++++++++++++++++++++@     ",
"                                                                ",
"                                                                ",
"                                                                ",
"                                                                ",
"                                                                ",
"                                                                ",
"                                                                ",
"                                                                ",
"                                                                ",
"                                                                ",
"                                                                ",
"                                                                ",
"                                                                ",
"                                                                ",
"                                                                ",
"                                                                ",
"                                                                ",
"                                                                ",
"                                                                ",
"                                                                ",
"                                                                ",
"                                                                ",
"                                                                ",
"                                                                ",
"                                                                ",
"                                                                ",
"                                                                ",
"                                                                ",
"                                                                ",
"                                                                ",
"                                                                "};
