/* XPM */
static char * off_xpm[] = {
"64 64 13 1",
" 	c None",
".	c #000000",
"+	c #202020",
"@	c #FFFFFF",
"#	c #552620",
"$	c #9A2515",
"%	c #B22412",
"&	c #3E2724",
"*	c #832519",
"=	c #6D261D",
"-	c #F72307",
";	c #DF230A",
">	c #C8240E",
"                                                                ",
"                                                                ",
"                                                                ",
"                                                                ",
"                                                                ",
"                                                                ",
"                                                                ",
"                                                                ",
"                                                                ",
"                                                                ",
"                                                                ",
"                                                                ",
"                                                                ",
"                                                                ",
"                                                                ",
"     .++++++++++++++++++++++++++++++++++++++++++++++++++++@     ",
"     .++++++++++++++++++++++++++++++++++++++++++++++++++++@     ",
"     .++++++++++++++++++++++++++++++++++++++++++++++++++++@     ",
"     .++++++++++++++++++++++++++++++++++++++++++++++++++++@     ",
"     .++++++++++++++++++++++++++++++++++++++++++++++++++++@     ",
"     .++++++++++++++++++++++++++++++++++++++++++++++++++++@     ",
"     .+++++++++++++++++++++++++++++#$%%&+++++&*%%=++++++++@     ",
"     .++++++++++++++=%%%$=++++++++%----%++++=-----++++++++@     ",
"     .++++++++++++=;------;#+++++#-----=++++;----%++++++++@     ",
"     .+++++++++++*----------#++++%--$++++++=-->&++++++++++@     ",
"     .++++++++++=---$&++#%-->++++;-;+++++++$--#+++++++++++@     ",
"     .+++++++++&;--=++++++>--&+#=-->==#++&=>--===+++++++++@     ",
"     .+++++++++$--$+++++++=--=$--------##--------$++++++++@     ",
"     .+++++++++;-;++++++++=--=$--------##--------$++++++++@     ",
"     .++++++++&--%++++++++=--=&==-->==&++==>--==#+++++++++@     ",
"     .++++++++=--=++++++++$--&+++--%+++++++%--++++++++++++@     ",
"     .++++++++=--=++++++++;-;++++--%+++++++%--++++++++++++@     ",
"     .++++++++=--*+++++++*--$++++--%+++++++%--++++++++++++@     ",
"     .+++++++++--;&+++++&---&++++--%+++++++%--++++++++++++@     ",
"     .+++++++++$--;*&++*---*+++++--%+++++++%--++++++++++++@     ",
"     .++++++++++%---------%++++++--%+++++++%--++++++++++++@     ",
"     .+++++++++++$-------$++++++&--%+++++++>--++++++++++++@     ",
"     .++++++++++++&=%%%*&+++++++=--*+++++++-->++++++++++++@     ",
"     .+++++++++++++++++++++++++++$%&+++++++=%=++++++++++++@     ",
"     .++++++++++++++++++++++++++++++++++++++++++++++++++++@     ",
"     .++++++++++++++++++++++++++++++++++++++++++++++++++++@     ",
"     .++++++++++++++++++++++++++++++++++++++++++++++++++++@     ",
"     .++++++++++++++++++++++++++++++++++++++++++++++++++++@     ",
"     .++++++++++++++++++++++++++++++++++++++++++++++++++++@     ",
"     .++++++++++++++++++++++++++++++++++++++++++++++++++++@     ",
"     .++++++++++++++++++++++++++++++++++++++++++++++++++++@     ",
"                                                                ",
"                                                                ",
"                                                                ",
"                                                                ",
"                                                                ",
"                                                                ",
"                                                                ",
"                                                                ",
"                                                                ",
"                                                                ",
"                                                                ",
"                                                                ",
"                                                                ",
"                                                                ",
"                                                                ",
"                                                                ",
"                                                                ",
"                                                                "};
