/* XPM */
static char * offline_xpm[] = {
"64 64 13 1",
" 	c None",
".	c #000000",
"+	c #202020",
"@	c #FFFFFF",
"#	c #39382A",
"$	c #5C5A2F",
"%	c #4A492C",
"&	c #6E6B31",
"*	c #918D36",
"=	c #7F7C33",
"-	c #C6C03D",
";	c #B4AE3A",
">	c #A29E38",
"                                                                ",
"                                                                ",
"                                                                ",
"                                                                ",
"                                                                ",
"                                                                ",
"                                                                ",
"                                                                ",
"                                                                ",
"                                                                ",
"                                                                ",
"                                                                ",
"                                                                ",
"                                                                ",
"                                                                ",
"     .++++++++++++++++++++++++++++++++++++++++++++++++++++@     ",
"     .++++++++++++++++++++++++++++++++++++++++++++++++++++@     ",
"     .++++++++++++++++++++++++++++++++++++++++++++++++++++@     ",
"     .++++++++++++++++++++++++++++++++++++++++++++++++++++@     ",
"     .++++++++++++++++++++++++++++++++++++++++++++++++++++@     ",
"     .++++++++++++++++++++++++++++++++++++++++++++++++++++@     ",
"     .++++++++++++++++++++++++++++++++++++++++++++++++++++@     ",
"     .++++++++++++++++++++++++++++++++++++++++++++++++++++@     ",
"     .++++++++++++++++++++++++++++++++++++++++++++++++++++@     ",
"     .++++++#$$%++++++#&*=#++#&*=#$*#+++++++++++++++++++++@     ",
"     .++++#=----;$++++;---$++;---$*-$+%-=+++++++++++++++++@     ",
"     .++++;--**>--$++$-;&$++$-;&$+*-$+%-=+++++++++++++++++@     ",
"     .+++=-;#+++&->++*-&++++*-&+++*-$+++++++++++++++++++++@     ",
"     .++#--#+++++--%;----;%;----;+*-$+=-%+;;&-;$++$;-;&+++@     ",
"     .++&-*++++++--%----->%----->+*-$+*-$+----->+%-----%++@     ",
"     .++*-$+++++%-;++*-$++++*-$+++*-$+*-$+--;#--+*-*#>-%++@     ",
"     .++*-$+++++=-=++*-$++++*-$+++*-$+*-$+--&+--+--*--&+++@     ",
"     .++&->++++%--%++*-$++++*-$+++*-$+*-$+--#+--+---=#++++@     ",
"     .++#;->&$=--=+++*-$++++*-$+++*-$+*-$+--++--+;-=$&;=++@     ",
"     .+++#;-----*++++*-$++++*-$+++*-$+*-$+--++--+$-----$++@     ",
"     .+++++$**=%+++++>-%++++>-%+++$*#+$*#+&=++==++#=*=%+++@     ",
"     .+++++++++++++++#%+++++#%++++++++++++++++++++++++++++@     ",
"     .++++++++++++++++++++++++++++++++++++++++++++++++++++@     ",
"     .++++++++++++++++++++++++++++++++++++++++++++++++++++@     ",
"     .++++++++++++++++++++++++++++++++++++++++++++++++++++@     ",
"     .++++++++++++++++++++++++++++++++++++++++++++++++++++@     ",
"     .++++++++++++++++++++++++++++++++++++++++++++++++++++@     ",
"     .++++++++++++++++++++++++++++++++++++++++++++++++++++@     ",
"     .++++++++++++++++++++++++++++++++++++++++++++++++++++@     ",
"     .++++++++++++++++++++++++++++++++++++++++++++++++++++@     ",
"                                                                ",
"                                                                ",
"                                                                ",
"                                                                ",
"                                                                ",
"                                                                ",
"                                                                ",
"                                                                ",
"                                                                ",
"                                                                ",
"                                                                ",
"                                                                ",
"                                                                ",
"                                                                ",
"                                                                ",
"                                                                ",
"                                                                ",
"                                                                ",
"                                                                "};
