/* XPM */
static char * raw_xpm[] = {
"64 64 13 1",
" 	c None",
".	c #000000",
"+	c #202020",
"@	c #FFFFFF",
"#	c #45484C",
"$	c #54585E",
"%	c #9DA9B9",
"&	c #ADBACC",
"*	c #8F99A7",
"=	c #717882",
"-	c #808995",
";	c #36383A",
">	c #626870",
"                                                                ",
"                                                                ",
"                                                                ",
"                                                                ",
"                                                                ",
"                                                                ",
"                                                                ",
"                                                                ",
"                                                                ",
"                                                                ",
"                                                                ",
"                                                                ",
"                                                                ",
"                                                                ",
"                                                                ",
"     .++++++++++++++++++++++++++++++++++++++++++++++++++++@     ",
"     .++++++++++++++++++++++++++++++++++++++++++++++++++++@     ",
"     .++++++++++++++++++++++++++++++++++++++++++++++++++++@     ",
"     .++++++++++++++++++++++++++++++++++++++++++++++++++++@     ",
"     .++++++#$$+++++++++++++++++++++++++++++++++++++++++++@     ",
"     .++++++%&&&*#++++++++++++++++++++++++++++++++++++++++@     ",
"     .++++++&*$=%&=+++++++++++++++++++++++++++++++++++++++@     ",
"     .++++++&-++;-&>++++++++++++++++++++++++++++++++++++++@     ",
"     .++++++&-++++%%++++#=->;+$=++$=++;-;+++++++++++++++++@     ",
"     .++++++&-++++-&+++=&&&&%+-&++&&#+>&#+++++++++++++++++@     ",
"     .++++++&-+++>&*++$&%#+&-+-&+#&&$+-&++++++++++++++++++@     ",
"     .++++++&%--&&*;++*&;++&-+$&$>&*=+%*++++++++++++++++++@     ",
"     .++++++&&&&&#++++&-+++&-+$&$**--;&=++++++++++++++++++@     ",
"     .++++++&-$*&%$+++&-+++&-+$&>&>>%$&$++++++++++++++++++@     ",
"     .++++++&-++#%&-++%%+++*%+#&*&#$&-&+++++++++++++++++++@     ",
"     .++++++&-++++-&=+=&%-%&&#+%&&++&&-+++++++++++++++++++@     ",
"     .++++++%=+++++=$++=%&*>*=+$&$++=&;+++++++++++++++++++@     ",
"     .++++++++++++++++++++++++++++++++++++++++++++++++++++@     ",
"                                                                ",
"                                                                ",
"                                                                ",
"                                                                ",
"                                                                ",
"                                                                ",
"                                                                ",
"                                                                ",
"                                                                ",
"                                                                ",
"                                                                ",
"                                                                ",
"                                                                ",
"                                                                ",
"                                                                ",
"                                                                ",
"                                                                ",
"                                                                ",
"                                                                ",
"                                                                ",
"                                                                ",
"                                                                ",
"                                                                ",
"                                                                ",
"                                                                ",
"                                                                ",
"                                                                ",
"                                                                ",
"                                                                ",
"                                                                ",
"                                                                "};
