/* XPM */
static char * slave_xpm[] = {
"64 64 13 1",
" 	c None",
".	c #000000",
"+	c #202020",
"@	c #FFFFFF",
"#	c #73CCDD",
"$	c #324549",
"%	c #4D7F88",
"&	c #60A5B2",
"*	c #57929E",
"=	c #293234",
"-	c #3B595F",
";	c #69B8C7",
">	c #446C73",
"                                                                ",
"                                                                ",
"                                                                ",
"                                                                ",
"                                                                ",
"                                                                ",
"                                                                ",
"                                                                ",
"                                                                ",
"                                                                ",
"                                                                ",
"                                                                ",
"                                                                ",
"                                                                ",
"                                                                ",
"                                                                ",
"                                                                ",
"                                                                ",
"                                                                ",
"                                                                ",
"                                                                ",
"                                                                ",
"                                                                ",
"                                                                ",
"                                                                ",
"                                                                ",
"                                                                ",
"                                                                ",
"                                                                ",
"                                                                ",
"                                                                ",
"                                                                ",
"                                                                ",
"     .++++++++++++++++++++++++++++++++++++++++++++++++++++@     ",
"     .++++++++++++++++++++++++++++++++++#+++++++++++++++++@     ",
"     .++++++++++++++++++++++++++++++++++#+++++++++++++++++@     ",
"     .+++++++++++++++++++++++++++++++$$+#+++++++++++++++++@     ",
"     .+++++++++++++++++++++++++++++%#&*+#+$&#&=#++%--;#&=+@     ",
"     .++++++++++++++++++++++++++++-;$=$+#=#-+#+*-=;=#$$#$+@     ",
"     .+++++++++++++++++++++++++++++>*;$+#-*++#+-%%>-;&*$++@     ",
"     .++++++++++++++++++++++++++++$=+>*+#$&+=#=+;;+$;=+$>+@     ",
"     .++++++++++++++++++++++++++++-;#;-+#+%#;%%+*>++%##&$+@     ",
"     .++++++++++++++++++++++++++++++++++++++++++=+++++++++@     ",
"     .++++++++++++++++++++++++++++++++++++++++++++++++++++@     ",
"     .++++++++++++++++++++++++++++++++++++++++++++++++++++@     ",
"                                                                ",
"                                                                ",
"                                                                ",
"                                                                ",
"                                                                ",
"                                                                ",
"                                                                ",
"                                                                ",
"                                                                ",
"                                                                ",
"                                                                ",
"                                                                ",
"                                                                ",
"                                                                ",
"                                                                ",
"                                                                ",
"                                                                ",
"                                                                ",
"                                                                "};
