/* XPM */
static char * unknown_xpm[] = {
"64 64 13 1",
" 	c None",
".	c #000000",
"+	c #202020",
"@	c #FFFFFF",
"#	c #2B383A",
"$	c #325A5F",
"%	c #2E484C",
"&	c #3C8C96",
"*	c #46BECE",
"=	c #387A83",
"-	c #42ACBB",
";	c #3F9CA8",
">	c #356A71",
"                                                                ",
"                                                                ",
"                                                                ",
"                                                                ",
"                                                                ",
"                                                                ",
"                                                                ",
"                                                                ",
"                                                                ",
"                                                                ",
"                                                                ",
"                                                                ",
"                                                                ",
"                                                                ",
"                                                                ",
"     .++++++++++++++++++++++++++++++++++++++++++++++++++++@     ",
"     .++++++++++++++++++++++++++++++++++++++++++++++++++++@     ",
"     .++++++++++++++++++++++++++++++++++++++++++++++++++++@     ",
"     .++++++++++++++++++++++++++++++++++++++++++++++++++++@     ",
"     .++++++++++++++++++++++++++++++++++++++++++++++++++++@     ",
"     .++++++++++++++++++++++++++++++++++++++++++++++++++++@     ",
"     .++++++++++++++++++++++++++++++++++++++++++++++++++++@     ",
"     .++++++++++++#$$+++++++++$$#++++++++%$%++++++++++++++@     ",
"     .++++++++++#&****=+++++=-***;#++++$;***-$++++++++++++@     ",
"     .+++++++++#-******-#++&*******$++$*******&+++++++++++@     ",
"     .+++++++++$**->>-**&++***=$;**-#+&**;$=***$++++++++++@     ",
"     .++++++++++==+++#-**#+$&#+++&**>+#&$+++$**;++++++++++@     ",
"     .++++++++++++++++$**$++++++++**&++++++++&**++++++++++@     ",
"     .++++++++++++++++&**%+++++++$**=+++++++#-*-++++++++++@     ",
"     .++++++++++++++#&**-+++++++>***%++++++%-**=++++++++++@     ",
"     .+++++++++++++$-**-#+++++#;***$++++++=***&+++++++++++@     ",
"     .++++++++++++&***&#+++++$***-%+++++#-***>++++++++++++@     ",
"     .+++++++++++$***$+++++++***&+++++++&**-#+++++++++++++@     ",
"     .+++++++++++#--#++++++++&*$++++++++$*&+++++++++++++++@     ",
"     .++++++++++++++++++++++++++++++++++++++++++++++++++++@     ",
"     .+++++++++++$*&++++++++#--#++++++++&*$+++++++++++++++@     ",
"     .+++++++++++***++++++++&**$+++++++$**&+++++++++++++++@     ",
"     .+++++++++++-*;++++++++=**#+++++++%**>+++++++++++++++@     ",
"     .+++++++++++#$#+++++++++$%+++++++++%$++++++++++++++++@     ",
"     .++++++++++++++++++++++++++++++++++++++++++++++++++++@     ",
"     .++++++++++++++++++++++++++++++++++++++++++++++++++++@     ",
"     .++++++++++++++++++++++++++++++++++++++++++++++++++++@     ",
"     .++++++++++++++++++++++++++++++++++++++++++++++++++++@     ",
"     .++++++++++++++++++++++++++++++++++++++++++++++++++++@     ",
"     .++++++++++++++++++++++++++++++++++++++++++++++++++++@     ",
"                                                                ",
"                                                                ",
"                                                                ",
"                                                                ",
"                                                                ",
"                                                                ",
"                                                                ",
"                                                                ",
"                                                                ",
"                                                                ",
"                                                                ",
"                                                                ",
"                                                                ",
"                                                                ",
"                                                                ",
"                                                                ",
"                                                                ",
"                                                                ",
"                                                                "};
