/* XPM */
static char * face_xpm[] = {
"64 64 7 1",
" 	c #00000000FFFF",
".	c #000000000000",
"X	c #000049244103",
"o	c #FFFFFFFFFFFF",
"O	c #C71BC30BC71B",
"+	c #965896589658",
"@	c #208120812081",
"                                                                ",
"                                                                ",
"                                                                ",
"                                                                ",
"                           ..........                           ",
"                       ....XXXXXXXXXX....                       ",
"                    ...XXXXXXXXXXXXXXXXXX...                    ",
"                  ..XXXXXXXXXXXXXXXXXXXXXXXX..                  ",
"                 .XXXXXXXXXXXXXXXXXXXXXXXXXXXX.                 ",
"               ..XXXXXXXXXXooooooooooXXXXXXXXXX..               ",
"              .XXXXXXXXXooo          ooOXXXXXXXXX.              ",
"             .XXXXXXXXoo                OOXXXXXXXX+             ",
"            .XXXXXXXoo                    ++XXXXXXX+            ",
"           .XXXXXXoo                        +.XXXXXXO           ",
"          .XXXXXXo                            .XXXXXXO          ",
"         .XXXXXXo                              .XXXXXXo         ",
"         .XXXXXo                                .XXXXXo         ",
"        .XXXXXo                                  .XXXXXo        ",
"       .XXXXXo                                    .XXXXXo       ",
"       .XXXXXo                                    .XXXXXo       ",
"      .XXXXXo                                      .XXXXXo      ",
"      .XXXXo  ....................................  .XXXXo      ",
"      .XXXXo  .@@@@@@@@@@@@@@@@@@@@@@@@@@@@@@@@@@o  .XXXXo      ",
"     .XXXXXo  .@@XXXX@@@XXXX@@@@@@@XXXX@@@XXXX@@@o  .XXXXXo     ",
"     .XXXXo   .@X@@@@X@X@@@@X@@X@@X@@@@X@X@@@@X@@o   .XXXXo     ",
"     .XXXXo   .@X@@@@X@X@@@@X@@X@@X@@@@X@X@@@@X@@o   .XXXXXo    ",
"    .XXXXXo   .@X@@@@X@X@@@@X@@@@@X@@@@X@X@@@@X@@o   .XXXXXo    ",
"    .XXXXo    .@@XXXX@@@XXXX@@@@@@@XXXX@@@XXXX@@@o    .XXXXo    ",
"    .XXXXo    .@X@@@@X@X@@@@X@@@@@X@@@@X@X@@@@X@@o    .XXXXo    ",
"    .XXXXo    .@X@@@@X@X@@@@X@@X@@X@@@@X@X@@@@X@@o    .XXXXo    ",
"    .XXXXo    .@X@@@@X@X@@@@X@@X@@X@@@@X@X@@@@X@@o    .XXXXo    ",
"    .XXXXo    .@@XXXX@@@XXXX@@@@@@@XXXX@@@XXXX@@@o    .XXXXo    ",
"    .XXXXo    .@@@@@@@@@@@@@@@@@@@@@@@@@@@@@@@@@@o    .XXXXo    ",
"    .XXXXo    .@@@@@@@@@@@@@@@@@@@@@@@@@@@@@@@@@@o    .XXXXo    ",
"    .ooooo    .ooooooooooooooooooooooooooooooooooo    .ooooo    ",
"                                                                ",
"                                                                ",
"                                                                ",
"                                                                ",
"    ........................................................    ",
"    .@@@@@@@@@@@@@@@@@@@@@@@@@@@@@@@@@@@@@@@@@@@@@@@@@@@@@@o    ",
"    .@@@@@@@@@@@@@@@@@@@@@@@@@@@@@@@@@@@@@@@@@@@@@@@@@@@@@@o    ",
"    .@@@@@@@@@@@@@@@@@@@@@@@@@@@@@XXXXXXXXXXXXXXXXXXXXX@@@@o    ",
"    .@@@@@@@@@@@@@@@@@@@@@X@@@@@@X@@@@@@@@@@@@@@@@@@@@@X@@@o    ",
"    .@@@@@@@@@@@@@@@@@@@@XXX@@@@@X@@@@@@@@@@@@@@@@@@@@@X@@@o    ",
"    .@@@@@XXXX@@@@@@@@@@XXX@XX@@@X@@@@XXX@@@XXX@@@X@@@@X@@@o    ",
"    .@@@@X@@@XXX@@@@@@@@XX@@@@XX@X@X@X@@@X@X@@@X@X@X@X@XXX@o    ",
"    .@@@@X@@@X@@@@@@@@@XXX@@@@@@@X@X@X@@@X@X@@@X@@X@X@@XXX@o    ",
"    .@@XXX@@@X@@@XX@@@@XX@@@@@@@@X@@@@XXX@@@XXX@@@@X@@@XXX@o    ",
"    .@X@@X@@@XXX@@@XX@XXX@@@@@@@@X@X@X@@@X@X@@@X@@X@X@@XXX@o    ",
"    .@X@@@XXXX@@@@@@@XXX@@@@@@@@@X@X@X@@@X@X@@@X@X@X@X@XXX@o    ",
"    .@X@@@@@@@@@@@@@@@X@@@@@@@@@@X@@@@XXX@@@XXX@@@@@X@@X@@@o    ",
"    .@X@@@@@@@@@@@@@@@@@@@@@@@@@@X@@@@@@@@@@@@@@@@@@@@@X@@@o    ",
"    .@@@@@@@@@@@@@@@@@@@@@@@@@@@@X@@@@@@@@@@@@@@@@@@@@@X@@@o    ",
"    .@@@@@@@@@@@@@@@@@@@@@@@@@@@@@XXXXXXXXXXXXXXXXXXXXX@@@@o    ",
"    .@@@@@@@@@@@@@@@@@@@@@@@@@@@@@@@@@@@@@@@@@@@@@@@@@@@@@@o    ",
"    .@@@@@@@@@@@@@@@@@@@@@@@@@@@@@@@@@@@@@@@@@@@@@@@@@@@@@@o    ",
"    .@@@@@@@@@@@@@@@@@@@@@@@@@@@@@@@@@@@@@@@@@@@@@@@@@@@@@@o    ",
"    .ooooooooooooooooooooooooooooooooooooooooooooooooooooooo    ",
"                                                                ",
"                                                                ",
"                                                                ",
"                                                                ",
"                                                                "};
