/* XPM */
static char *plugged[] = {
/* width height num_colors chars_per_pixel */
"    10     8        2            1",
/* colors */
". c #202020",
"# c #20b2ae",
/* pixels */
"....####..",
"...#...###",
"...#...#..",
".###...#..",
"#..#...###",
"#...####..",
"#.........",
"#........."
};
