/* XPM */
static char *wmapm_master_LowColor[] = {
/* width height num_colors chars_per_pixel */
"   128   120       10            1",
/* colors */
". c #000000",
"# c #004840",
"a c #282828",
"b c #00ff00",
"c c #20b0a8",
"d c #ff0000",
"e c #ffff00",
"f c #a8a8a8",
"g c #d3d3d3",
"h c #f7f7ff",
/* pixels */
"................................................................................................................................",
"................................................................................................................................",
"................................................................................................................................",
"................................................................................................................................",
"................................................................................................................................",
".....aaaaaaaaaaaaaaaaaaaaaaaaaaaaaaaaaaaaaaaaaaaaaaaaaaaaaag......aaaaaaaaaaaaaaaaaaaaaaaaaaaaaa.aaaaaaaaaaaaaa.................",
".....aaaaaaaaaaaaaaaaaaaaaaaaaaaaaaaaaaaaaaaaaaaaaaaaaaaaaag......aaaaaaacccccaaaaa##########aaa.aadddaaa###aaa.................",
".....aa###aaaaaaaaaaaaccccaaaaccccaaaaaaaaaccccaaaaccccaaaag......aaaaaacaaaacccaaa#aaaaaaaa#aaa.adaaada#aaa#aa.................",
".....a#aaa#aaaaaaaaaacaaaacaacaaaacaaa#caacaaaacaacaaaacaaag......aaaaaacaaaacaaaaa#aaaaaaaa##aa.adaaaaa#aaaaaa.................",
".....a#aaaaaaaaaacaaacaaaacaacaaaacaaa#caacaaaacaacaaaacaaag......aaaacccaaaacaaaaa#aaaaaaaa##aa.adaaaaa#aaaaaa.................",
".....a#aaaaaaaaaacaaacaaaacaacaaaacaaaaaaacaaaacaacaaaacaaag......aaacaacaaaacccaaa#aaaaaaaa##aa.adaaaaa#aaaaaa.................",
".....a#aaaaaaaaccccca######aa######aaaaaaa######aa######aaag......aacaaaacccccaaaaa#aaaaaaaa#aaa.adaaada#aaa#aa.................",
".....a#aaa#aaaaaacaaacaaaacaacaaaacaaaaaaacaaaacaacaaaacaaag......aacaaaaaaaaaaaaaa##########aaa.aadddaaa###aaa.................",
".....aa###aaaaaaacaaacaaaacaacaaaacaaa#caacaaaacaacaaaacaaag......aaaaaaaaaaaaaaaaaaaaaaaaaaaaaa.aaaaaaaaaaaaaa.................",
".....aaaaaaaaaaaaaaaacaaaacaacaaaacaaa#caacaaaacaacaaaacaaag......aaaaaaaaaaaaaaaaaaaaaaaaaaaaaa................................",
".....aaaaaaaaaaaaaaaaaccccaaaaccccaaaaaaaaaccccaaaaccccaaaag....................................................................",
".....aaaaaaaaaaaaaaaaaaaaaaaaaaaaaaaaaaaaaaaaaaaaaaaaaaaaaag....................................................................",
".....aaaaaaaaaaaaaaaaaaaaaaaaaaaaaaaaaaaaaaaaaaaaaaaaaaaaaag....................................................................",
".....aaaaaaaaaaaaaaaaaaaaaaaaaaaaaaaaaaaaaaaaaaaaaaaaaaaaaag....................................................................",
".....aaaaaaaaaaaaaaaaaaaaaaaaaaaaaaaaaaaaaaaaaaaaaaaaaaaaaag......aaaaaaaaaaaaaaaaaaaaaaaaaaaaaa................................",
".....aaaaaaaaaaaaaaaaaaaaaaaaaaaaaaaaaaaaaaaaaaaaaaaaaaaaaag......aaaaaaa#####aaaaaccccccccccaaa................................",
".....aacacacacacacacacacacacacacacacacacacacacacacacacacaaag......aaaaaa#aaaa###aaacaaaaaaaacaaa................................",
".....aacacacacacacacacacacacacacacacacacacacacacacacacacaaag......aaaaaa#aaaa#aaaaacaaaaaaaaccaa................................",
".....aacacacacacacacacacacacacacacacacacacacacacacacacacaaag......aaaa###aaaa#aaaaacaaaaaaaaccaa................................",
".....aacacacacacacacacacacacacacacacacacacacacacacacacacaaag......aaa#aa#aaaa###aaacaaaaaaaaccaa................................",
".....aacacacacacacacacacacacacacacacacacacacacacacacacacaaag......aa#aaaa#####aaaaacaaaaaaaacaaa................................",
".....aacacacacacacacacacacacacacacacacacacacacacacacacacaaag......aa#aaaaaaaaaaaaaaccccccccccaaa................................",
".....aacacacacacacacacacacacacacacacacacacacacacacacacacaaag......aaaaaaaaaaaaaaaaaaaaaaaaaaaaaa................................",
".....aaaaaaaaaaaaaaaaaaaaaaaaaaaaaaaaaaaaaaaaaaaaaaaaaaaaaag......aaaaaaaaaaaaaaaaaaaaaaaaaaaaaa................................",
".....aadacacacacacacacacacacacacacacacacacacacacacacacabaaag....................................................................",
".....aaaaaaaaaaaaaaaaaaaaaaaaaaaaaaaaaaaaaaaaaaaaaaaaaaaaaag....................................................................",
".....aaaaaaaaaaaaaaaaaaaaaaaaaaaaaaaaaaaaaaaaaaaaaaaaaaaaaag......#a#a#a#a#a#a#a#a#a#a#a#a#a#a#a#a#a#a#a#a#a#a#a#a#.............",
".....aaaaaaaaaaaaaaaaaaaaaaaaaaaaaaaaaaaaaaaaaaaaaaaaaaaaaag......#a#a#a#a#a#a#a#a#a#a#a#a#a#a#a#a#a#a#a#a#a#a#a#a#.............",
".....aaaaaaaaaaaaaaaaaaaaaaaaaaaaaaaaaaaaaaaaaaaaaaaaaaaaaag......#a#a#a#a#a#a#a#a#a#a#a#a#a#a#a#a#a#a#a#a#a#a#a#a#.............",
".....aa#aacccaaacccaaacaaaaaaaaaaaaaaaaaaaaaaaaaaaaaaaaaaaag......#a#a#a#a#a#a#a#a#a#a#a#a#a#a#a#a#a#a#a#a#a#a#a#a#.............",
".....aacacaaacacaaacacacacaaaaaaaaaa#####aaaaa##########aaag......#a#a#a#a#a#a#a#a#a#a#a#a#a#a#a#a#a#a#a#a#a#a#a#a#.............",
".....aacacaaacacaaacaacacaaaaaaaaaa#aaaa###aaa#aaaaaaaa#aaag......#a#a#a#a#a#a#a#a#a#a#a#a#a#a#a#a#a#a#a#a#a#a#a#a#.............",
".....aa#a#####a#####aaacaaaaaaaaaaa#aaaa#aaaaa#aaaaaaaa##aag......#a#a#a#a#a#a#a#a#a#a#a#a#a#a#a#a#a#a#a#a#a#a#a#a#.............",
".....aacacaaacacaaacaacacaaaaaaaa###aaaa#aaaaa#aaaaaaaa##aag......aaaaaaaaaaaaaaaaaaaaaaaaaaaaaaaaaaaaaaaaaaaaaaaaa.............",
".....aacacaaacacaaacacacacaaaaaa#aa#aaaa###aaa#aaaaaaaa##aag......dacacacacacacacacacacacacacacacacacacacacacacacab.............",
".....aacaacccaaacccaaaaacaaaaaa#aaaa#####aaaaa#aaaaaaaa#aaag....................................................................",
".....aaaaaaaaaaaaaaaaaaaaaaaaaa#aaaaaaaaaaaaaa##########aaag....................................................................",
".....aaaaaaaaaaaaaaaaaaaaaaaaaaaaaaaaaaaaaaaaaaaaaaaaaaaaaag......cacacacacacacacacacacacacacacacacacacacacacacacab.............",
".....aaaaaaaaaaaaaaaaaaaaaaaaaaaaaaaaaaaaaaaaaaaaaaaaaaaaaag......cacacacacacacacacacacacacacacacacacacacacacacacab.............",
"....gggggggggggggggggggggggggggggggggggggggggggggggggggggggg......cacacacacacacacacacacacacacacacacacacacacacacacab.............",
"..................................................................cacacacacacacacacacacacacacacacacacacacacacacacab.............",
"..................................................................cacacacacacacacacacacacacacacacacacacacacacacacab.............",
"..................................................................cacacacacacacacacacacacacacacacacacacacacacacacab.............",
".....hhhhhhhhhhhhfg...aaaaaaaaaaaaaaaaaaaag..ahhhhhhhhhhhhfg......cacacacacacacacacacacacacacacacacacacacacacacacab.............",
".....hfffffffffff.g...aaaaaaaaaaaaaaaaaaaag..ahfffffffffff.g......aaaaaaaaaaaaaaaaaaaaaaaaaaaaaaaaaaaaaaaaaaaaaaaaa.............",
".....hffff...ffff.g...aaaaaaaaaaaaaaaaaaaag..ahfff.....fff.g......dacacacacacacacacacacacacacacacacacacacacacacacab.............",
".....hfff.fff.fff.g...aaa##aaaa##aaaa##aaag..ahfffffff.fff.g....................................................................",
".....hfff.fffffff.g...aa#a##aa#a##aa#a##aag..ahffffff.ffff.g......dadadadadadaeaeaeaeaeaeaeaeaeaeaeabababababababab.............",
".....hffff...ffff.g...aa####aa####aa####aag..ahfffff.fffff.g......dadadadadadaeaeaeaeaeaeaeaeaeaeaeabababababababab.............",
".....hfffffff.fff.g...aaa##aaaa##aaaa##aaag..ahffff.ffffff.g......dadadadadadaeaeaeaeaeaeaeaeaeaeaeabababababababab.............",
".....hfff.fff.fff.g...aaaaaaaaaaaaaaaaaaaag..ahfff.fffffff.g......dadadadadadaeaeaeaeaeaeaeaeaeaeaeabababababababab.............",
".....hffff...ffff.g...aaaaaaaaaaaaaaaaaaaag..ahfff.....fff.g......dadadadadadaeaeaeaeaeaeaeaeaeaeaeabababababababab.............",
".....hfffffffffff.g...aaaaaaaaaaaaaaaaaaaag..ahfffffffffff.g......dadadadadadaeaeaeaeaeaeaeaeaeaeaeabababababababab.............",
".....f............g...aaaaaaaaaaaaaaaaaaaag..af............g......dadadadadadaeaeaeaeaeaeaeaeaeaeaeabababababababab.............",
"....ggggggggggggggg..gggggggggggggggggggggg..ggggggggggggggg......aaaaaaaaaaaaaaaaaaaaaaaaaaaaaaaaaaaaaaaaaaaaaaaaa.............",
"..................................................................dacacacacacacacacacacacacacacacacacacacacacacacab.............",
"................................................................................................................................",
".......................................................................aaaaaaaaaaaaaaaaaaaaaaaaaaaaaaaaaaaaaaaaaaaaa............",
".......................................................................aaaaaaaaaaaaaaaaaaaaaaaaaaaaaaaaaaaaaaaaaaaaa............",
".......................................................................aaaaaaaaaaaaaaaaaaaaaaaaaaaaaaaaaaaaaaaaaaaaa............",
".......................................................................aaaaaaaaaaaaaaaaaaaaaaaaaaaaaaaaaaaaaaaaaaaaa............",
".......................................................................aaaaaaaaaaaaaaaaaaaaaaaaaaaaaaaaaaaaaaaaaaaaa............",
".......................................................................aaaaaaaaaaaaaaaaaaaaaaaaaaaaaaaaaaaaaaaaaaaaa............",
".......................................................................aaaaa##aaaa##aaaa##aaaaaaddaaaaeeaaaabbaaaaaa............",
".......................................................................aaaa#a##aa#a##aa#a##aaaadhddaaeheeaabhbbaaaaa............",
".......................................................................aaaa####aa####aa####aaaaddddaaeeeeaabbbbaaaaa............",
".......................................................................aaaaa##aaaa##aaaa##aaaaaaddaaaaeeaaaabbaaaaaa............",
".......................................................................aaaaaaaaaaaaaaaaaaaaaaaaaaaaaaaaaaaaaaaaaaaaa............",
".......................................................................aaaaaaaaaaaaaaaaaaaaaaaaaaaaaaaaaaaaaaaaaaaaa............",
".......................................................................aaaaaaaaaaaaaaaaaaaaaaaaaaaaaaaaaaaaaaaaaaaaa............",
".......................................................................aaaaaaaaaaaaaaaaaaaaaaaaaaaaaaaaaaaaaaaaaaaaa............",
".......................................................................aaaaaaaaaaaaaaaaaaaaaaaaaaaaaaaaaaaaaaaaaaaaa............",
".......................................................................aaaaaaaaaaaaaaaaaaaaaaaaaaaaaaaaaaaaaaaaaaaaa............",
"................................................................................................................................",
"................................................................................................................................",
"....aaaaaaaaaaaaaaaaaaaaaaaaaaaaaaaaaaaaaaaaaaaaaaaaaaaaaaaaaaaaaaaaaaaaaa.aaaaaaaaaaaaaaaaaaaaa................................",
"....aacccaaa####a#ccc#a#ccc#a#####a#ccc#a#ccc#a#ccc#a#ccc#a#ccc#aacaaaaaaa.a#aa###aaa###aaa#aaaa................................",
"....acaaaca#aaaca#aaaca#aaacacaaacacaaa#acaaa#a#aaacacaaacacaaacacacacaaaa.a#a#aaa#a#aaa#a#a#a#a................................",
"....acaaaca#aaaca#aaaca#aaacacaaacacaaa#acaaa#a#aaacacaaacacaaacaacacaaaca.a#a#aaa#a#aaa#aa#a#aa................................",
"....a#####aa####a#ccc#aaccc#a#ccc#a#ccc#a#ccc#aa####a#ccc#a#ccc#aaacaaaaaa.a#a#####a#####aaa#aaa................................",
"....acaaaca#aaacacaaa#a#aaaca#aaaca#aaacacaaaca#aaacacaaaca#aaacaacacaaaaa.a#a#aaa#a#aaa#aa#a#aa................................",
"....acaaaca#aaacacaaa#a#aaaca#aaaca#aaacacaaaca#aaacacaaaca#aaacacacacaaca.a#a#aaa#a#aaa#a#a#a#a................................",
"....aacccaaa###ca#ccc#a#ccc#aa####a#ccc#a#ccc#aa####a#ccc#a#ccc#aaaacaaaaa.a#aa###aaa###aaaaa#aa................................",
"....aaaaaaaaaaaaaaaaaaaaaaaaaaaaaaaaaaaaaaaaaaaaaaaaaaaaaaaaaaaaaaaaaaaaaa.aaaaaaaaaaaaaaaaaaaaa................................",
"................................................................................................................................",
"................................................................................................................................",
"................................................................................................................................",
"....aaaaaaaaaaaaaaaaaaaaaaaaaaaaaaaaaaaaaaaaaaaaaaaaaaaaaaaaaaaaaaaaaaaaaaaaaaaa..aaaaaaaaaaaaaaaaaaaaaaaaaaaaaaaaaaaaaaaaaaaa..",
"....aaccccaaa#####a#cccc#a#cccc#a######a#cccc#a#cccc#a#cccc#a#cccc#a#cccc#aaaaaa..aaaaaaaaccccaaaaccccaaaaaaaaaccccaaaaccccaaa..",
"....acaaaaca#aaaaca#aaaaca#aaaacacaaaacacaaaa#acaaaa#a#aaaacacaaaacacaaaacaa#caa..aaaaaaacaaaacaacaaaacaaa#caacaaaacaacaaaacaa..",
"....acaaaaca#aaaaca#aaaaca#aaaacacaaaacacaaaa#acaaaa#a#aaaacacaaaacacaaaacaa#caa..aaacaaacaaaacaacaaaacaaa#caacaaaacaacaaaacaa..",
"....acaaaaca#aaaaca#aaaaca#aaaacacaaaacacaaaa#acaaaa#a#aaaacacaaaacacaaaacaaaaaa..aaacaaacaaaacaacaaaacaaaaaaacaaaacaacaaaacaa..",
"....a######aa#####a#cccc#a#cccc#a#cccc#a#cccc#a#cccc#aa#####a#cccc#a#cccc#aaaaaa..accccca######aa######aaaaaaa######aa######aa..",
"....acaaaaca#aaaacacaaaa#a#aaaaca#aaaaca#aaaacacaaaaca#aaaacacaaaaca#aaaacaaaaaa..aaacaaacaaaacaacaaaacaaaaaaacaaaacaacaaaacaa..",
"....acaaaaca#aaaacacaaaa#a#aaaaca#aaaaca#aaaacacaaaaca#aaaacacaaaaca#aaaacaa#caa..aaacaaacaaaacaacaaaacaaa#caacaaaacaacaaaacaa..",
"....acaaaaca#aaaacacaaaa#a#aaaaca#aaaaca#aaaacacaaaaca#aaaacacaaaaca#aaaacaa#caa..aaaaaaacaaaacaacaaaacaaa#caacaaaacaacaaaacaa..",
"....aaccccaaa#####a#cccc#a#cccc#aa#####a#cccc#a#cccc#aa#####a#cccc#a#cccc#aaaaaa..aaaaaaaaccccaaaaccccaaaaaaaaaccccaaaaccccaaa..",
"....aaaaaaaaaaaaaaaaaaaaaaaaaaaaaaaaaaaaaaaaaaaaaaaaaaaaaaaaaaaaaaaaaaaaaaaaaaaa..aaaaaaaaaaaaaaaaaaaaaaaaaaaaaaaaaaaaaaaaaaaa..",
"................................................................................................................................",
"................................................................................................................................",
"....aaaaaaaaaaaaaaaaaaaaaaaaaaaaaaaa...aaaaaaaaaaaaaaaaaaaaaaaaaaaaaaaa...........aaaaaaaaaaaaaaaaaaaaaaaaaaaaaaaaaaaaaaaaaaaa..",
"....a............faaa............faa...aaahhhhhhhhhhhhfaahhhhhhhhhhhhfa...........aaaaaaaa####aaaa####aaaaaaaaa####aaaa####aaa..",
"....a.fffffffffffhaaa.fffffffffffhaa...aaahfffffffffff.aahfffffffffff.a...........aaaaaaa#aaaa#aa#aaaa#aaa#caa#aaaa#aa#aaaa#aa..",
"....a.ffff...ffffhaaa.fff.....fffhaa...aaahffff...ffff.aahfff.....fff.a...........aaaaaaa#aaaa#aa#aaaa#aaa#caa#aaaa#aa#aaaa#aa..",
"....a.fff.fff.fffhaaa.fffffff.fffhaa...aaahfff.fff.fff.aahfffffff.fff.a...........aaaaaaa#aaaa#aa#aaaa#aaaaaaa#aaaa#aa#aaaa#aa..",
"....a.fff.fffffffhaaa.ffffff.ffffhaa...aaahfff.fffffff.aahffffff.ffff.a...........accccca#cccc#aa#cccc#aaaaaaa#cccc#aa#cccc#aa..",
"....a.ffff...ffffhaaa.fffff.fffffhaa...aaahffff...ffff.aahfffff.fffff.a...........aaaaaaa#aaaa#aa#aaaa#aaaaaaa#aaaa#aa#aaaa#aa..",
"....a.fffffff.fffhaaa.ffff.ffffffhaa...aaahfffffff.fff.aahffff.ffffff.a...........aaaaaaa#aaaa#aa#aaaa#aaa#caa#aaaa#aa#aaaa#aa..",
"....a.fff.fff.fffhaaa.fff.fffffffhaa...aaahfff.fff.fff.aahfff.fffffff.a...........aaaaaaa#aaaa#aa#aaaa#aaa#caa#aaaa#aa#aaaa#aa..",
"....a.ffff...ffffhaaa.fff.....fffhaa...aaahffff...ffff.aahfff.....fff.a...........aaaaaaaa####aaaa####aaaaaaaaa####aaaa####aaa..",
"....a.fffffffffffhaaa.fffffffffffhaa...aaahfffffffffff.aahfffffffffff.a...........aaaaaaaaaaaaaaaaaaaaaaaaaaaaaaaaaaaaaaaaaaaa..",
"....afhhhhhhhhhhhhaaafhhhhhhhhhhhhaa...aaaf............aaf............a.........................................................",
"....aaaaaaaaaaaaaaaaaaaaaaaaaaaaaaaa...aaaaaaaaaaaaaaaaaaaaaaaaaaaaaaaa.........................................................",
"....aaaaaaaaaaaaaaaaaaaaaaaaaaaaaaaa...aaaaaaaaaaaaaaaaaaaaaaaaaaaaaaaa.........................................................",
"................................................................................................................................"
};
