/* XPM */
static char *wmapm_master[] = {
/* width height num_colors chars_per_pixel */
"   128   120       44            1",
/* colors */
". c #000000",
"# c #003900",
"a c #3c0000",
"b c #4c3c00",
"c c #282828",
"d c #00445a",
"e c #006b8e",
"f c #590000",
"g c #48484a",
"h c #0000ff",
"i c #00e500",
"j c #00ff00",
"k c #1fff00",
"l c #3fff00",
"m c #5fff00",
"n c #7fff00",
"o c #00b0ea",
"p c #e90000",
"q c #ff0000",
"r c #ff2600",
"s c #ff4c00",
"t c #ff7200",
"u c #9fff00",
"v c #bfff00",
"w c #ff9800",
"x c #ffbd00",
"y c #dfff00",
"z c #ffc500",
"A c #ffcd00",
"B c #ffd500",
"C c #ffdd00",
"D c #e9e900",
"E c #ffe500",
"F c #ffea00",
"G c #ffef00",
"H c #fff400",
"I c #fffa00",
"J c #ffff00",
"K c #888888",
"L c #999999",
"M c #a0a0a0",
"N c #b2b2b2",
"O c #d3d3d3",
"P c #f7f7ff",
/* pixels */
"hhhhhhhhhhhhhhhhhhhhhhhhhhhhhhhhhhhhhhhhhhhhhhhhhhhhhhhhhhhhhhhhhhhhhhhhhhhhhhhhhhhhhhhhhhhhhhhhhhhhhhhhhhhhhhhhhhhhhhhhhhhhhhhh",
"hhhhhhhhhhhhhhhhhhhhhhhhhhhhhhhhhhhhhhhhhhhhhhhhhhhhhhhhhhhhhhhhhhhhhhhhhhhhhhhhhhhhhhhhhhhhhhhhhhhhhhhhhhhhhhhhhhhhhhhhhhhhhhhh",
"hhhhhhhhhhhhhhhhhhhhhhhhhhhhhhhhhhhhhhhhhhhhhhhhhhhhhhhhhhhhhhhhhhhhhhhhhhhhhhhhhhhhhhhhhhhhhhhhhhhhhhhhhhhhhhhhhhhhhhhhhhhhhhhh",
"hhhhhhhhhhhhhhhhhhhhhhhhhhhhhhhhhhhhhhhhhhhhhhhhhhhhhhhhhhhhhhhhhhhhhhhhhhhhhhhhhhhhhhhhhhhhhhhhhhhhhhhhhhhhhhhhhhhhhhhhhhhhhhhh",
"hhhh........................................................hhhhhhhhhhhhhhhhhhhhhhhhhhhhhhhhhhhhhhhhhhhhhhhhhhhhhhhhhhhhhhhhhhhh",
"hhhh.ccccccccccccccccccccccccccccccccccccccccccccccccccccccOhhhhhhcccccccccccccccccccccccccccccchcccccccccccccchhhhhhhhhhhhhhhhh",
"hhhh.ccccccccccccccccccccccccccccccccccccccccccccccccccccccOhhhhhhcccccccooooocccccddddddddddccchccpppcccfffccchhhhhhhhhhhhhhhhh",
"hhhh.ccfffccccccccccccooooccccoooocccccccccooooccccooooccccOhhhhhhccccccoccccooocccdccccccccdccchcpcccpcfcccfcchhhhhhhhhhhhhhhhh",
"hhhh.cfcccfccccccccccoccccoccoccccoccceoccoccccoccoccccocccOhhhhhhccccccoccccocccccdccccccccddcchcpcccccfcccccchhhhhhhhhhhhhhhhh",
"hhhh.cfccccccccccocccoccccoccoccccoccceoccoccccoccoccccocccOhhhhhhccccoooccccocccccdccccccccddcchcpcccccfcccccchhhhhhhhhhhhhhhhh",
"hhhh.cfccccccccccocccoccccoccoccccocccccccoccccoccoccccocccOhhhhhhcccoccoccccooocccdccccccccddcchcpcccccfcccccchhhhhhhhhhhhhhhhh",
"hhhh.cfccccccccoooooceddddecceddddeccccccceddddecceddddecccOhhhhhhccoccccooooocccccdccccccccdccchcpcccpcfcccfcchhhhhhhhhhhhhhhhh",
"hhhh.cfcccfccccccocccoccccoccoccccocccccccoccccoccoccccocccOhhhhhhccoccccccccccccccddddddddddccchccpppcccfffccchhhhhhhhhhhhhhhhh",
"hhhh.ccfffcccccccocccoccccoccoccccoccceoccoccccoccoccccocccOhhhhhhcccccccccccccccccccccccccccccchcccccccccccccchhhhhhhhhhhhhhhhh",
"hhhh.ccccccccccccccccoccccoccoccccoccceoccoccccoccoccccocccOhhhhhhcccccccccccccccccccccccccccccchhhhhhhhhhhhhhhhhhhhhhhhhhhhhhhh",
"hhhh.cccccccccccccccccooooccccoooocccccccccooooccccooooccccOhhhhhhhhhhhhhhhhhhhhhhhhhhhhhhhhhhhhhhhhhhhhhhhhhhhhhhhhhhhhhhhhhhhh",
"hhhh.ccccccccccccccccccccccccccccccccccccccccccccccccccccccOhhhhhhhhhhhhhhhhhhhhhhhhhhhhhhhhhhhhhhhhhhhhhhhhhhhhhhhhhhhhhhhhhhhh",
"hhhh.ccccccccccccccccccccccccccccccccccccccccccccccccccccccOhhhhhhhhhhhhhhhhhhhhhhhhhhhhhhhhhhhhhhhhhhhhhhhhhhhhhhhhhhhhhhhhhhhh",
"hhhh.ccccccccccccccccccccccccccccccccccccccccccccccccccccccOhhhhhhhhhhhhhhhhhhhhhhhhhhhhhhhhhhhhhhhhhhhhhhhhhhhhhhhhhhhhhhhhhhhh",
"hhhh.ccccccccccccccccccccccccccccccccccccccccccccccccccccccOhhhhhhcccccccccccccccccccccccccccccchhhhhhhhhhhhhhhhhhhhhhhhhhhhhhhh",
"hhhh.ccccccccccccccccccccccccccccccccccccccccccccccccccccccOhhhhhhcccccccdddddcccccooooooooooccchhhhhhhhhhhhhhhhhhhhhhhhhhhhhhhh",
"hhhh.ccocococococococococococococococococococococococococccOhhhhhhccccccdccccdddcccoccccccccoccchhhhhhhhhhhhhhhhhhhhhhhhhhhhhhhh",
"hhhh.ccocococococococococococococococococococococococococccOhhhhhhccccccdccccdcccccoccccccccoocchhhhhhhhhhhhhhhhhhhhhhhhhhhhhhhh",
"hhhh.ccocococococococococococococococococococococococococccOhhhhhhccccdddccccdcccccoccccccccoocchhhhhhhhhhhhhhhhhhhhhhhhhhhhhhhh",
"hhhh.ccocococococococococococococococococococococococococccOhhhhhhcccdccdccccdddcccoccccccccoocchhhhhhhhhhhhhhhhhhhhhhhhhhhhhhhh",
"hhhh.ccocococococococococococococococococococococococococccOhhhhhhccdccccdddddcccccoccccccccoccchhhhhhhhhhhhhhhhhhhhhhhhhhhhhhhh",
"hhhh.ccocococococococococococococococococococococococococccOhhhhhhccdccccccccccccccooooooooooccchhhhhhhhhhhhhhhhhhhhhhhhhhhhhhhh",
"hhhh.ccocococococococococococococococococococococococococccOhhhhhhcccccccccccccccccccccccccccccchhhhhhhhhhhhhhhhhhhhhhhhhhhhhhhh",
"hhhh.ccccccccccccccccccccccccccccccccccccccccccccccccccccccOhhhhhhcccccccccccccccccccccccccccccchhhhhhhhhhhhhhhhhhhhhhhhhhhhhhhh",
"hhhh.ccpcocococococococococococococococococococococococjcccOhhhhhhhhhhhhhhhhhhhhhhhhhhhhhhhhhhhhhhhhhhhhhhhhhhhhhhhhhhhhhhhhhhhh",
"hhhh.ccccccccccccccccccccccccccccccccccccccccccccccccccccccOhhhhhhhhhhhhhhhhhhhhhhhhhhhhhhhhhhhhhhhhhhhhhhhhhhhhhhhhhhhhhhhhhhhh",
"hhhh.ccccccccccccccccccccccccccccccccccccccccccccccccccccccOhhhhhhdcdcdcdcdcdcdcdcdcdcdcdcdcdcdcdcdcdcdcdcdcdcdcdcdhhhhhhhhhhhhh",
"hhhh.ccccccccccccccccccccccccccccccccccccccccccccccccccccccOhhhhhhdcdcdcdcdcdcdcdcdcdcdcdcdcdcdcdcdcdcdcdcdcdcdcdcdhhhhhhhhhhhhh",
"hhhh.ccccccccccccccccccccccccccccccccccccccccccccccccccccccOhhhhhhdcdcdcdcdcdcdcdcdcdcdcdcdcdcdcdcdcdcdcdcdcdcdcdcdhhhhhhhhhhhhh",
"hhhh.cceccooocccooocccoccccccccccccccccccccccccccccccccccccOhhhhhhdcdcdcdcdcdcdcdcdcdcdcdcdcdcdcdcdcdcdcdcdcdcdcdcdhhhhhhhhhhhhh",
"hhhh.ccococccococccococococcccccccccdddddcccccddddddddddcccOhhhhhhdcdcdcdcdcdcdcdcdcdcdcdcdcdcdcdcdcdcdcdcdcdcdcdcdhhhhhhhhhhhhh",
"hhhh.ccococccococccoccococcccccccccdccccdddcccdccccccccdcccOhhhhhhdcdcdcdcdcdcdcdcdcdcdcdcdcdcdcdcdcdcdcdcdcdcdcdcdhhhhhhhhhhhhh",
"hhhh.ccecedddecedddecccocccccccccccdccccdcccccdccccccccddccOhhhhhhdcdcdcdcdcdcdcdcdcdcdcdcdcdcdcdcdcdcdcdcdcdcdcdcdhhhhhhhhhhhhh",
"hhhh.ccococccococccoccococcccccccdddccccdcccccdccccccccddccOhhhhhhccccccccccccccccccccccccccccccccccccccccccccccccchhhhhhhhhhhhh",
"hhhh.ccococccococccococococcccccdccdccccdddcccdccccccccddccOhhhhhhpcocococococococococococococococococococococococjhhhhhhhhhhhhh",
"hhhh.ccoccooocccooocccccoccccccdccccdddddcccccdccccccccdcccOhhhhhhhhhhhhhhhhhhhhhhhhhhhhhhhhhhhhhhhhhhhhhhhhhhhhhhhhhhhhhhhhhhhh",
"hhhh.ccccccccccccccccccccccccccdccccccccccccccddddddddddcccOhhhhhhhhhhhhhhhhhhhhhhhhhhhhhhhhhhhhhhhhhhhhhhhhhhhhhhhhhhhhhhhhhhhh",
"hhhh.ccccccccccccccccccccccccccccccccccccccccccccccccccccccOhhhhhhococococococococococococococococococococococococjhhhhhhhhhhhhh",
"hhhh.ccccccccccccccccccccccccccccccccccccccccccccccccccccccOhhhhhhococococococococococococococococococococococococjhhhhhhhhhhhhh",
"hhhhOOOOOOOOOOOOOOOOOOOOOOOOOOOOOOOOOOOOOOOOOOOOOOOOOOOOOOOOhhhhhhococococococococococococococococococococococococjhhhhhhhhhhhhh",
"hhhhhhhhhhhhhhhhhhhhhhhhhhhhhhhhhhhhhhhhhhhhhhhhhhhhhhhhhhhhhhhhhhococococococococococococococococococococococococjhhhhhhhhhhhhh",
"hhhhhhhhhhhhhhhhhhhhhhhhhhhhhhhhhhhhhhhhhhhhhhhhhhhhhhhhhhhhhhhhhhococococococococococococococococococococococococjhhhhhhhhhhhhh",
"hhhh...............hh......................hh...............hhhhhhococococococococococococococococococococococococjhhhhhhhhhhhhh",
"hhhh.PPPPPPPPPPPPKOhh.ccccccccccccccccccccOhhcPPPPPPPPPPPPKOhhhhhhococococococococococococococococococococococococjhhhhhhhhhhhhh",
"hhhh.PNNNNNNNNNNN.Ohh.ccccccccccccccccccccOhhcPNNNNNNNNNNN.Ohhhhhhccccccccccccccccccccccccccccccccccccccccccccccccchhhhhhhhhhhhh",
"hhhh.PNNNK...KNNN.Ohh.ccccccccccccccccccccOhhcPNNN.....NNN.Ohhhhhhpcocococococococococococococococococococococococjhhhhhhhhhhhhh",
"hhhh.PNNN.NNN.NNN.Ohh.cccaaccccbbcccc##cccOhhcPNNNKNNN.NNN.Ohhhhhhhhhhhhhhhhhhhhhhhhhhhhhhhhhhhhhhhhhhhhhhhhhhhhhhhhhhhhhhhhhhhh",
"hhhh.PNNN.NNNNNNN.Ohh.ccagaaccbgbbcc#g##ccOhhcPNNNNNM.MNNN.OhhhhhhqcqcrcsctcwcxczcAcBcCcEcFcGcHcIcJcycvcucncmclckcjhhhhhhhhhhhhh",
"hhhh.PNNNK...KNNN.Ohh.ccaaaaccbbbbcc####ccOhhcPNNNNM.MNNNN.OhhhhhhqcqcrcsctcwcxczcAcBcCcEcFcGcHcIcJcycvcucncmclckcjhhhhhhhhhhhhh",
"hhhh.PNNNNNNN.NNN.Ohh.cccaaccccbbcccc##cccOhhcPNNNM.MNNNNN.OhhhhhhqcqcrcsctcwcxczcAcBcCcEcFcGcHcIcJcycvcucncmclckcjhhhhhhhhhhhhh",
"hhhh.PNNN.NNN.NNN.Ohh.ccccccccccccccccccccOhhcPNNN.NNNKNNN.OhhhhhhqcqcrcsctcwcxczcAcBcCcEcFcGcHcIcJcycvcucncmclckcjhhhhhhhhhhhhh",
"hhhh.PNNNK...KNNN.Ohh.ccccccccccccccccccccOhhcPNNN.....NNN.OhhhhhhqcqcrcsctcwcxczcAcBcCcEcFcGcHcIcJcycvcucncmclckcjhhhhhhhhhhhhh",
"hhhh.PNNNNNNNNNNN.Ohh.ccccccccccccccccccccOhhcPNNNNNNNNNNN.OhhhhhhqcqcrcsctcwcxczcAcBcCcEcFcGcHcIcJcycvcucncmclckcjhhhhhhhhhhhhh",
"hhhh.K............Ohh.ccccccccccccccccccccOhhcK............OhhhhhhqcqcrcsctcwcxczcAcBcCcEcFcGcHcIcJcycvcucncmclckcjhhhhhhhhhhhhh",
"hhhhOOOOOOOOOOOOOOOhhOOOOOOOOOOOOOOOOOOOOOOhhOOOOOOOOOOOOOOOhhhhhhccccccccccccccccccccccccccccccccccccccccccccccccchhhhhhhhhhhhh",
"hhhhhhhhhhhhhhhhhhhhhhhhhhhhhhhhhhhhhhhhhhhhhhhhhhhhhhhhhhhhhhhhhhpcocococococococococococococococococococococococjhhhhhhhhhhhhh",
"hhhhhhhhhhhhhhhhhhhhhhhhhhhhhhhhhhhhhhhhhhhhhhhhhhhhhhhhhhhhhhhhhhhhhhhhhhhhhhhhhhhhhhhhhhhhhhhhhhhhhhhhhhhhhhhhhhhhhhhhhhhhhhhh",
"hhhhhhhhhhhhhhhhhhhhhhhhhhhhhhhhhhhhhhhhhhhhhhhhhhhhhhhhhhhhhhhhhhhhhhhccccccccccccccccccccccccccccccccccccccccccccchhhhhhhhhhhh",
"hhhhhhhhhhhhhhhhhhhhhhhhhhhhhhhhhhhhhhhhhhhhhhhhhhhhhhhhhhhhhhhhhhhhhhhccccccccccccccccccccccccccccccccccccccccccccchhhhhhhhhhhh",
"hhhhhhhhhhhhhhhhhhhhhhhhhhhhhhhhhhhhhhhhhhhhhhhhhhhhhhhhhhhhhhhhhhhhhhhccccccccccccccccccccccccccccccccccccccccccccchhhhhhhhhhhh",
"hhhhhhhhhhhhhhhhhhhhhhhhhhhhhhhhhhhhhhhhhhhhhhhhhhhhhhhhhhhhhhhhhhhhhhhccccccccccccccccccccccccccccccccccccccccccccchhhhhhhhhhhh",
"hhhhhhhhhhhhhhhhhhhhhhhhhhhhhhhhhhhhhhhhhhhhhhhhhhhhhhhhhhhhhhhhhhhhhhhccccccccccccccccccccccccccccccccccccccccccccchhhhhhhhhhhh",
"hhhhhhhhhhhhhhhhhhhhhhhhhhhhhhhhhhhhhhhhhhhhhhhhhhhhhhhhhhhhhhhhhhhhhhhccccccccccccccccccccccccccccccccccccccccccccchhhhhhhhhhhh",
"hhhhhhhhhhhhhhhhhhhhhhhhhhhhhhhhhhhhhhhhhhhhhhhhhhhhhhhhhhhhhhhhhhhhhhhcccccaaccccbbcccc##ccccccppccccDDcccciicccccchhhhhhhhhhhh",
"hhhhhhhhhhhhhhhhhhhhhhhhhhhhhhhhhhhhhhhhhhhhhhhhhhhhhhhhhhhhhhhhhhhhhhhccccagaaccbgbbcc#g##ccccpPppccDPDDcciPiiccccchhhhhhhhhhhh",
"hhhhhhhhhhhhhhhhhhhhhhhhhhhhhhhhhhhhhhhhhhhhhhhhhhhhhhhhhhhhhhhhhhhhhhhccccaaaaccbbbbcc####ccccppppccDDDDcciiiiccccchhhhhhhhhhhh",
"hhhhhhhhhhhhhhhhhhhhhhhhhhhhhhhhhhhhhhhhhhhhhhhhhhhhhhhhhhhhhhhhhhhhhhhcccccaaccccbbcccc##ccccccppccccDDcccciicccccchhhhhhhhhhhh",
"hhhhhhhhhhhhhhhhhhhhhhhhhhhhhhhhhhhhhhhhhhhhhhhhhhhhhhhhhhhhhhhhhhhhhhhccccccccccccccccccccccccccccccccccccccccccccchhhhhhhhhhhh",
"hhhhhhhhhhhhhhhhhhhhhhhhhhhhhhhhhhhhhhhhhhhhhhhhhhhhhhhhhhhhhhhhhhhhhhhccccccccccccccccccccccccccccccccccccccccccccchhhhhhhhhhhh",
"hhhhhhhhhhhhhhhhhhhhhhhhhhhhhhhhhhhhhhhhhhhhhhhhhhhhhhhhhhhhhhhhhhhhhhhccccccccccccccccccccccccccccccccccccccccccccchhhhhhhhhhhh",
"hhhhhhhhhhhhhhhhhhhhhhhhhhhhhhhhhhhhhhhhhhhhhhhhhhhhhhhhhhhhhhhhhhhhhhhccccccccccccccccccccccccccccccccccccccccccccchhhhhhhhhhhh",
"hhhhhhhhhhhhhhhhhhhhhhhhhhhhhhhhhhhhhhhhhhhhhhhhhhhhhhhhhhhhhhhhhhhhhhhccccccccccccccccccccccccccccccccccccccccccccchhhhhhhhhhhh",
"hhhhhhhhhhhhhhhhhhhhhhhhhhhhhhhhhhhhhhhhhhhhhhhhhhhhhhhhhhhhhhhhhhhhhhhccccccccccccccccccccccccccccccccccccccccccccchhhhhhhhhhhh",
"hhhhhhhhhhhhhhhhhhhhhhhhhhhhhhhhhhhhhhhhhhhhhhhhhhhhhhhhhhhhhhhhhhhhhhhhhhhhhhhhhhhhhhhhhhhhhhhhhhhhhhhhhhhhhhhhhhhhhhhhhhhhhhhh",
"hhhhhhhhhhhhhhhhhhhhhhhhhhhhhhhhhhhhhhhhhhhhhhhhhhhhhhhhhhhhhhhhhhhhhhhhhhhhhhhhhhhhhhhhhhhhhhhhhhhhhhhhhhhhhhhhhhhhhhhhhhhhhhhh",
"hhhhcccccccccccccccccccccccccccccccccccccccccccccccccccccccccccccccccccccchccccccccccccccccccccchhhhhhhhhhhhhhhhhhhhhhhhhhhhhhhh",
"hhhhccooocccdddeceoooeceoooecedddeceoooeceoooeceoooeceoooeceoooeccoccccccchcdccdddcccdddcccdcccchhhhhhhhhhhhhhhhhhhhhhhhhhhhhhhh",
"hhhhcocccocdcccocdcccocdcccococccococccdcocccdcdcccococccococccococococccchcdcdcccdcdcccdcdcdcdchhhhhhhhhhhhhhhhhhhhhhhhhhhhhhhh",
"hhhhcocccocdcccocdcccocdcccococccococccdcocccdcdcccococccococccoccococccochcdcdcccdcdcccdccdcdcchhhhhhhhhhhhhhhhhhhhhhhhhhhhhhhh",
"hhhhcedddeccdddeceoooeccoooeceoooeceoooeceoooeccdddeceoooeceoooecccocccccchcdcdddddcdddddcccdccchhhhhhhhhhhhhhhhhhhhhhhhhhhhhhhh",
"hhhhcocccocdcccococccdcdcccocdcccocdcccococccocdcccococccocdcccoccococcccchcdcdcccdcdcccdccdcdcchhhhhhhhhhhhhhhhhhhhhhhhhhhhhhhh",
"hhhhcocccocdcccococccdcdcccocdcccocdcccococccocdcccococccocdcccococococcochcdcdcccdcdcccdcdcdcdchhhhhhhhhhhhhhhhhhhhhhhhhhhhhhhh",
"hhhhccooocccdddoceoooeceoooeccdddeceoooeceoooeccdddeceoooeceoooeccccoccccchcdccdddcccdddcccccdcchhhhhhhhhhhhhhhhhhhhhhhhhhhhhhhh",
"hhhhcccccccccccccccccccccccccccccccccccccccccccccccccccccccccccccccccccccchccccccccccccccccccccchhhhhhhhhhhhhhhhhhhhhhhhhhhhhhhh",
"hhhhhhhhhhhhhhhhhhhhhhhhhhhhhhhhhhhhhhhhhhhhhhhhhhhhhhhhhhhhhhhhhhhhhhhhhhhhhhhhhhhhhhhhhhhhhhhhhhhhhhhhhhhhhhhhhhhhhhhhhhhhhhhh",
"hhhhhhhhhhhhhhhhhhhhhhhhhhhhhhhhhhhhhhhhhhhhhhhhhhhhhhhhhhhhhhhhhhhhhhhhhhhhhhhhhhhhhhhhhhhhhhhhhhhhhhhhhhhhhhhhhhhhhhhhhhhhhhhh",
"hhhhhhhhhhhhhhhhhhhhhhhhhhhhhhhhhhhhhhhhhhhhhhhhhhhhhhhhhhhhhhhhhhhhhhhhhhhhhhhhhhhhhhhhhhhhhhhhhhhhhhhhhhhhhhhhhhhhhhhhhhhhhhhh",
"hhhhcccccccccccccccccccccccccccccccccccccccccccccccccccccccccccccccccccccccccccchhcccccccccccccccccccccccccccccccccccccccccccchh",
"hhhhccoooocccddddeceooooeceooooeceddddeceooooeceooooeceooooeceooooeceooooecccccchhccccccccooooccccoooocccccccccooooccccooooccchh",
"hhhhcoccccocdccccocdccccocdccccococcccococcccdcoccccdcdccccococcccococcccocceocchhcccccccoccccoccoccccoccceoccoccccoccoccccocchh",
"hhhhcoccccocdccccocdccccocdccccococcccococcccdcoccccdcdccccococcccococcccocceocchhcccocccoccccoccoccccoccceoccoccccoccoccccocchh",
"hhhhcoccccocdccccocdccccocdccccococcccococcccdcoccccdcdccccococcccococcccocccccchhcccocccoccccoccoccccocccccccoccccoccoccccocchh",
"hhhhceddddeccddddeceooooeceooooeceooooeceooooeceooooeccddddeceooooeceooooecccccchhcoooooceddddecceddddeccccccceddddecceddddecchh",
"hhhhcoccccocdccccococcccdcdccccocdccccocdccccococcccocdccccococcccocdccccocccccchhcccocccoccccoccoccccocccccccoccccoccoccccocchh",
"hhhhcoccccocdccccococcccdcdccccocdccccocdccccococcccocdccccococcccocdccccocceocchhcccocccoccccoccoccccoccceoccoccccoccoccccocchh",
"hhhhcoccccocdccccococcccdcdccccocdccccocdccccococcccocdccccococcccocdccccocceocchhcccccccoccccoccoccccoccceoccoccccoccoccccocchh",
"hhhhccoooocccddddeceooooeceooooeccddddeceooooeceooooeccddddeceooooeceooooecccccchhccccccccooooccccoooocccccccccooooccccooooccchh",
"hhhhcccccccccccccccccccccccccccccccccccccccccccccccccccccccccccccccccccccccccccchhcccccccccccccccccccccccccccccccccccccccccccchh",
"hhhhhhhhhhhhhhhhhhhhhhhhhhhhhhhhhhhhhhhhhhhhhhhhhhhhhhhhhhhhhhhhhhhhhhhhhhhhhhhhhhhhhhhhhhhhhhhhhhhhhhhhhhhhhhhhhhhhhhhhhhhhhhhh",
"hhhhhhhhhhhhhhhhhhhhhhhhhhhhhhhhhhhhhhhhhhhhhhhhhhhhhhhhhhhhhhhhhhhhhhhhhhhhhhhhhhhhhhhhhhhhhhhhhhhhhhhhhhhhhhhhhhhhhhhhhhhhhhhh",
"hhhhcccccccccccccccccccccccccccccccchhhcccccccccccccccccccccccccccccccchhhhhhhhhhhcccccccccccccccccccccccccccccccccccccccccccchh",
"hhhhc............Kccc............KcchhhcccPPPPPPPPPPPPKccPPPPPPPPPPPPKchhhhhhhhhhhccccccccddddccccddddcccccccccddddccccddddccchh",
"hhhhc.NNNNNNNNNNNPccc.NNNNNNNNNNNPcchhhcccPNNNNNNNNNNN.ccPNNNNNNNNNNN.chhhhhhhhhhhcccccccdccccdccdccccdccceoccdccccdccdccccdcchh",
"hhhhc.NNNK...KNNNPccc.NNN.....NNNPcchhhcccPNNNK...KNNN.ccPNNN.....NNN.chhhhhhhhhhhcccccccdccccdccdccccdccceoccdccccdccdccccdcchh",
"hhhhc.NNN.NNN.NNNPccc.NNNKNNN.NNNPcchhhcccPNNN.NNN.NNN.ccPNNNKNNN.NNN.chhhhhhhhhhhcccccccdccccdccdccccdcccccccdccccdccdccccdcchh",
"hhhhc.NNN.NNNNNNNPccc.NNNNNL.LNNNPcchhhcccPNNN.NNNNNNN.ccPNNNNNM.MNNN.chhhhhhhhhhhcoooooceooooecceooooeccccccceooooecceooooecchh",
"hhhhc.NNNK...KNNNPccc.NNNNL.LNNNNPcchhhcccPNNNK...KNNN.ccPNNNNM.MNNNN.chhhhhhhhhhhcccccccdccccdccdccccdcccccccdccccdccdccccdcchh",
"hhhhc.NNNNNNN.NNNPccc.NNNL.LNNNNNPcchhhcccPNNNNNNN.NNN.ccPNNNM.MNNNNN.chhhhhhhhhhhcccccccdccccdccdccccdccceoccdccccdccdccccdcchh",
"hhhhc.NNN.NNN.NNNPccc.NNN.NNNKNNNPcchhhcccPNNN.NNN.NNN.ccPNNN.NNNKNNN.chhhhhhhhhhhcccccccdccccdccdccccdccceoccdccccdccdccccdcchh",
"hhhhc.NNNK...KNNNPccc.NNN.....NNNPcchhhcccPNNNK...KNNN.ccPNNN.....NNN.chhhhhhhhhhhccccccccddddccccddddcccccccccddddccccddddccchh",
"hhhhc.NNNNNNNNNNNPccc.NNNNNNNNNNNPcchhhcccPNNNNNNNNNNN.ccPNNNNNNNNNNN.chhhhhhhhhhhcccccccccccccccccccccccccccccccccccccccccccchh",
"hhhhcKPPPPPPPPPPPPcccKPPPPPPPPPPPPcchhhcccK............ccK............chhhhhhhhhhhhhhhhhhhhhhhhhhhhhhhhhhhhhhhhhhhhhhhhhhhhhhhhh",
"hhhhcccccccccccccccccccccccccccccccchhhcccccccccccccccccccccccccccccccchhhhhhhhhhhhhhhhhhhhhhhhhhhhhhhhhhhhhhhhhhhhhhhhhhhhhhhhh",
"hhhhcccccccccccccccccccccccccccccccchhhcccccccccccccccccccccccccccccccchhhhhhhhhhhhhhhhhhhhhhhhhhhhhhhhhhhhhhhhhhhhhhhhhhhhhhhhh",
"hhhhhhhhhhhhhhhhhhhhhhhhhhhhhhhhhhhhhhhhhhhhhhhhhhhhhhhhhhhhhhhhhhhhhhhhhhhhhhhhhhhhhhhhhhhhhhhhhhhhhhhhhhhhhhhhhhhhhhhhhhhhhhhh"
};
