/* XPM */
static char * cz2_xpm[] = {
"54 35 87 1",
" 	c None",
".	c #5454FF",
"+	c #E8E8FF",
"@	c #FFFFFF",
"#	c #0000FF",
"$	c #1212FF",
"%	c #A1A1FF",
"&	c #4747FF",
"*	c #E0E0FF",
"=	c #0D0DFF",
"-	c #9292FF",
";	c #FDFDFF",
">	c #3B3BFF",
",	c #D7D7FF",
"'	c #0808FF",
")	c #8585FF",
"!	c #FAFAFF",
"~	c #3030FF",
"{	c #CCCCFF",
"]	c #0404FF",
"^	c #7676FF",
"/	c #F6F6FF",
"(	c #2525FF",
"_	c #C0C0FF",
":	c #0101FF",
"<	c #6868FF",
"[	c #F1F1FF",
"}	c #1C1CFF",
"|	c #B3B3FF",
"1	c #5959FF",
"2	c #EAEAFF",
"3	c #1414FF",
"4	c #A6A6FF",
"5	c #4C4CFF",
"6	c #E4E4FF",
"7	c #0E0EFF",
"8	c #9797FF",
"9	c #FEFEFF",
"0	c #3F3FFF",
"a	c #D9D9FF",
"b	c #0909FF",
"c	c #8888FF",
"d	c #FBFBFF",
"e	c #6236D3",
"f	c #FF8080",
"g	c #0802F9",
"h	c #85057E",
"i	c #FA0106",
"j	c #FF0000",
"k	c #3B04C8",
"l	c #D6042D",
"m	c #0C02F4",
"n	c #920572",
"o	c #FD0103",
"p	c #4704BC",
"q	c #E00322",
"r	c #1202EF",
"s	c #A00564",
"t	c #FF0001",
"u	c #5404AF",
"v	c #E80219",
"w	c #1A02E7",
"x	c #AF0555",
"y	c #6405A0",
"z	c #EF0313",
"A	c #2203E0",
"B	c #BD0446",
"C	c #0301FD",
"D	c #720492",
"E	c #F5020C",
"F	c #2D03D5",
"G	c #C8043B",
"H	c #0601FA",
"I	c #800483",
"J	c #F90107",
"K	c #3704CC",
"L	c #D3042F",
"M	c #0B02F6",
"N	c #8D0577",
"O	c #FC0104",
"P	c #4304C1",
"Q	c #DD0325",
"R	c #1002F1",
"S	c #9C0467",
"T	c #FE0101",
"U	c #5205B2",
"V	c #E6031C",
".+@@@@@@@@@@@@@@@@@@@@@@@@@@@@@@@@@@@@@@@@@@@@@@@@@@@@",
"#$%@@@@@@@@@@@@@@@@@@@@@@@@@@@@@@@@@@@@@@@@@@@@@@@@@@@",
"###&*@@@@@@@@@@@@@@@@@@@@@@@@@@@@@@@@@@@@@@@@@@@@@@@@@",
"####=-;@@@@@@@@@@@@@@@@@@@@@@@@@@@@@@@@@@@@@@@@@@@@@@@",
"######>,@@@@@@@@@@@@@@@@@@@@@@@@@@@@@@@@@@@@@@@@@@@@@@",
"#######')!@@@@@@@@@@@@@@@@@@@@@@@@@@@@@@@@@@@@@@@@@@@@",
"#########~{@@@@@@@@@@@@@@@@@@@@@@@@@@@@@@@@@@@@@@@@@@@",
"##########]^/@@@@@@@@@@@@@@@@@@@@@@@@@@@@@@@@@@@@@@@@@",
"############(_@@@@@@@@@@@@@@@@@@@@@@@@@@@@@@@@@@@@@@@@",
"#############:<[@@@@@@@@@@@@@@@@@@@@@@@@@@@@@@@@@@@@@@",
"###############}|@@@@@@@@@@@@@@@@@@@@@@@@@@@@@@@@@@@@@",
"#################12@@@@@@@@@@@@@@@@@@@@@@@@@@@@@@@@@@@",
"##################34@@@@@@@@@@@@@@@@@@@@@@@@@@@@@@@@@@",
"####################56@@@@@@@@@@@@@@@@@@@@@@@@@@@@@@@@",
"#####################789@@@@@@@@@@@@@@@@@@@@@@@@@@@@@@",
"#######################0a@@@@@@@@@@@@@@@@@@@@@@@@@@@@@",
"########################bcd@@@@@@@@@@@@@@@@@@@@@@@@@@@",
"##########################efffffffffffffffffffffffffff",
"########################ghijjjjjjjjjjjjjjjjjjjjjjjjjjj",
"#######################kljjjjjjjjjjjjjjjjjjjjjjjjjjjjj",
"#####################mnojjjjjjjjjjjjjjjjjjjjjjjjjjjjjj",
"####################pqjjjjjjjjjjjjjjjjjjjjjjjjjjjjjjjj",
"##################rstjjjjjjjjjjjjjjjjjjjjjjjjjjjjjjjjj",
"#################uvjjjjjjjjjjjjjjjjjjjjjjjjjjjjjjjjjjj",
"###############wxjjjjjjjjjjjjjjjjjjjjjjjjjjjjjjjjjjjjj",
"#############:yzjjjjjjjjjjjjjjjjjjjjjjjjjjjjjjjjjjjjjj",
"############ABjjjjjjjjjjjjjjjjjjjjjjjjjjjjjjjjjjjjjjjj",
"##########CDEjjjjjjjjjjjjjjjjjjjjjjjjjjjjjjjjjjjjjjjjj",
"#########FGjjjjjjjjjjjjjjjjjjjjjjjjjjjjjjjjjjjjjjjjjjj",
"#######HIJjjjjjjjjjjjjjjjjjjjjjjjjjjjjjjjjjjjjjjjjjjjj",
"######KLjjjjjjjjjjjjjjjjjjjjjjjjjjjjjjjjjjjjjjjjjjjjjj",
"####MNOjjjjjjjjjjjjjjjjjjjjjjjjjjjjjjjjjjjjjjjjjjjjjjj",
"###PQjjjjjjjjjjjjjjjjjjjjjjjjjjjjjjjjjjjjjjjjjjjjjjjjj",
"#RSTjjjjjjjjjjjjjjjjjjjjjjjjjjjjjjjjjjjjjjjjjjjjjjjjjj",
"UVjjjjjjjjjjjjjjjjjjjjjjjjjjjjjjjjjjjjjjjjjjjjjjjjjjjj"};
